<svg width="35" height="35" viewBox="0 0 35 35" fill="none" xmlns="http://www.w3.org/2000/svg">
<path d="M24.8486 18.1946L17.9205 19.255C18.2304 16.1402 18.9994 12.6826 21.06 9.76482C23.3648 6.50019 27.3341 3.85948 34.1814 3.04332C34.6897 2.9838 35.0537 2.52202 34.9935 2.01303C34.947 1.62103 34.661 1.31454 34.2998 1.22287C32.0689 0.478545 29.9611 0.0968044 27.9826 0.016762C22.5507 -0.206946 18.1162 1.82216 14.7373 4.81793C11.3906 7.78429 9.08372 11.7043 7.87351 15.3069C7.40831 16.6875 7.1025 18.029 6.95952 19.2591L1.0877 18.2028C0.585554 18.1125 0.103932 18.447 0.0143115 18.9492C-0.0349453 19.2276 0.0457811 19.4992 0.212707 19.7017L11.9317 33.8699C12.258 34.2639 12.8437 34.3193 13.237 33.993L13.3458 33.8877L25.6867 19.7222C26.0233 19.3364 25.9822 18.7494 25.5964 18.4128C25.4951 18.3243 25.3757 18.2589 25.2466 18.2212C25.1174 18.1835 24.9816 18.1744 24.8486 18.1946Z" fill="#FF6E61"/>
</svg>
