<svg width="35" height="35" viewBox="0 0 35 35" fill="none" xmlns="http://www.w3.org/2000/svg">
<path d="M10.1514 16.0112L17.0795 14.9508C16.7696 18.0656 16.0006 21.5231 13.94 24.4409C11.6352 27.7056 7.66594 30.3463 0.818561 31.1624C0.31026 31.2219 -0.0536922 31.6837 0.00651136 32.1927C0.0530316 32.5847 0.338993 32.8912 0.70021 32.9829C2.93113 33.7272 5.03891 34.1089 7.0174 34.189C12.4493 34.4127 16.8838 32.3836 20.2627 29.3878C23.6094 26.4215 25.9163 22.5014 27.1265 18.8989C27.5917 17.5183 27.8975 16.1767 28.0405 14.9467L33.9123 16.003C34.4144 16.0933 34.8961 15.7587 34.9857 15.2566C35.0349 14.9782 34.9542 14.7066 34.7873 14.5041L23.0683 0.33588C22.7419 -0.0581745 22.1563 -0.113587 21.763 0.212738L21.6542 0.318092L9.31331 14.4835C8.97672 14.8694 9.01777 15.4564 9.40362 15.7929C9.5049 15.8815 9.62427 15.9469 9.75341 15.9845C9.88255 16.0222 10.0184 16.0313 10.1514 16.0112Z" fill="#FF6E61"/>
</svg>
