<?xml version="1.0" encoding="UTF-8"?>
<svg id="Layer_2" data-name="Layer 2" xmlns="http://www.w3.org/2000/svg" viewBox="0 0 318.49 58.27">
  <defs>
    <style>
      .cls-1 {
        fill: #ff6e61;
      }
    </style>
  </defs>
  <g id="Layer_1-2" data-name="Layer 1">
    <g>
      <g>
        <path class="cls-1" d="m2.7,54.44c-1.8-2-2.7-4.86-2.7-8.6v-2.63h6.85v3.16c0,2.99,1.25,4.48,3.76,4.48,1.23,0,2.16-.36,2.8-1.09.64-.73.96-1.9.96-3.52,0-1.93-.44-3.63-1.32-5.1-.88-1.47-2.5-3.24-4.87-5.3-2.99-2.64-5.07-5.02-6.26-7.15-1.19-2.13-1.78-4.53-1.78-7.21,0-3.65.92-6.47,2.77-8.47,1.84-2,4.52-3,8.04-3s6.09,1,7.87,3c1.78,2,2.67,4.86,2.67,8.6v1.91h-6.85v-2.37c0-1.58-.31-2.73-.92-3.46-.62-.73-1.51-1.09-2.7-1.09-2.42,0-3.62,1.47-3.62,4.41,0,1.67.45,3.23,1.35,4.68.9,1.45,2.54,3.21,4.91,5.27,3.03,2.63,5.12,5.03,6.26,7.18,1.14,2.15,1.71,4.68,1.71,7.58,0,3.78-.93,6.68-2.8,8.7-1.87,2.02-4.58,3.03-8.14,3.03s-6.17-1-7.97-3Z"/>
        <path class="cls-1" d="m35.97,56.78v-6.59c.7.18,1.49.26,2.37.26,1.45,0,2.52-.36,3.23-1.09.7-.73,1.05-1.83,1.05-3.33V10.67h7.25v35.18c0,3.78-.87,6.59-2.6,8.43-1.74,1.84-4.38,2.77-7.94,2.77-1.32,0-2.44-.09-3.36-.26Z"/>
        <path class="cls-1" d="m69.43,54.44c-1.84-2-2.77-4.86-2.77-8.6V10.67h7.25v35.7c0,1.58.32,2.72.95,3.43.64.7,1.55,1.05,2.73,1.05s2.1-.35,2.73-1.05c.64-.7.96-1.84.96-3.43V10.67h6.98v35.18c0,3.73-.92,6.6-2.77,8.6s-4.52,3-8.04,3-6.19-1-8.04-3ZM78.13,0h7.9l-7.05,7.58h-5.47l4.61-7.58Z"/>
        <path class="cls-1" d="m105.26,10.67h7.25v19.43l9.22-19.43h7.25l-8.63,16.93,8.76,29.18h-7.58l-6.13-20.55-2.9,5.86v14.69h-7.25V10.67Z"/>
        <path class="cls-1" d="m149.99,10.67h9.82l7.51,46.11h-7.25l-1.32-9.16v.13h-8.23l-1.32,9.02h-6.72l7.51-46.11Zm5.6-10.67h7.9l-7.05,7.58h-5.47l4.61-7.58Zm2.31,41.5l-3.23-22.79h-.13l-3.16,22.79h6.52Z"/>
        <path class="cls-1" d="m183.92,54.44c-1.8-2-2.7-4.86-2.7-8.6v-2.63h6.85v3.16c0,2.99,1.25,4.48,3.76,4.48,1.23,0,2.16-.36,2.8-1.09.64-.73.96-1.9.96-3.52,0-1.93-.44-3.63-1.32-5.1-.88-1.47-2.5-3.24-4.87-5.3-2.99-2.64-5.07-5.02-6.26-7.15-1.19-2.13-1.78-4.53-1.78-7.21,0-3.65.92-6.47,2.77-8.47,1.84-2,4.52-3,8.04-3s6.09,1,7.87,3c1.78,2,2.67,4.86,2.67,8.6v1.91h-6.85v-2.37c0-1.58-.31-2.73-.92-3.46-.62-.73-1.51-1.09-2.7-1.09-2.42,0-3.62,1.47-3.62,4.41,0,1.67.45,3.23,1.35,4.68.9,1.45,2.54,3.21,4.91,5.27,3.03,2.63,5.12,5.03,6.26,7.18,1.14,2.15,1.71,4.68,1.71,7.58,0,3.78-.93,6.68-2.8,8.7-1.87,2.02-4.58,3.03-8.14,3.03s-6.17-1-7.97-3Z"/>
        <path class="cls-1" d="m224.49,17.26h-7.58v-6.59h22.4v6.59h-7.58v39.52h-7.25V17.26Z"/>
      </g>
      <path class="cls-1" d="m305.76,8.64c-7.65-.49-12.67,7.99-12.9,8.38-.23-.39-5.25-8.87-12.9-8.38-8.54.55-18.77,8.41-8.27,24.69,10.1,15.67,20.67,24.52,21.16,24.93h0s0,.01,0,0c0,0,0,0,0,0h0c.49-.42,11.07-9.27,21.16-24.94,10.49-16.28.27-24.14-8.27-24.69Z"/>
    </g>
  </g>
</svg>