<svg width="108" height="114" viewBox="0 0 108 114" fill="none" xmlns="http://www.w3.org/2000/svg">
<path d="M93.9103 54.0423V60.5242C93.9103 81.6765 77.6021 99.0195 56.8747 100.672V38.1191H70.6446V31.6372H56.8747V19.7956C60.6258 18.4629 63.3094 14.8824 63.3094 10.6774C63.3094 5.33213 58.9772 1 53.632 1C48.2867 1 43.9546 5.33213 43.9546 10.6774C43.9546 14.8861 46.6417 18.4629 50.3892 19.7956V31.6372H35.9802V38.1191H50.3892V100.668C29.6618 99.0159 13.3537 81.6764 13.3537 60.5205V54.0387L1 60.5205H7.61985C7.61985 85.0245 26.7786 105.055 50.9375 106.449L53.6465 113L56.3264 106.449C80.4781 105.051 99.6368 85.0245 99.6368 60.5205H106.257L93.903 54.0387L93.9103 54.0423Z" stroke="white" stroke-width="2" stroke-linecap="round" stroke-linejoin="round"/>
<path d="M53.6356 15.4128C56.2508 15.4128 58.3708 13.2928 58.3708 10.6776C58.3708 8.06241 56.2508 5.94238 53.6356 5.94238C51.0204 5.94238 48.9004 8.06241 48.9004 10.6776C48.9004 13.2928 51.0204 15.4128 53.6356 15.4128Z" stroke="white" stroke-width="2" stroke-linecap="round" stroke-linejoin="round"/>
</svg>
