<svg width="58" height="58" viewBox="0 0 58 58" fill="none" xmlns="http://www.w3.org/2000/svg">
<path d="M51.2174 21.3849C49.6458 23.6341 48.1463 25.7805 46.5913 28.0047C47.0967 28.7961 47.6243 29.7014 46.7385 30.6177C46.0304 31.348 45.2168 31.2314 44.3754 30.6732C42.5844 32.617 40.8128 34.5385 38.9829 36.5267C39.5521 37.3764 39.9103 38.3122 38.969 39.1425C38.1693 39.845 37.3363 39.6367 36.556 38.9647C34.59 40.7696 32.6629 42.5385 30.6831 44.36C31.1634 45.2514 31.3995 46.1733 30.4304 46.9036C29.5612 47.5561 28.7615 47.1729 28.0173 46.5954C25.8181 48.1337 23.6467 49.6498 21.4308 51.1965C21.5252 51.5741 21.7946 52.0379 21.6918 52.3933C21.5419 52.9098 21.2142 53.6068 20.7921 53.7567C20.2729 53.9427 19.4259 53.8456 19.0039 53.5096C18.3541 52.9959 17.9154 52.9903 17.1629 53.2624C15.544 53.8511 13.8446 54.2176 12.1952 54.7397C11.8675 54.8424 11.4677 55.1812 11.376 55.4922C11.0872 56.4696 10.5513 57.1083 9.5017 56.9917C8.44374 56.875 8.03555 56.142 8.0411 55.109C8.0411 54.8869 7.85228 54.562 7.65791 54.4592C4.12861 52.6099 3.8065 52.2878 2.38478 48.9834C2.15431 48.9723 1.90162 48.9529 1.64893 48.9473C0.682607 48.9195 0.0967081 48.3864 0.0106257 47.4728C-0.07823 46.5537 0.416037 45.8651 1.35182 45.7373C2.11821 45.6318 2.1904 45.1986 2.35146 44.5766C2.78742 42.8689 3.37332 41.1973 3.8537 39.4979C3.94534 39.1702 3.97311 38.6676 3.78984 38.4483C3.14562 37.6846 2.65135 36.9377 3.33444 35.9797C4.00088 35.0467 4.88945 35.1772 5.78635 35.6243C7.33303 33.4111 8.85193 31.2397 10.4069 29.0155C9.86546 28.2352 9.39618 27.3577 10.207 26.4608C10.9206 25.675 11.7731 25.7666 12.6117 26.3664C14.4305 24.3921 16.2021 22.465 18.0459 20.463C17.3628 19.6549 17.1295 18.7469 17.9765 17.9333C18.779 17.1586 19.6536 17.3891 20.4395 18.061C22.4277 16.2311 24.3548 14.4595 26.3291 12.6463C25.782 11.7716 25.6376 10.8886 26.5123 10.1694C27.4009 9.43633 28.2395 9.88617 28.9976 10.4221C31.2079 8.87819 33.3793 7.35651 35.5813 5.81817C35.4952 5.55437 35.2814 5.24615 35.3453 5.01568C35.5063 4.42144 35.6507 3.71058 36.0589 3.31906C36.667 2.73871 37.5029 2.9192 38.0471 3.52176C38.608 4.14654 39.0745 4.02714 39.7743 3.77723C41.6375 3.10802 43.5479 2.56932 45.5361 1.9501C45.9138 0.517275 46.4497 -0.0686284 47.4271 0.00634507C48.4101 0.0813185 48.8266 0.719981 49.0043 2.46658C51.6478 3.28851 53.5083 4.97958 54.433 7.65918C54.4996 7.85078 54.8495 8.06182 55.0661 8.06182C56.1573 8.05349 56.8599 8.51166 56.9904 9.61682C57.0959 10.5193 56.4767 11.1135 55.2549 11.4051C55.116 11.4384 54.9772 11.48 55.0966 11.4467C54.3663 13.6737 53.6749 15.7285 53.0335 17.7972C52.9585 18.0388 53.0584 18.447 53.2334 18.6386C53.9165 19.3939 54.3358 20.177 53.6221 21.1016C52.964 21.9569 52.1116 21.8847 51.2202 21.3876L51.2174 21.3849ZM5.48368 46.3399C5.40593 49.2916 7.03591 51.2548 9.97098 51.452C11.1928 51.5353 12.4812 51.3076 13.6724 50.9827C17.0685 50.0608 20.0424 48.2503 22.8497 46.2038C31.5661 39.845 39.0995 32.2699 45.5889 23.6702C48.038 20.4269 50.1345 16.9559 51.1702 12.9379C52.5031 7.77026 49.6319 4.66303 44.4226 5.7432C41.4515 6.35964 38.8135 7.76192 36.2866 9.38357C29.5196 13.7292 23.7744 19.2523 18.2986 25.0752C14.4722 29.146 10.9012 33.425 8.16051 38.3288C6.76378 40.8252 5.6364 43.4243 5.48091 46.3399L5.48368 46.3399Z" fill="white"/>
<path d="M36.5214 14.0589C35.6495 14.0311 34.9165 13.2675 34.9248 12.3901C34.9303 11.4654 35.7328 10.7184 36.6603 10.7712C37.535 10.8212 38.2542 11.6098 38.2153 12.4734C38.1736 13.3286 37.3684 14.0811 36.5242 14.0561L36.5214 14.0589Z" fill="white"/>
<path d="M44.5857 14.0614C43.7471 14.0392 42.9696 13.2367 42.9724 12.3925C42.9724 11.479 43.786 10.7209 44.7135 10.7709C45.5881 10.8181 46.2796 11.5845 46.249 12.4675C46.2185 13.345 45.4493 14.0836 44.5857 14.0586L44.5857 14.0614Z" fill="white"/>
<path d="M36.5896 22.101C35.7066 22.1177 34.9568 21.404 34.9263 20.521C34.8958 19.6019 35.6844 18.7883 36.5896 18.8049C37.4199 18.8216 38.214 19.6324 38.2168 20.4655C38.2168 21.3346 37.4726 22.0843 36.5924 22.101L36.5896 22.101Z" fill="white"/>
<path d="M42.9552 20.4311C42.9635 19.5953 43.7688 18.7928 44.6018 18.79C45.5126 18.79 46.279 19.5953 46.2429 20.5228C46.2096 21.4002 45.446 22.1139 44.5685 22.0889C43.7049 22.0639 42.9469 21.2836 42.958 20.4311L42.9552 20.4311Z" fill="white"/>
<path d="M20.4049 38.2445C19.5663 38.2223 18.786 37.4198 18.7833 36.5813C18.7833 35.676 19.6108 34.9041 20.5271 34.9513C21.4018 34.9985 22.096 35.7677 22.0654 36.6507C22.0349 37.5337 21.2713 38.264 20.4021 38.2418L20.4049 38.2445Z" fill="white"/>
<path d="M22.0624 44.6664C22.0513 45.5522 21.3154 46.2769 20.4268 46.2742C19.4994 46.2742 18.7274 45.4717 18.7747 44.5581C18.8191 43.7112 19.6438 42.9476 20.4768 42.9837C21.346 43.0225 22.0735 43.7945 22.0624 44.6664Z" fill="white"/>
<path d="M14.0167 36.5289C14.0472 37.373 13.2975 38.1811 12.4422 38.2283C11.5759 38.2755 10.7956 37.5646 10.7428 36.6788C10.6873 35.7347 11.4093 34.9517 12.345 34.9406C13.2253 34.9294 13.9834 35.6514 14.0139 36.5289L14.0167 36.5289Z" fill="white"/>
<path d="M12.3493 46.2782C11.4608 46.2616 10.7471 45.5313 10.7499 44.6427C10.7527 43.7541 11.483 43.0072 12.3577 42.9933C13.2407 42.9822 14.0682 43.8291 14.0321 44.7093C13.996 45.5896 13.2407 46.2921 12.3493 46.2754L12.3493 46.2782Z" fill="white"/>
<path d="M28.5166 38.2273C27.6586 38.2439 26.8922 37.5025 26.8644 36.6306C26.8367 35.7365 27.5225 34.984 28.4056 34.9423C29.333 34.8979 30.1077 35.6421 30.1133 36.5779C30.1133 37.4581 29.3858 38.2134 28.5194 38.23L28.5166 38.2273Z" fill="white"/>
<path d="M36.3974 30.1242C35.5033 30.0465 34.8563 29.2856 34.9201 28.386C34.9868 27.4557 35.8059 26.7976 36.7556 26.9087C37.5775 27.0059 38.2384 27.7751 38.1995 28.5859C38.1551 29.5078 37.336 30.2075 36.3974 30.127L36.3974 30.1242Z" fill="white"/>
<path d="M22.0625 28.5199C22.0653 29.4057 21.3516 30.1249 20.4547 30.1387C19.5745 30.1526 18.8136 29.4418 18.7748 28.5699C18.7359 27.6785 19.5412 26.8732 20.452 26.8899C21.3405 26.9066 22.0569 27.6285 22.0597 28.5171L22.0625 28.5199Z" fill="white"/>
<path d="M26.8617 20.4606C26.8562 19.5887 27.5892 18.8195 28.4473 18.7973C29.3469 18.7751 30.1272 19.5748 30.105 20.4995C30.0828 21.3992 29.3608 22.1045 28.4695 22.0934C27.5892 22.0823 26.8673 21.3492 26.8617 20.4634L26.8617 20.4606Z" fill="white"/>
<path d="M30.1259 28.5558C30.112 29.4583 29.4067 30.1525 28.5043 30.1525C27.5602 30.1525 26.8438 29.3972 26.8882 28.4448C26.9271 27.5395 27.6435 26.8842 28.5598 26.912C29.4595 26.937 30.1426 27.6534 30.1287 28.5586L30.1259 28.5558Z" fill="white"/>
</svg>
