<svg width="122" height="106" viewBox="0 0 122 106" fill="none" xmlns="http://www.w3.org/2000/svg">
<svg width="58" height="58" viewBox="0 0 58 58" fill="none" xmlns="http://www.w3.org/2000/svg">
<path d="M51.2174 21.3849C49.6458 23.6341 48.1463 25.7805 46.5913 28.0047C47.0967 28.7961 47.6243 29.7014 46.7385 30.6177C46.0304 31.348 45.2168 31.2314 44.3754 30.6732C42.5844 32.617 40.8128 34.5385 38.9829 36.5267C39.5521 37.3764 39.9103 38.3122 38.969 39.1425C38.1693 39.845 37.3363 39.6367 36.556 38.9647C34.59 40.7696 32.6629 42.5385 30.6831 44.36C31.1634 45.2514 31.3995 46.1733 30.4304 46.9036C29.5612 47.5561 28.7615 47.1729 28.0173 46.5954C25.8181 48.1337 23.6467 49.6498 21.4308 51.1965C21.5252 51.5741 21.7946 52.0379 21.6918 52.3933C21.5419 52.9098 21.2142 53.6068 20.7921 53.7567C20.2729 53.9427 19.4259 53.8456 19.0039 53.5096C18.3541 52.9959 17.9154 52.9903 17.1629 53.2624C15.544 53.8511 13.8446 54.2176 12.1952 54.7397C11.8675 54.8424 11.4677 55.1812 11.376 55.4922C11.0872 56.4696 10.5513 57.1083 9.5017 56.9917C8.44374 56.875 8.03555 56.142 8.0411 55.109C8.0411 54.8869 7.85228 54.562 7.65791 54.4592C4.12861 52.6099 3.8065 52.2878 2.38478 48.9834C2.15431 48.9723 1.90162 48.9529 1.64893 48.9473C0.682607 48.9195 0.0967081 48.3864 0.0106257 47.4728C-0.07823 46.5537 0.416037 45.8651 1.35182 45.7373C2.11821 45.6318 2.1904 45.1986 2.35146 44.5766C2.78742 42.8689 3.37332 41.1973 3.8537 39.4979C3.94534 39.1702 3.97311 38.6676 3.78984 38.4483C3.14562 37.6846 2.65135 36.9377 3.33444 35.9797C4.00088 35.0467 4.88945 35.1772 5.78635 35.6243C7.33303 33.4111 8.85193 31.2397 10.4069 29.0155C9.86546 28.2352 9.39618 27.3577 10.207 26.4608C10.9206 25.675 11.7731 25.7666 12.6117 26.3664C14.4305 24.3921 16.2021 22.465 18.0459 20.463C17.3628 19.6549 17.1295 18.7469 17.9765 17.9333C18.779 17.1586 19.6536 17.3891 20.4395 18.061C22.4277 16.2311 24.3548 14.4595 26.3291 12.6463C25.782 11.7716 25.6376 10.8886 26.5123 10.1694C27.4009 9.43633 28.2395 9.88617 28.9976 10.4221C31.2079 8.87819 33.3793 7.35651 35.5813 5.81817C35.4952 5.55437 35.2814 5.24615 35.3453 5.01568C35.5063 4.42144 35.6507 3.71058 36.0589 3.31906C36.667 2.73871 37.5029 2.9192 38.0471 3.52176C38.608 4.14654 39.0745 4.02714 39.7743 3.77723C41.6375 3.10802 43.5479 2.56932 45.5361 1.9501C45.9138 0.517275 46.4497 -0.0686284 47.4271 0.00634507C48.4101 0.0813185 48.8266 0.719981 49.0043 2.46658C51.6478 3.28851 53.5083 4.97958 54.433 7.65918C54.4996 7.85078 54.8495 8.06182 55.0661 8.06182C56.1573 8.05349 56.8599 8.51166 56.9904 9.61682C57.0959 10.5193 56.4767 11.1135 55.2549 11.4051C55.116 11.4384 54.9772 11.48 55.0966 11.4467C54.3663 13.6737 53.6749 15.7285 53.0335 17.7972C52.9585 18.0388 53.0584 18.447 53.2334 18.6386C53.9165 19.3939 54.3358 20.177 53.6221 21.1016C52.964 21.9569 52.1116 21.8847 51.2202 21.3876L51.2174 21.3849ZM5.48368 46.3399C5.40593 49.2916 7.03591 51.2548 9.97098 51.452C11.1928 51.5353 12.4812 51.3076 13.6724 50.9827C17.0685 50.0608 20.0424 48.2503 22.8497 46.2038C31.5661 39.845 39.0995 32.2699 45.5889 23.6702C48.038 20.4269 50.1345 16.9559 51.1702 12.9379C52.5031 7.77026 49.6319 4.66303 44.4226 5.7432C41.4515 6.35964 38.8135 7.76192 36.2866 9.38357C29.5196 13.7292 23.7744 19.2523 18.2986 25.0752C14.4722 29.146 10.9012 33.425 8.16051 38.3288C6.76378 40.8252 5.6364 43.4243 5.48091 46.3399L5.48368 46.3399Z" fill="white"/>
<path d="M36.5214 14.0589C35.6495 14.0311 34.9165 13.2675 34.9248 12.3901C34.9303 11.4654 35.7328 10.7184 36.6603 10.7712C37.535 10.8212 38.2542 11.6098 38.2153 12.4734C38.1736 13.3286 37.3684 14.0811 36.5242 14.0561L36.5214 14.0589Z" fill="white"/>
<path d="M44.5857 14.0614C43.7471 14.0392 42.9696 13.2367 42.9724 12.3925C42.9724 11.479 43.786 10.7209 44.7135 10.7709C45.5881 10.8181 46.2796 11.5845 46.249 12.4675C46.2185 13.345 45.4493 14.0836 44.5857 14.0586L44.5857 14.0614Z" fill="white"/>
<path d="M36.5896 22.101C35.7066 22.1177 34.9568 21.404 34.9263 20.521C34.8958 19.6019 35.6844 18.7883 36.5896 18.8049C37.4199 18.8216 38.214 19.6324 38.2168 20.4655C38.2168 21.3346 37.4726 22.0843 36.5924 22.101L36.5896 22.101Z" fill="white"/>
<path d="M42.9552 20.4311C42.9635 19.5953 43.7688 18.7928 44.6018 18.79C45.5126 18.79 46.279 19.5953 46.2429 20.5228C46.2096 21.4002 45.446 22.1139 44.5685 22.0889C43.7049 22.0639 42.9469 21.2836 42.958 20.4311L42.9552 20.4311Z" fill="white"/>
<path d="M20.4049 38.2445C19.5663 38.2223 18.786 37.4198 18.7833 36.5813C18.7833 35.676 19.6108 34.9041 20.5271 34.9513C21.4018 34.9985 22.096 35.7677 22.0654 36.6507C22.0349 37.5337 21.2713 38.264 20.4021 38.2418L20.4049 38.2445Z" fill="white"/>
<path d="M22.0624 44.6664C22.0513 45.5522 21.3154 46.2769 20.4268 46.2742C19.4994 46.2742 18.7274 45.4717 18.7747 44.5581C18.8191 43.7112 19.6438 42.9476 20.4768 42.9837C21.346 43.0225 22.0735 43.7945 22.0624 44.6664Z" fill="white"/>
<path d="M14.0167 36.5289C14.0472 37.373 13.2975 38.1811 12.4422 38.2283C11.5759 38.2755 10.7956 37.5646 10.7428 36.6788C10.6873 35.7347 11.4093 34.9517 12.345 34.9406C13.2253 34.9294 13.9834 35.6514 14.0139 36.5289L14.0167 36.5289Z" fill="white"/>
<path d="M12.3493 46.2782C11.4608 46.2616 10.7471 45.5313 10.7499 44.6427C10.7527 43.7541 11.483 43.0072 12.3577 42.9933C13.2407 42.9822 14.0682 43.8291 14.0321 44.7093C13.996 45.5896 13.2407 46.2921 12.3493 46.2754L12.3493 46.2782Z" fill="white"/>
<path d="M28.5166 38.2273C27.6586 38.2439 26.8922 37.5025 26.8644 36.6306C26.8367 35.7365 27.5225 34.984 28.4056 34.9423C29.333 34.8979 30.1077 35.6421 30.1133 36.5779C30.1133 37.4581 29.3858 38.2134 28.5194 38.23L28.5166 38.2273Z" fill="white"/>
<path d="M36.3974 30.1242C35.5033 30.0465 34.8563 29.2856 34.9201 28.386C34.9868 27.4557 35.8059 26.7976 36.7556 26.9087C37.5775 27.0059 38.2384 27.7751 38.1995 28.5859C38.1551 29.5078 37.336 30.2075 36.3974 30.127L36.3974 30.1242Z" fill="white"/>
<path d="M22.0625 28.5199C22.0653 29.4057 21.3516 30.1249 20.4547 30.1387C19.5745 30.1526 18.8136 29.4418 18.7748 28.5699C18.7359 27.6785 19.5412 26.8732 20.452 26.8899C21.3405 26.9066 22.0569 27.6285 22.0597 28.5171L22.0625 28.5199Z" fill="white"/>
<path d="M26.8617 20.4606C26.8562 19.5887 27.5892 18.8195 28.4473 18.7973C29.3469 18.7751 30.1272 19.5748 30.105 20.4995C30.0828 21.3992 29.3608 22.1045 28.4695 22.0934C27.5892 22.0823 26.8673 21.3492 26.8617 20.4634L26.8617 20.4606Z" fill="white"/>
<path d="M30.1259 28.5558C30.112 29.4583 29.4067 30.1525 28.5043 30.1525C27.5602 30.1525 26.8438 29.3972 26.8882 28.4448C26.9271 27.5395 27.6435 26.8842 28.5598 26.912C29.4595 26.937 30.1426 27.6534 30.1287 28.5586L30.1259 28.5558Z" fill="white"/>
</svg>
<svg width="81" height="80" viewBox="0 0 81 80" fill="none" xmlns="http://www.w3.org/2000/svg">
<path d="M30.013 8.1184C33.1697 10.3242 36.1822 12.4286 39.3038 14.611C40.4145 13.9018 41.685 13.1613 42.971 14.4045C43.996 15.3983 43.8323 16.5401 43.049 17.721C45.777 20.2346 48.4738 22.721 51.2642 25.2892C52.4567 24.4903 53.77 23.9876 54.9353 25.3087C55.9213 26.4311 55.629 27.6002 54.6859 28.6953C57.219 31.4545 59.7015 34.1591 62.258 36.9378C63.509 36.2636 64.8029 35.9323 65.8278 37.2924C66.7436 38.5122 66.2058 39.6346 65.3952 40.6791C67.5542 43.7656 69.6821 46.8132 71.8528 49.9231C72.3828 49.7906 73.0336 49.4126 73.5325 49.5568C74.2573 49.7672 75.2355 50.2271 75.446 50.8194C75.7071 51.5482 75.5707 52.7368 75.0991 53.3292C74.3781 54.2411 74.3703 54.8569 74.7523 55.913C75.5785 58.185 76.0929 60.5701 76.8256 62.885C76.9697 63.3449 77.4452 63.906 77.8817 64.0347C79.2535 64.4399 80.1498 65.1921 79.9861 66.6652C79.8225 68.15 78.7936 68.7229 77.3439 68.7151C77.0321 68.7151 76.5761 68.9801 76.4319 69.2529C73.8364 74.2062 73.3844 74.6583 68.7468 76.6536C68.7312 76.9771 68.7039 77.3317 68.6961 77.6863C68.6571 79.0426 67.9089 79.8649 66.6267 79.9857C65.3368 80.1104 64.3703 79.4167 64.191 78.1033C64.0429 77.0277 63.435 76.9264 62.562 76.7004C60.1653 76.0885 57.8192 75.2662 55.4341 74.592C54.9743 74.4634 54.2689 74.4244 53.961 74.6816C52.8893 75.5858 51.841 76.2795 50.4964 75.3208C49.187 74.3855 49.3702 73.1384 49.9976 71.8796C46.8916 69.7089 43.844 67.5771 40.7224 65.3948C39.6273 66.1547 38.3958 66.8133 37.137 65.6753C36.0341 64.6738 36.1627 63.4774 37.0045 62.3004C34.2336 59.7478 31.529 57.2614 28.7192 54.6737C27.5851 55.6324 26.3107 55.9598 25.1689 54.7711C24.0816 53.6449 24.405 52.4173 25.3482 51.3144C22.7799 48.524 20.2936 45.8194 17.7487 43.0485C16.5211 43.8163 15.2818 44.0189 14.2725 42.7913C13.2436 41.5442 13.875 40.3673 14.6271 39.3034C12.4603 36.2012 10.3247 33.1537 8.16563 30.0632C7.7954 30.184 7.36282 30.4841 7.03936 30.3945C6.20537 30.1685 5.2077 29.9658 4.6582 29.3929C3.8437 28.5394 4.09701 27.3664 4.94269 26.6026C5.81955 25.8153 5.65197 25.1606 5.30123 24.1785C4.36202 21.5636 3.60597 18.8823 2.73691 16.092C0.725981 15.5619 -0.0963172 14.8098 0.0089057 13.438C0.114129 12.0584 1.01047 11.4738 3.46178 11.2244C4.61533 7.51435 6.98869 4.90326 10.7494 3.60551C11.0183 3.51198 11.3145 3.02094 11.3145 2.71696C11.3028 1.18538 11.9459 0.199404 13.4969 0.0162377C14.7635 -0.131854 15.5975 0.73721 16.0067 2.45195C16.0535 2.64681 16.1119 2.84167 16.0651 2.67409C19.1907 3.69904 22.0745 4.66943 24.9779 5.56967C25.317 5.67489 25.8899 5.5346 26.1588 5.28908C27.2188 4.33038 28.3178 3.74191 29.6155 4.74347C30.8158 5.6671 30.7145 6.86352 30.0169 8.11451L30.013 8.1184ZM65.0367 72.3044C69.1794 72.4135 71.9346 70.1259 72.2113 66.0066C72.3282 64.2919 72.0087 62.4836 71.5527 60.8117C70.2589 56.0455 67.7179 51.8717 64.8457 47.9316C55.9213 35.6985 45.2898 25.1255 33.2204 16.0179C28.6685 12.5806 23.7971 9.63829 18.1579 8.18465C10.9053 6.31402 6.54442 10.3437 8.06041 17.6547C8.92558 21.8247 10.8936 25.5269 13.1696 29.0734C19.2686 38.5707 27.02 46.6339 35.1923 54.3191C40.9056 59.6893 46.9111 64.7011 53.7934 68.5475C57.297 70.5078 60.9447 72.09 65.0367 72.3083V72.3044Z" fill="white"/>
<path d="M19.7312 28.7427C19.6922 29.9664 18.6205 30.9952 17.389 30.9835C16.0913 30.9757 15.0429 29.8494 15.117 28.5478C15.1871 27.3202 16.2939 26.3108 17.5059 26.3654C18.7062 26.4239 19.7624 27.554 19.7273 28.7388L19.7312 28.7427Z" fill="white"/>
<path d="M19.7347 17.4256C19.7035 18.6025 18.5772 19.6937 17.3925 19.6898C16.1103 19.6898 15.0464 18.548 15.1166 17.2463C15.1828 16.0187 16.2584 15.0483 17.4977 15.0912C18.7292 15.1341 19.7659 16.2136 19.7308 17.4256H19.7347Z" fill="white"/>
<path d="M31.0169 28.649C31.0403 29.8883 30.0387 30.9405 28.7994 30.9834C27.5095 31.0262 26.3676 29.9194 26.391 28.649C26.4144 27.4837 27.5523 26.3691 28.7215 26.3652C29.9413 26.3652 30.9935 27.4097 31.0169 28.6451V28.649Z" fill="white"/>
<path d="M28.6743 19.7156C27.5013 19.7039 26.375 18.5737 26.3711 17.4045C26.3711 16.1263 27.5013 15.0507 28.8029 15.1013C30.0344 15.1481 31.036 16.2198 31.0009 17.4513C30.9658 18.6633 29.8707 19.7272 28.6743 19.7117V19.7156Z" fill="white"/>
<path d="M53.6757 51.3621C53.6445 52.5391 52.5182 53.6342 51.3413 53.6381C50.0708 53.6381 48.9874 52.4767 49.0537 51.1907C49.1199 49.9631 50.1994 48.9888 51.4387 49.0316C52.678 49.0745 53.703 50.1462 53.6718 51.366L53.6757 51.3621Z" fill="white"/>
<path d="M62.6876 49.0363C63.9308 49.0519 64.948 50.0846 64.9441 51.3317C64.9441 52.6334 63.8178 53.7168 62.5356 53.6505C61.347 53.5882 60.2753 52.4307 60.3259 51.2616C60.3805 50.0418 61.4639 49.0207 62.6876 49.0363Z" fill="white"/>
<path d="M51.2665 60.3284C52.4512 60.2855 53.5853 61.3378 53.6515 62.5381C53.7178 63.754 52.7201 64.8491 51.4769 64.9232C50.1519 65.0011 49.0529 63.9878 49.0373 62.6745C49.0217 61.4391 50.035 60.3752 51.2665 60.3323V60.3284Z" fill="white"/>
<path d="M64.9503 62.6699C64.9269 63.917 63.902 64.9186 62.6549 64.9147C61.4078 64.9108 60.3595 63.8858 60.34 62.6582C60.3244 61.4189 61.513 60.2576 62.7484 60.3082C63.9838 60.3589 64.9698 61.4189 64.9464 62.6699H64.9503Z" fill="white"/>
<path d="M53.6501 39.9772C53.6735 41.1814 52.6329 42.257 51.4092 42.296C50.1543 42.335 49.0982 41.3724 49.0398 40.1331C48.9774 38.8314 50.0218 37.7441 51.3352 37.7363C52.5706 37.7363 53.6306 38.7574 53.654 39.9733L53.6501 39.9772Z" fill="white"/>
<path d="M42.28 28.9173C42.1709 30.1722 41.1031 31.0802 39.8404 30.9906C38.5349 30.897 37.6113 29.7474 37.7672 28.4145C37.9036 27.261 38.9831 26.3335 40.121 26.388C41.4149 26.4504 42.397 27.6 42.2839 28.9173H42.28Z" fill="white"/>
<path d="M40.0263 49.0352C41.2694 49.0313 42.2788 50.0328 42.2983 51.2916C42.3178 52.527 41.3201 53.5948 40.0964 53.6494C38.8454 53.7039 37.7153 52.5738 37.7386 51.2955C37.762 50.0484 38.7753 49.043 40.0224 49.0391L40.0263 49.0352Z" fill="white"/>
<path d="M28.7178 42.2986C27.4941 42.3064 26.4146 41.2776 26.3834 40.0733C26.3523 38.8107 27.4746 37.7156 28.7724 37.7467C30.0351 37.7779 31.0249 38.7912 31.0094 40.0422C30.9938 41.2776 29.9649 42.2908 28.7217 42.2986H28.7178Z" fill="white"/>
<path d="M40.0778 37.721C41.3444 37.7405 42.3187 38.7303 42.3187 39.9969C42.3187 41.322 41.2587 42.3274 39.922 42.2651C38.6515 42.2105 37.7318 41.205 37.7707 39.919C37.8058 38.6563 38.8113 37.6976 40.0817 37.7171L40.0778 37.721Z" fill="white"/>
</svg>

</svg>
