<svg width="81" height="80" viewBox="0 0 81 80" fill="none" xmlns="http://www.w3.org/2000/svg">
<path d="M30.013 8.1184C33.1697 10.3242 36.1822 12.4286 39.3038 14.611C40.4145 13.9018 41.685 13.1613 42.971 14.4045C43.996 15.3983 43.8323 16.5401 43.049 17.721C45.777 20.2346 48.4738 22.721 51.2642 25.2892C52.4567 24.4903 53.77 23.9876 54.9353 25.3087C55.9213 26.4311 55.629 27.6002 54.6859 28.6953C57.219 31.4545 59.7015 34.1591 62.258 36.9378C63.509 36.2636 64.8029 35.9323 65.8278 37.2924C66.7436 38.5122 66.2058 39.6346 65.3952 40.6791C67.5542 43.7656 69.6821 46.8132 71.8528 49.9231C72.3828 49.7906 73.0336 49.4126 73.5325 49.5568C74.2573 49.7672 75.2355 50.2271 75.446 50.8194C75.7071 51.5482 75.5707 52.7368 75.0991 53.3292C74.3781 54.2411 74.3703 54.8569 74.7523 55.913C75.5785 58.185 76.0929 60.5701 76.8256 62.885C76.9697 63.3449 77.4452 63.906 77.8817 64.0347C79.2535 64.4399 80.1498 65.1921 79.9861 66.6652C79.8225 68.15 78.7936 68.7229 77.3439 68.7151C77.0321 68.7151 76.5761 68.9801 76.4319 69.2529C73.8364 74.2062 73.3844 74.6583 68.7468 76.6536C68.7312 76.9771 68.7039 77.3317 68.6961 77.6863C68.6571 79.0426 67.9089 79.8649 66.6267 79.9857C65.3368 80.1104 64.3703 79.4167 64.191 78.1033C64.0429 77.0277 63.435 76.9264 62.562 76.7004C60.1653 76.0885 57.8192 75.2662 55.4341 74.592C54.9743 74.4634 54.2689 74.4244 53.961 74.6816C52.8893 75.5858 51.841 76.2795 50.4964 75.3208C49.187 74.3855 49.3702 73.1384 49.9976 71.8796C46.8916 69.7089 43.844 67.5771 40.7224 65.3948C39.6273 66.1547 38.3958 66.8133 37.137 65.6753C36.0341 64.6738 36.1627 63.4774 37.0045 62.3004C34.2336 59.7478 31.529 57.2614 28.7192 54.6737C27.5851 55.6324 26.3107 55.9598 25.1689 54.7711C24.0816 53.6449 24.405 52.4173 25.3482 51.3144C22.7799 48.524 20.2936 45.8194 17.7487 43.0485C16.5211 43.8163 15.2818 44.0189 14.2725 42.7913C13.2436 41.5442 13.875 40.3673 14.6271 39.3034C12.4603 36.2012 10.3247 33.1537 8.16563 30.0632C7.7954 30.184 7.36282 30.4841 7.03936 30.3945C6.20537 30.1685 5.2077 29.9658 4.6582 29.3929C3.8437 28.5394 4.09701 27.3664 4.94269 26.6026C5.81955 25.8153 5.65197 25.1606 5.30123 24.1785C4.36202 21.5636 3.60597 18.8823 2.73691 16.092C0.725981 15.5619 -0.0963172 14.8098 0.0089057 13.438C0.114129 12.0584 1.01047 11.4738 3.46178 11.2244C4.61533 7.51435 6.98869 4.90326 10.7494 3.60551C11.0183 3.51198 11.3145 3.02094 11.3145 2.71696C11.3028 1.18538 11.9459 0.199404 13.4969 0.0162377C14.7635 -0.131854 15.5975 0.73721 16.0067 2.45195C16.0535 2.64681 16.1119 2.84167 16.0651 2.67409C19.1907 3.69904 22.0745 4.66943 24.9779 5.56967C25.317 5.67489 25.8899 5.5346 26.1588 5.28908C27.2188 4.33038 28.3178 3.74191 29.6155 4.74347C30.8158 5.6671 30.7145 6.86352 30.0169 8.11451L30.013 8.1184ZM65.0367 72.3044C69.1794 72.4135 71.9346 70.1259 72.2113 66.0066C72.3282 64.2919 72.0087 62.4836 71.5527 60.8117C70.2589 56.0455 67.7179 51.8717 64.8457 47.9316C55.9213 35.6985 45.2898 25.1255 33.2204 16.0179C28.6685 12.5806 23.7971 9.63829 18.1579 8.18465C10.9053 6.31402 6.54442 10.3437 8.06041 17.6547C8.92558 21.8247 10.8936 25.5269 13.1696 29.0734C19.2686 38.5707 27.02 46.6339 35.1923 54.3191C40.9056 59.6893 46.9111 64.7011 53.7934 68.5475C57.297 70.5078 60.9447 72.09 65.0367 72.3083V72.3044Z" fill="white"/>
<path d="M19.7312 28.7427C19.6922 29.9664 18.6205 30.9952 17.389 30.9835C16.0913 30.9757 15.0429 29.8494 15.117 28.5478C15.1871 27.3202 16.2939 26.3108 17.5059 26.3654C18.7062 26.4239 19.7624 27.554 19.7273 28.7388L19.7312 28.7427Z" fill="white"/>
<path d="M19.7347 17.4256C19.7035 18.6025 18.5772 19.6937 17.3925 19.6898C16.1103 19.6898 15.0464 18.548 15.1166 17.2463C15.1828 16.0187 16.2584 15.0483 17.4977 15.0912C18.7292 15.1341 19.7659 16.2136 19.7308 17.4256H19.7347Z" fill="white"/>
<path d="M31.0169 28.649C31.0403 29.8883 30.0387 30.9405 28.7994 30.9834C27.5095 31.0262 26.3676 29.9194 26.391 28.649C26.4144 27.4837 27.5523 26.3691 28.7215 26.3652C29.9413 26.3652 30.9935 27.4097 31.0169 28.6451V28.649Z" fill="white"/>
<path d="M28.6743 19.7156C27.5013 19.7039 26.375 18.5737 26.3711 17.4045C26.3711 16.1263 27.5013 15.0507 28.8029 15.1013C30.0344 15.1481 31.036 16.2198 31.0009 17.4513C30.9658 18.6633 29.8707 19.7272 28.6743 19.7117V19.7156Z" fill="white"/>
<path d="M53.6757 51.3621C53.6445 52.5391 52.5182 53.6342 51.3413 53.6381C50.0708 53.6381 48.9874 52.4767 49.0537 51.1907C49.1199 49.9631 50.1994 48.9888 51.4387 49.0316C52.678 49.0745 53.703 50.1462 53.6718 51.366L53.6757 51.3621Z" fill="white"/>
<path d="M62.6876 49.0363C63.9308 49.0519 64.948 50.0846 64.9441 51.3317C64.9441 52.6334 63.8178 53.7168 62.5356 53.6505C61.347 53.5882 60.2753 52.4307 60.3259 51.2616C60.3805 50.0418 61.4639 49.0207 62.6876 49.0363Z" fill="white"/>
<path d="M51.2665 60.3284C52.4512 60.2855 53.5853 61.3378 53.6515 62.5381C53.7178 63.754 52.7201 64.8491 51.4769 64.9232C50.1519 65.0011 49.0529 63.9878 49.0373 62.6745C49.0217 61.4391 50.035 60.3752 51.2665 60.3323V60.3284Z" fill="white"/>
<path d="M64.9503 62.6699C64.9269 63.917 63.902 64.9186 62.6549 64.9147C61.4078 64.9108 60.3595 63.8858 60.34 62.6582C60.3244 61.4189 61.513 60.2576 62.7484 60.3082C63.9838 60.3589 64.9698 61.4189 64.9464 62.6699H64.9503Z" fill="white"/>
<path d="M53.6501 39.9772C53.6735 41.1814 52.6329 42.257 51.4092 42.296C50.1543 42.335 49.0982 41.3724 49.0398 40.1331C48.9774 38.8314 50.0218 37.7441 51.3352 37.7363C52.5706 37.7363 53.6306 38.7574 53.654 39.9733L53.6501 39.9772Z" fill="white"/>
<path d="M42.28 28.9173C42.1709 30.1722 41.1031 31.0802 39.8404 30.9906C38.5349 30.897 37.6113 29.7474 37.7672 28.4145C37.9036 27.261 38.9831 26.3335 40.121 26.388C41.4149 26.4504 42.397 27.6 42.2839 28.9173H42.28Z" fill="white"/>
<path d="M40.0263 49.0352C41.2694 49.0313 42.2788 50.0328 42.2983 51.2916C42.3178 52.527 41.3201 53.5948 40.0964 53.6494C38.8454 53.7039 37.7153 52.5738 37.7386 51.2955C37.762 50.0484 38.7753 49.043 40.0224 49.0391L40.0263 49.0352Z" fill="white"/>
<path d="M28.7178 42.2986C27.4941 42.3064 26.4146 41.2776 26.3834 40.0733C26.3523 38.8107 27.4746 37.7156 28.7724 37.7467C30.0351 37.7779 31.0249 38.7912 31.0094 40.0422C30.9938 41.2776 29.9649 42.2908 28.7217 42.2986H28.7178Z" fill="white"/>
<path d="M40.0778 37.721C41.3444 37.7405 42.3187 38.7303 42.3187 39.9969C42.3187 41.322 41.2587 42.3274 39.922 42.2651C38.6515 42.2105 37.7318 41.205 37.7707 39.919C37.8058 38.6563 38.8113 37.6976 40.0817 37.7171L40.0778 37.721Z" fill="white"/>
</svg>
