<svg width="153" height="58" viewBox="0 0 153 58" fill="none" xmlns="http://www.w3.org/2000/svg">
<path d="M151.677 28.7282C151.629 28.7282 151.576 28.7133 151.532 28.6871C146.986 25.9386 141.115 24.6035 133.586 24.6035C130.968 24.6035 128.059 24.7639 124.691 25.0883C123.002 25.2524 121.305 25.4389 119.608 25.6291C114.879 26.1512 109.994 26.6919 105.269 26.6919C102.017 26.6919 99.1415 26.4383 96.4676 25.92C94.0547 25.4501 91.6642 24.734 89.3557 24.0366C85.466 22.8656 81.442 21.6573 77.2949 21.6573C76.4297 21.6573 75.572 21.7095 74.7403 21.8139C72.0701 22.1496 69.3999 23.0558 66.8192 23.9359C64.9582 24.5699 63.0339 25.2263 61.1058 25.6701C59.0658 26.14 56.9886 26.3787 54.9263 26.3787C51.8794 26.3787 48.9593 25.8715 46.248 24.8683C44.2715 24.1373 42.4105 23.1416 40.6092 22.1831C39.7403 21.7207 38.8714 21.2545 37.9912 20.8182C31.8937 17.8049 25.7067 16.4287 19.695 16.7569C12.8031 17.1336 6.16114 19.897 1.47334 24.3313C1.37637 24.4208 1.22347 24.4319 1.11532 24.3536C1.00717 24.2753 0.969872 24.1299 1.02581 24.0068C6.44457 12.4682 20.2544 6.92633 30.7898 6.66527C42.2912 6.37811 52.5991 10.5811 63.0376 15.2801L63.2278 15.3659C66.6178 16.8912 70.1197 18.4687 73.9385 18.9572C74.8336 19.0729 75.7659 19.1288 76.7094 19.1288C82.4527 19.1288 88.3973 16.9993 94.1479 14.9407C97.0904 13.8853 100.134 12.7963 103.132 11.9945C107.231 10.8981 111.46 10.3462 115.707 10.3462C130.532 10.3462 144.405 17.2231 151.912 28.2956C151.987 28.4037 151.975 28.5529 151.882 28.6461C151.826 28.7021 151.752 28.7356 151.677 28.7356V28.7282ZM133.586 24.0404C140.631 24.0404 146.255 25.2002 150.726 27.5833C143.178 17.2641 129.886 10.9018 115.707 10.9018C111.508 10.9018 107.327 11.45 103.277 12.5353C100.301 13.3296 97.2694 14.4149 94.3381 15.4666C88.5464 17.5438 82.5533 19.6882 76.7094 19.6882C75.7398 19.6882 74.7851 19.6285 73.8677 19.5129C69.9668 19.0169 66.4201 17.4207 62.9966 15.8768L62.8064 15.791C52.4313 11.1219 42.2017 6.94871 30.8048 7.22841C20.8474 7.47827 7.92886 12.498 2.20802 22.9253C6.89583 18.9871 13.1723 16.5518 19.6614 16.1975C25.7664 15.8656 32.0504 17.2567 38.2374 20.3185C39.125 20.7585 39.9976 21.2247 40.874 21.6909C42.6567 22.6419 44.499 23.6264 46.442 24.3462C49.0898 25.3233 51.9428 25.823 54.9263 25.823C56.9476 25.823 58.9838 25.588 60.979 25.1293C62.881 24.693 64.7904 24.0404 66.6364 23.4101C69.2433 22.5225 71.9396 21.6014 74.6658 21.262C75.5198 21.1538 76.4036 21.1016 77.2875 21.1016C81.5166 21.1016 85.5779 22.3249 89.5086 23.5071C91.8059 24.2007 94.1852 24.913 96.5683 25.3755C99.2049 25.8864 102.047 26.1363 105.261 26.1363C109.953 26.1363 114.827 25.5955 119.541 25.0771C121.242 24.8869 122.942 24.7005 124.632 24.5364C128.018 24.2082 130.942 24.0478 133.578 24.0478L133.586 24.0404Z" fill="white" stroke="white"/>
<path d="M28.6129 44.0552C23.1755 44.0552 17.4696 42.5411 12.1105 39.6732C11.9874 39.6061 11.9315 39.4644 11.9762 39.3301C12.021 39.1996 12.1478 39.1138 12.2932 39.1474C13.4493 39.3637 14.6614 39.4755 15.8883 39.4755C21.4936 39.4755 27.4046 37.1633 31.7046 33.2885C33.1105 32.0206 34.3897 30.5736 35.6278 29.1713C36.9667 27.6535 38.354 26.0834 39.9166 24.7222C45.0482 20.2619 51.28 18.6806 55.606 18.1362C57.3215 17.9199 59.0743 17.8154 60.9577 17.8154C64.8959 17.8154 68.7446 18.2891 71.9854 18.7515C78.4745 19.6764 83.2965 20.7131 87.6226 22.1154C91.9114 23.5027 96.0435 25.386 100.041 27.2022C105.546 29.7084 111.237 32.2965 117.361 33.6018C120.385 34.247 123.555 34.5714 126.785 34.5714C135.276 34.5714 143.839 32.3674 151.548 28.198C151.667 28.1346 151.812 28.1644 151.898 28.2688C151.984 28.3732 151.984 28.5224 151.898 28.6268C145.357 36.5182 135.109 41.9257 124.48 43.093C122.947 43.2608 121.384 43.3466 119.837 43.3466C111.565 43.3466 103.364 40.9822 96.1218 36.5033C94.19 35.3099 92.329 33.9673 90.524 32.6695C88.4356 31.1665 86.2763 29.6114 84.0088 28.2875C79.0339 25.3823 74.2416 24.1628 69.7851 24.6551C63.1617 25.3898 57.6385 29.5443 51.7946 33.9449C47.4723 37.1969 43.0045 40.5608 38.0482 42.3994C35.0796 43.5033 31.9022 44.0627 28.6055 44.0627L28.6129 44.0552ZM13.8782 39.9417C21.9336 43.824 30.5969 44.5624 37.8617 41.8661C42.7397 40.0536 47.1739 36.7158 51.4627 33.4899C57.1127 29.2385 62.9529 24.8453 69.7291 24.0919C74.3125 23.5773 79.2166 24.8304 84.2997 27.7989C86.5896 29.1378 88.76 30.7004 90.8559 32.2108C92.6498 33.5048 94.507 34.84 96.4202 36.0222C103.573 40.4452 111.67 42.7798 119.837 42.7798C121.366 42.7798 122.906 42.694 124.416 42.5299C134.393 41.4335 144.029 36.5555 150.496 29.3802C143.052 33.1468 134.885 35.1346 126.781 35.1346C123.514 35.1346 120.307 34.8027 117.241 34.15C111.058 32.8336 105.337 30.2305 99.8064 27.7132C95.8234 25.9007 91.7062 24.0285 87.4473 22.6487C83.1511 21.2576 78.3589 20.2283 71.9033 19.3072C68.6812 18.8447 64.8586 18.3786 60.9539 18.3786C59.093 18.3786 57.3626 18.483 55.6732 18.6956C51.4254 19.2289 45.3055 20.7803 40.2821 25.1473C38.7456 26.4825 37.3732 28.0376 36.0455 29.5405C34.7999 30.954 33.5096 32.4121 32.0812 33.7025C27.1622 38.1367 20.1398 40.5496 13.8745 39.938L13.8782 39.9417Z" fill="white" stroke="white"/>
<path d="M86.2826 50.8392C85.354 50.8392 84.4216 50.7982 83.5042 50.7161C77.5484 50.1791 71.477 48.0049 64.9395 44.0778C64.8127 44.0033 64.7679 43.8429 64.8313 43.7124C64.8947 43.5818 65.0476 43.5222 65.1856 43.5744C67.7253 44.5627 70.4925 45.0624 73.4088 45.0624C77.0748 45.0624 80.8079 44.2494 84.2091 42.7092C88.2144 40.8967 91.8281 38.1071 95.3188 35.4071L96.2325 34.7022C102.479 29.8914 109.841 24.5621 118.184 22.1865C121.402 21.2691 124.766 20.8066 128.186 20.8066C136.073 20.8066 144.144 23.2195 151.52 27.788C151.643 27.8626 151.688 28.0192 151.625 28.1498C151.561 28.2803 151.416 28.3399 151.274 28.2915C146.937 26.7251 142.271 25.9308 137.412 25.9308C134.361 25.9308 131.285 26.2515 128.26 26.8818C124.505 27.6649 121.462 28.8173 118.959 30.406C115.7 32.4721 113.078 35.4481 110.546 38.3272C108.409 40.755 106.201 43.2611 103.598 45.2563C98.8915 48.8589 92.7418 50.8429 86.2789 50.8429L86.2826 50.8392ZM67.5202 44.9095C73.1179 47.9676 78.3875 49.6905 83.5564 50.1567C84.4552 50.2387 85.3726 50.2798 86.2826 50.2798C92.6225 50.2798 98.6491 48.3368 103.259 44.8088C105.821 42.8472 108.01 40.3597 110.128 37.9542C112.686 35.0453 115.334 32.0395 118.665 29.9324C121.227 28.3101 124.333 27.1316 128.156 26.3336C131.218 25.6958 134.335 25.3714 137.423 25.3714C141.436 25.3714 145.315 25.9047 148.995 26.9638C142.331 23.3016 135.189 21.3735 128.197 21.3735C124.829 21.3735 121.514 21.8322 118.348 22.7347C110.102 25.0842 102.789 30.3799 96.5868 35.1572L95.6768 35.8621C92.16 38.5808 88.5239 41.389 84.4552 43.2313C80.9832 44.8013 77.168 45.633 73.4237 45.633C71.3801 45.633 69.4072 45.3943 67.5314 44.917L67.5202 44.9095Z" fill="white" stroke="white"/>
<path d="M101.05 56.9929C90.4065 56.9929 80.3335 51.2161 77.1002 43.2614C77.0479 43.1309 77.1001 42.978 77.2269 42.9108C77.35 42.8437 77.5066 42.8773 77.5924 42.9929C81.6276 48.6466 88.6015 49.8325 93.7406 49.8325C95.8887 49.8325 98.1263 49.6274 100.397 49.2209C106.115 48.1953 110.004 44.3989 114.125 40.3786C116.84 37.7308 119.648 34.9897 123.042 33.084C130.337 28.9891 137.956 26.6396 143.938 26.6396C146.619 26.6396 149.036 27.0909 151.132 27.9822C151.255 28.0344 151.326 28.1687 151.296 28.2992C151.27 28.4297 151.154 28.523 151.02 28.523H150.606C143.651 28.523 136.431 31.3349 130.803 36.239C128.26 38.4543 126.096 41.1133 124.004 43.6903C121.453 46.8267 118.821 50.0638 115.472 52.5475C111.545 55.4601 106.558 57.0004 101.058 57.0004L101.05 56.9929ZM78.6516 45.1261C82.586 51.7867 91.5813 56.4298 101.05 56.4298C106.432 56.4298 111.302 54.9268 115.128 52.0888C118.421 49.6461 121.036 46.4351 123.561 43.3248C125.668 40.7329 127.849 38.0515 130.426 35.8064C135.856 31.0776 142.741 28.2582 149.48 27.9748C147.805 27.4564 145.944 27.1953 143.93 27.1953C138.042 27.1953 130.523 29.5187 123.311 33.5688C119.98 35.4372 117.198 38.1522 114.509 40.7739C110.511 44.6786 106.376 48.7137 100.491 49.7691C98.1897 50.1831 95.9148 50.3919 93.7368 50.3919C89.0602 50.3919 82.8993 49.426 78.6516 45.1261Z" fill="white" stroke="white"/>
<path d="M127.468 38.8232C122.266 38.8232 116.944 37.5291 112.077 35.0864C107.967 33.0203 104.753 30.4843 102.522 27.5493C101.195 25.804 100.151 23.8349 99.1399 21.9292C98.3642 20.471 97.5661 18.9606 96.6449 17.5733C94.1985 13.87 90.8197 10.9052 88.1532 8.73096C85.0429 6.19873 80.866 3.28983 76.1297 3.28983C75.6076 3.28983 75.0781 3.32339 74.5597 3.39425C74.4068 3.41663 74.2874 3.32339 74.2501 3.18913C74.2128 3.05115 74.2837 2.90943 74.4142 2.85722C77.4649 1.62653 80.7355 1 84.1367 1C87.5379 1 91.1404 1.67128 94.3738 2.943C99.8261 5.08365 104.902 8.96964 109.455 14.4891C110.138 15.3207 110.802 16.1673 111.462 17.0176C112.722 18.6399 114.028 20.3181 115.474 21.8098C121.02 27.5269 129.295 30.805 138.186 30.805C142.274 30.805 146.305 30.1188 150.161 28.7688C150.296 28.7203 150.441 28.78 150.504 28.9068C150.568 29.0336 150.53 29.1865 150.411 29.2648C149.565 29.8391 148.729 30.4284 147.89 31.0213C145.239 32.8898 142.501 34.8216 139.533 36.2089C135.822 37.9393 131.764 38.8194 127.464 38.8194L127.468 38.8232ZM76.4244 2.73415C81.2129 2.84976 85.3897 5.75866 88.5075 8.29836C91.2075 10.495 94.6236 13.4971 97.1148 17.2637C98.0472 18.6734 98.8565 20.195 99.6359 21.6644C100.635 23.5477 101.672 25.4982 102.97 27.2062C105.148 30.0704 108.299 32.5541 112.331 34.5792C117.119 36.9846 122.351 38.2563 127.468 38.2563C131.682 38.2563 135.665 37.3948 139.298 35.7017C142.218 34.3368 144.94 32.4199 147.569 30.5664C147.89 30.3389 148.215 30.1114 148.535 29.8839C145.175 30.8684 141.703 31.3682 138.19 31.3682C129.15 31.3682 120.725 28.0267 115.075 22.2014C113.606 20.6836 112.293 18.9942 111.022 17.3607C110.365 16.5141 109.709 15.6676 109.026 14.8434C104.533 9.39852 99.5352 5.56847 94.1724 3.46511C91.0024 2.2195 87.5304 1.56313 84.1367 1.56313C81.4665 1.56313 78.8783 1.95472 76.4206 2.73415H76.4244Z" fill="white" stroke="white"/>
<path d="M151.2 28.2395C151.043 28.109 135.096 15.3024 111.665 17.9689C107.588 18.4313 103.863 18.9236 100.26 19.4009C82.9299 21.6908 70.4105 23.3466 49.541 17.5885C24.6997 10.7376 14.8169 9.64866 1.49191 24.3162L1.07422 23.9396C14.5521 9.10417 25.1137 10.2715 49.6902 17.0514C70.4552 22.7797 82.9262 21.1314 100.186 18.849C103.788 18.3716 107.518 17.8794 111.601 17.4169C135.268 14.7243 151.397 27.6801 151.558 27.8106L151.2 28.247V28.2395Z" fill="white" stroke="white"/>
<path d="M21.0646 41.1134C15.754 41.1134 12.2149 39.7149 12.1328 39.6851L12.3454 39.163C12.5169 39.2338 29.7093 45.9914 45.3353 29.034C62.9603 9.90989 91.997 27.74 95.2491 29.8359C95.5698 30.041 95.9129 30.2685 96.2784 30.5071C104.651 35.9856 124.252 48.8183 151.51 28.221L151.85 28.6686C124.278 49.5045 104.442 36.5189 95.9725 30.977C95.6071 30.7384 95.2677 30.5146 94.947 30.3095C91.736 28.2397 63.0647 10.6259 45.7493 29.4144C36.948 38.9653 27.6432 41.1097 21.0609 41.1097L21.0646 41.1134Z" fill="white" stroke="white"/>
</svg>
