<svg width="605" height="281" viewBox="0 0 605 281" fill="none" xmlns="http://www.w3.org/2000/svg">
<path d="M85.3887 167L70.2305 127.619H23.4609L7.99805 167H0L43.7988 55.2559H50.959L93.6152 167H85.3887ZM67.7168 120.535L52.3301 78.793C51.9238 77.7266 51.416 76.3555 50.8066 74.6797C50.248 73.0039 49.6387 71.2266 48.9785 69.3477C48.3691 67.4688 47.7598 65.6914 47.1504 64.0156C46.6426 65.793 46.084 67.5703 45.4746 69.3477C44.8652 71.125 44.2812 72.8516 43.7227 74.5273C43.1641 76.1523 42.6309 77.625 42.123 78.9453L26.127 120.535H67.7168ZM191.42 55.6367V127.695C191.42 136.379 189.744 143.768 186.393 149.861C183.041 155.904 178.217 160.525 171.92 163.725C165.674 166.924 158.184 168.523 149.449 168.523C136.195 168.523 126.014 164.943 118.904 157.783C111.795 150.572 108.24 140.441 108.24 127.391V55.6367H116.01V127.391C116.01 138.562 118.904 147.068 124.693 152.908C130.533 158.697 138.912 161.592 149.83 161.592C156.99 161.592 163.084 160.322 168.111 157.783C173.139 155.193 176.973 151.436 179.613 146.51C182.254 141.533 183.574 135.516 183.574 128.457V55.6367H191.42ZM248.701 55.6367C257.537 55.6367 264.9 56.6016 270.791 58.5312C276.732 60.4609 281.201 63.6348 284.197 68.0527C287.193 72.4707 288.691 78.4375 288.691 85.9531C288.691 91.5898 287.65 96.4395 285.568 100.502C283.537 104.514 280.719 107.814 277.113 110.404C273.508 112.994 269.344 114.975 264.621 116.346L295.166 167H285.873L257.156 118.555H229.506V167H221.66V55.6367H248.701ZM247.939 62.5684H229.506V111.623H251.672C260.762 111.623 267.846 109.439 272.924 105.072C278.053 100.705 280.617 94.4336 280.617 86.2578C280.617 77.2695 277.926 71.0742 272.543 67.6719C267.16 64.2695 258.959 62.5684 247.939 62.5684ZM408.129 111.166C408.129 119.646 407.088 127.391 405.006 134.398C402.924 141.406 399.801 147.449 395.637 152.527C391.473 157.605 386.268 161.541 380.021 164.334C373.826 167.127 366.59 168.523 358.312 168.523C349.984 168.523 342.697 167.127 336.451 164.334C330.205 161.541 325 157.605 320.836 152.527C316.723 147.398 313.625 141.33 311.543 134.322C309.461 127.264 308.42 119.494 308.42 111.014C308.42 99.7402 310.324 89.8125 314.133 81.2305C317.992 72.6484 323.654 65.9453 331.119 61.1211C338.635 56.2969 347.902 53.8848 358.922 53.8848C369.484 53.8848 378.422 56.1953 385.734 60.8164C393.098 65.3867 398.658 71.9629 402.416 80.5449C406.225 89.0762 408.129 99.2832 408.129 111.166ZM316.646 111.09C316.646 121.043 318.145 129.828 321.141 137.445C324.137 145.012 328.732 150.928 334.928 155.193C341.123 159.459 348.943 161.592 358.389 161.592C367.936 161.592 375.781 159.484 381.926 155.27C388.07 151.055 392.615 145.164 395.561 137.598C398.506 130.031 399.979 121.221 399.979 111.166C399.979 95.2715 396.5 82.9316 389.543 74.1465C382.637 65.3613 372.43 60.9688 358.922 60.9688C349.426 60.9688 341.529 63.0762 335.232 67.291C328.986 71.5059 324.314 77.3711 321.217 84.8867C318.17 92.4023 316.646 101.137 316.646 111.09ZM460.764 55.6367C469.6 55.6367 476.963 56.6016 482.854 58.5312C488.795 60.4609 493.264 63.6348 496.26 68.0527C499.256 72.4707 500.754 78.4375 500.754 85.9531C500.754 91.5898 499.713 96.4395 497.631 100.502C495.6 104.514 492.781 107.814 489.176 110.404C485.57 112.994 481.406 114.975 476.684 116.346L507.229 167H497.936L469.219 118.555H441.568V167H433.723V55.6367H460.764ZM460.002 62.5684H441.568V111.623H463.734C472.824 111.623 479.908 109.439 484.986 105.072C490.115 100.705 492.68 94.4336 492.68 86.2578C492.68 77.2695 489.988 71.0742 484.605 67.6719C479.223 64.2695 471.021 62.5684 460.002 62.5684ZM596.197 167L581.039 127.619H534.27L518.807 167H510.809L554.607 55.2559H561.768L604.424 167H596.197ZM578.525 120.535L563.139 78.793C562.732 77.7266 562.225 76.3555 561.615 74.6797C561.057 73.0039 560.447 71.2266 559.787 69.3477C559.178 67.4688 558.568 65.6914 557.959 64.0156C557.451 65.793 556.893 67.5703 556.283 69.3477C555.674 71.125 555.09 72.8516 554.531 74.5273C553.973 76.1523 553.439 77.625 552.932 78.9453L536.936 120.535H578.525Z" fill="white"/>
<path d="M157.467 241.537C157.467 245.119 156.564 248.127 154.76 250.561C152.955 252.967 150.508 254.785 147.418 256.016C144.328 257.219 140.828 257.82 136.918 257.82C134.484 257.82 132.27 257.697 130.273 257.451C128.305 257.232 126.514 256.932 124.9 256.549C123.314 256.166 121.865 255.729 120.553 255.236V251.012C122.686 251.832 125.146 252.557 127.936 253.186C130.752 253.787 133.814 254.088 137.123 254.088C140.24 254.088 143.002 253.637 145.408 252.734C147.842 251.832 149.756 250.465 151.15 248.633C152.545 246.801 153.242 244.49 153.242 241.701C153.242 239.24 152.654 237.23 151.479 235.672C150.33 234.086 148.594 232.732 146.27 231.611C143.945 230.463 141.02 229.301 137.492 228.125C135.031 227.277 132.789 226.389 130.766 225.459C128.77 224.502 127.061 223.408 125.639 222.178C124.217 220.92 123.123 219.416 122.357 217.666C121.619 215.889 121.25 213.797 121.25 211.391C121.25 208.082 122.084 205.307 123.752 203.064C125.447 200.795 127.73 199.086 130.602 197.938C133.5 196.762 136.754 196.174 140.363 196.174C143.234 196.174 145.955 196.447 148.525 196.994C151.123 197.514 153.625 198.307 156.031 199.373L154.555 203.023C152.148 201.984 149.742 201.219 147.336 200.727C144.93 200.234 142.551 199.988 140.199 199.988C137.383 199.988 134.867 200.412 132.652 201.26C130.465 202.08 128.729 203.324 127.443 204.992C126.158 206.66 125.516 208.766 125.516 211.309C125.516 213.934 126.104 216.053 127.279 217.666C128.482 219.279 130.178 220.619 132.365 221.686C134.58 222.752 137.191 223.791 140.199 224.803C143.754 226.006 146.816 227.277 149.387 228.617C151.957 229.93 153.939 231.598 155.334 233.621C156.756 235.645 157.467 238.283 157.467 241.537ZM203.076 257H170.305V197.035H203.076V200.85H174.529V223.572H201.477V227.387H174.529V253.186H203.076V257ZM254.264 257L246.102 235.795H220.918L212.592 257H208.285L231.869 196.83H235.725L258.693 257H254.264ZM244.748 231.98L236.463 209.504C236.244 208.93 235.971 208.191 235.643 207.289C235.342 206.387 235.014 205.43 234.658 204.418C234.33 203.406 234.002 202.449 233.674 201.547C233.4 202.504 233.1 203.461 232.771 204.418C232.443 205.375 232.129 206.305 231.828 207.207C231.527 208.082 231.24 208.875 230.967 209.586L222.354 231.98H244.748ZM271.408 257H267.184V197.035H299.996V200.85H271.408V226.402H298.438V230.176H271.408V257ZM359.879 226.936C359.879 231.502 359.318 235.672 358.197 239.445C357.076 243.219 355.395 246.473 353.152 249.207C350.91 251.941 348.107 254.061 344.744 255.564C341.408 257.068 337.512 257.82 333.055 257.82C328.57 257.82 324.646 257.068 321.283 255.564C317.92 254.061 315.117 251.941 312.875 249.207C310.66 246.445 308.992 243.178 307.871 239.404C306.75 235.604 306.189 231.42 306.189 226.854C306.189 220.783 307.215 215.438 309.266 210.816C311.344 206.195 314.393 202.586 318.412 199.988C322.459 197.391 327.449 196.092 333.383 196.092C339.07 196.092 343.883 197.336 347.82 199.824C351.785 202.285 354.779 205.826 356.803 210.447C358.854 215.041 359.879 220.537 359.879 226.936ZM310.619 226.895C310.619 232.254 311.426 236.984 313.039 241.086C314.652 245.16 317.127 248.346 320.463 250.643C323.799 252.939 328.01 254.088 333.096 254.088C338.236 254.088 342.461 252.953 345.77 250.684C349.078 248.414 351.525 245.242 353.111 241.168C354.697 237.094 355.49 232.35 355.49 226.936C355.49 218.377 353.617 211.732 349.871 207.002C346.152 202.271 340.656 199.906 333.383 199.906C328.27 199.906 324.018 201.041 320.627 203.311C317.264 205.58 314.748 208.738 313.08 212.785C311.439 216.832 310.619 221.535 310.619 226.895ZM424.109 226.936C424.109 231.502 423.549 235.672 422.428 239.445C421.307 243.219 419.625 246.473 417.383 249.207C415.141 251.941 412.338 254.061 408.975 255.564C405.639 257.068 401.742 257.82 397.285 257.82C392.801 257.82 388.877 257.068 385.514 255.564C382.15 254.061 379.348 251.941 377.105 249.207C374.891 246.445 373.223 243.178 372.102 239.404C370.98 235.604 370.42 231.42 370.42 226.854C370.42 220.783 371.445 215.438 373.496 210.816C375.574 206.195 378.623 202.586 382.643 199.988C386.689 197.391 391.68 196.092 397.613 196.092C403.301 196.092 408.113 197.336 412.051 199.824C416.016 202.285 419.01 205.826 421.033 210.447C423.084 215.041 424.109 220.537 424.109 226.936ZM374.85 226.895C374.85 232.254 375.656 236.984 377.27 241.086C378.883 245.16 381.357 248.346 384.693 250.643C388.029 252.939 392.24 254.088 397.326 254.088C402.467 254.088 406.691 252.953 410 250.684C413.309 248.414 415.756 245.242 417.342 241.168C418.928 237.094 419.721 232.35 419.721 226.936C419.721 218.377 417.848 211.732 414.102 207.002C410.383 202.271 404.887 199.906 397.613 199.906C392.5 199.906 388.248 201.041 384.857 203.311C381.494 205.58 378.979 208.738 377.311 212.785C375.67 216.832 374.85 221.535 374.85 226.895ZM483.5 226.443C483.5 233.143 482.311 238.762 479.932 243.301C477.58 247.84 474.08 251.258 469.432 253.555C464.811 255.852 459.082 257 452.246 257H437.891V197.035H454.133C460.531 197.035 465.904 198.156 470.252 200.398C474.6 202.641 477.895 205.949 480.137 210.324C482.379 214.672 483.5 220.045 483.5 226.443ZM479.07 226.607C479.07 220.893 478.141 216.121 476.281 212.293C474.422 208.465 471.578 205.594 467.75 203.68C463.922 201.738 459.068 200.768 453.189 200.768H442.115V253.268H452.041C461.092 253.268 467.859 251.053 472.344 246.623C476.828 242.166 479.07 235.494 479.07 226.607Z" fill="white"/>
</svg>
