<svg width="98" height="98" viewBox="0 0 98 98" fill="none" xmlns="http://www.w3.org/2000/svg">
<path d="M40.5584 46.4258H16.8896V51.5691H40.5584V46.4258Z" stroke="white" stroke-width="2" stroke-linecap="round" stroke-linejoin="round"/>
<path d="M81.0799 46.4258H57.4111V51.5691H81.0799V46.4258Z" stroke="white" stroke-width="2" stroke-linecap="round" stroke-linejoin="round"/>
<path d="M48.9968 57.311C53.5886 57.311 57.311 53.5886 57.311 48.9968C57.311 44.405 53.5886 40.6826 48.9968 40.6826C44.405 40.6826 40.6826 44.405 40.6826 48.9968C40.6826 53.5886 44.405 57.311 48.9968 57.311Z" stroke="white" stroke-width="2" stroke-linecap="round" stroke-linejoin="round"/>
<path d="M96.994 52.472V45.522H86.9905C86.2738 37.5962 83.136 30.3691 78.3179 24.5875L85.3915 17.5139L80.477 12.5995L73.4035 19.673C67.6218 14.855 60.3977 11.7172 52.469 11.0005V1H45.5189V11.0035C37.5932 11.7202 30.3661 14.858 24.5844 19.676L17.5109 12.6025L12.5965 17.5169L19.67 24.5905C14.8519 30.3721 11.7142 37.5962 10.9975 45.525H1V52.475H11.0035C11.7202 60.4008 14.858 67.6279 19.676 73.4095L12.6025 80.4831L17.5169 85.3975L24.5905 78.324C30.3721 83.142 37.5962 86.2798 45.525 86.9965V97H52.475V86.9965C60.4008 86.2798 67.6279 83.142 73.4095 78.324L80.4831 85.3975L85.3975 80.4831L78.324 73.4095C83.142 67.6279 86.2798 60.4038 86.9965 52.475H97L96.994 52.472Z" stroke="white" stroke-width="2" stroke-linecap="round" stroke-linejoin="round"/>
<path d="M48.9961 81.1034C66.7279 81.1034 81.1025 66.7289 81.1025 48.997C81.1025 31.2652 66.7279 16.8906 48.9961 16.8906C31.2642 16.8906 16.8896 31.2652 16.8896 48.997C16.8896 66.7289 31.2642 81.1034 48.9961 81.1034Z" stroke="white" stroke-width="2" stroke-linecap="round" stroke-linejoin="round"/>
<path d="M51.5557 40.5682V16.8994H46.4124V40.5682H51.5557Z" stroke="white" stroke-width="2" stroke-linecap="round" stroke-linejoin="round"/>
<path d="M51.5557 81.0916V57.4229H46.4124V81.0916H51.5557Z" stroke="white" stroke-width="2" stroke-linecap="round" stroke-linejoin="round"/>
<path d="M44.8438 41.2178L28.1074 24.4814L24.4706 28.1183L41.2069 44.8546L44.8438 41.2178Z" stroke="white" stroke-width="2" stroke-linecap="round" stroke-linejoin="round"/>
<path d="M73.4971 69.875L56.7607 53.1387L53.1239 56.7755L69.8602 73.5119L73.4971 69.875Z" stroke="white" stroke-width="2" stroke-linecap="round" stroke-linejoin="round"/>
<path d="M56.7607 44.8584L73.4971 28.1221L69.8602 24.4852L53.1239 41.2216L56.7607 44.8584Z" stroke="white" stroke-width="2" stroke-linecap="round" stroke-linejoin="round"/>
<path d="M28.1084 73.5059L44.8447 56.7695L41.2079 53.1327L24.4715 69.869L28.1084 73.5059Z" stroke="white" stroke-width="2" stroke-linecap="round" stroke-linejoin="round"/>
</svg>
