<svg width="375" height="158" viewBox="0 0 375 158" fill="none" xmlns="http://www.w3.org/2000/svg">
<mask id="mask0_60_5" style="mask-type:luminance" maskUnits="userSpaceOnUse" x="0" y="0" width="375" height="158">
<path d="M374.39 157.06V0L-0.000366211 0V157.06L374.39 157.06Z" fill="white"/>
</mask>
<g mask="url(#mask0_60_5)">
<path d="M177.386 -192.19L-92.5449 77.7412L119.955 290.241L389.886 20.31L177.386 -192.19Z" fill="#0078AE"/>
<path d="M387.316 58.8795L377.119 48.6831L259.195 166.607L269.391 176.804L387.316 58.8795Z" fill="#E31937"/>
</g>
<path d="M369.82 119.75L355.81 105.74C355.22 105.15 354.43 104.82 353.6 104.82C352.77 104.82 351.98 105.15 351.39 105.74L339.64 117.49L320.08 137.05C318.86 138.27 318.86 140.26 320.08 141.48L334.09 155.49C334.68 156.08 335.47 156.41 336.3 156.41C337.13 156.41 337.92 156.08 338.51 155.49L356.04 137.96L369.82 124.18C371.04 122.96 371.04 120.97 369.82 119.75Z" fill="white"/>
<path d="M368.83 120.74L354.82 106.73C354.14 106.05 353.05 106.05 352.37 106.73L337.22 121.88L353.68 138.34L368.83 123.19C369.51 122.51 369.51 121.42 368.83 120.74ZM356.51 124.79C355.72 125.58 354.68 125.98 353.64 125.98C352.6 125.98 351.56 125.58 350.77 124.79C349.98 124 349.58 122.96 349.58 121.92C349.58 120.88 349.98 119.84 350.77 119.05C351.56 118.26 352.6 117.86 353.64 117.86C354.68 117.86 355.72 118.25 356.51 119.05C357.3 119.84 357.7 120.88 357.7 121.92C357.7 122.96 357.3 124 356.51 124.79Z" fill="#E31937"/>
<path d="M321.06 138.04C320.38 138.72 320.38 139.81 321.06 140.49L335.07 154.5C335.41 154.84 335.85 155.01 336.29 155.01C336.73 155.01 337.18 154.84 337.51 154.5L352.65 139.36L336.19 122.9L321.05 138.04H321.06ZM333.19 142.08C332.4 142.87 331.36 143.26 330.32 143.26C329.28 143.26 328.24 142.86 327.45 142.08C326.66 141.29 326.26 140.25 326.26 139.21C326.26 138.17 326.66 137.13 327.45 136.34C328.24 135.55 329.28 135.15 330.32 135.15C331.36 135.15 332.4 135.55 333.19 136.34C333.98 137.13 334.38 138.17 334.38 139.21C334.38 140.25 333.99 141.29 333.19 142.08ZM339.36 136.5C340.15 135.71 341.19 135.31 342.23 135.31C343.27 135.31 344.31 135.71 345.1 136.5C345.9 137.29 346.29 138.33 346.29 139.37C346.29 140.41 345.89 141.45 345.1 142.24C344.31 143.03 343.27 143.43 342.23 143.43C341.19 143.43 340.15 143.03 339.36 142.24C338.57 141.45 338.17 140.41 338.17 139.37C338.17 138.33 338.57 137.29 339.36 136.5Z" fill="#0078AE"/>
<path d="M342.38 152.89C342.94 152.89 343.43 153.33 343.43 153.93C343.43 154.53 342.95 154.97 342.38 154.97C341.81 154.97 341.33 154.53 341.33 153.93C341.33 153.33 341.81 152.89 342.38 152.89ZM342.38 153.06C341.9 153.06 341.53 153.43 341.53 153.93C341.53 154.43 341.9 154.8 342.38 154.8C342.86 154.8 343.23 154.43 343.23 153.93C343.23 153.43 342.86 153.06 342.38 153.06ZM342.16 154.53H341.98V153.33H342.44C342.72 153.33 342.87 153.44 342.87 153.67C342.87 153.89 342.74 153.98 342.56 154L342.9 154.53H342.7L342.38 154.01H342.17V154.53H342.16ZM342.16 153.86H342.38C342.6 153.86 342.68 153.8 342.68 153.66C342.68 153.55 342.62 153.48 342.41 153.48H342.16V153.86Z" fill="#38648E"/>
</svg>
