<svg width="432" height="361" viewBox="0 0 432 361" fill="none" xmlns="http://www.w3.org/2000/svg">
<mask id="mask0_68_2" style="mask-type:luminance" maskUnits="userSpaceOnUse" x="0" y="0" width="432" height="361">
<path d="M431.15 360.36V0.23999L0.120361 0.23999V360.36H431.15Z" fill="white"/>
</mask>
<g mask="url(#mask0_68_2)">
<path d="M548.676 74.4748L230.209 -243.992L-187.67 173.887L130.797 492.354L548.676 74.4748Z" fill="#0078AE"/>
<path d="M461.503 201.628L450.932 191.057L235.618 406.371L246.189 416.942L461.503 201.628Z" fill="#E31937"/>
</g>
<path d="M421.06 301.45L402.83 283.22C402.06 282.45 401.04 282.03 399.95 282.03C398.86 282.03 397.84 282.45 397.07 283.22L381.78 298.51L356.33 323.96C354.74 325.55 354.74 328.13 356.33 329.72L374.56 347.95C375.33 348.72 376.35 349.14 377.44 349.14C378.53 349.14 379.55 348.72 380.32 347.95L403.13 325.14L421.06 307.21C422.65 305.62 422.65 303.04 421.06 301.45Z" fill="white"/>
<path d="M419.77 302.74L401.54 284.51C400.66 283.63 399.23 283.63 398.36 284.51L378.65 304.22L400.07 325.64L419.78 305.93C420.66 305.05 420.66 303.63 419.78 302.75L419.77 302.74ZM403.73 308.01C402.7 309.04 401.34 309.55 400 309.55C398.66 309.55 397.3 309.04 396.27 308.01C395.24 306.98 394.72 305.62 394.72 304.28C394.72 302.94 395.24 301.57 396.27 300.55C397.3 299.52 398.65 299 400.01 299C401.37 299 402.71 299.51 403.74 300.55C404.77 301.58 405.29 302.93 405.29 304.28C405.29 305.63 404.77 306.98 403.74 308.01H403.73Z" fill="#E31937"/>
<path d="M357.62 325.24C356.74 326.12 356.74 327.54 357.62 328.42L375.85 346.65C376.29 347.09 376.87 347.31 377.44 347.31C378.01 347.31 378.59 347.09 379.03 346.65L398.74 326.95L377.32 305.53L357.62 325.23V325.24ZM373.41 330.49C372.38 331.51 371.02 332.03 369.67 332.03C368.32 332.03 366.97 331.52 365.93 330.49C364.9 329.46 364.39 328.11 364.39 326.76C364.39 325.41 364.9 324.06 365.93 323.02C366.96 321.99 368.31 321.48 369.67 321.47C371.02 321.47 372.37 321.99 373.41 323.02C374.44 324.05 374.95 325.41 374.95 326.76C374.95 328.11 374.44 329.47 373.41 330.49ZM381.44 323.23C382.47 322.2 383.82 321.68 385.17 321.68C386.52 321.68 387.87 322.2 388.9 323.23C389.93 324.26 390.45 325.61 390.45 326.96C390.45 328.31 389.93 329.66 388.9 330.69C387.87 331.72 386.52 332.24 385.17 332.24C383.82 332.24 382.47 331.72 381.44 330.69C380.41 329.66 379.89 328.31 379.89 326.96C379.89 325.61 380.41 324.26 381.44 323.23Z" fill="#0078AE"/>
<path d="M385.37 344.57C386.11 344.57 386.73 345.14 386.73 345.92C386.73 346.7 386.1 347.27 385.37 347.27C384.64 347.27 384 346.7 384 345.92C384 345.14 384.63 344.57 385.37 344.57ZM385.37 344.79C384.74 344.79 384.26 345.27 384.26 345.92C384.26 346.57 384.74 347.06 385.37 347.06C386 347.06 386.47 346.58 386.47 345.92C386.47 345.26 385.99 344.79 385.37 344.79ZM385.08 346.7H384.84V345.14H385.43C385.8 345.14 385.98 345.28 385.98 345.58C385.98 345.86 385.81 345.98 385.57 346.01L386.02 346.69H385.76L385.35 346.01H385.08V346.69V346.7ZM385.08 345.83H385.36C385.65 345.83 385.75 345.75 385.75 345.57C385.75 345.42 385.68 345.34 385.4 345.34H385.08V345.83Z" fill="#38648E"/>
</svg>
