<svg width="50" height="300" viewBox="0 0 50 300" fill="none" xmlns="http://www.w3.org/2000/svg">
<path fill-rule="evenodd" clip-rule="evenodd" d="M16.091 5.92006C13.9304 3.74564 10.9576 2.95424 8.3896 3.61072C7.49234 3.83906 6.84002 4.49553 6.61313 5.39851C5.96339 7.9829 6.7472 10.9747 8.90784 13.1491C11.4475 15.7049 15.1061 16.3484 17.9139 14.9836C19.2701 12.1579 18.6307 8.4759 16.091 5.92265V5.92006Z" fill="#B6EF18"/>
<path d="M8.63208 13.4241C6.44566 11.2237 5.52778 8.11002 6.23424 5.29989C6.49465 4.26458 7.26299 3.48874 8.29432 3.22667C11.0351 2.52868 14.2141 3.47317 16.367 5.6398C18.9737 8.26311 19.7369 12.0852 18.2647 15.1496L18.2054 15.2742L18.0842 15.3339C17.0761 15.8243 15.9751 16.0734 14.8097 16.0734C12.5589 16.0734 10.3054 15.1081 8.63466 13.4241H8.63208ZM15.8153 6.19768C13.8532 4.22306 10.968 3.35901 8.48511 3.98953C7.72709 4.18155 7.18306 4.73163 6.98969 5.4945C6.35026 8.03737 7.19079 10.8631 9.18384 12.8688C10.7102 14.4075 12.76 15.2872 14.8072 15.2872C15.805 15.2872 16.7512 15.0848 17.6201 14.6852C18.868 11.9399 18.1512 8.54594 15.8153 6.19509V6.19768Z" fill="#231F20"/>
<path fill-rule="evenodd" clip-rule="evenodd" d="M19.6366 16.0423C16.4472 12.3525 11.7778 9.8304 9.2124 5.78516C10.5402 10.2404 16.0089 13.1387 18.7032 16.8337L19.6366 16.0423Z" fill="#231F20"/>
<path fill-rule="evenodd" clip-rule="evenodd" d="M14.2271 11.6232C11.2801 12.0877 10.2616 11.8905 9.15039 11.2314C10.9655 13.04 14.3483 12.3991 14.3586 12.3965L14.2271 11.6232Z" fill="#231F20"/>
<path fill-rule="evenodd" clip-rule="evenodd" d="M15.1992 12.8582C16.4059 10.113 16.4806 9.07246 16.1377 7.82178C17.4037 10.0559 15.9108 13.1774 15.9083 13.1852L15.1992 12.8582Z" fill="#231F20"/>
<path fill-rule="evenodd" clip-rule="evenodd" d="M12.5278 10.1026C13.2369 8.49121 13.2807 7.88145 13.0796 7.14453C13.8222 8.45489 12.9481 10.2894 12.9455 10.2946L12.5304 10.1026H12.5278Z" fill="#231F20"/>
<path d="M18.9124 29.466L17.6614 36H16.2754L15.0244 29.466H16.2124L16.9954 34.2L17.7784 29.466H18.9124ZM22.7481 29.466V30.483H21.0381V32.049H22.4511V33.066H21.0381V34.983H22.8381V36H19.9041V29.466H22.7481ZM27.2486 32.598V34.272C27.2486 35.415 26.7536 36.09 25.5746 36.09C24.4046 36.09 23.9186 35.451 23.9186 34.416V31.05C23.9186 30.015 24.4046 29.385 25.5746 29.385C26.7536 29.385 27.2486 30.015 27.2486 31.05V31.473H26.1146V31.05C26.1146 30.582 25.9346 30.393 25.5746 30.393C25.2326 30.393 25.0526 30.582 25.0526 31.05V34.425C25.0526 34.902 25.2326 35.082 25.5746 35.082C25.9346 35.082 26.1596 34.875 26.1596 34.335V33.606H25.6196V32.598H27.2486ZM29.3726 34.641L29.1476 36H28.0586L29.3096 29.466H30.6956L31.9466 36H30.8036L30.5786 34.641H29.3726ZM30.4076 33.624L29.9756 31.014L29.5346 33.624H30.4076ZM32.9383 36V29.466H33.9643L35.4943 33.444V29.466H36.5293V36H35.5573L33.9823 32.049V36H32.9383ZM6.68994 40.466V42.851L7.92294 40.466H9.18294L7.65294 43.058L9.25494 47H7.97694L6.96894 44.03L6.68994 44.444V47H5.55594V40.466H6.68994ZM10.2305 46.082C10.5275 46.082 10.6805 45.92 10.6805 45.506V40.466H11.8145V45.596C11.8145 46.559 11.4185 47.09 10.3205 47.09H9.83445V46.082H10.2305ZM15.0652 39.935H14.1832L14.7412 38.819H15.9022L15.0652 39.935ZM16.4962 45.416C16.4962 46.451 16.0012 47.09 14.8222 47.09C13.6522 47.09 13.1662 46.451 13.1662 45.416V40.466H14.3002V45.425C14.3002 45.902 14.4802 46.082 14.8222 46.082C15.1822 46.082 15.3622 45.902 15.3622 45.425V40.466H16.4962V45.416ZM19.021 40.466V42.851L20.254 40.466H21.514L19.984 43.058L21.586 47H20.308L19.3 44.03L19.021 44.444V47H17.887V40.466H19.021ZM23.5737 40.466V45.983H25.3737V47H22.4397V40.466H23.5737ZM27.5813 40.466V47H26.4563V40.466H27.5813ZM29.0227 47V40.466H30.0487L31.5787 44.444V40.466H32.6137V47H31.6417L30.0667 43.049V47H29.0227ZM37.2901 43.598V45.272C37.2901 46.415 36.7951 47.09 35.6161 47.09C34.4461 47.09 33.9601 46.451 33.9601 45.416V42.05C33.9601 41.015 34.4461 40.385 35.6161 40.385C36.7951 40.385 37.2901 41.015 37.2901 42.05V42.473H36.1561V42.05C36.1561 41.582 35.9761 41.393 35.6161 41.393C35.2741 41.393 35.0941 41.582 35.0941 42.05V45.425C35.0941 45.902 35.2741 46.082 35.6161 46.082C35.9761 46.082 36.2011 45.875 36.2011 45.335V44.606H35.6611V43.598H37.2901ZM41.8351 45.416C41.8351 46.451 41.3401 47.09 40.1611 47.09C38.9911 47.09 38.5051 46.451 38.5051 45.416V40.466H39.6391V45.425C39.6391 45.902 39.8191 46.082 40.1611 46.082C40.5211 46.082 40.7011 45.902 40.7011 45.425V40.466H41.8351V45.416ZM44.8009 40.466C46.0429 40.466 46.5559 41.105 46.5559 42.392C46.5559 43.265 46.3579 43.823 45.8629 44.129L46.7629 47H45.5479L44.8189 44.381H44.3599V47H43.2259V40.466H44.8009ZM44.3599 43.364H44.7109C45.1879 43.364 45.4219 43.184 45.4219 42.401C45.4219 41.663 45.1879 41.483 44.7109 41.483H44.3599V43.364Z" fill="#0078AE"/>
<path fill-rule="evenodd" clip-rule="evenodd" d="M29.9888 15.7595C30.8487 16.084 31.796 16.4266 32.3872 16.6655C37.6698 18.7974 36.1896 26.8249 30.4389 26.8249H19.5758C15.7666 26.8249 12.6763 23.7171 12.6763 19.8814C12.6763 16.0457 15.7644 12.9379 19.5758 12.9379C19.8803 12.9289 20.2073 12.9424 20.5566 12.974C21.4568 12.4759 22.6213 12.1131 24.0746 11.9689C26.1841 11.7593 28.2533 12.1176 29.2162 13.0123C29.9754 13.7154 30.1657 14.707 29.9866 15.7572L29.9888 15.7595Z" fill="#F89A2C"/>
<path fill-rule="evenodd" clip-rule="evenodd" d="M26.3332 17.9463C25.2605 17.2184 22.9786 17.6556 22.3359 19.143C22.645 15.7783 25.7823 15.7625 27.0812 16.9096L26.3332 17.9463Z" fill="white"/>
<path fill-rule="evenodd" clip-rule="evenodd" d="M32.6424 16.0208C32.2438 15.8608 31.6817 15.649 31.0928 15.4304C30.7434 15.2997 30.3874 15.1667 30.0492 15.0382C30.0492 14.7407 29.9977 14.459 29.9216 14.1886L30.4098 13.8055C30.8061 14.2675 31.7713 14.4928 32.3759 14.0173C33.2918 13.2984 32.9694 11.5068 31.5496 11.4594C31.8497 10.0622 30.1993 9.31171 29.2856 10.0284C28.681 10.5016 28.6631 11.5 29.0124 12.0003L28.3921 12.4871C27.3015 11.9868 25.7049 11.8087 24.0791 11.9688C23.2125 12.0544 22.4511 12.2212 21.7838 12.4443C20.9395 12.2955 20.1983 12.2212 19.578 12.2437C15.3926 12.2437 11.9888 15.6692 11.9888 19.8813C11.9888 24.0934 15.3926 27.5167 19.578 27.5167H30.4411C33.7979 27.5167 35.7641 25.0917 36.2254 22.6916C36.689 20.2757 35.7619 17.2761 32.6447 16.0186L32.6424 16.0208ZM34.8684 22.4302C34.5414 24.1384 33.1844 26.1307 30.4389 26.1307H19.5757C16.1517 26.1307 13.366 23.3271 13.366 19.8836C13.366 16.44 16.1517 13.6342 19.5936 13.6342C19.5981 13.6342 19.6048 13.6342 19.6093 13.6342C17.3364 15.5633 17.7171 18.5517 19.7549 19.6469C17.2737 15.3177 21.6158 13.1407 25.0577 13.3457C28.4996 13.5508 31.0435 16.1403 24.9659 21.3417C26.7619 21.2357 29.0953 18.7996 29.8208 16.4377C30.0828 16.5369 30.3493 16.6361 30.6113 16.733C31.1868 16.9471 31.7355 17.1499 32.1274 17.3076C34.5145 18.27 35.2222 20.5732 34.8661 22.4279L34.8684 22.4302Z" fill="#231F20"/>
<path d="M28.3712 61.0039C28.3712 61.0039 39.7602 63.823 41.0987 65.7606C42.4372 67.6982 43.3328 70.6945 41.7696 72.2801C40.2063 73.8657 35.2951 76.3326 33.061 77.2141C30.8269 78.0955 27.0229 78.6275 27.0229 78.6275C27.0229 78.6275 31.273 76.6847 31.273 72.1028C31.273 67.5209 30.8269 64.175 29.7098 63.2936C28.5927 62.4121 28.3712 61.0039 28.3712 61.0039Z" fill="#C55450"/>
<path d="M22.5675 59.2413C22.5675 59.2413 30.6052 62.0603 31.5008 64.8794C32.3932 67.6984 32.1717 74.2179 30.1623 76.1556C28.1529 78.0932 25.9187 80.3854 23.6878 80.5602C21.4537 80.7375 14.9792 79.6787 13.8622 78.4452C12.7451 77.2118 10.5142 73.6886 10.2895 71.2216C10.0648 68.7546 10.0648 66.1129 11.1818 64.35C12.2989 62.5871 12.9698 61.3536 14.3083 60.6495C15.6469 59.9454 18.7734 59.064 18.7734 59.064L22.5708 59.2413H22.5675Z" fill="white"/>
<path d="M39.327 63.8516C35.8455 62.3302 31.3544 60.6368 27.8729 59.3467C25.7235 58.455 23.2939 57.9899 20.8481 58.0002C20.8481 58.0002 20.8481 58.0002 20.8448 58.0002C19.2979 58.0079 17.79 58.2931 16.37 58.8508C11.7454 60.665 8.78503 64.9771 8.82411 69.8417C8.87948 76.3381 14.3574 81.5985 21.037 81.5625C21.4245 81.5625 21.8088 81.5419 22.1931 81.5034C24.0723 81.3774 25.9124 80.9894 27.5701 80.3393C27.7264 80.2776 27.8795 80.2159 28.0325 80.1491L39.3986 75.688C42.3167 74.6369 44.1372 72.3627 44.1177 69.7698C44.0981 67.1409 42.2288 64.8563 39.327 63.8464V63.8516ZM11.0029 69.834C10.9703 65.689 13.5171 61.896 17.3406 60.3952C18.4609 59.9558 19.6463 59.7296 20.8611 59.7219C26.339 59.6937 30.8333 64.1856 30.8789 69.7338C30.9115 73.8788 28.3647 77.6718 24.5413 79.1726C23.7141 79.4964 22.851 79.7045 21.9684 79.7945C21.6525 79.815 21.3399 79.8459 21.0207 79.8459C15.5428 79.8741 11.0485 75.3822 11.0029 69.834ZM38.4607 74.1435L30.2536 77.3635C32.0514 75.2768 33.0805 72.5991 33.0577 69.7235C33.0317 66.794 31.8983 64.1214 30.055 62.0656C32.8395 63.1192 35.839 64.291 38.3565 65.3909C40.5515 66.1592 41.9226 67.8424 41.9357 69.7852C41.9519 71.6945 40.6036 73.2955 38.4574 74.141L38.4607 74.1435Z" fill="#231F20"/>
<path fill-rule="evenodd" clip-rule="evenodd" d="M20.8702 61.2277C24.3582 61.2097 27.3772 63.2424 28.7679 66.1796C28.8428 66.339 28.8265 66.5008 28.719 66.6473C28.6115 66.7938 28.4422 66.8863 28.2305 66.9146C26.5272 67.1407 25.4427 68.2817 23.6678 68.8625C23.1695 68.2637 22.1176 67.8834 21.5704 67.886C21.0233 67.8885 21.0787 67.9219 20.8474 67.9862C19.6457 66.6473 18.0987 64.2934 17.2747 62.5562C17.151 62.2941 17.291 62.0037 17.6037 61.8753C18.61 61.4615 19.7141 61.2302 20.8702 61.2251V61.2277ZM29.543 69.0347C29.5658 69.2685 29.5756 69.5049 29.5788 69.7413C29.6179 74.4672 25.7814 78.3167 21.0103 78.3398C20.1505 78.345 19.32 78.2242 18.5384 77.998C18.2029 77.9004 18.0173 77.6229 18.102 77.3505C18.7696 75.197 20.2872 74.3181 21.0526 73.1489C21.235 73.1874 20.779 73.208 21.616 73.2054C22.453 73.2003 24.3159 72.0027 24.2768 70.5354V70.4506C26.0094 69.875 27.0613 68.7443 28.7418 68.5335C28.9405 68.5078 29.1261 68.5464 29.2857 68.6466C29.4453 68.7468 29.5332 68.8779 29.5495 69.0372L29.543 69.0347ZM15.2327 76.1915C15.4054 76.3431 15.6529 76.4048 15.9069 76.3585C16.1609 76.3123 16.3498 76.1709 16.4215 75.9731C17.138 73.9892 18.6524 73.208 19.4112 72.0901C19.0985 71.6584 18.9096 71.1059 18.9064 70.5585C18.9031 70.0112 19.0529 69.5435 19.3135 69.1323C18.1313 67.868 16.5843 65.658 15.7897 64.0955C15.692 63.9054 15.4868 63.7795 15.2295 63.7538C14.9722 63.7281 14.7345 63.8077 14.5781 63.9748C13.1452 65.5115 12.2789 67.5699 12.2951 69.8287C12.3147 72.3625 13.448 74.6342 15.2262 76.1915H15.2327Z" fill="#FFADA7"/>
<path d="M12.6333 90.2405C12.6333 90.7705 12.8533 90.9705 13.2533 90.9705C13.6633 90.9705 13.8933 90.7405 13.8933 90.2105C13.8933 89.6005 13.4033 89.1905 12.9133 88.8005C12.2333 88.2605 11.4533 87.6105 11.4533 86.4005C11.4533 85.3205 12.1933 84.6505 13.2533 84.6505C14.4933 84.6505 15.0533 85.3505 15.0533 86.5005V86.8405H13.7933V86.5005C13.7933 85.9805 13.6033 85.7705 13.2633 85.7705C12.9033 85.7705 12.7133 85.9905 12.7133 86.4005C12.7133 87.0105 13.2633 87.4605 13.7433 87.8305C14.4433 88.3705 15.1533 88.9905 15.1533 90.2005C15.1533 91.4005 14.3733 92.1005 13.2633 92.1005C11.9633 92.1005 11.3733 91.3905 11.3733 90.2405V89.7505H12.6333V90.2405ZM17.6801 84.7405V87.3905L19.0501 84.7405H20.4501L18.7501 87.6205L20.5301 92.0005H19.1101L17.9901 88.7005L17.6801 89.1605V92.0005H16.4201V84.7405H17.6801ZM22.7287 84.7405V92.0005H21.4787V84.7405H22.7287ZM24.3303 92.0005V84.7405H25.4703L27.1703 89.1605V84.7405H28.3203V92.0005H27.2403L25.4903 87.6105V92.0005H24.3303ZM31.1762 84.7405V87.3905L32.5462 84.7405H33.9462L32.2462 87.6205L34.0262 92.0005H32.6062L31.4862 88.7005L31.1762 89.1605V92.0005H29.9162V84.7405H31.1762ZM35.9348 90.4905L35.6848 92.0005H34.4748L35.8648 84.7405H37.4048L38.7948 92.0005H37.5248L37.2748 90.4905H35.9348ZM37.0848 89.3605L36.6048 86.4605L36.1148 89.3605H37.0848Z" fill="#0078AE"/>
<path fill-rule="evenodd" clip-rule="evenodd" d="M15.4375 107.943H40.8359V112.198C39.8027 112.198 38.9639 113.026 38.9639 114.045C38.9639 115.064 39.8027 115.892 40.8359 115.892V128.7H15.4375C11.8719 128.7 8.95605 125.824 8.95605 122.306V114.339C8.95605 110.822 11.8719 107.946 15.4375 107.946V107.943Z" fill="#F8DE18"/>
<path d="M40.8332 113.142H41.7892V107H15.4374C11.3366 107 8 110.291 8 114.339V122.307C8 126.352 11.3366 129.646 15.4374 129.646H41.7892V114.949H40.8332C40.3272 114.949 39.9171 114.544 39.9171 114.045C39.9171 113.546 40.3272 113.142 40.8332 113.142ZM9.90927 122.304V114.337C9.90927 111.368 12.3298 108.96 15.3229 108.897C13.8157 110.242 12.8597 112.177 12.8597 114.337V122.304C12.8597 124.463 13.8157 126.399 15.3229 127.744C12.3298 127.684 9.90927 125.272 9.90927 122.304ZM39.8772 111.418C38.7854 111.804 38.0052 112.837 38.0052 114.043C38.0052 115.248 38.7854 116.281 39.8772 116.667V127.755H20.2971C17.2508 127.755 14.7717 125.309 14.7717 122.304V114.337C14.7717 111.332 17.2508 108.886 20.2971 108.886H39.8772V111.418Z" fill="#231F20"/>
<path d="M19.7781 112.664H17.8369V114.579H19.7781V112.664Z" fill="#961600"/>
<path d="M26.7705 111.324H25.5083V112.569H26.7705V111.324Z" fill="#961600"/>
<path d="M25.7979 114.578H23.0791V117.26H25.7979V114.578Z" fill="#961600"/>
<path d="M20.1696 119.656H19.5864V120.232H20.1696V119.656Z" fill="#961600"/>
<path d="M27.8393 121.188H26.7715V122.241H27.8393V121.188Z" fill="#961600"/>
<path d="M33.2762 118.889H32.4028V119.75H33.2762V118.889Z" fill="#961600"/>
<path d="M33.18 112.28H32.208V113.239H33.18V112.28Z" fill="#961600"/>
<path d="M37.7423 122.816H36.0913V124.445H37.7423V122.816Z" fill="#961600"/>
<path d="M30.6527 115.635H29.7793V116.496H30.6527V115.635Z" fill="#961600"/>
<path d="M21.916 123.583H20.6538V124.829H21.916V123.583Z" fill="#961600"/>
<path d="M3.55 133.74C4.92 133.74 5.5 134.45 5.5 135.88C5.5 137.38 4.92 138.09 3.55 138.09H3.06V141H1.8V133.74H3.55ZM3.06 136.96H3.45C3.98 136.96 4.24 136.76 4.24 135.89C4.24 135.07 3.98 134.87 3.45 134.87H3.06V136.96ZM8.00117 133.74V141H6.75117V133.74H8.00117ZM11.3527 133.74C12.7227 133.74 13.3027 134.45 13.3027 135.88C13.3027 137.38 12.7227 138.09 11.3527 138.09H10.8627V141H9.60273V133.74H11.3527ZM10.8627 136.96H11.2527C11.7827 136.96 12.0427 136.76 12.0427 135.89C12.0427 135.07 11.7827 134.87 11.2527 134.87H10.8627V136.96ZM15.1623 139.49L14.9123 141H13.7023L15.0923 133.74H16.6323L18.0223 141H16.7523L16.5023 139.49H15.1623ZM16.3123 138.36L15.8323 135.46L15.3423 138.36H16.3123ZM20.8742 133.74C22.2542 133.74 22.8242 134.45 22.8242 135.88C22.8242 136.85 22.6042 137.47 22.0542 137.81L23.0542 141H21.7042L20.8942 138.09H20.3842V141H19.1242V133.74H20.8742ZM20.3842 136.96H20.7742C21.3042 136.96 21.5642 136.76 21.5642 135.89C21.5642 135.07 21.3042 134.87 20.7742 134.87H20.3842V136.96ZM27.9 139.24C27.9 140.39 27.35 141.1 26.04 141.1C24.74 141.1 24.2 140.39 24.2 139.24V135.5C24.2 134.35 24.74 133.65 26.04 133.65C27.35 133.65 27.9 134.35 27.9 135.5V139.24ZM25.46 139.25C25.46 139.78 25.66 139.98 26.04 139.98C26.44 139.98 26.64 139.78 26.64 139.25V135.5C26.64 134.98 26.44 134.77 26.04 134.77C25.66 134.77 25.46 134.98 25.46 135.5V139.25ZM30.3277 139.24C30.3277 139.77 30.5477 139.97 30.9477 139.97C31.3577 139.97 31.5877 139.74 31.5877 139.21C31.5877 138.6 31.0977 138.19 30.6077 137.8C29.9277 137.26 29.1477 136.61 29.1477 135.4C29.1477 134.32 29.8877 133.65 30.9477 133.65C32.1877 133.65 32.7477 134.35 32.7477 135.5V135.84H31.4877V135.5C31.4877 134.98 31.2977 134.77 30.9577 134.77C30.5977 134.77 30.4077 134.99 30.4077 135.4C30.4077 136.01 30.9577 136.46 31.4377 136.83C32.1377 137.37 32.8477 137.99 32.8477 139.2C32.8477 140.4 32.0677 141.1 30.9577 141.1C29.6577 141.1 29.0677 140.39 29.0677 139.24V138.75H30.3277V139.24ZM37.3045 133.74V134.87H36.0845V141H34.8345V134.87H33.6145V133.74H37.3045ZM42.0516 139.24C42.0516 140.39 41.5016 141.1 40.1916 141.1C38.8916 141.1 38.3516 140.39 38.3516 139.24V133.74H39.6116V139.25C39.6116 139.78 39.8116 139.98 40.1916 139.98C40.5916 139.98 40.7916 139.78 40.7916 139.25V133.74H42.0516V139.24ZM45.3469 133.74C46.7269 133.74 47.2969 134.45 47.2969 135.88C47.2969 136.85 47.0769 137.47 46.5269 137.81L47.5269 141H46.1769L45.3669 138.09H44.8569V141H43.5969V133.74H45.3469ZM44.8569 136.96H45.2469C45.7769 136.96 46.0369 136.76 46.0369 135.89C46.0369 135.07 45.7769 134.87 45.2469 134.87H44.8569V136.96Z" fill="#0078AE"/>
<path fill-rule="evenodd" clip-rule="evenodd" d="M23.6069 157.809C23.9719 157.991 24.3022 158.225 24.6006 158.498C23.6417 160.361 23.5374 162.965 24.505 165.404C24.7918 166.126 25.151 166.779 25.5624 167.355C24.0125 170.693 20.8663 172.361 18.3371 171.097C15.6834 169.77 14.7099 165.722 16.1643 162.052C17.6186 158.381 20.9503 156.483 23.6069 157.809Z" fill="#231F20"/>
<path d="M20.1305 172.452C19.3859 172.452 18.6674 172.283 18.0011 171.948C16.483 171.191 15.385 169.679 14.9099 167.693C14.4493 165.778 14.626 163.638 15.4082 161.668C16.6482 158.547 19.2237 156.447 21.8223 156.447C22.5669 156.447 23.2825 156.616 23.9517 156.951C24.3776 157.165 24.7745 157.442 25.1366 157.773L25.6842 158.277L25.3307 158.966C24.4732 160.631 24.4529 162.952 25.2757 165.023C25.5248 165.654 25.8435 166.239 26.2201 166.763L26.562 167.241L26.3099 167.784C24.9946 170.619 22.5727 172.452 20.1334 172.452H20.1305ZM21.8194 158.323C19.8697 158.323 17.9055 159.974 16.9292 162.432C16.3034 164.009 16.1556 165.706 16.5178 167.208C16.8596 168.639 17.6274 169.718 18.6761 170.238C20.6287 171.22 23.184 169.946 24.5688 167.426C24.2501 166.916 23.972 166.363 23.7431 165.784C22.8131 163.437 22.7465 160.898 23.5316 158.81C23.4447 158.755 23.3578 158.706 23.2651 158.661C22.8132 158.437 22.3235 158.323 21.8166 158.323H21.8194Z" fill="#231F20"/>
<path fill-rule="evenodd" clip-rule="evenodd" d="M26.6774 156.362C24.0237 157.689 23.0503 161.736 24.5046 165.407C25.959 169.078 29.2906 170.976 31.9472 169.65C34.601 168.323 35.5744 164.276 34.12 160.605C32.6657 156.934 29.3341 155.036 26.6774 156.362Z" fill="#231F20"/>
<path d="M30.1603 171.006C27.5616 171.006 24.9861 168.909 23.749 165.784C22.9668 163.814 22.7901 161.675 23.2507 159.76C23.7287 157.777 24.8267 156.265 26.3419 155.504C27.0111 155.169 27.7267 155 28.4713 155C31.0671 155 33.6455 157.097 34.8825 160.218C36.5194 164.354 35.3576 168.964 32.2896 170.502C31.6204 170.837 30.9048 171.006 30.1603 171.006ZM28.4713 156.876C27.9614 156.876 27.4718 156.99 27.0198 157.217C25.9711 157.741 25.2034 158.82 24.8615 160.247C24.4994 161.749 24.6471 163.443 25.2729 165.023C26.2463 167.481 28.2134 169.133 30.1632 169.133C30.6702 169.133 31.1598 169.019 31.6146 168.792C33.8425 167.676 34.6276 164.175 33.3615 160.982C32.3852 158.524 30.421 156.876 28.4742 156.876H28.4713Z" fill="#231F20"/>
<path fill-rule="evenodd" clip-rule="evenodd" d="M28.039 159.792C26.634 160.563 26.4457 164.237 26.8657 165.296C25.0377 163.528 25.4317 158.966 27.4104 158.215L28.039 159.795V159.792Z" fill="white"/>
<path fill-rule="evenodd" clip-rule="evenodd" d="M21.7991 161.141C20.2376 161.021 18.4414 164.097 18.3313 165.251C17.5375 162.692 19.9102 158.963 21.9584 159.421L21.7991 161.141Z" fill="white"/>
<path d="M10.2112 180.996C10.2112 181.526 10.4312 181.726 10.8312 181.726C11.2412 181.726 11.4712 181.496 11.4712 180.966C11.4712 180.356 10.9812 179.946 10.4912 179.556C9.81121 179.016 9.03121 178.366 9.03121 177.156C9.03121 176.076 9.77121 175.406 10.8312 175.406C12.0712 175.406 12.6312 176.106 12.6312 177.256V177.596H11.3712V177.256C11.3712 176.736 11.1812 176.526 10.8412 176.526C10.4812 176.526 10.2912 176.746 10.2912 177.156C10.2912 177.766 10.8412 178.216 11.3212 178.586C12.0212 179.126 12.7312 179.746 12.7312 180.956C12.7312 182.156 11.9512 182.856 10.8412 182.856C9.54121 182.856 8.95121 182.146 8.95121 180.996V180.506H10.2112V180.996ZM17.818 175.496L16.428 182.756H14.888L13.498 175.496H14.818L15.688 180.756L16.558 175.496H17.818ZM19.6846 181.246L19.4346 182.756H18.2246L19.6146 175.496H21.1546L22.5446 182.756H21.2746L21.0246 181.246H19.6846ZM20.8346 180.116L20.3546 177.216L19.8646 180.116H20.8346ZM25.3964 175.496C26.7764 175.496 27.3464 176.206 27.3464 177.636C27.3464 178.606 27.1264 179.226 26.5764 179.566L27.5764 182.756H26.2264L25.4164 179.846H24.9064V182.756H23.6464V175.496H25.3964ZM24.9064 178.716H25.2964C25.8264 178.716 26.0864 178.516 26.0864 177.646C26.0864 176.826 25.8264 176.626 25.2964 176.626H24.9064V178.716ZM31.9634 175.496V176.626H30.7434V182.756H29.4934V176.626H28.2734V175.496H31.9634ZM33.6689 181.246L33.4189 182.756H32.2089L33.5989 175.496H35.1389L36.5289 182.756H35.2589L35.0089 181.246H33.6689ZM34.8189 180.116L34.3389 177.216L33.8489 180.116H34.8189ZM39.3808 175.496C40.7608 175.496 41.3308 176.206 41.3308 177.636C41.3308 178.606 41.1108 179.226 40.5608 179.566L41.5608 182.756H40.2108L39.4008 179.846H38.8908V182.756H37.6308V175.496H39.3808ZM38.8908 178.716H39.2808C39.8108 178.716 40.0708 178.516 40.0708 177.646C40.0708 176.826 39.8108 176.626 39.2808 176.626H38.8908V178.716ZM14.5009 186.906H13.5209L14.1409 185.666H15.4309L14.5009 186.906ZM16.0209 192.996C16.0209 194.146 15.4709 194.856 14.1609 194.856C12.8609 194.856 12.3209 194.146 12.3209 192.996V189.256C12.3209 188.106 12.8609 187.406 14.1609 187.406C15.4709 187.406 16.0209 188.106 16.0209 189.256V192.996ZM13.5809 193.006C13.5809 193.536 13.7809 193.736 14.1609 193.736C14.5609 193.736 14.7609 193.536 14.7609 193.006V189.256C14.7609 188.736 14.5609 188.526 14.1609 188.526C13.7809 188.526 13.5809 188.736 13.5809 189.256V193.006ZM18.7785 187.496V193.626H20.7785V194.756H17.5185V187.496H18.7785ZM22.9514 186.906H21.9714L22.5914 185.666H23.8814L22.9514 186.906ZM23.2314 187.496V194.756H21.9814V187.496H23.2314ZM28.093 187.496V188.626H26.093V190.466H27.763V191.596H26.093V194.756H24.833V187.496H28.093ZM32.9459 192.996C32.9459 194.146 32.3959 194.856 31.0859 194.856C29.7859 194.856 29.2459 194.146 29.2459 192.996V187.496H30.5059V193.006C30.5059 193.536 30.7059 193.736 31.0859 193.736C31.4859 193.736 31.6859 193.536 31.6859 193.006V187.496H32.9459V192.996ZM36.2412 187.496C37.6212 187.496 38.1912 188.206 38.1912 189.636C38.1912 190.606 37.9712 191.226 37.4212 191.566L38.4212 194.756H37.0712L36.2612 191.846H35.7512V194.756H34.4912V187.496H36.2412ZM35.7512 190.716H36.1412C36.6712 190.716 36.9312 190.516 36.9312 189.646C36.9312 188.826 36.6712 188.626 36.1412 188.626H35.7512V190.716Z" fill="#0078AE"/>
<path d="M24.8123 204.241C24.6091 203.716 24.3395 202.913 24.123 202.249C24.0125 201.917 23.469 201.917 23.3585 202.249C23.142 202.916 22.8724 203.716 22.6692 204.241C22.3289 205.127 21.644 206.218 21.644 206.218L21.9136 206.275C21.971 206.287 22.0285 206.313 22.0727 206.348L23.4867 207.388C23.6325 207.496 23.849 207.496 23.9992 207.388L25.4133 206.348C25.4575 206.313 25.5149 206.291 25.5723 206.275L25.8419 206.218C25.8419 206.218 25.157 205.127 24.8168 204.241H24.8123Z" fill="#7EBE50" stroke="#231F20" stroke-miterlimit="10"/>
<path d="M20.8886 205.475C19.8015 204.972 18.6924 204.653 17.6717 204.517C17.3403 204.472 17.1591 204.823 17.4242 204.997C18.224 205.522 18.9973 206.231 19.6557 207.081C20.8267 208.602 21.3436 210.225 21.1757 211.449C21.1536 211.607 21.2995 211.743 21.4851 211.749C22.9698 211.812 24.1761 211.449 24.6931 210.652C25.6343 209.203 23.9287 206.885 20.8886 205.475Z" fill="#7EBE50" stroke="#231F20" stroke-miterlimit="10"/>
<path d="M26.8271 205.453C27.9539 204.994 29.0851 204.722 30.1147 204.63C30.4505 204.599 30.6007 204.959 30.3223 205.121C29.4828 205.611 28.652 206.284 27.9273 207.11C26.6326 208.58 25.9875 210.177 26.0582 211.407C26.067 211.566 25.9124 211.695 25.7224 211.695C24.2332 211.695 23.0579 211.284 22.6072 210.468C21.7853 208.982 23.6765 206.74 26.8271 205.456V205.453Z" fill="#446B2C" stroke="#231F20" stroke-miterlimit="10"/>
<path d="M18.7631 207.805C17.358 207.429 15.9926 207.268 14.7907 207.293C14.4018 207.303 14.3178 207.733 14.6758 207.881C15.7628 208.33 16.8851 208.994 17.9236 209.842C19.7794 211.357 20.9284 213.096 21.1626 214.513C21.1935 214.693 21.4055 214.823 21.6176 214.798C23.3189 214.605 24.5606 213.975 24.8655 212.985C25.4267 211.177 22.6914 208.858 18.7543 207.805H18.7631Z" fill="#7EBE50" stroke="#231F20" stroke-miterlimit="10"/>
<path d="M28.3034 208.122C29.7395 207.688 31.1491 207.48 32.3996 207.47C32.8061 207.47 32.9166 207.913 32.5542 208.077C31.4495 208.577 30.3227 209.301 29.2932 210.212C27.455 211.841 26.3635 213.681 26.2 215.161C26.1779 215.351 25.9659 215.49 25.7449 215.471C23.9642 215.323 22.6429 214.706 22.2629 213.684C21.5736 211.825 24.2823 209.333 28.3034 208.119V208.122Z" fill="#446B2C" stroke="#231F20" stroke-miterlimit="10"/>
<path d="M16.567 210.851C15.0514 210.529 13.5976 210.427 12.3338 210.519C11.9229 210.548 11.8787 211.006 12.272 211.145C13.4606 211.563 14.7111 212.205 15.8909 213.043C17.9987 214.539 19.3818 216.313 19.775 217.793C19.8236 217.982 20.0623 218.106 20.2832 218.071C22.0551 217.78 23.2968 217.056 23.5222 215.993C23.9287 214.061 20.8179 211.762 16.567 210.854V210.851Z" fill="#7EBE50" stroke="#231F20" stroke-miterlimit="10"/>
<path d="M30.4333 210.851C31.9489 210.529 33.4027 210.427 34.6664 210.519C35.0774 210.548 35.1216 211.006 34.7283 211.145C33.5396 211.563 32.2892 212.205 31.1093 213.043C29.0016 214.539 27.6185 216.313 27.2252 217.793C27.1766 217.982 26.938 218.106 26.717 218.071C24.9451 217.78 23.7035 217.056 23.4781 215.993C23.0716 214.061 26.1824 211.762 30.4333 210.854V210.851Z" fill="#446B2C" stroke="#231F20" stroke-miterlimit="10"/>
<path d="M34.1006 222.368C34.1006 218.164 29.3397 214.756 23.4668 214.756C17.5939 214.756 12.833 218.164 12.833 222.368V228.57C12.833 232.774 17.5939 236.182 23.4668 236.182C29.3397 236.182 34.1006 232.774 34.1006 228.57V222.368Z" fill="#FFAF00" stroke="#231F20" stroke-miterlimit="10"/>
<path d="M19.9119 232.83C19.9119 231.511 18.573 230.331 16.4565 229.493C15.1308 230.018 14.1145 230.676 13.5356 231.416" stroke="#231F20" stroke-miterlimit="10"/>
<path d="M26.8807 232.83C26.8807 231.511 25.5418 230.331 23.4252 229.493C21.3086 230.331 19.9697 231.511 19.9697 232.83" stroke="#231F20" stroke-miterlimit="10"/>
<path d="M33.1814 231.293C32.5893 230.603 31.6127 229.99 30.3622 229.493C28.2456 230.331 26.9067 231.511 26.9067 232.83" stroke="#231F20" stroke-miterlimit="10"/>
<path d="M23.3675 236.008C23.3675 234.689 22.0286 233.509 19.912 232.671C18.5864 233.196 17.5701 233.854 16.9912 234.594" stroke="#231F20" stroke-miterlimit="10"/>
<path d="M29.8012 234.632C29.2268 233.876 28.1973 233.206 26.854 232.671C24.7374 233.509 23.3984 234.689 23.3984 236.008" stroke="#231F20" stroke-miterlimit="10"/>
<path d="M16.4033 229.601C16.4033 228.282 15.0643 227.103 12.9478 226.265" stroke="#231F20" stroke-miterlimit="10"/>
<path d="M23.3675 229.601C23.3675 228.282 22.0286 227.103 19.912 226.265C17.7954 227.103 16.4565 228.282 16.4565 229.601" stroke="#231F20" stroke-miterlimit="10"/>
<path d="M30.3094 229.601C30.3094 228.282 28.9705 227.103 26.854 226.265C24.7374 227.103 23.3984 228.282 23.3984 229.601" stroke="#231F20" stroke-miterlimit="10"/>
<path d="M33.8178 226.265C31.7012 227.103 30.3623 228.282 30.3623 229.601" stroke="#231F20" stroke-miterlimit="10"/>
<path d="M19.912 226.318C19.912 225 18.5731 223.82 16.4565 222.982C14.3399 223.82 13.001 225 13.001 226.318" stroke="#231F20" stroke-miterlimit="10"/>
<path d="M26.8807 226.318C26.8807 225 25.5418 223.82 23.4252 222.982C21.3086 223.82 19.9697 225 19.9697 226.318" stroke="#231F20" stroke-miterlimit="10"/>
<path d="M33.8182 226.318C33.8182 225 32.4793 223.82 30.3627 222.982C28.2461 223.82 26.9072 225 26.9072 226.318" stroke="#231F20" stroke-miterlimit="10"/>
<path d="M19.912 219.997C19.912 218.678 18.5731 217.498 16.4565 216.66" stroke="#231F20" stroke-miterlimit="10"/>
<path d="M26.8802 219.997C26.8802 218.678 25.5413 217.498 23.4248 216.66C21.3082 217.498 19.9692 218.678 19.9692 219.997" stroke="#231F20" stroke-miterlimit="10"/>
<path d="M30.3622 216.66C28.2456 217.498 26.9067 218.678 26.9067 219.997" stroke="#231F20" stroke-miterlimit="10"/>
<path d="M16.4033 223.174C16.4033 221.856 15.0643 220.676 12.9478 219.838" stroke="#231F20" stroke-miterlimit="10"/>
<path d="M23.3675 223.174C23.3675 221.856 22.0286 220.676 19.912 219.838C17.7954 220.676 16.4565 221.856 16.4565 223.174" stroke="#231F20" stroke-miterlimit="10"/>
<path d="M30.3094 223.174C30.3094 221.856 28.9705 220.676 26.854 219.838C24.7374 220.676 23.3984 221.856 23.3984 223.174" stroke="#231F20" stroke-miterlimit="10"/>
<path d="M33.8178 219.838C31.7012 220.676 30.3623 221.856 30.3623 223.174" stroke="#231F20" stroke-miterlimit="10"/>
<path d="M23.2524 216.66V214.889" stroke="#231F20" stroke-miterlimit="10"/>
<path d="M11.4329 245.49L11.1829 247H9.97285L11.3629 239.74H12.9029L14.2929 247H13.0229L12.7729 245.49H11.4329ZM12.5829 244.36L12.1029 241.46L11.6129 244.36H12.5829ZM15.3947 247V239.74H16.5347L18.2347 244.16V239.74H19.3847V247H18.3047L16.5547 242.61V247H15.3947ZM21.9407 245.49L21.6907 247H20.4807L21.8707 239.74H23.4107L24.8007 247H23.5307L23.2807 245.49H21.9407ZM23.0907 244.36L22.6107 241.46L22.1207 244.36H23.0907ZM25.9025 247V239.74H27.0425L28.7425 244.16V239.74H29.8925V247H28.8125L27.0625 242.61V247H25.9025ZM32.4485 245.49L32.1985 247H30.9885L32.3785 239.74H33.9185L35.3085 247H34.0385L33.7885 245.49H32.4485ZM33.5985 244.36L33.1185 241.46L32.6285 244.36H33.5985ZM37.3404 245.24C37.3404 245.77 37.5604 245.97 37.9604 245.97C38.3704 245.97 38.6004 245.74 38.6004 245.21C38.6004 244.6 38.1104 244.19 37.6204 243.8C36.9404 243.26 36.1604 242.61 36.1604 241.4C36.1604 240.32 36.9004 239.65 37.9604 239.65C39.2004 239.65 39.7604 240.35 39.7604 241.5V241.84H38.5004V241.5C38.5004 240.98 38.3104 240.77 37.9704 240.77C37.6104 240.77 37.4204 240.99 37.4204 241.4C37.4204 242.01 37.9704 242.46 38.4504 242.83C39.1504 243.37 39.8604 243.99 39.8604 245.2C39.8604 246.4 39.0804 247.1 37.9704 247.1C36.6704 247.1 36.0804 246.39 36.0804 245.24V244.75H37.3404V245.24Z" fill="#0078AE"/>
<path d="M27.0291 255.416C27.0291 255.416 38.1141 258.621 39.4169 260.823C40.7197 263.026 41.5914 266.433 40.0699 268.235C38.5484 270.038 33.7682 272.843 31.5937 273.845C29.4192 274.847 25.7168 275.452 25.7168 275.452C25.7168 275.452 29.8535 273.243 29.8535 268.034C29.8535 262.825 29.4192 259.021 28.3319 258.019C27.2447 257.017 27.0291 255.416 27.0291 255.416Z" fill="#C55450"/>
<path d="M21.3773 253.411C21.3773 253.411 29.2005 256.616 30.0722 259.821C30.9408 263.026 30.7252 270.438 28.7694 272.641C26.8136 274.844 24.6391 277.45 22.4678 277.649C20.2932 277.85 13.9916 276.647 12.9043 275.244C11.817 273.842 9.6457 269.836 9.42698 267.032C9.20826 264.227 9.20826 261.223 10.2955 259.219C11.3828 257.215 12.0358 255.813 13.3386 255.012C14.6414 254.212 17.6845 253.209 17.6845 253.209L21.3805 253.411H21.3773Z" fill="white"/>
<path d="M37.6892 258.653C34.3007 256.923 29.9294 254.998 26.5408 253.531C24.4487 252.517 22.084 251.989 19.7035 252C19.7035 252 19.7035 252 19.7003 252C18.1946 252.009 16.727 252.333 15.3449 252.967C10.8437 255.03 7.96233 259.932 8.00037 265.463C8.05426 272.849 13.386 278.826 19.8873 278.788C20.2645 278.788 20.6386 278.765 21.0126 278.721C22.8416 278.578 24.6326 278.137 26.2461 277.398C26.395 277.327 26.5472 277.257 26.6962 277.181L37.759 272.11C40.5991 270.915 42.3711 268.329 42.3521 265.381C42.333 262.392 40.5136 259.795 37.6892 258.647V258.653ZM10.121 265.454C10.0893 260.742 12.5681 256.429 16.2895 254.723C17.38 254.224 18.5338 253.966 19.7161 253.958C25.0478 253.926 29.4222 259.032 29.4666 265.34C29.4983 270.053 27.0195 274.365 23.2981 276.071C22.4929 276.439 21.6529 276.676 20.7939 276.778C20.4864 276.802 20.1821 276.837 19.8715 276.837C14.5398 276.869 10.1654 271.762 10.121 265.454ZM36.846 270.354L28.858 274.014C30.6078 271.642 31.6094 268.598 31.5873 265.328C31.5651 261.998 30.4588 258.959 28.6647 256.625C31.3749 257.823 34.2911 259.155 36.7446 260.406C38.8811 261.279 40.2156 263.193 40.2283 265.402C40.2441 267.572 38.9318 269.392 36.8429 270.354H36.846Z" fill="#231F20"/>
<path fill-rule="evenodd" clip-rule="evenodd" d="M19.7288 255.67C23.1237 255.649 26.0621 257.96 27.4156 261.3C27.4886 261.481 27.4727 261.665 27.3681 261.832C27.2635 261.998 27.0987 262.103 26.8926 262.135C25.2348 262.393 24.1792 263.69 22.4516 264.35C21.9667 263.669 20.9428 263.237 20.4103 263.24C19.8777 263.243 19.9316 263.281 19.7066 263.354C18.5369 261.832 17.0312 259.155 16.2292 257.18C16.1088 256.882 16.2451 256.552 16.5494 256.406C17.5289 255.936 18.6035 255.673 19.7288 255.667V255.67ZM28.1701 264.546C28.1923 264.812 28.2018 265.08 28.2049 265.349C28.243 270.722 24.5089 275.099 19.8651 275.125C19.0282 275.131 18.2199 274.993 17.4591 274.736C17.1326 274.625 16.952 274.31 17.0344 274C17.6842 271.552 19.1614 270.553 19.9063 269.223C20.0838 269.267 19.64 269.29 20.4547 269.287C21.2693 269.282 23.0824 267.92 23.0444 266.252V266.156C24.7308 265.501 25.7547 264.216 27.3903 263.976C27.5837 263.947 27.7643 263.991 27.9196 264.105C28.075 264.218 28.1606 264.368 28.1764 264.549L28.1701 264.546ZM14.2418 272.682C14.4098 272.855 14.6507 272.925 14.8979 272.872C15.1451 272.82 15.329 272.659 15.3987 272.434C16.0961 270.179 17.5701 269.29 18.3087 268.019C18.0044 267.529 17.8205 266.901 17.8173 266.278C17.8142 265.656 17.96 265.124 18.2136 264.657C17.0629 263.219 15.5572 260.707 14.7838 258.93C14.6887 258.714 14.489 258.571 14.2386 258.542C13.9882 258.513 13.7568 258.603 13.6046 258.793C12.2099 260.54 11.3667 262.88 11.3825 265.448C11.4016 268.329 12.5047 270.912 14.2354 272.682H14.2418Z" fill="#E31937"/>
<path d="M2.8 293V285.74H3.94L5.64 290.16V285.74H6.79V293H5.71L3.96 288.61V293H2.8ZM9.34594 291.49L9.09594 293H7.88594L9.27594 285.74H10.8159L12.2059 293H10.9359L10.6859 291.49H9.34594ZM10.4959 290.36L10.0159 287.46L9.52594 290.36H10.4959ZM16.9578 291.24C16.9578 292.39 16.4078 293.1 15.0978 293.1C13.7978 293.1 13.2578 292.39 13.2578 291.24V285.74H14.5178V291.25C14.5178 291.78 14.7178 291.98 15.0978 291.98C15.4978 291.98 15.6978 291.78 15.6978 291.25V285.74H16.9578V291.24ZM21.6931 285.74V286.87H20.4731V293H19.2231V286.87H18.0031V285.74H21.6931ZM23.3987 291.49L23.1487 293H21.9387L23.3287 285.74H24.8687L26.2587 293H24.9887L24.7387 291.49H23.3987ZM24.5487 290.36L24.0687 287.46L23.5787 290.36H24.5487ZM28.6205 289.74V293H27.3605V285.74H28.6205V288.61H29.8705V285.74H31.1305V293H29.8705V289.74H28.6205ZM33.6916 291.49L33.4416 293H32.2316L33.6216 285.74H35.1616L36.5516 293H35.2816L35.0316 291.49H33.6916ZM34.8416 290.36L34.3616 287.46L33.8716 290.36H34.8416ZM38.9135 285.74V288.39L40.2835 285.74H41.6835L39.9835 288.62L41.7635 293H40.3435L39.2235 289.7L38.9135 290.16V293H37.6535V285.74H38.9135ZM43.9721 285.74V288.39L45.3421 285.74H46.7421L45.0421 288.62L46.8221 293H45.4021L44.2821 289.7L43.9721 290.16V293H42.7121V285.74H43.9721Z" fill="#0078AE"/>
</svg>
