<svg width="50" height="300" viewBox="0 0 50 300" fill="none" xmlns="http://www.w3.org/2000/svg">
<path fill-rule="evenodd" clip-rule="evenodd" d="M25.2339 11C33.4556 10.9836 41.2582 15.9644 41.4614 22.2297C41.5439 24.7731 40.0107 26.3447 38.0076 27.0552C37.2014 27.3423 36.3189 27.4858 35.4364 27.4929C34.1063 27.5046 32.7762 27.2082 31.6874 26.6388L31.9731 28.5445C32.189 29.9656 30.6938 31.2314 28.7321 31.2314H21.7325C19.7707 31.2314 18.2756 29.968 18.4915 28.5445L18.7771 26.6388C17.6915 27.2105 16.3614 27.5046 15.0282 27.4929C14.1457 27.4858 13.2632 27.3423 12.4569 27.0552C10.4507 26.3447 8.92065 24.7731 9.00319 22.2297C9.20635 15.9644 17.009 10.9836 25.2307 11H25.2339Z" fill="#D8A96C"/>
<path fill-rule="evenodd" clip-rule="evenodd" d="M25.3198 11C33.5415 10.9836 41.3442 15.9644 41.5473 22.2297C41.6299 24.7731 40.0966 26.3447 38.0936 27.0552C37.2873 27.3423 36.4048 27.4858 35.5223 27.4929C34.1922 27.5046 32.8622 27.2082 31.7734 26.6388L32.0591 28.5445C32.2749 29.9656 30.7798 31.2314 28.818 31.2314H21.8185C19.8567 31.2314 18.3615 29.968 18.5774 28.5445L18.8631 26.6388C17.7775 27.2105 16.4474 27.5046 15.1141 27.4929C14.2317 27.4858 13.3492 27.3423 12.5429 27.0552C10.5367 26.3447 9.00659 24.7731 9.08912 22.2297C9.29229 15.9644 17.095 10.9836 25.3166 11H25.3198ZM28.8212 29.8668C29.6973 29.8668 30.3354 29.3257 30.2401 28.6928C30.0846 27.6693 29.7576 26.2741 29.5386 25.0036C29.3608 23.9849 28.9069 22.2839 29.9735 21.4957C31.1639 20.6158 33.6177 20.7404 34.6462 21.6251C28.9704 20.6863 30.6528 26.1777 35.5065 26.1377C36.1255 26.133 36.7413 26.0318 37.3032 25.8342C38.7062 25.3354 39.7792 24.1802 39.7189 22.265C39.5411 16.7784 32.6305 12.3458 25.3198 12.3599C18.0124 12.3458 11.1017 16.7784 10.9207 22.265C10.8573 24.1825 11.9302 25.3354 13.3365 25.8342C13.8983 26.0341 14.5142 26.133 15.1332 26.1377C19.9868 26.1777 21.6693 20.6863 15.9934 21.6251C17.0251 20.7404 19.4758 20.6158 20.6661 21.4957C21.7327 22.2839 21.2788 23.9849 21.101 25.0036C20.8788 26.2765 20.555 27.6693 20.3995 28.6928C20.3043 29.3257 20.9423 29.8668 21.8185 29.8668H28.818H28.8212Z" fill="#231F20"/>
<path d="M25.3194 14.7549C28.0653 14.7549 30.5984 15.0443 32.6301 15.5314C31.2206 14.3291 28.4748 13.5127 25.3194 13.5127C22.1641 13.5127 19.415 14.3291 18.0088 15.5314C20.0436 15.0443 22.5736 14.7549 25.3194 14.7549Z" fill="#E2BE91"/>
<path d="M9.73 40.241C9.73 40.771 9.95 40.971 10.35 40.971C10.76 40.971 10.99 40.741 10.99 40.211C10.99 39.601 10.5 39.191 10.01 38.801C9.33 38.261 8.55 37.611 8.55 36.401C8.55 35.321 9.29 34.651 10.35 34.651C11.59 34.651 12.15 35.351 12.15 36.501V36.841H10.89V36.501C10.89 35.981 10.7 35.771 10.36 35.771C10 35.771 9.81 35.991 9.81 36.401C9.81 37.011 10.36 37.461 10.84 37.831C11.54 38.371 12.25 38.991 12.25 40.201C12.25 41.401 11.47 42.101 10.36 42.101C9.06 42.101 8.47 41.391 8.47 40.241V39.751H9.73V40.241ZM17.3368 34.741L15.9468 42.001H14.4068L13.0168 34.741H14.3368L15.2068 40.001L16.0768 34.741H17.3368ZM21.5987 34.741V35.871H19.6987V37.611H21.2687V38.741H19.6987V40.871H21.6987V42.001H18.4387V34.741H21.5987ZM24.7492 34.741C26.1192 34.741 26.6992 35.451 26.6992 36.881C26.6992 38.381 26.1192 39.091 24.7492 39.091H24.2592V42.001H22.9992V34.741H24.7492ZM24.2592 37.961H24.6492C25.1792 37.961 25.4392 37.761 25.4392 36.891C25.4392 36.071 25.1792 35.871 24.6492 35.871H24.2592V37.961ZM29.7004 34.741C31.0704 34.741 31.6504 35.451 31.6504 36.881C31.6504 38.381 31.0704 39.091 29.7004 39.091H29.2104V42.001H27.9504V34.741H29.7004ZM29.2104 37.961H29.6004C30.1304 37.961 30.3904 37.761 30.3904 36.891C30.3904 36.071 30.1304 35.871 29.6004 35.871H29.2104V37.961ZM34.1516 34.741V42.001H32.9016V34.741H34.1516ZM37.5031 34.741C38.8831 34.741 39.4531 35.451 39.4531 36.881C39.4531 37.851 39.2331 38.471 38.6831 38.811L39.6831 42.001H38.3331L37.5231 39.091H37.0131V42.001H35.7531V34.741H37.5031ZM37.0131 37.961H37.4031C37.9331 37.961 38.1931 37.761 38.1931 36.891C38.1931 36.071 37.9331 35.871 37.4031 35.871H37.0131V37.961Z" fill="#0078AE"/>
<path fill-rule="evenodd" clip-rule="evenodd" d="M15.1038 62.8233C20.6473 59.2293 28.2738 57.9217 34.8627 59.0042C37.1644 59.381 38.8418 60.4686 39.4231 61.9609C41.0927 66.2328 39.0759 71.1775 33.5325 74.7715C27.0177 78.9954 17.6317 80.0602 10.4265 77.8041C6.94672 73.1326 8.58907 67.0472 15.1038 62.8233Z" fill="#B6EF18"/>
<path d="M18.3926 79.6101C15.4044 79.6101 12.5761 79.1979 9.9897 78.3885L9.67761 78.2899L9.52547 78.085C5.74924 73.0164 7.70757 66.6983 14.3979 62.3632C19.9218 58.7818 28.0789 57.2212 35.1126 58.3745C37.7536 58.807 39.7314 60.0894 40.3985 61.7992C42.2125 66.4454 39.8563 71.5924 34.2465 75.2295C29.9553 78.0117 24.1779 79.6101 18.4004 79.6101H18.3926ZM11.1756 77.3186C13.4031 77.9762 15.8296 78.3126 18.3926 78.3126C23.6434 78.3126 28.906 76.8558 32.8226 74.3139C37.9369 70.998 40.0942 66.3265 38.4519 62.1204C37.9603 60.8583 36.5599 59.9528 34.6171 59.6341C28.2467 58.5921 20.8425 60.016 15.8101 63.2838C9.81415 67.1713 7.97675 72.7812 11.1756 77.3186Z" fill="#231F20"/>
<path fill-rule="evenodd" clip-rule="evenodd" d="M32.9174 71.6052C30.2841 72.6093 27.846 72.9609 21.5418 72.4095C26.4728 69.4655 31.0058 66.3722 32.7496 62.6011C30.3504 65.0393 27.2296 67.1411 23.8396 69.1265C22.4274 66.9261 22.3533 65.9675 22.8292 64.8546C21.3351 66.5518 22.3845 68.7699 22.915 69.6602C20.8631 70.8338 18.7331 71.9745 16.6109 73.1228C14.2703 69.4503 14.1766 67.8493 14.9803 65.9726C12.5343 68.7522 14.0986 72.3665 15.0271 73.9878C11.8243 75.7431 8.70344 77.5464 6 79.5622L8.39135 80.8724C11.3094 78.2926 15.4991 75.9479 19.6186 73.5452C20.352 73.6286 28.4584 74.4683 32.9096 71.6103L32.9174 71.6052Z" fill="#231F20"/>
<path d="M11.73 91.24C11.73 91.77 11.95 91.97 12.35 91.97C12.76 91.97 12.99 91.74 12.99 91.21C12.99 90.6 12.5 90.19 12.01 89.8C11.33 89.26 10.55 88.61 10.55 87.4C10.55 86.32 11.29 85.65 12.35 85.65C13.59 85.65 14.15 86.35 14.15 87.5V87.84H12.89V87.5C12.89 86.98 12.7 86.77 12.36 86.77C12 86.77 11.81 86.99 11.81 87.4C11.81 88.01 12.36 88.46 12.84 88.83C13.54 89.37 14.25 89.99 14.25 91.2C14.25 92.4 13.47 93.1 12.36 93.1C11.06 93.1 10.47 92.39 10.47 91.24V90.75H11.73V91.24ZM17.2668 85.74C18.6368 85.74 19.2168 86.45 19.2168 87.88C19.2168 89.38 18.6368 90.09 17.2668 90.09H16.7768L16.7768 93H15.5168L15.5168 85.74H17.2668ZM16.7768 88.96H17.1668C17.6968 88.96 17.9568 88.76 17.9568 87.89C17.9568 87.07 17.6968 86.87 17.1668 86.87H16.7768V88.96ZM21.438 85.15H20.458L21.078 83.91H22.368L21.438 85.15ZM21.718 85.74V93H20.468V85.74H21.718ZM23.3195 93V85.74H24.4595L26.1595 90.16V85.74H27.3095V93H26.2295L24.4795 88.61V93H23.3195ZM29.8655 91.49L29.6155 93H28.4055L29.7955 85.74H31.3355L32.7255 93H31.4555L31.2055 91.49H29.8655ZM31.0155 90.36L30.5355 87.46L30.0455 90.36H31.0155ZM36.6658 85.74V86.87H35.4458V93H34.1958V86.87H32.9758V85.74H36.6658Z" fill="#0078AE"/>
<path d="M3.295 138.066C4.537 138.066 5.05 138.705 5.05 139.992C5.05 140.865 4.852 141.423 4.357 141.729L5.257 144.6H4.042L3.313 141.981H2.854V144.6H1.72L1.72 138.066H3.295ZM2.854 140.964H3.205C3.682 140.964 3.916 140.784 3.916 140.001C3.916 139.263 3.682 139.083 3.205 139.083H2.854V140.964ZM6.41209 143.682C6.70909 143.682 6.86209 143.52 6.86209 143.106V138.066H7.99609V143.196C7.99609 144.159 7.60009 144.69 6.50209 144.69H6.01609V143.682H6.41209ZM11.2649 137.535H10.3829L10.9409 136.419H12.1019L11.2649 137.535ZM12.6329 143.016C12.6329 144.051 12.1379 144.69 10.9589 144.69C9.78885 144.69 9.30285 144.051 9.30285 143.016V139.65C9.30285 138.615 9.78885 137.985 10.9589 137.985C12.1379 137.985 12.6329 138.615 12.6329 139.65V143.016ZM10.4369 143.025C10.4369 143.502 10.6169 143.682 10.9589 143.682C11.3189 143.682 11.4989 143.502 11.4989 143.025V139.65C11.4989 139.182 11.3189 138.993 10.9589 138.993C10.6169 138.993 10.4369 139.182 10.4369 139.65V143.025ZM16.9687 144.6H15.9877L14.9977 140.523V144.6H13.9807V138.066H15.2677L16.4467 143.025L17.6347 138.066H18.9757V144.6H17.9587V140.532L16.9687 144.6ZM21.2783 143.241L21.0533 144.6H19.9643L21.2153 138.066H22.6013L23.8523 144.6H22.7093L22.4843 143.241H21.2783ZM22.3133 142.224L21.8813 139.614L21.4403 142.224H22.3133ZM28.084 143.016C28.084 144.051 27.589 144.69 26.41 144.69C25.24 144.69 24.754 144.051 24.754 143.016V139.65C24.754 138.615 25.24 137.985 26.41 137.985C27.589 137.985 28.084 138.615 28.084 139.65V143.016ZM25.888 143.025C25.888 143.502 26.068 143.682 26.41 143.682C26.77 143.682 26.95 143.502 26.95 143.025V139.65C26.95 139.182 26.77 138.993 26.41 138.993C26.068 138.993 25.888 139.182 25.888 139.65V143.025ZM30.2689 143.016C30.2689 143.493 30.4669 143.673 30.8269 143.673C31.1959 143.673 31.4029 143.466 31.4029 142.989C31.4029 142.44 30.9619 142.071 30.5209 141.72C29.9089 141.234 29.2069 140.649 29.2069 139.56C29.2069 138.588 29.8729 137.985 30.8269 137.985C31.9429 137.985 32.4469 138.615 32.4469 139.65V139.956H31.3129V139.65C31.3129 139.182 31.1419 138.993 30.8359 138.993C30.5119 138.993 30.3409 139.191 30.3409 139.56C30.3409 140.109 30.8359 140.514 31.2679 140.847C31.8979 141.333 32.5369 141.891 32.5369 142.98C32.5369 144.06 31.8349 144.69 30.8359 144.69C29.6659 144.69 29.1349 144.051 29.1349 143.016V142.575H30.2689V143.016ZM36.548 138.066V139.083H35.45V144.6H34.325V139.083H33.227V138.066H36.548ZM40.8204 143.016C40.8204 144.051 40.3254 144.69 39.1464 144.69C37.9764 144.69 37.4904 144.051 37.4904 143.016V138.066H38.6244V143.025C38.6244 143.502 38.8044 143.682 39.1464 143.682C39.5064 143.682 39.6864 143.502 39.6864 143.025V138.066H40.8204V143.016ZM43.7862 138.066C45.0282 138.066 45.5412 138.705 45.5412 139.992C45.5412 140.865 45.3432 141.423 44.8482 141.729L45.7482 144.6H44.5332L43.8042 141.981H43.3452V144.6H42.2112V138.066H43.7862ZM43.3452 140.964H43.6962C44.1732 140.964 44.4072 140.784 44.4072 140.001C44.4072 139.263 44.1732 139.083 43.6962 139.083H43.3452V140.964Z" fill="#0078AE"/>
<path d="M38.7433 116.062C37.8649 114.352 35.9136 112.668 32.8247 110.958C28.5082 108.568 27.979 105.413 27.961 105.295L27.7918 104L26.4381 104.073C26.0745 104.094 22.8272 104.395 20.4151 108.866C20.0011 109.638 19.7419 110.345 19.5439 111.023C18.525 111.152 16.8078 111.429 15.0689 111.972C11.0332 113.24 9.66153 115.113 9.33391 116.758C6.48261 117.721 2.53686 120.492 3.04448 126.04C3.86171 134.947 19.3963 135.138 24.5012 135.2C24.6813 135.2 24.8649 135.2 25.0449 135.2C29.6098 135.2 34.1352 134.5 37.5409 133.257C42.3579 131.501 45.1048 128.668 45.4828 125.07C46.1992 118.261 40.5758 116.464 38.7433 116.062ZM42.5883 124.79C42.0339 130.054 33.2135 132.405 25.0557 132.405C24.8829 132.405 24.71 132.405 24.5372 132.405C16.3218 132.305 6.42502 131.075 5.9426 125.797C5.60059 122.064 7.99827 120.374 9.62552 119.664C10.0683 120.904 10.8712 122.026 12.052 122.951C14.5145 124.88 18.4134 125.894 23.126 125.894C24.7497 125.894 26.4669 125.773 28.2598 125.531C28.2598 125.531 19.4575 125.815 13.8917 120.783C12.8728 119.861 12.2176 118.913 12.142 117.752C11.9944 115.484 16.2353 114.234 19.1766 113.839C19.263 115.498 19.8463 116.516 19.8895 116.589C19.8895 116.589 20.6239 108.523 25.5561 107.28C26.2293 108.897 27.7918 111.408 31.3703 113.389C35.7985 115.841 36.3385 117.506 36.3781 118.109C36.7525 123.508 33.3036 125.049 33.3036 125.049C37.9981 124.097 39.1141 121.364 39.2726 119.124C40.8242 119.723 42.9591 121.209 42.5811 124.797L42.5883 124.79Z" fill="#231F20"/>
<path fill-rule="evenodd" clip-rule="evenodd" d="M25.6944 158.413C26.8732 158.413 27.9363 159.001 28.6856 159.943C29.1973 159.672 29.7639 159.521 30.3609 159.521C32.6362 159.521 34.4821 161.718 34.4821 164.426C34.4821 169.805 31.8382 179.405 27.7474 179.405C26.6692 179.405 25.7097 178.783 25.1126 177.826C24.5156 178.783 23.5592 179.405 22.4778 179.405C18.3231 179.405 15.7432 170.316 15.7432 164.426C15.7432 161.718 17.589 159.521 19.8644 159.521C20.7873 159.521 21.6372 159.883 22.3255 160.49C23.0718 159.231 24.3024 158.41 25.6944 158.41V158.413Z" fill="#69A53A"/>
<path fill-rule="evenodd" clip-rule="evenodd" d="M24.0131 158.135C23.2851 158.422 22.6058 158.887 22.0789 159.572C21.3722 159.098 20.5772 158.847 19.7518 158.847C17.1322 158.847 15 161.386 15 164.504C15 170.15 17.4612 180.232 22.3652 180.232C23.343 180.232 24.2842 179.788 25 179.016C25.7158 179.788 26.657 180.232 27.6348 180.232C32.4018 180.232 35 169.842 35 164.504C35 161.386 32.8678 158.847 30.2482 158.847C29.7213 158.847 29.2096 158.947 28.7192 159.146C28.3445 158.751 27.9089 158.47 27.4551 158.25C27.4063 156.967 27.9729 155.998 28.9354 155.998V153C26.5535 153 24.2903 155.349 24.0162 158.135H24.0131ZM30.2482 160.348C32.1733 160.348 33.739 162.213 33.739 164.504C33.739 169.504 31.2199 178.732 27.6348 178.732C26.788 178.732 26.0113 178.267 25.5056 177.455L25.466 177.392C24.8538 176.398 23.8303 174.376 23.3399 173.051C23.2425 174.4 23.5897 176.429 24.2141 177.808C23.7207 178.391 23.0719 178.732 22.3622 178.732C18.8197 178.732 16.2549 170.234 16.2549 164.504C16.2549 162.213 17.8206 160.348 19.7487 160.348C20.3031 160.348 20.8361 160.502 21.3174 160.794C20.5072 162.512 20.1264 165.7 21.8535 168.003C21.4301 166.289 21.1499 163.849 22.6363 161.145L22.7216 161.003C23.3765 159.898 24.4456 159.24 25.5787 159.24C26.5474 159.24 27.4459 159.702 28.113 160.538L28.1739 160.613C29.4898 162.364 29.24 163.342 29.3801 164.399C30.0076 162.563 29.8858 161.299 29.5507 160.435C29.7792 160.381 30.0106 160.351 30.2452 160.351L30.2482 160.348Z" fill="#231F20"/>
<path fill-rule="evenodd" clip-rule="evenodd" d="M25.8741 161.993L25.5329 161.232L25.1918 160.471C23.9916 161.235 22.1945 163.134 22.9377 165.905C23.3398 164.19 24.4546 162.349 25.8741 161.993Z" fill="white"/>
<path fill-rule="evenodd" clip-rule="evenodd" d="M19.3191 162.593L19.0724 162.044L18.8257 161.495C17.9606 162.047 16.66 163.418 17.1991 165.419C17.4885 164.181 18.2957 162.85 19.3191 162.593Z" fill="white"/>
<path d="M18.1636 183.598V185.272C18.1636 186.415 17.6686 187.09 16.4896 187.09C15.3196 187.09 14.8336 186.451 14.8336 185.416V182.05C14.8336 181.015 15.3196 180.385 16.4896 180.385C17.6686 180.385 18.1636 181.015 18.1636 182.05V182.473H17.0296V182.05C17.0296 181.582 16.8496 181.393 16.4896 181.393C16.1476 181.393 15.9676 181.582 15.9676 182.05V185.425C15.9676 185.902 16.1476 186.082 16.4896 186.082C16.8496 186.082 17.0746 185.875 17.0746 185.335V184.606H16.5346V183.598H18.1636ZM20.9986 180.466C22.2406 180.466 22.7536 181.105 22.7536 182.392C22.7536 183.265 22.5556 183.823 22.0606 184.129L22.9606 187H21.7456L21.0166 184.381H20.5576V187H19.4236V180.466H20.9986ZM20.5576 183.364H20.9086C21.3856 183.364 21.6196 183.184 21.6196 182.401C21.6196 181.663 21.3856 181.483 20.9086 181.483H20.5576V183.364ZM24.7208 187H23.6318L25.7468 180.466H29.2298V181.483H27.5198V183.049H28.9328V184.066H27.5198V185.983H29.3198V187H26.4938V185.461H25.1888L24.7208 187ZM26.4758 181.276L25.5038 184.48H26.4938V181.276H26.4758ZM30.489 187V180.466H31.515L33.045 184.444V180.466H34.08V187H33.108L31.533 183.049V187H30.489ZM12.1788 191.466C13.4118 191.466 13.9338 192.105 13.9338 193.392C13.9338 194.742 13.4118 195.381 12.1788 195.381H11.7378V198H10.6038V191.466H12.1788ZM11.7378 194.364H12.0888C12.5658 194.364 12.7998 194.184 12.7998 193.401C12.7998 192.663 12.5658 192.483 12.0888 192.483H11.7378V194.364ZM15.6074 196.641L15.3824 198H14.2934L15.5444 191.466H16.9304L18.1814 198H17.0384L16.8134 196.641H15.6074ZM16.6424 195.624L16.2104 193.014L15.7694 195.624H16.6424ZM20.7481 191.466C21.9811 191.466 22.5031 192.105 22.5031 193.392C22.5031 194.742 21.9811 195.381 20.7481 195.381H20.3071V198H19.1731V191.466H20.7481ZM20.3071 194.364H20.6581C21.1351 194.364 21.3691 194.184 21.3691 193.401C21.3691 192.663 21.1351 192.483 20.6581 192.483H20.3071L20.3071 194.364ZM25.2042 191.466C26.4462 191.466 26.9592 192.105 26.9592 193.392C26.9592 194.265 26.7612 194.823 26.2662 195.129L27.1662 198H25.9512L25.2222 195.381H24.7632V198H23.6292V191.466H25.2042ZM24.7632 194.364H25.1142C25.5912 194.364 25.8252 194.184 25.8252 193.401C25.8252 192.663 25.5912 192.483 25.1142 192.483H24.7632V194.364ZM29.4124 191.466V198H28.2874V191.466H29.4124ZM31.9878 191.466V193.851L33.2208 191.466H34.4808L32.9508 194.058L34.5528 198H33.2748L32.2668 195.03L31.9878 195.444V198H30.8538V191.466H31.9878ZM36.2705 196.641L36.0455 198H34.9565L36.2075 191.466H37.5935L38.8445 198H37.7015L37.4765 196.641H36.2705ZM37.3055 195.624L36.8735 193.014L36.4325 195.624H37.3055Z" fill="#0078AE"/>
<path d="M26.405 209.636C26.405 209.636 34.7961 212.109 35.7823 213.809C36.7685 215.509 37.4283 218.138 36.2765 219.529C35.1248 220.92 31.5063 223.084 29.8603 223.857C28.2142 224.631 25.4116 225.097 25.4116 225.097C25.4116 225.097 28.543 223.393 28.543 219.373C28.543 215.354 28.2142 212.418 27.3912 211.645C26.5682 210.872 26.405 209.636 26.405 209.636Z" fill="#C55450"/>
<path d="M22.1264 208.089C22.1264 208.089 28.0484 210.562 28.7082 213.035C29.3657 215.509 29.2025 221.228 27.722 222.928C26.2416 224.628 24.5955 226.639 22.9518 226.792C21.3058 226.948 16.5356 226.019 15.7126 224.937C14.8896 223.855 13.2459 220.764 13.0803 218.599C12.9147 216.435 12.9147 214.118 13.7378 212.571C14.5608 211.024 15.0551 209.942 16.0413 209.325C17.0275 208.707 19.331 207.934 19.331 207.934L22.1288 208.089H22.1264Z" fill="white"/>
<path d="M34.474 212.134C31.9089 210.799 28.6 209.313 26.0349 208.181C24.4513 207.399 22.6613 206.991 20.8592 207C20.8592 207 20.8592 207 20.8568 207C19.7171 207.007 18.6061 207.257 17.5599 207.746C14.1526 209.338 11.9715 213.121 12.0003 217.389C12.0411 223.088 16.077 227.701 20.9984 227.671C21.2839 227.671 21.5671 227.653 21.8502 227.619C23.2347 227.509 24.5905 227.169 25.8118 226.598C25.9246 226.544 26.0398 226.49 26.1525 226.431L34.5268 222.518C36.6767 221.596 38.018 219.6 38.0036 217.326C37.9892 215.019 36.6119 213.015 34.474 212.129V212.134ZM13.6056 217.382C13.5816 213.745 15.458 210.418 18.275 209.101C19.1004 208.716 19.9714 208.517 20.8688 208.511C24.9048 208.486 28.2161 212.427 28.2497 217.294C28.2737 220.93 26.3973 224.258 23.5803 225.575C22.9708 225.859 22.3349 226.041 21.6847 226.12C21.4519 226.138 21.2216 226.165 20.9864 226.165C16.9505 226.19 13.6392 222.249 13.6056 217.382ZM33.8357 221.163L27.789 223.987C29.1135 222.157 29.8717 219.808 29.8549 217.285C29.8381 214.715 29.0007 212.37 27.6426 210.567C29.6942 211.491 31.9041 212.519 33.7589 213.484C35.3762 214.158 36.3864 215.635 36.396 217.339C36.408 219.014 35.4146 220.419 33.8333 221.16L33.8357 221.163Z" fill="#231F20"/>
<path fill-rule="evenodd" clip-rule="evenodd" d="M20.8756 209.832C23.4455 209.816 25.6698 211.599 26.6944 214.176C26.7496 214.316 26.7376 214.458 26.6585 214.586C26.5793 214.715 26.4545 214.796 26.2985 214.821C25.0436 215.019 24.2446 216.02 22.9368 216.53C22.5697 216.005 21.7947 215.671 21.3915 215.673C20.9884 215.675 21.0292 215.705 20.8589 215.761C19.9734 214.586 18.8337 212.521 18.2266 210.997C18.1354 210.767 18.2386 210.513 18.469 210.4C19.2104 210.037 20.0238 209.834 20.8756 209.83V209.832ZM27.2655 216.681C27.2823 216.886 27.2895 217.093 27.2919 217.301C27.3207 221.447 24.4941 224.824 20.9788 224.844C20.3454 224.849 19.7335 224.743 19.1576 224.544C18.9105 224.459 18.7737 224.215 18.8361 223.976C19.328 222.087 20.4462 221.316 21.01 220.29C21.1444 220.324 20.8085 220.342 21.4251 220.34C22.0418 220.335 23.4143 219.285 23.3855 217.997V217.923C24.6621 217.418 25.4371 216.426 26.6752 216.241C26.8216 216.219 26.9584 216.253 27.076 216.34C27.1935 216.428 27.2583 216.543 27.2703 216.683L27.2655 216.681ZM16.7221 222.96C16.8493 223.093 17.0317 223.147 17.2188 223.106C17.406 223.066 17.5452 222.942 17.598 222.768C18.1258 221.027 19.2416 220.342 19.8007 219.361C19.5703 218.983 19.4312 218.498 19.4288 218.018C19.4264 217.538 19.5367 217.127 19.7287 216.767C18.8577 215.657 17.7179 213.719 17.1324 212.348C17.0605 212.181 16.9093 212.071 16.7197 212.048C16.5302 212.025 16.355 212.095 16.2398 212.242C15.1841 213.59 14.5458 215.396 14.5578 217.378C14.5722 219.6 15.4072 221.593 16.7173 222.96H16.7221Z" fill="#961600"/>
<path d="M3.295 234.908C4.528 234.908 5.05 235.547 5.05 236.834C5.05 238.184 4.528 238.823 3.295 238.823H2.854V241.442H1.72L1.72 234.908H3.295ZM2.854 237.806H3.205C3.682 237.806 3.916 237.626 3.916 236.843C3.916 236.105 3.682 235.925 3.205 235.925H2.854V237.806ZM9.46105 239.858C9.46105 240.893 8.96605 241.532 7.78705 241.532C6.61705 241.532 6.13105 240.893 6.13105 239.858V234.908H7.26505V239.867C7.26505 240.344 7.44505 240.524 7.78705 240.524C8.14705 240.524 8.32705 240.344 8.32705 239.867V234.908H9.46105V239.858ZM11.9858 234.908V240.425H13.7858V241.442H10.8518V234.908H11.9858ZM16.0024 234.908V240.425H17.8024V241.442H14.8684V234.908H16.0024ZM21.729 234.908V235.925H20.019V237.491H21.432V238.508H20.019V240.425H21.819V241.442H18.885V234.908H21.729ZM24.6455 234.908C25.8245 234.908 26.3195 235.547 26.3195 236.582V239.777C26.3195 240.803 25.8245 241.442 24.6455 241.442H22.9895V234.908H24.6455ZM24.1235 240.425H24.5645C24.9785 240.425 25.1855 240.218 25.1855 239.687V236.663C25.1855 236.132 24.9785 235.925 24.5645 235.925H24.1235V240.425ZM31.4464 234.908C32.6794 234.908 33.2014 235.547 33.2014 236.834C33.2014 238.184 32.6794 238.823 31.4464 238.823H31.0054V241.442H29.8714V234.908H31.4464ZM31.0054 237.806H31.3564C31.8334 237.806 32.0674 237.626 32.0674 236.843C32.0674 236.105 31.8334 235.925 31.3564 235.925H31.0054V237.806ZM37.5674 239.858C37.5674 240.893 37.0724 241.532 35.8934 241.532C34.7234 241.532 34.2374 240.893 34.2374 239.858V236.492C34.2374 235.457 34.7234 234.827 35.8934 234.827C37.0724 234.827 37.5674 235.457 37.5674 236.492V239.858ZM35.3714 239.867C35.3714 240.344 35.5514 240.524 35.8934 240.524C36.2534 240.524 36.4334 240.344 36.4334 239.867V236.492C36.4334 236.024 36.2534 235.835 35.8934 235.835C35.5514 235.835 35.3714 236.024 35.3714 236.492V239.867ZM40.4903 234.908C41.7323 234.908 42.2453 235.547 42.2453 236.834C42.2453 237.707 42.0473 238.265 41.5523 238.571L42.4523 241.442H41.2373L40.5083 238.823H40.0493V241.442H38.9153V234.908H40.4903ZM40.0493 237.806H40.4003C40.8773 237.806 41.1113 237.626 41.1113 236.843C41.1113 236.105 40.8773 235.925 40.4003 235.925H40.0493V237.806ZM44.7075 234.908V237.293L45.9405 234.908H47.2005L45.6705 237.5L47.2725 241.442H45.9945L44.9865 238.472L44.7075 238.886V241.442H43.5735V234.908H44.7075Z" fill="#0078AE"/>
<path fill-rule="evenodd" clip-rule="evenodd" d="M25.2081 258.926C29.1024 258.926 39.3397 260.956 37.8851 269.785C36.3694 278.986 23.5736 277.245 19.6762 277.245C15.7789 277.245 13.8607 273.144 15.3885 268.084C16.9164 263.025 21.3108 258.923 25.2081 258.923V258.926Z" fill="#9B0D0D"/>
<path fill-rule="evenodd" clip-rule="evenodd" d="M19.2252 258.926C23.1195 258.926 25.0407 263.027 23.5128 268.087C21.985 273.147 17.5906 277.248 13.6933 277.248C9.79599 277.248 7.87781 273.147 9.40563 268.087C10.9335 263.027 15.3279 258.926 19.2252 258.926Z" fill="#E31937"/>
<path d="M13.6936 278.171C11.9706 278.171 10.5007 277.524 9.44253 276.298C7.77443 274.368 7.38411 271.211 8.39961 267.846C10.0647 262.323 14.822 258 19.2255 258C20.9485 258 22.4184 258.647 23.4766 259.873C25.1447 261.804 25.535 264.963 24.5195 268.328C22.8545 273.848 18.0972 278.171 13.6936 278.171ZM19.2255 259.849C15.8344 259.849 11.7999 263.731 10.4123 268.328C9.57673 271.095 9.83899 273.721 11.0985 275.174C11.7572 275.938 12.6293 276.325 13.6967 276.325C17.0878 276.325 21.1223 272.443 22.5068 267.849C23.3424 265.079 23.0801 262.456 21.8237 261.002C21.165 260.239 20.2928 259.852 19.2255 259.852V259.849Z" fill="#231F20"/>
<path d="M27.8006 278.171H13.6934V276.322H27.8006C32.9147 276.322 37.0773 272.627 37.0773 268.087C37.0773 263.547 32.9147 259.849 27.8006 259.849H19.2252V258H27.8006C34.0674 258 39.1632 262.524 39.1632 268.087C39.1632 273.65 34.0674 278.171 27.8006 278.171Z" fill="#231F20"/>
<path fill-rule="evenodd" clip-rule="evenodd" d="M37.9709 267.93C39.1907 267.21 40.4136 266.49 41.6365 265.77C41.9719 265.572 42.3866 265.578 42.716 265.778C43.0484 265.981 43.1978 266.322 43.1124 266.671C42.7922 267.946 42.7709 269.259 43.1124 270.613C43.2009 270.959 43.0484 271.303 42.719 271.506C42.3866 271.709 41.9719 271.712 41.6365 271.514C40.4136 270.794 39.1938 270.077 37.9739 269.357C37.6964 269.194 37.5439 268.94 37.5439 268.642C37.5439 268.344 37.6964 268.092 37.9739 267.927L37.9709 267.93Z" fill="#231F20"/>
<path fill-rule="evenodd" clip-rule="evenodd" d="M15.8072 267.852C16.0054 267.191 16.4995 266.658 16.9081 266.658C17.3167 266.658 17.4875 267.194 17.2893 267.852C17.0911 268.512 16.597 269.048 16.1884 269.048C15.7798 269.048 15.609 268.512 15.8072 267.852Z" fill="white"/>
<path fill-rule="evenodd" clip-rule="evenodd" d="M14.6969 263.266C14.8951 262.605 15.3891 262.072 15.7977 262.072C16.2064 262.072 16.3772 262.608 16.1789 263.266C15.9807 263.926 15.4867 264.462 15.0781 264.462C14.6694 264.462 14.4986 263.926 14.6969 263.266Z" fill="white"/>
<path fill-rule="evenodd" clip-rule="evenodd" d="M18.7315 263.143C18.9298 262.483 19.4238 261.947 19.8324 261.947C20.2411 261.947 20.4118 262.483 20.2136 263.143C20.0154 263.804 19.5214 264.34 19.1127 264.34C18.7041 264.34 18.5333 263.804 18.7315 263.143Z" fill="white"/>
<path fill-rule="evenodd" clip-rule="evenodd" d="M16.2004 272.811C16.3986 272.15 16.8926 271.614 17.3013 271.614C17.7099 271.614 17.8807 272.15 17.6794 272.811C17.4812 273.471 16.9872 274.005 16.5785 274.005C16.1699 274.005 15.9991 273.469 16.1974 272.811H16.2004Z" fill="white"/>
<path fill-rule="evenodd" clip-rule="evenodd" d="M12.2515 272.914C12.4498 272.253 12.9438 271.717 13.3524 271.717C13.7611 271.717 13.9318 272.253 13.7336 272.914C13.5354 273.574 13.0414 274.11 12.6327 274.11C12.2241 274.11 12.0533 273.574 12.2515 272.914Z" fill="white"/>
<path fill-rule="evenodd" clip-rule="evenodd" d="M12.0074 268.839C12.2056 268.179 12.6997 267.646 13.1083 267.646C13.5169 267.646 13.6877 268.182 13.4895 268.839C13.2913 269.5 12.7972 270.036 12.3886 270.036C11.98 270.036 11.8092 269.5 12.0074 268.839Z" fill="white"/>
<path fill-rule="evenodd" clip-rule="evenodd" d="M19.8228 268.112C20.0211 267.451 20.5151 266.918 20.9237 266.918C21.3324 266.918 21.5031 267.454 21.3049 268.112C21.1067 268.772 20.6127 269.308 20.204 269.308C19.7954 269.308 19.6246 268.772 19.8228 268.112Z" fill="white"/>
<path fill-rule="evenodd" clip-rule="evenodd" d="M35.5527 267.868C35.5649 267.714 35.6046 267.565 35.6046 267.408C35.6046 264.067 32.5551 261.36 28.7919 261.36C28.4656 261.36 28.1515 261.406 27.8374 261.446C31.5975 262.088 34.5921 264.611 35.5527 267.871V267.868Z" fill="white"/>
<path d="M5.55 284.74C6.92 284.74 7.5 285.45 7.5 286.88C7.5 288.38 6.92 289.09 5.55 289.09H5.06L5.06 292H3.8L3.8 284.74H5.55ZM5.06 287.96H5.45C5.98 287.96 6.24 287.76 6.24 286.89C6.24 286.07 5.98 285.87 5.45 285.87H5.06L5.06 287.96ZM11.9112 284.74V285.87H10.0112V287.61H11.5812L11.5812 288.74H10.0112V290.87H12.0112V292H8.75117L8.75117 284.74H11.9112ZM15.0617 284.74C16.4317 284.74 17.0117 285.45 17.0117 286.88C17.0117 288.38 16.4317 289.09 15.0617 289.09H14.5717V292H13.3117L13.3117 284.74H15.0617ZM14.5717 287.96H14.9617C15.4917 287.96 15.7517 287.76 15.7517 286.89C15.7517 286.07 15.4917 285.87 14.9617 285.87H14.5717V287.96ZM20.0129 284.74C21.3829 284.74 21.9629 285.45 21.9629 286.88C21.9629 288.38 21.3829 289.09 20.0129 289.09H19.5229V292H18.2629V284.74H20.0129ZM19.5229 287.96H19.9129C20.4429 287.96 20.7029 287.76 20.7029 286.89C20.7029 286.07 20.4429 285.87 19.9129 285.87H19.5229V287.96ZM26.3741 284.74V285.87H24.4741V287.61H26.0441V288.74H24.4741V290.87H26.4741V292H23.2141V284.74H26.3741ZM29.5246 284.74C30.9046 284.74 31.4746 285.45 31.4746 286.88C31.4746 287.85 31.2546 288.47 30.7046 288.81L31.7046 292H30.3546L29.5446 289.09H29.0346V292H27.7746V284.74H29.5246ZM29.0346 287.96H29.4246C29.9546 287.96 30.2146 287.76 30.2146 286.89C30.2146 286.07 29.9546 285.87 29.4246 285.87H29.0346V287.96ZM36.5504 290.24C36.5504 291.39 36.0004 292.1 34.6904 292.1C33.3904 292.1 32.8504 291.39 32.8504 290.24V286.5C32.8504 285.35 33.3904 284.65 34.6904 284.65C36.0004 284.65 36.5504 285.35 36.5504 286.5V290.24ZM34.1104 290.25C34.1104 290.78 34.3104 290.98 34.6904 290.98C35.0904 290.98 35.2904 290.78 35.2904 290.25V286.5C35.2904 285.98 35.0904 285.77 34.6904 285.77C34.3104 285.77 34.1104 285.98 34.1104 286.5V290.25ZM38.048 292V284.74H39.188L40.888 289.16V284.74H42.038V292H40.958L39.208 287.61V292H38.048ZM44.884 284.74V292H43.634V284.74H44.884Z" fill="#0078AE"/>
</svg>
