<svg width="170" height="1013" viewBox="0 0 170 1013" fill="none" xmlns="http://www.w3.org/2000/svg">
<path d="M47.3976 989.483C48.212 989.483 48.6316 989.038 48.6316 987.903V974.082H51.7413V988.15C51.7413 990.791 50.6554 992.247 47.6444 992.247H46.3117V989.483H47.3976ZM57.9408 988.273L57.3238 992H54.3375L57.768 974.082H61.5688L64.9993 992H61.8649L61.2479 988.273H57.9408ZM60.779 985.484L59.5944 978.327L58.385 985.484H60.779ZM70.8284 974.082V989.211H75.7644V992H67.7187V974.082H70.8284ZM81.1024 988.273L80.4854 992H77.4991L80.9296 974.082H84.7304L88.1609 992H85.0265L84.4095 988.273H81.1024ZM83.9406 985.484L82.756 978.327L81.5466 985.484H83.9406ZM95.1993 974.082C98.5805 974.082 100.012 975.835 100.012 979.364C100.012 983.066 98.5805 984.818 95.1993 984.818H93.99V992H90.8803V974.082H95.1993ZM93.99 982.029H94.9525C96.2605 982.029 96.9022 981.536 96.9022 979.389C96.9022 977.365 96.2605 976.871 94.9525 976.871H93.99V982.029ZM110.899 974.082V976.871H106.209V981.165H110.084V983.954H106.209V989.211H111.145V992H103.1V974.082H110.899ZM114.355 992V974.082H117.169L121.364 984.991V974.082H124.203V992H121.537L117.218 981.165V992H114.355ZM137.026 987.656C137.026 990.495 135.669 992.247 132.436 992.247C129.227 992.247 127.895 990.495 127.895 987.656V978.426C127.895 975.588 129.227 973.86 132.436 973.86C135.669 973.86 137.026 975.588 137.026 978.426V987.656ZM131.004 987.681C131.004 988.989 131.498 989.483 132.436 989.483C133.423 989.483 133.916 988.989 133.916 987.681V978.426C133.916 977.143 133.423 976.624 132.436 976.624C131.498 976.624 131.004 977.143 131.004 978.426V987.681Z" fill="#0078AE"/>
<path d="M109.23 947.677C90.5529 956.055 71.4901 949.561 63.6301 931.936C55.7701 914.312 64.0758 894.619 81.313 886.573C98.5501 878.528 117.999 882.594 127.23 903.023C135.176 920.613 126.579 939.894 109.23 947.677Z" fill="#465C00"/>
<path d="M108.373 945.801C90.8361 953.671 72.9475 947.571 65.5675 931.024C58.1875 914.478 65.9875 895.994 82.1704 888.44C98.3533 880.885 116.61 884.706 125.267 903.882C132.725 920.394 124.659 938.492 108.373 945.801ZM116.507 907.756C110.379 894.18 97.4532 891.481 86.0018 896.827C74.5504 902.173 69.0303 915.258 74.2589 926.967C79.4875 938.676 92.1475 942.996 104.559 937.422C116.088 932.251 121.796 919.438 116.516 907.756H116.507Z" fill="#728B00"/>
<path d="M105.904 940.394C91.6758 946.783 77.1557 941.831 71.1643 928.404C65.1729 914.978 71.4987 899.965 84.6387 893.839C97.7701 887.712 112.59 890.806 119.619 906.371C125.67 919.772 119.121 934.46 105.904 940.394ZM115.213 908.317C109.453 895.565 97.3158 893.032 86.5587 898.054C75.8015 903.067 70.6158 915.363 75.5272 926.362C80.4387 937.361 92.3272 941.41 103.976 936.178C114.801 931.323 120.167 919.29 115.204 908.317H115.213Z" fill="#A0B800"/>
<path d="M119.293 905.206C116.481 899.816 113.138 901.06 113.498 902.743C113.858 904.426 111.818 905.311 110.096 906.433C109.161 907.046 107.73 906.897 106.298 906.45C102.604 904.022 96.5614 903.514 92.2242 904.347C92.1728 904.347 92.1213 904.347 92.0699 904.347L92.1899 904.18C92.1128 904.224 91.9671 904.285 91.7699 904.355C89.9099 904.408 88.11 904.671 86.5671 905.267C84.8614 905.381 83.1471 905.302 82.0499 904.811C80.5071 904.11 79.1699 901.954 79.4442 899.833C79.7099 897.712 76.4614 897.186 73.6071 902.541C70.7528 907.905 73.6071 910.078 74.79 908.843C75.9728 907.607 77.8157 908.869 79.6842 909.719C80.6871 910.175 81.4842 911.489 82.0156 912.962C82.0328 913.26 82.0499 913.549 82.0842 913.865C82.1956 914.776 82.4699 915.696 82.7785 916.608C82.7785 916.625 82.7785 916.651 82.7785 916.678V916.66C83.3014 918.168 83.9442 919.658 84.4071 921.104C85.3071 923.926 86.1642 926.529 87.9299 928.921C88.5642 929.771 89.3185 930.455 90.1671 930.972C90.9471 932.418 91.5643 933.908 91.6071 935.074C91.6671 936.8 90.3557 938.974 88.3671 939.649C86.3871 940.323 87.3385 943.549 93.3042 943.838C99.2699 944.127 99.9385 940.551 98.3357 939.999C96.7328 939.447 97.0413 937.203 96.9727 935.118C96.9384 933.987 97.6756 932.506 98.687 931.2C102.193 929.412 105.699 924.951 107.764 920.254C108.321 918.965 108.776 917.677 109.101 916.415C110.061 914.355 111.424 912.068 112.804 911.156C114.219 910.227 116.721 910.262 118.307 911.665C119.893 913.058 122.113 910.578 119.301 905.188L119.293 905.206Z" fill="#E1EF93"/>
<path d="M92.2587 904.11L92.1987 904.19C92.2416 904.154 92.2673 904.128 92.2587 904.11Z" fill="#E1EF93"/>
<path d="M106.239 912.892C105.664 907.844 97.8388 906.547 92.8931 907.493C88.4874 907.546 84.3387 908.974 85.0845 914.82C85.3245 916.704 86.3017 918.597 86.876 920.394C87.5702 922.567 88.2302 924.566 89.5845 926.406C91.5216 929.018 95.0445 929.561 97.7959 928.194C102.296 925.95 106.822 917.958 106.239 912.883V912.892Z" fill="#EFF2BE"/>
<path d="M96.8958 925.67C96.7929 926.467 95.7044 926.993 94.4529 926.827C93.2015 926.66 92.2672 925.88 92.37 925.074C92.4729 924.276 93.5701 923.759 94.813 923.917C96.0644 924.084 96.9901 924.864 96.8872 925.67H96.8958Z" fill="#CDD862"/>
<path d="M88.145 914.583C87.4078 914.294 87.1764 913.076 87.6307 911.884C88.085 910.683 89.045 909.947 89.7907 910.236C90.5278 910.525 90.7593 911.735 90.305 912.944C89.8507 914.145 88.8821 914.881 88.145 914.592V914.583Z" fill="#CDD862"/>
<path d="M102.056 910.736C102.742 910.324 103.813 910.893 104.448 912.006C105.091 913.119 105.048 914.346 104.37 914.758C103.685 915.17 102.613 914.601 101.979 913.487C101.336 912.374 101.37 911.147 102.056 910.736Z" fill="#CDD862"/>
<path d="M79.4017 920.736C80.6017 920.49 82.6503 920.832 82.8303 921.735C83.0103 922.638 81.3046 923.759 80.0446 924.014C76.5646 924.724 76.5475 923.97 76.3675 923.058C76.1875 922.156 75.9131 921.446 79.4017 920.736Z" fill="#FFEB92"/>
<path d="M79.136 921.402C80.576 921.104 81.8275 921.341 81.9475 921.919C82.0589 922.506 80.9874 923.207 79.5474 923.505C78.1074 923.803 76.8474 923.567 76.736 922.988C76.6246 922.41 77.696 921.7 79.136 921.402Z" fill="#FFFAE6"/>
<path d="M78.2956 914.802C79.5213 914.872 81.4242 915.687 81.3727 916.572C81.3299 917.449 79.4013 918.054 78.1241 917.983C74.5756 917.791 74.7471 917.081 74.7899 916.204C74.8328 915.328 74.747 914.609 78.287 914.802H78.2956Z" fill="#FFEB92"/>
<path d="M77.8672 915.346C79.3329 915.425 80.4987 915.95 80.4644 916.511C80.4301 917.072 79.2215 917.467 77.7558 917.388C76.2901 917.3 75.1329 916.783 75.1586 916.222C75.1929 915.652 76.4015 915.267 77.8672 915.346Z" fill="#FFFAE6"/>
<path d="M87.9131 901.078C88.9759 901.349 90.5017 902.392 90.3131 903.155C90.1245 903.917 88.3416 904.11 87.2359 903.83C84.1673 903.041 84.4245 902.454 84.6131 901.691C84.8017 900.937 84.8359 900.289 87.9131 901.078Z" fill="#FFEB92"/>
<path d="M87.4498 901.481C88.7183 901.806 89.6527 902.472 89.5327 902.963C89.4127 903.453 88.2812 903.576 87.0126 903.252C85.744 902.927 84.8098 902.261 84.9298 901.779C85.0498 901.289 86.1726 901.157 87.4412 901.481H87.4498Z" fill="#FFFAE6"/>
<path d="M84.2444 931.752C84.493 930.666 85.4959 929.088 86.2416 929.263C86.9873 929.439 87.2102 931.27 86.953 932.401C86.2245 935.556 85.6416 935.293 84.8959 935.109C84.1501 934.934 83.5244 934.899 84.2444 931.752Z" fill="#FFEB92"/>
<path d="M84.6475 932.217C84.9475 930.911 85.5817 929.947 86.0617 930.061C86.5417 930.175 86.6874 931.332 86.3874 932.629C86.096 933.935 85.4531 934.89 84.9817 934.776C84.5017 934.662 84.356 933.514 84.656 932.208L84.6475 932.217Z" fill="#FFFAE6"/>
<path d="M96.8532 899.798C96.7075 900.937 95.876 902.664 95.1389 902.568C94.3932 902.471 94.016 900.631 94.1617 899.439C94.5732 896.135 95.1645 896.327 95.9102 896.433C96.656 896.529 97.2732 896.485 96.8532 899.798Z" fill="#FFEB92"/>
<path d="M96.4165 899.369C96.2451 900.736 95.7137 901.796 95.2422 901.735C94.7622 901.673 94.5136 900.508 94.6851 899.141C94.8565 897.773 95.3793 896.713 95.8593 896.783C96.3393 896.844 96.5879 898.001 96.4165 899.369Z" fill="#FFFAE6"/>
<path d="M102.056 900.482C101.91 901.621 100.959 903.339 100.068 903.216C99.1676 903.094 98.6618 901.244 98.8161 900.052C99.2275 896.748 99.9475 896.959 100.839 897.081C101.73 897.195 102.476 897.169 102.056 900.482Z" fill="#FFEB92"/>
<path d="M101.533 900.035C101.361 901.402 100.753 902.454 100.179 902.375C99.6044 902.296 99.2786 901.13 99.45 899.763C99.6214 898.396 100.221 897.353 100.804 897.423C101.379 897.502 101.704 898.668 101.533 900.035Z" fill="#FFFAE6"/>
<path d="M106.521 904.776C105.527 905.101 103.736 904.943 103.47 904.11C103.204 903.278 104.533 902.095 105.57 901.753C108.45 900.806 108.57 901.516 108.827 902.357C109.093 903.199 109.41 903.839 106.521 904.785V904.776Z" fill="#FFEB92"/>
<path d="M106.667 904.128C105.476 904.522 104.37 904.408 104.199 903.865C104.027 903.321 104.859 902.576 106.059 902.182C107.25 901.796 108.356 901.91 108.519 902.454C108.69 902.997 107.859 903.751 106.667 904.136V904.128Z" fill="#FFFAE6"/>
<path d="M102.87 932.672C102.219 931.84 101.722 930.069 102.39 929.517C103.059 928.974 104.61 929.806 105.296 930.683C107.199 933.102 106.582 933.461 105.913 934.004C105.245 934.557 104.764 935.091 102.87 932.672Z" fill="#FFEB92"/>
<path d="M103.522 932.585C102.733 931.586 102.45 930.49 102.879 930.131C103.307 929.78 104.293 930.306 105.082 931.296C105.862 932.295 106.145 933.391 105.716 933.75C105.279 934.11 104.302 933.584 103.522 932.585Z" fill="#FFFAE6"/>
<path d="M112.487 917.642C111.442 917.581 109.83 916.766 109.882 915.889C109.933 915.013 111.587 914.399 112.676 914.469C115.702 914.653 115.547 915.363 115.496 916.231C115.444 917.116 115.513 917.826 112.487 917.642Z" fill="#FFEB92"/>
<path d="M112.856 917.098C111.596 917.02 110.61 916.503 110.644 915.942C110.679 915.381 111.716 914.986 112.976 915.056C114.219 915.135 115.213 915.652 115.179 916.222C115.144 916.792 114.107 917.186 112.856 917.107V917.098Z" fill="#FFFAE6"/>
<path d="M24.1757 922.873C20.8842 912.602 24.6043 899.841 34.0757 892.199C48.1757 880.814 69.3128 875.556 81.6899 888.869C94.6671 902.83 100.179 921.585 87.8443 934.942C81.15 942.19 68.9785 950.656 57.8785 949.963C51.2185 949.552 44.9871 944.985 39.7328 940.665C33.8357 935.801 26.5757 930.376 24.1842 922.873H24.1757Z" fill="#465C00"/>
<path d="M26.5329 922.295C23.4643 912.689 26.9358 900.779 35.7815 893.636C48.9472 883.005 68.7042 878.088 80.2585 890.525C92.3785 903.566 97.53 921.094 86.0014 933.565C79.7443 940.34 68.3786 948.245 58.0071 947.605C51.7843 947.22 45.9557 942.952 41.0614 938.92C35.55 934.38 28.77 929.306 26.5329 922.303V922.295ZM45.8615 932.662C49.5215 935.677 53.8843 938.868 58.53 939.157C66.2871 939.639 74.79 933.723 79.4614 928.657C88.0757 919.332 84.2271 906.23 75.1671 896.475C66.5271 887.177 51.7585 890.858 41.91 898.807C35.2928 904.144 32.7043 913.057 34.9929 920.235C36.6643 925.476 41.7386 929.262 45.8615 932.662Z" fill="#728B00"/>
<path d="M31.8212 921.016C29.2327 912.927 32.1641 902.892 39.6126 896.871C50.7041 887.914 67.3498 883.768 77.0783 894.25C87.2955 905.232 91.6241 919.999 81.9212 930.507C76.6498 936.213 67.0755 942.882 58.3412 942.33C53.1041 942.006 48.1926 938.413 44.0612 935.012C39.4155 931.182 33.707 926.914 31.8212 921.007V921.016ZM46.4011 931.971C49.924 934.881 54.1241 937.948 58.5984 938.22C66.0641 938.693 74.2412 932.988 78.7412 928.124C87.0298 919.149 83.3269 906.537 74.6097 897.151C66.2869 888.203 52.0755 891.735 42.5955 899.386C36.2355 904.522 33.7326 913.102 35.944 920.017C37.5555 925.056 42.4326 928.702 46.4011 931.98V931.971Z" fill="#A0B800"/>
<path d="M36.5183 919.219C36.7926 917.519 39.004 917.466 41.0097 917.063C43.0154 916.66 46.5211 919.237 47.9182 921.121L47.9354 921.007C49.9154 923.996 52.8982 926.511 55.7268 927.703C56.7382 928.132 57.6982 928.448 58.6325 928.693C58.6754 928.711 58.7011 928.72 58.7525 928.737C61.7782 929.762 64.1354 931.428 64.9582 932.926C65.7896 934.425 65.6097 936.975 64.1526 938.518C62.6954 940.052 64.9925 942.462 70.4182 939.903C75.8354 937.343 74.824 933.855 73.1526 934.127C71.4897 934.399 70.744 932.26 69.7411 930.437C68.9526 929 69.904 926.791 70.984 924.968C71.2925 924.548 71.5668 924.101 71.8239 923.636L71.8325 923.619C73.7097 920.201 74.1726 915.766 73.2897 911.945C73.2554 911.656 73.1611 910.893 72.9211 908.904C72.5354 905.67 72.9982 902.786 73.9582 901.375C74.9268 899.964 77.2582 899.035 79.2382 899.728C81.2182 900.411 82.3669 897.256 77.7811 893.347C73.1954 889.439 70.5554 891.875 71.5068 893.295C72.4582 894.723 70.8897 896.327 69.7068 898.028C68.8325 899.298 63.6211 901.989 60.0725 903.128C59.1297 903.225 58.1868 903.4 57.2525 903.628C54.3982 904.338 51.6725 905.644 49.5554 907.256C49.5554 907.256 41.8411 911.305 40.1868 911.647C38.5325 911.989 36.2183 911.007 35.2497 909.114C34.2811 907.212 31.324 908.702 32.0011 914.758C32.6783 920.823 36.2354 920.928 36.5097 919.219H36.5183Z" fill="#E1EF93"/>
<path d="M56.7382 925.415C71.361 931.585 74.5153 912.829 67.6753 907.501C63.081 903.916 54.921 906.09 50.901 909.823C45.3124 915.02 51.3982 923.162 56.7382 925.415Z" fill="#EFF2BE"/>
<path d="M63.8953 907.957C64.401 907.326 65.5925 907.484 66.5696 908.299C67.5382 909.114 67.9239 910.288 67.4182 910.91C66.921 911.533 65.721 911.384 64.7439 910.56C63.7668 909.745 63.3896 908.57 63.8868 907.948L63.8953 907.957Z" fill="#CDD862"/>
<path d="M65.5584 922.103C66.0298 922.751 65.6012 923.899 64.5898 924.67C63.5784 925.45 62.3784 925.547 61.8984 924.898C61.4269 924.25 61.8555 923.102 62.8669 922.33C63.8784 921.559 65.0784 921.454 65.5498 922.103H65.5584Z" fill="#CDD862"/>
<path d="M51.7668 917.808C50.9782 917.781 50.3611 916.721 50.3954 915.433C50.4297 914.144 51.0983 913.119 51.8954 913.136C52.684 913.154 53.3011 914.223 53.2582 915.511C53.2239 916.8 52.5554 917.825 51.7668 917.808Z" fill="#CDD862"/>
<path d="M48.9212 901.357C49.8212 902.593 50.6869 904.977 49.9926 905.503C49.3069 906.029 47.3612 904.548 46.4183 903.259C43.8126 899.675 44.4726 899.386 45.1583 898.86C45.8526 898.334 46.3155 897.773 48.9212 901.357Z" fill="#FFEB92"/>
<path d="M48.184 901.296C49.2554 902.777 49.7783 904.241 49.324 904.591C48.8783 904.924 47.6526 904.004 46.5726 902.523C45.4926 901.042 44.9869 899.57 45.424 899.237C45.8698 898.904 47.0954 899.824 48.1754 901.305L48.184 901.296Z" fill="#FFFAE6"/>
<path d="M57.2182 897.668C58.1182 898.904 59.0696 901.226 58.4782 901.673C57.8953 902.12 56.0353 900.578 55.101 899.289C52.4953 895.705 53.0611 895.477 53.6525 895.039C54.2353 894.592 54.6211 894.101 57.2182 897.677V897.668Z" fill="#FFEB92"/>
<path d="M56.5499 897.563C57.6213 899.044 58.1956 900.473 57.8184 900.762C57.4413 901.042 56.2669 900.078 55.1869 898.597C54.1155 897.116 53.5498 895.687 53.927 895.407C54.3041 895.118 55.4785 896.09 56.5585 897.563H56.5499Z" fill="#FFFAE6"/>
<path d="M43.1269 905.644C44.6355 905.617 47.0354 906.406 47.0526 907.432C47.0697 908.457 44.8326 908.133 43.2555 908.168C38.8926 908.247 38.9697 908.606 38.9526 907.581C38.9355 906.555 38.7554 905.723 43.1183 905.644H43.1269Z" fill="#FFEB92"/>
<path d="M42.6553 906.318C44.4553 906.283 45.9296 906.792 45.9382 907.449C45.9468 908.115 44.5667 907.475 42.7581 907.502C40.9581 907.537 39.4239 908.22 39.4068 907.563C39.3982 906.906 40.8468 906.345 42.6468 906.31L42.6553 906.318Z" fill="#FFFAE6"/>
<path d="M77.8499 909.342C76.4613 909.903 73.9841 910.026 73.6241 909.105C73.2641 908.176 75.1156 906.573 76.5556 905.994C80.567 904.381 80.7127 905.197 81.0641 906.117C81.4241 907.046 81.8527 907.738 77.8499 909.342Z" fill="#FFEB92"/>
<path d="M78.0637 908.57C76.4094 909.236 74.8751 909.289 74.6437 908.693C74.4208 908.097 75.578 907.072 77.2323 906.406C78.8866 905.739 80.4208 905.687 80.6437 906.283C80.8751 906.879 79.718 907.904 78.0637 908.57Z" fill="#FFFAE6"/>
<path d="M77.9524 914.197C76.2724 914.162 73.6324 913.426 73.6495 912.593C73.6666 911.761 76.2723 911.147 78.0209 911.182C82.8809 911.287 82.6924 911.953 82.6752 912.786C82.6581 913.618 82.8209 914.293 77.9524 914.188V914.197Z" fill="#FFEB92"/>
<path d="M78.5009 913.671C76.4952 913.627 74.8753 913.154 74.8838 912.628C74.901 912.094 76.538 911.699 78.5437 911.743C80.558 911.787 82.1695 912.26 82.161 912.795C82.1524 913.329 80.5152 913.724 78.5009 913.68V913.671Z" fill="#FFFAE6"/>
<path d="M77.9528 921.383C76.2642 921.094 73.7271 919.71 73.9157 918.553C74.1043 917.396 76.5471 918.237 78.3128 918.526C83.2243 919.359 83.1986 918.938 83.0186 920.086C82.83 921.243 82.8557 922.207 77.9528 921.383Z" fill="#FFEB92"/>
<path d="M78.6215 920.718C76.5901 920.376 75.0472 919.499 75.1672 918.754C75.2872 918.009 76.7187 919.017 78.7415 919.359C80.7729 919.701 82.6244 919.254 82.5044 919.999C82.3844 920.744 80.6444 921.068 78.6215 920.718Z" fill="#FFFAE6"/>
<path d="M73.3754 927.685C72.3382 926.519 71.3182 924.091 72.0811 923.381C72.8525 922.663 75.0725 923.872 76.1525 925.09C79.1611 928.465 78.4325 928.92 77.6611 929.639C76.8982 930.358 76.3839 931.059 73.3754 927.685Z" fill="#FFEB92"/>
<path d="M74.2157 927.597C72.9728 926.204 72.3643 924.705 72.8614 924.241C73.3586 923.785 74.7642 924.539 76.0071 925.932C77.2499 927.326 77.8586 928.824 77.3614 929.289C76.8643 929.745 75.4585 928.991 74.2157 927.597Z" fill="#FFFAE6"/>
<path d="M66.2102 898.176C65.353 899.552 63.3387 901.296 62.5416 900.77C61.7444 900.244 62.4216 897.703 63.3216 896.274C65.8159 892.295 66.373 892.865 67.1702 893.391C67.9673 893.917 68.7045 894.197 66.2102 898.176Z" fill="#FFEB92"/>
<path d="M65.9786 897.387C64.9414 899.035 63.6986 900.095 63.1843 899.754C62.67 899.421 63.09 897.817 64.1271 896.169C65.1643 894.521 66.4157 893.47 66.9214 893.803C67.4357 894.136 67.0157 895.74 65.9786 897.387Z" fill="#FFFAE6"/>
<path d="M45.8784 924.521C47.0613 923.601 49.4185 922.786 50.0099 923.583C50.5928 924.372 49.247 926.44 48.0213 927.396C44.5927 930.06 44.2327 929.315 43.6499 928.526C43.0585 927.729 42.4584 927.185 45.887 924.521H45.8784Z" fill="#FFEB92"/>
<path d="M45.8784 925.336C47.2927 924.241 48.7499 923.759 49.127 924.267C49.5042 924.775 48.6642 926.09 47.2499 927.185C45.8357 928.29 44.3785 928.763 44.0013 928.255C43.6156 927.746 44.4641 926.441 45.8784 925.336Z" fill="#FFFAE6"/>
<path d="M42.1839 919.929C43.8039 919.499 46.5467 919.464 46.7524 920.27C46.9581 921.077 44.6181 922.391 42.921 922.838C38.2153 924.083 38.2239 923.39 38.0096 922.584C37.8039 921.778 37.4696 921.173 42.1839 919.92V919.929Z" fill="#FFEB92"/>
<path d="M41.7896 920.595C43.7353 920.078 45.4238 920.078 45.5524 920.595C45.6809 921.112 44.2067 921.944 42.261 922.47C40.3152 922.987 38.6352 922.987 38.4981 922.47C38.3695 921.953 39.8353 921.121 41.781 920.604L41.7896 920.595Z" fill="#FFFAE6"/>
<path d="M55.7444 932.961C55.633 931.339 56.2244 928.71 57.1673 928.64C58.1101 928.57 59.0529 931.024 59.1644 932.724C59.4815 937.439 58.7101 937.325 57.7672 937.387C56.8244 937.448 56.0701 937.685 55.7444 932.961Z" fill="#FFEB92"/>
<path d="M56.3958 933.452C56.2587 931.506 56.6444 929.885 57.2616 929.85C57.8701 929.806 58.4702 931.348 58.5988 933.294C58.7273 935.239 58.3416 936.861 57.7416 936.896C57.133 936.94 56.533 935.397 56.3958 933.452Z" fill="#FFFAE6"/>
<path fill-rule="evenodd" clip-rule="evenodd" d="M21.046 758.946C20.4288 758.341 20.2746 757.386 20.6689 756.641C21.0632 755.887 21.8945 755.589 22.6574 755.914C71.3602 776.65 82.1603 736.361 100.915 730.208C108.337 727.772 116.446 732.478 119.035 740.717C128.112 769.621 60.2174 797.017 21.046 758.946Z" fill="#F90B0B"/>
<path fill-rule="evenodd" clip-rule="evenodd" d="M123.852 735.652C123.235 733.697 122.267 731.971 121.041 730.534C123.158 724.022 122.489 716.634 118.581 710.429L114.509 713.111C117.107 717.238 117.432 722.278 116.061 726.879C113.575 725.854 110.815 725.67 108.158 726.546C107.841 726.651 107.575 726.844 107.275 726.975C104.781 726.563 102.218 726.73 99.8266 727.519C93.6123 729.561 88.3837 734.775 82.8551 740.288C72.4923 750.63 60.7409 762.356 38.4294 758.035C33.7666 757.133 28.7351 755.538 23.4722 753.303L22.5895 753.031C20.738 752.672 18.8866 753.583 17.9866 755.292C16.9923 757.168 17.3608 759.508 18.8866 760.998C28.5466 770.384 40.2723 776.458 53.738 779.069C77.2066 783.618 103.332 776.405 115.847 761.918C119.764 757.387 121.907 752.426 122.267 747.44C124.332 743.82 125.164 739.85 123.844 735.652H123.852ZM111.707 758.167C102.244 769.122 79.0665 778.219 54.7665 773.513C44.3094 771.488 34.9922 767.194 27.0122 760.735C30.6037 761.997 34.0752 762.952 37.3923 763.601C62.5238 768.465 75.938 755.091 86.7037 744.337C91.9751 739.079 96.5266 734.539 101.507 732.9C102.664 732.523 103.847 732.435 105.021 732.497C105.681 733.811 106.847 734.854 108.372 735.152L108.749 735.214C108.441 738.456 110.601 741.454 113.789 742.076C114.467 742.207 115.135 742.216 115.778 742.129C115.932 742.83 116.267 743.443 116.678 744.013C117.501 749.894 114.544 754.88 111.698 758.176L111.707 758.167Z" fill="#231F20"/>
<path fill-rule="evenodd" clip-rule="evenodd" d="M102.833 737.062C93.8248 744.196 91.5363 746.772 85.1763 753.477C93.4906 749.585 100.913 746.185 106.802 743.836L102.825 737.062H102.833Z" fill="white"/>
<path d="M26.0201 809.082V811.871H21.0841V816.412H25.2056V819.201H21.0841V827H17.9744V809.082H26.0201ZM36.7877 809.082V811.871H32.0985V816.165H35.9733V818.954H32.0985V824.211H37.0345V827H28.9888V809.082H36.7877ZM44.5632 809.082C47.9691 809.082 49.3758 810.835 49.3758 814.364C49.3758 816.758 48.8329 818.288 47.4755 819.127L49.9435 827H46.6117L44.6126 819.818H43.3539V827H40.2442V809.082H44.5632ZM43.3539 817.029H44.3164C45.6245 817.029 46.2662 816.536 46.2662 814.389C46.2662 812.365 45.6245 811.871 44.3164 811.871H43.3539V817.029ZM55.3133 822.656C55.3133 823.964 55.8563 824.458 56.8435 824.458C57.8554 824.458 58.423 823.89 58.423 822.582C58.423 821.077 57.2137 820.065 56.0044 819.102C54.3261 817.77 52.4011 816.165 52.4011 813.179C52.4011 810.514 54.2274 808.86 56.8435 808.86C59.9038 808.86 61.2859 810.588 61.2859 813.426V814.265H58.1762V813.426C58.1762 812.143 57.7073 811.624 56.8682 811.624C55.9797 811.624 55.5108 812.167 55.5108 813.179C55.5108 814.685 56.8682 815.795 58.0528 816.708C59.7804 818.041 61.5327 819.571 61.5327 822.558C61.5327 825.519 59.6076 827.247 56.8682 827.247C53.6598 827.247 52.2036 825.495 52.2036 822.656V821.447H55.3133V822.656ZM67.7688 809.082V815.623L71.15 809.082H74.6052L70.4096 816.19L74.8026 827H71.298L68.5339 818.856L67.7688 819.991V827H64.6591V809.082H67.7688ZM86.1519 822.656C86.1519 825.495 84.7945 827.247 81.5615 827.247C78.3531 827.247 77.0203 825.495 77.0203 822.656V809.082H80.13V822.681C80.13 823.989 80.6236 824.483 81.5615 824.483C82.5487 824.483 83.0423 823.989 83.0423 822.681V809.082H86.1519V822.656ZM94.2848 809.082C97.6906 809.082 99.0974 810.835 99.0974 814.364C99.0974 816.758 98.5544 818.288 97.197 819.127L99.665 827H96.3332L94.3341 819.818H93.0755V827H89.9658V809.082H94.2848ZM93.0755 817.029H94.038C95.346 817.029 95.9877 816.536 95.9877 814.389C95.9877 812.365 95.346 811.871 94.038 811.871H93.0755V817.029ZM117.674 822.656C117.674 825.495 116.316 827.247 113.083 827.247C109.875 827.247 108.542 825.495 108.542 822.656V813.426C108.542 810.588 109.875 808.86 113.083 808.86C116.316 808.86 117.674 810.588 117.674 813.426V815.08H114.564V813.426C114.564 812.143 114.071 811.624 113.083 811.624C112.146 811.624 111.652 812.143 111.652 813.426V822.681C111.652 823.989 112.146 824.483 113.083 824.483C114.071 824.483 114.564 823.989 114.564 822.681V820.805H117.674V822.656ZM124.142 818.954V827H121.033V809.082H124.142V816.165H127.227V809.082H130.337V827H127.227V818.954H124.142ZM137.374 809.082V827H134.289V809.082H137.374ZM144.436 809.082V824.211H149.372V827H141.326V809.082H144.436ZM155.426 809.082V827H152.341V809.082H155.426Z" fill="#0078AE"/>
<path d="M92.3978 609.79C85.0949 609.79 77.9978 608.327 71.3292 605.443C59.4663 600.316 45.7778 600.325 33.9149 605.443L29.6978 607.257V549.844L31.5492 549.046C44.8949 543.27 60.332 543.27 73.6863 549.046C85.5235 554.164 99.2378 554.164 111.092 549.046L115.309 547.223V604.646L113.458 605.443C106.781 608.327 99.6921 609.79 92.3892 609.79H92.3978Z" fill="#231F20"/>
<path d="M52.6346 595.391C59.9289 595.391 67.0175 596.854 73.6946 599.729C84.9232 604.584 97.8746 604.839 109.249 600.483V556.382C96.9917 560.492 83.286 559.931 71.3375 554.76C60.1089 549.905 47.1661 549.651 35.7832 554.007V598.108C41.2003 596.294 46.8489 595.373 52.6346 595.373V595.391Z" fill="#E94E3B"/>
<path d="M73.6858 579.115C61.7373 573.953 48.083 573.454 35.7744 577.555V588.247C72.6573 573.322 84.1001 598.221 109.24 590.456V579.808C97.8572 584.146 84.8801 583.953 73.6858 579.115Z" fill="#FCD6BF"/>
<path d="M73.6858 564.226C61.7373 559.063 48.083 558.564 35.7744 562.666V573.358C72.6573 558.432 84.1001 583.331 109.24 575.566V564.918C97.8572 569.256 84.8801 569.072 73.6858 564.226Z" fill="#FCD6BF"/>
<path d="M28.4908 634.082C31.7239 634.082 33.0813 635.909 33.0813 638.747C33.0813 640.474 32.415 641.758 31.329 642.399C32.6371 643.066 33.4515 644.522 33.4515 646.644C33.4515 650.198 32.0694 652 28.7623 652H23.9744V634.082H28.4908ZM27.0841 641.19H28.0219C29.2559 641.19 29.9716 640.598 29.9716 638.821C29.9716 637.365 29.404 636.698 28.2687 636.698H27.0841V641.19ZM27.0841 649.384H28.2194C29.6508 649.384 30.3418 648.742 30.3418 646.669C30.3418 644.423 29.5768 643.806 28.1206 643.806H27.0841V649.384ZM44.7158 634.082V636.871H40.0266V641.165H43.9014V643.954H40.0266V649.211H44.9626V652H36.9169V634.082H44.7158ZM51.2574 634.082V652H48.1724V634.082H51.2574ZM58.3197 634.082V640.623L61.7009 634.082H65.1561L60.9605 641.19L65.3535 652H61.8489L59.0848 643.856L58.3197 644.991V652H55.21V634.082H58.3197ZM76.3384 647.656C76.3384 650.495 74.981 652.247 71.7479 652.247C68.5395 652.247 67.2068 650.495 67.2068 647.656V638.426C67.2068 635.588 68.5395 633.86 71.7479 633.86C74.981 633.86 76.3384 635.588 76.3384 638.426V647.656ZM70.3165 647.681C70.3165 648.989 70.8101 649.483 71.7479 649.483C72.7351 649.483 73.2287 648.989 73.2287 647.681V638.426C73.2287 637.143 72.7351 636.624 71.7479 636.624C70.8101 636.624 70.3165 637.143 70.3165 638.426V647.681ZM80.0346 652V634.082H82.8482L87.0438 644.991V634.082H89.882V652H87.2165L82.8975 641.165V652H80.0346ZM96.9304 634.082V640.623L100.312 634.082H103.767L99.5712 641.19L103.964 652H100.46L97.6955 643.856L96.9304 644.991V652H93.8207V634.082H96.9304ZM115.314 647.656C115.314 650.495 113.956 652.247 110.723 652.247C107.515 652.247 106.182 650.495 106.182 647.656V634.082H109.292V647.681C109.292 648.989 109.785 649.483 110.723 649.483C111.71 649.483 112.204 648.989 112.204 647.681V634.082H115.314V647.656ZM123.446 634.082C126.852 634.082 128.259 635.835 128.259 639.364C128.259 641.758 127.716 643.288 126.359 644.127L128.827 652H125.495L123.496 644.818H122.237V652H119.127V634.082H123.446ZM122.237 642.029H123.2C124.508 642.029 125.149 641.536 125.149 639.389C125.149 637.365 124.508 636.871 123.2 636.871H122.237V642.029ZM135.011 634.082V649.211H139.947V652H131.901V634.082H135.011Z" fill="#0078AE"/>
<path fill-rule="evenodd" clip-rule="evenodd" d="M115.618 410.057C115.618 415.447 113.218 420.574 109.747 425.158C105.238 431.1 98.8524 436.175 93.7439 439.61C92.5781 440.39 91.6096 441.486 90.8639 442.686C89.2696 445.254 86.621 446.744 83.6467 446.744H72.3581C69.3839 446.744 66.7353 445.254 65.141 442.686C64.4039 441.494 63.4267 440.39 62.261 439.61C57.1524 436.175 50.7668 431.1 46.2582 425.158C42.7782 420.574 40.3867 415.447 40.3867 410.057C40.3867 394.273 53.0639 387.648 62.3981 382.775C66.521 380.619 69.8124 378.901 69.8896 377.867L70.0867 375.159H85.9267L86.1238 377.867C86.201 378.901 89.4925 380.628 93.6153 382.783C102.941 387.656 115.618 394.282 115.618 410.066V410.057Z" fill="#BA0068"/>
<path fill-rule="evenodd" clip-rule="evenodd" d="M93.607 382.783C89.4842 380.627 86.1842 378.909 86.1156 377.866L85.9442 375.509C86.5013 371.644 88.1384 367.341 90.7356 363.686C86.0556 363.704 83.2784 366.368 81.5984 369.444C81.3327 366.517 81.4956 363.353 82.2327 360.286C77.767 362.17 76.2241 365.877 75.8556 369.47C73.7556 365.903 70.1041 362.661 63.6841 362.634C68.9641 368.822 70.4127 372.617 69.8813 377.858C69.8042 378.892 66.5127 380.61 62.3898 382.766C53.0556 387.639 40.3784 394.264 40.3784 410.048C40.3784 415.438 42.7784 420.565 46.2499 425.149C50.7584 431.091 57.1441 436.165 62.2527 439.601C63.4184 440.381 64.387 441.477 65.1327 442.677C66.727 445.245 69.3756 446.735 72.3498 446.735H76.9784C77.3213 446.753 77.6556 446.779 77.9984 446.779C78.3413 446.779 78.6756 446.744 79.0184 446.735H83.647C86.6213 446.735 89.2699 445.245 90.8642 442.677C91.6013 441.477 92.5784 440.381 93.7441 439.601C98.8527 436.165 105.238 431.091 109.747 425.149C113.218 420.565 115.618 415.438 115.618 410.048C115.618 394.264 102.941 387.639 93.6156 382.766L93.607 382.783ZM105.238 421.617C102.05 425.824 97.7641 429.557 93.787 432.511C101.03 421.03 104.253 405.57 94.3099 398.077C99.7099 409.128 95.887 420.662 89.2441 429.847C88.8927 430.337 86.4927 433.764 84.4527 436.691C84.2213 437.024 83.8956 437.515 83.5356 438.067C82.4813 439.662 80.8698 440.539 78.9927 440.539H77.9298C76.0098 440.539 74.3641 439.619 73.327 437.971C72.5727 436.77 71.6299 435.675 70.7899 434.535C62.887 423.65 54.1099 413.615 61.7127 398.068C50.8784 405.035 54.667 420.819 62.1327 432.432C58.1813 429.487 53.9384 425.771 50.7756 421.6C48.007 417.954 46.1041 414.001 46.1041 410.048C46.1041 397.805 56.9899 392.117 64.9956 387.936C68.227 386.245 71.0813 384.755 73.0099 382.993C72.847 383.414 72.6842 383.844 72.5042 384.299C69.2642 392.441 64.1299 412.248 76.0356 430.276C72.4099 414.921 72.1699 400.11 78.0242 385.298C81.7442 394.737 84.3756 396.254 87.9927 410.048C87.9927 395.491 85.4299 389.041 83.5356 384.299C83.3556 383.844 83.1927 383.423 83.0299 382.993C84.967 384.746 87.8127 386.245 91.0442 387.936C99.0499 392.126 109.936 397.805 109.936 410.048C109.936 413.992 108.033 417.954 105.264 421.6L105.238 421.617Z" fill="#231F20"/>
<path d="M23.0941 467.803C26.9333 467.803 28.519 469.778 28.519 473.756C28.519 476.455 27.907 478.18 26.3769 479.125L29.1589 488H25.4032L23.1497 479.904H21.7309V488H18.2256V467.803H23.0941ZM21.7309 476.761H22.8159C24.2904 476.761 25.0137 476.204 25.0137 473.784C25.0137 471.503 24.2904 470.946 22.8159 470.946H21.7309V476.761ZM35.2953 483.799L34.5998 488H31.2336L35.1006 467.803H39.3849L43.2519 488H39.7187L39.0232 483.799H35.2953ZM38.4946 480.656L37.1593 472.588L35.7961 480.656H38.4946ZM56.4716 483.104C56.4716 486.303 54.9415 488.278 51.2971 488.278C47.6805 488.278 46.1782 486.303 46.1782 483.104V467.803H49.6835V483.131C49.6835 484.606 50.2399 485.162 51.2971 485.162C52.4099 485.162 52.9663 484.606 52.9663 483.131V467.803H56.4716V483.104ZM59.63 476.705H60.7706V467.803H65.8895C69.5339 467.803 71.064 469.778 71.064 472.977V482.853C71.064 486.025 69.5339 488 65.8895 488H60.7706V479.487H59.63V476.705ZM65.6391 484.856C66.9189 484.856 67.5587 484.216 67.5587 482.575V473.228C67.5587 471.586 66.9189 470.946 65.6391 470.946H64.276V476.705H65.6948V479.487H64.276V484.856H65.6391ZM78.7293 467.803V484.856H84.2933V488H75.224V467.803H78.7293ZM90.3105 483.799L89.615 488H86.2488L90.1157 467.803H94.4L98.267 488H94.7339L94.0384 483.799H90.3105ZM93.5098 480.656L92.1744 472.588L90.8112 480.656H93.5098ZM111.487 483.104C111.487 486.303 109.957 488.278 106.312 488.278C102.696 488.278 101.193 486.303 101.193 483.104V467.803H104.699V483.131C104.699 484.606 105.255 485.162 106.312 485.162C107.425 485.162 107.981 484.606 107.981 483.131V467.803H111.487V483.104ZM119.291 467.803V475.175L123.102 467.803H126.997L122.268 475.815L127.22 488H123.269L120.154 478.819L119.291 480.099V488H115.786V467.803H119.291ZM140.013 483.104C140.013 486.303 138.483 488.278 134.839 488.278C131.222 488.278 129.72 486.303 129.72 483.104V467.803H133.225V483.131C133.225 484.606 133.781 485.162 134.839 485.162C135.951 485.162 136.508 484.606 136.508 483.131V467.803H140.013V483.104ZM149.181 467.803C153.02 467.803 154.606 469.778 154.606 473.756C154.606 476.455 153.994 478.18 152.463 479.125L155.245 488H151.49L149.236 479.904H147.817V488H144.312V467.803H149.181ZM147.817 476.761H148.902C150.377 476.761 151.1 476.204 151.1 473.784C151.1 471.503 150.377 470.946 148.902 470.946H147.817V476.761Z" fill="#0078AE"/>
<path d="M49.2172 290.68V293.469H44.2812V298.01H48.4028V300.799H44.2812V308.598H41.1715V290.68H49.2172ZM53.5671 304.871L52.9501 308.598H49.9638L53.3943 290.68H57.195L60.6255 308.598H57.4912L56.8742 304.871H53.5671ZM56.4053 302.082L55.2206 294.925L54.0113 302.082H56.4053ZM64.0645 306.08C64.879 306.08 65.2985 305.636 65.2985 304.501V290.68H68.4082V304.748C68.4082 307.388 67.3223 308.844 64.3113 308.844H62.9786V306.08H64.0645ZM75.3234 290.68V308.598H72.2384V290.68H75.3234ZM87.149 290.68V293.469H84.1381V308.598H81.0531V293.469H78.0421V290.68H87.149ZM91.3583 304.871L90.7413 308.598H87.755L91.1856 290.68H94.9863L98.4168 308.598H95.2824L94.6654 304.871H91.3583ZM94.1965 302.082L93.0119 294.925L91.8026 302.082H94.1965ZM103.431 304.254C103.431 305.562 103.974 306.056 104.962 306.056C105.974 306.056 106.541 305.488 106.541 304.18C106.541 302.674 105.332 301.663 104.122 300.7C102.444 299.367 100.519 297.763 100.519 294.777C100.519 292.111 102.346 290.458 104.962 290.458C108.022 290.458 109.404 292.185 109.404 295.024V295.863H106.294V295.024C106.294 293.74 105.825 293.222 104.986 293.222C104.098 293.222 103.629 293.765 103.629 294.777C103.629 296.282 104.986 297.393 106.171 298.306C107.899 299.639 109.651 301.169 109.651 304.155C109.651 307.117 107.726 308.844 104.986 308.844C101.778 308.844 100.322 307.092 100.322 304.254V303.045H103.431V304.254ZM22.0475 320.68V327.22L25.4287 320.68H28.8839L24.6883 327.788L29.0813 338.598H25.5768L22.8126 330.453L22.0475 331.589V338.598H18.9378V320.68H22.0475ZM31.7564 336.08C32.5708 336.08 32.9904 335.636 32.9904 334.501V320.68H36.1001V334.748C36.1001 337.388 35.0142 338.844 32.0032 338.844H30.6705V336.08H31.7564ZM45.0144 319.224H42.5957L44.1259 316.164H47.3096L45.0144 319.224ZM48.9385 334.254C48.9385 337.092 47.5811 338.844 44.348 338.844C41.1396 338.844 39.8069 337.092 39.8069 334.254V320.68H42.9166V334.279C42.9166 335.587 43.4102 336.08 44.348 336.08C45.3352 336.08 45.8288 335.587 45.8288 334.279V320.68H48.9385V334.254ZM55.862 320.68V327.22L59.2432 320.68H62.6984L58.5028 327.788L62.8958 338.598H59.3912L56.6271 330.453L55.862 331.589V338.598H52.7523V320.68H55.862ZM68.3466 320.68V335.809H73.2826V338.598H65.2369V320.68H68.3466ZM79.3363 320.68V338.598H76.2513V320.68H79.3363ZM83.289 338.598V320.68H86.1025L90.2981 331.589V320.68H93.1363V338.598H90.4709L86.1519 327.763V338.598H83.289ZM105.96 329.269V333.859C105.96 336.993 104.603 338.844 101.369 338.844C98.161 338.844 96.8283 337.092 96.8283 334.254V325.024C96.8283 322.185 98.161 320.458 101.369 320.458C104.603 320.458 105.96 322.185 105.96 325.024V326.184H102.85V325.024C102.85 323.74 102.357 323.222 101.369 323.222C100.432 323.222 99.938 323.74 99.938 325.024V334.279C99.938 335.587 100.432 336.08 101.369 336.08C102.357 336.08 102.974 335.513 102.974 334.032V332.033H101.493V329.269H105.96ZM118.423 334.254C118.423 337.092 117.066 338.844 113.833 338.844C110.624 338.844 109.292 337.092 109.292 334.254V320.68H112.401V334.279C112.401 335.587 112.895 336.08 113.833 336.08C114.82 336.08 115.314 335.587 115.314 334.279V320.68H118.423V334.254ZM126.556 320.68C129.962 320.68 131.369 322.432 131.369 325.961C131.369 328.355 130.826 329.886 129.468 330.725L131.936 338.598H128.605L126.605 331.416H125.347V338.598H122.237V320.68H126.556ZM125.347 328.627H126.309C127.617 328.627 128.259 328.133 128.259 325.986C128.259 323.962 127.617 323.469 126.309 323.469H125.347V328.627Z" fill="#0078AE"/>
<path fill-rule="evenodd" clip-rule="evenodd" d="M88.1693 213.932C91.1384 215.194 94.409 216.526 96.4503 217.455C114.69 225.746 109.579 256.964 89.7235 256.964H52.2157C39.0637 256.964 28.3936 244.878 28.3936 229.962C28.3936 215.045 39.0559 202.959 52.2157 202.959C53.2673 202.924 54.3961 202.977 55.6023 203.099C58.7106 201.163 62.7312 199.752 67.7492 199.191C75.0327 198.376 82.1771 199.769 85.5018 203.249C88.1229 205.983 88.7801 209.839 88.1616 213.923L88.1693 213.932Z" fill="#F89A2C"/>
<path fill-rule="evenodd" clip-rule="evenodd" d="M68.6922 215.413C64.9886 212.582 57.1097 214.282 54.8906 220.067C55.9576 206.982 66.7901 206.92 71.2746 211.381L68.6922 215.413Z" fill="white"/>
<path fill-rule="evenodd" clip-rule="evenodd" d="M97.3319 214.948C95.9556 214.326 94.0149 213.502 91.9814 212.652C90.7752 212.144 89.5458 211.627 88.3783 211.127C88.3783 209.97 88.2004 208.875 87.9376 207.823L89.6231 206.333C90.9917 208.13 94.3241 209.006 96.4118 207.157C99.5741 204.361 98.4607 197.394 93.5587 197.21C94.5948 191.776 88.8963 188.857 85.7417 191.644C83.654 193.485 83.5922 197.367 84.7984 199.313L82.6566 201.206C78.8912 199.26 73.3783 198.568 67.7649 199.19C64.7726 199.523 62.1437 200.172 59.8396 201.039C56.9247 200.461 54.3654 200.172 52.2236 200.259C37.7726 200.259 26.02 213.581 26.02 229.961C26.02 246.341 37.7726 259.654 52.2236 259.654H89.7314C101.322 259.654 108.11 250.224 109.703 240.89C111.304 231.495 108.102 219.83 97.3396 214.939L97.3319 214.948ZM105.017 239.873C103.889 246.517 99.203 254.264 89.7236 254.264H52.2159C40.3937 254.264 30.7752 243.361 30.7752 229.97C30.7752 216.578 40.3937 205.667 52.2777 205.667C52.2932 205.667 52.3164 205.667 52.3319 205.667C44.4839 213.169 45.7984 224.79 52.8344 229.05C44.2674 212.214 59.2597 203.748 71.1437 204.545C83.0278 205.343 91.8113 215.413 70.8267 235.64C77.0278 235.228 85.0845 225.754 87.5896 216.569C88.4942 216.955 89.4144 217.341 90.319 217.718C92.3061 218.55 94.2004 219.339 95.5535 219.952C103.796 223.695 106.239 232.652 105.01 239.865L105.017 239.873Z" fill="#231F20"/>
<path d="M125.983 58.3607V52.8306H112.886V58.3607H125.983Z" fill="#231F20"/>
<path d="M80.4257 79.1404C68.1857 79.1404 56.6314 74.6532 47.8714 66.5113C45.1457 63.9697 43.5771 59.9908 43.5771 55.5912C43.5771 51.1916 45.1457 47.2127 47.8714 44.6711C56.6229 36.5293 68.1857 32.0508 80.4257 32.0508C92.6657 32.0508 104.22 36.538 112.98 44.6799C115.706 47.2215 117.274 51.2004 117.274 55.6C117.274 59.9996 115.706 63.9785 112.98 66.5201C104.229 74.662 92.6657 79.1492 80.4257 79.1492V79.1404Z" fill="#961600"/>
<path d="M80.4256 34.1104C92.5713 34.1104 103.586 38.7204 111.626 46.2049C116.477 50.7184 116.477 60.4904 111.626 65.0039C103.586 72.4797 92.5713 77.0985 80.4256 77.0985C68.2799 77.0985 57.2656 72.4885 49.2256 65.0039C44.3741 60.4904 44.3741 50.7184 49.2256 46.2049C57.2656 38.7291 68.2799 34.1104 80.4256 34.1104ZM80.4256 30C67.6884 30 55.6456 34.6713 46.5256 43.155C43.3799 46.0822 41.5713 50.6132 41.5713 55.5913C41.5713 60.5693 43.3799 65.1004 46.5256 68.0276C55.6541 76.5113 67.6884 81.1825 80.4256 81.1825C93.1627 81.1825 105.206 76.5113 114.326 68.0276C117.471 65.1004 119.28 60.5693 119.28 55.5913C119.28 50.6132 117.471 46.0822 114.326 43.155C105.197 34.6713 93.1627 30 80.4256 30Z" fill="#231F20"/>
<path d="M54 51.1565C60.7286 46.8358 65.9486 51.8752 70.8171 47.5545C75.6857 43.2338 81.6 43.8122 84.2657 44.5308C86.9314 45.2495 90.6429 49.7105 95.4 50.2889C100.269 50.8761 103.817 46.9848 109.663 51.2968C109.903 51.4721 110.126 51.6473 110.349 51.8314C109.277 49.7806 107.811 47.7823 105.797 46.1084C101.683 42.6816 98.34 43.5405 95.8971 44.1628C94.7829 44.4432 93.8228 44.6973 92.88 44.5659C91.2428 44.338 89.6486 43.0585 88.1057 41.8228C86.8029 40.7798 85.5771 39.7894 84.2314 39.3775C82.4314 38.8342 76.1486 37.467 70.7314 42.892C69.7371 43.8823 68.6914 43.856 66.5914 43.6982C64.1143 43.5142 61.02 43.2863 57.4886 45.8455C54.6086 47.9313 52.4743 50.7972 50.9229 53.6105C51.8486 52.7165 52.86 51.8752 54 51.1478V51.1565Z" fill="#7A1200"/>
<path d="M107.28 60.0438C100.551 64.3645 95.3312 59.3251 90.4626 63.6458C85.594 67.9666 79.6797 67.3881 77.014 66.6695C74.3483 65.9508 70.6369 61.4899 65.8797 60.9114C61.0111 60.3242 57.4626 64.2155 51.6169 59.9035C51.3769 59.7283 51.154 59.553 50.9312 59.3689C52.0026 61.4197 53.4683 63.418 55.4826 65.0919C59.5969 68.5187 62.9397 67.6598 65.3826 67.0375C66.4969 66.7571 67.4569 66.503 68.3997 66.6344C70.0369 66.8623 71.6312 68.1419 73.174 69.3776C74.4769 70.4205 75.7026 71.4109 77.0483 71.8228C78.8483 72.3662 85.1312 73.7334 90.5483 68.3084C91.5426 67.318 92.5883 67.3443 94.6883 67.5021C97.1654 67.6861 100.26 67.914 103.791 65.3549C106.671 63.269 108.805 60.4031 110.357 57.5898C109.431 58.4838 108.42 59.3251 107.28 60.0526V60.0438Z" fill="#7A1200"/>
<path d="M55.5155 101.082C58.7486 101.082 60.106 102.835 60.106 105.673V114.434C60.106 117.248 58.7486 119 55.5155 119H50.9744V101.082H55.5155ZM54.0841 116.211H55.2934C56.4287 116.211 56.9963 115.644 56.9963 114.187V105.895C56.9963 104.439 56.4287 103.871 55.2934 103.871H54.0841V116.211ZM67.1776 96.9608V99.5275H64.6602V96.9608H67.1776ZM71.5213 96.9608V99.5275H69.0039V96.9608H71.5213ZM72.6812 114.656C72.6812 117.495 71.3238 119.247 68.0908 119.247C64.8824 119.247 63.5496 117.495 63.5496 114.656V105.426C63.5496 102.588 64.8824 100.86 68.0908 100.86C71.3238 100.86 72.6812 102.588 72.6812 105.426V114.656ZM66.6593 114.681C66.6593 115.989 67.1529 116.483 68.0908 116.483C69.078 116.483 69.5716 115.989 69.5716 114.681V105.426C69.5716 104.143 69.078 103.624 68.0908 103.624C67.1529 103.624 66.6593 104.143 66.6593 105.426V114.681ZM75.3656 108.98H76.3774V101.082H80.9186C84.1516 101.082 85.509 102.835 85.509 105.673V114.434C85.509 117.248 84.1516 119 80.9186 119H76.3774V111.448H75.3656V108.98ZM80.6964 116.211C81.8317 116.211 82.3994 115.644 82.3994 114.187V105.895C82.3994 104.439 81.8317 103.871 80.6964 103.871H79.4871V108.98H80.7458V111.448H79.4871V116.211H80.6964ZM92.3092 101.082V116.211H97.2452V119H89.1995V101.082H92.3092ZM108.981 114.656C108.981 117.495 107.624 119.247 104.391 119.247C101.182 119.247 99.8495 117.495 99.8495 114.656V101.082H102.959V114.681C102.959 115.989 103.453 116.483 104.391 116.483C105.378 116.483 105.871 115.989 105.871 114.681V101.082H108.981V114.656ZM117.114 101.082C120.52 101.082 121.927 102.835 121.927 106.364C121.927 108.758 121.384 110.288 120.026 111.127L122.494 119H119.162L117.163 111.818H115.905V119H112.795V101.082H117.114ZM115.905 109.029H116.867C118.175 109.029 118.817 108.536 118.817 106.389C118.817 104.365 118.175 103.871 116.867 103.871H115.905V109.029Z" fill="#0078AE"/>
</svg>
