<svg width="194" height="908" viewBox="0 0 194 908" fill="none" xmlns="http://www.w3.org/2000/svg">
<path fill-rule="evenodd" clip-rule="evenodd" d="M96.8231 10.0007C131.96 9.93025 165.306 31.2263 166.175 58.0148C166.527 68.8892 159.975 75.609 151.414 78.647C147.969 79.8742 144.197 80.4879 140.426 80.518C134.741 80.5683 129.057 79.3008 124.404 76.8664L125.625 85.0147C126.547 91.0906 120.157 96.5027 111.773 96.5027H81.8593C73.4753 96.5027 67.0855 91.1007 68.008 85.0147L69.229 76.8664C64.5893 79.3109 58.9049 80.5683 53.207 80.518C49.4356 80.4879 45.6641 79.8742 42.2182 78.647C33.6443 75.609 27.1052 68.8892 27.458 58.0148C28.3262 31.2263 61.6725 9.93025 96.8096 10.0007H96.8231Z" fill="#D8A96C"/>
<path fill-rule="evenodd" clip-rule="evenodd" d="M97.1893 10.0007C132.326 9.93025 165.673 31.2263 166.541 58.0148C166.894 68.8892 160.341 75.609 151.781 78.647C148.335 79.8742 144.563 80.4879 140.792 80.518C135.108 80.5683 129.423 79.3008 124.77 76.8664L125.991 85.0147C126.913 91.0906 120.524 96.5027 112.14 96.5027H82.2256C73.8415 96.5027 67.4517 91.1007 68.3743 85.0147L69.5952 76.8664C64.9555 79.3109 59.2712 80.5683 53.5733 80.518C49.8018 80.4879 46.0303 79.8742 42.5845 78.647C34.0105 75.609 27.4714 68.8892 27.8242 58.0148C28.6924 31.2263 62.0387 9.93025 97.1758 10.0007H97.1893ZM112.153 90.6681C115.897 90.6681 118.624 88.3544 118.217 85.6484C117.553 81.2725 116.155 75.3072 115.219 69.8751C114.459 65.5193 112.519 58.2462 117.078 54.8763C122.165 51.114 132.652 51.6472 137.048 55.4296C112.791 51.4158 119.981 74.8948 140.724 74.7238C143.369 74.7036 146.001 74.2711 148.403 73.4261C154.399 71.2934 158.984 66.3542 158.727 58.1657C157.967 34.7069 128.433 15.7547 97.1893 15.8151C65.9594 15.7547 36.4253 34.7069 35.652 58.1657C35.3807 66.3643 39.9661 71.2934 45.9761 73.4261C48.3773 74.2811 51.0092 74.7036 53.6547 74.7238C74.3977 74.8948 81.5879 51.4158 57.3312 55.4296C61.7402 51.6472 72.2135 51.114 77.3009 54.8763C81.8593 58.2462 79.9193 65.5193 79.1595 69.8751C78.2099 75.3173 76.8261 81.2725 76.1614 85.6484C75.7544 88.3544 78.4812 90.6681 82.2256 90.6681H112.14H112.153Z" fill="#231F20"/>
<path d="M97.1893 26.0556C108.924 26.0556 119.75 27.2929 128.433 29.3752C122.409 24.2348 110.674 20.7441 97.1893 20.7441C83.7043 20.7441 71.9557 24.2348 65.9458 29.3752C74.6419 27.2929 85.4543 26.0556 97.1893 26.0556Z" fill="#E2BE91"/>
<path d="M52.4718 138.651C52.4718 139.959 53.0147 140.453 54.0019 140.453C55.0138 140.453 55.5815 139.885 55.5815 138.577C55.5815 137.072 54.3721 136.06 53.1628 135.098C51.4846 133.765 49.5595 132.161 49.5595 129.174C49.5595 126.509 51.3859 124.855 54.0019 124.855C57.0623 124.855 58.4443 126.583 58.4443 129.421V130.26H55.3347V129.421C55.3347 128.138 54.8657 127.619 54.0266 127.619C53.1381 127.619 52.6692 128.162 52.6692 129.174C52.6692 130.68 54.0266 131.79 55.2113 132.704C56.9389 134.036 58.6911 135.566 58.6911 138.553C58.6911 141.514 56.7661 143.242 54.0266 143.242C50.8182 143.242 49.3621 141.49 49.3621 138.651V137.442H52.4718V138.651ZM71.2454 125.077L67.8148 142.995H64.0141L60.5836 125.077H63.8414L65.9885 138.059L68.1357 125.077H71.2454ZM81.7637 125.077V127.866H77.0745V132.161H80.9492V134.949H77.0745V140.206H82.0105V142.995H73.9648V125.077H81.7637ZM89.5392 125.077C92.9204 125.077 94.3518 126.83 94.3518 130.359C94.3518 134.061 92.9204 135.813 89.5392 135.813H88.3299V142.995H85.2202V125.077H89.5392ZM88.3299 133.024H89.2924C90.6005 133.024 91.2421 132.531 91.2421 130.384C91.2421 128.36 90.6005 127.866 89.2924 127.866H88.3299V133.024ZM101.759 125.077C105.14 125.077 106.571 126.83 106.571 130.359C106.571 134.061 105.14 135.813 101.759 135.813H100.549V142.995H97.4397V125.077H101.759ZM100.549 133.024H101.512C102.82 133.024 103.462 132.531 103.462 130.384C103.462 128.36 102.82 127.866 101.512 127.866H100.549V133.024ZM112.744 125.077V142.995H109.659V125.077H112.744ZM121.016 125.077C124.422 125.077 125.828 126.83 125.828 130.359C125.828 132.753 125.285 134.283 123.928 135.122L126.396 142.995H123.064L121.065 135.813H119.807V142.995H116.697V125.077H121.016ZM119.807 133.024H120.769C122.077 133.024 122.719 132.531 122.719 130.384C122.719 128.36 122.077 127.866 120.769 127.866H119.807V133.024Z" fill="#0078AE"/>
<path fill-rule="evenodd" clip-rule="evenodd" d="M67.8004 178.358C87.0783 164.063 113.601 158.863 136.514 163.168C144.519 164.667 150.352 168.992 152.374 174.928C158.18 191.918 151.166 211.585 131.888 225.879C109.232 242.679 76.5915 246.914 51.5343 237.941C39.433 219.361 45.1445 195.157 67.8004 178.358Z" fill="#B6EF18"/>
<path d="M79.2376 245.123C68.8457 245.123 59.01 243.484 50.0155 240.265L48.9301 239.872L48.4011 239.057C35.2687 218.898 42.0791 193.769 65.3455 176.527C84.5556 162.283 112.923 156.076 137.383 160.663C146.568 162.384 153.446 167.484 155.766 174.284C162.074 192.763 153.88 213.235 134.372 227.7C119.448 238.766 99.3566 245.123 79.2647 245.123H79.2376ZM54.1397 236.009C61.8861 238.625 70.3244 239.963 79.2376 239.963C97.498 239.963 115.799 234.169 129.42 224.059C147.205 210.871 154.708 192.291 148.996 175.562C147.287 170.542 142.416 166.941 135.66 165.673C113.506 161.529 87.7573 167.192 70.2566 180.189C49.405 195.651 43.0152 217.963 54.1397 236.009Z" fill="#231F20"/>
<path fill-rule="evenodd" clip-rule="evenodd" d="M129.75 213.286C120.592 217.279 112.113 218.677 90.1898 216.485C107.338 204.775 123.102 192.472 129.166 177.474C120.823 187.171 109.97 195.531 98.1804 203.427C93.2694 194.675 93.0116 190.863 94.6667 186.437C89.4708 193.187 93.1201 202.009 94.9652 205.55C87.8292 210.217 80.422 214.754 73.0418 219.321C64.902 204.715 64.5764 198.347 67.371 190.883C58.8649 201.938 64.305 216.314 67.5338 222.762C56.3958 229.743 45.5427 236.915 36.1411 244.933L44.4573 250.144C54.605 239.883 69.1754 230.558 83.5015 221.001C86.052 221.333 114.243 224.673 129.722 213.306L129.75 213.286Z" fill="#231F20"/>
<path d="M64.3111 287.856C64.3111 289.164 64.8541 289.658 65.8413 289.658C66.8532 289.658 67.4208 289.09 67.4208 287.782C67.4208 286.277 66.2115 285.265 65.0022 284.302C63.3239 282.969 61.3989 281.365 61.3989 278.379C61.3989 275.713 63.2252 274.06 65.8413 274.06C68.9016 274.06 70.2837 275.788 70.2837 278.626V279.465H67.174V278.626C67.174 277.342 66.7051 276.824 65.866 276.824C64.9775 276.824 64.5086 277.367 64.5086 278.379C64.5086 279.884 65.866 280.995 67.0506 281.908C68.7782 283.241 70.5305 284.771 70.5305 287.757C70.5305 290.719 68.6055 292.447 65.866 292.447C62.6576 292.447 61.2015 290.694 61.2015 287.856V286.647H64.3111V287.856ZM77.976 274.282C81.3571 274.282 82.7886 276.034 82.7886 279.564C82.7886 283.266 81.3571 285.018 77.976 285.018H76.7666V292.2H73.657V274.282H77.976ZM76.7666 282.229H77.7292C79.0372 282.229 79.6789 281.735 79.6789 279.588C79.6789 277.564 79.0372 277.071 77.7292 277.071H76.7666V282.229ZM88.2704 272.826H85.8518L87.3819 269.766H90.5656L88.2704 272.826ZM88.9614 274.282V292.2H85.8764V274.282H88.9614ZM92.9141 292.2V274.282H95.7276L99.9232 285.191V274.282H102.761V292.2H100.096L95.777 281.365V292.2H92.9141ZM109.069 288.473L108.452 292.2H105.466L108.897 274.282H112.697L116.128 292.2H112.994L112.377 288.473H109.069ZM111.908 285.684L110.723 278.527L109.514 285.684H111.908ZM125.853 274.282V277.071H122.842V292.2H119.757V277.071H116.746V274.282H125.853Z" fill="#0078AE"/>
<path d="M9.12877 425.926C12.9679 425.926 14.5537 427.901 14.5537 431.88C14.5537 434.578 13.9416 436.303 12.4115 437.249L15.1935 446.124H11.4378L9.18441 438.028H7.76559L7.76559 446.124H4.26027L4.26027 425.926H9.12877ZM7.76559 434.884H8.85057C10.325 434.884 11.0483 434.328 11.0483 431.908C11.0483 429.626 10.325 429.07 8.85057 429.07H7.76559V434.884ZM18.764 443.286C19.6821 443.286 20.155 442.785 20.155 441.505V425.926H23.6604V441.784C23.6604 444.76 22.4363 446.402 19.0423 446.402H17.54V443.286H18.764ZM33.7645 424.285H31.0381L32.7629 420.835H36.3517L33.7645 424.285ZM37.9931 441.227C37.9931 444.427 36.463 446.402 32.8186 446.402C29.202 446.402 27.6997 444.427 27.6997 441.227V430.823C27.6997 427.623 29.202 425.676 32.8186 425.676C36.463 425.676 37.9931 427.623 37.9931 430.823V441.227ZM31.205 441.255C31.205 442.729 31.7614 443.286 32.8186 443.286C33.9314 443.286 34.4878 442.729 34.4878 441.255V430.823C34.4878 429.376 33.9314 428.792 32.8186 428.792C31.7614 428.792 31.205 429.376 31.205 430.823V441.255ZM51.3958 446.124H48.3634L45.3032 433.521V446.124H42.1596V425.926H46.1378L49.7823 441.255L53.4545 425.926H57.5997V446.124H54.456V433.549L51.3958 446.124ZM64.7173 441.923L64.0218 446.124H60.6555L64.5225 425.926H68.8068L72.6738 446.124H69.1406L68.4451 441.923H64.7173ZM67.9166 438.779L66.5812 430.711L65.218 438.779H67.9166ZM85.7544 441.227C85.7544 444.427 84.2243 446.402 80.5799 446.402C76.9633 446.402 75.461 444.427 75.461 441.227V430.823C75.461 427.623 76.9633 425.676 80.5799 425.676C84.2243 425.676 85.7544 427.623 85.7544 430.823V441.227ZM78.9663 441.255C78.9663 442.729 79.5227 443.286 80.5799 443.286C81.6927 443.286 82.2491 442.729 82.2491 441.255V430.823C82.2491 429.376 81.6927 428.792 80.5799 428.792C79.5227 428.792 78.9663 429.376 78.9663 430.823V441.255ZM92.5081 441.227C92.5081 442.702 93.1202 443.258 94.233 443.258C95.3736 443.258 96.0134 442.618 96.0134 441.144C96.0134 439.447 94.6503 438.306 93.2871 437.221C91.3953 435.719 89.2254 433.911 89.2254 430.544C89.2254 427.54 91.284 425.676 94.233 425.676C97.6826 425.676 99.2406 427.623 99.2406 430.823V431.768H95.7352V430.823C95.7352 429.376 95.2067 428.792 94.2608 428.792C93.2593 428.792 92.7307 429.404 92.7307 430.544C92.7307 432.241 94.2608 433.493 95.5961 434.523C97.5435 436.025 99.5188 437.75 99.5188 441.116C99.5188 444.454 97.3488 446.402 94.2608 446.402C90.6442 446.402 89.0028 444.427 89.0028 441.227V439.864H92.5081V441.227ZM111.918 425.926V429.07H108.524V446.124H105.046V429.07H101.652V425.926H111.918ZM125.124 441.227C125.124 444.427 123.594 446.402 119.95 446.402C116.333 446.402 114.831 444.427 114.831 441.227V425.926H118.336V441.255C118.336 442.729 118.892 443.286 119.95 443.286C121.062 443.286 121.619 442.729 121.619 441.255V425.926H125.124V441.227ZM134.292 425.926C138.131 425.926 139.716 427.901 139.716 431.88C139.716 434.578 139.104 436.303 137.574 437.249L140.356 446.124H136.601L134.347 438.028H132.928V446.124H129.423V425.926H134.292ZM132.928 434.884H134.013C135.488 434.884 136.211 434.328 136.211 431.908C136.211 429.626 135.488 429.07 134.013 429.07H132.928V434.884Z" fill="#0078AE"/>
<path d="M138.211 343.416C134.901 338.446 127.548 333.557 115.908 328.588C99.6416 321.647 97.6473 312.483 97.5795 312.141L96.9419 308.378L91.8409 308.59C90.4707 308.65 78.2337 309.525 69.1442 322.512C67.5841 324.755 66.6073 326.807 65.8612 328.779C62.0219 329.151 55.5507 329.956 48.9981 331.535C33.7901 335.217 28.6213 340.659 27.3868 345.438C16.6422 348.234 1.77331 356.282 3.68618 372.397C6.76576 398.27 65.305 398.824 84.5422 399.005C85.2205 399.005 85.9124 399.005 86.5907 399.005C103.793 399.005 120.846 396.973 133.68 393.361C151.832 388.261 162.183 380.033 163.607 369.581C166.307 349.804 145.116 344.583 138.211 343.416ZM152.7 368.766C150.611 384.056 117.373 390.887 86.6314 390.887C85.9802 390.887 85.329 390.887 84.6778 390.887C53.7192 390.595 16.4251 387.024 14.6072 371.693C13.3184 360.849 22.3536 355.94 28.4857 353.878C30.1543 357.479 33.1796 360.738 37.6294 363.424C46.9089 369.027 61.6013 371.975 79.3598 371.975C85.4782 371.975 91.9494 371.623 98.7055 370.919C98.7055 370.919 65.5355 371.743 44.5618 357.127C40.7225 354.451 38.2535 351.695 37.9686 348.325C37.4124 341.736 53.3936 338.104 64.4774 336.958C64.8029 341.776 67.0008 344.734 67.1636 344.945C67.1636 344.945 69.9311 321.516 88.5171 317.905C91.054 322.603 96.9419 329.896 110.427 335.65C127.114 342.772 129.149 347.611 129.298 349.361C130.709 365.044 117.712 369.52 117.712 369.52C135.403 366.754 139.608 358.817 140.205 352.308C146.052 354.049 154.097 358.364 152.673 368.786L152.7 368.766Z" fill="#231F20"/>
<path fill-rule="evenodd" clip-rule="evenodd" d="M94.6418 480.357C99.892 480.357 104.627 482.318 107.964 485.457C110.243 484.552 112.767 484.049 115.426 484.049C125.56 484.049 133.781 491.372 133.781 500.395C133.781 518.321 122.005 550.311 103.786 550.311C98.9832 550.311 94.7097 548.239 92.0507 545.05C89.3917 548.239 85.1318 550.311 80.3157 550.311C61.8111 550.311 50.3203 520.022 50.3203 500.395C50.3203 491.372 58.5416 484.049 68.6757 484.049C72.7864 484.049 76.5713 485.256 79.6374 487.278C82.9611 483.083 88.442 480.347 94.6418 480.347V480.357Z" fill="#69A53A"/>
<path fill-rule="evenodd" clip-rule="evenodd" d="M87.1534 479.432C83.911 480.387 80.8856 481.936 78.5386 484.22C75.3912 482.641 71.8504 481.806 68.1739 481.806C56.5068 481.806 47.0103 490.266 47.0103 500.657C47.0103 519.469 57.9719 553.067 79.8139 553.067C84.1687 553.067 88.3608 551.589 91.5489 549.013C94.737 551.589 98.929 553.067 103.284 553.067C124.515 553.067 136.087 518.442 136.087 500.657C136.087 490.266 126.591 481.806 114.924 481.806C112.577 481.806 110.298 482.138 108.114 482.802C106.445 481.484 104.505 480.548 102.483 479.814C102.266 475.539 104.79 472.309 109.077 472.309V462.32C98.4677 462.32 88.3879 470.147 87.1669 479.432H87.1534ZM114.924 486.805C123.498 486.805 130.471 493.022 130.471 500.657C130.471 517.316 119.252 548.068 103.284 548.068C99.5124 548.068 96.0529 546.519 93.8009 543.813L93.6245 543.601C90.8976 540.292 86.3393 533.552 84.1552 529.136C83.721 533.632 85.2676 540.392 88.0487 544.99C85.8509 546.931 82.9613 548.068 79.8003 548.068C64.0225 548.068 52.5996 519.75 52.5996 500.657C52.5996 493.022 59.5728 486.805 68.1604 486.805C70.6294 486.805 73.0035 487.318 75.147 488.294C71.5384 494.018 69.8426 504.641 77.5347 512.316C75.649 506.602 74.4009 498.474 81.0213 489.461L81.4012 488.988C84.318 485.306 89.0798 483.113 94.1265 483.113C98.4407 483.113 102.443 484.652 105.414 487.439L105.685 487.69C111.546 493.525 110.433 496.784 111.057 500.305C113.852 494.189 113.309 489.974 111.817 487.097C112.835 486.916 113.866 486.815 114.91 486.815L114.924 486.805Z" fill="#231F20"/>
<path fill-rule="evenodd" clip-rule="evenodd" d="M95.4423 492.287L93.9229 489.752L92.4035 487.217C87.0583 489.762 79.0541 496.09 82.3643 505.324C84.1551 499.611 89.1204 493.474 95.4423 492.287Z" fill="white"/>
<path fill-rule="evenodd" clip-rule="evenodd" d="M66.2479 494.29L65.149 492.459L64.0501 490.628C60.1973 492.469 54.4044 497.036 56.8057 503.705C58.0945 499.581 61.6896 495.145 66.2479 494.29Z" fill="white"/>
<path d="M10.8587 589.748L10.8587 594.339C10.8587 597.473 9.50131 599.324 6.26823 599.324C3.05983 599.324 1.72711 597.572 1.72711 594.733L1.72711 585.503C1.72711 582.665 3.05983 580.937 6.26823 580.937C9.50131 580.937 10.8587 582.665 10.8587 585.503V586.663H7.74903V585.503C7.74903 584.22 7.25543 583.702 6.26823 583.702C5.33039 583.702 4.83679 584.22 4.83679 585.503V594.758C4.83679 596.066 5.33039 596.56 6.26823 596.56C7.25543 596.56 7.87243 595.992 7.87243 594.511V592.512H6.39163V589.748H10.8587ZM18.6329 581.159C22.0388 581.159 23.4455 582.912 23.4455 586.441C23.4455 588.835 22.9026 590.365 21.5452 591.204L24.0132 599.077H20.6814L18.6823 591.895H17.4236V599.077H14.3139L14.3139 581.159H18.6329ZM17.4236 589.106H18.3861C19.6942 589.106 20.3358 588.613 20.3358 586.466C20.3358 584.442 19.6942 583.948 18.3861 583.948H17.4236V589.106ZM28.84 599.077H25.8537L31.6535 581.159H41.2047V583.948H36.5155V588.243H40.3903V591.031H36.5155V596.288H41.4515V599.077H33.702V594.857H30.1234L28.84 599.077ZM33.6526 583.381L30.9872 592.167H33.702V583.381H33.6526ZM44.6578 599.077V581.159H47.4713L51.6669 592.068V581.159H54.5051V599.077H51.8397L47.5207 588.243V599.077H44.6578ZM68.8124 581.159C72.1935 581.159 73.625 582.912 73.625 586.441C73.625 590.143 72.1935 591.895 68.8124 591.895H67.603V599.077H64.4934V581.159H68.8124ZM67.603 589.106H68.5656C69.8736 589.106 70.5153 588.613 70.5153 586.466C70.5153 584.442 69.8736 583.948 68.5656 583.948H67.603V589.106ZM78.2145 595.35L77.5975 599.077H74.6112L78.0417 581.159H81.8424L85.273 599.077H82.1386L81.5216 595.35H78.2145ZM81.0527 592.562L79.868 585.404L78.6587 592.562H81.0527ZM92.3114 581.159C95.6925 581.159 97.124 582.912 97.124 586.441C97.124 590.143 95.6925 591.895 92.3114 591.895H91.1021V599.077H87.9924V581.159H92.3114ZM91.1021 589.106H92.0646C93.3726 589.106 94.0143 588.613 94.0143 586.466C94.0143 584.442 93.3726 583.948 92.0646 583.948H91.1021V589.106ZM104.531 581.159C107.937 581.159 109.343 582.912 109.343 586.441C109.343 588.835 108.801 590.365 107.443 591.204L109.911 599.077H106.579L104.58 591.895H103.322V599.077H100.212V581.159H104.531ZM103.322 589.106H104.284C105.592 589.106 106.234 588.613 106.234 586.466C106.234 584.442 105.592 583.948 104.284 583.948H103.322V589.106ZM116.071 581.159V599.077H112.986V581.159H116.071ZM123.133 581.159V587.7L126.514 581.159H129.969L125.774 588.267L130.167 599.077H126.662L123.898 590.933L123.133 592.068V599.077H120.023V581.159H123.133ZM134.877 595.35L134.26 599.077H131.274L134.704 581.159H138.505L141.936 599.077H138.801L138.184 595.35H134.877ZM137.715 592.562L136.531 585.404L135.321 592.562H137.715Z" fill="#0078AE"/>
<path d="M90.8148 627.016C90.8148 627.016 138.257 638.051 143.832 645.636C149.408 653.221 153.139 664.951 146.627 671.157C140.115 677.364 119.657 687.021 110.35 690.472C101.044 693.922 85.1982 696.004 85.1982 696.004C85.1982 696.004 102.903 688.399 102.903 670.463C102.903 652.527 101.044 639.43 96.3905 635.979C91.7373 632.529 90.8148 627.016 90.8148 627.016Z" fill="#C55450"/>
<path d="M66.6262 620.115C66.6262 620.115 100.108 631.151 103.839 642.186C107.556 653.221 106.634 678.742 98.2631 686.327C89.8926 693.912 80.586 702.885 71.293 703.569C61.9864 704.264 35.0165 700.119 30.3632 695.29C25.7099 690.462 16.4168 676.67 15.4807 667.013C14.5446 657.356 14.5446 647.015 19.1979 640.114C23.8511 633.213 26.646 628.384 32.2218 625.628C37.7976 622.872 50.8213 619.421 50.8213 619.421L66.6398 620.115H66.6262Z" fill="white"/>
<path d="M136.439 638.162C121.936 632.207 103.228 625.578 88.7257 620.528C79.7718 617.037 69.6513 615.216 59.4629 615.257C59.4629 615.257 59.4629 615.257 59.4494 615.257C53.0053 615.287 46.7241 616.403 40.8091 618.586C21.5448 625.688 9.21282 642.568 9.37562 661.611C9.60625 687.041 32.425 707.623 60.2497 707.492C61.8641 707.492 63.4651 707.412 65.0659 707.261C72.8937 706.768 80.5588 705.249 87.4641 702.704C88.1017 702.463 88.753 702.221 89.3906 701.96L136.737 684.496C148.893 680.382 156.476 671.479 156.395 661.329C156.314 651.038 148.527 642.095 136.439 638.142V638.162ZM18.4516 661.581C18.316 645.355 28.9249 630.507 44.8519 624.632C49.5187 622.912 54.4434 622.027 59.5173 621.996C82.336 621.886 101.058 639.47 101.248 661.188C101.383 677.414 90.7742 692.262 74.8472 698.137C71.4014 699.405 67.8064 700.219 64.1299 700.571C62.8139 700.652 61.5115 700.773 60.182 700.773C37.3633 700.883 18.6416 683.299 18.4516 661.581ZM132.83 678.451L98.6428 691.055C106.131 682.887 110.418 672.405 110.323 661.148C110.229 649.68 105.494 639.218 97.8153 631.171C109.415 635.295 121.909 639.882 132.396 644.188C141.54 647.196 147.251 653.785 147.306 661.39C147.373 668.864 141.757 675.131 132.817 678.44L132.83 678.451Z" fill="#231F20"/>
<path fill-rule="evenodd" clip-rule="evenodd" d="M59.5577 627.891C74.0874 627.821 86.6635 635.778 92.4563 647.276C92.7684 647.9 92.7007 648.534 92.253 649.107C91.8053 649.68 91.0998 650.043 90.218 650.153C83.1228 651.038 78.6051 655.505 71.2114 657.778C69.1357 655.434 64.7537 653.946 62.4745 653.956C60.1954 653.966 60.426 654.097 59.4628 654.348C54.4568 649.107 48.0128 639.892 44.5805 633.092C44.065 632.066 44.6483 630.929 45.9507 630.426C50.1427 628.807 54.7416 627.901 59.5577 627.881V627.891ZM95.6851 658.452C95.7801 659.368 95.821 660.293 95.8345 661.219C95.9973 679.718 80.016 694.787 60.1412 694.878C56.5596 694.898 53.1002 694.425 49.8443 693.54C48.4469 693.158 47.6735 692.071 48.0263 691.005C50.8074 682.575 57.1294 679.135 60.3175 674.558C61.0772 674.709 59.1779 674.789 62.6645 674.779C66.1511 674.759 73.9111 670.071 73.7483 664.327V663.995C80.9657 661.742 85.3476 657.316 92.3479 656.491C93.1754 656.39 93.9487 656.541 94.6135 656.933C95.2783 657.326 95.6445 657.839 95.7123 658.462L95.6851 658.452ZM36.0743 686.468C36.7933 687.062 37.8243 687.303 38.8825 687.122C39.9407 686.941 40.7276 686.388 41.0261 685.613C44.0107 677.847 50.319 674.789 53.48 670.413C52.1776 668.723 51.3909 666.56 51.3773 664.418C51.3637 662.275 51.9878 660.444 53.0731 658.835C48.1485 653.885 41.7043 645.234 38.3941 639.118C37.9871 638.373 37.1325 637.881 36.0607 637.78C34.989 637.679 33.9986 637.991 33.3474 638.645C27.3782 644.661 23.7695 652.718 23.8374 661.561C23.9188 671.479 28.6399 680.372 36.0472 686.468H36.0743Z" fill="#961600"/>
<path d="M17.2675 729.469C20.6487 729.469 22.0801 731.221 22.0801 734.75C22.0801 738.452 20.6487 740.204 17.2675 740.204H16.0582V747.386H12.9485L12.9485 729.469H17.2675ZM16.0582 737.416H17.0207C18.3288 737.416 18.9704 736.922 18.9704 734.775C18.9704 732.751 18.3288 732.257 17.0207 732.257H16.0582V737.416ZM34.1762 743.043C34.1762 745.881 32.8188 747.633 29.5857 747.633C26.3773 747.633 25.0446 745.881 25.0446 743.043V729.469H28.1543V743.067C28.1543 744.375 28.6479 744.869 29.5857 744.869C30.5729 744.869 31.0665 744.375 31.0665 743.067V729.469H34.1762V743.043ZM41.0997 729.469V744.597H46.0357V747.386H37.99V729.469H41.0997ZM52.1141 729.469V744.597H57.0501V747.386H49.0045V729.469H52.1141ZM67.8177 729.469V732.257H63.1285V736.552H67.0033V739.341H63.1285V744.597H68.0645V747.386H60.0189V729.469H67.8177ZM75.8154 729.469C79.0485 729.469 80.4059 731.221 80.4059 734.059V742.82C80.4059 745.634 79.0485 747.386 75.8154 747.386H71.2743V729.469H75.8154ZM74.384 744.597H75.5933C76.7286 744.597 77.2962 744.03 77.2962 742.574V734.281C77.2962 732.825 76.7286 732.257 75.5933 732.257H74.384V744.597ZM94.4648 729.469C97.846 729.469 99.2774 731.221 99.2774 734.75C99.2774 738.452 97.846 740.204 94.4648 740.204H93.2555V747.386H90.1458V729.469H94.4648ZM93.2555 737.416H94.218C95.5261 737.416 96.1677 736.922 96.1677 734.775C96.1677 732.751 95.5261 732.257 94.218 732.257H93.2555V737.416ZM111.25 743.043C111.25 745.881 109.893 747.633 106.66 747.633C103.451 747.633 102.119 745.881 102.119 743.043V733.812C102.119 730.974 103.451 729.246 106.66 729.246C109.893 729.246 111.25 730.974 111.25 733.812V743.043ZM105.228 743.067C105.228 744.375 105.722 744.869 106.66 744.869C107.647 744.869 108.14 744.375 108.14 743.067V733.812C108.14 732.529 107.647 732.011 106.66 732.011C105.722 732.011 105.228 732.529 105.228 733.812V743.067ZM119.265 729.469C122.671 729.469 124.078 731.221 124.078 734.75C124.078 737.144 123.535 738.674 122.178 739.513L124.646 747.386H121.314L119.315 740.204H118.056V747.386H114.946V729.469H119.265ZM118.056 737.416H119.019C120.327 737.416 120.968 736.922 120.968 734.775C120.968 732.751 120.327 732.257 119.019 732.257H118.056V737.416ZM130.83 729.469V736.009L134.211 729.469H137.666L133.471 736.576L137.864 747.386H134.359L131.595 739.242L130.83 740.377V747.386H127.72V729.469H130.83Z" fill="#0078AE"/>
<path fill-rule="evenodd" clip-rule="evenodd" d="M95.7463 767.006C113.071 767.006 158.613 774.55 152.142 807.354C145.399 841.547 88.4747 835.079 71.1368 835.079C53.7989 835.079 45.2655 819.838 52.0623 801.037C58.8591 782.236 78.4084 766.996 95.7463 766.996V767.006Z" fill="#9B0D0D"/>
<path fill-rule="evenodd" clip-rule="evenodd" d="M69.1296 767.005C86.454 767.005 95.0007 782.246 88.2039 801.047C81.4072 819.848 61.858 835.088 44.5201 835.088C27.1822 835.088 18.6488 819.848 25.4456 801.047C32.2424 782.246 51.7917 767.005 69.1296 767.005Z" fill="#E31937"/>
<path d="M44.52 838.519C36.8549 838.519 30.3158 836.114 25.6083 831.557C18.1874 824.385 16.451 812.656 20.9687 800.152C28.3759 779.63 49.5396 763.565 69.1295 763.565C76.7945 763.565 83.3335 765.969 88.041 770.526C95.4619 777.699 97.1984 789.438 92.6808 801.942C85.2735 822.454 64.1099 838.519 44.52 838.519ZM69.1295 770.436C54.0436 770.436 36.0952 784.861 29.9225 801.942C26.2053 812.223 27.372 821.981 32.9749 827.383C35.9053 830.219 39.7853 831.658 44.5336 831.658C59.6194 831.658 77.5677 817.233 83.7268 800.162C87.444 789.871 86.2773 780.123 80.688 774.721C77.7576 771.884 73.8778 770.446 69.1295 770.446V770.436Z" fill="#231F20"/>
<path d="M107.278 838.518H44.52V831.647H107.278C130.029 831.647 148.547 817.916 148.547 801.046C148.547 784.176 130.029 770.435 107.278 770.435H69.1295V763.564H107.278C135.157 763.564 157.827 780.374 157.827 801.046C157.827 821.719 135.157 838.518 107.278 838.518Z" fill="#231F20"/>
<path fill-rule="evenodd" clip-rule="evenodd" d="M152.522 800.464C157.949 797.788 163.389 795.112 168.829 792.436C170.322 791.702 172.166 791.722 173.632 792.466C175.11 793.221 175.775 794.488 175.395 795.786C173.971 800.524 173.876 805.403 175.395 810.433C175.789 811.72 175.11 812.998 173.645 813.752C172.167 814.507 170.322 814.517 168.829 813.782C163.389 811.107 157.963 808.441 152.536 805.765C151.301 805.161 150.623 804.216 150.623 803.109C150.623 802.003 151.301 801.067 152.536 800.454L152.522 800.464Z" fill="#231F20"/>
<path fill-rule="evenodd" clip-rule="evenodd" d="M53.9222 800.172C54.804 797.717 57.0017 795.735 58.8196 795.735C60.6375 795.735 61.3972 797.727 60.5154 800.172C59.6336 802.626 57.4359 804.618 55.618 804.618C53.8001 804.618 53.0403 802.626 53.9222 800.172Z" fill="white"/>
<path fill-rule="evenodd" clip-rule="evenodd" d="M48.9832 783.131C49.865 780.677 52.0628 778.695 53.8807 778.695C55.6986 778.695 56.4583 780.687 55.5765 783.131C54.6946 785.586 52.4969 787.577 50.679 787.577C48.8611 787.577 48.1014 785.586 48.9832 783.131Z" fill="white"/>
<path fill-rule="evenodd" clip-rule="evenodd" d="M66.9319 782.677C67.8137 780.223 70.0115 778.231 71.8294 778.231C73.6473 778.231 74.407 780.223 73.5252 782.677C72.6434 785.132 70.4456 787.124 68.6277 787.124C66.8098 787.124 66.0501 785.132 66.9319 782.677Z" fill="white"/>
<path fill-rule="evenodd" clip-rule="evenodd" d="M55.6716 818.6C56.5534 816.146 58.7511 814.154 60.569 814.154C62.3869 814.154 63.1467 816.146 62.2513 818.6C61.3695 821.055 59.1717 823.036 57.3538 823.036C55.5359 823.036 54.7762 821.045 55.658 818.6H55.6716Z" fill="white"/>
<path fill-rule="evenodd" clip-rule="evenodd" d="M38.1028 818.982C38.9846 816.528 41.1824 814.536 43.0003 814.536C44.8182 814.536 45.5779 816.528 44.6961 818.982C43.8143 821.437 41.6165 823.429 39.7986 823.429C37.9807 823.429 37.221 821.437 38.1028 818.982Z" fill="white"/>
<path fill-rule="evenodd" clip-rule="evenodd" d="M37.0169 803.843C37.8987 801.388 40.0965 799.407 41.9144 799.407C43.7323 799.407 44.492 801.399 43.6102 803.843C42.7283 806.298 40.5306 808.289 38.7127 808.289C36.8948 808.289 36.1351 806.298 37.0169 803.843Z" fill="white"/>
<path fill-rule="evenodd" clip-rule="evenodd" d="M71.7874 801.138C72.6692 798.683 74.867 796.702 76.6849 796.702C78.5028 796.702 79.2625 798.693 78.3807 801.138C77.4988 803.592 75.3011 805.584 73.4832 805.584C71.6653 805.584 70.9056 803.592 71.7874 801.138Z" fill="white"/>
<path fill-rule="evenodd" clip-rule="evenodd" d="M141.764 800.232C141.819 799.659 141.995 799.105 141.995 798.522C141.995 786.108 128.429 776.049 111.688 776.049C110.236 776.049 108.839 776.22 107.441 776.371C124.169 778.755 137.491 788.13 141.764 800.242V800.232Z" fill="white"/>
<path d="M28.9472 873.241C32.3284 873.241 33.7598 874.993 33.7598 878.522C33.7598 882.224 32.3284 883.976 28.9472 883.976H27.7379L27.7379 891.158H24.6282L24.6282 873.241H28.9472ZM27.7379 881.187H28.7004C30.0084 881.187 30.6501 880.694 30.6501 878.547C30.6501 876.523 30.0084 876.029 28.7004 876.029H27.7379V881.187ZM44.6466 873.241V876.029H39.9574V880.324H43.8321V883.113H39.9574V888.369H44.8934V891.158H36.8477L36.8477 873.241H44.6466ZM52.4221 873.241C55.8033 873.241 57.2347 874.993 57.2347 878.522C57.2347 882.224 55.8033 883.976 52.4221 883.976H51.2128V891.158H48.1031L48.1031 873.241H52.4221ZM51.2128 881.187H52.1753C53.4834 881.187 54.125 880.694 54.125 878.547C54.125 876.523 53.4834 876.029 52.1753 876.029H51.2128V881.187ZM64.6416 873.241C68.0228 873.241 69.4542 874.993 69.4542 878.522C69.4542 882.224 68.0228 883.976 64.6416 883.976H63.4323L63.4323 891.158H60.3226L60.3226 873.241H64.6416ZM63.4323 881.187H64.3948C65.7029 881.187 66.3445 880.694 66.3445 878.547C66.3445 876.523 65.7029 876.029 64.3948 876.029H63.4323V881.187ZM80.341 873.241V876.029H75.6518V880.324H79.5266V883.113H75.6518V888.369H80.5878V891.158H72.5421V873.241H80.341ZM88.1165 873.241C91.5224 873.241 92.9291 874.993 92.9291 878.522C92.9291 880.916 92.3862 882.446 91.0288 883.285L93.4968 891.158H90.165L88.1659 883.976H86.9072V891.158H83.7975V873.241H88.1165ZM86.9072 881.187H87.8697C89.1778 881.187 89.8195 880.694 89.8195 878.547C89.8195 876.523 89.1778 876.029 87.8697 876.029H86.9072V881.187ZM105.456 886.815C105.456 889.653 104.099 891.405 100.866 891.405C97.6573 891.405 96.3246 889.653 96.3246 886.815V877.584C96.3246 874.746 97.6573 873.018 100.866 873.018C104.099 873.018 105.456 874.746 105.456 877.584V886.815ZM99.4342 886.839C99.4342 888.147 99.9278 888.641 100.866 888.641C101.853 888.641 102.346 888.147 102.346 886.839V877.584C102.346 876.301 101.853 875.783 100.866 875.783C99.9278 875.783 99.4342 876.301 99.4342 877.584V886.839ZM109.152 891.158V873.241H111.966L116.162 884.149V873.241H119V891.158H116.334L112.015 880.324V891.158H109.152ZM126.023 873.241V891.158H122.938V873.241H126.023Z" fill="#0078AE"/>
</svg>
