<svg width="184" height="835" viewBox="0 0 184 835" fill="none" xmlns="http://www.w3.org/2000/svg">
<path fill-rule="evenodd" clip-rule="evenodd" d="M41.7403 11.2535C33.3603 2.8735 21.8303 -0.176494 11.8703 2.35351C8.39029 3.23351 5.86029 5.76349 4.98029 9.24349C2.46029 19.2035 5.50029 30.7335 13.8803 39.1135C23.7303 48.9635 37.9203 51.4435 48.8103 46.1835C54.0703 35.2935 51.5903 21.1035 41.7403 11.2635V11.2535Z" fill="#B6EF18"/>
<path d="M12.81 40.1736C4.33004 31.6936 0.770049 19.6936 3.51005 8.86356C4.52005 4.87356 7.50005 1.88357 11.5 0.873571C22.13 -1.81643 34.46 1.82356 42.81 10.1736C52.92 20.2836 55.88 35.0136 50.17 46.8236L49.94 47.3036L49.47 47.5336C45.56 49.4236 41.2901 50.3836 36.7701 50.3836C28.0401 50.3836 19.3 46.6636 12.82 40.1736H12.81ZM40.67 12.3236C33.06 4.71358 21.87 1.38357 12.24 3.81357C9.30004 4.55357 7.19005 6.67356 6.44005 9.61356C3.96005 19.4136 7.22004 30.3036 14.95 38.0336C20.87 43.9636 28.82 47.3536 36.76 47.3536C40.63 47.3536 44.3 46.5736 47.67 45.0336C52.51 34.4536 49.73 21.3736 40.67 12.3136V12.3236Z" fill="#231F20"/>
<path fill-rule="evenodd" clip-rule="evenodd" d="M55.4901 50.2636C43.1201 36.0436 25.0101 26.3236 15.0601 10.7336C20.2101 27.9036 41.4201 39.0737 51.8701 53.3137L55.4901 50.2636Z" fill="#231F20"/>
<path fill-rule="evenodd" clip-rule="evenodd" d="M34.5098 33.2336C23.0798 35.0236 19.1298 34.2636 14.8198 31.7236C21.8598 38.6936 34.9798 36.2236 35.0198 36.2136L34.5098 33.2336Z" fill="#231F20"/>
<path fill-rule="evenodd" clip-rule="evenodd" d="M38.2803 37.9935C42.9603 27.4135 43.2503 23.4035 41.9203 18.5835C46.8303 27.1935 41.0403 39.2235 41.0303 39.2535L38.2803 37.9935Z" fill="#231F20"/>
<path fill-rule="evenodd" clip-rule="evenodd" d="M27.9199 27.3736C30.6699 21.1636 30.8399 18.8136 30.0599 15.9736C32.9399 21.0236 29.5499 28.0936 29.5399 28.1136L27.9299 27.3736H27.9199Z" fill="#231F20"/>
<path d="M11.4022 128.916L7.97164 146.834H4.17092L0.7404 128.916H3.99816L6.14532 141.898L8.29248 128.916H11.4022ZM21.9205 128.916V131.705H17.2313V135.999H21.106V138.788H17.2313V144.045H22.1673V146.834H14.1216V128.916H21.9205ZM34.2618 137.505V142.095C34.2618 145.23 32.9044 147.081 29.6713 147.081C26.4629 147.081 25.1302 145.329 25.1302 142.49V133.26C25.1302 130.422 26.4629 128.694 29.6713 128.694C32.9044 128.694 34.2618 130.422 34.2618 133.26V134.42H31.1521V133.26C31.1521 131.977 30.6585 131.458 29.6713 131.458C28.7335 131.458 28.2399 131.977 28.2399 133.26V142.515C28.2399 143.823 28.7335 144.317 29.6713 144.317C30.6585 144.317 31.2755 143.749 31.2755 142.268V140.269H29.7947V137.505H34.2618ZM40.0863 143.107L39.4693 146.834H36.483L39.9135 128.916H43.7143L47.1448 146.834H44.0104L43.3934 143.107H40.0863ZM42.9245 140.318L41.7399 133.161L40.5305 140.318H42.9245ZM49.8642 146.834V128.916H52.6777L56.8733 139.825V128.916H59.7115V146.834H57.0461L52.7271 135.999V146.834H49.8642ZM72.8095 128.916V135.457L76.1906 128.916H79.6458L75.4502 136.024L79.8433 146.834H76.3387L73.5745 138.69L72.8095 139.825V146.834H69.6998V128.916H72.8095ZM82.5184 144.317C83.3328 144.317 83.7524 143.872 83.7524 142.737V128.916H86.862V142.984C86.862 145.625 85.7761 147.081 82.7652 147.081H81.4324V144.317H82.5184ZM95.7763 127.46H93.3577L94.8878 124.4H98.0716L95.7763 127.46ZM99.7005 142.49C99.7005 145.329 98.3431 147.081 95.11 147.081C91.9016 147.081 90.5688 145.329 90.5688 142.49V128.916H93.6785V142.515C93.6785 143.823 94.1721 144.317 95.11 144.317C96.0972 144.317 96.5908 143.823 96.5908 142.515V128.916H99.7005V142.49ZM106.624 128.916V135.457L110.005 128.916H113.46L109.265 136.024L113.658 146.834H110.153L107.389 138.69L106.624 139.825V146.834H103.514V128.916H106.624ZM119.109 128.916V144.045H124.045V146.834H115.999V128.916H119.109ZM130.098 128.916V146.834H127.013V128.916H130.098ZM134.051 146.834V128.916H136.864L141.06 139.825V128.916H143.898V146.834H141.233L136.914 135.999V146.834H134.051ZM156.722 137.505V142.095C156.722 145.23 155.364 147.081 152.131 147.081C148.923 147.081 147.59 145.329 147.59 142.49V133.26C147.59 130.422 148.923 128.694 152.131 128.694C155.364 128.694 156.722 130.422 156.722 133.26V134.42H153.612V133.26C153.612 131.977 153.119 131.458 152.131 131.458C151.194 131.458 150.7 131.977 150.7 133.26V142.515C150.7 143.823 151.194 144.317 152.131 144.317C153.119 144.317 153.736 143.749 153.736 142.268V140.269H152.255V137.505H156.722ZM169.185 142.49C169.185 145.329 167.828 147.081 164.595 147.081C161.386 147.081 160.054 145.329 160.054 142.49V128.916H163.163V142.515C163.163 143.823 163.657 144.317 164.595 144.317C165.582 144.317 166.076 143.823 166.076 142.515V128.916H169.185V142.49ZM177.318 128.916C180.724 128.916 182.131 130.669 182.131 134.198C182.131 136.592 181.588 138.122 180.23 138.961L182.698 146.834H179.367L177.367 139.652H176.109V146.834H172.999V128.916H177.318ZM176.109 136.863H177.071C178.379 136.863 179.021 136.37 179.021 134.223C179.021 132.199 178.379 131.705 177.071 131.705H176.109V136.863Z" fill="#0078AE"/>
<path fill-rule="evenodd" clip-rule="evenodd" d="M106.208 42.3146C110.048 43.7546 114.278 45.2746 116.918 46.3346C140.508 55.7946 133.898 91.4146 108.218 91.4146H59.708C42.698 91.4146 28.8979 77.6246 28.8979 60.6046C28.8979 43.5846 42.688 29.7946 59.708 29.7946C61.068 29.7546 62.5279 29.8146 64.0879 29.9546C68.1079 27.7446 73.308 26.1346 79.798 25.4946C89.218 24.5646 98.4579 26.1546 102.758 30.1246C106.148 33.2446 106.998 37.6446 106.198 42.3046L106.208 42.3146Z" fill="#F89A2C"/>
<path fill-rule="evenodd" clip-rule="evenodd" d="M81.018 44.0046C76.228 40.7746 66.038 42.7146 63.168 49.3146C64.548 34.3846 78.558 34.3146 84.358 39.4046L81.018 44.0046Z" fill="white"/>
<path fill-rule="evenodd" clip-rule="evenodd" d="M118.058 43.4745C116.278 42.7645 113.768 41.8245 111.138 40.8545C109.578 40.2745 107.988 39.6845 106.478 39.1145C106.478 37.7945 106.248 36.5445 105.908 35.3445L108.088 33.6445C109.858 35.6945 114.168 36.6945 116.868 34.5845C120.958 31.3945 119.518 23.4445 113.178 23.2345C114.518 17.0345 107.148 13.7045 103.068 16.8845C100.368 18.9845 100.288 23.4145 101.848 25.6345L99.0781 27.7945C94.2081 25.5745 87.0781 24.7845 79.8181 25.4945C75.9481 25.8745 72.5481 26.6145 69.5681 27.6045C65.7981 26.9445 62.4881 26.6145 59.7181 26.7145C41.0281 26.7145 25.8281 41.9145 25.8281 60.6045C25.8281 79.2945 41.0281 94.4845 59.7181 94.4845H108.228C123.218 94.4845 131.998 83.7245 134.058 73.0745C136.128 62.3545 131.988 49.0445 118.068 43.4645L118.058 43.4745ZM127.998 71.9145C126.538 79.4945 120.478 88.3345 108.218 88.3345H59.7081C44.4181 88.3345 31.9781 75.8945 31.9781 60.6145C31.9781 45.3345 44.4181 32.8845 59.7881 32.8845C59.8081 32.8845 59.8381 32.8845 59.8581 32.8845C49.7081 41.4445 51.4081 54.7045 60.5081 59.5645C49.4281 40.3545 68.8181 30.6945 84.1881 31.6045C99.5581 32.5145 110.918 44.0045 83.7781 67.0845C91.7981 66.6145 102.218 55.8045 105.458 45.3245C106.628 45.7645 107.818 46.2045 108.988 46.6345C111.558 47.5845 114.008 48.4845 115.758 49.1845C126.418 53.4545 129.578 63.6745 127.988 71.9045L127.998 71.9145Z" fill="#231F20"/>
<path d="M97.8368 164.523C97.8368 164.523 132.807 175.493 136.917 183.033C141.027 190.573 143.777 202.233 138.977 208.403C134.177 214.573 119.097 224.173 112.237 227.603C105.377 231.033 93.6968 233.103 93.6968 233.103C93.6968 233.103 106.747 225.543 106.747 207.713C106.747 189.883 105.377 176.863 101.947 173.433C98.5168 170.003 97.8368 164.523 97.8368 164.523Z" fill="#C55450"/>
<path d="M80.0158 157.665C80.0158 157.665 104.696 168.635 107.446 179.605C110.186 190.575 109.506 215.945 103.336 223.485C97.1657 231.025 90.3058 239.945 83.4558 240.625C76.5958 241.315 56.7157 237.195 53.2857 232.395C49.8557 227.595 43.0057 213.885 42.3157 204.285C41.6257 194.685 41.6257 184.405 45.0557 177.545C48.4857 170.685 50.5457 165.885 54.6557 163.145C58.7657 160.405 68.3657 156.975 68.3657 156.975L80.0257 157.665H80.0158Z" fill="white"/>
<path d="M131.475 175.605C120.785 169.685 106.995 163.095 96.3051 158.075C89.7051 154.605 82.2452 152.795 74.7352 152.835C74.7352 152.835 74.7351 152.835 74.7251 152.835C69.9751 152.865 65.3452 153.975 60.9852 156.145C46.7852 163.205 37.6951 179.985 37.8151 198.915C37.9851 224.195 54.8051 244.665 75.3151 244.525C76.5051 244.525 77.6851 244.445 78.8651 244.295C84.6351 243.805 90.2851 242.295 95.3751 239.765C95.8551 239.525 96.3252 239.285 96.7952 239.025L131.695 221.665C140.655 217.575 146.245 208.725 146.185 198.635C146.125 188.405 140.385 179.515 131.475 175.585V175.605ZM44.5051 198.885C44.4051 182.755 52.2251 167.995 63.9651 162.155C67.4051 160.445 71.0451 159.565 74.7751 159.535C91.5951 159.425 105.395 176.905 105.535 198.495C105.635 214.625 97.8151 229.385 86.0751 235.225C83.5351 236.485 80.8852 237.295 78.1752 237.645C77.2052 237.725 76.2452 237.845 75.2652 237.845C58.4452 237.955 44.6451 220.475 44.5051 198.885ZM128.815 215.655L103.615 228.185C109.135 220.065 112.295 209.645 112.225 198.455C112.145 187.055 108.665 176.655 103.005 168.655C111.555 172.755 120.765 177.315 128.495 181.595C135.235 184.585 139.445 191.135 139.485 198.695C139.535 206.125 135.395 212.355 128.805 215.645L128.815 215.655Z" fill="#231F20"/>
<path fill-rule="evenodd" clip-rule="evenodd" d="M74.8048 165.395C85.5148 165.325 94.7848 173.235 99.0548 184.665C99.2848 185.285 99.2348 185.915 98.9048 186.485C98.5748 187.055 98.0548 187.415 97.4048 187.525C92.1748 188.405 88.8448 192.845 83.3948 195.105C81.8648 192.775 78.6348 191.295 76.9548 191.305C75.2748 191.315 75.4448 191.445 74.7348 191.695C71.0448 186.485 66.2948 177.325 63.7648 170.565C63.3848 169.545 63.8148 168.415 64.7748 167.915C67.8648 166.305 71.2548 165.405 74.8048 165.385V165.395ZM101.435 195.775C101.505 196.685 101.535 197.605 101.545 198.525C101.665 216.915 89.8848 231.895 75.2348 231.985C72.5948 232.005 70.0448 231.535 67.6448 230.655C66.6148 230.275 66.0448 229.195 66.3048 228.135C68.3548 219.755 73.0148 216.335 75.3648 211.785C75.9248 211.935 74.5248 212.015 77.0948 212.005C79.6648 211.985 85.3848 207.325 85.2648 201.615V201.285C90.5848 199.045 93.8148 194.645 98.9748 193.825C99.5848 193.725 100.155 193.875 100.645 194.265C101.135 194.655 101.405 195.165 101.455 195.785L101.435 195.775ZM57.4948 223.625C58.0248 224.215 58.7848 224.455 59.5648 224.275C60.3448 224.095 60.9248 223.545 61.1448 222.775C63.3448 215.055 67.9948 212.015 70.3248 207.665C69.3648 205.985 68.7848 203.835 68.7748 201.705C68.7648 199.575 69.2248 197.755 70.0248 196.155C66.3948 191.235 61.6448 182.635 59.2048 176.555C58.9048 175.815 58.2748 175.325 57.4848 175.225C56.6948 175.125 55.9648 175.435 55.4848 176.085C51.0848 182.065 48.4248 190.075 48.4748 198.865C48.5348 208.725 52.0148 217.565 57.4748 223.625H57.4948Z" fill="#FFADA7"/>
<path d="M54.2164 282.58C54.2164 283.888 54.7594 284.382 55.7466 284.382C56.7585 284.382 57.3261 283.814 57.3261 282.506C57.3261 281.001 56.1168 279.989 54.9075 279.026C53.2292 277.694 51.3042 276.089 51.3042 273.103C51.3042 270.438 53.1305 268.784 55.7466 268.784C58.8069 268.784 60.189 270.512 60.189 273.35V274.189H57.0793V273.35C57.0793 272.066 56.6104 271.548 55.7713 271.548C54.8828 271.548 54.4139 272.091 54.4139 273.103C54.4139 274.609 55.7713 275.719 56.9559 276.632C58.6835 277.965 60.4358 279.495 60.4358 282.481C60.4358 285.443 58.5107 287.171 55.7713 287.171C52.5629 287.171 51.1067 285.418 51.1067 282.58V281.371H54.2164V282.58ZM66.6719 269.006V275.546L70.0531 269.006H73.5083L69.3127 276.114L73.7057 286.924H70.2012L67.437 278.779L66.6719 279.915V286.924H63.5622V269.006H66.6719ZM79.1318 269.006V286.924H76.0468V269.006H79.1318ZM83.0845 286.924V269.006H85.898L90.0936 279.915V269.006H92.9318V286.924H90.2664L85.9474 276.089V286.924H83.0845ZM99.9803 269.006V275.546L103.361 269.006H106.817L102.621 276.114L107.014 286.924H103.51L100.745 278.779L99.9803 279.915V286.924H96.8706V269.006H99.9803ZM111.724 283.197L111.107 286.924H108.121L111.552 269.006H115.352L118.783 286.924H115.649L115.032 283.197H111.724ZM114.563 280.408L113.378 273.251L112.169 280.408H114.563Z" fill="#0078AE"/>
<path fill-rule="evenodd" clip-rule="evenodd" d="M51.0842 296.514H146.464V312.714C142.584 312.714 139.434 315.864 139.434 319.744C139.434 323.624 142.584 326.774 146.464 326.774V375.534H51.0842C37.6942 375.534 26.7441 364.584 26.7441 351.194V320.864C26.7441 307.474 37.6942 296.524 51.0842 296.524V296.514Z" fill="#F8DE18"/>
<path d="M146.454 316.304H150.044V292.924H51.0843C35.6843 292.924 23.1543 305.454 23.1543 320.864V351.194C23.1543 366.594 35.6843 379.134 51.0843 379.134H150.044V323.184H146.454C144.554 323.184 143.014 321.644 143.014 319.744C143.014 317.844 144.554 316.304 146.454 316.304ZM30.3243 351.184V320.854C30.3243 309.554 39.4143 300.384 50.6543 300.144C44.9943 305.264 41.4043 312.634 41.4043 320.854V351.184C41.4043 359.404 44.9943 366.774 50.6543 371.894C39.4143 371.664 30.3243 362.484 30.3243 351.184ZM142.864 309.744C138.764 311.214 135.834 315.144 135.834 319.734C135.834 324.324 138.764 328.254 142.864 329.724V371.934H69.3343C57.8943 371.934 48.5843 362.624 48.5843 351.184V320.854C48.5843 309.414 57.8943 300.104 69.3343 300.104H142.864V309.744Z" fill="#231F20"/>
<path d="M67.3857 314.484H60.0957V321.774H67.3857V314.484Z" fill="#961600"/>
<path d="M93.6443 309.385H88.9043V314.125H93.6443V309.385Z" fill="#961600"/>
<path d="M89.9932 321.773H79.7832V331.983H89.9932V321.773Z" fill="#961600"/>
<path d="M68.856 341.104H66.666V343.294H68.856V341.104Z" fill="#961600"/>
<path d="M97.6565 346.934H93.6465V350.944H97.6565V346.934Z" fill="#961600"/>
<path d="M118.075 338.184H114.795V341.464H118.075V338.184Z" fill="#961600"/>
<path d="M117.714 313.023H114.064V316.673H117.714V313.023Z" fill="#961600"/>
<path d="M134.846 353.135H128.646V359.335H134.846V353.135Z" fill="#961600"/>
<path d="M108.223 325.795H104.943V329.075H108.223V325.795Z" fill="#961600"/>
<path d="M75.4139 356.055H70.6738V360.795H75.4139V356.055Z" fill="#961600"/>
<path d="M36.9398 406.307C40.7511 406.307 42.3647 408.282 42.3647 412.26C42.3647 416.433 40.7511 418.408 36.9398 418.408H35.5766V426.504H32.0713V406.307H36.9398ZM35.5766 415.265H36.6616C38.1361 415.265 38.8594 414.708 38.8594 412.288C38.8594 410.007 38.1361 409.45 36.6616 409.45H35.5766V415.265ZM49.323 406.307V426.504H45.8455V406.307H49.323ZM58.647 406.307C62.4584 406.307 64.0719 408.282 64.0719 412.26C64.0719 416.433 62.4584 418.408 58.647 418.408H57.2838V426.504H53.7785V406.307H58.647ZM57.2838 415.265H58.3688C59.8433 415.265 60.5666 414.708 60.5666 412.288C60.5666 410.007 59.8433 409.45 58.3688 409.45H57.2838V415.265ZM69.2453 422.303L68.5498 426.504H65.1836L69.0506 406.307H73.3349L77.2019 426.504H73.6687L72.9732 422.303H69.2453ZM72.4446 419.159L71.1093 411.092L69.7461 419.159H72.4446ZM85.1358 406.307C88.9749 406.307 90.5607 408.282 90.5607 412.26C90.5607 414.959 89.9486 416.683 88.4185 417.629L91.2005 426.504H87.4448L85.1914 418.408H83.7726V426.504H80.2673V406.307H85.1358ZM83.7726 415.265H84.8576C86.332 415.265 87.0554 414.708 87.0554 412.288C87.0554 410.007 86.332 409.45 84.8576 409.45H83.7726V415.265ZM104.682 421.608C104.682 424.807 103.151 426.782 99.507 426.782C95.8904 426.782 94.3881 424.807 94.3881 421.608V411.203C94.3881 408.004 95.8904 406.056 99.507 406.056C103.151 406.056 104.682 408.004 104.682 411.203V421.608ZM97.8934 421.635C97.8934 423.11 98.4498 423.666 99.507 423.666C100.62 423.666 101.176 423.11 101.176 421.635V411.203C101.176 409.756 100.62 409.172 99.507 409.172C98.4498 409.172 97.8934 409.756 97.8934 411.203V421.635ZM111.435 421.608C111.435 423.082 112.047 423.638 113.16 423.638C114.301 423.638 114.941 422.999 114.941 421.524C114.941 419.827 113.577 418.686 112.214 417.602C110.322 416.099 108.152 414.291 108.152 410.925C108.152 407.92 110.211 406.056 113.16 406.056C116.61 406.056 118.168 408.004 118.168 411.203V412.149H114.662V411.203C114.662 409.756 114.134 409.172 113.188 409.172C112.186 409.172 111.658 409.784 111.658 410.925C111.658 412.622 113.188 413.874 114.523 414.903C116.471 416.405 118.446 418.13 118.446 421.496C118.446 424.835 116.276 426.782 113.188 426.782C109.571 426.782 107.93 424.807 107.93 421.608V420.244H111.435V421.608ZM130.845 406.307V409.45H127.451V426.504H123.973V409.45H120.579V406.307H130.845ZM144.051 421.608C144.051 424.807 142.521 426.782 138.877 426.782C135.26 426.782 133.758 424.807 133.758 421.608V406.307H137.263V421.635C137.263 423.11 137.819 423.666 138.877 423.666C139.989 423.666 140.546 423.11 140.546 421.635V406.307H144.051V421.608ZM153.219 406.307C157.058 406.307 158.644 408.282 158.644 412.26C158.644 414.959 158.032 416.683 156.501 417.629L159.283 426.504H155.528L153.274 418.408H151.856V426.504H148.35V406.307H153.219ZM151.856 415.265H152.941C154.415 415.265 155.138 414.708 155.138 412.288C155.138 410.007 154.415 409.45 152.941 409.45H151.856V415.265Z" fill="#0078AE"/>
<path fill-rule="evenodd" clip-rule="evenodd" d="M84.6997 441.144C85.9597 441.704 87.0997 442.424 88.1297 443.264C84.8197 448.994 84.4597 457.004 87.7997 464.504C88.7897 466.724 90.0297 468.734 91.4497 470.504C86.0997 480.774 75.2397 485.904 66.5097 482.014C57.3497 477.934 53.9897 465.484 59.0097 454.194C64.0297 442.904 75.5297 437.064 84.6997 441.144Z" fill="#231F20"/>
<path d="M72.6996 486.184C70.1296 486.184 67.6496 485.664 65.3496 484.634C60.1096 482.304 56.3196 477.654 54.6796 471.544C53.0896 465.654 53.6996 459.074 56.3996 453.014C60.6796 443.414 69.5696 436.954 78.5396 436.954C81.1096 436.954 83.5796 437.474 85.8896 438.504C87.3596 439.164 88.7296 440.014 89.9796 441.034L91.8696 442.584L90.6496 444.704C87.6896 449.824 87.6196 456.964 90.4596 463.334C91.3196 465.274 92.4196 467.074 93.7196 468.684L94.8996 470.154L94.0296 471.824C89.4896 480.544 81.1296 486.184 72.7096 486.184H72.6996ZM78.5296 442.724C71.7996 442.724 65.0196 447.804 61.6496 455.364C59.4896 460.214 58.9796 465.434 60.2296 470.054C61.4096 474.454 64.0596 477.774 67.6796 479.374C74.4196 482.394 83.2396 478.474 88.0196 470.724C86.9196 469.154 85.9596 467.454 85.1696 465.674C81.9596 458.454 81.7296 450.644 84.4396 444.224C84.1396 444.054 83.8396 443.904 83.5196 443.764C81.9596 443.074 80.2696 442.724 78.5196 442.724H78.5296Z" fill="#231F20"/>
<path fill-rule="evenodd" clip-rule="evenodd" d="M95.2998 436.694C86.1398 440.774 82.7798 453.224 87.7998 464.514C92.8198 475.804 104.32 481.644 113.49 477.564C122.65 473.484 126.01 461.034 120.99 449.744C115.97 438.454 104.47 432.614 95.2998 436.694Z" fill="#231F20"/>
<path d="M107.32 481.734C98.3497 481.734 89.4597 475.284 85.1897 465.674C82.4897 459.614 81.8796 453.034 83.4696 447.144C85.1196 441.044 88.9097 436.394 94.1397 434.054C96.4497 433.024 98.9197 432.504 101.49 432.504C110.45 432.504 119.35 438.954 123.62 448.554C129.27 461.274 125.26 475.454 114.67 480.184C112.36 481.214 109.89 481.734 107.32 481.734ZM101.49 438.274C99.7297 438.274 98.0397 438.624 96.4797 439.324C92.8597 440.934 90.2096 444.254 89.0296 448.644C87.7796 453.264 88.2897 458.474 90.4497 463.334C93.8097 470.894 100.6 475.974 107.33 475.974C109.08 475.974 110.77 475.624 112.34 474.924C120.03 471.494 122.74 460.724 118.37 450.904C115 443.344 108.22 438.274 101.5 438.274H101.49Z" fill="#231F20"/>
<path fill-rule="evenodd" clip-rule="evenodd" d="M99.9996 447.244C95.1496 449.614 94.4996 460.914 95.9496 464.174C89.6396 458.734 90.9996 444.704 97.8296 442.394L99.9996 447.254V447.244Z" fill="white"/>
<path fill-rule="evenodd" clip-rule="evenodd" d="M78.4595 451.394C73.0695 451.024 66.8695 460.484 66.4895 464.034C63.7495 456.164 71.9395 444.694 79.0095 446.104L78.4595 451.394Z" fill="white"/>
<path d="M17.7696 532.061C17.7696 533.369 18.3126 533.862 19.2998 533.862C20.3117 533.862 20.8793 533.295 20.8793 531.987C20.8793 530.481 19.67 529.469 18.4607 528.507C16.7824 527.174 14.8574 525.57 14.8574 522.583C14.8574 519.918 16.6837 518.264 19.2998 518.264C22.3601 518.264 23.7422 519.992 23.7422 522.83V523.669H20.6325V522.83C20.6325 521.547 20.1636 521.029 19.3245 521.029C18.436 521.029 17.9671 521.572 17.9671 522.583C17.9671 524.089 19.3245 525.2 20.5091 526.113C22.2367 527.445 23.989 528.976 23.989 531.962C23.989 534.923 22.064 536.651 19.3245 536.651C16.1161 536.651 14.66 534.899 14.66 532.061V530.851H17.7696V532.061ZM36.5432 518.487L33.1127 536.404H29.312L25.8815 518.487H29.1392L31.2864 531.468L33.4335 518.487H36.5432ZM41.1499 532.678L40.5329 536.404H37.5466L40.9771 518.487H44.7779L48.2084 536.404H45.074L44.457 532.678H41.1499ZM43.9881 529.889L42.8035 522.732L41.5941 529.889H43.9881ZM55.2468 518.487C58.6526 518.487 60.0594 520.239 60.0594 523.768C60.0594 526.162 59.5164 527.692 58.159 528.531L60.627 536.404H57.2952L55.2962 529.222H54.0375V536.404H50.9278V518.487H55.2468ZM54.0375 526.434H55C56.308 526.434 56.9497 525.94 56.9497 523.793C56.9497 521.769 56.308 521.275 55 521.275H54.0375V526.434ZM71.454 518.487V521.275H68.4431V536.404H65.3581V521.275H62.3471V518.487H71.454ZM75.6633 532.678L75.0463 536.404H72.06L75.4906 518.487H79.2913L82.7218 536.404H79.5874L78.9704 532.678H75.6633ZM78.5015 529.889L77.3169 522.732L76.1076 529.889H78.5015ZM89.7602 518.487C93.1661 518.487 94.5728 520.239 94.5728 523.768C94.5728 526.162 94.0299 527.692 92.6725 528.531L95.1405 536.404H91.8087L89.8096 529.222H88.5509V536.404H85.4412V518.487H89.7602ZM88.5509 526.434H89.5134C90.8215 526.434 91.4632 525.94 91.4632 523.793C91.4632 521.769 90.8215 521.275 89.5134 521.275H88.5509V526.434ZM109.398 517.03H106.979L108.51 513.97H111.693L109.398 517.03ZM113.149 532.061C113.149 534.899 111.792 536.651 108.559 536.651C105.35 536.651 104.018 534.899 104.018 532.061V522.83C104.018 519.992 105.35 518.264 108.559 518.264C111.792 518.264 113.149 519.992 113.149 522.83V532.061ZM107.127 532.085C107.127 533.393 107.621 533.887 108.559 533.887C109.546 533.887 110.04 533.393 110.04 532.085V522.83C110.04 521.547 109.546 521.029 108.559 521.029C107.621 521.029 107.127 521.547 107.127 522.83V532.085ZM119.955 518.487V533.615H124.891V536.404H116.846V518.487H119.955ZM130.254 517.03H127.835L129.365 513.97H132.549L130.254 517.03ZM130.945 518.487V536.404H127.86V518.487H130.945ZM142.943 518.487V521.275H138.007V525.817H142.129V528.605H138.007V536.404H134.898V518.487H142.943ZM154.92 532.061C154.92 534.899 153.563 536.651 150.33 536.651C147.121 536.651 145.789 534.899 145.789 532.061V518.487H148.898V532.085C148.898 533.393 149.392 533.887 150.33 533.887C151.317 533.887 151.811 533.393 151.811 532.085V518.487H154.92V532.061ZM163.053 518.487C166.459 518.487 167.866 520.239 167.866 523.768C167.866 526.162 167.323 527.692 165.965 528.531L168.433 536.404H165.102L163.102 529.222H161.844V536.404H158.734V518.487H163.053ZM161.844 526.434H162.806C164.114 526.434 164.756 525.94 164.756 523.793C164.756 521.769 164.114 521.275 162.806 521.275H161.844V526.434Z" fill="#0078AE"/>
<path d="M92.2609 549.492C91.8009 547.832 91.1908 545.292 90.7008 543.192C90.4508 542.142 89.2208 542.142 88.9708 543.192C88.4808 545.302 87.8708 547.832 87.4108 549.492C86.6408 552.292 85.0908 555.742 85.0908 555.742L85.7008 555.922C85.8308 555.962 85.9608 556.042 86.0608 556.152L89.2609 559.442C89.5909 559.782 90.0808 559.782 90.4208 559.442L93.6208 556.152C93.7208 556.042 93.8508 555.972 93.9808 555.922L94.5908 555.742C94.5908 555.742 93.0409 552.292 92.2709 549.492H92.2609Z" fill="#7EBE50" stroke="#231F20" stroke-width="2.71" stroke-miterlimit="10"/>
<path d="M83.3812 553.392C80.9212 551.802 78.4111 550.792 76.1011 550.362C75.3511 550.222 74.9411 551.332 75.5411 551.882C77.3511 553.542 79.1011 555.782 80.5911 558.472C83.2411 563.282 84.4111 568.412 84.0311 572.282C83.9811 572.782 84.3111 573.212 84.7311 573.232C88.0911 573.432 90.8211 572.282 91.9911 569.762C94.1211 565.182 90.2612 557.852 83.3812 553.392Z" fill="#7EBE50" stroke="#231F20" stroke-width="2.71" stroke-miterlimit="10"/>
<path d="M96.8211 553.322C99.3711 551.872 101.931 551.012 104.261 550.722C105.021 550.622 105.361 551.762 104.731 552.272C102.831 553.822 100.951 555.952 99.3111 558.562C96.3811 563.212 94.9211 568.262 95.0811 572.152C95.1011 572.652 94.7511 573.062 94.3211 573.062C90.9511 573.062 88.2912 571.762 87.2712 569.182C85.4112 564.482 89.6911 557.392 96.8211 553.332V553.322Z" fill="#446B2C" stroke="#231F20" stroke-width="3.02" stroke-miterlimit="10"/>
<path d="M78.571 560.762C75.391 559.572 72.3011 559.062 69.5811 559.142C68.7011 559.172 68.511 560.532 69.321 561.002C71.781 562.422 74.321 564.522 76.671 567.202C80.871 571.992 83.4711 577.492 84.0011 581.972C84.0711 582.542 84.551 582.952 85.031 582.872C88.881 582.262 91.6911 580.272 92.3811 577.142C93.6511 571.422 87.461 564.092 78.551 560.762H78.571Z" fill="#7EBE50" stroke="#231F20" stroke-width="3.14" stroke-miterlimit="10"/>
<path d="M100.161 561.762C103.411 560.392 106.601 559.732 109.431 559.702C110.351 559.702 110.601 561.102 109.781 561.622C107.281 563.202 104.731 565.492 102.401 568.372C98.241 573.522 95.771 579.342 95.401 584.022C95.351 584.622 94.8711 585.062 94.3711 585.002C90.3411 584.532 87.3511 582.582 86.4911 579.352C84.9311 573.472 91.061 565.592 100.161 561.752V561.762Z" fill="#446B2C" stroke="#231F20" stroke-width="3.02" stroke-miterlimit="10"/>
<path d="M73.6011 570.392C70.1711 569.372 66.8811 569.052 64.0211 569.342C63.0911 569.432 62.9911 570.882 63.8811 571.322C66.5711 572.642 69.401 574.672 72.071 577.322C76.841 582.052 79.9711 587.662 80.8611 592.342C80.9711 592.942 81.5111 593.332 82.0111 593.222C86.0211 592.302 88.831 590.012 89.341 586.652C90.261 580.542 83.2211 573.272 73.6011 570.402V570.392Z" fill="#7EBE50" stroke="#231F20" stroke-width="3.32" stroke-miterlimit="10"/>
<path d="M104.981 570.392C108.411 569.372 111.701 569.052 114.561 569.342C115.491 569.432 115.591 570.882 114.701 571.322C112.011 572.642 109.181 574.672 106.511 577.322C101.741 582.052 98.611 587.662 97.721 592.342C97.611 592.942 97.0709 593.332 96.5709 593.222C92.5609 592.302 89.751 590.012 89.241 586.652C88.321 580.542 95.361 573.272 104.981 570.402V570.392Z" fill="#446B2C" stroke="#231F20" stroke-width="3.02" stroke-miterlimit="10"/>
<path d="M113.281 606.812C113.281 593.518 102.507 582.742 89.2159 582.742C75.9252 582.742 65.1509 593.518 65.1509 606.812V626.422C65.1509 639.715 75.9252 650.492 89.2159 650.492C102.507 650.492 113.281 639.715 113.281 626.422V606.812Z" fill="#FFAF00" stroke="#231F20" stroke-width="3.32" stroke-miterlimit="10"/>
<path d="M81.1711 639.892C81.1711 635.722 78.1412 631.992 73.3512 629.342C70.3512 631.002 68.0512 633.082 66.7412 635.422" stroke="#231F20" stroke-width="2.74" stroke-miterlimit="10"/>
<path d="M96.9413 639.892C96.9413 635.722 93.9113 631.992 89.1213 629.342C84.3313 631.992 81.3013 635.722 81.3013 639.892" stroke="#231F20" stroke-width="2.74" stroke-miterlimit="10"/>
<path d="M111.201 635.032C109.861 632.852 107.651 630.912 104.821 629.342C100.031 631.992 97.001 635.722 97.001 639.892" stroke="#231F20" stroke-width="2.74" stroke-miterlimit="10"/>
<path d="M88.9911 649.942C88.9911 645.772 85.961 642.042 81.171 639.392C78.171 641.052 75.871 643.132 74.561 645.472" stroke="#231F20" stroke-width="2.74" stroke-miterlimit="10"/>
<path d="M103.551 645.592C102.251 643.202 99.9211 641.082 96.8811 639.392C92.0911 642.042 89.061 645.772 89.061 649.942" stroke="#231F20" stroke-width="2.74" stroke-miterlimit="10"/>
<path d="M73.2312 629.682C73.2312 625.512 70.2011 621.782 65.4111 619.132" stroke="#231F20" stroke-width="2.74" stroke-miterlimit="10"/>
<path d="M88.9911 629.682C88.9911 625.512 85.961 621.782 81.171 619.132C76.381 621.782 73.3511 625.512 73.3511 629.682" stroke="#231F20" stroke-width="2.74" stroke-miterlimit="10"/>
<path d="M104.701 629.682C104.701 625.512 101.671 621.782 96.8811 619.132C92.0911 621.782 89.061 625.512 89.061 629.682" stroke="#231F20" stroke-width="2.74" stroke-miterlimit="10"/>
<path d="M112.641 619.132C107.851 621.782 104.821 625.512 104.821 629.682" stroke="#231F20" stroke-width="2.74" stroke-miterlimit="10"/>
<path d="M81.1713 619.302C81.1713 615.132 78.1413 611.402 73.3513 608.752C68.5613 611.402 65.5312 615.132 65.5312 619.302" stroke="#231F20" stroke-width="2.74" stroke-miterlimit="10"/>
<path d="M96.9413 619.302C96.9413 615.132 93.9113 611.402 89.1213 608.752C84.3313 611.402 81.3013 615.132 81.3013 619.302" stroke="#231F20" stroke-width="2.74" stroke-miterlimit="10"/>
<path d="M112.641 619.302C112.641 615.132 109.611 611.402 104.821 608.752C100.031 611.402 97.0015 615.132 97.0015 619.302" stroke="#231F20" stroke-width="2.74" stroke-miterlimit="10"/>
<path d="M81.171 599.312C81.171 595.142 78.1411 591.412 73.3511 588.762" stroke="#231F20" stroke-width="2.74" stroke-miterlimit="10"/>
<path d="M96.9408 599.312C96.9408 595.142 93.9108 591.412 89.1208 588.762C84.3308 591.412 81.3008 595.142 81.3008 599.312" stroke="#231F20" stroke-width="2.74" stroke-miterlimit="10"/>
<path d="M104.821 588.762C100.031 591.412 97.001 595.142 97.001 599.312" stroke="#231F20" stroke-width="2.74" stroke-miterlimit="10"/>
<path d="M73.2312 609.362C73.2312 605.192 70.2011 601.462 65.4111 598.812" stroke="#231F20" stroke-width="2.74" stroke-miterlimit="10"/>
<path d="M88.9911 609.362C88.9911 605.192 85.961 601.462 81.171 598.812C76.381 601.462 73.3511 605.192 73.3511 609.362" stroke="#231F20" stroke-width="2.74" stroke-miterlimit="10"/>
<path d="M104.701 609.362C104.701 605.192 101.671 601.462 96.8811 598.812C92.0911 601.462 89.061 605.192 89.061 609.362" stroke="#231F20" stroke-width="2.74" stroke-miterlimit="10"/>
<path d="M112.641 598.812C107.851 601.462 104.821 605.192 104.821 609.362" stroke="#231F20" stroke-width="2.74" stroke-miterlimit="10"/>
<path d="M88.731 588.762V583.162" stroke="#231F20" stroke-width="2.74" stroke-miterlimit="10"/>
<path d="M58.3437 688.525L57.7267 692.252H54.7404L58.1709 674.334H61.9716L65.4022 692.252H62.2678L61.6508 688.525H58.3437ZM61.1819 685.736L59.9972 678.579L58.7879 685.736H61.1819ZM68.1216 692.252V674.334H70.9351L75.1307 685.243V674.334H77.9689V692.252H75.3035L70.9845 681.417V692.252H68.1216ZM84.277 688.525L83.66 692.252H80.6737L84.1042 674.334H87.9049L91.3354 692.252H88.2011L87.5841 688.525H84.277ZM87.1152 685.736L85.9305 678.579L84.7212 685.736H87.1152ZM94.0549 692.252V674.334H96.8684L101.064 685.243V674.334H103.902V692.252H101.237L96.9177 681.417V692.252H94.0549ZM110.21 688.525L109.593 692.252H106.607L110.037 674.334H113.838L117.269 692.252H114.134L113.517 688.525H110.21ZM113.048 685.736L111.864 678.579L110.654 685.736H113.048ZM122.283 687.908C122.283 689.216 122.826 689.71 123.814 689.71C124.825 689.71 125.393 689.142 125.393 687.834C125.393 686.329 124.184 685.317 122.974 684.354C121.296 683.022 119.371 681.417 119.371 678.431C119.371 675.766 121.197 674.112 123.814 674.112C126.874 674.112 128.256 675.84 128.256 678.678V679.517H125.146V678.678C125.146 677.395 124.677 676.876 123.838 676.876C122.95 676.876 122.481 677.419 122.481 678.431C122.481 679.937 123.838 681.047 125.023 681.96C126.75 683.293 128.503 684.823 128.503 687.81C128.503 690.771 126.578 692.499 123.838 692.499C120.63 692.499 119.174 690.746 119.174 687.908V686.699H122.283V687.908Z" fill="#0078AE"/>
<path d="M89.1444 709.942C89.1444 709.942 124.114 720.912 128.224 728.452C132.334 735.992 135.084 747.652 130.284 753.822C125.484 759.992 110.404 769.592 103.544 773.022C96.6844 776.452 85.0044 778.522 85.0044 778.522C85.0044 778.522 98.0544 770.962 98.0544 753.132C98.0544 735.302 96.6844 722.282 93.2544 718.852C89.8244 715.422 89.1444 709.942 89.1444 709.942Z" fill="#C55450"/>
<path d="M71.3145 703.083C71.3145 703.083 95.9946 714.053 98.7446 725.023C101.485 735.993 100.805 761.363 94.6346 768.903C88.4646 776.443 81.6046 785.363 74.7546 786.043C67.8946 786.733 48.0145 782.613 44.5845 777.813C41.1545 773.013 34.3046 759.303 33.6146 749.703C32.9246 740.103 32.9246 729.823 36.3546 722.963C39.7846 716.103 41.8445 711.303 45.9545 708.563C50.0645 705.823 59.6646 702.393 59.6646 702.393L71.3245 703.083H71.3145Z" fill="white"/>
<path d="M122.774 721.023C112.084 715.103 98.2944 708.513 87.6044 703.493C81.0044 700.023 73.5445 698.213 66.0345 698.253C66.0345 698.253 66.0345 698.253 66.0245 698.253C61.2745 698.283 56.6445 699.393 52.2845 701.563C38.0845 708.623 28.9945 725.403 29.1145 744.333C29.2845 769.613 46.1045 790.073 66.6145 789.943C67.8045 789.943 68.9845 789.863 70.1645 789.713C75.9345 789.223 81.5845 787.713 86.6745 785.183C87.1445 784.943 87.6244 784.703 88.0944 784.443L122.994 767.083C131.954 762.993 137.544 754.143 137.484 744.053C137.424 733.823 131.684 724.933 122.774 721.003V721.023ZM35.8045 744.303C35.7045 728.173 43.5245 713.413 55.2645 707.573C58.7045 705.863 62.3444 704.983 66.0744 704.953C82.8944 704.843 96.6944 722.323 96.8344 743.913C96.9344 760.043 89.1145 774.803 77.3745 780.643C74.8345 781.903 72.1844 782.713 69.4744 783.063C68.5044 783.143 67.5444 783.263 66.5644 783.263C49.7444 783.373 35.9445 765.893 35.8045 744.303ZM120.114 761.073L94.9145 773.603C100.435 765.483 103.594 755.063 103.524 743.873C103.454 732.473 99.9645 722.073 94.3045 714.083C102.855 718.183 112.055 722.743 119.795 727.023C126.535 730.013 130.745 736.563 130.785 744.123C130.835 751.553 126.694 757.783 120.104 761.073H120.114Z" fill="#231F20"/>
<path fill-rule="evenodd" clip-rule="evenodd" d="M66.1143 710.813C76.8243 710.743 86.0943 718.653 90.3643 730.083C90.5943 730.703 90.5443 731.333 90.2143 731.903C89.8843 732.473 89.3643 732.833 88.7143 732.943C83.4843 733.823 80.1543 738.263 74.7043 740.523C73.1743 738.193 69.9444 736.713 68.2644 736.723C66.5844 736.733 66.7544 736.863 66.0444 737.113C62.3544 731.903 57.6043 722.743 55.0743 715.983C54.6943 714.963 55.1243 713.833 56.0843 713.333C59.1743 711.723 62.5643 710.823 66.1143 710.803V710.813ZM92.7443 741.193C92.8143 742.103 92.8443 743.023 92.8543 743.943C92.9743 762.333 81.1944 777.313 66.5444 777.403C63.9044 777.423 61.3543 776.953 58.9543 776.073C57.9243 775.693 57.3543 774.613 57.6143 773.553C59.6643 765.173 64.3244 761.753 66.6744 757.203C67.2344 757.353 65.8344 757.433 68.4044 757.423C70.9744 757.403 76.6943 752.743 76.5743 747.033V746.703C81.8943 744.463 85.1244 740.063 90.2844 739.243C90.8944 739.143 91.4643 739.293 91.9543 739.683C92.4443 740.073 92.7144 740.583 92.7644 741.203L92.7443 741.193ZM48.8044 769.043C49.3344 769.633 50.0943 769.873 50.8743 769.693C51.6543 769.513 52.2343 768.963 52.4543 768.193C54.6543 760.473 59.3044 757.433 61.6344 753.083C60.6744 751.403 60.0943 749.253 60.0843 747.123C60.0743 744.993 60.5343 743.173 61.3343 741.573C57.7043 736.653 52.9544 728.053 50.5144 721.973C50.2144 721.233 49.5844 720.743 48.7944 720.643C48.0044 720.543 47.2744 720.853 46.7944 721.503C42.3944 727.483 39.7344 735.493 39.7844 744.283C39.8444 754.143 43.3244 762.983 48.7844 769.043H48.8044Z" fill="#E31937"/>
<path d="M45.8611 828.713V810.795H48.6746L52.8702 821.704V810.795H55.7084V828.713H53.043L48.724 817.878V828.713H45.8611ZM62.0165 824.986L61.3995 828.713H58.4132L61.8437 810.795H65.6445L69.075 828.713H65.9406L65.3236 824.986H62.0165ZM64.8547 822.197L63.6701 815.04L62.4607 822.197H64.8547ZM80.8026 824.369C80.8026 827.207 79.4452 828.96 76.2121 828.96C73.0037 828.96 71.671 827.207 71.671 824.369V810.795H74.7807V824.394C74.7807 825.702 75.2743 826.196 76.2121 826.196C77.1993 826.196 77.6929 825.702 77.6929 824.394V810.795H80.8026V824.369ZM92.4893 810.795V813.584H89.4784V828.713H86.3934V813.584H83.3824V810.795H92.4893ZM96.6986 824.986L96.0816 828.713H93.0954L96.5259 810.795H100.327L103.757 828.713H100.623L100.006 824.986H96.6986ZM99.5368 822.197L98.3522 815.04L97.1429 822.197H99.5368ZM109.586 820.667V828.713H106.477V810.795H109.586V817.878H112.671V810.795H115.781V828.713H112.671V820.667H109.586ZM122.102 824.986L121.485 828.713H118.498L121.929 810.795H125.73L129.16 828.713H126.026L125.409 824.986H122.102ZM124.94 822.197L123.755 815.04L122.546 822.197H124.94ZM134.989 810.795V817.335L138.37 810.795H141.826L137.63 817.903L142.023 828.713H138.519L135.754 820.568L134.989 821.704V828.713H131.88V810.795H134.989ZM147.474 810.795V817.335L150.855 810.795H154.31L150.115 817.903L154.508 828.713H151.003L148.239 820.568L147.474 821.704V828.713H144.364V810.795H147.474Z" fill="#0078AE"/>
</svg>
