<svg width="143" height="833" viewBox="0 0 143 833" fill="none" xmlns="http://www.w3.org/2000/svg">
<path fill-rule="evenodd" clip-rule="evenodd" d="M71.37 0.000173093C97.27 -0.0698269 121.85 21.1002 122.49 47.7302C122.75 58.5402 117.92 65.2202 111.61 68.2402C109.07 69.4602 106.29 70.0702 103.51 70.1002C99.32 70.1502 95.13 68.8902 91.7 66.4702L92.6 74.5702C93.28 80.6102 88.57 85.9902 82.39 85.9902H60.34C54.16 85.9902 49.45 80.6202 50.13 74.5702L51.03 66.4702C47.61 68.9002 43.42 70.1502 39.22 70.1002C36.44 70.0702 33.66 69.4602 31.12 68.2402C24.8 65.2202 19.98 58.5402 20.24 47.7302C20.88 21.1002 45.46 -0.0698269 71.36 0.000173093H71.37Z" fill="#D8A96C"/>
<path fill-rule="evenodd" clip-rule="evenodd" d="M71.64 0.000173093C97.54 -0.0698269 122.12 21.1002 122.76 47.7302C123.02 58.5402 118.19 65.2202 111.88 68.2402C109.34 69.4602 106.56 70.0702 103.78 70.1002C99.59 70.1502 95.4 68.8902 91.97 66.4702L92.8701 74.5702C93.5501 80.6102 88.84 85.9902 82.66 85.9902H60.61C54.43 85.9902 49.7201 80.6202 50.4001 74.5702L51.3 66.4702C47.88 68.9002 43.6901 70.1502 39.4901 70.1002C36.7101 70.0702 33.93 69.4602 31.39 68.2402C25.07 65.2202 20.25 58.5402 20.51 47.7302C21.15 21.1002 45.73 -0.0698269 71.63 0.000173093H71.64ZM82.67 80.1902C85.43 80.1902 87.44 77.8902 87.14 75.2002C86.65 70.8502 85.6201 64.9202 84.9301 59.5202C84.3701 55.1902 82.94 47.9602 86.3 44.6102C90.05 40.8702 97.7801 41.4002 101.02 45.1602C83.1401 41.1702 88.44 64.5102 103.73 64.3402C105.68 64.3202 107.62 63.8902 109.39 63.0502C113.81 60.9302 117.19 56.0202 117 47.8802C116.44 24.5602 94.67 5.72017 71.64 5.78017C48.62 5.72017 26.85 24.5602 26.28 47.8802C26.08 56.0302 29.46 60.9302 33.89 63.0502C35.66 63.9002 37.6 64.3202 39.55 64.3402C54.84 64.5102 60.14 41.1702 42.26 45.1602C45.51 41.4002 53.23 40.8702 56.98 44.6102C60.34 47.9602 58.91 55.1902 58.35 59.5202C57.65 64.9302 56.63 70.8502 56.14 75.2002C55.84 77.8902 57.85 80.1902 60.61 80.1902H82.66H82.67Z" fill="#231F20"/>
<path d="M71.6399 15.9602C80.2899 15.9602 88.2699 17.1902 94.6699 19.2602C90.2299 14.1502 81.5799 10.6802 71.6399 10.6802C61.6999 10.6802 53.0399 14.1502 48.6099 19.2602C55.0199 17.1902 62.9899 15.9602 71.6399 15.9602Z" fill="#E2BE91"/>
<path d="M39.8004 128.006C39.8004 129.314 40.3434 129.808 41.3306 129.808C42.3424 129.808 42.9101 129.24 42.9101 127.932C42.9101 126.426 41.7008 125.415 40.4914 124.452C38.8132 123.119 36.8882 121.515 36.8882 118.529C36.8882 115.863 38.7145 114.21 41.3306 114.21C44.3909 114.21 45.773 115.937 45.773 118.776V119.615H42.6633V118.776C42.6633 117.492 42.1944 116.974 41.3552 116.974C40.4668 116.974 39.9978 117.517 39.9978 118.529C39.9978 120.034 41.3552 121.145 42.5399 122.058C44.2675 123.391 46.0198 124.921 46.0198 127.907C46.0198 130.869 44.0947 132.596 41.3552 132.596C38.1468 132.596 36.6907 130.844 36.6907 128.006V126.797H39.8004V128.006ZM58.574 114.432L55.1435 132.35H51.3427L47.9122 114.432H51.17L53.3171 127.414L55.4643 114.432H58.574ZM69.0923 114.432V117.221H64.4031V121.515H68.2778V124.304H64.4031V129.561H69.3391V132.35H61.2934V114.432H69.0923ZM76.8678 114.432C80.249 114.432 81.6804 116.184 81.6804 119.713C81.6804 123.415 80.249 125.168 76.8678 125.168H75.6585V132.35H72.5488V114.432H76.8678ZM75.6585 122.379H76.621C77.9291 122.379 78.5708 121.885 78.5708 119.738C78.5708 117.714 77.9291 117.221 76.621 117.221H75.6585V122.379ZM89.0873 114.432C92.4685 114.432 93.8999 116.184 93.8999 119.713C93.8999 123.415 92.4685 125.168 89.0873 125.168H87.878V132.35H84.7683V114.432H89.0873ZM87.878 122.379H88.8405C90.1486 122.379 90.7902 121.885 90.7902 119.738C90.7902 117.714 90.1486 117.221 88.8405 117.221H87.878V122.379ZM100.073 114.432V132.35H96.9878V114.432H100.073ZM108.344 114.432C111.75 114.432 113.157 116.184 113.157 119.713C113.157 122.107 112.614 123.638 111.257 124.477L113.725 132.35H110.393L108.394 125.168H107.135V132.35H104.025V114.432H108.344ZM107.135 122.379H108.098C109.406 122.379 110.047 121.885 110.047 119.738C110.047 117.714 109.406 117.221 108.098 117.221H107.135V122.379Z" fill="#0078AE"/>
<path fill-rule="evenodd" clip-rule="evenodd" d="M49.9773 157.42C64.1873 143.21 83.7373 138.04 100.627 142.32C106.527 143.81 110.827 148.11 112.317 154.01C116.597 170.9 111.427 190.45 97.2173 204.66C80.5173 221.36 56.4573 225.57 37.9873 216.65C29.0673 198.18 33.2773 174.12 49.9773 157.42Z" fill="#B6EF18"/>
<path d="M58.4074 223.79C50.7474 223.79 43.4975 222.16 36.8675 218.96L36.0675 218.57L35.6775 217.76C25.9975 197.72 31.0175 172.74 48.1675 155.6C62.3275 141.44 83.2374 135.27 101.267 139.83C108.037 141.54 113.107 146.61 114.817 153.37C119.467 171.74 113.427 192.09 99.0474 206.47C88.0474 217.47 73.2375 223.79 58.4275 223.79H58.4074ZM39.9075 214.73C45.6175 217.33 51.8374 218.66 58.4074 218.66C71.8674 218.66 85.3575 212.9 95.3975 202.85C108.507 189.74 114.037 171.27 109.827 154.64C108.567 149.65 104.977 146.07 99.9975 144.81C83.6675 140.69 64.6875 146.32 51.7875 159.24C36.4175 174.61 31.7075 196.79 39.9075 214.73Z" fill="#231F20"/>
<path fill-rule="evenodd" clip-rule="evenodd" d="M95.6406 192.141C88.8906 196.111 82.6406 197.501 66.4806 195.321C79.1206 183.681 90.7406 171.451 95.2106 156.541C89.0606 166.181 81.0606 174.491 72.3706 182.341C68.7506 173.641 68.5606 169.851 69.7806 165.451C65.9506 172.161 68.6406 180.931 70.0006 184.451C64.7406 189.091 59.2806 193.601 53.8406 198.141C47.8406 183.621 47.6006 177.291 49.6606 169.871C43.3906 180.861 47.4006 195.151 49.7806 201.561C41.5706 208.501 33.5706 215.631 26.6406 223.601L32.7706 228.781C40.2506 218.581 50.9906 209.311 61.5506 199.811C63.4306 200.141 84.2106 203.461 95.6206 192.161L95.6406 192.141Z" fill="#231F20"/>
<path d="M48.5275 266.387C48.5275 267.695 49.0704 268.188 50.0576 268.188C51.0695 268.188 51.6371 267.621 51.6371 266.313C51.6371 264.807 50.4278 263.795 49.2185 262.833C47.5403 261.5 45.6152 259.896 45.6152 256.91C45.6152 254.244 47.4415 252.591 50.0576 252.591C53.1179 252.591 54.5 254.318 54.5 257.156V257.996H51.3903V257.156C51.3903 255.873 50.9214 255.355 50.0823 255.355C49.1938 255.355 48.7249 255.898 48.7249 256.91C48.7249 258.415 50.0823 259.526 51.2669 260.439C52.9945 261.772 54.7468 263.302 54.7468 266.288C54.7468 269.25 52.8218 270.977 50.0823 270.977C46.8739 270.977 45.4178 269.225 45.4178 266.387V265.177H48.5275V266.387ZM62.1923 252.813C65.5734 252.813 67.0049 254.565 67.0049 258.094C67.0049 261.796 65.5734 263.549 62.1923 263.549H60.9829V270.73H57.8733V252.813H62.1923ZM60.9829 260.76H61.9455C63.2535 260.76 63.8952 260.266 63.8952 258.119C63.8952 256.095 63.2535 255.602 61.9455 255.602H60.9829V260.76ZM72.4867 251.357H70.0681L71.5982 248.296H74.782L72.4867 251.357ZM73.1778 252.813V270.73H70.0928V252.813H73.1778ZM77.1304 270.73V252.813H79.9439L84.1395 263.721V252.813H86.9777V270.73H84.3123L79.9933 259.896V270.73H77.1304ZM93.2858 267.004L92.6688 270.73H89.6825L93.113 252.813H96.9137L100.344 270.73H97.2099L96.5929 267.004H93.2858ZM96.124 264.215L94.9393 257.058L93.73 264.215H96.124ZM110.069 252.813V255.602H107.058V270.73H103.973V255.602H100.962V252.813H110.069Z" fill="#0078AE"/>
<path d="M8.5941 393.623C12.4333 393.623 14.019 395.598 14.019 399.576C14.019 402.275 13.407 404 11.8769 404.946L14.6589 413.82H10.9032L8.64974 405.725H7.23092V413.82H3.7256V393.623H8.5941ZM7.23092 402.581H8.3159C9.79036 402.581 10.5137 402.025 10.5137 399.604C10.5137 397.323 9.79036 396.767 8.3159 396.767H7.23092V402.581ZM18.2294 410.983C19.1474 410.983 19.6204 410.482 19.6204 409.202V393.623H23.1257V409.48C23.1257 412.457 21.9016 414.099 18.5076 414.099H17.0053V410.983H18.2294ZM33.2298 391.982H30.5034L32.2283 388.532H35.8171L33.2298 391.982ZM37.4584 408.924C37.4584 412.123 35.9283 414.099 32.2839 414.099C28.6673 414.099 27.165 412.123 27.165 408.924V398.519C27.165 395.32 28.6673 393.373 32.2839 393.373C35.9283 393.373 37.4584 395.32 37.4584 398.519V408.924ZM30.6704 408.952C30.6704 410.426 31.2268 410.983 32.2839 410.983C33.3967 410.983 33.9531 410.426 33.9531 408.952V398.519C33.9531 397.073 33.3967 396.488 32.2839 396.488C31.2268 396.488 30.6704 397.073 30.6704 398.519V408.952ZM50.8612 413.82H47.8288L44.7686 401.218V413.82H41.6249V393.623H45.6032L49.2476 408.952L52.9198 393.623H57.065V413.82H53.9214V401.246L50.8612 413.82ZM64.1826 409.619L63.4871 413.82H60.1209L63.9879 393.623H68.2721L72.1391 413.82H68.606L67.9105 409.619H64.1826ZM67.3819 406.476L66.0465 398.408L64.6834 406.476H67.3819ZM85.2197 408.924C85.2197 412.123 83.6896 414.099 80.0452 414.099C76.4286 414.099 74.9263 412.123 74.9263 408.924V398.519C74.9263 395.32 76.4286 393.373 80.0452 393.373C83.6896 393.373 85.2197 395.32 85.2197 398.519V408.924ZM78.4316 408.952C78.4316 410.426 78.988 410.983 80.0452 410.983C81.158 410.983 81.7144 410.426 81.7144 408.952V398.519C81.7144 397.073 81.158 396.488 80.0452 396.488C78.988 396.488 78.4316 397.073 78.4316 398.519V408.952ZM91.9735 408.924C91.9735 410.398 92.5855 410.955 93.6983 410.955C94.8389 410.955 95.4788 410.315 95.4788 408.841C95.4788 407.144 94.1156 406.003 92.7524 404.918C90.8607 403.416 88.6907 401.607 88.6907 398.241C88.6907 395.237 90.7494 393.373 93.6983 393.373C97.148 393.373 98.7059 395.32 98.7059 398.519V399.465H95.2006V398.519C95.2006 397.073 94.672 396.488 93.7261 396.488C92.7246 396.488 92.196 397.1 92.196 398.241C92.196 399.938 93.7261 401.19 95.0615 402.219C97.0089 403.722 98.9841 405.446 98.9841 408.813C98.9841 412.151 96.8141 414.099 93.7261 414.099C90.1095 414.099 88.4681 412.123 88.4681 408.924V407.561H91.9735V408.924ZM111.383 393.623V396.767H107.989V413.82H104.511V396.767H101.117V393.623H111.383ZM124.589 408.924C124.589 412.123 123.059 414.099 119.415 414.099C115.798 414.099 114.296 412.123 114.296 408.924V393.623H117.801V408.952C117.801 410.426 118.358 410.983 119.415 410.983C120.528 410.983 121.084 410.426 121.084 408.952V393.623H124.589V408.924ZM133.757 393.623C137.596 393.623 139.182 395.598 139.182 399.576C139.182 402.275 138.57 404 137.04 404.946L139.822 413.82H136.066L133.813 405.725H132.394V413.82H128.888V393.623H133.757ZM132.394 402.581H133.479C134.953 402.581 135.677 402.025 135.677 399.604C135.677 397.323 134.953 396.767 133.479 396.767H132.394V402.581Z" fill="#0078AE"/>
<path d="M101.877 311.56C99.4373 306.62 94.0173 301.76 85.4373 296.82C73.4473 289.92 71.9773 280.81 71.9273 280.47L71.4574 276.73L67.6973 276.94C66.6873 277 57.6673 277.87 50.9673 290.78C49.8173 293.01 49.0973 295.05 48.5473 297.01C45.7173 297.38 40.9473 298.18 36.1173 299.75C24.9073 303.41 21.0973 308.82 20.1873 313.57C12.2673 316.35 1.30731 324.35 2.71731 340.37C4.98731 366.09 48.1373 366.64 62.3173 366.82C62.8173 366.82 63.3274 366.82 63.8274 366.82C76.5074 366.82 89.0773 364.8 98.5373 361.21C111.917 356.14 119.547 347.96 120.597 337.57C122.587 317.91 106.967 312.72 101.877 311.56ZM112.557 336.76C111.017 351.96 86.5173 358.75 63.8573 358.75C63.3773 358.75 62.8973 358.75 62.4173 358.75C39.5973 358.46 12.1074 354.91 10.7674 339.67C9.81735 328.89 16.4773 324.01 20.9973 321.96C22.2273 325.54 24.4573 328.78 27.7373 331.45C34.5773 337.02 45.4073 339.95 58.4973 339.95C63.0073 339.95 67.7773 339.6 72.7573 338.9C72.7573 338.9 48.3073 339.72 32.8473 325.19C30.0173 322.53 28.1973 319.79 27.9873 316.44C27.5773 309.89 39.3573 306.28 47.5273 305.14C47.7673 309.93 49.3873 312.87 49.5073 313.08C49.5073 313.08 51.5473 289.79 65.2473 286.2C67.1173 290.87 71.4574 298.12 81.3974 303.84C93.6974 310.92 95.1973 315.73 95.3073 317.47C96.3473 333.06 86.7674 337.51 86.7674 337.51C99.8074 334.76 102.907 326.87 103.347 320.4C107.657 322.13 113.587 326.42 112.537 336.78L112.557 336.76Z" fill="#231F20"/>
<path fill-rule="evenodd" clip-rule="evenodd" d="M69.7623 437.75C73.6323 437.75 77.1223 439.7 79.5823 442.82C81.2623 441.92 83.1223 441.42 85.0823 441.42C92.5523 441.42 98.6123 448.7 98.6123 457.67C98.6123 475.49 89.9323 507.29 76.5023 507.29C72.9623 507.29 69.8123 505.23 67.8523 502.06C65.8923 505.23 62.7523 507.29 59.2023 507.29C45.5623 507.29 37.0923 477.18 37.0923 457.67C37.0923 448.7 43.1523 441.42 50.6223 441.42C53.6523 441.42 56.4423 442.62 58.7023 444.63C61.1523 440.46 65.1923 437.74 69.7623 437.74V437.75Z" fill="#69A53A"/>
<path fill-rule="evenodd" clip-rule="evenodd" d="M64.2424 436.83C61.8524 437.78 59.6223 439.32 57.8923 441.59C55.5723 440.02 52.9624 439.19 50.2524 439.19C41.6524 439.19 34.6523 447.6 34.6523 457.93C34.6523 476.63 42.7323 510.03 58.8323 510.03C62.0423 510.03 65.1324 508.56 67.4824 506C69.8324 508.56 72.9224 510.03 76.1324 510.03C91.7824 510.03 100.312 475.61 100.312 457.93C100.312 447.6 93.3123 439.19 84.7123 439.19C82.9823 439.19 81.3024 439.52 79.6924 440.18C78.4624 438.87 77.0324 437.94 75.5424 437.21C75.3824 432.96 77.2423 429.75 80.4023 429.75V419.82C72.5823 419.82 65.1524 427.6 64.2524 436.83H64.2424ZM84.7123 444.16C91.0323 444.16 96.1724 450.34 96.1724 457.93C96.1724 474.49 87.9024 505.06 76.1324 505.06C73.3524 505.06 70.8023 503.52 69.1423 500.83L69.0123 500.62C67.0023 497.33 63.6423 490.63 62.0323 486.24C61.7123 490.71 62.8523 497.43 64.9023 502C63.2823 503.93 61.1523 505.06 58.8223 505.06C47.1923 505.06 38.7723 476.91 38.7723 457.93C38.7723 450.34 43.9124 444.16 50.2424 444.16C52.0624 444.16 53.8123 444.67 55.3923 445.64C52.7323 451.33 51.4823 461.89 57.1523 469.52C55.7623 463.84 54.8424 455.76 59.7224 446.8L60.0024 446.33C62.1524 442.67 65.6624 440.49 69.3824 440.49C72.5624 440.49 75.5123 442.02 77.7023 444.79L77.9023 445.04C82.2223 450.84 81.4024 454.08 81.8624 457.58C83.9224 451.5 83.5224 447.31 82.4224 444.45C83.1724 444.27 83.9323 444.17 84.7023 444.17L84.7123 444.16Z" fill="#231F20"/>
<path fill-rule="evenodd" clip-rule="evenodd" d="M70.3522 449.61L69.2322 447.09L68.1122 444.57C64.1722 447.1 58.2722 453.39 60.7122 462.57C62.0322 456.89 65.6922 450.79 70.3522 449.61Z" fill="white"/>
<path fill-rule="evenodd" clip-rule="evenodd" d="M48.8325 451.6L48.0225 449.78L47.2125 447.96C44.3725 449.79 40.1025 454.33 41.8725 460.96C42.8225 456.86 45.4725 452.45 48.8325 451.6Z" fill="white"/>
<path d="M10.8592 546.581V551.172C10.8592 554.306 9.5018 556.157 6.26872 556.157C3.06032 556.157 1.7276 554.405 1.7276 551.566V542.336C1.7276 539.498 3.06032 537.77 6.26872 537.77C9.5018 537.77 10.8592 539.498 10.8592 542.336V543.496H7.74952V542.336C7.74952 541.053 7.25592 540.535 6.26872 540.535C5.33088 540.535 4.83728 541.053 4.83728 542.336V551.591C4.83728 552.899 5.33088 553.393 6.26872 553.393C7.25592 553.393 7.87292 552.825 7.87292 551.344V549.345H6.39212V546.581H10.8592ZM18.6334 537.992C22.0392 537.992 23.446 539.745 23.446 543.274C23.446 545.668 22.903 547.198 21.5456 548.037L24.0136 555.91H20.6818L18.6828 548.728H17.4241V555.91H14.3144V537.992H18.6334ZM17.4241 545.939H18.3866C19.6946 545.939 20.3363 545.446 20.3363 543.299C20.3363 541.275 19.6946 540.781 18.3866 540.781H17.4241V545.939ZM28.8405 555.91H25.8542L31.654 537.992H41.2052V540.781H36.516V545.076H40.3907V547.864H36.516V553.121H41.452V555.91H33.7025V551.69H30.1239L28.8405 555.91ZM33.6531 540.214L30.9877 549H33.7025V540.214H33.6531ZM44.6583 555.91V537.992H47.4718L51.6674 548.901V537.992H54.5056V555.91H51.8401L47.5211 545.076V555.91H44.6583ZM68.8129 537.992C72.194 537.992 73.6255 539.745 73.6255 543.274C73.6255 546.976 72.194 548.728 68.8129 548.728H67.6035V555.91H64.4939V537.992H68.8129ZM67.6035 545.939H68.5661C69.8741 545.939 70.5158 545.446 70.5158 543.299C70.5158 541.275 69.8741 540.781 68.5661 540.781H67.6035V545.939ZM78.215 552.183L77.598 555.91H74.6117L78.0422 537.992H81.8429L85.2735 555.91H82.1391L81.5221 552.183H78.215ZM81.0532 549.395L79.8685 542.237L78.6592 549.395H81.0532ZM92.3119 537.992C95.693 537.992 97.1245 539.745 97.1245 543.274C97.1245 546.976 95.693 548.728 92.3119 548.728H91.1026V555.91H87.9929V537.992H92.3119ZM91.1026 545.939H92.0651C93.3731 545.939 94.0148 545.446 94.0148 543.299C94.0148 541.275 93.3731 540.781 92.0651 540.781H91.1026V545.939ZM104.531 537.992C107.937 537.992 109.344 539.745 109.344 543.274C109.344 545.668 108.801 547.198 107.444 548.037L109.912 555.91H106.58L104.581 548.728H103.322V555.91H100.212V537.992H104.531ZM103.322 545.939H104.285C105.593 545.939 106.234 545.446 106.234 543.299C106.234 541.275 105.593 540.781 104.285 540.781H103.322V545.939ZM116.071 537.992V555.91H112.986V537.992H116.071ZM123.134 537.992V544.533L126.515 537.992H129.97L125.774 545.1L130.167 555.91H126.663L123.899 547.766L123.134 548.901V555.91H120.024V537.992H123.134ZM134.878 552.183L134.261 555.91H131.274L134.705 537.992H138.506L141.936 555.91H138.802L138.185 552.183H134.878ZM137.716 549.395L136.531 542.237L135.322 549.395H137.716Z" fill="#0078AE"/>
<path d="M66.9413 573.601C66.9413 573.601 101.911 584.571 106.021 592.111C110.131 599.651 112.881 611.311 108.081 617.481C103.281 623.651 88.2013 633.251 81.3413 636.681C74.4813 640.111 62.8013 642.181 62.8013 642.181C62.8013 642.181 75.8513 634.621 75.8513 616.791C75.8513 598.961 74.4813 585.941 71.0513 582.511C67.6213 579.081 66.9413 573.601 66.9413 573.601Z" fill="#C55450"/>
<path d="M49.1115 566.741C49.1115 566.741 73.7914 577.711 76.5414 588.681C79.2814 599.651 78.6015 625.021 72.4315 632.561C66.2615 640.101 59.4015 649.021 52.5515 649.701C45.6915 650.391 25.8115 646.271 22.3815 641.471C18.9515 636.671 12.1014 622.961 11.4114 613.361C10.7214 603.761 10.7214 593.481 14.1514 586.621C17.5814 579.761 19.6415 574.961 23.7515 572.221C27.8615 569.481 37.4615 566.051 37.4615 566.051L49.1215 566.741H49.1115Z" fill="white"/>
<path d="M100.571 584.681C89.8814 578.761 76.0913 572.171 65.4013 567.151C58.8013 563.681 51.3414 561.871 43.8314 561.911C43.8314 561.911 43.8314 561.911 43.8214 561.911C39.0714 561.941 34.4414 563.051 30.0814 565.221C15.8814 572.281 6.79133 589.061 6.91133 607.991C7.08133 633.271 23.9013 653.731 44.4113 653.601C45.6013 653.601 46.7814 653.521 47.9614 653.371C53.7314 652.881 59.3814 651.371 64.4714 648.841C64.9414 648.601 65.4214 648.361 65.8914 648.101L100.791 630.741C109.751 626.651 115.341 617.801 115.281 607.711C115.221 597.481 109.481 588.591 100.571 584.661V584.681ZM13.6014 607.961C13.5014 591.831 21.3214 577.071 33.0614 571.231C36.5014 569.521 40.1314 568.641 43.8714 568.611C60.6914 568.501 74.4914 585.981 74.6314 607.571C74.7314 623.701 66.9113 638.461 55.1713 644.301C52.6313 645.561 49.9814 646.371 47.2714 646.721C46.3014 646.801 45.3414 646.921 44.3614 646.921C27.5414 647.031 13.7414 629.551 13.6014 607.961ZM97.9113 624.731L72.7114 637.261C78.2314 629.141 81.3914 618.721 81.3214 607.531C81.2514 596.131 77.7614 585.731 72.1014 577.731C80.6514 581.831 89.8614 586.391 97.5914 590.671C104.331 593.661 108.541 600.211 108.581 607.771C108.631 615.201 104.491 621.431 97.9013 624.721L97.9113 624.731Z" fill="#231F20"/>
<path fill-rule="evenodd" clip-rule="evenodd" d="M43.9014 574.471C54.6114 574.401 63.8815 582.311 68.1515 593.741C68.3815 594.361 68.3315 594.991 68.0015 595.561C67.6715 596.131 67.1515 596.491 66.5015 596.601C61.2715 597.481 57.9415 601.921 52.4915 604.181C50.9615 601.851 47.7315 600.371 46.0515 600.381C44.3715 600.391 44.5415 600.521 43.8315 600.771C40.1415 595.561 35.3915 586.401 32.8615 579.641C32.4815 578.621 32.9115 577.491 33.8715 576.991C36.9615 575.381 40.3514 574.481 43.9014 574.461V574.471ZM70.5315 604.851C70.6015 605.761 70.6316 606.681 70.6416 607.601C70.7616 625.991 58.9815 640.971 44.3315 641.061C41.6915 641.081 39.1415 640.611 36.7415 639.731C35.7115 639.351 35.1414 638.271 35.4014 637.211C37.4514 628.831 42.1115 625.411 44.4615 620.861C45.0215 621.011 43.6215 621.091 46.1915 621.081C48.7615 621.061 54.4815 616.401 54.3615 610.691V610.361C59.6815 608.121 62.9115 603.721 68.0715 602.901C68.6815 602.801 69.2515 602.951 69.7415 603.341C70.2315 603.731 70.5015 604.241 70.5515 604.861L70.5315 604.851ZM26.5915 632.701C27.1215 633.291 27.8815 633.531 28.6615 633.351C29.4415 633.171 30.0215 632.621 30.2415 631.851C32.4415 624.131 37.0915 621.091 39.4215 616.741C38.4615 615.061 37.8815 612.911 37.8715 610.781C37.8615 608.651 38.3215 606.831 39.1215 605.231C35.4915 600.311 30.7415 591.711 28.3015 585.631C28.0015 584.891 27.3715 584.401 26.5815 584.301C25.7915 584.201 25.0615 584.511 24.5815 585.161C20.1815 591.141 17.5215 599.151 17.5715 607.941C17.6315 617.801 21.1115 626.641 26.5715 632.701H26.5915Z" fill="#961600"/>
<path d="M14.3832 675.483C17.7644 675.483 19.1958 677.235 19.1958 680.764C19.1958 684.466 17.7644 686.219 14.3832 686.219H13.1739V693.4H10.0642V675.483H14.3832ZM13.1739 683.43H14.1364C15.4445 683.43 16.0862 682.936 16.0862 680.789C16.0862 678.765 15.4445 678.272 14.1364 678.272H13.1739V683.43ZM31.2919 689.057C31.2919 691.895 29.9345 693.647 26.7015 693.647C23.4931 693.647 22.1603 691.895 22.1603 689.057V675.483H25.27V689.081C25.27 690.389 25.7636 690.883 26.7015 690.883C27.6887 690.883 28.1823 690.389 28.1823 689.081V675.483H31.2919V689.057ZM38.2154 675.483V690.612H43.1514V693.4H35.1058V675.483H38.2154ZM49.2299 675.483V690.612H54.1659V693.4H46.1202V675.483H49.2299ZM64.9335 675.483V678.272H60.2443V682.566H64.119V685.355H60.2443V690.612H65.1803V693.4H57.1346V675.483H64.9335ZM72.9311 675.483C76.1642 675.483 77.5216 677.235 77.5216 680.073V688.835C77.5216 691.648 76.1642 693.4 72.9311 693.4H68.39V675.483H72.9311ZM71.4997 690.612H72.709C73.8443 690.612 74.4119 690.044 74.4119 688.588V680.295C74.4119 678.839 73.8443 678.272 72.709 678.272H71.4997V690.612ZM91.5805 675.483C94.9617 675.483 96.3931 677.235 96.3931 680.764C96.3931 684.466 94.9617 686.219 91.5805 686.219H90.3712V693.4H87.2615V675.483H91.5805ZM90.3712 683.43H91.3337C92.6418 683.43 93.2835 682.936 93.2835 680.789C93.2835 678.765 92.6418 678.272 91.3337 678.272H90.3712V683.43ZM108.366 689.057C108.366 691.895 107.008 693.647 103.775 693.647C100.567 693.647 99.2342 691.895 99.2342 689.057V679.826C99.2342 676.988 100.567 675.261 103.775 675.261C107.008 675.261 108.366 676.988 108.366 679.826V689.057ZM102.344 689.081C102.344 690.389 102.838 690.883 103.775 690.883C104.763 690.883 105.256 690.389 105.256 689.081V679.826C105.256 678.543 104.763 678.025 103.775 678.025C102.838 678.025 102.344 678.543 102.344 679.826V689.081ZM116.381 675.483C119.787 675.483 121.194 677.235 121.194 680.764C121.194 683.158 120.651 684.688 119.293 685.527L121.761 693.4H118.429L116.43 686.219H115.172V693.4H112.062V675.483H116.381ZM115.172 683.43H116.134C117.442 683.43 118.084 682.936 118.084 680.789C118.084 678.765 117.442 678.272 116.134 678.272H115.172V683.43ZM127.946 675.483V682.023L131.327 675.483H134.782L130.586 682.591L134.979 693.4H131.475L128.711 685.256L127.946 686.391V693.4H124.836V675.483H127.946Z" fill="#0078AE"/>
<path fill-rule="evenodd" clip-rule="evenodd" d="M70.5768 702.821C83.3468 702.821 116.917 710.321 112.147 742.931C107.177 776.921 65.2168 770.491 52.4368 770.491C39.6568 770.491 33.3667 755.341 38.3767 736.651C43.3867 717.961 57.7968 702.811 70.5768 702.811V702.821Z" fill="#9B0D0D"/>
<path fill-rule="evenodd" clip-rule="evenodd" d="M50.9567 702.82C63.7267 702.82 70.0266 717.97 65.0166 736.66C60.0066 755.35 45.5967 770.5 32.8167 770.5C20.0367 770.5 13.7466 755.35 18.7566 736.66C23.7666 717.97 38.1767 702.82 50.9567 702.82Z" fill="#E31937"/>
<path d="M32.8167 773.91C27.1667 773.91 22.3466 771.52 18.8766 766.99C13.4066 759.86 12.1267 748.2 15.4567 735.77C20.9167 715.37 36.5167 699.4 50.9567 699.4C56.6067 699.4 61.4266 701.79 64.8966 706.32C70.3666 713.45 71.6467 725.12 68.3167 737.55C62.8567 757.94 47.2567 773.91 32.8167 773.91ZM50.9567 706.23C39.8367 706.23 26.6067 720.57 22.0567 737.55C19.3167 747.77 20.1767 757.47 24.3067 762.84C26.4667 765.66 29.3267 767.09 32.8267 767.09C43.9467 767.09 57.1766 752.75 61.7166 735.78C64.4566 725.55 63.5966 715.86 59.4766 710.49C57.3166 707.67 54.4567 706.24 50.9567 706.24V706.23Z" fill="#231F20"/>
<path d="M79.0769 773.91H32.8169V767.08H79.0769C95.8469 767.08 109.497 753.43 109.497 736.66C109.497 719.89 95.8469 706.23 79.0769 706.23H50.9569V699.4H79.0769C99.6269 699.4 116.337 716.11 116.337 736.66C116.337 757.21 99.6269 773.91 79.0769 773.91Z" fill="#231F20"/>
<path fill-rule="evenodd" clip-rule="evenodd" d="M112.427 736.08C116.427 733.42 120.437 730.76 124.447 728.1C125.547 727.37 126.907 727.39 127.987 728.13C129.077 728.88 129.567 730.14 129.287 731.43C128.237 736.14 128.167 740.99 129.287 745.99C129.577 747.27 129.077 748.54 127.997 749.29C126.907 750.04 125.547 750.05 124.447 749.32C120.437 746.66 116.437 744.01 112.437 741.35C111.527 740.75 111.027 739.81 111.027 738.71C111.027 737.61 111.527 736.68 112.437 736.07L112.427 736.08Z" fill="#231F20"/>
<path fill-rule="evenodd" clip-rule="evenodd" d="M39.7469 735.79C40.3969 733.35 42.0169 731.38 43.3569 731.38C44.6969 731.38 45.2569 733.36 44.6069 735.79C43.9569 738.23 42.3369 740.21 40.9969 740.21C39.6569 740.21 39.0969 738.23 39.7469 735.79Z" fill="white"/>
<path fill-rule="evenodd" clip-rule="evenodd" d="M36.1068 718.85C36.7568 716.41 38.3768 714.44 39.7168 714.44C41.0568 714.44 41.6168 716.42 40.9668 718.85C40.3168 721.29 38.6968 723.27 37.3568 723.27C36.0168 723.27 35.4568 721.29 36.1068 718.85Z" fill="white"/>
<path fill-rule="evenodd" clip-rule="evenodd" d="M49.3368 718.4C49.9868 715.96 51.6068 713.98 52.9468 713.98C54.2868 713.98 54.8468 715.96 54.1968 718.4C53.5468 720.84 51.9268 722.82 50.5868 722.82C49.2468 722.82 48.6868 720.84 49.3368 718.4Z" fill="white"/>
<path fill-rule="evenodd" clip-rule="evenodd" d="M41.0367 754.11C41.6867 751.67 43.3067 749.69 44.6467 749.69C45.9867 749.69 46.5467 751.67 45.8867 754.11C45.2367 756.55 43.6167 758.52 42.2767 758.52C40.9367 758.52 40.3767 756.54 41.0267 754.11H41.0367Z" fill="white"/>
<path fill-rule="evenodd" clip-rule="evenodd" d="M28.0868 754.49C28.7368 752.05 30.3568 750.07 31.6968 750.07C33.0368 750.07 33.5968 752.05 32.9468 754.49C32.2968 756.93 30.6768 758.91 29.3368 758.91C27.9968 758.91 27.4368 756.93 28.0868 754.49Z" fill="white"/>
<path fill-rule="evenodd" clip-rule="evenodd" d="M27.2865 739.44C27.9365 737 29.5565 735.03 30.8965 735.03C32.2365 735.03 32.7965 737.01 32.1465 739.44C31.4965 741.88 29.8765 743.86 28.5365 743.86C27.1965 743.86 26.6365 741.88 27.2865 739.44Z" fill="white"/>
<path fill-rule="evenodd" clip-rule="evenodd" d="M52.9164 736.751C53.5664 734.311 55.1864 732.341 56.5264 732.341C57.8664 732.341 58.4264 734.321 57.7764 736.751C57.1264 739.191 55.5064 741.171 54.1664 741.171C52.8264 741.171 52.2664 739.191 52.9164 736.751Z" fill="white"/>
<path fill-rule="evenodd" clip-rule="evenodd" d="M104.497 735.851C104.537 735.281 104.667 734.731 104.667 734.151C104.667 721.811 94.6668 711.811 82.3268 711.811C81.2568 711.811 80.2268 711.981 79.1968 712.131C91.5268 714.501 101.347 723.821 104.497 735.861V735.851Z" fill="white"/>
<path d="M22.9921 808.463C26.3733 808.463 27.8047 810.215 27.8047 813.745C27.8047 817.447 26.3733 819.199 22.9921 819.199H21.7828V826.381H18.6731V808.463H22.9921ZM21.7828 816.41H22.7453C24.0534 816.41 24.6951 815.917 24.6951 813.769C24.6951 811.746 24.0534 811.252 22.7453 811.252H21.7828V816.41ZM38.6915 808.463V811.252H34.0023V815.546H37.8771V818.335H34.0023V823.592H38.9383V826.381H30.8926V808.463H38.6915ZM46.4671 808.463C49.8482 808.463 51.2797 810.215 51.2797 813.745C51.2797 817.447 49.8482 819.199 46.4671 819.199H45.2577V826.381H42.1481V808.463H46.4671ZM45.2577 816.41H46.2203C47.5283 816.41 48.17 815.917 48.17 813.769C48.17 811.746 47.5283 811.252 46.2203 811.252H45.2577V816.41ZM58.6865 808.463C62.0677 808.463 63.4991 810.215 63.4991 813.745C63.4991 817.447 62.0677 819.199 58.6865 819.199H57.4772V826.381H54.3675V808.463H58.6865ZM57.4772 816.41H58.4397C59.7478 816.41 60.3895 815.917 60.3895 813.769C60.3895 811.746 59.7478 811.252 58.4397 811.252H57.4772V816.41ZM74.3859 808.463V811.252H69.6967V815.546H73.5715V818.335H69.6967V823.592H74.6327V826.381H66.587V808.463H74.3859ZM82.1615 808.463C85.5673 808.463 86.9741 810.215 86.9741 813.745C86.9741 816.139 86.4311 817.669 85.0737 818.508L87.5417 826.381H84.2099L82.2108 819.199H80.9521V826.381H77.8425V808.463H82.1615ZM80.9521 816.41H81.9147C83.2227 816.41 83.8644 815.917 83.8644 813.769C83.8644 811.746 83.2227 811.252 81.9147 811.252H80.9521V816.41ZM99.5011 822.037C99.5011 824.875 98.1437 826.628 94.9106 826.628C91.7022 826.628 90.3695 824.875 90.3695 822.037V812.807C90.3695 809.969 91.7022 808.241 94.9106 808.241C98.1437 808.241 99.5011 809.969 99.5011 812.807V822.037ZM93.4792 822.062C93.4792 823.37 93.9728 823.863 94.9106 823.863C95.8978 823.863 96.3914 823.37 96.3914 822.062V812.807C96.3914 811.523 95.8978 811.005 94.9106 811.005C93.9728 811.005 93.4792 811.523 93.4792 812.807V822.062ZM103.197 826.381V808.463H106.011L110.206 819.372V808.463H113.045V826.381H110.379L106.06 815.546V826.381H103.197ZM120.068 808.463V826.381H116.983V808.463H120.068Z" fill="#0078AE"/>
</svg>
