<svg width="184" height="1017" viewBox="0 0 184 1017" fill="none" xmlns="http://www.w3.org/2000/svg">
<path d="M87.0311 891.794C87.0311 891.794 122.001 902.802 126.111 910.369C130.221 917.935 132.971 929.636 128.171 935.827C123.371 942.019 108.291 951.652 101.431 955.094C94.5712 958.536 82.8911 960.613 82.8911 960.613C82.8911 960.613 95.9412 953.027 95.9412 935.135C95.9412 917.243 94.5711 904.177 91.1411 900.735C87.7111 897.293 87.0311 891.794 87.0311 891.794Z" fill="#C55450"/>
<path d="M69.2012 884.91C69.2012 884.91 93.8813 895.918 96.6313 906.927C99.3713 917.935 98.6913 943.394 92.5213 950.96C86.3513 958.526 79.4913 967.478 72.6413 968.16C65.7813 968.852 45.9013 964.718 42.4713 959.901C39.0413 955.084 32.1913 941.327 31.5013 931.693C30.8113 922.059 30.8113 911.744 34.2413 904.86C37.6713 897.976 39.7313 893.159 43.8413 890.409C47.9513 887.66 57.5513 884.218 57.5513 884.218L69.2112 884.91H69.2012Z" fill="white"/>
<path d="M120.661 902.913C109.971 896.972 96.1812 890.359 85.4912 885.321C78.8912 881.839 71.4312 880.023 63.9212 880.063C63.9212 880.063 63.9212 880.063 63.9112 880.063C59.1612 880.093 54.5312 881.207 50.1712 883.385C35.9712 890.469 26.8812 907.308 27.0012 926.304C27.1712 951.672 43.9912 972.204 64.5012 972.073C65.6912 972.073 66.8712 971.993 68.0512 971.843C73.8212 971.351 79.4712 969.836 84.5612 967.297C85.0312 967.056 85.5112 966.815 85.9812 966.554L120.881 949.133C129.841 945.029 135.431 936.148 135.371 926.023C135.311 915.757 129.571 906.836 120.661 902.893V902.913ZM33.6912 926.274C33.5912 910.088 41.4112 895.276 53.1512 889.416C56.5912 887.7 60.2311 886.817 63.9611 886.787C80.7811 886.676 94.5811 904.217 94.7211 925.883C94.8211 942.069 87.0012 956.88 75.2612 962.741C72.7212 964.005 70.0712 964.818 67.3612 965.169C66.3912 965.25 65.4311 965.37 64.4511 965.37C47.6311 965.48 33.8312 947.939 33.6912 926.274ZM118.001 943.102L92.8012 955.676C98.3212 947.528 101.481 937.072 101.411 925.842C101.341 914.403 97.8512 903.966 92.1912 895.948C100.741 900.063 109.941 904.639 117.681 908.934C124.421 911.934 128.631 918.507 128.671 926.093C128.721 933.549 124.581 939.801 117.991 943.102H118.001Z" fill="#231F20"/>
<path fill-rule="evenodd" clip-rule="evenodd" d="M64.0011 892.667C74.7111 892.597 83.9811 900.535 88.2511 912.005C88.4811 912.627 88.431 913.259 88.101 913.831C87.771 914.403 87.251 914.764 86.601 914.875C81.371 915.758 78.041 920.213 72.591 922.481C71.061 920.143 67.8311 918.658 66.1511 918.668C64.4711 918.678 64.6411 918.808 63.9311 919.059C60.2411 913.831 55.491 904.639 52.961 897.855C52.581 896.832 53.011 895.698 53.971 895.196C57.061 893.58 60.4511 892.677 64.0011 892.657V892.667ZM90.6311 923.153C90.7011 924.067 90.7311 924.99 90.7411 925.913C90.8611 944.367 79.0811 959.399 64.4311 959.49C61.7911 959.51 59.241 959.038 56.841 958.155C55.811 957.774 55.2411 956.69 55.5011 955.626C57.5511 947.217 62.2111 943.785 64.5611 939.219C65.1211 939.37 63.7211 939.45 66.2911 939.44C68.8611 939.42 74.581 934.744 74.461 929.014V928.683C79.781 926.435 83.0111 922.019 88.1711 921.197C88.7811 921.096 89.351 921.247 89.841 921.638C90.331 922.029 90.6011 922.541 90.6511 923.163L90.6311 923.153ZM46.6911 951.101C47.2211 951.693 47.9811 951.933 48.7611 951.753C49.5411 951.572 50.121 951.02 50.341 950.248C52.541 942.501 57.1911 939.45 59.5211 935.085C58.5611 933.399 57.981 931.242 57.971 929.104C57.961 926.967 58.421 925.14 59.221 923.535C55.591 918.598 50.8411 909.967 48.4011 903.866C48.1011 903.124 47.4711 902.632 46.6811 902.532C45.8911 902.431 45.1611 902.742 44.6811 903.395C40.2811 909.395 37.6211 917.433 37.6711 926.254C37.7311 936.149 41.2111 945.019 46.6711 951.101H46.6911Z" fill="#E31937"/>
<path d="M43.7478 1010.9V992.977H46.5614L50.757 1003.89V992.977H53.5952V1010.9H50.9297L46.6107 1000.06V1010.9H43.7478ZM59.9032 1007.17L59.2862 1010.9H56.2999L59.7305 992.977H63.5312L66.9617 1010.9H63.8273L63.2103 1007.17H59.9032ZM62.7414 1004.38L61.5568 997.222L60.3475 1004.38H62.7414ZM78.6893 1006.55C78.6893 1009.39 77.3319 1011.14 74.0988 1011.14C70.8904 1011.14 69.5577 1009.39 69.5577 1006.55V992.977H72.6674V1006.58C72.6674 1007.88 73.161 1008.38 74.0988 1008.38C75.086 1008.38 75.5796 1007.88 75.5796 1006.58V992.977H78.6893V1006.55ZM90.3761 992.977V995.766H87.3651V1010.9H84.2801V995.766H81.2691V992.977H90.3761ZM94.5854 1007.17L93.9684 1010.9H90.9821L94.4126 992.977H98.2133L101.644 1010.9H98.5095L97.8925 1007.17H94.5854ZM97.4236 1004.38L96.2389 997.222L95.0296 1004.38H97.4236ZM107.473 1002.85V1010.9H104.363V992.977H107.473V1000.06H110.558V992.977H113.668V1010.9H110.558V1002.85H107.473ZM119.988 1007.17L119.371 1010.9H116.385L119.816 992.977H123.616L127.047 1010.9H123.913L123.296 1007.17H119.988ZM122.827 1004.38L121.642 997.222L120.433 1004.38H122.827ZM132.876 992.977V999.518L136.257 992.977H139.712L135.517 1000.09L139.91 1010.9H136.405L133.641 1002.75L132.876 1003.89V1010.9H129.766V992.977H132.876ZM145.361 992.977V999.518L148.742 992.977H152.197L148.001 1000.09L152.394 1010.9H148.89L146.126 1002.75L145.361 1003.89V1010.9H142.251V992.977H145.361Z" fill="#0078AE"/>
<path d="M89.2609 701.529C88.8009 699.863 88.1908 697.314 87.7008 695.207C87.4508 694.153 86.2208 694.153 85.9708 695.207C85.4808 697.324 84.8708 699.863 84.4108 701.529C83.6408 704.339 82.0908 707.801 82.0908 707.801L82.7008 707.981C82.8308 708.021 82.9608 708.102 83.0608 708.212L86.2609 711.514C86.5909 711.855 87.0808 711.855 87.4208 711.514L90.6208 708.212C90.7208 708.102 90.8508 708.031 90.9808 707.981L91.5908 707.801C91.5908 707.801 90.0409 704.339 89.2709 701.529H89.2609Z" fill="#7EBE50" stroke="#231F20" stroke-width="2.71" stroke-miterlimit="10"/>
<path d="M80.3812 705.442C77.9212 703.847 75.4111 702.833 73.1011 702.402C72.3511 702.261 71.9411 703.375 72.5411 703.927C74.3511 705.593 76.1011 707.841 77.5911 710.54C80.2411 715.367 81.4111 720.515 81.0311 724.398C80.9811 724.9 81.3111 725.332 81.7311 725.352C85.0911 725.552 87.8211 724.398 88.9911 721.87C91.1211 717.274 87.2612 709.918 80.3812 705.442Z" fill="#7EBE50" stroke="#231F20" stroke-width="2.71" stroke-miterlimit="10"/>
<path d="M93.8211 705.372C96.3711 703.917 98.9312 703.054 101.261 702.763C102.021 702.663 102.361 703.807 101.731 704.318C99.8312 705.874 97.9511 708.011 96.3111 710.63C93.3811 715.297 91.9211 720.364 92.0811 724.268C92.1011 724.77 91.7511 725.181 91.3211 725.181C87.9511 725.181 85.2912 723.876 84.2712 721.287C82.4112 716.571 86.6911 709.456 93.8211 705.382V705.372Z" fill="#446B2C" stroke="#231F20" stroke-width="3.02" stroke-miterlimit="10"/>
<path d="M75.571 712.838C72.391 711.644 69.3011 711.132 66.5811 711.213C65.7011 711.243 65.511 712.608 66.321 713.079C68.781 714.504 71.321 716.612 73.671 719.301C77.871 724.108 80.4711 729.627 81.0011 734.122C81.0711 734.694 81.551 735.106 82.031 735.026C85.881 734.413 88.6911 732.417 89.3811 729.276C90.6511 723.536 84.461 716.18 75.551 712.838H75.571Z" fill="#7EBE50" stroke="#231F20" stroke-width="3.14" stroke-miterlimit="10"/>
<path d="M97.161 713.842C100.411 712.467 103.601 711.805 106.431 711.774C107.351 711.774 107.601 713.179 106.781 713.701C104.281 715.287 101.731 717.585 99.401 720.475C95.241 725.643 92.771 731.483 92.401 736.179C92.351 736.781 91.8711 737.223 91.3711 737.163C87.3411 736.691 84.3511 734.734 83.4911 731.493C81.9311 725.592 88.061 717.685 97.161 713.832V713.842Z" fill="#446B2C" stroke="#231F20" stroke-width="3.02" stroke-miterlimit="10"/>
<path d="M70.6011 722.502C67.1711 721.478 63.8811 721.157 61.0211 721.448C60.0911 721.539 59.9911 722.994 60.8811 723.435C63.5711 724.76 66.401 726.797 69.071 729.456C73.841 734.203 76.9711 739.832 77.8611 744.529C77.9711 745.131 78.5111 745.522 79.0111 745.412C83.0211 744.488 85.831 742.19 86.341 738.819C87.261 732.687 80.2211 725.392 70.6011 722.512V722.502Z" fill="#7EBE50" stroke="#231F20" stroke-width="3.32" stroke-miterlimit="10"/>
<path d="M101.981 722.502C105.411 721.478 108.701 721.157 111.561 721.448C112.491 721.539 112.591 722.994 111.701 723.435C109.011 724.76 106.181 726.797 103.511 729.456C98.741 734.203 95.611 739.832 94.721 744.529C94.611 745.131 94.0709 745.522 93.5709 745.412C89.5609 744.488 86.751 742.19 86.241 738.819C85.321 732.687 92.361 725.392 101.981 722.512V722.502Z" fill="#446B2C" stroke="#231F20" stroke-width="3.02" stroke-miterlimit="10"/>
<path d="M110.281 759.049C110.281 745.709 99.5067 734.895 86.2159 734.895C72.9252 734.895 62.1509 745.709 62.1509 759.049V778.727C62.1509 792.067 72.9252 802.881 86.2159 802.881C99.5067 802.881 110.281 792.067 110.281 778.727V759.049Z" fill="#FFAF00" stroke="#231F20" stroke-width="3.32" stroke-miterlimit="10"/>
<path d="M78.1711 792.245C78.1711 788.06 75.1412 784.317 70.3512 781.658C67.3512 783.324 65.0512 785.411 63.7412 787.759" stroke="#231F20" stroke-width="2.74" stroke-miterlimit="10"/>
<path d="M93.9413 792.245C93.9413 788.06 90.9113 784.317 86.1213 781.658C81.3313 784.317 78.3013 788.06 78.3013 792.245" stroke="#231F20" stroke-width="2.74" stroke-miterlimit="10"/>
<path d="M108.201 787.368C106.861 785.18 104.651 783.233 101.821 781.658C97.0309 784.317 94.001 788.06 94.001 792.245" stroke="#231F20" stroke-width="2.74" stroke-miterlimit="10"/>
<path d="M85.9911 802.33C85.9911 798.145 82.961 794.402 78.171 791.743C75.171 793.408 72.871 795.496 71.561 797.844" stroke="#231F20" stroke-width="2.74" stroke-miterlimit="10"/>
<path d="M100.551 797.964C99.251 795.566 96.9211 793.439 93.8811 791.743C89.0911 794.402 86.061 798.145 86.061 802.33" stroke="#231F20" stroke-width="2.74" stroke-miterlimit="10"/>
<path d="M70.2312 781.999C70.2312 777.814 67.2011 774.071 62.4111 771.412" stroke="#231F20" stroke-width="2.74" stroke-miterlimit="10"/>
<path d="M85.9911 781.999C85.9911 777.814 82.961 774.071 78.171 771.412C73.381 774.071 70.3511 777.814 70.3511 781.999" stroke="#231F20" stroke-width="2.74" stroke-miterlimit="10"/>
<path d="M101.701 781.999C101.701 777.814 98.6711 774.071 93.8811 771.412C89.0911 774.071 86.061 777.814 86.061 781.999" stroke="#231F20" stroke-width="2.74" stroke-miterlimit="10"/>
<path d="M109.641 771.412C104.851 774.071 101.821 777.814 101.821 781.999" stroke="#231F20" stroke-width="2.74" stroke-miterlimit="10"/>
<path d="M78.1713 771.582C78.1713 767.398 75.1413 763.655 70.3513 760.996C65.5613 763.655 62.5312 767.398 62.5312 771.582" stroke="#231F20" stroke-width="2.74" stroke-miterlimit="10"/>
<path d="M93.9413 771.582C93.9413 767.398 90.9113 763.655 86.1213 760.996C81.3313 763.655 78.3013 767.398 78.3013 771.582" stroke="#231F20" stroke-width="2.74" stroke-miterlimit="10"/>
<path d="M109.641 771.582C109.641 767.398 106.611 763.655 101.821 760.996C97.0314 763.655 94.0015 767.398 94.0015 771.582" stroke="#231F20" stroke-width="2.74" stroke-miterlimit="10"/>
<path d="M78.171 751.523C78.171 747.338 75.1411 743.595 70.3511 740.936" stroke="#231F20" stroke-width="2.74" stroke-miterlimit="10"/>
<path d="M93.9408 751.523C93.9408 747.338 90.9108 743.595 86.1208 740.936C81.3308 743.595 78.3008 747.338 78.3008 751.523" stroke="#231F20" stroke-width="2.74" stroke-miterlimit="10"/>
<path d="M101.821 740.936C97.0309 743.595 94.001 747.338 94.001 751.523" stroke="#231F20" stroke-width="2.74" stroke-miterlimit="10"/>
<path d="M70.2312 761.607C70.2312 757.423 67.2011 753.68 62.4111 751.021" stroke="#231F20" stroke-width="2.74" stroke-miterlimit="10"/>
<path d="M85.9911 761.607C85.9911 757.423 82.961 753.68 78.171 751.021C73.381 753.68 70.3511 757.423 70.3511 761.607" stroke="#231F20" stroke-width="2.74" stroke-miterlimit="10"/>
<path d="M101.701 761.607C101.701 757.423 98.6711 753.68 93.8811 751.021C89.0911 753.68 86.061 757.423 86.061 761.607" stroke="#231F20" stroke-width="2.74" stroke-miterlimit="10"/>
<path d="M109.641 751.021C104.851 753.68 101.821 757.423 101.821 761.607" stroke="#231F20" stroke-width="2.74" stroke-miterlimit="10"/>
<path d="M85.731 740.935V735.316" stroke="#231F20" stroke-width="2.74" stroke-miterlimit="10"/>
<path d="M55.3437 840.977L54.7267 844.704H51.7404L55.1709 826.786H58.9716L62.4022 844.704H59.2678L58.6508 840.977H55.3437ZM58.1819 838.188L56.9972 831.031L55.7879 838.188H58.1819ZM65.1216 844.704V826.786H67.9351L72.1307 837.694V826.786H74.9689V844.704H72.3035L67.9845 833.869V844.704H65.1216ZM81.277 840.977L80.66 844.704H77.6737L81.1042 826.786H84.9049L88.3354 844.704H85.2011L84.5841 840.977H81.277ZM84.1152 838.188L82.9305 831.031L81.7212 838.188H84.1152ZM91.0549 844.704V826.786H93.8684L98.064 837.694V826.786H100.902V844.704H98.2367L93.9177 833.869V844.704H91.0549ZM107.21 840.977L106.593 844.704H103.607L107.037 826.786H110.838L114.269 844.704H111.134L110.517 840.977H107.21ZM110.048 838.188L108.864 831.031L107.654 838.188H110.048ZM119.283 840.36C119.283 841.668 119.826 842.162 120.814 842.162C121.825 842.162 122.393 841.594 122.393 840.286C122.393 838.78 121.184 837.769 119.974 836.806C118.296 835.473 116.371 833.869 116.371 830.883C116.371 828.217 118.197 826.564 120.814 826.564C123.874 826.564 125.256 828.291 125.256 831.13V831.969H122.146V831.13C122.146 829.846 121.677 829.328 120.838 829.328C119.95 829.328 119.481 829.871 119.481 830.883C119.481 832.388 120.838 833.499 122.023 834.412C123.75 835.745 125.503 837.275 125.503 840.261C125.503 843.223 123.578 844.95 120.838 844.95C117.63 844.95 116.174 843.198 116.174 840.36V839.151H119.283V840.36Z" fill="#0078AE"/>
<path fill-rule="evenodd" clip-rule="evenodd" d="M82.1997 557.58C83.4597 558.142 84.5997 558.865 85.6297 559.708C82.3197 565.458 81.9597 573.496 85.2997 581.022C86.2897 583.25 87.5297 585.267 88.9497 587.043C83.5997 597.349 72.7397 602.497 64.0097 598.593C54.8497 594.499 51.4897 582.005 56.5097 570.676C61.5297 559.346 73.0297 553.486 82.1997 557.58Z" fill="#231F20"/>
<path d="M70.1996 602.778C67.6296 602.778 65.1496 602.256 62.8496 601.222C57.6096 598.884 53.8196 594.218 52.1796 588.087C50.5896 582.176 51.1996 575.573 53.8996 569.492C58.1796 559.859 67.0696 553.376 76.0396 553.376C78.6096 553.376 81.0796 553.898 83.3896 554.931C84.8596 555.594 86.2296 556.447 87.4796 557.47L89.3696 559.026L88.1496 561.153C85.1896 566.291 85.1196 573.456 87.9596 579.848C88.8196 581.795 89.9196 583.601 91.2196 585.217L92.3996 586.692L91.5296 588.368C86.9896 597.118 78.6296 602.778 70.2096 602.778H70.1996ZM76.0296 559.166C69.2996 559.166 62.5196 564.264 59.1496 571.85C56.9896 576.717 56.4796 581.955 57.7296 586.592C58.9096 591.007 61.5596 594.339 65.1796 595.944C71.9196 598.975 80.7396 595.041 85.5196 587.264C84.4196 585.688 83.4596 583.982 82.6696 582.196C79.4596 574.951 79.2296 567.114 81.9396 560.671C81.6396 560.501 81.3396 560.35 81.0196 560.21C79.4596 559.517 77.7696 559.166 76.0196 559.166H76.0296Z" fill="#231F20"/>
<path fill-rule="evenodd" clip-rule="evenodd" d="M92.7998 553.115C83.6398 557.209 80.2798 569.703 85.2998 581.032C90.3198 592.362 101.82 598.222 110.99 594.128C120.15 590.034 123.51 577.54 118.49 566.211C113.47 554.881 101.97 549.021 92.7998 553.115Z" fill="#231F20"/>
<path d="M104.82 598.312C95.8497 598.312 86.9597 591.84 82.6897 582.196C79.9897 576.115 79.3796 569.512 80.9696 563.601C82.6196 557.48 86.4097 552.814 91.6397 550.466C93.9497 549.432 96.4197 548.91 98.9897 548.91C107.95 548.91 116.85 555.383 121.12 565.016C126.77 577.781 122.76 592.01 112.17 596.757C109.86 597.79 107.39 598.312 104.82 598.312ZM98.9897 554.7C97.2297 554.7 95.5397 555.052 93.9797 555.754C90.3597 557.37 87.7096 560.701 86.5296 565.107C85.2796 569.743 85.7897 574.971 87.9497 579.848C91.3097 587.434 98.0997 592.532 104.83 592.532C106.58 592.532 108.27 592.181 109.84 591.478C117.53 588.036 120.24 577.229 115.87 567.374C112.5 559.788 105.72 554.7 98.9997 554.7H98.9897Z" fill="#231F20"/>
<path fill-rule="evenodd" clip-rule="evenodd" d="M97.4996 563.702C92.6496 566.08 91.9996 577.42 93.4496 580.691C87.1396 575.232 88.4996 561.153 95.3296 558.835L97.4996 563.712V563.702Z" fill="white"/>
<path fill-rule="evenodd" clip-rule="evenodd" d="M75.9595 567.866C70.5695 567.495 64.3695 576.988 63.9895 580.55C61.2495 572.653 69.4395 561.143 76.5095 562.558L75.9595 567.866Z" fill="white"/>
<path d="M15.2696 648.746C15.2696 650.054 15.8126 650.547 16.7998 650.547C17.8117 650.547 18.3793 649.98 18.3793 648.672C18.3793 647.166 17.17 646.154 15.9607 645.192C14.2824 643.859 12.3574 642.255 12.3574 639.269C12.3574 636.603 14.1837 634.95 16.7998 634.95C19.8601 634.95 21.2422 636.677 21.2422 639.515V640.354H18.1325V639.515C18.1325 638.232 17.6636 637.714 16.8245 637.714C15.936 637.714 15.4671 638.257 15.4671 639.269C15.4671 640.774 16.8245 641.885 18.0091 642.798C19.7367 644.131 21.489 645.661 21.489 648.647C21.489 651.609 19.564 653.336 16.8245 653.336C13.6161 653.336 12.16 651.584 12.16 648.746V647.536H15.2696V648.746ZM34.0432 635.172L30.6127 653.089H26.812L23.3815 635.172H26.6392L28.7864 648.153L30.9335 635.172H34.0432ZM38.6499 649.363L38.0329 653.089H35.0466L38.4771 635.172H42.2779L45.7084 653.089H42.574L41.957 649.363H38.6499ZM41.4881 646.574L40.3035 639.417L39.0941 646.574H41.4881ZM52.7468 635.172C56.1526 635.172 57.5594 636.924 57.5594 640.453C57.5594 642.847 57.0164 644.377 55.659 645.216L58.127 653.089H54.7952L52.7962 645.907H51.5375V653.089H48.4278V635.172H52.7468ZM51.5375 643.119H52.5C53.808 643.119 54.4497 642.625 54.4497 640.478C54.4497 638.454 53.808 637.961 52.5 637.961H51.5375V643.119ZM68.954 635.172V637.961H65.9431V653.089H62.8581V637.961H59.8471V635.172H68.954ZM73.1633 649.363L72.5463 653.089H69.56L72.9906 635.172H76.7913L80.2218 653.089H77.0874L76.4704 649.363H73.1633ZM76.0015 646.574L74.8169 639.417L73.6076 646.574H76.0015ZM87.2602 635.172C90.6661 635.172 92.0728 636.924 92.0728 640.453C92.0728 642.847 91.5299 644.377 90.1725 645.216L92.6405 653.089H89.3087L87.3096 645.907H86.0509V653.089H82.9412V635.172H87.2602ZM86.0509 643.119H87.0134C88.3215 643.119 88.9632 642.625 88.9632 640.478C88.9632 638.454 88.3215 637.961 87.0134 637.961H86.0509V643.119ZM106.898 633.716H104.479L106.01 630.655H109.193L106.898 633.716ZM110.649 648.746C110.649 651.584 109.292 653.336 106.059 653.336C102.85 653.336 101.518 651.584 101.518 648.746V639.515C101.518 636.677 102.85 634.95 106.059 634.95C109.292 634.95 110.649 636.677 110.649 639.515V648.746ZM104.627 648.77C104.627 650.078 105.121 650.572 106.059 650.572C107.046 650.572 107.54 650.078 107.54 648.77V639.515C107.54 638.232 107.046 637.714 106.059 637.714C105.121 637.714 104.627 638.232 104.627 639.515V648.77ZM117.455 635.172V650.301H122.391V653.089H114.346V635.172H117.455ZM127.754 633.716H125.335L126.865 630.655H130.049L127.754 633.716ZM128.445 635.172V653.089H125.36V635.172H128.445ZM140.443 635.172V637.961H135.507V642.502H139.629V645.29H135.507V653.089H132.398V635.172H140.443ZM152.42 648.746C152.42 651.584 151.063 653.336 147.83 653.336C144.621 653.336 143.289 651.584 143.289 648.746V635.172H146.398V648.77C146.398 650.078 146.892 650.572 147.83 650.572C148.817 650.572 149.311 650.078 149.311 648.77V635.172H152.42V648.746ZM160.553 635.172C163.959 635.172 165.366 636.924 165.366 640.453C165.366 642.847 164.823 644.377 163.465 645.216L165.933 653.089H162.602L160.602 645.907H159.344V653.089H156.234V635.172H160.553ZM159.344 643.119H160.306C161.614 643.119 162.256 642.625 162.256 640.478C162.256 638.454 161.614 637.961 160.306 637.961H159.344V643.119Z" fill="#0078AE"/>
<path fill-rule="evenodd" clip-rule="evenodd" d="M48.9299 361.849H144.31V378.106C140.43 378.106 137.28 381.267 137.28 385.16C137.28 389.054 140.43 392.215 144.31 392.215V441.145H48.9299C35.5399 441.145 24.5898 430.157 24.5898 416.72V386.284C24.5898 372.847 35.5399 361.859 48.9299 361.859V361.849Z" fill="#F8DE18"/>
<path d="M144.3 381.708H147.89V358.247H48.93C33.53 358.247 21 370.82 21 386.284V416.72C21 432.174 33.53 444.758 48.93 444.758H147.89V388.612H144.3C142.4 388.612 140.86 387.067 140.86 385.16C140.86 383.254 142.4 381.708 144.3 381.708ZM28.17 416.71V386.274C28.17 374.935 37.26 365.733 48.5 365.492C42.84 370.63 39.25 378.025 39.25 386.274V416.71C39.25 424.959 42.84 432.354 48.5 437.492C37.26 437.262 28.17 428.049 28.17 416.71ZM140.71 375.125C136.61 376.6 133.68 380.544 133.68 385.15C133.68 389.756 136.61 393.7 140.71 395.175V437.532H67.18C55.74 437.532 46.43 428.19 46.43 416.71V386.274C46.43 374.794 55.74 365.452 67.18 365.452H140.71V375.125Z" fill="#231F20"/>
<path d="M65.2314 379.883H57.9414V387.198H65.2314V379.883Z" fill="#961600"/>
<path d="M91.49 374.765H86.75V379.522H91.49V374.765Z" fill="#961600"/>
<path d="M87.8389 387.197H77.6289V397.443H87.8389V387.197Z" fill="#961600"/>
<path d="M66.7017 406.594H64.5117V408.792H66.7017V406.594Z" fill="#961600"/>
<path d="M95.5022 412.445H91.4922V416.469H95.5022V412.445Z" fill="#961600"/>
<path d="M115.921 403.665H112.641V406.956H115.921V403.665Z" fill="#961600"/>
<path d="M115.56 378.417H111.91V382.079H115.56V378.417Z" fill="#961600"/>
<path d="M132.692 418.668H126.492V424.89H132.692V418.668Z" fill="#961600"/>
<path d="M106.069 391.232H102.789V394.524H106.069V391.232Z" fill="#961600"/>
<path d="M73.2596 421.598H68.5195V426.354H73.2596V421.598Z" fill="#961600"/>
<path d="M34.7855 472.002C38.5968 472.002 40.2104 473.977 40.2104 477.955C40.2104 482.128 38.5968 484.103 34.7855 484.103H33.4223V492.199H29.917V472.002H34.7855ZM33.4223 480.96H34.5073C35.9818 480.96 36.7051 480.403 36.7051 477.983C36.7051 475.702 35.9818 475.145 34.5073 475.145H33.4223V480.96ZM47.1687 472.002V492.199H43.6912V472.002H47.1687ZM56.4927 472.002C60.3041 472.002 61.9176 473.977 61.9176 477.955C61.9176 482.128 60.3041 484.103 56.4927 484.103H55.1295V492.199H51.6242V472.002H56.4927ZM55.1295 480.96H56.2145C57.689 480.96 58.4123 480.403 58.4123 477.983C58.4123 475.702 57.689 475.145 56.2145 475.145H55.1295V480.96ZM67.091 487.998L66.3955 492.199H63.0293L66.8963 472.002H71.1806L75.0476 492.199H71.5144L70.8189 487.998H67.091ZM70.2903 484.854L68.955 476.787L67.5918 484.854H70.2903ZM82.9815 472.002C86.8206 472.002 88.4064 473.977 88.4064 477.955C88.4064 480.654 87.7943 482.379 86.2642 483.324L89.0462 492.199H85.2905L83.0371 484.103H81.6183V492.199H78.113V472.002H82.9815ZM81.6183 480.96H82.7033C84.1777 480.96 84.9011 480.403 84.9011 477.983C84.9011 475.702 84.1777 475.145 82.7033 475.145H81.6183V480.96ZM102.527 487.303C102.527 490.502 100.997 492.477 97.3527 492.477C93.7361 492.477 92.2338 490.502 92.2338 487.303V476.898C92.2338 473.699 93.7361 471.751 97.3527 471.751C100.997 471.751 102.527 473.699 102.527 476.898V487.303ZM95.7391 487.33C95.7391 488.805 96.2955 489.361 97.3527 489.361C98.4655 489.361 99.0219 488.805 99.0219 487.33V476.898C99.0219 475.451 98.4655 474.867 97.3527 474.867C96.2955 474.867 95.7391 475.451 95.7391 476.898V487.33ZM109.281 487.303C109.281 488.777 109.893 489.334 111.006 489.334C112.146 489.334 112.786 488.694 112.786 487.219C112.786 485.522 111.423 484.382 110.06 483.297C108.168 481.794 105.998 479.986 105.998 476.62C105.998 473.615 108.057 471.751 111.006 471.751C114.455 471.751 116.013 473.699 116.013 476.898V477.844H112.508V476.898C112.508 475.451 111.979 474.867 111.034 474.867C110.032 474.867 109.504 475.479 109.504 476.62C109.504 478.317 111.034 479.569 112.369 480.598C114.316 482.1 116.292 483.825 116.292 487.191C116.292 490.53 114.122 492.477 111.034 492.477C107.417 492.477 105.776 490.502 105.776 487.303V485.939H109.281V487.303ZM128.69 472.002V475.145H125.296V492.199H121.819V475.145H118.425V472.002H128.69ZM141.897 487.303C141.897 490.502 140.367 492.477 136.722 492.477C133.106 492.477 131.603 490.502 131.603 487.303V472.002H135.109V487.33C135.109 488.805 135.665 489.361 136.722 489.361C137.835 489.361 138.392 488.805 138.392 487.33V472.002H141.897V487.303ZM151.064 472.002C154.904 472.002 156.489 473.977 156.489 477.955C156.489 480.654 155.877 482.379 154.347 483.324L157.129 492.199H153.373L151.12 484.103H149.701V492.199H146.196V472.002H151.064ZM149.701 480.96H150.786C152.261 480.96 152.984 480.403 152.984 477.983C152.984 475.702 152.261 475.145 150.786 475.145H149.701V480.96Z" fill="#0078AE"/>
<path d="M95.0228 193.362C95.0228 193.362 129.993 204.371 134.103 211.937C138.213 219.503 140.963 231.204 136.163 237.396C131.363 243.587 116.283 253.221 109.423 256.663C102.563 260.105 90.8828 262.182 90.8828 262.182C90.8828 262.182 103.933 254.595 103.933 236.703C103.933 218.811 102.563 205.745 99.1328 202.303C95.7028 198.861 95.0228 193.362 95.0228 193.362Z" fill="#C55450"/>
<path d="M77.2018 186.48C77.2018 186.48 101.882 197.488 104.632 208.496C107.372 219.504 106.692 244.963 100.522 252.529C94.3518 260.096 87.4918 269.047 80.6418 269.729C73.7818 270.422 53.9018 266.287 50.4718 261.47C47.0418 256.654 40.1918 242.896 39.5018 233.262C38.8118 223.629 38.8118 213.313 42.2418 206.429C45.6718 199.545 47.7318 194.728 51.8418 191.979C55.9518 189.229 65.5518 185.787 65.5518 185.787L77.2118 186.48H77.2018Z" fill="white"/>
<path d="M128.661 204.482C117.971 198.542 104.181 191.929 93.4912 186.891C86.8912 183.409 79.4312 181.593 71.9212 181.633C71.9212 181.633 71.9212 181.633 71.9112 181.633C67.1612 181.663 62.5312 182.777 58.1712 184.954C43.9712 192.039 34.8812 208.878 35.0012 227.874C35.1712 253.242 51.9912 273.783 72.5012 273.643C73.6912 273.643 74.8712 273.563 76.0512 273.412C81.8212 272.92 87.4712 271.405 92.5612 268.866C93.0412 268.625 93.5112 268.385 93.9812 268.124L128.881 250.703C137.841 246.599 143.431 237.718 143.371 227.593C143.311 217.327 137.571 208.406 128.661 204.462V204.482ZM41.6912 227.844C41.5912 211.657 49.4112 196.846 61.1512 190.985C64.5912 189.269 68.2312 188.386 71.9612 188.356C88.7812 188.246 102.581 205.787 102.721 227.452C102.821 243.639 95.0012 258.45 83.2612 264.31C80.7212 265.575 78.0712 266.388 75.3612 266.739C74.3912 266.819 73.4312 266.94 72.4512 266.94C55.6312 267.05 41.8312 249.509 41.6912 227.844ZM126.001 244.672L100.801 257.246C106.321 249.098 109.481 238.641 109.411 227.412C109.331 215.972 105.851 205.536 100.191 197.508C108.741 201.622 117.951 206.198 125.681 210.493C132.421 213.494 136.631 220.066 136.671 227.653C136.721 235.109 132.581 241.361 125.991 244.662L126.001 244.672Z" fill="#231F20"/>
<path fill-rule="evenodd" clip-rule="evenodd" d="M71.9908 194.237C82.7008 194.166 91.9708 202.104 96.2408 213.574C96.4708 214.196 96.4208 214.828 96.0908 215.4C95.7608 215.972 95.2408 216.333 94.5908 216.444C89.3608 217.327 86.0308 221.782 80.5808 224.05C79.0508 221.712 75.8209 220.227 74.1409 220.237C72.4609 220.247 72.6309 220.378 71.9209 220.628C68.2309 215.4 63.4809 206.208 60.9509 199.425C60.5709 198.401 61.0008 197.267 61.9608 196.765C65.0508 195.15 68.4408 194.247 71.9908 194.227V194.237ZM98.6208 224.723C98.6908 225.636 98.7209 226.559 98.7309 227.482C98.8509 245.936 87.0709 260.969 72.4209 261.059C69.7809 261.079 67.2308 260.608 64.8308 259.724C63.8008 259.343 63.2308 258.259 63.4908 257.196C65.5408 248.786 70.2008 245.354 72.5508 240.789C73.1108 240.939 71.7108 241.019 74.2808 241.009C76.8508 240.989 82.5709 236.313 82.4509 230.583V230.252C87.7709 228.004 91.0009 223.589 96.1609 222.766C96.7709 222.666 97.3408 222.816 97.8308 223.207C98.3208 223.599 98.5909 224.111 98.6409 224.733L98.6208 224.723ZM54.6808 252.67C55.2108 253.262 55.9708 253.503 56.7508 253.322C57.5308 253.142 58.1108 252.59 58.3308 251.817C60.5308 244.07 65.1809 241.019 67.5109 236.654C66.5509 234.968 65.9708 232.811 65.9608 230.673C65.9508 228.536 66.4108 226.71 67.2108 225.104C63.5808 220.167 58.8309 211.537 56.3909 205.436C56.0909 204.693 55.4609 204.201 54.6709 204.101C53.8809 204.001 53.1509 204.312 52.6709 204.964C48.2709 210.965 45.6108 219.003 45.6608 227.823C45.7208 237.718 49.2008 246.589 54.6608 252.67H54.6808Z" fill="#FFADA7"/>
<path d="M51.4025 311.763C51.4025 313.071 51.9454 313.564 52.9326 313.564C53.9445 313.564 54.5121 312.997 54.5121 311.689C54.5121 310.183 53.3028 309.171 52.0935 308.209C50.4153 306.876 48.4902 305.272 48.4902 302.286C48.4902 299.62 50.3165 297.967 52.9326 297.967C55.9929 297.967 57.375 299.694 57.375 302.532V303.372H54.2653V302.532C54.2653 301.249 53.7964 300.731 52.9573 300.731C52.0688 300.731 51.5999 301.274 51.5999 302.286C51.5999 303.791 52.9573 304.902 54.1419 305.815C55.8695 307.148 57.6218 308.678 57.6218 311.664C57.6218 314.626 55.6968 316.353 52.9573 316.353C49.7489 316.353 48.2928 314.601 48.2928 311.763V310.553H51.4025V311.763ZM63.8579 298.189V304.729L67.2391 298.189H70.6943L66.4987 305.297L70.8917 316.106H67.3872L64.623 307.962L63.8579 309.097V316.106H60.7483V298.189H63.8579ZM76.3179 298.189V316.106H73.2329V298.189H76.3179ZM80.2705 316.106V298.189H83.0841L87.2797 309.097V298.189H90.1179V316.106H87.4524L83.1334 305.272V316.106H80.2705ZM97.1663 298.189V304.729L100.547 298.189H104.003L99.8071 305.297L104.2 316.106H100.696L97.9314 307.962L97.1663 309.097V316.106H94.0566V298.189H97.1663ZM108.911 312.38L108.294 316.106H105.307L108.738 298.189H112.538L115.969 316.106H112.835L112.218 312.38H108.911ZM111.749 309.591L110.564 302.434L109.355 309.591H111.749Z" fill="#0078AE"/>
<path fill-rule="evenodd" clip-rule="evenodd" d="M41.7403 11.2927C33.3603 2.88346 21.8303 -0.177187 11.8703 2.36165C8.39029 3.24472 5.86029 5.78354 4.98029 9.27569C2.46029 19.2705 5.50029 30.8407 13.8803 39.25C23.7303 49.1344 37.9203 51.6231 48.8103 46.3447C54.0703 35.4167 51.5903 21.1771 41.7403 11.3027V11.2927Z" fill="#B6EF18"/>
<path d="M12.81 40.3138C4.33004 31.8042 0.770049 19.7623 3.51005 8.89451C4.52005 4.89058 7.50005 1.89015 11.5 0.876621C22.13 -1.82277 34.46 1.82993 42.81 10.2091C52.92 20.3544 55.88 35.1358 50.17 46.9871L49.94 47.4687L49.47 47.6996C45.56 49.5962 41.2901 50.5595 36.7701 50.5595C28.0401 50.5595 19.3 46.8265 12.82 40.3138H12.81ZM40.67 12.3666C33.06 4.73004 21.87 1.3884 12.24 3.82689C9.30004 4.56947 7.19005 6.69686 6.44005 9.64713C3.96005 19.4814 7.22004 30.4094 14.95 38.1664C20.87 44.1171 28.82 47.5189 36.76 47.5189C40.63 47.5189 44.3 46.7362 47.67 45.1908C52.51 34.5739 49.73 21.4482 40.67 12.3566V12.3666Z" fill="#231F20"/>
<path fill-rule="evenodd" clip-rule="evenodd" d="M55.4901 50.4393C43.1201 36.1696 25.0101 26.4157 15.0601 10.7712C20.2101 28.0012 41.4201 39.2102 51.8701 53.5L55.4901 50.4393Z" fill="#231F20"/>
<path fill-rule="evenodd" clip-rule="evenodd" d="M34.5098 33.3497C23.0798 35.146 19.1298 34.3833 14.8198 31.8345C21.8598 38.8288 34.9798 36.3502 35.0198 36.3401L34.5098 33.3497Z" fill="#231F20"/>
<path fill-rule="evenodd" clip-rule="evenodd" d="M38.2803 38.1262C42.9603 27.5093 43.2503 23.4853 41.9203 18.6484C46.8303 27.2885 41.0403 39.3605 41.0303 39.3906L38.2803 38.1262Z" fill="#231F20"/>
<path fill-rule="evenodd" clip-rule="evenodd" d="M27.9199 27.4691C30.6699 21.2374 30.8399 18.8792 30.0599 16.0293C32.9399 21.0969 29.5499 28.1916 29.5399 28.2117L27.9299 27.4691H27.9199Z" fill="#231F20"/>
<path d="M11.4022 129.345L7.97164 147.263H4.17092L0.7404 129.345H3.99816L6.14532 142.327L8.29248 129.345H11.4022ZM21.9205 129.345V132.134H17.2313V136.428H21.106V139.217H17.2313V144.474H22.1673V147.263H14.1216V129.345H21.9205ZM34.2618 137.934V142.524C34.2618 145.659 32.9044 147.51 29.6713 147.51C26.4629 147.51 25.1302 145.757 25.1302 142.919V133.689C25.1302 130.851 26.4629 129.123 29.6713 129.123C32.9044 129.123 34.2618 130.851 34.2618 133.689V134.849H31.1521V133.689C31.1521 132.406 30.6585 131.887 29.6713 131.887C28.7335 131.887 28.2399 132.406 28.2399 133.689V142.944C28.2399 144.252 28.7335 144.746 29.6713 144.746C30.6585 144.746 31.2755 144.178 31.2755 142.697V140.698H29.7947V137.934H34.2618ZM40.0863 143.536L39.4693 147.263H36.483L39.9135 129.345H43.7143L47.1448 147.263H44.0104L43.3934 143.536H40.0863ZM42.9245 140.747L41.7399 133.59L40.5305 140.747H42.9245ZM49.8642 147.263V129.345H52.6777L56.8733 140.254V129.345H59.7115V147.263H57.0461L52.7271 136.428V147.263H49.8642ZM72.8095 129.345V135.885L76.1906 129.345H79.6458L75.4502 136.453L79.8433 147.263H76.3387L73.5745 139.119L72.8095 140.254V147.263H69.6998V129.345H72.8095ZM82.5184 144.746C83.3328 144.746 83.7524 144.301 83.7524 143.166V129.345H86.862V143.413C86.862 146.054 85.7761 147.51 82.7652 147.51H81.4324V144.746H82.5184ZM95.7763 127.889H93.3577L94.8878 124.829H98.0716L95.7763 127.889ZM99.7005 142.919C99.7005 145.757 98.3431 147.51 95.11 147.51C91.9016 147.51 90.5688 145.757 90.5688 142.919V129.345H93.6785V142.944C93.6785 144.252 94.1721 144.746 95.11 144.746C96.0972 144.746 96.5908 144.252 96.5908 142.944V129.345H99.7005V142.919ZM106.624 129.345V135.885L110.005 129.345H113.46L109.265 136.453L113.658 147.263H110.153L107.389 139.119L106.624 140.254V147.263H103.514V129.345H106.624ZM119.109 129.345V144.474H124.045V147.263H115.999V129.345H119.109ZM130.098 129.345V147.263H127.013V129.345H130.098ZM134.051 147.263V129.345H136.864L141.06 140.254V129.345H143.898V147.263H141.233L136.914 136.428V147.263H134.051ZM156.722 137.934V142.524C156.722 145.659 155.364 147.51 152.131 147.51C148.923 147.51 147.59 145.757 147.59 142.919V133.689C147.59 130.851 148.923 129.123 152.131 129.123C155.364 129.123 156.722 130.851 156.722 133.689V134.849H153.612V133.689C153.612 132.406 153.119 131.887 152.131 131.887C151.194 131.887 150.7 132.406 150.7 133.689V142.944C150.7 144.252 151.194 144.746 152.131 144.746C153.119 144.746 153.736 144.178 153.736 142.697V140.698H152.255V137.934H156.722ZM169.185 142.919C169.185 145.757 167.828 147.51 164.595 147.51C161.386 147.51 160.054 145.757 160.054 142.919V129.345H163.163V142.944C163.163 144.252 163.657 144.746 164.595 144.746C165.582 144.746 166.076 144.252 166.076 142.944V129.345H169.185V142.919ZM177.318 129.345C180.724 129.345 182.131 131.098 182.131 134.627C182.131 137.021 181.588 138.551 180.23 139.39L182.698 147.263H179.367L177.367 140.081H176.109V147.263H172.999V129.345H177.318ZM176.109 137.292H177.071C178.379 137.292 179.021 136.799 179.021 134.651C179.021 132.628 178.379 132.134 177.071 132.134H176.109V137.292Z" fill="#0078AE"/>
<path fill-rule="evenodd" clip-rule="evenodd" d="M106.208 42.4624C110.048 43.9074 114.278 45.4327 116.918 46.4964C140.508 55.9895 133.898 91.7339 108.218 91.7339H59.708C42.698 91.7339 28.8979 77.8957 28.8979 60.8163C28.8979 43.7368 42.688 29.8987 59.708 29.8987C61.068 29.8586 62.5279 29.9187 64.0879 30.0592C68.1079 27.8415 73.308 26.2259 79.798 25.5837C89.218 24.6504 98.4579 26.246 102.758 30.2298C106.148 33.3607 106.998 37.7761 106.198 42.4524L106.208 42.4624Z" fill="#F89A2C"/>
<path fill-rule="evenodd" clip-rule="evenodd" d="M81.018 44.1583C76.228 40.917 66.038 42.8637 63.168 49.4868C64.548 34.5047 78.558 34.4344 84.358 39.5422L81.018 44.1583Z" fill="white"/>
<path fill-rule="evenodd" clip-rule="evenodd" d="M118.058 43.6263C116.278 42.9139 113.768 41.9706 111.138 40.9972C109.578 40.4152 107.988 39.8231 106.478 39.2511C106.478 37.9265 106.248 36.6721 105.908 35.468L108.088 33.762C109.858 35.8192 114.168 36.8227 116.868 34.7053C120.958 31.5042 119.518 23.5264 113.178 23.3156C114.518 17.094 107.148 13.7524 103.068 16.9435C100.368 19.0508 100.288 23.4963 101.848 25.7241L99.0781 27.8916C94.2081 25.6638 87.0781 24.8711 79.8181 25.5836C75.9481 25.9649 72.5481 26.7075 69.5681 27.7009C65.7981 27.0386 62.4881 26.7075 59.7181 26.8078C41.0281 26.8078 25.8281 42.0609 25.8281 60.8162C25.8281 79.5714 41.0281 94.8145 59.7181 94.8145H108.228C123.218 94.8145 131.998 84.0169 134.058 73.3297C136.128 62.5723 131.988 49.2158 118.068 43.6163L118.058 43.6263ZM127.998 72.1657C126.538 79.7721 120.478 88.643 108.218 88.643H59.7081C44.4181 88.643 31.9781 76.1595 31.9781 60.8262C31.9781 45.4928 44.4181 32.9994 59.7881 32.9994C59.8081 32.9994 59.8381 32.9994 59.8581 32.9994C49.7081 41.5893 51.4081 54.8956 60.5081 59.7725C49.4281 40.4954 68.8181 30.8017 84.1881 31.7149C99.5581 32.6281 110.918 44.1582 83.7781 67.3188C91.7981 66.8471 102.218 55.9994 105.458 45.4828C106.628 45.9244 107.818 46.3659 108.988 46.7974C111.558 47.7507 114.008 48.6538 115.758 49.3563C126.418 53.6412 129.578 63.8969 127.988 72.1556L127.998 72.1657Z" fill="#231F20"/>
</svg>
