<svg width="194" height="995" viewBox="0 0 194 995" fill="none" xmlns="http://www.w3.org/2000/svg">
<path d="M149.48 32.36V26.05H134.2V32.36H149.48Z" fill="#231F20"/>
<path d="M96.3298 56.0701C82.0498 56.0701 68.5698 50.9501 58.3498 41.6601C55.1698 38.7601 53.3398 34.2201 53.3398 29.2001C53.3398 24.1801 55.1698 19.6401 58.3498 16.7401C68.5598 7.45011 82.0498 2.34009 96.3298 2.34009C110.61 2.34009 124.09 7.46006 134.31 16.7501C137.49 19.6501 139.32 24.1901 139.32 29.2101C139.32 34.2301 137.49 38.7701 134.31 41.6701C124.1 50.9601 110.61 56.0801 96.3298 56.0801V56.0701Z" fill="#961600"/>
<path d="M96.33 4.69C110.5 4.69 123.35 9.95005 132.73 18.4901C138.39 23.6401 138.39 34.79 132.73 39.94C123.35 48.47 110.5 53.7401 96.33 53.7401C82.16 53.7401 69.31 48.48 59.93 39.94C54.27 34.79 54.27 23.6401 59.93 18.4901C69.31 9.96005 82.16 4.69 96.33 4.69ZM96.33 0C81.47 0 67.42 5.33001 56.78 15.01C53.11 18.35 51 23.52 51 29.2C51 34.88 53.11 40.05 56.78 43.39C67.43 53.07 81.47 58.4 96.33 58.4C111.19 58.4 125.24 53.07 135.88 43.39C139.55 40.05 141.66 34.88 141.66 29.2C141.66 23.52 139.55 18.35 135.88 15.01C125.23 5.33001 111.19 0 96.33 0Z" fill="#231F20"/>
<path d="M65.5002 24.1399C73.3502 19.2099 79.4402 24.9599 85.1202 20.0299C90.8002 15.0999 97.7002 15.7599 100.81 16.5799C103.92 17.3999 108.25 22.4899 113.8 23.1499C119.48 23.8199 123.62 19.38 130.44 24.3C130.72 24.5 130.98 24.7 131.24 24.91C129.99 22.57 128.28 20.2899 125.93 18.3799C121.13 14.4699 117.23 15.45 114.38 16.16C113.08 16.48 111.96 16.7699 110.86 16.6199C108.95 16.3599 107.09 14.9 105.29 13.49C103.77 12.3 102.34 11.1699 100.77 10.6999C98.6702 10.0799 91.3402 8.51994 85.0202 14.7099C83.8602 15.8399 82.6402 15.8099 80.1902 15.6299C77.3002 15.4199 73.6902 15.1599 69.5702 18.0799C66.2102 20.4599 63.7202 23.7299 61.9102 26.9399C62.9902 25.9199 64.1702 24.9599 65.5002 24.1299V24.1399Z" fill="#7A1200"/>
<path d="M127.66 34.28C119.81 39.21 113.72 33.46 108.04 38.39C102.36 43.32 95.4599 42.66 92.3499 41.84C89.2399 41.02 84.9099 35.93 79.3599 35.27C73.6799 34.6 69.5399 39.0399 62.7199 34.1199C62.4399 33.9199 62.1799 33.7199 61.9199 33.5099C63.1699 35.8499 64.8799 38.13 67.2299 40.04C72.0299 43.95 75.9299 42.9699 78.7799 42.2599C80.0799 41.9399 81.1999 41.65 82.2999 41.8C84.2099 42.06 86.0699 43.52 87.8699 44.93C89.3899 46.12 90.8199 47.25 92.3899 47.72C94.4899 48.34 101.82 49.9 108.14 43.71C109.3 42.58 110.52 42.61 112.97 42.79C115.86 43 119.47 43.26 123.59 40.34C126.95 37.96 129.44 34.69 131.25 31.48C130.17 32.5 128.99 33.46 127.66 34.29V34.28Z" fill="#7A1200"/>
<path d="M66.3944 109.063C69.6275 109.063 70.9849 110.815 70.9849 113.653V122.415C70.9849 125.228 69.6275 126.98 66.3944 126.98H61.8533V109.063H66.3944ZM64.963 124.192H66.1723C67.3076 124.192 67.8752 123.624 67.8752 122.168V113.875C67.8752 112.419 67.3076 111.852 66.1723 111.852H64.963V124.192ZM78.0565 104.941V107.508H75.5391V104.941H78.0565ZM82.4002 104.941V107.508H79.8828V104.941H82.4002ZM83.5601 122.637C83.5601 125.475 82.2027 127.227 78.9697 127.227C75.7613 127.227 74.4285 125.475 74.4285 122.637V113.406C74.4285 110.568 75.7613 108.841 78.9697 108.841C82.2027 108.841 83.5601 110.568 83.5601 113.406V122.637ZM77.5382 122.661C77.5382 123.97 78.0318 124.463 78.9697 124.463C79.9569 124.463 80.4505 123.97 80.4505 122.661V113.406C80.4505 112.123 79.9569 111.605 78.9697 111.605C78.0318 111.605 77.5382 112.123 77.5382 113.406V122.661ZM86.2445 116.96H87.2564V109.063H91.7975C95.0306 109.063 96.388 110.815 96.388 113.653V122.415C96.388 125.228 95.0306 126.98 91.7975 126.98H87.2564V119.428H86.2445V116.96ZM91.5754 124.192C92.7106 124.192 93.2783 123.624 93.2783 122.168V113.875C93.2783 112.419 92.7106 111.852 91.5754 111.852H90.366V116.96H91.6247V119.428H90.366V124.192H91.5754ZM103.188 109.063V124.192H108.124V126.98H100.078V109.063H103.188ZM119.86 122.637C119.86 125.475 118.503 127.227 115.27 127.227C112.061 127.227 110.728 125.475 110.728 122.637V109.063H113.838V122.661C113.838 123.97 114.332 124.463 115.27 124.463C116.257 124.463 116.75 123.97 116.75 122.661V109.063H119.86V122.637ZM127.993 109.063C131.399 109.063 132.805 110.815 132.805 114.344C132.805 116.738 132.262 118.268 130.905 119.108L133.373 126.98H130.041L128.042 119.799H126.783V126.98H123.674V109.063H127.993ZM126.783 117.01H127.746C129.054 117.01 129.696 116.516 129.696 114.369C129.696 112.345 129.054 111.852 127.746 111.852H126.783V117.01Z" fill="#0078AE"/>
<path d="M10.0201 286.367V289.156H5.08408V293.697H9.20564V296.486H5.08408V304.285H1.9744V286.367H10.0201ZM14.3699 300.558L13.7529 304.285H10.7666L14.1972 286.367H17.9979L21.4284 304.285H18.2941L17.6771 300.558H14.3699ZM17.2081 297.77L16.0235 290.612L14.8142 297.77H17.2081ZM24.8674 301.768C25.6819 301.768 26.1014 301.324 26.1014 300.188V286.367H29.2111V300.435C29.2111 303.076 28.1252 304.532 25.1142 304.532H23.7815V301.768H24.8674ZM36.1263 286.367V304.285H33.0413V286.367H36.1263ZM47.9519 286.367V289.156H44.9409V304.285H41.8559V289.156H38.845V286.367H47.9519ZM52.1612 300.558L51.5442 304.285H48.5579L51.9884 286.367H55.7891L59.2197 304.285H56.0853L55.4683 300.558H52.1612ZM54.9994 297.77L53.8147 290.612L52.6054 297.77H54.9994ZM64.2343 299.941C64.2343 301.25 64.7773 301.743 65.7645 301.743C66.7764 301.743 67.344 301.175 67.344 299.867C67.344 298.362 66.1347 297.35 64.9254 296.388C63.2471 295.055 61.3221 293.451 61.3221 290.464C61.3221 287.799 63.1484 286.145 65.7645 286.145C68.8248 286.145 70.2069 287.873 70.2069 290.711V291.55H67.0972V290.711C67.0972 289.428 66.6283 288.91 65.7892 288.91C64.9007 288.91 64.4318 289.452 64.4318 290.464C64.4318 291.97 65.7892 293.08 66.9738 293.994C68.7014 295.326 70.4537 296.856 70.4537 299.843C70.4537 302.804 68.5286 304.532 65.7892 304.532C62.5808 304.532 61.1246 302.78 61.1246 299.941V298.732H64.2343V299.941ZM82.7393 286.367V292.908L86.1205 286.367H89.5757L85.3801 293.475L89.7731 304.285H86.2686L83.5044 296.141L82.7393 297.276V304.285H79.6296V286.367H82.7393ZM92.4482 301.768C93.2626 301.768 93.6822 301.324 93.6822 300.188V286.367H96.7919V300.435C96.7919 303.076 95.706 304.532 92.695 304.532H91.3623V301.768H92.4482ZM105.706 284.911H103.288L104.818 281.851H108.001L105.706 284.911ZM109.63 299.941C109.63 302.78 108.273 304.532 105.04 304.532C101.831 304.532 100.499 302.78 100.499 299.941V286.367H103.608V299.966C103.608 301.274 104.102 301.768 105.04 301.768C106.027 301.768 106.521 301.274 106.521 299.966V286.367H109.63V299.941ZM116.554 286.367V292.908L119.935 286.367H123.39L119.195 293.475L123.588 304.285H120.083L117.319 296.141L116.554 297.276V304.285H113.444V286.367H116.554ZM129.038 286.367V301.496H133.974V304.285H125.929V286.367H129.038ZM140.028 286.367V304.285H136.943V286.367H140.028ZM143.981 304.285V286.367H146.794L150.99 297.276V286.367H153.828V304.285H151.163L146.844 293.451V304.285H143.981ZM166.652 294.956V299.547C166.652 302.681 165.294 304.532 162.061 304.532C158.853 304.532 157.52 302.78 157.52 299.941V290.711C157.52 287.873 158.853 286.145 162.061 286.145C165.294 286.145 166.652 287.873 166.652 290.711V291.871H163.542V290.711C163.542 289.428 163.048 288.91 162.061 288.91C161.123 288.91 160.63 289.428 160.63 290.711V299.966C160.63 301.274 161.123 301.768 162.061 301.768C163.048 301.768 163.665 301.2 163.665 299.719V297.72H162.185V294.956H166.652ZM179.115 299.941C179.115 302.78 177.758 304.532 174.525 304.532C171.316 304.532 169.984 302.78 169.984 299.941V286.367H173.093V299.966C173.093 301.274 173.587 301.768 174.525 301.768C175.512 301.768 176.005 301.274 176.005 299.966V286.367H179.115V299.941ZM187.248 286.367C190.654 286.367 192.061 288.12 192.061 291.649C192.061 294.043 191.518 295.573 190.16 296.412L192.628 304.285H189.296L187.297 297.103H186.039V304.285H182.929V286.367H187.248ZM186.039 294.314H187.001C188.309 294.314 188.951 293.821 188.951 291.674C188.951 289.65 188.309 289.156 187.001 289.156H186.039V294.314Z" fill="#0078AE"/>
<path fill-rule="evenodd" clip-rule="evenodd" d="M114.032 199.654C117.872 201.094 122.102 202.614 124.742 203.674C148.332 213.134 141.722 248.754 116.042 248.754H67.5322C50.5222 248.754 36.7222 234.964 36.7222 217.944C36.7222 200.924 50.5122 187.134 67.5322 187.134C68.8922 187.094 70.3522 187.154 71.9122 187.294C75.9322 185.084 81.1322 183.474 87.6222 182.834C97.0422 181.904 106.282 183.494 110.582 187.464C113.972 190.584 114.822 194.984 114.022 199.644L114.032 199.654Z" fill="#F89A2C"/>
<path fill-rule="evenodd" clip-rule="evenodd" d="M88.8422 201.344C84.0522 198.114 73.8622 200.054 70.9922 206.654C72.3722 191.724 86.3822 191.654 92.1822 196.744L88.8422 201.344Z" fill="white"/>
<path fill-rule="evenodd" clip-rule="evenodd" d="M125.882 200.814C124.102 200.104 121.592 199.164 118.962 198.194C117.402 197.614 115.812 197.024 114.302 196.454C114.302 195.134 114.072 193.884 113.732 192.684L115.912 190.984C117.682 193.034 121.992 194.034 124.692 191.924C128.782 188.734 127.342 180.784 121.002 180.574C122.342 174.374 114.972 171.044 110.892 174.224C108.192 176.324 108.112 180.754 109.672 182.974L106.902 185.134C102.032 182.914 94.9023 182.124 87.6423 182.834C83.7723 183.214 80.3723 183.954 77.3923 184.944C73.6223 184.284 70.3124 183.954 67.5424 184.054C48.8524 184.054 33.6523 199.254 33.6523 217.944C33.6523 236.634 48.8524 251.824 67.5424 251.824H116.052C131.042 251.824 139.822 241.064 141.882 230.414C143.952 219.694 139.812 206.384 125.892 200.804L125.882 200.814ZM135.822 229.254C134.362 236.834 128.302 245.674 116.042 245.674H67.5323C52.2423 245.674 39.8023 233.234 39.8023 217.954C39.8023 202.674 52.2423 190.224 67.6123 190.224C67.6323 190.224 67.6623 190.224 67.6823 190.224C57.5323 198.784 59.2323 212.044 68.3323 216.904C57.2523 197.694 76.6424 188.034 92.0124 188.944C107.382 189.854 118.742 201.344 91.6024 224.424C99.6224 223.954 110.042 213.144 113.282 202.664C114.452 203.104 115.642 203.544 116.812 203.974C119.382 204.924 121.832 205.824 123.582 206.524C134.242 210.794 137.402 221.014 135.812 229.244L135.822 229.254Z" fill="#231F20"/>
<path fill-rule="evenodd" clip-rule="evenodd" d="M146.721 399.79C146.721 405.94 143.921 411.79 139.871 417.02C134.611 423.8 127.161 429.59 121.201 433.51C119.841 434.4 118.711 435.65 117.841 437.02C115.981 439.95 112.891 441.65 109.421 441.65H96.2512C92.7812 441.65 89.6912 439.95 87.8312 437.02C86.9712 435.66 85.8312 434.4 84.4712 433.51C78.5112 429.59 71.0612 423.8 65.8012 417.02C61.7412 411.79 58.9512 405.94 58.9512 399.79C58.9512 381.78 73.7412 374.22 84.6312 368.66C89.4412 366.2 93.2812 364.24 93.3712 363.06L93.6012 359.97H112.081L112.311 363.06C112.401 364.24 116.241 366.21 121.051 368.67C131.931 374.23 146.721 381.79 146.721 399.8V399.79Z" fill="#BA0068"/>
<path fill-rule="evenodd" clip-rule="evenodd" d="M121.041 368.67C116.231 366.21 112.381 364.25 112.301 363.06L112.101 360.37C112.751 355.96 114.661 351.05 117.691 346.88C112.231 346.9 108.991 349.94 107.031 353.45C106.721 350.11 106.911 346.5 107.771 343C102.561 345.15 100.761 349.38 100.331 353.48C97.8814 349.41 93.6214 345.71 86.1314 345.68C92.2914 352.74 93.9815 357.07 93.3615 363.05C93.2715 364.23 89.4314 366.19 84.6214 368.65C73.7314 374.21 58.9414 381.77 58.9414 399.78C58.9414 405.93 61.7414 411.78 65.7914 417.01C71.0514 423.79 78.5014 429.58 84.4614 433.5C85.8214 434.39 86.9514 435.64 87.8214 437.01C89.6814 439.94 92.7714 441.64 96.2414 441.64H101.641C102.041 441.66 102.431 441.69 102.831 441.69C103.231 441.69 103.621 441.65 104.021 441.64H109.421C112.891 441.64 115.981 439.94 117.841 437.01C118.701 435.64 119.841 434.39 121.201 433.5C127.161 429.58 134.611 423.79 139.871 417.01C143.921 411.78 146.721 405.93 146.721 399.78C146.721 381.77 131.931 374.21 121.051 368.65L121.041 368.67ZM134.611 412.98C130.891 417.78 125.891 422.04 121.251 425.41C129.701 412.31 133.461 394.67 121.861 386.12C128.161 398.73 123.701 411.89 115.951 422.37C115.541 422.93 112.741 426.84 110.361 430.18C110.091 430.56 109.711 431.12 109.291 431.75C108.061 433.57 106.181 434.57 103.991 434.57H102.751C100.511 434.57 98.5914 433.52 97.3814 431.64C96.5014 430.27 95.4014 429.02 94.4214 427.72C85.2014 415.3 74.9614 403.85 83.8314 386.11C71.1914 394.06 75.6114 412.07 84.3214 425.32C79.7114 421.96 74.7614 417.72 71.0714 412.96C67.8414 408.8 65.6214 404.29 65.6214 399.78C65.6214 385.81 78.3214 379.32 87.6614 374.55C91.4314 372.62 94.7614 370.92 97.0114 368.91C96.8214 369.39 96.6314 369.88 96.4214 370.4C92.6414 379.69 86.6514 402.29 100.541 422.86C96.3114 405.34 96.0315 388.44 102.861 371.54C107.201 382.31 110.271 384.04 114.491 399.78C114.491 383.17 111.501 375.81 109.291 370.4C109.081 369.88 108.891 369.4 108.701 368.91C110.961 370.91 114.281 372.62 118.051 374.55C127.391 379.33 140.091 385.81 140.091 399.78C140.091 404.28 137.871 408.8 134.641 412.96L134.611 412.98Z" fill="#231F20"/>
<path d="M37.0941 464.662C40.9333 464.662 42.519 466.637 42.519 470.616C42.519 473.314 41.907 475.039 40.3769 475.985L43.1589 484.859H39.4032L37.1497 476.764H35.7309V484.859H32.2256V464.662H37.0941ZM35.7309 473.62H36.8159C38.2904 473.62 39.0137 473.064 39.0137 470.643C39.0137 468.362 38.2904 467.806 36.8159 467.806H35.7309V473.62ZM49.2953 480.659L48.5998 484.859H45.2336L49.1006 464.662H53.3849L57.2519 484.859H53.7187L53.0232 480.659H49.2953ZM52.4946 477.515L51.1593 469.447L49.7961 477.515H52.4946ZM70.4716 479.963C70.4716 483.162 68.9415 485.138 65.2971 485.138C61.6805 485.138 60.1782 483.162 60.1782 479.963V464.662H63.6835V479.991C63.6835 481.465 64.2399 482.022 65.2971 482.022C66.4099 482.022 66.9663 481.465 66.9663 479.991V464.662H70.4716V479.963ZM73.63 473.564H74.7706V464.662H79.8895C83.5339 464.662 85.064 466.637 85.064 469.837V479.713C85.064 482.884 83.5339 484.859 79.8895 484.859H74.7706V476.346H73.63V473.564ZM79.6391 481.716C80.9189 481.716 81.5587 481.076 81.5587 479.434V470.087C81.5587 468.446 80.9189 467.806 79.6391 467.806H78.276V473.564H79.6948V476.346H78.276V481.716H79.6391ZM92.7293 464.662V481.716H98.2933V484.859H89.224V464.662H92.7293ZM104.31 480.659L103.615 484.859H100.249L104.116 464.662H108.4L112.267 484.859H108.734L108.038 480.659H104.31ZM107.51 477.515L106.174 469.447L104.811 477.515H107.51ZM125.487 479.963C125.487 483.162 123.957 485.138 120.312 485.138C116.696 485.138 115.193 483.162 115.193 479.963V464.662H118.699V479.991C118.699 481.465 119.255 482.022 120.312 482.022C121.425 482.022 121.981 481.465 121.981 479.991V464.662H125.487V479.963ZM133.291 464.662V472.034L137.102 464.662H140.997L136.268 472.674L141.22 484.859H137.269L134.154 475.679L133.291 476.958V484.859H129.786V464.662H133.291ZM154.013 479.963C154.013 483.162 152.483 485.138 148.839 485.138C145.222 485.138 143.72 483.162 143.72 479.963V464.662H147.225V479.991C147.225 481.465 147.781 482.022 148.839 482.022C149.951 482.022 150.508 481.465 150.508 479.991V464.662H154.013V479.963ZM163.181 464.662C167.02 464.662 168.606 466.637 168.606 470.616C168.606 473.314 167.994 475.039 166.463 475.985L169.245 484.859H165.49L163.236 476.764H161.817V484.859H158.312V464.662H163.181ZM161.817 473.62H162.902C164.377 473.62 165.1 473.064 165.1 470.643C165.1 468.362 164.377 467.806 162.902 467.806H161.817V473.62Z" fill="#0078AE"/>
<path d="M123.13 603.252C114.61 603.252 106.33 601.582 98.5505 598.292C84.7105 592.442 68.7405 592.452 54.9005 598.292L49.9805 600.362V534.852L52.1405 533.943C67.7105 527.352 85.7205 527.352 101.3 533.943C115.11 539.783 131.11 539.783 144.94 533.943L149.86 531.862V597.382L147.701 598.292C139.911 601.582 131.64 603.252 123.12 603.252H123.13Z" fill="#231F20"/>
<path d="M76.7405 586.823C85.2505 586.823 93.5205 588.493 101.311 591.773C114.411 597.313 129.521 597.603 142.791 592.633V542.313C128.491 547.003 112.501 546.363 98.5605 540.463C85.4605 534.923 70.3606 534.633 57.0806 539.603V589.923C63.4006 587.853 69.9905 586.803 76.7405 586.803V586.823Z" fill="#E94E3B"/>
<path d="M101.3 568.252C87.3603 562.362 71.4303 561.792 57.0703 566.472V578.672C100.1 561.642 113.45 590.052 142.78 581.192V569.042C129.5 573.992 114.36 573.772 101.3 568.252Z" fill="#FCD6BF"/>
<path d="M101.3 551.263C87.3603 545.373 71.4303 544.803 57.0703 549.483V561.683C100.1 544.653 113.45 573.063 142.78 564.203V552.053C129.5 557.003 114.36 556.793 101.3 551.263Z" fill="#FCD6BF"/>
<path d="M47.4908 630.436C50.7239 630.436 52.0813 632.262 52.0813 635.1C52.0813 636.828 51.415 638.111 50.329 638.753C51.6371 639.419 52.4515 640.875 52.4515 642.998C52.4515 646.552 51.0694 648.354 47.7623 648.354H42.9744V630.436H47.4908ZM46.0841 637.544H47.0219C48.2559 637.544 48.9716 636.951 48.9716 635.174C48.9716 633.718 48.404 633.052 47.2687 633.052H46.0841V637.544ZM46.0841 645.737H47.2194C48.6508 645.737 49.3418 645.096 49.3418 643.023C49.3418 640.777 48.5768 640.16 47.1206 640.16H46.0841V645.737ZM63.7158 630.436V633.225H59.0266V637.519H62.9014V640.308H59.0266V645.565H63.9626V648.354H55.9169V630.436H63.7158ZM70.2574 630.436V648.354H67.1724V630.436H70.2574ZM77.3197 630.436V636.976L80.7009 630.436H84.1561L79.9605 637.544L84.3535 648.354H80.8489L78.0848 640.209L77.3197 641.344V648.354H74.21V630.436H77.3197ZM95.3384 644.01C95.3384 646.848 93.981 648.6 90.7479 648.6C87.5395 648.6 86.2068 646.848 86.2068 644.01V634.78C86.2068 631.941 87.5395 630.214 90.7479 630.214C93.981 630.214 95.3384 631.941 95.3384 634.78V644.01ZM89.3165 644.035C89.3165 645.343 89.8101 645.836 90.7479 645.836C91.7351 645.836 92.2287 645.343 92.2287 644.035V634.78C92.2287 633.496 91.7351 632.978 90.7479 632.978C89.8101 632.978 89.3165 633.496 89.3165 634.78V644.035ZM99.0346 648.354V630.436H101.848L106.044 641.344V630.436H108.882V648.354H106.217L101.898 637.519V648.354H99.0346ZM115.93 630.436V636.976L119.312 630.436H122.767L118.571 637.544L122.964 648.354H119.46L116.695 640.209L115.93 641.344V648.354H112.821V630.436H115.93ZM134.314 644.01C134.314 646.848 132.956 648.6 129.723 648.6C126.515 648.6 125.182 646.848 125.182 644.01V630.436H128.292V644.035C128.292 645.343 128.785 645.836 129.723 645.836C130.71 645.836 131.204 645.343 131.204 644.035V630.436H134.314V644.01ZM142.446 630.436C145.852 630.436 147.259 632.188 147.259 635.717C147.259 638.111 146.716 639.641 145.359 640.481L147.827 648.354H144.495L142.496 641.172H141.237V648.354H138.127V630.436H142.446ZM141.237 638.383H142.2C143.508 638.383 144.149 637.889 144.149 635.742C144.149 633.718 143.508 633.225 142.2 633.225H141.237V638.383ZM154.011 630.436V645.565H158.947V648.354H150.901V630.436H154.011Z" fill="#0078AE"/>
<path fill-rule="evenodd" clip-rule="evenodd" d="M35.2201 748.359C34.5001 747.669 34.3202 746.579 34.7802 745.729C35.2402 744.869 36.2101 744.529 37.1001 744.899C93.9201 768.559 106.52 722.589 128.4 715.569C137.06 712.789 146.52 718.159 149.54 727.559C160.13 760.539 80.9201 791.799 35.2201 748.359Z" fill="#F90B0B"/>
<path fill-rule="evenodd" clip-rule="evenodd" d="M155.161 721.78C154.441 719.55 153.311 717.58 151.881 715.94C154.351 708.51 153.571 700.08 149.011 693L144.261 696.06C147.291 700.77 147.671 706.52 146.071 711.77C143.171 710.6 139.951 710.39 136.851 711.39C136.481 711.51 136.171 711.73 135.821 711.88C132.911 711.41 129.921 711.6 127.131 712.5C119.881 714.83 113.781 720.78 107.331 727.07C95.2407 738.87 81.5308 752.25 55.5008 747.32C50.0608 746.29 44.1907 744.47 38.0507 741.92L37.0208 741.61C34.8608 741.2 32.7008 742.24 31.6508 744.19C30.4908 746.33 30.9207 749 32.7007 750.7C43.9707 761.41 57.6508 768.34 73.3608 771.32C100.741 776.51 131.221 768.28 145.821 751.75C150.391 746.58 152.891 740.92 153.311 735.23C155.721 731.1 156.691 726.57 155.151 721.78H155.161ZM140.991 747.47C129.951 759.97 102.911 770.35 74.5607 764.98C62.3607 762.67 51.4907 757.77 42.1807 750.4C46.3707 751.84 50.4208 752.93 54.2908 753.67C83.6108 759.22 99.2607 743.96 111.821 731.69C117.971 725.69 123.281 720.51 129.091 718.64C130.441 718.21 131.821 718.11 133.191 718.18C133.961 719.68 135.321 720.87 137.101 721.21L137.541 721.28C137.181 724.98 139.701 728.4 143.421 729.11C144.211 729.26 144.991 729.27 145.741 729.17C145.921 729.97 146.311 730.67 146.791 731.32C147.751 738.03 144.301 743.72 140.981 747.48L140.991 747.47Z" fill="#231F20"/>
<path fill-rule="evenodd" clip-rule="evenodd" d="M130.639 723.389C120.129 731.529 117.459 734.469 110.039 742.119C119.739 737.679 128.399 733.799 135.269 731.119L130.629 723.389H130.639Z" fill="white"/>
<path d="M39.0201 804.502V807.291H34.0841V811.832H38.2056V814.621H34.0841V822.42H30.9744V804.502H39.0201ZM49.7877 804.502V807.291H45.0985V811.585H48.9733V814.374H45.0985V819.631H50.0345V822.42H41.9888V804.502H49.7877ZM57.5632 804.502C60.9691 804.502 62.3758 806.255 62.3758 809.784C62.3758 812.178 61.8329 813.708 60.4755 814.547L62.9435 822.42H59.6117L57.6126 815.238H56.3539V822.42H53.2442V804.502H57.5632ZM56.3539 812.449H57.3164C58.6245 812.449 59.2662 811.956 59.2662 809.808C59.2662 807.785 58.6245 807.291 57.3164 807.291H56.3539V812.449ZM68.3133 818.076C68.3133 819.384 68.8563 819.878 69.8435 819.878C70.8554 819.878 71.423 819.31 71.423 818.002C71.423 816.497 70.2137 815.485 69.0044 814.522C67.3261 813.19 65.4011 811.585 65.4011 808.599C65.4011 805.934 67.2274 804.28 69.8435 804.28C72.9038 804.28 74.2859 806.008 74.2859 808.846V809.685H71.1762V808.846C71.1762 807.563 70.7073 807.044 69.8682 807.044C68.9797 807.044 68.5108 807.587 68.5108 808.599C68.5108 810.105 69.8682 811.215 71.0528 812.128C72.7804 813.461 74.5327 814.991 74.5327 817.978C74.5327 820.939 72.6076 822.667 69.8682 822.667C66.6598 822.667 65.2036 820.914 65.2036 818.076V816.867H68.3133V818.076ZM80.7688 804.502V811.042L84.15 804.502H87.6052L83.4096 811.61L87.8026 822.42H84.298L81.5339 814.276L80.7688 815.411V822.42H77.6591V804.502H80.7688ZM99.1519 818.076C99.1519 820.914 97.7945 822.667 94.5615 822.667C91.3531 822.667 90.0203 820.914 90.0203 818.076V804.502H93.13V818.101C93.13 819.409 93.6236 819.903 94.5615 819.903C95.5487 819.903 96.0423 819.409 96.0423 818.101V804.502H99.1519V818.076ZM107.285 804.502C110.691 804.502 112.097 806.255 112.097 809.784C112.097 812.178 111.554 813.708 110.197 814.547L112.665 822.42H109.333L107.334 815.238H106.075V822.42H102.966V804.502H107.285ZM106.075 812.449H107.038C108.346 812.449 108.988 811.956 108.988 809.808C108.988 807.785 108.346 807.291 107.038 807.291H106.075V812.449ZM130.674 818.076C130.674 820.914 129.316 822.667 126.083 822.667C122.875 822.667 121.542 820.914 121.542 818.076V808.846C121.542 806.008 122.875 804.28 126.083 804.28C129.316 804.28 130.674 806.008 130.674 808.846V810.499H127.564V808.846C127.564 807.563 127.071 807.044 126.083 807.044C125.146 807.044 124.652 807.563 124.652 808.846V818.101C124.652 819.409 125.146 819.903 126.083 819.903C127.071 819.903 127.564 819.409 127.564 818.101V816.225H130.674V818.076ZM137.142 814.374V822.42H134.033V804.502H137.142V811.585H140.227V804.502H143.337V822.42H140.227V814.374H137.142ZM150.374 804.502V822.42H147.289V804.502H150.374ZM157.436 804.502V819.631H162.372V822.42H154.326V804.502H157.436ZM168.426 804.502V822.42H165.341V804.502H168.426Z" fill="#0078AE"/>
<path d="M66.631 986.121C67.4454 986.121 67.865 985.677 67.865 984.542V970.721H70.9747V984.789C70.9747 987.429 69.8888 988.885 66.8778 988.885H65.5451V986.121H66.631ZM77.1742 984.912L76.5572 988.639H73.5709L77.0014 970.721H80.8021L84.2327 988.639H81.0983L80.4813 984.912H77.1742ZM80.0124 982.123L78.8277 974.966L77.6184 982.123H80.0124ZM90.0618 970.721V985.85H94.9978V988.639H86.9521V970.721H90.0618ZM100.336 984.912L99.7188 988.639H96.7325L100.163 970.721H103.964L107.394 988.639H104.26L103.643 984.912H100.336ZM103.174 982.123L101.989 974.966L100.78 982.123H103.174ZM114.433 970.721C117.814 970.721 119.245 972.473 119.245 976.003C119.245 979.705 117.814 981.457 114.433 981.457H113.223V988.639H110.114V970.721H114.433ZM113.223 978.668H114.186C115.494 978.668 116.136 978.174 116.136 976.027C116.136 974.003 115.494 973.51 114.186 973.51H113.223V978.668ZM130.132 970.721V973.51H125.443V977.804H129.318V980.593H125.443V985.85H130.379V988.639H122.333V970.721H130.132ZM133.589 988.639V970.721H136.402L140.598 981.63V970.721H143.436V988.639H140.771L136.451 977.804V988.639H133.589ZM156.26 984.295C156.26 987.133 154.902 988.885 151.669 988.885C148.461 988.885 147.128 987.133 147.128 984.295V975.065C147.128 972.226 148.461 970.499 151.669 970.499C154.902 970.499 156.26 972.226 156.26 975.065V984.295ZM150.238 984.32C150.238 985.628 150.731 986.121 151.669 986.121C152.656 986.121 153.15 985.628 153.15 984.32V975.065C153.15 973.781 152.656 973.263 151.669 973.263C150.731 973.263 150.238 973.781 150.238 975.065V984.32Z" fill="#0078AE"/>
<path d="M138.602 941.079C116.812 950.639 94.5721 943.229 85.4021 923.119C76.2321 903.009 85.9221 880.539 106.032 871.359C126.142 862.179 148.832 866.819 159.602 890.129C168.872 910.199 158.842 932.199 138.602 941.079Z" fill="#465C00"/>
<path d="M137.602 938.939C117.142 947.919 96.2722 940.959 87.6622 922.079C79.0522 903.199 88.1522 882.109 107.032 873.489C125.912 864.869 147.212 869.229 157.312 891.109C166.012 909.949 156.602 930.599 137.602 938.939ZM147.092 895.529C139.942 880.039 124.862 876.959 111.502 883.059C98.1422 889.159 91.7021 904.089 97.8021 917.449C103.902 930.809 118.672 935.739 133.152 929.379C146.602 923.479 153.262 908.859 147.102 895.529H147.092Z" fill="#728B00"/>
<path d="M134.722 932.769C118.122 940.059 101.182 934.409 94.1919 919.089C87.2019 903.769 94.582 886.639 109.912 879.649C125.232 872.659 142.522 876.189 150.722 893.949C157.782 909.239 150.142 925.999 134.722 932.769ZM145.582 896.169C138.862 881.619 124.702 878.729 112.152 884.459C99.602 890.179 93.552 904.209 99.282 916.759C105.012 929.309 118.882 933.929 132.472 927.959C145.102 922.419 151.362 908.689 145.572 896.169H145.582Z" fill="#A0B800"/>
<path d="M150.342 892.619C147.062 886.469 143.162 887.889 143.582 889.809C144.002 891.729 141.622 892.739 139.612 894.019C138.522 894.719 136.852 894.549 135.182 894.039C130.872 891.269 123.822 890.689 118.762 891.639C118.702 891.639 118.642 891.639 118.582 891.639L118.722 891.449C118.632 891.499 118.462 891.569 118.232 891.649C116.062 891.709 113.962 892.009 112.162 892.689C110.172 892.819 108.172 892.729 106.892 892.169C105.092 891.369 103.532 888.909 103.852 886.489C104.162 884.069 100.372 883.469 97.0419 889.579C93.7119 895.699 97.0419 898.179 98.4219 896.769C99.8019 895.359 101.952 896.799 104.132 897.769C105.302 898.289 106.232 899.789 106.852 901.469C106.872 901.809 106.892 902.139 106.932 902.499C107.062 903.539 107.382 904.589 107.742 905.629C107.742 905.649 107.742 905.679 107.742 905.709V905.689C108.352 907.409 109.102 909.109 109.642 910.759C110.692 913.979 111.692 916.949 113.752 919.679C114.492 920.649 115.372 921.429 116.362 922.019C117.272 923.669 117.992 925.369 118.042 926.699C118.112 928.669 116.582 931.149 114.262 931.919C111.952 932.689 113.062 936.369 120.022 936.699C126.982 937.029 127.762 932.949 125.892 932.319C124.022 931.689 124.382 929.129 124.302 926.749C124.262 925.459 125.122 923.769 126.302 922.279C130.392 920.239 134.482 915.149 136.892 909.789C137.542 908.319 138.072 906.849 138.452 905.409C139.572 903.059 141.162 900.449 142.772 899.409C144.422 898.349 147.342 898.389 149.192 899.989C151.042 901.579 153.632 898.749 150.352 892.599L150.342 892.619Z" fill="#E1EF93"/>
<path d="M118.802 891.369L118.732 891.459C118.782 891.419 118.812 891.389 118.802 891.369Z" fill="#E1EF93"/>
<path d="M135.112 901.389C134.442 895.629 125.312 894.149 119.542 895.229C114.402 895.289 109.562 896.919 110.432 903.589C110.712 905.739 111.852 907.899 112.522 909.949C113.332 912.429 114.102 914.709 115.682 916.809C117.942 919.789 122.052 920.409 125.262 918.849C130.512 916.289 135.792 907.169 135.112 901.379V901.389Z" fill="#EFF2BE"/>
<path d="M124.212 915.969C124.092 916.879 122.822 917.479 121.362 917.289C119.902 917.099 118.812 916.209 118.932 915.289C119.052 914.379 120.332 913.789 121.782 913.969C123.242 914.159 124.322 915.049 124.202 915.969H124.212Z" fill="#CDD862"/>
<path d="M114.002 903.319C113.142 902.989 112.872 901.599 113.402 900.239C113.932 898.869 115.052 898.029 115.922 898.359C116.782 898.689 117.052 900.069 116.522 901.449C115.992 902.819 114.862 903.659 114.002 903.329V903.319Z" fill="#CDD862"/>
<path d="M130.232 898.929C131.032 898.459 132.282 899.109 133.022 900.379C133.772 901.649 133.722 903.049 132.932 903.519C132.132 903.989 130.882 903.339 130.142 902.069C129.392 900.799 129.432 899.399 130.232 898.929Z" fill="#CDD862"/>
<path d="M103.802 910.339C105.202 910.059 107.592 910.449 107.802 911.479C108.012 912.509 106.022 913.789 104.552 914.079C100.492 914.889 100.472 914.029 100.262 912.989C100.052 911.959 99.7322 911.149 103.802 910.339Z" fill="#FFEB92"/>
<path d="M103.492 911.099C105.172 910.759 106.632 911.029 106.772 911.689C106.902 912.359 105.652 913.159 103.972 913.499C102.292 913.839 100.822 913.569 100.692 912.909C100.562 912.249 101.812 911.439 103.492 911.099Z" fill="#FFFAE6"/>
<path d="M102.512 903.569C103.942 903.649 106.162 904.579 106.102 905.589C106.052 906.589 103.802 907.279 102.312 907.199C98.1717 906.979 98.3718 906.169 98.4218 905.169C98.4718 904.169 98.3718 903.349 102.502 903.569H102.512Z" fill="#FFEB92"/>
<path d="M102.012 904.189C103.722 904.279 105.082 904.879 105.042 905.519C105.002 906.159 103.592 906.609 101.882 906.519C100.172 906.419 98.8221 905.829 98.8521 905.189C98.8921 904.539 100.302 904.099 102.012 904.189Z" fill="#FFFAE6"/>
<path d="M113.732 887.909C114.972 888.219 116.752 889.409 116.532 890.279C116.312 891.149 114.232 891.369 112.942 891.049C109.362 890.149 109.662 889.479 109.882 888.609C110.102 887.749 110.142 887.009 113.732 887.909Z" fill="#FFEB92"/>
<path d="M113.192 888.369C114.672 888.739 115.762 889.499 115.622 890.059C115.482 890.619 114.162 890.759 112.682 890.389C111.202 890.019 110.112 889.259 110.252 888.709C110.392 888.149 111.702 887.999 113.182 888.369H113.192Z" fill="#FFFAE6"/>
<path d="M109.452 922.909C109.742 921.669 110.912 919.869 111.782 920.069C112.652 920.269 112.912 922.359 112.612 923.649C111.762 927.249 111.082 926.949 110.212 926.739C109.342 926.539 108.612 926.499 109.452 922.909Z" fill="#FFEB92"/>
<path d="M109.922 923.439C110.272 921.949 111.012 920.849 111.572 920.979C112.132 921.109 112.302 922.429 111.952 923.909C111.612 925.399 110.862 926.489 110.312 926.359C109.752 926.229 109.582 924.919 109.932 923.429L109.922 923.439Z" fill="#FFFAE6"/>
<path d="M124.162 886.449C123.992 887.749 123.022 889.719 122.162 889.609C121.292 889.499 120.852 887.399 121.022 886.039C121.502 882.269 122.192 882.489 123.062 882.609C123.932 882.719 124.652 882.669 124.162 886.449Z" fill="#FFEB92"/>
<path d="M123.653 885.959C123.453 887.519 122.833 888.729 122.283 888.659C121.723 888.589 121.433 887.259 121.633 885.699C121.833 884.139 122.443 882.929 123.003 883.009C123.563 883.079 123.853 884.399 123.653 885.959Z" fill="#FFFAE6"/>
<path d="M130.232 887.229C130.062 888.529 128.952 890.489 127.912 890.349C126.862 890.209 126.272 888.099 126.452 886.739C126.932 882.969 127.772 883.209 128.812 883.349C129.852 883.479 130.722 883.449 130.232 887.229Z" fill="#FFEB92"/>
<path d="M129.622 886.719C129.422 888.279 128.712 889.479 128.042 889.389C127.372 889.299 126.992 887.969 127.192 886.409C127.392 884.849 128.092 883.659 128.772 883.739C129.442 883.829 129.822 885.159 129.622 886.719Z" fill="#FFFAE6"/>
<path d="M135.442 892.129C134.282 892.499 132.192 892.319 131.882 891.369C131.572 890.419 133.122 889.069 134.332 888.679C137.692 887.599 137.832 888.409 138.132 889.369C138.442 890.329 138.812 891.059 135.442 892.139V892.129Z" fill="#FFEB92"/>
<path d="M135.612 891.389C134.222 891.839 132.932 891.709 132.732 891.089C132.532 890.469 133.502 889.619 134.902 889.169C136.292 888.729 137.582 888.859 137.772 889.479C137.972 890.099 137.002 890.959 135.612 891.399V891.389Z" fill="#FFFAE6"/>
<path d="M131.182 923.959C130.422 923.009 129.842 920.989 130.622 920.359C131.402 919.739 133.212 920.689 134.012 921.689C136.232 924.449 135.512 924.859 134.732 925.479C133.952 926.109 133.392 926.719 131.182 923.959Z" fill="#FFEB92"/>
<path d="M131.942 923.859C131.022 922.719 130.692 921.469 131.192 921.059C131.692 920.659 132.842 921.259 133.762 922.389C134.672 923.529 135.002 924.779 134.502 925.189C133.992 925.599 132.852 924.999 131.942 923.859Z" fill="#FFFAE6"/>
<path d="M142.402 906.809C141.182 906.739 139.302 905.809 139.362 904.809C139.422 903.809 141.352 903.109 142.622 903.189C146.152 903.399 145.972 904.209 145.912 905.199C145.852 906.209 145.932 907.019 142.402 906.809Z" fill="#FFEB92"/>
<path d="M142.832 906.189C141.362 906.099 140.212 905.509 140.252 904.869C140.292 904.229 141.502 903.779 142.972 903.859C144.422 903.949 145.582 904.539 145.542 905.189C145.502 905.839 144.292 906.289 142.832 906.199V906.189Z" fill="#FFFAE6"/>
<path d="M39.3716 912.778C35.5316 901.058 39.8717 886.498 50.9217 877.778C67.3717 864.788 92.0316 858.788 106.472 873.978C121.612 889.908 128.042 911.308 113.652 926.548C105.842 934.818 91.6416 944.478 78.6916 943.688C70.9216 943.218 63.6516 938.008 57.5216 933.078C50.6416 927.528 42.1716 921.338 39.3816 912.778H39.3716Z" fill="#465C00"/>
<path d="M42.1217 912.118C38.5417 901.158 42.5917 887.568 52.9117 879.418C68.2717 867.288 91.3216 861.678 104.802 875.868C118.942 890.748 124.952 910.748 111.502 924.978C104.202 932.708 90.9417 941.728 78.8417 940.998C71.5817 940.558 64.7816 935.688 59.0716 931.088C52.6416 925.908 44.7317 920.118 42.1217 912.128V912.118ZM64.6717 923.948C68.9417 927.388 74.0316 931.028 79.4516 931.358C88.5016 931.908 98.4217 925.158 103.872 919.378C113.922 908.738 109.432 893.788 98.8617 882.658C88.7817 872.048 71.5516 876.248 60.0616 885.318C52.3416 891.408 49.3217 901.578 51.9917 909.768C53.9417 915.748 59.8617 920.068 64.6717 923.948Z" fill="#728B00"/>
<path d="M48.2916 910.658C45.2716 901.428 48.6916 889.978 57.3816 883.108C70.3216 872.888 89.7415 868.158 101.092 880.118C113.012 892.648 118.062 909.498 106.742 921.488C100.592 927.998 89.4216 935.608 79.2316 934.978C73.1216 934.608 67.3915 930.508 62.5715 926.628C57.1515 922.258 50.4916 917.388 48.2916 910.648V910.658ZM65.3015 923.158C69.4115 926.478 74.3116 929.978 79.5316 930.288C88.2416 930.828 97.7816 924.318 103.032 918.768C112.702 908.528 108.382 894.138 98.2115 883.428C88.5015 873.218 71.9216 877.248 60.8616 885.978C53.4416 891.838 50.5216 901.628 53.1016 909.518C54.9816 915.268 60.6715 919.428 65.3015 923.168V923.158Z" fill="#A0B800"/>
<path d="M53.7716 908.608C54.0916 906.668 56.6716 906.608 59.0116 906.148C61.3516 905.688 65.4416 908.628 67.0716 910.778L67.0916 910.648C69.4016 914.058 72.8816 916.928 76.1816 918.288C77.3616 918.778 78.4816 919.138 79.5716 919.418C79.6216 919.438 79.6516 919.448 79.7116 919.468C83.2416 920.638 85.9916 922.538 86.9516 924.248C87.9216 925.958 87.7116 928.868 86.0116 930.628C84.3116 932.378 86.9916 935.128 93.3216 932.208C99.6416 929.288 98.4616 925.308 96.5116 925.618C94.5716 925.928 93.7017 923.488 92.5317 921.408C91.6117 919.768 92.7216 917.248 93.9816 915.168C94.3416 914.688 94.6616 914.178 94.9616 913.648L94.9716 913.628C97.1616 909.728 97.7017 904.668 96.6717 900.308C96.6317 899.978 96.5216 899.108 96.2416 896.838C95.7916 893.148 96.3316 889.858 97.4516 888.248C98.5816 886.638 101.302 885.578 103.612 886.368C105.922 887.148 107.262 883.548 101.912 879.088C96.5617 874.628 93.4816 877.408 94.5916 879.028C95.7016 880.658 93.8716 882.488 92.4916 884.428C91.4716 885.878 85.3916 888.948 81.2516 890.248C80.1516 890.358 79.0516 890.558 77.9616 890.818C74.6316 891.628 71.4516 893.118 68.9816 894.958C68.9816 894.958 59.9816 899.578 58.0516 899.968C56.1216 900.358 53.4217 899.238 52.2917 897.078C51.1617 894.908 47.7116 896.608 48.5016 903.518C49.2916 910.438 53.4416 910.558 53.7616 908.608H53.7716Z" fill="#E1EF93"/>
<path d="M77.3615 915.678C94.4215 922.718 98.1015 901.318 90.1215 895.238C84.7615 891.148 75.2415 893.628 70.5515 897.888C64.0315 903.818 71.1315 913.108 77.3615 915.678Z" fill="#EFF2BE"/>
<path d="M85.7115 895.758C86.3015 895.038 87.6915 895.218 88.8315 896.148C89.9615 897.078 90.4115 898.418 89.8215 899.128C89.2415 899.838 87.8415 899.668 86.7015 898.728C85.5615 897.798 85.1215 896.458 85.7015 895.748L85.7115 895.758Z" fill="#CDD862"/>
<path d="M87.6514 911.898C88.2014 912.638 87.7014 913.948 86.5214 914.828C85.3414 915.718 83.9414 915.828 83.3814 915.088C82.8314 914.348 83.3314 913.038 84.5114 912.158C85.6914 911.278 87.0914 911.158 87.6414 911.898H87.6514Z" fill="#CDD862"/>
<path d="M71.5615 906.998C70.6415 906.968 69.9216 905.758 69.9616 904.288C70.0016 902.818 70.7816 901.648 71.7116 901.668C72.6316 901.688 73.3515 902.908 73.3015 904.378C73.2615 905.848 72.4815 907.018 71.5615 906.998Z" fill="#CDD862"/>
<path d="M68.2417 888.228C69.2917 889.638 70.3017 892.358 69.4917 892.958C68.6917 893.558 66.4216 891.868 65.3216 890.398C62.2816 886.308 63.0516 885.978 63.8516 885.378C64.6616 884.778 65.2017 884.138 68.2417 888.228Z" fill="#FFEB92"/>
<path d="M67.3816 888.158C68.6316 889.848 69.2415 891.518 68.7115 891.918C68.1915 892.298 66.7616 891.248 65.5016 889.558C64.2416 887.868 63.6516 886.188 64.1616 885.808C64.6816 885.428 66.1116 886.478 67.3716 888.168L67.3816 888.158Z" fill="#FFFAE6"/>
<path d="M77.9215 884.018C78.9715 885.428 80.0815 888.078 79.3915 888.588C78.7115 889.098 76.5414 887.338 75.4514 885.868C72.4114 881.778 73.0715 881.518 73.7615 881.018C74.4415 880.508 74.8915 879.948 77.9215 884.028V884.018Z" fill="#FFEB92"/>
<path d="M77.1418 883.898C78.3918 885.588 79.0617 887.218 78.6217 887.548C78.1817 887.868 76.8117 886.768 75.5517 885.078C74.3017 883.388 73.6417 881.758 74.0817 881.438C74.5217 881.108 75.8918 882.218 77.1518 883.898H77.1418Z" fill="#FFFAE6"/>
<path d="M61.4817 893.118C63.2417 893.088 66.0417 893.988 66.0617 895.158C66.0817 896.328 63.4717 895.958 61.6317 895.998C56.5417 896.088 56.6317 896.498 56.6117 895.328C56.5917 894.158 56.3817 893.208 61.4717 893.118H61.4817Z" fill="#FFEB92"/>
<path d="M60.9316 893.888C63.0316 893.848 64.7516 894.428 64.7616 895.178C64.7716 895.938 63.1616 895.208 61.0516 895.238C58.9516 895.278 57.1616 896.058 57.1416 895.308C57.1316 894.558 58.8217 893.918 60.9217 893.878L60.9316 893.888Z" fill="#FFFAE6"/>
<path d="M101.991 897.338C100.371 897.978 97.4814 898.118 97.0614 897.068C96.6414 896.008 98.8014 894.178 100.481 893.518C105.161 891.678 105.331 892.608 105.741 893.658C106.161 894.718 106.661 895.508 101.991 897.338Z" fill="#FFEB92"/>
<path d="M102.241 896.458C100.311 897.218 98.5213 897.278 98.2513 896.598C97.9913 895.918 99.3413 894.748 101.271 893.988C103.201 893.228 104.991 893.168 105.251 893.848C105.521 894.528 104.171 895.698 102.241 896.458Z" fill="#FFFAE6"/>
<path d="M102.111 902.878C100.151 902.838 97.0714 901.998 97.0914 901.048C97.1114 900.098 100.151 899.398 102.191 899.438C107.861 899.558 107.641 900.318 107.621 901.268C107.601 902.218 107.791 902.988 102.111 902.868V902.878Z" fill="#FFEB92"/>
<path d="M102.751 902.278C100.411 902.228 98.5213 901.688 98.5313 901.088C98.5513 900.478 100.461 900.028 102.801 900.078C105.151 900.128 107.031 900.668 107.021 901.278C107.011 901.888 105.101 902.338 102.751 902.288V902.278Z" fill="#FFFAE6"/>
<path d="M102.112 911.078C100.142 910.748 97.1817 909.168 97.4017 907.848C97.6217 906.528 100.472 907.488 102.532 907.818C108.262 908.768 108.232 908.288 108.022 909.598C107.802 910.918 107.832 912.018 102.112 911.078Z" fill="#FFEB92"/>
<path d="M102.892 910.318C100.522 909.928 98.7216 908.928 98.8616 908.078C99.0016 907.228 100.672 908.378 103.032 908.768C105.402 909.158 107.562 908.648 107.422 909.498C107.282 910.348 105.252 910.718 102.892 910.318Z" fill="#FFFAE6"/>
<path d="M96.7716 918.268C95.5616 916.938 94.3716 914.168 95.2616 913.358C96.1616 912.538 98.7516 913.918 100.012 915.308C103.522 919.158 102.672 919.678 101.772 920.498C100.882 921.318 100.282 922.118 96.7716 918.268Z" fill="#FFEB92"/>
<path d="M97.7515 918.168C96.3015 916.578 95.5916 914.868 96.1716 914.338C96.7516 913.818 98.3915 914.678 99.8415 916.268C101.291 917.858 102.002 919.568 101.422 920.098C100.842 920.618 99.2015 919.758 97.7515 918.168Z" fill="#FFFAE6"/>
<path d="M88.4118 884.598C87.4118 886.168 85.0618 888.158 84.1318 887.558C83.2018 886.958 83.9918 884.058 85.0418 882.428C87.9518 877.888 88.6018 878.538 89.5318 879.138C90.4618 879.738 91.3218 880.058 88.4118 884.598Z" fill="#FFEB92"/>
<path d="M88.142 883.698C86.932 885.578 85.482 886.788 84.882 886.398C84.282 886.018 84.772 884.188 85.982 882.308C87.192 880.428 88.652 879.228 89.242 879.608C89.842 879.988 89.352 881.818 88.142 883.698Z" fill="#FFFAE6"/>
<path d="M64.6917 914.658C66.0717 913.608 68.8217 912.678 69.5117 913.588C70.1917 914.488 68.6217 916.848 67.1917 917.938C63.1917 920.978 62.7717 920.128 62.0917 919.228C61.4017 918.318 60.7017 917.698 64.7017 914.658H64.6917Z" fill="#FFEB92"/>
<path d="M64.6917 915.588C66.3417 914.338 68.0417 913.788 68.4817 914.368C68.9217 914.948 67.9418 916.448 66.2918 917.698C64.6418 918.958 62.9417 919.498 62.5017 918.918C62.0517 918.338 63.0417 916.848 64.6917 915.588Z" fill="#FFFAE6"/>
<path d="M60.3815 909.418C62.2715 908.928 65.4714 908.888 65.7114 909.808C65.9514 910.728 63.2215 912.228 61.2415 912.738C55.7515 914.158 55.7615 913.368 55.5115 912.448C55.2715 911.528 54.8815 910.838 60.3815 909.408V909.418Z" fill="#FFEB92"/>
<path d="M59.9215 910.178C62.1915 909.588 64.1614 909.588 64.3114 910.178C64.4614 910.768 62.7414 911.718 60.4714 912.318C58.2014 912.908 56.2414 912.908 56.0814 912.318C55.9314 911.728 57.6415 910.778 59.9115 910.188L59.9215 910.178Z" fill="#FFFAE6"/>
<path d="M76.2017 924.288C76.0717 922.438 76.7617 919.438 77.8617 919.358C78.9617 919.278 80.0617 922.078 80.1917 924.018C80.5617 929.398 79.6617 929.268 78.5617 929.338C77.4617 929.408 76.5817 929.678 76.2017 924.288Z" fill="#FFEB92"/>
<path d="M76.962 924.848C76.802 922.628 77.252 920.778 77.972 920.738C78.682 920.688 79.382 922.448 79.532 924.668C79.682 926.888 79.232 928.738 78.532 928.778C77.822 928.828 77.122 927.068 76.962 924.848Z" fill="#FFFAE6"/>
</svg>
