<svg width="143" height="1017" viewBox="0 0 143 1017" fill="none" xmlns="http://www.w3.org/2000/svg">
<path fill-rule="evenodd" clip-rule="evenodd" d="M70.9445 886.668C83.7145 886.668 117.284 894.213 112.514 927.017C107.544 961.209 65.5845 954.741 52.8045 954.741C40.0245 954.741 33.7344 939.501 38.7444 920.7C43.7544 901.898 58.1645 886.658 70.9445 886.658V886.668Z" fill="#9B0D0D"/>
<path fill-rule="evenodd" clip-rule="evenodd" d="M51.3244 886.668C64.0944 886.668 70.3943 901.908 65.3843 920.709C60.3743 939.511 45.9643 954.751 33.1843 954.751C20.4043 954.751 14.1143 939.511 19.1243 920.709C24.1343 901.908 38.5444 886.668 51.3244 886.668Z" fill="#E31937"/>
<path d="M33.1844 958.181C27.5344 958.181 22.7143 955.777 19.2443 951.22C13.7743 944.048 12.4944 932.318 15.8244 919.814C21.2844 899.293 36.8844 883.228 51.3244 883.228C56.9744 883.228 61.7943 885.632 65.2643 890.189C70.7343 897.361 72.0144 909.101 68.6844 921.605C63.2244 942.116 47.6244 958.181 33.1844 958.181ZM51.3244 890.098C40.2044 890.098 26.9743 904.524 22.4243 921.605C19.6843 931.886 20.5443 941.643 24.6743 947.045C26.8343 949.882 29.6944 951.321 33.1944 951.321C44.3144 951.321 57.5443 936.895 62.0843 919.824C64.8243 909.533 63.9643 899.786 59.8443 894.384C57.6843 891.547 54.8244 890.108 51.3244 890.108V890.098Z" fill="#231F20"/>
<path d="M79.4446 958.181H33.1846V951.311H79.4446C96.2146 951.311 109.865 937.579 109.865 920.709C109.865 903.84 96.2146 890.098 79.4446 890.098H51.3246V883.228H79.4446C99.9946 883.228 116.705 900.037 116.705 920.709C116.705 941.382 99.9946 958.181 79.4446 958.181Z" fill="#231F20"/>
<path fill-rule="evenodd" clip-rule="evenodd" d="M112.795 920.126C116.795 917.45 120.805 914.775 124.815 912.099C125.915 911.364 127.274 911.384 128.354 912.129C129.444 912.883 129.935 914.151 129.655 915.448C128.605 920.187 128.535 925.065 129.655 930.095C129.945 931.383 129.445 932.66 128.365 933.415C127.275 934.169 125.915 934.179 124.815 933.445C120.805 930.769 116.805 928.103 112.805 925.428C111.895 924.824 111.395 923.878 111.395 922.772C111.395 921.665 111.895 920.73 112.805 920.116L112.795 920.126Z" fill="#231F20"/>
<path fill-rule="evenodd" clip-rule="evenodd" d="M40.1146 919.834C40.7646 917.38 42.3846 915.398 43.7246 915.398C45.0646 915.398 45.6246 917.39 44.9746 919.834C44.3246 922.289 42.7046 924.281 41.3646 924.281C40.0246 924.281 39.4646 922.289 40.1146 919.834Z" fill="white"/>
<path fill-rule="evenodd" clip-rule="evenodd" d="M36.4745 902.794C37.1245 900.339 38.7445 898.357 40.0845 898.357C41.4245 898.357 41.9845 900.349 41.3345 902.794C40.6845 905.248 39.0645 907.24 37.7245 907.24C36.3845 907.24 35.8245 905.248 36.4745 902.794Z" fill="white"/>
<path fill-rule="evenodd" clip-rule="evenodd" d="M49.7045 902.341C50.3545 899.886 51.9745 897.895 53.3145 897.895C54.6545 897.895 55.2145 899.886 54.5645 902.341C53.9145 904.795 52.2945 906.787 50.9545 906.787C49.6145 906.787 49.0545 904.795 49.7045 902.341Z" fill="white"/>
<path fill-rule="evenodd" clip-rule="evenodd" d="M41.4044 938.264C42.0544 935.809 43.6744 933.817 45.0144 933.817C46.3544 933.817 46.9144 935.809 46.2544 938.264C45.6044 940.718 43.9844 942.7 42.6444 942.7C41.3044 942.7 40.7444 940.708 41.3944 938.264H41.4044Z" fill="white"/>
<path fill-rule="evenodd" clip-rule="evenodd" d="M28.4545 938.646C29.1045 936.191 30.7245 934.199 32.0645 934.199C33.4045 934.199 33.9645 936.191 33.3145 938.646C32.6645 941.1 31.0445 943.092 29.7045 943.092C28.3645 943.092 27.8045 941.1 28.4545 938.646Z" fill="white"/>
<path fill-rule="evenodd" clip-rule="evenodd" d="M27.6542 923.506C28.3042 921.052 29.9242 919.07 31.2642 919.07C32.6042 919.07 33.1642 921.062 32.5142 923.506C31.8642 925.961 30.2442 927.952 28.9042 927.952C27.5642 927.952 27.0042 925.961 27.6542 923.506Z" fill="white"/>
<path fill-rule="evenodd" clip-rule="evenodd" d="M53.2841 920.801C53.9341 918.346 55.554 916.364 56.894 916.364C58.234 916.364 58.794 918.356 58.144 920.801C57.494 923.255 55.8741 925.247 54.5341 925.247C53.1941 925.247 52.6341 923.255 53.2841 920.801Z" fill="white"/>
<path fill-rule="evenodd" clip-rule="evenodd" d="M104.864 919.895C104.904 919.322 105.034 918.768 105.034 918.185C105.034 905.771 95.0345 895.712 82.6945 895.712C81.6245 895.712 80.5945 895.883 79.5645 896.034C91.8945 898.418 101.714 907.793 104.864 919.905V919.895Z" fill="white"/>
<path d="M23.3598 992.904C26.741 992.904 28.1724 994.656 28.1724 998.185C28.1724 1001.89 26.741 1003.64 23.3598 1003.64H22.1505V1010.82H19.0408V992.904H23.3598ZM22.1505 1000.85H23.113C24.421 1000.85 25.0627 1000.36 25.0627 998.21C25.0627 996.186 24.421 995.692 23.113 995.692H22.1505V1000.85ZM39.0592 992.904V995.692H34.37V999.987H38.2447V1002.78H34.37V1008.03H39.306V1010.82H31.2603V992.904H39.0592ZM46.8347 992.904C50.2159 992.904 51.6473 994.656 51.6473 998.185C51.6473 1001.89 50.2159 1003.64 46.8347 1003.64H45.6254V1010.82H42.5157V992.904H46.8347ZM45.6254 1000.85H46.5879C47.896 1000.85 48.5376 1000.36 48.5376 998.21C48.5376 996.186 47.896 995.692 46.5879 995.692H45.6254V1000.85ZM59.0542 992.904C62.4354 992.904 63.8668 994.656 63.8668 998.185C63.8668 1001.89 62.4354 1003.64 59.0542 1003.64H57.8449V1010.82H54.7352V992.904H59.0542ZM57.8449 1000.85H58.8074C60.1155 1000.85 60.7571 1000.36 60.7571 998.21C60.7571 996.186 60.1155 995.692 58.8074 995.692H57.8449V1000.85ZM74.7536 992.904V995.692H70.0644V999.987H73.9392V1002.78H70.0644V1008.03H75.0004V1010.82H66.9547V992.904H74.7536ZM82.5291 992.904C85.935 992.904 87.3417 994.656 87.3417 998.185C87.3417 1000.58 86.7988 1002.11 85.4414 1002.95L87.9094 1010.82H84.5776L82.5785 1003.64H81.3198V1010.82H78.2101V992.904H82.5291ZM81.3198 1000.85H82.2823C83.5904 1000.85 84.2321 1000.36 84.2321 998.21C84.2321 996.186 83.5904 995.692 82.2823 995.692H81.3198V1000.85ZM99.8688 1006.48C99.8688 1009.32 98.5114 1011.07 95.2783 1011.07C92.0699 1011.07 90.7372 1009.32 90.7372 1006.48V997.247C90.7372 994.409 92.0699 992.681 95.2783 992.681C98.5114 992.681 99.8688 994.409 99.8688 997.247V1006.48ZM93.8468 1006.5C93.8468 1007.81 94.3404 1008.3 95.2783 1008.3C96.2655 1008.3 96.7591 1007.81 96.7591 1006.5V997.247C96.7591 995.964 96.2655 995.446 95.2783 995.446C94.3404 995.446 93.8468 995.964 93.8468 997.247V1006.5ZM103.565 1010.82V992.904H106.379L110.574 1003.81V992.904H113.412V1010.82H110.747L106.428 999.987V1010.82H103.565ZM120.436 992.904V1010.82H117.351V992.904H120.436Z" fill="#0078AE"/>
<path d="M67.0311 716.934C67.0311 716.934 102.001 727.969 106.111 735.554C110.221 743.139 112.971 754.869 108.171 761.075C103.371 767.282 88.2912 776.939 81.4312 780.39C74.5712 783.84 62.8911 785.922 62.8911 785.922C62.8911 785.922 75.9412 778.317 75.9412 760.381C75.9412 742.445 74.5711 729.348 71.1411 725.897C67.7111 722.447 67.0311 716.934 67.0311 716.934Z" fill="#C55450"/>
<path d="M49.2014 710.033C49.2014 710.033 73.8813 721.069 76.6313 732.104C79.3713 743.139 78.6913 768.66 72.5213 776.245C66.3513 783.83 59.4913 792.803 52.6413 793.487C45.7813 794.182 25.9014 790.037 22.4714 785.208C19.0414 780.38 12.1913 766.588 11.5013 756.931C10.8113 747.274 10.8113 736.933 14.2413 730.032C17.6713 723.131 19.7314 718.302 23.8414 715.546C27.9514 712.79 37.5513 709.339 37.5513 709.339L49.2114 710.033H49.2014Z" fill="white"/>
<path d="M100.661 728.08C89.9712 722.125 76.1812 715.496 65.4912 710.446C58.8912 706.955 51.4312 705.134 43.9212 705.174C43.9212 705.174 43.9212 705.174 43.9112 705.174C39.1612 705.205 34.5312 706.321 30.1712 708.504C15.9712 715.606 6.88117 732.486 7.00117 751.529C7.17117 776.959 23.9912 797.541 44.5012 797.41C45.6912 797.41 46.8712 797.33 48.0512 797.179C53.8212 796.686 59.4712 795.167 64.5612 792.622C65.0312 792.381 65.5113 792.139 65.9813 791.878L100.881 774.414C109.841 770.3 115.431 761.397 115.371 751.247C115.311 740.956 109.571 732.013 100.661 728.06V728.08ZM13.6912 751.499C13.5912 735.273 21.4112 720.425 33.1512 714.55C36.5912 712.83 40.2213 711.945 43.9613 711.914C60.7813 711.804 74.5813 729.388 74.7213 751.106C74.8213 767.332 67.0012 782.18 55.2612 788.055C52.7212 789.323 50.0713 790.137 47.3613 790.489C46.3913 790.57 45.4312 790.691 44.4512 790.691C27.6312 790.801 13.8312 773.217 13.6912 751.499ZM98.0012 768.369L72.8012 780.973C78.3212 772.805 81.4812 762.323 81.4112 751.066C81.3412 739.598 77.8512 729.136 72.1912 721.089C80.7412 725.213 89.9512 729.8 97.6812 734.106C104.421 737.114 108.631 743.703 108.671 751.308C108.721 758.782 104.581 765.049 97.9912 768.358L98.0012 768.369Z" fill="#231F20"/>
<path fill-rule="evenodd" clip-rule="evenodd" d="M43.9913 717.809C54.7013 717.739 63.9713 725.696 68.2413 737.194C68.4713 737.818 68.4214 738.452 68.0914 739.025C67.7614 739.598 67.2414 739.96 66.5914 740.071C61.3614 740.956 58.0314 745.423 52.5814 747.696C51.0514 745.352 47.8213 743.864 46.1413 743.874C44.4613 743.884 44.6313 744.014 43.9213 744.266C40.2313 739.025 35.4814 729.81 32.9514 723.01C32.5714 721.984 33.0014 720.847 33.9614 720.344C37.0514 718.725 40.4413 717.819 43.9913 717.799V717.809ZM70.6213 748.37C70.6913 749.286 70.7214 750.211 70.7314 751.137C70.8514 769.636 59.0713 784.705 44.4213 784.796C41.7813 784.816 39.2314 784.343 36.8314 783.458C35.8014 783.076 35.2313 781.989 35.4913 780.923C37.5413 772.493 42.2014 769.053 44.5514 764.476C45.1114 764.626 43.7113 764.707 46.2813 764.697C48.8513 764.677 54.5714 759.989 54.4514 754.245V753.913C59.7714 751.66 63.0013 747.234 68.1613 746.409C68.7713 746.308 69.3414 746.459 69.8314 746.851C70.3214 747.244 70.5913 747.757 70.6413 748.38L70.6213 748.37ZM26.6814 776.386C27.2114 776.98 27.9713 777.221 28.7513 777.04C29.5313 776.859 30.1114 776.306 30.3314 775.531C32.5314 767.765 37.1813 764.707 39.5113 760.331C38.5513 758.641 37.9714 756.478 37.9614 754.336C37.9514 752.193 38.4114 750.362 39.2114 748.753C35.5814 743.803 30.8313 735.152 28.3913 729.036C28.0913 728.291 27.4613 727.798 26.6713 727.698C25.8813 727.597 25.1513 727.909 24.6713 728.563C20.2713 734.579 17.6113 742.636 17.6613 751.479C17.7213 761.397 21.2013 770.29 26.6613 776.386H26.6814Z" fill="#961600"/>
<path d="M14.4731 819.387C17.8542 819.387 19.2857 821.139 19.2857 824.668C19.2857 828.37 17.8542 830.122 14.4731 830.122H13.2638V837.304H10.1541V819.387H14.4731ZM13.2638 827.333H14.2263C15.5343 827.333 16.176 826.84 16.176 824.693C16.176 822.669 15.5343 822.175 14.2263 822.175H13.2638V827.333ZM31.3818 832.961C31.3818 835.799 30.0244 837.551 26.7913 837.551C23.5829 837.551 22.2502 835.799 22.2502 832.961V819.387H25.3599V832.985C25.3599 834.293 25.8535 834.787 26.7913 834.787C27.7785 834.787 28.2721 834.293 28.2721 832.985V819.387H31.3818V832.961ZM38.3053 819.387V834.515H43.2413V837.304H35.1956V819.387H38.3053ZM49.3197 819.387V834.515H54.2557V837.304H46.21V819.387H49.3197ZM65.0233 819.387V822.175H60.3341V826.47H64.2089V829.259H60.3341V834.515H65.2701V837.304H57.2244V819.387H65.0233ZM73.021 819.387C76.2541 819.387 77.6115 821.139 77.6115 823.977V832.738C77.6115 835.552 76.2541 837.304 73.021 837.304H68.4799V819.387H73.021ZM71.5896 834.515H72.7989C73.9342 834.515 74.5018 833.948 74.5018 832.492V824.199C74.5018 822.743 73.9342 822.175 72.7989 822.175H71.5896V834.515ZM91.6704 819.387C95.0516 819.387 96.483 821.139 96.483 824.668C96.483 828.37 95.0516 830.122 91.6704 830.122H90.4611V837.304H87.3514V819.387H91.6704ZM90.4611 827.333H91.4236C92.7316 827.333 93.3733 826.84 93.3733 824.693C93.3733 822.669 92.7316 822.175 91.4236 822.175H90.4611V827.333ZM108.456 832.961C108.456 835.799 107.098 837.551 103.865 837.551C100.657 837.551 99.3241 835.799 99.3241 832.961V823.73C99.3241 820.892 100.657 819.164 103.865 819.164C107.098 819.164 108.456 820.892 108.456 823.73V832.961ZM102.434 832.985C102.434 834.293 102.927 834.787 103.865 834.787C104.852 834.787 105.346 834.293 105.346 832.985V823.73C105.346 822.447 104.852 821.929 103.865 821.929C102.927 821.929 102.434 822.447 102.434 823.73V832.985ZM116.471 819.387C119.877 819.387 121.283 821.139 121.283 824.668C121.283 827.062 120.741 828.592 119.383 829.431L121.851 837.304H118.519L116.52 830.122H115.262V837.304H112.152V819.387H116.471ZM115.262 827.333H116.224C117.532 827.333 118.174 826.84 118.174 824.693C118.174 822.669 117.532 822.175 116.224 822.175H115.262V827.333ZM128.035 819.387V825.927L131.417 819.387H134.872L130.676 826.494L135.069 837.304H131.565L128.8 829.16L128.035 830.295V837.304H124.926V819.387H128.035Z" fill="#0078AE"/>
<path fill-rule="evenodd" clip-rule="evenodd" d="M69.7623 544.151C73.6323 544.151 77.1223 546.112 79.5823 549.251C81.2623 548.345 83.1223 547.843 85.0823 547.843C92.5523 547.843 98.6123 555.166 98.6123 564.189C98.6123 582.115 89.9323 614.105 76.5023 614.105C72.9623 614.105 69.8123 612.032 67.8523 608.844C65.8923 612.032 62.7523 614.105 59.2023 614.105C45.5623 614.105 37.0923 583.815 37.0923 564.189C37.0923 555.166 43.1523 547.843 50.6223 547.843C53.6523 547.843 56.4423 549.05 58.7023 551.072C61.1523 546.877 65.1923 544.141 69.7623 544.141V544.151Z" fill="#69A53A"/>
<path fill-rule="evenodd" clip-rule="evenodd" d="M64.2424 543.226C61.8524 544.181 59.6223 545.73 57.8923 548.014C55.5723 546.435 52.9624 545.6 50.2524 545.6C41.6524 545.6 34.6523 554.06 34.6523 564.451C34.6523 583.263 42.7323 616.861 58.8323 616.861C62.0423 616.861 65.1324 615.383 67.4824 612.807C69.8324 615.383 72.9224 616.861 76.1324 616.861C91.7824 616.861 100.312 582.236 100.312 564.451C100.312 554.06 93.3123 545.6 84.7123 545.6C82.9823 545.6 81.3024 545.932 79.6924 546.595C78.4624 545.278 77.0324 544.342 75.5424 543.608C75.3824 539.332 77.2423 536.103 80.4023 536.103V526.114C72.5823 526.114 65.1524 533.941 64.2524 543.226H64.2424ZM84.7123 550.599C91.0323 550.599 96.1724 556.816 96.1724 564.451C96.1724 581.11 87.9024 611.862 76.1324 611.862C73.3524 611.862 70.8023 610.313 69.1423 607.607L69.0123 607.395C67.0023 604.086 63.6423 597.346 62.0323 592.93C61.7123 597.426 62.8523 604.186 64.9023 608.784C63.2823 610.725 61.1523 611.862 58.8223 611.862C47.1923 611.862 38.7723 583.544 38.7723 564.451C38.7723 556.816 43.9124 550.599 50.2424 550.599C52.0624 550.599 53.8123 551.112 55.3923 552.088C52.7323 557.812 51.4823 568.435 57.1523 576.11C55.7623 570.396 54.8424 562.268 59.7224 553.255L60.0024 552.782C62.1524 549.1 65.6624 546.907 69.3824 546.907C72.5624 546.907 75.5123 548.446 77.7023 551.233L77.9023 551.484C82.2223 557.319 81.4024 560.578 81.8624 564.099C83.9224 557.983 83.5224 553.768 82.4224 550.891C83.1724 550.71 83.9323 550.609 84.7023 550.609L84.7123 550.599Z" fill="#231F20"/>
<path fill-rule="evenodd" clip-rule="evenodd" d="M70.3522 556.081L69.2322 553.546L68.1122 551.011C64.1722 553.556 58.2722 559.884 60.7122 569.118C62.0322 563.405 65.6922 557.268 70.3522 556.081Z" fill="white"/>
<path fill-rule="evenodd" clip-rule="evenodd" d="M48.8325 558.084L48.0225 556.253L47.2125 554.422C44.3725 556.263 40.1025 560.83 41.8725 567.499C42.8225 563.375 45.4725 558.939 48.8325 558.084Z" fill="white"/>
<path d="M10.8592 653.542V658.133C10.8592 661.267 9.5018 663.118 6.26872 663.118C3.06032 663.118 1.7276 661.366 1.7276 658.527V649.297C1.7276 646.459 3.06032 644.731 6.26872 644.731C9.5018 644.731 10.8592 646.459 10.8592 649.297V650.457H7.74952V649.297C7.74952 648.014 7.25592 647.495 6.26872 647.495C5.33088 647.495 4.83728 648.014 4.83728 649.297V658.552C4.83728 659.86 5.33088 660.354 6.26872 660.354C7.25592 660.354 7.87292 659.786 7.87292 658.305V656.306H6.39212V653.542H10.8592ZM18.6334 644.953C22.0392 644.953 23.446 646.706 23.446 650.235C23.446 652.629 22.903 654.159 21.5456 654.998L24.0136 662.871H20.6818L18.6828 655.689H17.4241V662.871H14.3144V644.953H18.6334ZM17.4241 652.9H18.3866C19.6946 652.9 20.3363 652.407 20.3363 650.26C20.3363 648.236 19.6946 647.742 18.3866 647.742H17.4241V652.9ZM28.8405 662.871H25.8542L31.654 644.953H41.2052V647.742H36.516V652.037H40.3907V654.825H36.516V660.082H41.452V662.871H33.7025V658.651H30.1239L28.8405 662.871ZM33.6531 647.175L30.9877 655.961H33.7025V647.175H33.6531ZM44.6583 662.871V644.953H47.4718L51.6674 655.862V644.953H54.5056V662.871H51.8401L47.5211 652.037V662.871H44.6583ZM68.8129 644.953C72.194 644.953 73.6255 646.706 73.6255 650.235C73.6255 653.937 72.194 655.689 68.8129 655.689H67.6035V662.871H64.4939V644.953H68.8129ZM67.6035 652.9H68.5661C69.8741 652.9 70.5158 652.407 70.5158 650.26C70.5158 648.236 69.8741 647.742 68.5661 647.742H67.6035V652.9ZM78.215 659.144L77.598 662.871H74.6117L78.0422 644.953H81.8429L85.2735 662.871H82.1391L81.5221 659.144H78.215ZM81.0532 656.356L79.8685 649.198L78.6592 656.356H81.0532ZM92.3119 644.953C95.693 644.953 97.1245 646.706 97.1245 650.235C97.1245 653.937 95.693 655.689 92.3119 655.689H91.1026V662.871H87.9929V644.953H92.3119ZM91.1026 652.9H92.0651C93.3731 652.9 94.0148 652.407 94.0148 650.26C94.0148 648.236 93.3731 647.742 92.0651 647.742H91.1026V652.9ZM104.531 644.953C107.937 644.953 109.344 646.706 109.344 650.235C109.344 652.629 108.801 654.159 107.444 654.998L109.912 662.871H106.58L104.581 655.689H103.322V662.871H100.212V644.953H104.531ZM103.322 652.9H104.285C105.593 652.9 106.234 652.407 106.234 650.26C106.234 648.236 105.593 647.742 104.285 647.742H103.322V652.9ZM116.071 644.953V662.871H112.986V644.953H116.071ZM123.134 644.953V651.494L126.515 644.953H129.97L125.774 652.061L130.167 662.871H126.663L123.899 654.727L123.134 655.862V662.871H120.024V644.953H123.134ZM134.878 659.144L134.261 662.871H131.274L134.705 644.953H138.506L141.936 662.871H138.802L138.185 659.144H134.878ZM137.716 656.356L136.531 649.198L135.322 656.356H137.716Z" fill="#0078AE"/>
<path d="M8.0941 467.62C11.9333 467.62 13.519 469.595 13.519 473.574C13.519 476.272 12.907 477.997 11.3769 478.943L14.1589 487.817H10.4032L8.14974 479.722H6.73092V487.817H3.2256V467.62H8.0941ZM6.73092 476.578H7.8159C9.29036 476.578 10.0137 476.022 10.0137 473.601C10.0137 471.32 9.29036 470.764 7.8159 470.764H6.73092V476.578ZM17.7294 484.98C18.6474 484.98 19.1204 484.479 19.1204 483.199V467.62H22.6257V483.477C22.6257 486.454 21.4016 488.096 18.0076 488.096H16.5053V484.98H17.7294ZM32.7298 465.979H30.0034L31.7283 462.529H35.3171L32.7298 465.979ZM36.9584 482.921C36.9584 486.12 35.4283 488.096 31.7839 488.096C28.1673 488.096 26.665 486.12 26.665 482.921V472.516C26.665 469.317 28.1673 467.37 31.7839 467.37C35.4283 467.37 36.9584 469.317 36.9584 472.516V482.921ZM30.1704 482.949C30.1704 484.423 30.7268 484.98 31.7839 484.98C32.8967 484.98 33.4531 484.423 33.4531 482.949V472.516C33.4531 471.07 32.8967 470.486 31.7839 470.486C30.7268 470.486 30.1704 471.07 30.1704 472.516V482.949ZM50.3612 487.817H47.3288L44.2686 475.215V487.817H41.1249V467.62H45.1032L48.7476 482.949L52.4198 467.62H56.565V487.817H53.4214V475.243L50.3612 487.817ZM63.6826 483.617L62.9871 487.817H59.6209L63.4879 467.62H67.7721L71.6391 487.817H68.106L67.4105 483.617H63.6826ZM66.8819 480.473L65.5465 472.405L64.1834 480.473H66.8819ZM84.7197 482.921C84.7197 486.12 83.1896 488.096 79.5452 488.096C75.9286 488.096 74.4263 486.12 74.4263 482.921V472.516C74.4263 469.317 75.9286 467.37 79.5452 467.37C83.1896 467.37 84.7197 469.317 84.7197 472.516V482.921ZM77.9316 482.949C77.9316 484.423 78.488 484.98 79.5452 484.98C80.658 484.98 81.2144 484.423 81.2144 482.949V472.516C81.2144 471.07 80.658 470.486 79.5452 470.486C78.488 470.486 77.9316 471.07 77.9316 472.516V482.949ZM91.4735 482.921C91.4735 484.396 92.0855 484.952 93.1983 484.952C94.3389 484.952 94.9788 484.312 94.9788 482.838C94.9788 481.141 93.6156 480 92.2524 478.915C90.3607 477.413 88.1907 475.604 88.1907 472.238C88.1907 469.234 90.2494 467.37 93.1983 467.37C96.648 467.37 98.2059 469.317 98.2059 472.516V473.462H94.7006V472.516C94.7006 471.07 94.172 470.486 93.2261 470.486C92.2246 470.486 91.696 471.098 91.696 472.238C91.696 473.935 93.2261 475.187 94.5615 476.216C96.5089 477.719 98.4841 479.444 98.4841 482.81C98.4841 486.148 96.3141 488.096 93.2261 488.096C89.6095 488.096 87.9681 486.12 87.9681 482.921V481.558H91.4735V482.921ZM110.883 467.62V470.764H107.489V487.817H104.011V470.764H100.617V467.62H110.883ZM124.089 482.921C124.089 486.12 122.559 488.096 118.915 488.096C115.298 488.096 113.796 486.12 113.796 482.921V467.62H117.301V482.949C117.301 484.423 117.858 484.98 118.915 484.98C120.028 484.98 120.584 484.423 120.584 482.949V467.62H124.089V482.921ZM133.257 467.62C137.096 467.62 138.682 469.595 138.682 473.574C138.682 476.272 138.07 477.997 136.54 478.943L139.322 487.817H135.566L133.313 479.722H131.894V487.817H128.388V467.62H133.257ZM131.894 476.578H132.979C134.453 476.578 135.177 476.022 135.177 473.601C135.177 471.32 134.453 470.764 132.979 470.764H131.894V476.578Z" fill="#0078AE"/>
<path d="M101.377 385.109C98.9373 380.14 93.5173 375.251 84.9373 370.282C72.9473 363.341 71.4773 354.176 71.4273 353.834L70.9574 350.072L67.1973 350.283C66.1873 350.344 57.1673 351.219 50.4673 364.206C49.3173 366.449 48.5973 368.501 48.0473 370.473C45.2173 370.845 40.4473 371.65 35.6173 373.229C24.4073 376.911 20.5973 382.353 19.6873 387.131C11.7673 389.928 0.807306 397.976 2.21731 414.091C4.48731 439.964 47.6373 440.517 61.8173 440.698C62.3173 440.698 62.8274 440.698 63.3274 440.698C76.0074 440.698 88.5773 438.666 98.0373 435.055C111.417 429.955 119.047 421.726 120.097 411.274C122.087 391.497 106.467 386.276 101.377 385.109ZM112.057 410.459C110.517 425.75 86.0173 432.58 63.3573 432.58C62.8773 432.58 62.3973 432.58 61.9173 432.58C39.0973 432.289 11.6074 428.718 10.2674 413.387C9.31735 402.543 15.9773 397.634 20.4973 395.571C21.7273 399.173 23.9573 402.432 27.2373 405.118C34.0773 410.721 44.9073 413.668 57.9973 413.668C62.5073 413.668 67.2773 413.316 72.2573 412.612C72.2573 412.612 47.8073 413.437 32.3473 398.821C29.5173 396.145 27.6973 393.388 27.4873 390.018C27.0773 383.429 38.8573 379.798 47.0273 378.651C47.2673 383.47 48.8873 386.427 49.0073 386.638C49.0073 386.638 51.0473 363.21 64.7473 359.598C66.6173 364.296 70.9574 371.589 80.8974 377.343C93.1974 384.466 94.6973 389.304 94.8073 391.055C95.8473 406.737 86.2674 411.214 86.2674 411.214C99.3074 408.448 102.407 400.511 102.847 394.002C107.157 395.742 113.087 400.058 112.037 410.48L112.057 410.459Z" fill="#231F20"/>
<path fill-rule="evenodd" clip-rule="evenodd" d="M50.3367 195.226C64.5467 180.932 84.0967 175.731 100.987 180.036C106.887 181.535 111.187 185.861 112.677 191.796C116.957 208.787 111.787 228.453 97.5767 242.748C80.8767 259.547 56.8167 263.782 38.3467 254.809C29.4267 236.229 33.6367 212.026 50.3367 195.226Z" fill="#B6EF18"/>
<path d="M58.7668 261.992C51.1068 261.992 43.8568 260.352 37.2268 257.133L36.4268 256.74L36.0368 255.926C26.3568 235.766 31.3768 210.638 48.5268 193.396C62.6868 179.151 83.5968 172.944 101.627 177.532C108.397 179.252 113.467 184.352 115.177 191.152C119.827 209.632 113.787 230.103 99.4068 244.568C88.4068 255.634 73.5968 261.992 58.7868 261.992H58.7668ZM40.2668 252.878C45.9768 255.493 52.1968 256.831 58.7668 256.831C72.2268 256.831 85.7168 251.037 95.7568 240.927C108.867 227.739 114.397 209.159 110.187 192.43C108.927 187.41 105.337 183.809 100.357 182.541C84.0268 178.397 65.0468 184.06 52.1468 197.057C36.7768 212.519 32.0668 234.831 40.2668 252.878Z" fill="#231F20"/>
<path fill-rule="evenodd" clip-rule="evenodd" d="M96 230.154C89.25 234.147 83 235.546 66.84 233.353C79.48 221.643 91.1 209.341 95.57 194.342C89.42 204.039 81.42 212.399 72.73 220.295C69.11 211.544 68.92 207.731 70.14 203.305C66.31 210.055 69 218.877 70.36 222.418C65.1 227.086 59.64 231.622 54.2 236.189C48.2 221.583 47.96 215.215 50.02 207.751C43.75 218.807 47.76 233.182 50.14 239.63C41.93 246.611 33.93 253.784 27 261.801L33.13 267.012C40.61 256.751 51.35 247.426 61.91 237.869C63.79 238.201 84.57 241.541 95.98 230.174L96 230.154Z" fill="#231F20"/>
<path d="M48.8868 304.724C48.8868 306.032 49.4298 306.526 50.417 306.526C51.4289 306.526 51.9965 305.958 51.9965 304.65C51.9965 303.145 50.7872 302.133 49.5779 301.171C47.8996 299.838 45.9746 298.234 45.9746 295.247C45.9746 292.582 47.8009 290.928 50.417 290.928C53.4773 290.928 54.8594 292.656 54.8594 295.494V296.333H51.7497V295.494C51.7497 294.211 51.2808 293.692 50.4417 293.692C49.5532 293.692 49.0843 294.235 49.0843 295.247C49.0843 296.753 50.4417 297.863 51.6263 298.777C53.3539 300.109 55.1062 301.639 55.1062 304.626C55.1062 307.587 53.1811 309.315 50.4417 309.315C47.2333 309.315 45.7771 307.563 45.7771 304.724V303.515H48.8868V304.724ZM62.5516 291.15C65.9328 291.15 67.3642 292.903 67.3642 296.432C67.3642 300.134 65.9328 301.886 62.5516 301.886H61.3423V309.068H58.2326V291.15H62.5516ZM61.3423 299.097H62.3048C63.6129 299.097 64.2546 298.604 64.2546 296.457C64.2546 294.433 63.6129 293.939 62.3048 293.939H61.3423V299.097ZM72.8461 289.694H70.4275L71.9576 286.634H75.1413L72.8461 289.694ZM73.5371 291.15V309.068H70.4521V291.15H73.5371ZM77.4898 309.068V291.15H80.3033L84.4989 302.059V291.15H87.3371V309.068H84.6717L80.3527 298.234V309.068H77.4898ZM93.6452 305.341L93.0282 309.068H90.0419L93.4724 291.15H97.2731L100.704 309.068H97.5693L96.9523 305.341H93.6452ZM96.4834 302.553L95.2987 295.395L94.0894 302.553H96.4834ZM110.428 291.15V293.939H107.417V309.068H104.332V293.939H101.321V291.15H110.428Z" fill="#0078AE"/>
<path fill-rule="evenodd" clip-rule="evenodd" d="M71.14 0.000174124C97.04 -0.0702427 121.62 21.2258 122.26 48.0144C122.52 58.8887 117.69 65.6085 111.38 68.6465C108.84 69.8738 106.06 70.4874 103.28 70.5176C99.09 70.5679 94.9 69.3003 91.47 66.8659L92.37 75.0142C93.05 81.0901 88.34 86.5022 82.16 86.5022H60.11C53.93 86.5022 49.22 81.1002 49.9 75.0142L50.8 66.8659C47.38 69.3104 43.19 70.5679 38.99 70.5176C36.21 70.4874 33.43 69.8738 30.89 68.6465C24.57 65.6085 19.75 58.8887 20.01 48.0144C20.65 21.2258 45.23 -0.0702427 71.13 0.000174124H71.14Z" fill="#D8A96C"/>
<path fill-rule="evenodd" clip-rule="evenodd" d="M71.4101 0.000174124C97.3101 -0.0702427 121.89 21.2258 122.53 48.0144C122.79 58.8887 117.96 65.6085 111.65 68.6465C109.11 69.8738 106.33 70.4874 103.55 70.5176C99.36 70.5679 95.1701 69.3003 91.7401 66.8659L92.6401 75.0142C93.3201 81.0901 88.6101 86.5022 82.4301 86.5022H60.3801C54.2001 86.5022 49.4901 81.1002 50.1701 75.0142L51.0701 66.8659C47.6501 69.3104 43.4601 70.5679 39.2601 70.5176C36.4801 70.4874 33.7001 69.8738 31.1601 68.6465C24.8401 65.6085 20.0201 58.8887 20.2801 48.0144C20.9201 21.2258 45.5001 -0.0702427 71.4001 0.000174124H71.4101ZM82.4401 80.6676C85.2001 80.6676 87.2101 78.3539 86.9101 75.6479C86.4201 71.272 85.3901 65.3067 84.7001 59.8746C84.1401 55.5188 82.7101 48.2457 86.0701 44.8758C89.8201 41.1135 97.5501 41.6467 100.79 45.4291C82.9101 41.4153 88.2101 64.8943 103.5 64.7233C105.45 64.7032 107.39 64.2706 109.16 63.4256C113.58 61.293 116.96 56.3537 116.77 48.1652C116.21 24.7064 94.4401 5.75423 71.4101 5.81459C48.3901 5.75423 26.62 24.7064 26.05 48.1652C25.85 56.3638 29.2301 61.293 33.6601 63.4256C35.4301 64.2806 37.3701 64.7032 39.3201 64.7233C54.6101 64.8943 59.9101 41.4153 42.0301 45.4291C45.2801 41.6467 53.0001 41.1135 56.7501 44.8758C60.1101 48.2457 58.6801 55.5188 58.1201 59.8746C57.4201 65.3168 56.4001 71.272 55.9101 75.6479C55.6101 78.3539 57.6201 80.6676 60.3801 80.6676H82.4301H82.4401Z" fill="#231F20"/>
<path d="M71.4099 16.0551C80.0599 16.0551 88.0399 17.2924 94.4399 19.3747C89.9999 14.2343 81.3499 10.7437 71.4099 10.7437C61.4699 10.7437 52.8099 14.2343 48.3799 19.3747C54.7899 17.2924 62.7599 16.0551 71.4099 16.0551Z" fill="#E2BE91"/>
<path d="M39.5704 128.651C39.5704 129.959 40.1134 130.453 41.1006 130.453C42.1125 130.453 42.6801 129.885 42.6801 128.577C42.6801 127.071 41.4708 126.06 40.2615 125.097C38.5832 123.764 36.6582 122.16 36.6582 119.174C36.6582 116.508 38.4845 114.855 41.1006 114.855C44.1609 114.855 45.543 116.582 45.543 119.421V120.26H42.4333V119.421C42.4333 118.137 41.9644 117.619 41.1253 117.619C40.2368 117.619 39.7679 118.162 39.7679 119.174C39.7679 120.679 41.1253 121.79 42.3099 122.703C44.0375 124.036 45.7898 125.566 45.7898 128.552C45.7898 131.514 43.8647 133.241 41.1253 133.241C37.9169 133.241 36.4607 131.489 36.4607 128.651V127.442H39.5704V128.651ZM58.344 115.077L54.9135 132.995H51.1128L47.6822 115.077H50.94L53.0872 128.059L55.2343 115.077H58.344ZM68.8623 115.077V117.866H64.1731V122.16H68.0479V124.949H64.1731V130.206H69.1091V132.995H61.0634V115.077H68.8623ZM76.6379 115.077C80.019 115.077 81.4505 116.829 81.4505 120.358C81.4505 124.06 80.019 125.813 76.6379 125.813H75.4285V132.995H72.3189V115.077H76.6379ZM75.4285 123.024H76.3911C77.6991 123.024 78.3408 122.53 78.3408 120.383C78.3408 118.359 77.6991 117.866 76.3911 117.866H75.4285V123.024ZM88.8573 115.077C92.2385 115.077 93.6699 116.829 93.6699 120.358C93.6699 124.06 92.2385 125.813 88.8573 125.813H87.648V132.995H84.5383V115.077H88.8573ZM87.648 123.024H88.6105C89.9186 123.024 90.5603 122.53 90.5603 120.383C90.5603 118.359 89.9186 117.866 88.6105 117.866H87.648V123.024ZM99.8428 115.077V132.995H96.7578V115.077H99.8428ZM108.114 115.077C111.52 115.077 112.927 116.829 112.927 120.358C112.927 122.752 112.384 124.283 111.027 125.122L113.495 132.995H110.163L108.164 125.813H106.905V132.995H103.795V115.077H108.114ZM106.905 123.024H107.868C109.176 123.024 109.817 122.53 109.817 120.383C109.817 118.359 109.176 117.866 107.868 117.866H106.905V123.024Z" fill="#0078AE"/>
</svg>
