<svg width="50" height="300" viewBox="0 0 50 300" fill="none" xmlns="http://www.w3.org/2000/svg">
<rect x="0.5" y="0.5" width="49" height="49" stroke="black"/>
<path d="M45.7227 18.1461V15.3877H39.4215V18.1461H45.7227Z" fill="#231F20"/>
<path d="M23.8048 28.5105C17.9161 28.5105 12.3572 26.2723 8.14268 22.2112C6.83131 20.9434 6.07666 18.9588 6.07666 16.7643C6.07666 14.5698 6.83131 12.5852 8.14268 11.3174C12.3531 7.25631 17.9161 5.02246 23.8048 5.02246C29.6936 5.02246 35.2525 7.26065 39.467 11.3218C40.7784 12.5895 41.533 14.5742 41.533 16.7687C41.533 18.9632 40.7784 20.9478 39.467 22.2156C35.2566 26.2767 29.6936 28.5149 23.8048 28.5149V28.5105Z" fill="#961600"/>
<path d="M23.8045 6.05023C29.6479 6.05023 34.947 8.34966 38.8151 12.0829C41.1491 14.3342 41.1491 19.2084 38.8151 21.4598C34.947 25.1886 29.6479 27.4924 23.8045 27.4924C17.9611 27.4924 12.662 25.193 8.79387 21.4598C6.45981 19.2084 6.45981 14.3342 8.79387 12.0829C12.662 8.35403 17.9611 6.05023 23.8045 6.05023ZM23.8045 4C17.6765 4 11.8826 6.33001 7.49488 10.5616C5.98145 12.0217 5.11133 14.2818 5.11133 16.7648C5.11133 19.2478 5.98145 21.5078 7.49488 22.9679C11.8867 27.1995 17.6765 29.5295 23.8045 29.5295C29.9324 29.5295 35.7264 27.1995 40.1141 22.9679C41.6275 21.5078 42.4976 19.2478 42.4976 16.7648C42.4976 14.2818 41.6275 12.0217 40.1141 10.5616C35.7222 6.33001 29.9324 4 23.8045 4Z" fill="#231F20"/>
<path d="M11.0908 14.5526C14.328 12.3975 16.8394 14.9111 19.1817 12.756C21.524 10.6008 24.3694 10.8893 25.6519 11.2478C26.9344 11.6063 28.72 13.8313 31.0087 14.1199C33.351 14.4128 35.0583 12.4718 37.8707 14.6226C37.9862 14.71 38.0934 14.7974 38.2006 14.8893C37.6851 13.8663 36.98 12.8696 36.0109 12.0347C34.0314 10.3254 32.4232 10.7538 31.2479 11.0642C30.7118 11.2041 30.2499 11.3308 29.7963 11.2653C29.0087 11.1516 28.2416 10.5134 27.4994 9.89701C26.8725 9.3768 26.2828 8.88281 25.6354 8.67735C24.7694 8.40632 21.7467 7.72437 19.1404 10.4303C18.6621 10.9243 18.159 10.9112 17.1486 10.8325C15.9569 10.7407 14.4682 10.627 12.7692 11.9035C11.3836 12.9439 10.3568 14.3734 9.61035 15.7767C10.0557 15.3308 10.5423 14.9111 11.0908 14.5483V14.5526Z" fill="#7A1200"/>
<path d="M36.7246 18.9852C33.4874 21.1404 30.976 18.6268 28.6337 20.7819C26.2914 22.9371 23.4459 22.6486 22.1634 22.2901C20.8809 21.9316 19.0953 19.7065 16.8066 19.418C14.4643 19.1251 12.7571 21.0661 9.94465 18.9153C9.82918 18.8279 9.72196 18.7404 9.61475 18.6486C10.1302 19.6716 10.8354 20.6683 11.8045 21.5032C13.7839 23.2125 15.3922 22.7841 16.5675 22.4737C17.1036 22.3338 17.5654 22.207 18.019 22.2726C18.8067 22.3863 19.5737 23.0245 20.316 23.6409C20.9428 24.1611 21.5325 24.6551 22.1799 24.8605C23.0459 25.1316 26.0687 25.8135 28.6749 23.1076C29.1533 22.6136 29.6564 22.6267 30.6667 22.7054C31.8585 22.7972 33.3472 22.9108 35.0462 21.6344C36.4318 20.594 37.4586 19.1645 38.205 17.7612C37.7596 18.2071 37.273 18.6268 36.7246 18.9896V18.9852Z" fill="#7A1200"/>
<path d="M12.4735 36.0735C13.7835 36.0735 14.3335 36.7835 14.3335 37.9335V41.4835C14.3335 42.6235 13.7835 43.3335 12.4735 43.3335H10.6335V36.0735H12.4735ZM11.8935 42.2035H12.3835C12.8435 42.2035 13.0735 41.9735 13.0735 41.3835V38.0235C13.0735 37.4335 12.8435 37.2035 12.3835 37.2035H11.8935V42.2035ZM17.1988 34.4035V35.4435H16.1788V34.4035H17.1988ZM18.9588 34.4035V35.4435H17.9388V34.4035H18.9588ZM19.4288 41.5735C19.4288 42.7235 18.8788 43.4335 17.5688 43.4335C16.2688 43.4335 15.7288 42.7235 15.7288 41.5735V37.8335C15.7288 36.6835 16.2688 35.9835 17.5688 35.9835C18.8788 35.9835 19.4288 36.6835 19.4288 37.8335V41.5735ZM16.9888 41.5835C16.9888 42.1135 17.1888 42.3135 17.5688 42.3135C17.9688 42.3135 18.1688 42.1135 18.1688 41.5835V37.8335C18.1688 37.3135 17.9688 37.1035 17.5688 37.1035C17.1888 37.1035 16.9888 37.3135 16.9888 37.8335V41.5835ZM20.5165 39.2735H20.9265V36.0735H22.7665C24.0765 36.0735 24.6265 36.7835 24.6265 37.9335V41.4835C24.6265 42.6235 24.0765 43.3335 22.7665 43.3335H20.9265V40.2735H20.5165V39.2735ZM22.6765 42.2035C23.1365 42.2035 23.3665 41.9735 23.3665 41.3835V38.0235C23.3665 37.4335 23.1365 37.2035 22.6765 37.2035H22.1865V39.2735H22.6965V40.2735H22.1865V42.2035H22.6765ZM27.3818 36.0735V42.2035H29.3818V43.3335H26.1218V36.0735H27.3818ZM34.137 41.5735C34.137 42.7235 33.587 43.4335 32.277 43.4335C30.977 43.4335 30.437 42.7235 30.437 41.5735V36.0735H31.697V41.5835C31.697 42.1135 31.897 42.3135 32.277 42.3135C32.677 42.3135 32.877 42.1135 32.877 41.5835V36.0735H34.137V41.5735ZM37.4323 36.0735C38.8123 36.0735 39.3823 36.7835 39.3823 38.2135C39.3823 39.1835 39.1623 39.8035 38.6123 40.1435L39.6123 43.3335H38.2623L37.4523 40.4235H36.9423V43.3335H35.6823V36.0735H37.4323ZM36.9423 39.2935H37.3323C37.8623 39.2935 38.1223 39.0935 38.1223 38.2235C38.1223 37.4035 37.8623 37.2035 37.3323 37.2035H36.9423V39.2935Z" fill="#0078AE"/>
<rect x="0.5" y="50.5" width="48.7785" height="49" stroke="black"/>
<path d="M15.0481 79.466V80.483H13.2481V82.139H14.7511V83.156H13.2481V86H12.1141V79.466H15.0481ZM16.6343 84.641L16.4093 86H15.3203L16.5713 79.466H17.9573L19.2083 86H18.0653L17.8403 84.641H16.6343ZM17.6693 83.624L17.2373 81.014L16.7963 83.624H17.6693ZM20.4624 85.082C20.7594 85.082 20.9124 84.92 20.9124 84.506V79.466H22.0464V84.596C22.0464 85.559 21.6504 86.09 20.5524 86.09H20.0664V85.082H20.4624ZM24.5682 79.466V86H23.4432V79.466H24.5682ZM28.8806 79.466V80.483H27.7826V86H26.6576V80.483H25.5596V79.466H28.8806ZM30.4156 84.641L30.1906 86H29.1016L30.3526 79.466H31.7386L32.9896 86H31.8466L31.6216 84.641H30.4156ZM31.4506 83.624L31.0186 81.014L30.5776 83.624H31.4506ZM34.8182 84.416C34.8182 84.893 35.0162 85.073 35.3762 85.073C35.7452 85.073 35.9522 84.866 35.9522 84.389C35.9522 83.84 35.5112 83.471 35.0702 83.12C34.4582 82.634 33.7562 82.049 33.7562 80.96C33.7562 79.988 34.4222 79.385 35.3762 79.385C36.4922 79.385 36.9962 80.015 36.9962 81.05V81.356H35.8622V81.05C35.8622 80.582 35.6912 80.393 35.3852 80.393C35.0612 80.393 34.8902 80.591 34.8902 80.96C34.8902 81.509 35.3852 81.914 35.8172 82.247C36.4472 82.733 37.0862 83.291 37.0862 84.38C37.0862 85.46 36.3842 86.09 35.3852 86.09C34.2152 86.09 33.6842 85.451 33.6842 84.416V83.975H34.8182V84.416ZM6.24318 90.466V92.851L7.47618 90.466H8.73618L7.20618 93.058L8.80818 97H7.53018L6.52218 94.03L6.24318 94.444V97H5.10918V90.466H6.24318ZM9.78369 96.082C10.0807 96.082 10.2337 95.92 10.2337 95.506V90.466H11.3677V95.596C11.3677 96.559 10.9717 97.09 9.87369 97.09H9.38769V96.082H9.78369ZM14.6185 89.935H13.7365L14.2945 88.819H15.4555L14.6185 89.935ZM16.0495 95.416C16.0495 96.451 15.5545 97.09 14.3755 97.09C13.2055 97.09 12.7195 96.451 12.7195 95.416V90.466H13.8535V95.425C13.8535 95.902 14.0335 96.082 14.3755 96.082C14.7355 96.082 14.9155 95.902 14.9155 95.425V90.466H16.0495V95.416ZM18.5742 90.466V92.851L19.8072 90.466H21.0672L19.5372 93.058L21.1392 97H19.8612L18.8532 94.03L18.5742 94.444V97H17.4402V90.466H18.5742ZM23.127 90.466V95.983H24.927V97H21.993V90.466H23.127ZM27.1346 90.466V97H26.0096V90.466H27.1346ZM28.576 97V90.466H29.602L31.132 94.444V90.466H32.167V97H31.195L29.62 93.049V97H28.576ZM36.8433 93.598V95.272C36.8433 96.415 36.3483 97.09 35.1693 97.09C33.9993 97.09 33.5133 96.451 33.5133 95.416V92.05C33.5133 91.015 33.9993 90.385 35.1693 90.385C36.3483 90.385 36.8433 91.015 36.8433 92.05V92.473H35.7093V92.05C35.7093 91.582 35.5293 91.393 35.1693 91.393C34.8273 91.393 34.6473 91.582 34.6473 92.05V95.425C34.6473 95.902 34.8273 96.082 35.1693 96.082C35.5293 96.082 35.7543 95.875 35.7543 95.335V94.606H35.2143V93.598H36.8433ZM41.3883 95.416C41.3883 96.451 40.8933 97.09 39.7143 97.09C38.5443 97.09 38.0583 96.451 38.0583 95.416V90.466H39.1923V95.425C39.1923 95.902 39.3723 96.082 39.7143 96.082C40.0743 96.082 40.2543 95.902 40.2543 95.425V90.466H41.3883V95.416ZM44.3541 90.466C45.5961 90.466 46.1091 91.105 46.1091 92.392C46.1091 93.265 45.9111 93.823 45.4161 94.129L46.3161 97H45.1011L44.3721 94.381H43.9131V97H42.7791V90.466H44.3541ZM43.9131 93.364H44.2641C44.7411 93.364 44.9751 93.184 44.9751 92.401C44.9751 91.663 44.7411 91.483 44.2641 91.483H43.9131V93.364Z" fill="#0078AE"/>
<path fill-rule="evenodd" clip-rule="evenodd" d="M31.8787 59.3068C32.675 59.7556 33.5522 60.2293 34.0996 60.5597C38.9914 63.5079 37.6207 74.6089 32.2955 74.6089H22.2361C18.7088 74.6089 15.8472 70.3112 15.8472 65.0069C15.8472 59.7026 18.7068 55.405 22.2361 55.405C22.5182 55.3925 22.8209 55.4112 23.1444 55.4548C23.978 54.7661 25.0563 54.2643 26.4022 54.0649C28.3555 53.775 30.2716 54.2706 31.1633 55.5078C31.8663 56.4802 32.0425 57.8514 31.8766 59.3037L31.8787 59.3068Z" fill="#F89A2C"/>
<path fill-rule="evenodd" clip-rule="evenodd" d="M26.6546 59.8335C25.6613 58.8269 23.5483 59.4315 22.9531 61.4884C23.2393 56.8355 26.1445 56.8136 27.3472 58.3999L26.6546 59.8335Z" fill="white"/>
<path fill-rule="evenodd" clip-rule="evenodd" d="M34.3354 59.6684C33.9663 59.4471 33.4458 59.1541 32.9004 58.8518C32.577 58.6711 32.2472 58.4872 31.9341 58.3096C31.9341 57.8982 31.8864 57.5086 31.8159 57.1346L32.268 56.6048C32.635 57.2437 33.5288 57.5554 34.0887 56.8978C34.9368 55.9036 34.6382 53.426 33.3235 53.3606C33.6013 51.4283 32.073 50.3905 31.227 51.3816C30.6671 52.036 30.6505 53.4167 30.974 54.1085L30.3996 54.7817C29.3897 54.0898 27.9112 53.8436 26.4057 54.0649C25.6032 54.1833 24.8981 54.4139 24.2802 54.7225C23.4984 54.5168 22.812 54.4139 22.2376 54.4451C18.3619 54.4451 15.21 59.1822 15.21 65.0069C15.21 70.8317 18.3619 75.5657 22.2376 75.5657H32.297C35.4054 75.5657 37.2261 72.2123 37.6533 68.8932C38.0826 65.5523 37.224 61.4043 34.3375 59.6652L34.3354 59.6684ZM36.3967 68.5317C36.0939 70.894 34.8373 73.649 32.2949 73.649H22.2356C19.0649 73.649 16.4853 69.7721 16.4853 65.0101C16.4853 60.248 19.0649 56.368 22.2521 56.368C22.2563 56.368 22.2625 56.368 22.2667 56.368C20.1619 59.0357 20.5144 63.1682 22.4014 64.6828C20.1038 58.696 24.1247 55.6855 27.3119 55.9691C30.4991 56.2527 32.8548 59.8335 27.2269 67.0264C28.89 66.88 31.0507 63.511 31.7226 60.2449C31.9652 60.382 32.212 60.5192 32.4546 60.6532C32.9875 60.9493 33.4956 61.2297 33.8585 61.4479C36.069 62.7787 36.7243 65.9637 36.3946 68.5286L36.3967 68.5317Z" fill="#231F20"/>
<rect x="0.5" y="100.5" width="49" height="49" stroke="black"/>
<path fill-rule="evenodd" clip-rule="evenodd" d="M37.6983 119.61C37.6983 121.517 36.8963 123.331 35.7363 124.953C34.2297 127.056 32.0958 128.851 30.3887 130.067C29.9992 130.343 29.6755 130.73 29.4263 131.155C28.8936 132.064 28.0085 132.591 27.0146 132.591H23.2423C22.2484 132.591 21.3634 132.064 20.8306 131.155C20.5843 130.733 20.2578 130.343 19.8682 130.067C18.1611 128.851 16.0272 127.056 14.5206 124.953C13.3577 123.331 12.5586 121.517 12.5586 119.61C12.5586 114.025 16.7949 111.681 19.914 109.957C21.2918 109.194 22.3916 108.586 22.4174 108.22L22.4833 107.262H27.7765L27.8424 108.22C27.8681 108.586 28.968 109.197 30.3457 109.96C33.4621 111.684 37.6983 114.028 37.6983 119.613V119.61Z" fill="#BA0068"/>
<path fill-rule="evenodd" clip-rule="evenodd" d="M30.3428 109.96C28.9651 109.197 27.8624 108.59 27.8394 108.22L27.7822 107.386C27.9683 106.019 28.5154 104.496 29.3833 103.203C27.8194 103.209 26.8914 104.152 26.33 105.24C26.2412 104.205 26.2956 103.085 26.5419 102C25.0496 102.667 24.5341 103.978 24.4109 105.25C23.7092 103.988 22.489 102.84 20.3436 102.831C22.108 105.02 22.5921 106.363 22.4145 108.217C22.3887 108.583 21.2888 109.191 19.9111 109.954C16.7919 111.678 12.5557 114.022 12.5557 119.607C12.5557 121.514 13.3577 123.328 14.5177 124.95C16.0243 127.053 18.1582 128.848 19.8653 130.064C20.2548 130.34 20.5785 130.727 20.8277 131.152C21.3604 132.061 22.2455 132.588 23.2394 132.588H24.7861C24.9007 132.594 25.0124 132.603 25.127 132.603C25.2415 132.603 25.3532 132.591 25.4678 132.588H27.0145C28.0084 132.588 28.8935 132.061 29.4262 131.152C29.6726 130.727 29.9991 130.34 30.3886 130.064C32.0957 128.848 34.2296 127.053 35.7362 124.95C36.8963 123.328 37.6983 121.514 37.6983 119.607C37.6983 114.022 33.462 111.678 30.3457 109.954L30.3428 109.96ZM34.2296 123.7C33.1641 125.189 31.732 126.51 30.403 127.555C32.8233 123.493 33.9002 118.023 30.5777 115.371C32.3822 119.282 31.1047 123.362 28.8849 126.612C28.7675 126.786 27.9655 127.998 27.2838 129.034C27.2064 129.152 27.0976 129.326 26.9773 129.521C26.625 130.085 26.0865 130.395 25.4592 130.395H25.104C24.4624 130.395 23.9125 130.07 23.5659 129.487C23.3139 129.062 22.9988 128.674 22.7181 128.271C20.0773 124.42 17.1442 120.869 19.6848 115.368C16.0644 117.833 17.3304 123.418 19.8252 127.527C18.5048 126.485 17.0869 125.17 16.03 123.694C15.1049 122.404 14.469 121.006 14.469 119.607C14.469 115.275 18.1066 113.263 20.7819 111.783C21.8617 111.185 22.8155 110.658 23.46 110.035C23.4055 110.183 23.3511 110.335 23.291 110.497C22.2083 113.377 20.4926 120.385 24.4711 126.764C23.2595 121.331 23.1793 116.091 25.1356 110.85C26.3787 114.19 27.258 114.726 28.4667 119.607C28.4667 114.456 27.6103 112.174 26.9773 110.497C26.9171 110.335 26.8627 110.186 26.8083 110.035C27.4556 110.655 28.4066 111.185 29.4864 111.783C32.1616 113.266 35.7993 115.275 35.7993 119.607C35.7993 121.003 35.1634 122.404 34.2382 123.694L34.2296 123.7Z" fill="#231F20"/>
<path d="M5.8211 139.466C7.0631 139.466 7.5761 140.105 7.5761 141.392C7.5761 142.265 7.3781 142.823 6.8831 143.129L7.7831 146H6.5681L5.8391 143.381H5.3801V146H4.2461V139.466H5.8211ZM5.3801 142.364H5.7311C6.2081 142.364 6.4421 142.184 6.4421 141.401C6.4421 140.663 6.2081 140.483 5.7311 140.483H5.3801V142.364ZM9.7683 144.641L9.5433 146H8.4543L9.7053 139.466H11.0913L12.3423 146H11.1993L10.9743 144.641H9.7683ZM10.8033 143.624L10.3713 141.014L9.9303 143.624H10.8033ZM16.619 144.416C16.619 145.451 16.124 146.09 14.945 146.09C13.775 146.09 13.289 145.451 13.289 144.416V139.466H14.423V144.425C14.423 144.902 14.603 145.082 14.945 145.082C15.305 145.082 15.485 144.902 15.485 144.425V139.466H16.619V144.416ZM17.6408 142.346H18.0098V139.466H19.6658C20.8448 139.466 21.3398 140.105 21.3398 141.14V144.335C21.3398 145.361 20.8448 146 19.6658 146H18.0098V143.246H17.6408V142.346ZM19.5848 144.983C19.9988 144.983 20.2058 144.776 20.2058 144.245V141.221C20.2058 140.69 19.9988 140.483 19.5848 140.483H19.1438V142.346H19.6028V143.246H19.1438V144.983H19.5848ZM23.8195 139.466V144.983H25.6195V146H22.6855V139.466H23.8195ZM27.5662 144.641L27.3412 146H26.2522L27.5032 139.466H28.8892L30.1402 146H28.9972L28.7722 144.641H27.5662ZM28.6012 143.624L28.1692 141.014L27.7282 143.624H28.6012ZM34.4168 144.416C34.4168 145.451 33.9218 146.09 32.7428 146.09C31.5728 146.09 31.0868 145.451 31.0868 144.416V139.466H32.2208V144.425C32.2208 144.902 32.4008 145.082 32.7428 145.082C33.1028 145.082 33.2828 144.902 33.2828 144.425V139.466H34.4168V144.416ZM36.9416 139.466V141.851L38.1746 139.466H39.4346L37.9046 142.058L39.5066 146H38.2286L37.2206 143.03L36.9416 143.444V146H35.8076V139.466H36.9416ZM43.6454 144.416C43.6454 145.451 43.1504 146.09 41.9714 146.09C40.8014 146.09 40.3154 145.451 40.3154 144.416V139.466H41.4494V144.425C41.4494 144.902 41.6294 145.082 41.9714 145.082C42.3314 145.082 42.5114 144.902 42.5114 144.425V139.466H43.6454V144.416ZM46.6111 139.466C47.8531 139.466 48.3661 140.105 48.3661 141.392C48.3661 142.265 48.1681 142.823 47.6731 143.129L48.5731 146H47.3581L46.6291 143.381H46.1701V146H45.0361V139.466H46.6111ZM46.1701 142.364H46.5211C46.9981 142.364 47.2321 142.184 47.2321 141.401C47.2321 140.663 46.9981 140.483 46.5211 140.483H46.1701V142.364Z" fill="#0078AE"/>
<rect x="0.5" y="150.5" width="48.7235" height="49" stroke="black"/>
<path d="M32.1277 179.804C29.7242 179.804 27.3883 179.291 25.1936 178.281C21.2892 176.484 16.784 176.487 12.8797 178.281L11.4917 178.916V158.797L12.1011 158.518C16.4934 156.494 21.5741 156.494 25.9693 158.518C29.8652 160.311 34.3789 160.311 38.2804 158.518L39.6684 157.879V178.001L39.059 178.281C36.8614 179.291 34.5284 179.804 32.1249 179.804H32.1277Z" fill="#231F20"/>
<path d="M19.0403 174.758C21.441 174.758 23.774 175.271 25.9716 176.278C29.6672 177.98 33.9298 178.069 37.6734 176.543V161.089C33.6393 162.529 29.1284 162.332 25.1959 160.52C21.5003 158.819 17.2405 158.73 13.4941 160.256V175.71C15.277 175.075 17.1361 174.752 19.0403 174.752V174.758Z" fill="#E94E3B"/>
<path d="M25.9692 169.055C22.0367 167.246 17.5427 167.071 13.4917 168.508V172.255C25.6307 167.025 29.3968 175.75 37.6709 173.029V169.298C33.9246 170.818 29.6535 170.75 25.9692 169.055Z" fill="#FCD6BF"/>
<path d="M25.9692 163.837C22.0367 162.028 17.5427 161.853 13.4917 163.291V167.037C25.6307 161.807 29.3968 170.532 37.6709 167.811V164.08C33.9246 165.6 29.6535 165.536 25.9692 163.837Z" fill="#FCD6BF"/>
<path d="M4.46661 184.466C5.64561 184.466 6.14061 185.132 6.14061 186.167C6.14061 186.797 5.89761 187.265 5.50161 187.499C5.97861 187.742 6.27561 188.273 6.27561 189.047C6.27561 190.343 5.77161 191 4.56561 191H2.81961V184.466H4.46661ZM3.95361 187.058H4.29561C4.74561 187.058 5.00661 186.842 5.00661 186.194C5.00661 185.663 4.79961 185.42 4.38561 185.42H3.95361V187.058ZM3.95361 190.046H4.36761C4.88961 190.046 5.14161 189.812 5.14161 189.056C5.14161 188.237 4.86261 188.012 4.33161 188.012H3.95361V190.046ZM10.3833 184.466V185.483H8.67334V187.049H10.0863V188.066H8.67334V189.983H10.4733V191H7.53934V184.466H10.3833ZM12.7688 184.466V191H11.6438V184.466H12.7688ZM15.3442 184.466V186.851L16.5772 184.466H17.8372L16.3072 187.058L17.9092 191H16.6312L15.6232 188.03L15.3442 188.444V191H14.2102V184.466H15.3442ZM21.9151 189.416C21.9151 190.451 21.4201 191.09 20.2411 191.09C19.0711 191.09 18.5851 190.451 18.5851 189.416V186.05C18.5851 185.015 19.0711 184.385 20.2411 184.385C21.4201 184.385 21.9151 185.015 21.9151 186.05V189.416ZM19.7191 189.425C19.7191 189.902 19.8991 190.082 20.2411 190.082C20.6011 190.082 20.7811 189.902 20.7811 189.425V186.05C20.7811 185.582 20.6011 185.393 20.2411 185.393C19.8991 185.393 19.7191 185.582 19.7191 186.05V189.425ZM23.263 191V184.466H24.289L25.819 188.444V184.466H26.854V191H25.882L24.307 187.049V191H23.263ZM29.4243 184.466V186.851L30.6573 184.466H31.9173L30.3873 187.058L31.9893 191H30.7113L29.7033 188.03L29.4243 188.444V191H28.2903V184.466H29.4243ZM36.128 189.416C36.128 190.451 35.633 191.09 34.454 191.09C33.284 191.09 32.798 190.451 32.798 189.416V184.466H33.932V189.425C33.932 189.902 34.112 190.082 34.454 190.082C34.814 190.082 34.994 189.902 34.994 189.425V184.466H36.128V189.416ZM39.0938 184.466C40.3358 184.466 40.8488 185.105 40.8488 186.392C40.8488 187.265 40.6508 187.823 40.1558 188.129L41.0558 191H39.8408L39.1118 188.381H38.6528V191H37.5188V184.466H39.0938ZM38.6528 187.364H39.0038C39.4808 187.364 39.7148 187.184 39.7148 186.401C39.7148 185.663 39.4808 185.483 39.0038 185.483H38.6528V187.364ZM43.311 184.466V189.983H45.111V191H42.177V184.466H43.311Z" fill="#0078AE"/>
<rect x="0.5" y="200.5" width="49" height="49" stroke="black"/>
<path fill-rule="evenodd" clip-rule="evenodd" d="M7.77024 218.169C7.56398 217.955 7.51243 217.617 7.64421 217.353C7.77599 217.087 8.05385 216.981 8.30882 217.096C24.5864 224.434 28.196 210.177 34.464 207.999C36.9449 207.137 39.655 208.803 40.5201 211.718C43.5539 221.947 20.8622 231.642 7.77024 218.169Z" fill="#F90B0B"/>
<path fill-rule="evenodd" clip-rule="evenodd" d="M42.1304 209.926C41.9241 209.234 41.6004 208.623 41.1908 208.115C41.8984 205.81 41.6749 203.196 40.3686 201L39.0078 201.949C39.8758 203.41 39.9847 205.193 39.5263 206.821C38.6955 206.459 37.7731 206.393 36.885 206.704C36.779 206.741 36.6902 206.809 36.5899 206.856C35.7563 206.71 34.8998 206.769 34.1005 207.048C32.0235 207.77 30.276 209.616 28.4283 211.567C24.9648 215.226 21.0372 219.376 13.5803 217.847C12.0218 217.528 10.3402 216.963 8.58124 216.172L8.28619 216.076C7.66741 215.949 7.04862 216.272 6.74782 216.876C6.41551 217.54 6.53867 218.368 7.0486 218.895C10.2772 222.217 14.1962 224.366 18.6967 225.291C26.5404 226.9 35.2722 224.348 39.4547 219.221C40.7639 217.618 41.4801 215.862 41.6004 214.097C42.2908 212.817 42.5687 211.412 42.1275 209.926H42.1304ZM38.071 217.894C34.9083 221.771 27.162 224.99 19.0405 223.324C15.5455 222.608 12.4315 221.088 9.76438 218.802C10.9647 219.249 12.125 219.587 13.2336 219.817C21.6331 221.538 26.1164 216.805 29.7145 213C31.4764 211.139 32.9976 209.532 34.662 208.952C35.0487 208.819 35.444 208.788 35.8365 208.809C36.0571 209.275 36.4467 209.644 36.9566 209.749L37.0827 209.771C36.9796 210.918 37.7015 211.979 38.7672 212.199C38.9935 212.246 39.2169 212.249 39.4318 212.218C39.4834 212.466 39.5951 212.683 39.7326 212.885C40.0076 214.966 39.0193 216.731 38.0682 217.897L38.071 217.894Z" fill="#231F20"/>
<path fill-rule="evenodd" clip-rule="evenodd" d="M35.1055 210.425C32.0946 212.95 31.3297 213.862 29.2041 216.234C31.9829 214.857 34.4638 213.654 36.4319 212.823L35.1026 210.425H35.1055Z" fill="white"/>
<path d="M11.4427 228.74V229.87H9.44274V231.71H11.1127V232.84H9.44274V236H8.18274V228.74H11.4427ZM15.8056 228.74V229.87H13.9056V231.61H15.4756V232.74H13.9056V234.87H15.9056V236H12.6456V228.74H15.8056ZM18.9562 228.74C20.3362 228.74 20.9062 229.45 20.9062 230.88C20.9062 231.85 20.6862 232.47 20.1362 232.81L21.1362 236H19.7862L18.9762 233.09H18.4662V236H17.2062V228.74H18.9562ZM18.4662 231.96H18.8562C19.3862 231.96 19.6462 231.76 19.6462 230.89C19.6462 230.07 19.3862 229.87 18.8562 229.87H18.4662V231.96ZM23.312 234.24C23.312 234.77 23.532 234.97 23.932 234.97C24.342 234.97 24.572 234.74 24.572 234.21C24.572 233.6 24.082 233.19 23.592 232.8C22.912 232.26 22.132 231.61 22.132 230.4C22.132 229.32 22.872 228.65 23.932 228.65C25.172 228.65 25.732 229.35 25.732 230.5V230.84H24.472V230.5C24.472 229.98 24.282 229.77 23.942 229.77C23.582 229.77 23.392 229.99 23.392 230.4C23.392 231.01 23.942 231.46 24.422 231.83C25.122 232.37 25.832 232.99 25.832 234.2C25.832 235.4 25.052 236.1 23.942 236.1C22.642 236.1 22.052 235.39 22.052 234.24V233.75H23.312V234.24ZM28.3588 228.74V231.39L29.7288 228.74H31.1288L29.4288 231.62L31.2088 236H29.7888L28.6688 232.7L28.3588 233.16V236H27.0988V228.74H28.3588ZM35.8073 234.24C35.8073 235.39 35.2573 236.1 33.9473 236.1C32.6473 236.1 32.1073 235.39 32.1073 234.24V228.74H33.3673V234.25C33.3673 234.78 33.5673 234.98 33.9473 234.98C34.3473 234.98 34.5473 234.78 34.5473 234.25V228.74H35.8073V234.24ZM39.1027 228.74C40.4827 228.74 41.0527 229.45 41.0527 230.88C41.0527 231.85 40.8327 232.47 40.2827 232.81L41.2827 236H39.9327L39.1227 233.09H38.6127V236H37.3527V228.74H39.1027ZM38.6127 231.96H39.0027C39.5327 231.96 39.7927 231.76 39.7927 230.89C39.7927 230.07 39.5327 229.87 39.0027 229.87H38.6127V231.96ZM18.7066 246.24C18.7066 247.39 18.1566 248.1 16.8466 248.1C15.5466 248.1 15.0066 247.39 15.0066 246.24V242.5C15.0066 241.35 15.5466 240.65 16.8466 240.65C18.1566 240.65 18.7066 241.35 18.7066 242.5V243.17H17.4466V242.5C17.4466 241.98 17.2466 241.77 16.8466 241.77C16.4666 241.77 16.2666 241.98 16.2666 242.5V246.25C16.2666 246.78 16.4666 246.98 16.8466 246.98C17.2466 246.98 17.4466 246.78 17.4466 246.25V245.49H18.7066V246.24ZM21.3275 244.74V248H20.0675V240.74H21.3275V243.61H22.5775V240.74H23.8375V248H22.5775V244.74H21.3275ZM26.6886 240.74V248H25.4386V240.74H26.6886ZM29.5502 240.74V246.87H31.5502V248H28.2902V240.74H29.5502ZM34.0031 240.74V248H32.7531V240.74H34.0031Z" fill="#0078AE"/>
<rect x="0.5" y="250.5" width="49" height="49" stroke="black"/>
<path d="M6.96858 293.98C7.29858 293.98 7.46858 293.8 7.46858 293.34V287.74H8.72858V293.44C8.72858 294.51 8.28858 295.1 7.06858 295.1H6.52858V293.98H6.96858ZM11.2405 293.49L10.9905 295H9.78053L11.1705 287.74H12.7105L14.1005 295H12.8305L12.5805 293.49H11.2405ZM12.3905 292.36L11.9105 289.46L11.4205 292.36H12.3905ZM16.4624 287.74V293.87H18.4624V295H15.2024V287.74H16.4624ZM20.6253 293.49L20.3753 295H19.1653L20.5553 287.74H22.0953L23.4853 295H22.2153L21.9653 293.49H20.6253ZM21.7753 292.36L21.2953 289.46L20.8053 292.36H21.7753ZM26.3372 287.74C27.7072 287.74 28.2872 288.45 28.2872 289.88C28.2872 291.38 27.7072 292.09 26.3372 292.09H25.8472V295H24.5872V287.74H26.3372ZM25.8472 290.96H26.2372C26.7672 290.96 27.0272 290.76 27.0272 289.89C27.0272 289.07 26.7672 288.87 26.2372 288.87H25.8472V290.96ZM32.6983 287.74V288.87H30.7983V290.61H32.3683V291.74H30.7983V293.87H32.7983V295H29.5383V287.74H32.6983ZM34.0989 295V287.74H35.2389L36.9389 292.16V287.74H38.0889V295H37.0089L35.2589 290.61V295H34.0989ZM43.2848 293.24C43.2848 294.39 42.7348 295.1 41.4248 295.1C40.1248 295.1 39.5848 294.39 39.5848 293.24V289.5C39.5848 288.35 40.1248 287.65 41.4248 287.65C42.7348 287.65 43.2848 288.35 43.2848 289.5V293.24ZM40.8448 293.25C40.8448 293.78 41.0448 293.98 41.4248 293.98C41.8248 293.98 42.0248 293.78 42.0248 293.25V289.5C42.0248 288.98 41.8248 288.77 41.4248 288.77C41.0448 288.77 40.8448 288.98 40.8448 289.5V293.25Z" fill="#0078AE"/>
<path d="M38.4171 284.087C30.9866 287.616 23.4028 284.881 20.2758 277.456C17.1488 270.032 20.4531 261.737 27.3106 258.348C34.1682 254.959 41.9055 256.672 45.5781 265.277C48.7392 272.687 45.319 280.808 38.4171 284.087Z" fill="#465C00"/>
<path d="M38.0757 283.297C31.0988 286.612 23.9821 284.042 21.0461 277.072C18.11 270.102 21.2132 262.316 27.6513 259.134C34.0894 255.952 41.3527 257.561 44.7968 265.639C47.7636 272.594 44.5547 280.218 38.0757 283.297ZM41.3118 267.271C38.8736 261.552 33.7313 260.415 29.1755 262.667C24.6198 264.919 22.4237 270.431 24.5038 275.363C26.5839 280.295 31.6205 282.115 36.5583 279.767C41.1447 277.589 43.4158 272.192 41.3152 267.271H41.3118Z" fill="#728B00"/>
<path d="M37.0939 281.019C31.4333 283.71 25.6567 281.624 23.2731 275.969C20.8895 270.313 23.4061 263.989 28.6337 261.408C33.8579 258.828 39.7538 260.131 42.55 266.687C44.9575 272.332 42.3522 278.52 37.0939 281.019ZM40.7972 267.507C38.5057 262.135 33.6771 261.069 29.3975 263.184C25.118 265.296 23.0549 270.475 25.0088 275.108C26.9628 279.742 31.6925 281.447 36.3267 279.243C40.6335 277.198 42.7682 272.129 40.7938 267.507H40.7972Z" fill="#A0B800"/>
<path d="M42.4206 266.196C41.3021 263.926 39.9722 264.45 40.1154 265.159C40.2586 265.868 39.447 266.241 38.7616 266.713C38.3899 266.972 37.8204 266.909 37.251 266.721C35.7812 265.698 33.3772 265.484 31.6517 265.835C31.6313 265.835 31.6108 265.835 31.5903 265.835L31.6381 265.764C31.6074 265.783 31.5494 265.809 31.471 265.838C30.731 265.86 30.0149 265.971 29.4011 266.222C28.7225 266.27 28.0405 266.237 27.604 266.03C26.9902 265.735 26.4582 264.827 26.5674 263.933C26.6731 263.04 25.3807 262.818 24.2452 265.074C23.1096 267.333 24.2452 268.249 24.7157 267.728C25.1863 267.208 25.9195 267.74 26.6629 268.098C27.0618 268.29 27.379 268.843 27.5904 269.464C27.5972 269.589 27.604 269.711 27.6176 269.844C27.662 270.228 27.7711 270.615 27.8939 270.999C27.8939 271.007 27.8939 271.018 27.8939 271.029V271.022C28.1019 271.657 28.3576 272.284 28.5418 272.893C28.8998 274.082 29.2408 275.178 29.9433 276.186C30.1956 276.544 30.4957 276.832 30.8333 277.05C31.1436 277.659 31.3892 278.287 31.4062 278.778C31.4301 279.505 30.9083 280.421 30.1172 280.705C29.3295 280.989 29.708 282.348 32.0814 282.47C34.4548 282.592 34.7207 281.085 34.0831 280.853C33.4454 280.62 33.5681 279.675 33.5408 278.796C33.5272 278.32 33.8205 277.696 34.2229 277.146C35.6176 276.393 37.0123 274.514 37.8341 272.535C38.0558 271.992 38.2365 271.45 38.366 270.918C38.748 270.051 39.2902 269.087 39.8392 268.703C40.4018 268.312 41.3975 268.327 42.0284 268.917C42.6593 269.504 43.5425 268.459 42.424 266.189L42.4206 266.196Z" fill="#E1EF93"/>
<path d="M31.665 265.735L31.6411 265.768C31.6582 265.753 31.6684 265.742 31.665 265.735Z" fill="#E1EF93"/>
<path d="M37.2266 269.434C36.9981 267.307 33.8848 266.761 31.9172 267.16C30.1645 267.182 28.514 267.784 28.8106 270.246C28.9061 271.04 29.2949 271.837 29.5234 272.594C29.7996 273.51 30.0621 274.351 30.6009 275.127C31.3716 276.227 32.7731 276.456 33.8677 275.88C35.658 274.935 37.4585 271.568 37.2266 269.43V269.434Z" fill="#EFF2BE"/>
<path d="M33.5096 274.816C33.4687 275.152 33.0357 275.374 32.5378 275.304C32.0399 275.233 31.6682 274.905 31.7091 274.565C31.7501 274.229 32.1866 274.011 32.681 274.078C33.1789 274.148 33.5471 274.477 33.5062 274.816H33.5096Z" fill="#CDD862"/>
<path d="M30.0281 270.147C29.7349 270.025 29.6428 269.512 29.8235 269.01C30.0043 268.504 30.3862 268.194 30.6829 268.316C30.9761 268.437 31.0682 268.947 30.8875 269.456C30.7067 269.962 30.3214 270.272 30.0281 270.15V270.147Z" fill="#CDD862"/>
<path d="M35.563 268.526C35.8358 268.352 36.2621 268.592 36.5144 269.061C36.7702 269.53 36.7531 270.047 36.4837 270.22C36.2109 270.394 35.7847 270.154 35.5323 269.685C35.2766 269.216 35.2902 268.699 35.563 268.526Z" fill="#CDD862"/>
<path d="M26.5501 272.739C27.0275 272.635 27.8425 272.779 27.9141 273.159C27.9857 273.54 27.3071 274.012 26.8059 274.119C25.4214 274.418 25.4146 274.101 25.343 273.717C25.2714 273.337 25.1622 273.038 26.5501 272.739Z" fill="#FFEB92"/>
<path d="M26.4443 273.019C27.0172 272.893 27.5151 272.993 27.5628 273.237C27.6071 273.484 27.1809 273.779 26.608 273.905C26.0351 274.03 25.5338 273.931 25.4895 273.687C25.4452 273.443 25.8714 273.144 26.4443 273.019Z" fill="#FFFAE6"/>
<path d="M26.1101 270.239C26.5978 270.268 27.3548 270.612 27.3343 270.985C27.3173 271.354 26.55 271.609 26.0419 271.579C24.6302 271.498 24.6984 271.199 24.7155 270.83C24.7325 270.46 24.6984 270.158 26.1067 270.239H26.1101Z" fill="#FFEB92"/>
<path d="M25.9401 270.468C26.5232 270.501 26.9869 270.722 26.9733 270.959C26.9597 271.195 26.4788 271.361 25.8957 271.328C25.3126 271.291 24.8522 271.073 24.8625 270.837C24.8761 270.597 25.3569 270.434 25.9401 270.468Z" fill="#FFFAE6"/>
<path d="M29.9362 264.458C30.359 264.572 30.966 265.011 30.891 265.332C30.816 265.654 30.1067 265.735 29.6668 265.617C28.446 265.284 28.5483 265.037 28.6233 264.716C28.6984 264.398 28.712 264.125 29.9362 264.458Z" fill="#FFEB92"/>
<path d="M29.7518 264.628C30.2565 264.764 30.6282 265.045 30.5804 265.251C30.5327 265.458 30.0825 265.51 29.5779 265.373C29.0732 265.237 28.7015 264.956 28.7492 264.753C28.797 264.546 29.2437 264.491 29.7484 264.628H29.7518Z" fill="#FFFAE6"/>
<path d="M28.4767 277.379C28.5756 276.921 28.9746 276.257 29.2712 276.33C29.5679 276.404 29.6566 277.176 29.5542 277.652C29.2644 278.981 29.0325 278.87 28.7358 278.793C28.4392 278.719 28.1902 278.704 28.4767 277.379Z" fill="#FFEB92"/>
<path d="M28.6368 277.575C28.7562 277.025 29.0085 276.618 29.1994 276.666C29.3904 276.714 29.4484 277.202 29.329 277.748C29.2131 278.298 28.9573 278.701 28.7698 278.653C28.5788 278.605 28.5208 278.121 28.6402 277.571L28.6368 277.575Z" fill="#FFFAE6"/>
<path d="M33.4927 263.919C33.4347 264.398 33.104 265.126 32.8107 265.085C32.514 265.045 32.364 264.269 32.422 263.767C32.5856 262.375 32.8209 262.457 33.1176 262.501C33.4142 262.541 33.6598 262.523 33.4927 263.919Z" fill="#FFEB92"/>
<path d="M33.3188 263.737C33.2506 264.313 33.0392 264.76 32.8516 264.734C32.6607 264.708 32.5618 264.217 32.63 263.641C32.6982 263.066 32.9062 262.619 33.0971 262.648C33.2881 262.674 33.387 263.162 33.3188 263.737Z" fill="#FFFAE6"/>
<path d="M35.5626 264.207C35.5047 264.687 35.1262 265.41 34.7715 265.359C34.4135 265.307 34.2123 264.528 34.2736 264.026C34.4373 262.634 34.7237 262.723 35.0784 262.774C35.433 262.822 35.7297 262.811 35.5626 264.207Z" fill="#FFEB92"/>
<path d="M35.3551 264.018C35.2869 264.594 35.0448 265.037 34.8164 265.004C34.5879 264.971 34.4583 264.48 34.5265 263.904C34.5947 263.328 34.8334 262.888 35.0653 262.918C35.2938 262.951 35.4233 263.442 35.3551 264.018Z" fill="#FFFAE6"/>
<path d="M37.339 266.015C36.9434 266.152 36.2307 266.086 36.125 265.735C36.0193 265.384 36.5478 264.886 36.9605 264.742C38.1062 264.343 38.154 264.642 38.2563 264.996C38.362 265.351 38.4881 265.62 37.339 266.019V266.015Z" fill="#FFEB92"/>
<path d="M37.3977 265.743C36.9237 265.909 36.4838 265.861 36.4156 265.632C36.3474 265.403 36.6782 265.089 37.1556 264.923C37.6296 264.761 38.0695 264.809 38.1343 265.037C38.2025 265.266 37.8717 265.584 37.3977 265.746V265.743Z" fill="#FFFAE6"/>
<path d="M35.8871 277.767C35.6279 277.416 35.4302 276.67 35.6961 276.438C35.9621 276.209 36.5793 276.559 36.8521 276.929C37.6092 277.948 37.3636 278.099 37.0976 278.328C36.8317 278.56 36.6407 278.786 35.8871 277.767Z" fill="#FFEB92"/>
<path d="M36.1462 277.729C35.8325 277.309 35.72 276.847 35.8905 276.696C36.061 276.548 36.4531 276.77 36.7669 277.187C37.0772 277.608 37.1897 278.069 37.0192 278.22C36.8453 278.372 36.4565 278.15 36.1462 277.729Z" fill="#FFFAE6"/>
<path d="M39.7129 271.435C39.2969 271.409 38.6558 271.066 38.6763 270.697C38.6967 270.327 39.3549 270.069 39.7879 270.098C40.9917 270.176 40.9303 270.475 40.9098 270.841C40.8894 271.213 40.9167 271.512 39.7129 271.435Z" fill="#FFEB92"/>
<path d="M39.8596 271.206C39.3583 271.173 38.9662 270.955 38.9798 270.719C38.9935 270.482 39.4061 270.316 39.9074 270.346C40.4018 270.379 40.7974 270.597 40.7838 270.837C40.7701 271.077 40.3575 271.243 39.8596 271.21V271.206Z" fill="#FFFAE6"/>
<path d="M4.57905 273.639C3.2696 269.312 4.74957 263.937 8.51764 260.717C14.1271 255.922 22.5362 253.707 27.4603 259.315C32.6231 265.196 34.8157 273.096 29.9087 278.722C27.2455 281.775 22.4032 285.342 17.9872 285.05C15.3377 284.877 12.8586 282.953 10.7683 281.133C8.42215 279.084 5.53386 276.799 4.58246 273.639H4.57905Z" fill="#465C00"/>
<path d="M5.51732 273.395C4.29653 269.348 5.67761 264.331 9.19675 261.322C14.4345 256.844 22.2946 254.773 26.8913 260.012C31.7131 265.505 33.7625 272.889 29.1761 278.142C26.6867 280.996 22.165 284.326 18.0389 284.056C15.5632 283.894 13.2444 282.096 11.2973 280.398C9.10465 278.486 6.40734 276.348 5.51732 273.398V273.395ZM13.2069 277.762C14.663 279.032 16.3987 280.376 18.2469 280.498C21.333 280.701 24.7157 278.209 26.5742 276.075C30.0013 272.147 28.4702 266.627 24.8658 262.519C21.4285 258.602 15.553 260.152 11.6349 263.501C9.00234 265.749 7.97254 269.503 8.88301 272.527C9.54797 274.735 11.5667 276.329 13.2069 277.762Z" fill="#728B00"/>
<path d="M7.62093 272.856C6.59111 269.449 7.75732 265.221 10.7206 262.685C15.1332 258.912 21.7555 257.166 25.6258 261.581C29.6906 266.207 31.4126 272.428 27.5525 276.854C25.4553 279.258 21.6463 282.067 18.1715 281.834C16.088 281.698 14.134 280.184 12.4904 278.752C10.6422 277.138 8.37114 275.341 7.62093 272.852V272.856ZM13.4213 277.471C14.8229 278.696 16.4938 279.989 18.2738 280.103C21.244 280.302 24.4971 277.899 26.2874 275.85C29.5849 272.07 28.1117 266.757 24.6437 262.803C21.3326 259.034 15.6788 260.522 11.9073 263.745C9.37708 265.908 8.38135 269.522 9.26113 272.435C9.90222 274.558 11.8425 276.094 13.4213 277.474V277.471Z" fill="#A0B800"/>
<path d="M9.4896 272.1C9.59872 271.383 10.4785 271.361 11.2765 271.191C12.0744 271.022 13.4691 272.107 14.0249 272.901L14.0317 272.853C14.8195 274.112 16.0061 275.171 17.1314 275.673C17.5338 275.854 17.9157 275.987 18.2874 276.09C18.3045 276.098 18.3147 276.101 18.3352 276.109C19.5389 276.541 20.4767 277.242 20.804 277.874C21.1348 278.505 21.0632 279.579 20.4835 280.229C19.9038 280.875 20.8177 281.89 22.9762 280.812C25.1314 279.734 24.729 278.265 24.064 278.379C23.4025 278.494 23.1058 277.593 22.7069 276.825C22.3931 276.22 22.7716 275.289 23.2013 274.521C23.3241 274.344 23.4332 274.156 23.5355 273.96L23.5389 273.953C24.2857 272.513 24.4698 270.645 24.1186 269.035C24.105 268.914 24.0674 268.592 23.972 267.754C23.8185 266.392 24.0026 265.177 24.3846 264.583C24.7699 263.989 25.6974 263.597 26.4851 263.889C27.2729 264.177 27.7298 262.848 25.9055 261.201C24.0811 259.555 23.0308 260.581 23.4093 261.179C23.7878 261.781 23.1638 262.457 22.6932 263.173C22.3454 263.708 20.2721 264.842 18.8603 265.321C18.4852 265.362 18.1101 265.436 17.7384 265.532C16.6029 265.831 15.5185 266.381 14.6762 267.06C14.6762 267.06 11.6072 268.766 10.9491 268.91C10.2909 269.054 9.37026 268.64 8.98493 267.843C8.59959 267.042 7.42312 267.669 7.69251 270.22C7.96191 272.775 9.37707 272.819 9.48619 272.1H9.4896Z" fill="#E1EF93"/>
<path d="M17.5341 274.709C23.3516 277.308 24.6065 269.408 21.8853 267.163C20.0575 265.653 16.8111 266.569 15.2118 268.142C12.9885 270.331 15.4096 273.761 17.5341 274.709Z" fill="#EFF2BE"/>
<path d="M20.381 267.355C20.5822 267.089 21.0562 267.156 21.4449 267.499C21.8302 267.842 21.9837 268.337 21.7825 268.599C21.5847 268.861 21.1073 268.799 20.7186 268.452C20.3298 268.108 20.1798 267.614 20.3776 267.351L20.381 267.355Z" fill="#CDD862"/>
<path d="M21.0425 273.314C21.23 273.587 21.0595 274.07 20.6571 274.395C20.2547 274.724 19.7773 274.765 19.5864 274.491C19.3988 274.218 19.5693 273.735 19.9717 273.41C20.3741 273.085 20.8515 273.04 21.039 273.314H21.0425Z" fill="#CDD862"/>
<path d="M15.5559 271.504C15.2422 271.493 14.9967 271.047 15.0103 270.504C15.0239 269.961 15.2899 269.529 15.6071 269.537C15.9208 269.544 16.1663 269.994 16.1492 270.537C16.1356 271.08 15.8696 271.512 15.5559 271.504Z" fill="#CDD862"/>
<path d="M14.4238 264.575C14.7818 265.096 15.1262 266.1 14.85 266.322C14.5772 266.543 13.8031 265.919 13.428 265.376C12.3914 263.867 12.6539 263.745 12.9268 263.523C13.203 263.302 13.3871 263.065 14.4238 264.575Z" fill="#FFEB92"/>
<path d="M14.1307 264.55C14.5569 265.173 14.7649 265.79 14.5842 265.938C14.4069 266.078 13.9192 265.69 13.4896 265.066C13.0599 264.443 12.8587 263.822 13.0327 263.682C13.21 263.542 13.6976 263.929 14.1273 264.553L14.1307 264.55Z" fill="#FFFAE6"/>
<path d="M17.7244 263.021C18.0824 263.541 18.4609 264.52 18.2257 264.708C17.9938 264.896 17.2538 264.246 16.8821 263.704C15.8454 262.194 16.0705 262.098 16.3058 261.913C16.5377 261.725 16.6912 261.518 17.7244 263.024V263.021Z" fill="#FFEB92"/>
<path d="M17.4587 262.977C17.8849 263.601 18.1134 264.203 17.9633 264.324C17.8133 264.443 17.3461 264.037 16.9164 263.413C16.4902 262.789 16.2651 262.187 16.4152 262.069C16.5652 261.947 17.0324 262.357 17.4621 262.977H17.4587Z" fill="#FFFAE6"/>
<path d="M12.1189 266.381C12.719 266.37 13.6738 266.702 13.6806 267.134C13.6875 267.566 12.7975 267.429 12.17 267.444C10.4343 267.477 10.465 267.628 10.4582 267.197C10.4514 266.765 10.3797 266.414 12.1154 266.381H12.1189Z" fill="#FFEB92"/>
<path d="M11.9311 266.665C12.6472 266.651 13.2337 266.865 13.2371 267.142C13.2405 267.422 12.6915 267.153 11.972 267.164C11.2559 267.178 10.6455 267.466 10.6387 267.19C10.6353 266.913 11.2116 266.676 11.9277 266.662L11.9311 266.665Z" fill="#FFFAE6"/>
<path d="M25.9327 267.939C25.3802 268.175 24.3947 268.227 24.2515 267.839C24.1083 267.448 24.8449 266.772 25.4177 266.528C27.0136 265.849 27.0716 266.192 27.2114 266.58C27.3546 266.971 27.5251 267.263 25.9327 267.939Z" fill="#FFEB92"/>
<path d="M26.018 267.614C25.3599 267.894 24.7495 267.916 24.6574 267.665C24.5688 267.414 25.0291 266.982 25.6872 266.702C26.3454 266.421 26.9558 266.399 27.0444 266.65C27.1365 266.901 26.6761 267.333 26.018 267.614Z" fill="#FFFAE6"/>
<path d="M25.9736 269.984C25.3052 269.969 24.2549 269.659 24.2618 269.308C24.2686 268.958 25.3052 268.699 26.0009 268.714C27.9343 268.758 27.8593 269.039 27.8525 269.39C27.8457 269.74 27.9105 270.025 25.9736 269.98V269.984Z" fill="#FFEB92"/>
<path d="M26.1915 269.762C25.3935 269.744 24.749 269.545 24.7525 269.323C24.7593 269.098 25.4106 268.932 26.2085 268.95C27.0099 268.969 27.651 269.168 27.6476 269.393C27.6442 269.618 26.9928 269.784 26.1915 269.766V269.762Z" fill="#FFFAE6"/>
<path d="M25.9738 273.011C25.3021 272.889 24.2927 272.306 24.3677 271.819C24.4427 271.331 25.4146 271.686 26.1171 271.808C28.071 272.158 28.0608 271.981 27.9892 272.465C27.9141 272.952 27.9244 273.358 25.9738 273.011Z" fill="#FFEB92"/>
<path d="M26.2401 272.73C25.432 272.586 24.8181 272.217 24.8659 271.903C24.9136 271.59 25.4831 272.014 26.2879 272.158C27.0961 272.302 27.8326 272.114 27.7849 272.428C27.7371 272.742 27.0449 272.878 26.2401 272.73Z" fill="#FFFAE6"/>
<path d="M24.1528 275.665C23.7402 275.174 23.3344 274.152 23.6379 273.852C23.9448 273.55 24.828 274.059 25.2577 274.572C26.4546 275.994 26.1647 276.186 25.8578 276.488C25.5543 276.791 25.3497 277.086 24.1528 275.665Z" fill="#FFEB92"/>
<path d="M24.4867 275.629C23.9922 275.042 23.7501 274.41 23.9479 274.215C24.1457 274.023 24.7049 274.34 25.1994 274.927C25.6938 275.514 25.9359 276.145 25.7382 276.341C25.5404 276.533 24.9811 276.216 24.4867 275.629Z" fill="#FFFAE6"/>
<path d="M21.3018 263.235C20.9608 263.815 20.1595 264.549 19.8423 264.328C19.5252 264.106 19.7946 263.036 20.1527 262.434C21.145 260.758 21.3666 260.998 21.6838 261.219C22.0009 261.441 22.2941 261.559 21.3018 263.235Z" fill="#FFEB92"/>
<path d="M21.2102 262.903C20.7976 263.597 20.3031 264.043 20.0985 263.899C19.8939 263.759 20.061 263.083 20.4736 262.389C20.8862 261.695 21.3841 261.252 21.5853 261.393C21.7899 261.533 21.6228 262.208 21.2102 262.903Z" fill="#FFFAE6"/>
<path d="M13.2137 274.333C13.6843 273.945 14.6221 273.602 14.8574 273.938C15.0893 274.27 14.5539 275.141 14.0662 275.544C12.7022 276.666 12.559 276.352 12.3271 276.02C12.0918 275.684 11.8531 275.455 13.2171 274.333H13.2137Z" fill="#FFEB92"/>
<path d="M13.213 274.676C13.7757 274.215 14.3554 274.012 14.5054 274.226C14.6555 274.44 14.3213 274.994 13.7587 275.455C13.196 275.92 12.6163 276.12 12.4663 275.906C12.3128 275.692 12.6504 275.142 13.213 274.676Z" fill="#FFFAE6"/>
<path d="M11.7437 272.398C12.3882 272.217 13.4794 272.203 13.5612 272.542C13.6431 272.882 12.7121 273.436 12.0369 273.624C10.1648 274.148 10.1683 273.856 10.083 273.517C10.0012 273.177 9.86817 272.922 11.7437 272.395V272.398Z" fill="#FFEB92"/>
<path d="M11.5865 272.679C12.3606 272.461 13.0323 272.461 13.0835 272.679C13.1346 272.897 12.5481 273.248 11.7741 273.469C11 273.687 10.3316 273.687 10.277 273.469C10.2259 273.251 10.809 272.9 11.5831 272.683L11.5865 272.679Z" fill="#FFFAE6"/>
<path d="M17.1386 277.888C17.0943 277.205 17.3296 276.097 17.7047 276.068C18.0798 276.038 18.4549 277.072 18.4992 277.788C18.6254 279.774 18.3185 279.726 17.9434 279.752C17.5683 279.778 17.2682 279.877 17.1386 277.888Z" fill="#FFEB92"/>
<path d="M17.3972 278.094C17.3427 277.275 17.4961 276.592 17.7417 276.577C17.9838 276.559 18.2225 277.208 18.2736 278.028C18.3248 278.847 18.1713 279.53 17.9326 279.545C17.6905 279.564 17.4518 278.914 17.3972 278.094Z" fill="#FFFAE6"/>
</svg>
