<svg width="194" height="1017" viewBox="0 0 194 1017" fill="none" xmlns="http://www.w3.org/2000/svg">
<path d="M149.48 33.0876V26.6357H134.2V33.0876H149.48Z" fill="#231F20"/>
<path d="M96.3298 57.3305C82.0498 57.3305 68.5698 52.0954 58.3498 42.5966C55.1698 39.6314 53.3398 34.9893 53.3398 29.8564C53.3398 24.7236 55.1698 20.0815 58.3498 17.1163C68.5598 7.61749 82.0498 2.39258 96.3298 2.39258C110.61 2.39258 124.09 7.62766 134.31 17.1265C137.49 20.0917 139.32 24.7338 139.32 29.8667C139.32 34.9995 137.49 39.6416 134.31 42.6068C124.1 52.1057 110.61 57.3407 96.3298 57.3407V57.3305Z" fill="#961600"/>
<path d="M96.33 4.79544C110.5 4.79544 123.35 10.1737 132.73 18.9057C138.39 24.1715 138.39 35.5721 132.73 40.8379C123.35 49.5597 110.5 54.9482 96.33 54.9482C82.16 54.9482 69.31 49.5699 59.93 40.8379C54.27 35.5721 54.27 24.1715 59.93 18.9057C69.31 10.184 82.16 4.79544 96.33 4.79544ZM96.33 0C81.47 0 67.42 5.44984 56.78 15.3475C53.11 18.7626 51 24.0488 51 29.8565C51 35.6642 53.11 40.9504 56.78 44.3655C67.43 54.2631 81.47 59.713 96.33 59.713C111.19 59.713 125.24 54.2631 135.88 44.3655C139.55 40.9504 141.66 35.6642 141.66 29.8565C141.66 24.0488 139.55 18.7626 135.88 15.3475C125.23 5.44984 111.19 0 96.33 0Z" fill="#231F20"/>
<path d="M65.5002 24.6825C73.3502 19.6417 79.4402 25.521 85.1202 20.4801C90.8002 15.4393 97.7002 16.1141 100.81 16.9526C103.92 17.791 108.25 22.9954 113.8 23.6703C119.48 24.3553 123.62 19.8156 130.44 24.8462C130.72 25.0507 130.98 25.2551 131.24 25.4699C129.99 23.0773 128.28 20.746 125.93 18.793C121.13 14.7951 117.23 15.7972 114.38 16.5231C113.08 16.8503 111.96 17.1468 110.86 16.9934C108.95 16.7276 107.09 15.2348 105.29 13.7931C103.77 12.5764 102.34 11.4209 100.77 10.9404C98.6702 10.3064 91.3402 8.71137 85.0202 15.0405C83.8602 16.1959 82.6402 16.1652 80.1902 15.9812C77.3002 15.7665 73.6902 15.5006 69.5702 18.4863C66.2102 20.9198 63.7202 24.2633 61.9102 27.5455C62.9902 26.5025 64.1702 25.521 65.5002 24.6723V24.6825Z" fill="#7A1200"/>
<path d="M127.66 35.0507C119.81 40.0915 113.72 34.2122 108.04 39.2531C102.36 44.2939 95.4599 43.6191 92.3499 42.7806C89.2399 41.9422 84.9099 36.7378 79.3599 36.0629C73.6799 35.3779 69.5399 39.9177 62.7199 34.887C62.4399 34.6826 62.1799 34.4781 61.9199 34.2633C63.1699 36.656 64.8799 38.9872 67.2299 40.9402C72.0299 44.9381 75.9299 43.936 78.7799 43.2101C80.0799 42.8829 81.1999 42.5864 82.2999 42.7398C84.2099 43.0056 86.0699 44.4984 87.8699 45.9401C89.3899 47.1569 90.8199 48.3123 92.3899 48.7928C94.4899 49.4268 101.82 51.0218 108.14 44.6927C109.3 43.5373 110.52 43.568 112.97 43.752C115.86 43.9667 119.47 44.2326 123.59 41.2469C126.95 38.8134 129.44 35.4699 131.25 32.1877C130.17 33.2307 128.99 34.2123 127.66 35.0609V35.0507Z" fill="#7A1200"/>
<path d="M66.3944 111.378C69.6275 111.378 70.9849 113.13 70.9849 115.968V124.73C70.9849 127.543 69.6275 129.296 66.3944 129.296H61.8533V111.378H66.3944ZM64.963 126.507H66.1723C67.3076 126.507 67.8752 125.939 67.8752 124.483V116.191C67.8752 114.734 67.3076 114.167 66.1723 114.167H64.963V126.507ZM78.0565 107.256V109.823H75.5391V107.256H78.0565ZM82.4002 107.256V109.823H79.8828V107.256H82.4002ZM83.5601 124.952C83.5601 127.79 82.2027 129.542 78.9697 129.542C75.7613 129.542 74.4285 127.79 74.4285 124.952V115.722C74.4285 112.883 75.7613 111.156 78.9697 111.156C82.2027 111.156 83.5601 112.883 83.5601 115.722V124.952ZM77.5382 124.977C77.5382 126.285 78.0318 126.778 78.9697 126.778C79.9569 126.778 80.4505 126.285 80.4505 124.977V115.722C80.4505 114.438 79.9569 113.92 78.9697 113.92C78.0318 113.92 77.5382 114.438 77.5382 115.722V124.977ZM86.2445 119.276H87.2564V111.378H91.7975C95.0306 111.378 96.388 113.13 96.388 115.968V124.73C96.388 127.543 95.0306 129.296 91.7975 129.296H87.2564V121.744H86.2445V119.276ZM91.5754 126.507C92.7106 126.507 93.2783 125.939 93.2783 124.483V116.191C93.2783 114.734 92.7106 114.167 91.5754 114.167H90.366V119.276H91.6247V121.744H90.366V126.507H91.5754ZM103.188 111.378V126.507H108.124V129.296H100.078V111.378H103.188ZM119.86 124.952C119.86 127.79 118.503 129.542 115.27 129.542C112.061 129.542 110.728 127.79 110.728 124.952V111.378H113.838V124.977C113.838 126.285 114.332 126.778 115.27 126.778C116.257 126.778 116.75 126.285 116.75 124.977V111.378H119.86V124.952ZM127.993 111.378C131.399 111.378 132.805 113.13 132.805 116.659C132.805 119.053 132.262 120.584 130.905 121.423L133.373 129.296H130.041L128.042 122.114H126.783V129.296H123.674V111.378H127.993ZM126.783 119.325H127.746C129.054 119.325 129.696 118.831 129.696 116.684C129.696 114.66 129.054 114.167 127.746 114.167H126.783V119.325Z" fill="#0078AE"/>
<path d="M10.0201 292.669V295.458H5.08408V299.999H9.20564V302.788H5.08408V310.586H1.9744V292.669H10.0201ZM14.3699 306.86L13.7529 310.586H10.7666L14.1972 292.669H17.9979L21.4284 310.586H18.2941L17.6771 306.86H14.3699ZM17.2081 304.071L16.0235 296.914L14.8142 304.071H17.2081ZM24.8674 308.069C25.6819 308.069 26.1014 307.625 26.1014 306.49V292.669H29.2111V306.736C29.2111 309.377 28.1252 310.833 25.1142 310.833H23.7815V308.069H24.8674ZM36.1263 292.669V310.586H33.0413V292.669H36.1263ZM47.9519 292.669V295.458H44.9409V310.586H41.8559V295.458H38.845V292.669H47.9519ZM52.1612 306.86L51.5442 310.586H48.5579L51.9884 292.669H55.7891L59.2197 310.586H56.0853L55.4683 306.86H52.1612ZM54.9994 304.071L53.8147 296.914L52.6054 304.071H54.9994ZM64.2343 306.243C64.2343 307.551 64.7773 308.044 65.7645 308.044C66.7764 308.044 67.344 307.477 67.344 306.169C67.344 304.663 66.1347 303.651 64.9254 302.689C63.2471 301.356 61.3221 299.752 61.3221 296.766C61.3221 294.1 63.1484 292.447 65.7645 292.447C68.8248 292.447 70.2069 294.174 70.2069 297.012V297.852H67.0972V297.012C67.0972 295.729 66.6283 295.211 65.7892 295.211C64.9007 295.211 64.4318 295.754 64.4318 296.766C64.4318 298.271 65.7892 299.382 66.9738 300.295C68.7014 301.628 70.4537 303.158 70.4537 306.144C70.4537 309.106 68.5286 310.833 65.7892 310.833C62.5808 310.833 61.1246 309.081 61.1246 306.243V305.033H64.2343V306.243ZM82.7393 292.669V299.209L86.1205 292.669H89.5757L85.3801 299.777L89.7731 310.586H86.2686L83.5044 302.442L82.7393 303.577V310.586H79.6296V292.669H82.7393ZM92.4482 308.069C93.2626 308.069 93.6822 307.625 93.6822 306.49V292.669H96.7919V306.736C96.7919 309.377 95.706 310.833 92.695 310.833H91.3623V308.069H92.4482ZM105.706 291.213H103.288L104.818 288.152H108.001L105.706 291.213ZM109.63 306.243C109.63 309.081 108.273 310.833 105.04 310.833C101.831 310.833 100.499 309.081 100.499 306.243V292.669H103.608V306.267C103.608 307.575 104.102 308.069 105.04 308.069C106.027 308.069 106.521 307.575 106.521 306.267V292.669H109.63V306.243ZM116.554 292.669V299.209L119.935 292.669H123.39L119.195 299.777L123.588 310.586H120.083L117.319 302.442L116.554 303.577V310.586H113.444V292.669H116.554ZM129.038 292.669V307.798H133.974V310.586H125.929V292.669H129.038ZM140.028 292.669V310.586H136.943V292.669H140.028ZM143.981 310.586V292.669H146.794L150.99 303.577V292.669H153.828V310.586H151.163L146.844 299.752V310.586H143.981ZM166.652 301.257V305.848C166.652 308.982 165.294 310.833 162.061 310.833C158.853 310.833 157.52 309.081 157.52 306.243V297.012C157.52 294.174 158.853 292.447 162.061 292.447C165.294 292.447 166.652 294.174 166.652 297.012V298.172H163.542V297.012C163.542 295.729 163.048 295.211 162.061 295.211C161.123 295.211 160.63 295.729 160.63 297.012V306.267C160.63 307.575 161.123 308.069 162.061 308.069C163.048 308.069 163.665 307.501 163.665 306.021V304.022H162.185V301.257H166.652ZM179.115 306.243C179.115 309.081 177.758 310.833 174.525 310.833C171.316 310.833 169.984 309.081 169.984 306.243V292.669H173.093V306.267C173.093 307.575 173.587 308.069 174.525 308.069C175.512 308.069 176.005 307.575 176.005 306.267V292.669H179.115V306.243ZM187.248 292.669C190.654 292.669 192.061 294.421 192.061 297.95C192.061 300.344 191.518 301.874 190.16 302.714L192.628 310.586H189.296L187.297 303.405H186.039V310.586H182.929V292.669H187.248ZM186.039 300.616H187.001C188.309 300.616 188.951 300.122 188.951 297.975C188.951 295.951 188.309 295.458 187.001 295.458H186.039V300.616Z" fill="#0078AE"/>
<path fill-rule="evenodd" clip-rule="evenodd" d="M114.032 204.143C117.872 205.616 122.102 207.17 124.742 208.253C148.332 217.926 141.722 254.347 116.042 254.347H67.5322C50.5222 254.347 36.7222 240.247 36.7222 222.844C36.7222 205.442 50.5122 191.342 67.5322 191.342C68.8922 191.301 70.3522 191.362 71.9122 191.505C75.9322 189.246 81.1322 187.599 87.6222 186.945C97.0422 185.994 106.282 187.62 110.582 191.679C113.972 194.869 114.822 199.368 114.022 204.133L114.032 204.143Z" fill="#F89A2C"/>
<path fill-rule="evenodd" clip-rule="evenodd" d="M88.8422 205.871C84.0522 202.568 73.8622 204.552 70.9922 211.3C72.3722 196.034 86.3822 195.963 92.1822 201.167L88.8422 205.871Z" fill="white"/>
<path fill-rule="evenodd" clip-rule="evenodd" d="M125.882 205.329C124.102 204.603 121.592 203.642 118.962 202.65C117.402 202.057 115.812 201.454 114.302 200.871C114.302 199.521 114.072 198.243 113.732 197.016L115.912 195.278C117.682 197.374 121.992 198.397 124.692 196.239C128.782 192.977 127.342 184.849 121.002 184.634C122.342 178.295 114.972 174.89 110.892 178.141C108.192 180.289 108.112 184.818 109.672 187.088L106.902 189.297C102.032 187.027 94.9023 186.219 87.6423 186.945C83.7723 187.333 80.3723 188.09 77.3923 189.102C73.6223 188.427 70.3124 188.09 67.5424 188.192C48.8524 188.192 33.6523 203.734 33.6523 222.844C33.6523 241.954 48.8524 257.486 67.5424 257.486H116.052C131.042 257.486 139.822 246.484 141.882 235.594C143.952 224.633 139.812 211.024 125.892 205.319L125.882 205.329ZM135.822 234.408C134.362 242.159 128.302 251.198 116.042 251.198H67.5323C52.2423 251.198 39.8023 238.478 39.8023 222.854C39.8023 207.231 52.2423 194.501 67.6123 194.501C67.6323 194.501 67.6623 194.501 67.6823 194.501C57.5323 203.253 59.2323 216.812 68.3323 221.781C57.2523 202.139 76.6424 192.262 92.0124 193.192C107.382 194.123 118.742 205.871 91.6024 229.47C99.6224 228.989 110.042 217.936 113.282 207.221C114.452 207.671 115.642 208.12 116.812 208.56C119.382 209.532 121.832 210.452 123.582 211.167C134.242 215.533 137.402 225.983 135.812 234.398L135.822 234.408Z" fill="#231F20"/>
<path fill-rule="evenodd" clip-rule="evenodd" d="M146.721 408.778C146.721 415.066 143.921 421.048 139.871 426.395C134.611 433.328 127.161 439.248 121.201 443.256C119.841 444.166 118.711 445.444 117.841 446.845C115.981 449.841 112.891 451.579 109.421 451.579H96.2512C92.7812 451.579 89.6912 449.841 87.8312 446.845C86.9712 445.454 85.8312 444.166 84.4712 443.256C78.5112 439.248 71.0612 433.328 65.8012 426.395C61.7412 421.048 58.9512 415.066 58.9512 408.778C58.9512 390.363 73.7412 382.633 84.6312 376.948C89.4412 374.433 93.2812 372.429 93.3712 371.222L93.6012 368.063H112.081L112.311 371.222C112.401 372.429 116.241 374.443 121.051 376.958C131.931 382.643 146.721 390.373 146.721 408.788V408.778Z" fill="#BA0068"/>
<path fill-rule="evenodd" clip-rule="evenodd" d="M121.041 376.958C116.231 374.443 112.381 372.439 112.301 371.222L112.101 368.472C112.751 363.963 114.661 358.942 117.691 354.678C112.231 354.699 108.991 357.807 107.031 361.396C106.721 357.981 106.911 354.29 107.771 350.711C102.561 352.91 100.761 357.235 100.331 361.427C97.8814 357.265 93.6214 353.482 86.1314 353.451C92.2914 360.67 93.9815 365.097 93.3615 371.212C93.2715 372.418 89.4314 374.423 84.6214 376.938C73.7314 382.623 58.9414 390.353 58.9414 408.768C58.9414 415.056 61.7414 421.037 65.7914 426.385C71.0514 433.318 78.5014 439.238 84.4614 443.246C85.8214 444.156 86.9514 445.434 87.8214 446.835C89.6814 449.831 92.7714 451.569 96.2414 451.569H101.641C102.041 451.589 102.431 451.62 102.831 451.62C103.231 451.62 103.621 451.579 104.021 451.569H109.421C112.891 451.569 115.981 449.831 117.841 446.835C118.701 445.434 119.841 444.156 121.201 443.246C127.161 439.238 134.611 433.318 139.871 426.385C143.921 421.037 146.721 415.056 146.721 408.768C146.721 390.353 131.931 382.623 121.051 376.938L121.041 376.958ZM134.611 422.264C130.891 427.172 125.891 431.528 121.251 434.974C129.701 421.579 133.461 403.543 121.861 394.801C128.161 407.694 123.701 421.15 115.951 431.866C115.541 432.438 112.741 436.436 110.361 439.851C110.091 440.24 109.711 440.812 109.291 441.456C108.061 443.317 106.181 444.34 103.991 444.34H102.751C100.511 444.34 98.5914 443.266 97.3814 441.344C96.5014 439.943 95.4014 438.665 94.4214 437.336C85.2014 424.637 74.9614 412.929 83.8314 394.79C71.1914 402.919 75.6114 421.334 84.3214 434.882C79.7114 431.446 74.7614 427.111 71.0714 422.244C67.8414 417.991 65.6214 413.379 65.6214 408.768C65.6214 394.484 78.3214 387.848 87.6614 382.97C91.4314 380.997 94.7614 379.259 97.0114 377.204C96.8214 377.694 96.6314 378.196 96.4214 378.727C92.6414 388.226 86.6514 411.334 100.541 432.367C96.3114 414.453 96.0315 397.173 102.861 379.893C107.201 390.905 110.271 392.674 114.491 408.768C114.491 391.784 111.501 384.259 109.291 378.727C109.081 378.196 108.891 377.705 108.701 377.204C110.961 379.249 114.281 380.997 118.051 382.97C127.391 387.858 140.091 394.484 140.091 408.768C140.091 413.369 137.871 417.991 134.641 422.244L134.611 422.264Z" fill="#231F20"/>
<path d="M37.0941 474.956C40.9333 474.956 42.519 476.931 42.519 480.909C42.519 483.608 41.907 485.332 40.3769 486.278L43.1589 495.153H39.4032L37.1497 487.057H35.7309V495.153H32.2256V474.956H37.0941ZM35.7309 483.914H36.8159C38.2904 483.914 39.0137 483.357 39.0137 480.937C39.0137 478.656 38.2904 478.099 36.8159 478.099H35.7309V483.914ZM49.2953 490.952L48.5998 495.153H45.2336L49.1006 474.956H53.3849L57.2519 495.153H53.7187L53.0232 490.952H49.2953ZM52.4946 487.808L51.1593 479.741L49.7961 487.808H52.4946ZM70.4716 490.257C70.4716 493.456 68.9415 495.431 65.2971 495.431C61.6805 495.431 60.1782 493.456 60.1782 490.257V474.956H63.6835V490.284C63.6835 491.759 64.2399 492.315 65.2971 492.315C66.4099 492.315 66.9663 491.759 66.9663 490.284V474.956H70.4716V490.257ZM73.63 483.858H74.7706V474.956H79.8895C83.5339 474.956 85.064 476.931 85.064 480.13V490.006C85.064 493.178 83.5339 495.153 79.8895 495.153H74.7706V486.64H73.63V483.858ZM79.6391 492.009C80.9189 492.009 81.5587 491.369 81.5587 489.728V480.38C81.5587 478.739 80.9189 478.099 79.6391 478.099H78.276V483.858H79.6948V486.64H78.276V492.009H79.6391ZM92.7293 474.956V492.009H98.2933V495.153H89.224V474.956H92.7293ZM104.31 490.952L103.615 495.153H100.249L104.116 474.956H108.4L112.267 495.153H108.734L108.038 490.952H104.31ZM107.51 487.808L106.174 479.741L104.811 487.808H107.51ZM125.487 490.257C125.487 493.456 123.957 495.431 120.312 495.431C116.696 495.431 115.193 493.456 115.193 490.257V474.956H118.699V490.284C118.699 491.759 119.255 492.315 120.312 492.315C121.425 492.315 121.981 491.759 121.981 490.284V474.956H125.487V490.257ZM133.291 474.956V482.328L137.102 474.956H140.997L136.268 482.968L141.22 495.153H137.269L134.154 485.972L133.291 487.252V495.153H129.786V474.956H133.291ZM154.013 490.257C154.013 493.456 152.483 495.431 148.839 495.431C145.222 495.431 143.72 493.456 143.72 490.257V474.956H147.225V490.284C147.225 491.759 147.781 492.315 148.839 492.315C149.951 492.315 150.508 491.759 150.508 490.284V474.956H154.013V490.257ZM163.181 474.956C167.02 474.956 168.606 476.931 168.606 480.909C168.606 483.608 167.994 485.332 166.463 486.278L169.245 495.153H165.49L163.236 487.057H161.817V495.153H158.312V474.956H163.181ZM161.817 483.914H162.902C164.377 483.914 165.1 483.357 165.1 480.937C165.1 478.656 164.377 478.099 162.902 478.099H161.817V483.914Z" fill="#0078AE"/>
<path d="M123.13 616.815C114.61 616.815 106.33 615.107 98.5505 611.743C84.7105 605.762 68.7405 605.772 54.9005 611.743L49.9805 613.86V546.877L52.1405 545.947C67.7105 539.209 85.7205 539.209 101.3 545.947C115.11 551.918 131.11 551.918 144.94 545.947L149.86 543.82V610.813L147.701 611.743C139.911 615.107 131.64 616.815 123.12 616.815H123.13Z" fill="#231F20"/>
<path d="M76.7405 600.016C85.2505 600.016 93.5205 601.723 101.311 605.077C114.411 610.742 129.521 611.038 142.791 605.956V554.505C128.491 559.3 112.501 558.646 98.5605 552.613C85.4605 546.949 70.3606 546.652 57.0806 551.734V603.185C63.4006 601.069 69.9905 599.995 76.7405 599.995V600.016Z" fill="#E94E3B"/>
<path d="M101.3 581.028C87.3603 575.005 71.4303 574.422 57.0703 579.208V591.682C100.1 574.269 113.45 603.318 142.78 594.259V581.835C129.5 586.897 114.36 586.672 101.3 581.028Z" fill="#FCD6BF"/>
<path d="M101.3 563.656C87.3603 557.634 71.4303 557.051 57.0703 561.836V574.31C100.1 556.897 113.45 585.946 142.78 576.887V564.464C129.5 569.525 114.36 569.31 101.3 563.656Z" fill="#FCD6BF"/>
<path d="M47.4908 644.472C50.7239 644.472 52.0813 646.299 52.0813 649.137C52.0813 650.865 51.415 652.148 50.329 652.79C51.6371 653.456 52.4515 654.912 52.4515 657.035C52.4515 660.588 51.0694 662.39 47.7623 662.39H42.9744V644.472H47.4908ZM46.0841 651.58H47.0219C48.2559 651.58 48.9716 650.988 48.9716 649.211C48.9716 647.755 48.404 647.089 47.2687 647.089H46.0841V651.58ZM46.0841 659.774H47.2194C48.6508 659.774 49.3418 659.132 49.3418 657.059C49.3418 654.813 48.5768 654.196 47.1206 654.196H46.0841V659.774ZM63.7158 644.472V647.261H59.0266V651.556H62.9014V654.344H59.0266V659.601H63.9626V662.39H55.9169V644.472H63.7158ZM70.2574 644.472V662.39H67.1724V644.472H70.2574ZM77.3197 644.472V651.013L80.7009 644.472H84.1561L79.9605 651.58L84.3535 662.39H80.8489L78.0848 654.246L77.3197 655.381V662.39H74.21V644.472H77.3197ZM95.3384 658.046C95.3384 660.885 93.981 662.637 90.7479 662.637C87.5395 662.637 86.2068 660.885 86.2068 658.046V648.816C86.2068 645.978 87.5395 644.25 90.7479 644.25C93.981 644.25 95.3384 645.978 95.3384 648.816V658.046ZM89.3165 658.071C89.3165 659.379 89.8101 659.873 90.7479 659.873C91.7351 659.873 92.2287 659.379 92.2287 658.071V648.816C92.2287 647.533 91.7351 647.014 90.7479 647.014C89.8101 647.014 89.3165 647.533 89.3165 648.816V658.071ZM99.0346 662.39V644.472H101.848L106.044 655.381V644.472H108.882V662.39H106.217L101.898 651.556V662.39H99.0346ZM115.93 644.472V651.013L119.312 644.472H122.767L118.571 651.58L122.964 662.39H119.46L116.695 654.246L115.93 655.381V662.39H112.821V644.472H115.93ZM134.314 658.046C134.314 660.885 132.956 662.637 129.723 662.637C126.515 662.637 125.182 660.885 125.182 658.046V644.472H128.292V658.071C128.292 659.379 128.785 659.873 129.723 659.873C130.71 659.873 131.204 659.379 131.204 658.071V644.472H134.314V658.046ZM142.446 644.472C145.852 644.472 147.259 646.225 147.259 649.754C147.259 652.148 146.716 653.678 145.359 654.517L147.827 662.39H144.495L142.496 655.208H141.237V662.39H138.127V644.472H142.446ZM141.237 652.419H142.2C143.508 652.419 144.149 651.926 144.149 649.779C144.149 647.755 143.508 647.261 142.2 647.261H141.237V652.419ZM154.011 644.472V659.601H158.947V662.39H150.901V644.472H154.011Z" fill="#0078AE"/>
<path fill-rule="evenodd" clip-rule="evenodd" d="M35.2201 765.184C34.5001 764.478 34.3202 763.364 34.7802 762.494C35.2402 761.615 36.2101 761.267 37.1001 761.646C93.9201 785.838 106.52 738.834 128.4 731.656C137.06 728.814 146.52 734.305 149.54 743.916C160.13 777.637 80.9201 809.6 35.2201 765.184Z" fill="#F90B0B"/>
<path fill-rule="evenodd" clip-rule="evenodd" d="M155.161 738.007C154.441 735.727 153.311 733.713 151.881 732.036C154.351 724.439 153.571 715.819 149.011 708.58L144.261 711.709C147.291 716.525 147.671 722.404 146.071 727.772C143.171 726.576 139.951 726.361 136.851 727.384C136.481 727.506 136.171 727.731 135.821 727.885C132.911 727.404 129.921 727.598 127.131 728.518C119.881 730.901 113.781 736.985 107.331 743.416C95.2407 755.481 81.5308 769.162 55.5008 764.121C50.0608 763.068 44.1907 761.207 38.0507 758.6L37.0208 758.283C34.8608 757.864 32.7008 758.927 31.6508 760.921C30.4908 763.109 30.9207 765.839 32.7007 767.577C43.9707 778.528 57.6508 785.614 73.3608 788.661C100.741 793.968 131.221 785.553 145.821 768.651C150.391 763.365 152.891 757.577 153.311 751.76C155.721 747.537 156.691 742.905 155.151 738.007H155.161ZM140.991 764.275C129.951 777.056 102.911 787.669 74.5607 782.178C62.3607 779.816 51.4907 774.806 42.1807 767.271C46.3707 768.743 50.4208 769.857 54.2908 770.614C83.6108 776.289 99.2607 760.686 111.821 748.14C117.971 742.005 123.281 736.709 129.091 734.797C130.441 734.357 131.821 734.255 133.191 734.326C133.961 735.86 135.321 737.077 137.101 737.424L137.541 737.496C137.181 741.279 139.701 744.776 143.421 745.502C144.211 745.655 144.991 745.666 145.741 745.563C145.921 746.381 146.311 747.097 146.791 747.762C147.751 754.622 144.301 760.44 140.981 764.285L140.991 764.275Z" fill="#231F20"/>
<path fill-rule="evenodd" clip-rule="evenodd" d="M130.639 739.652C120.129 747.975 117.459 750.981 110.039 758.803C119.739 754.263 128.399 750.296 135.269 747.556L130.629 739.652H130.639Z" fill="white"/>
<path d="M39.0201 822.452V825.241H34.0841V829.782H38.2056V832.571H34.0841V840.37H30.9744V822.452H39.0201ZM49.7877 822.452V825.241H45.0985V829.536H48.9733V832.324H45.0985V837.581H50.0345V840.37H41.9888V822.452H49.7877ZM57.5632 822.452C60.9691 822.452 62.3758 824.205 62.3758 827.734C62.3758 830.128 61.8329 831.658 60.4755 832.497L62.9435 840.37H59.6117L57.6126 833.188H56.3539V840.37H53.2442V822.452H57.5632ZM56.3539 830.399H57.3164C58.6245 830.399 59.2662 829.906 59.2662 827.759C59.2662 825.735 58.6245 825.241 57.3164 825.241H56.3539V830.399ZM68.3133 836.026C68.3133 837.334 68.8563 837.828 69.8435 837.828C70.8554 837.828 71.423 837.26 71.423 835.952C71.423 834.447 70.2137 833.435 69.0044 832.473C67.3261 831.14 65.4011 829.536 65.4011 826.549C65.4011 823.884 67.2274 822.23 69.8435 822.23C72.9038 822.23 74.2859 823.958 74.2859 826.796V827.635H71.1762V826.796C71.1762 825.513 70.7073 824.994 69.8682 824.994C68.9797 824.994 68.5108 825.537 68.5108 826.549C68.5108 828.055 69.8682 829.165 71.0528 830.079C72.7804 831.411 74.5327 832.941 74.5327 835.928C74.5327 838.889 72.6076 840.617 69.8682 840.617C66.6598 840.617 65.2036 838.865 65.2036 836.026V834.817H68.3133V836.026ZM80.7688 822.452V828.993L84.15 822.452H87.6052L83.4096 829.56L87.8026 840.37H84.298L81.5339 832.226L80.7688 833.361V840.37H77.6591V822.452H80.7688ZM99.1519 836.026C99.1519 838.865 97.7945 840.617 94.5615 840.617C91.3531 840.617 90.0203 838.865 90.0203 836.026V822.452H93.13V836.051C93.13 837.359 93.6236 837.853 94.5615 837.853C95.5487 837.853 96.0423 837.359 96.0423 836.051V822.452H99.1519V836.026ZM107.285 822.452C110.691 822.452 112.097 824.205 112.097 827.734C112.097 830.128 111.554 831.658 110.197 832.497L112.665 840.37H109.333L107.334 833.188H106.075V840.37H102.966V822.452H107.285ZM106.075 830.399H107.038C108.346 830.399 108.988 829.906 108.988 827.759C108.988 825.735 108.346 825.241 107.038 825.241H106.075V830.399ZM130.674 836.026C130.674 838.865 129.316 840.617 126.083 840.617C122.875 840.617 121.542 838.865 121.542 836.026V826.796C121.542 823.958 122.875 822.23 126.083 822.23C129.316 822.23 130.674 823.958 130.674 826.796V828.45H127.564V826.796C127.564 825.513 127.071 824.994 126.083 824.994C125.146 824.994 124.652 825.513 124.652 826.796V836.051C124.652 837.359 125.146 837.853 126.083 837.853C127.071 837.853 127.564 837.359 127.564 836.051V834.175H130.674V836.026ZM137.142 832.324V840.37H134.033V822.452H137.142V829.536H140.227V822.452H143.337V840.37H140.227V832.324H137.142ZM150.374 822.452V840.37H147.289V822.452H150.374ZM157.436 822.452V837.581H162.372V840.37H154.326V822.452H157.436ZM168.426 822.452V840.37H165.341V822.452H168.426Z" fill="#0078AE"/>
<path d="M66.631 1007.81C67.4454 1007.81 67.865 1007.36 67.865 1006.23V992.408H70.9747V1006.48C70.9747 1009.12 69.8888 1010.57 66.8778 1010.57H65.5451V1007.81H66.631ZM77.1742 1006.6L76.5572 1010.33H73.5709L77.0014 992.408H80.8021L84.2327 1010.33H81.0983L80.4813 1006.6H77.1742ZM80.0124 1003.81L78.8277 996.653L77.6184 1003.81H80.0124ZM90.0618 992.408V1007.54H94.9978V1010.33H86.9521V992.408H90.0618ZM100.336 1006.6L99.7188 1010.33H96.7325L100.163 992.408H103.964L107.394 1010.33H104.26L103.643 1006.6H100.336ZM103.174 1003.81L101.989 996.653L100.78 1003.81H103.174ZM114.433 992.408C117.814 992.408 119.245 994.16 119.245 997.69C119.245 1001.39 117.814 1003.14 114.433 1003.14H113.223V1010.33H110.114V992.408H114.433ZM113.223 1000.35H114.186C115.494 1000.35 116.136 999.861 116.136 997.714C116.136 995.69 115.494 995.197 114.186 995.197H113.223V1000.35ZM130.132 992.408V995.197H125.443V999.491H129.318V1002.28H125.443V1007.54H130.379V1010.33H122.333V992.408H130.132ZM133.589 1010.33V992.408H136.402L140.598 1003.32V992.408H143.436V1010.33H140.771L136.451 999.491V1010.33H133.589ZM156.26 1005.98C156.26 1008.82 154.902 1010.57 151.669 1010.57C148.461 1010.57 147.128 1008.82 147.128 1005.98V996.752C147.128 993.913 148.461 992.186 151.669 992.186C154.902 992.186 156.26 993.913 156.26 996.752V1005.98ZM150.238 1006.01C150.238 1007.31 150.731 1007.81 151.669 1007.81C152.656 1007.81 153.15 1007.31 153.15 1006.01V996.752C153.15 995.468 152.656 994.95 151.669 994.95C150.731 994.95 150.238 995.468 150.238 996.752V1006.01Z" fill="#0078AE"/>
<path d="M138.602 962.236C116.812 972.011 94.5721 964.435 85.4021 943.872C76.2321 923.31 85.9221 900.335 106.032 890.949C126.142 881.562 148.832 886.307 159.602 910.141C168.872 930.662 158.842 953.157 138.602 962.236Z" fill="#465C00"/>
<path d="M137.602 960.048C117.142 969.23 96.2722 962.113 87.6622 942.809C79.0522 923.504 88.1522 901.94 107.032 893.126C125.912 884.313 147.212 888.771 157.312 911.142C166.012 930.406 156.602 951.52 137.602 960.048ZM147.092 915.662C139.942 899.824 124.862 896.674 111.502 902.911C98.1422 909.149 91.7021 924.414 97.8021 938.075C103.902 951.735 118.672 956.776 133.152 950.273C146.602 944.24 153.262 929.291 147.102 915.662H147.092Z" fill="#728B00"/>
<path d="M134.722 953.739C118.122 961.193 101.182 955.416 94.1919 939.752C87.2019 924.088 94.582 906.572 109.912 899.425C125.232 892.278 142.522 895.887 150.722 914.047C157.782 929.68 150.142 946.817 134.722 953.739ZM145.582 916.317C138.862 901.44 124.702 898.485 112.152 904.343C99.602 910.192 93.552 924.537 99.282 937.37C105.012 950.202 118.882 954.926 132.472 948.821C145.102 943.157 151.362 929.118 145.572 916.317H145.582Z" fill="#A0B800"/>
<path d="M150.342 912.687C147.062 906.398 143.162 907.85 143.582 909.814C144.002 911.777 141.622 912.809 139.612 914.118C138.522 914.834 136.852 914.66 135.182 914.139C130.872 911.306 123.822 910.713 118.762 911.685C118.702 911.685 118.642 911.685 118.582 911.685L118.722 911.49C118.632 911.542 118.462 911.613 118.232 911.695C116.062 911.756 113.962 912.063 112.162 912.758C110.172 912.891 108.172 912.799 106.892 912.227C105.092 911.409 103.532 908.893 103.852 906.419C104.162 903.945 100.372 903.331 97.0419 909.578C93.7119 915.836 97.0419 918.372 98.4219 916.93C99.8019 915.488 101.952 916.961 104.132 917.953C105.302 918.484 106.232 920.018 106.852 921.736C106.872 922.083 106.892 922.421 106.932 922.789C107.062 923.852 107.382 924.926 107.742 925.989C107.742 926.01 107.742 926.04 107.742 926.071V926.051C108.352 927.809 109.102 929.547 109.642 931.235C110.692 934.527 111.692 937.564 113.752 940.355C114.492 941.347 115.372 942.144 116.362 942.748C117.272 944.435 117.992 946.173 118.042 947.533C118.112 949.547 116.582 952.083 114.262 952.87C111.952 953.658 113.062 957.42 120.022 957.758C126.982 958.095 127.762 953.923 125.892 953.279C124.022 952.635 124.382 950.018 124.302 947.584C124.262 946.265 125.122 944.537 126.302 943.014C130.392 940.928 134.482 935.723 136.892 930.243C137.542 928.74 138.072 927.237 138.452 925.764C139.572 923.361 141.162 920.693 142.772 919.629C144.422 918.546 147.342 918.586 149.192 920.222C151.042 921.848 153.632 918.955 150.352 912.666L150.342 912.687Z" fill="#E1EF93"/>
<path d="M118.802 911.409L118.732 911.501C118.782 911.46 118.812 911.429 118.802 911.409Z" fill="#E1EF93"/>
<path d="M135.112 921.654C134.442 915.764 125.312 914.251 119.542 915.355C114.402 915.417 109.562 917.083 110.432 923.903C110.712 926.102 111.852 928.31 112.522 930.406C113.332 932.942 114.102 935.273 115.682 937.421C117.942 940.468 122.052 941.102 125.262 939.506C130.512 936.889 135.792 927.564 135.112 921.644V921.654Z" fill="#EFF2BE"/>
<path d="M124.212 936.561C124.092 937.492 122.822 938.105 121.362 937.911C119.902 937.717 118.812 936.807 118.932 935.866C119.052 934.936 120.332 934.332 121.782 934.516C123.242 934.711 124.322 935.621 124.202 936.561H124.212Z" fill="#CDD862"/>
<path d="M114.002 923.627C113.142 923.29 112.872 921.869 113.402 920.478C113.932 919.077 115.052 918.218 115.922 918.556C116.782 918.893 117.052 920.304 116.522 921.715C115.992 923.116 114.862 923.975 114.002 923.637V923.627Z" fill="#CDD862"/>
<path d="M130.232 919.138C131.032 918.658 132.282 919.322 133.022 920.621C133.772 921.919 133.722 923.351 132.932 923.831C132.132 924.312 130.882 923.647 130.142 922.349C129.392 921.05 129.432 919.619 130.232 919.138Z" fill="#CDD862"/>
<path d="M103.802 930.805C105.202 930.519 107.592 930.918 107.802 931.971C108.012 933.024 106.022 934.333 104.552 934.629C100.492 935.458 100.472 934.578 100.262 933.515C100.052 932.462 99.7322 931.634 103.802 930.805Z" fill="#FFEB92"/>
<path d="M103.492 931.582C105.172 931.235 106.632 931.511 106.772 932.186C106.902 932.871 105.652 933.689 103.972 934.036C102.292 934.384 100.822 934.108 100.692 933.433C100.562 932.758 101.812 931.93 103.492 931.582Z" fill="#FFFAE6"/>
<path d="M102.512 923.883C103.942 923.964 106.162 924.915 106.102 925.948C106.052 926.97 103.802 927.676 102.312 927.594C98.1717 927.369 98.3718 926.541 98.4218 925.519C98.4718 924.496 98.3718 923.658 102.502 923.883H102.512Z" fill="#FFEB92"/>
<path d="M102.012 924.517C103.722 924.609 105.082 925.222 105.042 925.877C105.002 926.531 103.592 926.991 101.882 926.899C100.172 926.797 98.8221 926.194 98.8521 925.539C98.8921 924.875 100.302 924.425 102.012 924.517Z" fill="#FFFAE6"/>
<path d="M113.732 907.871C114.972 908.188 116.752 909.405 116.532 910.294C116.312 911.184 114.232 911.409 112.942 911.082C109.362 910.161 109.662 909.476 109.882 908.587C110.102 907.707 110.142 906.951 113.732 907.871Z" fill="#FFEB92"/>
<path d="M113.192 908.342C114.672 908.72 115.762 909.497 115.622 910.07C115.482 910.642 114.162 910.785 112.682 910.407C111.202 910.029 110.112 909.252 110.252 908.689C110.392 908.117 111.702 907.963 113.182 908.342H113.192Z" fill="#FFFAE6"/>
<path d="M109.452 943.658C109.742 942.39 110.912 940.549 111.782 940.754C112.652 940.958 112.912 943.095 112.612 944.414C111.762 948.095 111.082 947.789 110.212 947.574C109.342 947.369 108.612 947.329 109.452 943.658Z" fill="#FFEB92"/>
<path d="M109.922 944.2C110.272 942.676 111.012 941.552 111.572 941.684C112.132 941.817 112.302 943.167 111.952 944.68C111.612 946.204 110.862 947.318 110.312 947.185C109.752 947.053 109.582 945.713 109.932 944.19L109.922 944.2Z" fill="#FFFAE6"/>
<path d="M124.162 906.378C123.992 907.707 123.022 909.721 122.162 909.609C121.292 909.496 120.852 907.349 121.022 905.958C121.502 902.104 122.192 902.329 123.062 902.451C123.932 902.564 124.652 902.513 124.162 906.378Z" fill="#FFEB92"/>
<path d="M123.653 905.877C123.453 907.472 122.833 908.709 122.283 908.637C121.723 908.566 121.433 907.206 121.633 905.611C121.833 904.016 122.443 902.778 123.003 902.86C123.563 902.932 123.853 904.282 123.653 905.877Z" fill="#FFFAE6"/>
<path d="M130.232 907.176C130.062 908.505 128.952 910.509 127.912 910.366C126.862 910.223 126.272 908.065 126.452 906.675C126.932 902.82 127.772 903.065 128.812 903.208C129.852 903.341 130.722 903.311 130.232 907.176Z" fill="#FFEB92"/>
<path d="M129.622 906.654C129.422 908.249 128.712 909.476 128.042 909.384C127.372 909.292 126.992 907.932 127.192 906.337C127.392 904.742 128.092 903.526 128.772 903.607C129.442 903.699 129.822 905.059 129.622 906.654Z" fill="#FFFAE6"/>
<path d="M135.442 912.186C134.282 912.564 132.192 912.38 131.882 911.409C131.572 910.438 133.122 909.057 134.332 908.658C137.692 907.554 137.832 908.382 138.132 909.364C138.442 910.346 138.812 911.092 135.442 912.196V912.186Z" fill="#FFEB92"/>
<path d="M135.612 911.429C134.222 911.889 132.932 911.756 132.732 911.123C132.532 910.489 133.502 909.62 134.902 909.159C136.292 908.71 137.582 908.842 137.772 909.476C137.972 910.11 137.002 910.99 135.612 911.44V911.429Z" fill="#FFFAE6"/>
<path d="M131.182 944.731C130.422 943.76 129.842 941.695 130.622 941.05C131.402 940.417 133.212 941.388 134.012 942.41C136.232 945.232 135.512 945.652 134.732 946.286C133.952 946.93 133.392 947.553 131.182 944.731Z" fill="#FFEB92"/>
<path d="M131.942 944.629C131.022 943.463 130.692 942.185 131.192 941.766C131.692 941.357 132.842 941.97 133.762 943.126C134.672 944.291 135.002 945.57 134.502 945.989C133.992 946.408 132.852 945.795 131.942 944.629Z" fill="#FFFAE6"/>
<path d="M142.402 927.196C141.182 927.124 139.302 926.173 139.362 925.151C139.422 924.128 141.352 923.412 142.622 923.494C146.152 923.709 145.972 924.537 145.912 925.549C145.852 926.582 145.932 927.41 142.402 927.196Z" fill="#FFEB92"/>
<path d="M142.832 926.562C141.362 926.47 140.212 925.866 140.252 925.212C140.292 924.558 141.502 924.098 142.972 924.179C144.422 924.271 145.582 924.875 145.542 925.539C145.502 926.204 144.292 926.664 142.832 926.572V926.562Z" fill="#FFFAE6"/>
<path d="M39.3716 933.299C35.5316 921.316 39.8717 906.428 50.9217 897.512C67.3717 884.23 92.0316 878.095 106.472 893.627C121.612 909.915 128.042 931.796 113.652 947.379C105.842 955.835 91.6416 965.712 78.6916 964.904C70.9216 964.424 63.6516 959.096 57.5216 954.056C50.6416 948.381 42.1716 942.052 39.3816 933.299H39.3716Z" fill="#465C00"/>
<path d="M42.1217 932.624C38.5417 921.418 42.5917 907.522 52.9117 899.189C68.2717 886.786 91.3216 881.05 104.802 895.559C118.942 910.774 124.952 931.223 111.502 945.773C104.202 953.677 90.9417 962.9 78.8417 962.153C71.5817 961.703 64.7816 956.724 59.0716 952.02C52.6416 946.724 44.7317 940.804 42.1217 932.634V932.624ZM64.6717 944.72C68.9417 948.237 74.0316 951.959 79.4516 952.297C88.5016 952.859 98.4217 945.957 103.872 940.047C113.922 929.168 109.432 913.882 98.8617 902.502C88.7817 891.653 71.5516 895.948 60.0616 905.221C52.3416 911.448 49.3217 921.847 51.9917 930.221C53.9417 936.336 59.8617 940.753 64.6717 944.72Z" fill="#728B00"/>
<path d="M48.2916 931.132C45.2716 921.694 48.6916 909.987 57.3816 902.962C70.3216 892.513 89.7415 887.676 101.092 899.905C113.012 912.717 118.062 929.946 106.742 942.205C100.592 948.862 89.4216 956.643 79.2316 955.998C73.1216 955.62 67.3915 951.428 62.5715 947.461C57.1515 942.992 50.4916 938.013 48.2916 931.121V931.132ZM65.3015 943.913C69.4115 947.307 74.3116 950.886 79.5316 951.203C88.2416 951.755 97.7816 945.099 103.032 939.424C112.702 928.954 108.382 914.24 98.2115 903.289C88.5015 892.85 71.9216 896.971 60.8616 905.897C53.4416 911.889 50.5216 921.899 53.1016 929.966C54.9816 935.845 60.6715 940.099 65.3015 943.923V943.913Z" fill="#A0B800"/>
<path d="M53.7716 929.036C54.0916 927.052 56.6716 926.991 59.0116 926.52C61.3516 926.05 65.4416 929.056 67.0716 931.254L67.0916 931.122C69.4016 934.608 72.8816 937.543 76.1816 938.933C77.3616 939.434 78.4816 939.802 79.5716 940.089C79.6216 940.109 79.6516 940.119 79.7116 940.14C83.2416 941.336 85.9916 943.279 86.9516 945.027C87.9216 946.776 87.7116 949.751 86.0116 951.551C84.3116 953.34 86.9916 956.152 93.3216 953.166C99.6416 950.181 98.4616 946.111 96.5116 946.428C94.5716 946.745 93.7017 944.25 92.5317 942.123C91.6117 940.447 92.7216 937.87 93.9816 935.743C94.3416 935.252 94.6616 934.731 94.9616 934.189L94.9716 934.169C97.1616 930.181 97.7017 925.007 96.6717 920.549C96.6317 920.212 96.5216 919.322 96.2416 917.001C95.7916 913.228 96.3316 909.864 97.4516 908.218C98.5816 906.572 101.302 905.488 103.612 906.296C105.922 907.093 107.262 903.412 101.912 898.852C96.5617 894.292 93.4816 897.134 94.5916 898.791C95.7016 900.457 93.8716 902.328 92.4916 904.312C91.4716 905.795 85.3916 908.934 81.2516 910.263C80.1516 910.375 79.0516 910.58 77.9616 910.846C74.6316 911.674 71.4516 913.197 68.9816 915.079C68.9816 915.079 59.9816 919.803 58.0516 920.201C56.1216 920.6 53.4217 919.455 52.2917 917.246C51.1617 915.028 47.7116 916.766 48.5016 923.831C49.2916 930.907 53.4416 931.03 53.7616 929.036H53.7716Z" fill="#E1EF93"/>
<path d="M77.3615 936.264C94.4215 943.462 98.1015 921.581 90.1215 915.365C84.7615 911.183 75.2415 913.718 70.5515 918.074C64.0315 924.138 71.1315 933.636 77.3615 936.264Z" fill="#EFF2BE"/>
<path d="M85.7115 915.896C86.3015 915.16 87.6915 915.344 88.8315 916.295C89.9615 917.246 90.4115 918.616 89.8215 919.342C89.2415 920.068 87.8415 919.894 86.7015 918.933C85.5615 917.982 85.1215 916.612 85.7015 915.886L85.7115 915.896Z" fill="#CDD862"/>
<path d="M87.6514 932.4C88.2014 933.156 87.7014 934.496 86.5214 935.395C85.3414 936.305 83.9414 936.418 83.3814 935.661C82.8314 934.905 83.3314 933.565 84.5114 932.665C85.6914 931.766 87.0914 931.643 87.6414 932.4H87.6514Z" fill="#CDD862"/>
<path d="M71.5615 927.389C70.6415 927.358 69.9216 926.121 69.9616 924.618C70.0016 923.115 70.7816 921.919 71.7116 921.939C72.6316 921.96 73.3515 923.207 73.3015 924.71C73.2615 926.213 72.4815 927.41 71.5615 927.389Z" fill="#CDD862"/>
<path d="M68.2417 908.197C69.2917 909.639 70.3017 912.42 69.4917 913.033C68.6917 913.647 66.4216 911.919 65.3216 910.416C62.2816 906.234 63.0516 905.896 63.8516 905.283C64.6616 904.669 65.2017 904.015 68.2417 908.197Z" fill="#FFEB92"/>
<path d="M67.3816 908.126C68.6316 909.854 69.2415 911.561 68.7115 911.97C68.1915 912.359 66.7616 911.285 65.5016 909.557C64.2416 907.829 63.6516 906.112 64.1616 905.723C64.6816 905.334 66.1116 906.408 67.3716 908.136L67.3816 908.126Z" fill="#FFFAE6"/>
<path d="M77.9215 903.892C78.9715 905.334 80.0815 908.044 79.3915 908.565C78.7115 909.087 76.5414 907.287 75.4514 905.784C72.4114 901.602 73.0715 901.336 73.7615 900.825C74.4415 900.304 74.8915 899.731 77.9215 903.903V903.892Z" fill="#FFEB92"/>
<path d="M77.1418 903.77C78.3918 905.498 79.0617 907.165 78.6217 907.502C78.1817 907.829 76.8117 906.705 75.5517 904.977C74.3017 903.249 73.6417 901.582 74.0817 901.255C74.5217 900.917 75.8918 902.052 77.1518 903.77H77.1418Z" fill="#FFFAE6"/>
<path d="M61.4817 913.198C63.2417 913.167 66.0417 914.087 66.0617 915.283C66.0817 916.48 63.4717 916.101 61.6317 916.142C56.5417 916.234 56.6317 916.653 56.6117 915.457C56.5917 914.261 56.3817 913.29 61.4717 913.198H61.4817Z" fill="#FFEB92"/>
<path d="M60.9316 913.985C63.0316 913.944 64.7516 914.537 64.7616 915.304C64.7716 916.081 63.1616 915.335 61.0516 915.365C58.9516 915.406 57.1616 916.204 57.1416 915.437C57.1316 914.67 58.8217 914.016 60.9217 913.975L60.9316 913.985Z" fill="#FFFAE6"/>
<path d="M101.991 917.512C100.371 918.167 97.4814 918.31 97.0614 917.236C96.6414 916.152 98.8014 914.281 100.481 913.606C105.161 911.725 105.331 912.676 105.741 913.749C106.161 914.833 106.661 915.641 101.991 917.512Z" fill="#FFEB92"/>
<path d="M102.241 916.612C100.311 917.389 98.5213 917.451 98.2513 916.755C97.9913 916.06 99.3413 914.864 101.271 914.087C103.201 913.31 104.991 913.248 105.251 913.944C105.521 914.639 104.171 915.835 102.241 916.612Z" fill="#FFFAE6"/>
<path d="M102.111 923.177C100.151 923.136 97.0714 922.277 97.0914 921.306C97.1114 920.334 100.151 919.618 102.191 919.659C107.861 919.782 107.641 920.559 107.621 921.53C107.601 922.502 107.791 923.289 102.111 923.166V923.177Z" fill="#FFEB92"/>
<path d="M102.751 922.563C100.411 922.512 98.5213 921.96 98.5313 921.346C98.5513 920.722 100.461 920.262 102.801 920.313C105.151 920.365 107.031 920.917 107.021 921.54C107.011 922.164 105.101 922.624 102.751 922.573V922.563Z" fill="#FFFAE6"/>
<path d="M102.112 931.561C100.142 931.224 97.1817 929.608 97.4017 928.258C97.6217 926.909 100.472 927.89 102.532 928.228C108.262 929.199 108.232 928.708 108.022 930.048C107.802 931.397 107.832 932.522 102.112 931.561Z" fill="#FFEB92"/>
<path d="M102.892 930.784C100.522 930.385 98.7216 929.363 98.8616 928.493C99.0016 927.624 100.672 928.8 103.032 929.199C105.402 929.598 107.562 929.076 107.422 929.945C107.282 930.815 105.252 931.193 102.892 930.784Z" fill="#FFFAE6"/>
<path d="M96.7716 938.912C95.5616 937.552 94.3716 934.72 95.2616 933.892C96.1616 933.054 98.7516 934.465 100.012 935.886C103.522 939.822 102.672 940.354 101.772 941.193C100.882 942.031 100.282 942.849 96.7716 938.912Z" fill="#FFEB92"/>
<path d="M97.7515 938.81C96.3015 937.185 95.5916 935.436 96.1716 934.894C96.7516 934.363 98.3915 935.242 99.8415 936.868C101.291 938.493 102.002 940.242 101.422 940.784C100.842 941.315 99.2015 940.436 97.7515 938.81Z" fill="#FFFAE6"/>
<path d="M88.4118 904.486C87.4118 906.091 85.0618 908.126 84.1318 907.512C83.2018 906.899 83.9918 903.934 85.0418 902.267C87.9518 897.625 88.6018 898.289 89.5318 898.903C90.4618 899.516 91.3218 899.844 88.4118 904.486Z" fill="#FFEB92"/>
<path d="M88.142 903.565C86.932 905.487 85.482 906.725 84.882 906.326C84.282 905.937 84.772 904.066 85.982 902.144C87.192 900.222 88.652 898.995 89.242 899.383C89.842 899.772 89.352 901.643 88.142 903.565Z" fill="#FFFAE6"/>
<path d="M64.6917 935.221C66.0717 934.148 68.8217 933.197 69.5117 934.127C70.1917 935.048 68.6217 937.461 67.1917 938.575C63.1917 941.684 62.7717 940.814 62.0917 939.894C61.4017 938.964 60.7017 938.33 64.7017 935.221H64.6917Z" fill="#FFEB92"/>
<path d="M64.6917 936.172C66.3417 934.894 68.0417 934.332 68.4817 934.925C68.9217 935.518 67.9418 937.052 66.2918 938.33C64.6418 939.618 62.9417 940.17 62.5017 939.577C62.0517 938.984 63.0417 937.461 64.6917 936.172Z" fill="#FFFAE6"/>
<path d="M60.3815 929.863C62.2715 929.362 65.4714 929.321 65.7114 930.262C65.9514 931.203 63.2215 932.737 61.2415 933.258C55.7515 934.71 55.7615 933.902 55.5115 932.961C55.2715 932.021 54.8815 931.315 60.3815 929.853V929.863Z" fill="#FFEB92"/>
<path d="M59.9215 930.641C62.1915 930.038 64.1614 930.038 64.3114 930.641C64.4614 931.244 62.7414 932.215 60.4714 932.829C58.2014 933.432 56.2414 933.432 56.0814 932.829C55.9314 932.226 57.6415 931.254 59.9115 930.651L59.9215 930.641Z" fill="#FFFAE6"/>
<path d="M76.2017 945.068C76.0717 943.176 76.7617 940.109 77.8617 940.027C78.9617 939.945 80.0617 942.808 80.1917 944.792C80.5617 950.293 79.6617 950.16 78.5617 950.231C77.4617 950.303 76.5817 950.579 76.2017 945.068Z" fill="#FFEB92"/>
<path d="M76.962 945.64C76.802 943.371 77.252 941.479 77.972 941.438C78.682 941.387 79.382 943.187 79.532 945.456C79.682 947.726 79.232 949.618 78.532 949.659C77.822 949.71 77.122 947.91 76.962 945.64Z" fill="#FFFAE6"/>
</svg>
