<svg width="154" height="970" viewBox="0 0 154 970" fill="none" xmlns="http://www.w3.org/2000/svg">
<path d="M118.983 68.3607V62.8306H105.886V68.3607H118.983Z" fill="#231F20"/>
<path d="M73.4257 89.1404C61.1857 89.1404 49.6314 84.6532 40.8714 76.5113C38.1457 73.9697 36.5771 69.9908 36.5771 65.5912C36.5771 61.1916 38.1457 57.2127 40.8714 54.6711C49.6229 46.5293 61.1857 42.0508 73.4257 42.0508C85.6657 42.0508 97.22 46.538 105.98 54.6799C108.706 57.2215 110.274 61.2004 110.274 65.6C110.274 69.9996 108.706 73.9785 105.98 76.5201C97.2286 84.662 85.6657 89.1492 73.4257 89.1492V89.1404Z" fill="#961600"/>
<path d="M73.4256 44.1104C85.5713 44.1104 96.5856 48.7204 104.626 56.2049C109.477 60.7184 109.477 70.4904 104.626 75.0039C96.5856 82.4797 85.5713 87.0985 73.4256 87.0985C61.2799 87.0985 50.2656 82.4885 42.2256 75.0039C37.3741 70.4904 37.3741 60.7184 42.2256 56.2049C50.2656 48.7291 61.2799 44.1104 73.4256 44.1104ZM73.4256 40C60.6884 40 48.6456 44.6713 39.5256 53.155C36.3799 56.0822 34.5713 60.6132 34.5713 65.5913C34.5713 70.5693 36.3799 75.1004 39.5256 78.0276C48.6541 86.5113 60.6884 91.1825 73.4256 91.1825C86.1627 91.1825 98.2056 86.5113 107.326 78.0276C110.471 75.1004 112.28 70.5693 112.28 65.5913C112.28 60.6132 110.471 56.0822 107.326 53.155C98.197 44.6713 86.1627 40 73.4256 40Z" fill="#231F20"/>
<path d="M47 61.1565C53.7286 56.8358 58.9486 61.8752 63.8171 57.5545C68.6857 53.2338 74.6 53.8122 77.2657 54.5308C79.9314 55.2495 83.6429 59.7105 88.4 60.2889C93.2686 60.8761 96.8171 56.9848 102.663 61.2968C102.903 61.4721 103.126 61.6473 103.349 61.8314C102.277 59.7806 100.811 57.7823 98.7971 56.1084C94.6829 52.6816 91.34 53.5405 88.8971 54.1628C87.7829 54.4432 86.8228 54.6973 85.88 54.5659C84.2428 54.338 82.6486 53.0585 81.1057 51.8228C79.8029 50.7798 78.5771 49.7894 77.2314 49.3775C75.4314 48.8342 69.1486 47.467 63.7314 52.892C62.7371 53.8823 61.6914 53.856 59.5914 53.6982C57.1143 53.5142 54.02 53.2863 50.4886 55.8455C47.6086 57.9313 45.4743 60.7972 43.9229 63.6105C44.8486 62.7165 45.86 61.8752 47 61.1478V61.1565Z" fill="#7A1200"/>
<path d="M100.28 70.0438C93.5512 74.3645 88.3312 69.3251 83.4626 73.6458C78.594 77.9666 72.6797 77.3881 70.014 76.6695C67.3483 75.9508 63.6369 71.4899 58.8797 70.9114C54.0111 70.3242 50.4626 74.2155 44.6169 69.9035C44.3769 69.7283 44.154 69.553 43.9312 69.3689C45.0026 71.4197 46.4683 73.418 48.4826 75.0919C52.5969 78.5187 55.9397 77.6598 58.3826 77.0375C59.4969 76.7571 60.4569 76.503 61.3997 76.6344C63.0369 76.8623 64.6312 78.1419 66.174 79.3776C67.4769 80.4205 68.7026 81.4109 70.0483 81.8228C71.8483 82.3662 78.1312 83.7334 83.5483 78.3084C84.5426 77.318 85.5883 77.3443 87.6883 77.5021C90.1654 77.6861 93.2597 77.914 96.7912 75.3549C99.6712 73.269 101.805 70.4031 103.357 67.5898C102.431 68.4838 101.42 69.3251 100.28 70.0526V70.0438Z" fill="#7A1200"/>
<path d="M48.5155 111.082C51.7486 111.082 53.106 112.835 53.106 115.673V124.434C53.106 127.248 51.7486 129 48.5155 129H43.9744V111.082H48.5155ZM47.0841 126.211H48.2934C49.4287 126.211 49.9963 125.644 49.9963 124.187V115.895C49.9963 114.439 49.4287 113.871 48.2934 113.871H47.0841V126.211ZM60.1776 106.961V109.527H57.6602V106.961H60.1776ZM64.5213 106.961V109.527H62.0039V106.961H64.5213ZM65.6812 124.656C65.6812 127.495 64.3238 129.247 61.0908 129.247C57.8824 129.247 56.5496 127.495 56.5496 124.656V115.426C56.5496 112.588 57.8824 110.86 61.0908 110.86C64.3238 110.86 65.6812 112.588 65.6812 115.426V124.656ZM59.6593 124.681C59.6593 125.989 60.1529 126.483 61.0908 126.483C62.078 126.483 62.5716 125.989 62.5716 124.681V115.426C62.5716 114.143 62.078 113.624 61.0908 113.624C60.1529 113.624 59.6593 114.143 59.6593 115.426V124.681ZM68.3656 118.98H69.3774V111.082H73.9186C77.1516 111.082 78.509 112.835 78.509 115.673V124.434C78.509 127.248 77.1516 129 73.9186 129H69.3774V121.448H68.3656V118.98ZM73.6964 126.211C74.8317 126.211 75.3994 125.644 75.3994 124.187V115.895C75.3994 114.439 74.8317 113.871 73.6964 113.871H72.4871V118.98H73.7458V121.448H72.4871V126.211H73.6964ZM85.3092 111.082V126.211H90.2452V129H82.1995V111.082H85.3092ZM101.981 124.656C101.981 127.495 100.624 129.247 97.3906 129.247C94.1822 129.247 92.8495 127.495 92.8495 124.656V111.082H95.9592V124.681C95.9592 125.989 96.4528 126.483 97.3906 126.483C98.3778 126.483 98.8714 125.989 98.8714 124.681V111.082H101.981V124.656ZM110.114 111.082C113.52 111.082 114.927 112.835 114.927 116.364C114.927 118.758 114.384 120.288 113.026 121.127L115.494 129H112.162L110.163 121.818H108.905V129H105.795V111.082H110.114ZM108.905 119.029H109.867C111.175 119.029 111.817 118.536 111.817 116.389C111.817 114.365 111.175 113.871 109.867 113.871H108.905V119.029Z" fill="#0078AE"/>
<path d="M51.2172 273.082V275.871H46.2812V280.412H50.4028V283.201H46.2812V291H43.1715V273.082H51.2172ZM55.5671 287.273L54.9501 291H51.9638L55.3943 273.082H59.195L62.6255 291H59.4912L58.8742 287.273H55.5671ZM58.4053 284.484L57.2206 277.327L56.0113 284.484H58.4053ZM66.0645 288.483C66.879 288.483 67.2985 288.038 67.2985 286.903V273.082H70.4082V287.15C70.4082 289.791 69.3223 291.247 66.3113 291.247H64.9786V288.483H66.0645ZM77.3234 273.082V291H74.2384V273.082H77.3234ZM89.149 273.082V275.871H86.1381V291H83.0531V275.871H80.0421V273.082H89.149ZM93.3583 287.273L92.7413 291H89.755L93.1856 273.082H96.9863L100.417 291H97.2824L96.6654 287.273H93.3583ZM96.1965 284.484L95.0119 277.327L93.8026 284.484H96.1965ZM105.431 286.656C105.431 287.964 105.974 288.458 106.962 288.458C107.974 288.458 108.541 287.89 108.541 286.582C108.541 285.077 107.332 284.065 106.122 283.102C104.444 281.77 102.519 280.165 102.519 277.179C102.519 274.514 104.346 272.86 106.962 272.86C110.022 272.86 111.404 274.588 111.404 277.426V278.265H108.294V277.426C108.294 276.143 107.825 275.624 106.986 275.624C106.098 275.624 105.629 276.167 105.629 277.179C105.629 278.685 106.986 279.795 108.171 280.708C109.899 282.041 111.651 283.571 111.651 286.558C111.651 289.519 109.726 291.247 106.986 291.247C103.778 291.247 102.322 289.495 102.322 286.656V285.447H105.431V286.656ZM24.0475 303.082V309.623L27.4287 303.082H30.8839L26.6883 310.19L31.0813 321H27.5768L24.8126 312.856L24.0475 313.991V321H20.9378V303.082H24.0475ZM33.7564 318.483C34.5708 318.483 34.9904 318.038 34.9904 316.903V303.082H38.1001V317.15C38.1001 319.791 37.0142 321.247 34.0032 321.247H32.6705V318.483H33.7564ZM47.0144 301.626H44.5957L46.1259 298.566H49.3096L47.0144 301.626ZM50.9385 316.656C50.9385 319.495 49.5811 321.247 46.348 321.247C43.1396 321.247 41.8069 319.495 41.8069 316.656V303.082H44.9166V316.681C44.9166 317.989 45.4102 318.483 46.348 318.483C47.3352 318.483 47.8288 317.989 47.8288 316.681V303.082H50.9385V316.656ZM57.862 303.082V309.623L61.2432 303.082H64.6984L60.5028 310.19L64.8958 321H61.3912L58.6271 312.856L57.862 313.991V321H54.7523V303.082H57.862ZM70.3466 303.082V318.211H75.2826V321H67.2369V303.082H70.3466ZM81.3363 303.082V321H78.2513V303.082H81.3363ZM85.289 321V303.082H88.1025L92.2981 313.991V303.082H95.1363V321H92.4709L88.1519 310.165V321H85.289ZM107.96 311.671V316.261C107.96 319.396 106.603 321.247 103.369 321.247C100.161 321.247 98.8283 319.495 98.8283 316.656V307.426C98.8283 304.588 100.161 302.86 103.369 302.86C106.603 302.86 107.96 304.588 107.96 307.426V308.586H104.85V307.426C104.85 306.143 104.357 305.624 103.369 305.624C102.432 305.624 101.938 306.143 101.938 307.426V316.681C101.938 317.989 102.432 318.483 103.369 318.483C104.357 318.483 104.974 317.915 104.974 316.434V314.435H103.493V311.671H107.96ZM120.423 316.656C120.423 319.495 119.066 321.247 115.833 321.247C112.624 321.247 111.292 319.495 111.292 316.656V303.082H114.401V316.681C114.401 317.989 114.895 318.483 115.833 318.483C116.82 318.483 117.314 317.989 117.314 316.681V303.082H120.423V316.656ZM128.556 303.082C131.962 303.082 133.369 304.835 133.369 308.364C133.369 310.758 132.826 312.288 131.468 313.127L133.936 321H130.605L128.605 313.818H127.347V321H124.237V303.082H128.556ZM127.347 311.029H128.309C129.617 311.029 130.259 310.536 130.259 308.389C130.259 306.365 129.617 305.871 128.309 305.871H127.347V311.029Z" fill="#0078AE"/>
<path fill-rule="evenodd" clip-rule="evenodd" d="M90.1693 208.544C93.1384 209.978 96.409 211.492 98.4503 212.548C116.69 221.969 111.579 257.442 91.7235 257.442H54.2157C41.0637 257.442 30.3936 243.709 30.3936 226.759C30.3936 209.809 41.0559 196.076 54.2157 196.076C55.2673 196.036 56.3961 196.096 57.6023 196.235C60.7106 194.035 64.7312 192.431 69.7492 191.794C77.0327 190.868 84.1771 192.451 87.5018 196.405C90.1229 199.512 90.7801 203.894 90.1616 208.534L90.1693 208.544Z" fill="#F89A2C"/>
<path fill-rule="evenodd" clip-rule="evenodd" d="M70.6922 210.228C66.9886 207.011 59.1097 208.943 56.8906 215.516C57.9576 200.647 68.7901 200.578 73.2746 205.647L70.6922 210.228Z" fill="white"/>
<path fill-rule="evenodd" clip-rule="evenodd" d="M99.3319 209.7C97.9556 208.992 96.0149 208.056 93.9814 207.09C92.7752 206.513 91.5458 205.925 90.3783 205.358C90.3783 204.043 90.2004 202.798 89.9376 201.603L91.6231 199.91C92.9917 201.952 96.3241 202.948 98.4118 200.846C101.574 197.669 100.461 189.752 95.5587 189.543C96.5948 183.369 90.8963 180.052 87.7417 183.219C85.654 185.311 85.5922 189.722 86.7984 191.933L84.6566 194.084C80.8912 191.873 75.3783 191.087 69.7649 191.794C66.7726 192.172 64.1437 192.909 61.8396 193.895C58.9247 193.238 56.3654 192.909 54.2236 193.009C39.7726 193.009 28.02 208.146 28.02 226.759C28.02 245.372 39.7726 260.499 54.2236 260.499H91.7314C103.322 260.499 110.11 249.783 111.703 239.177C113.304 228.502 110.102 215.247 99.3396 209.69L99.3319 209.7ZM107.017 238.022C105.889 245.571 101.203 254.374 91.7236 254.374H54.2159C42.3937 254.374 32.7752 241.986 32.7752 226.769C32.7752 211.552 42.3937 199.153 54.2777 199.153C54.2932 199.153 54.3164 199.153 54.3319 199.153C46.4839 207.678 47.7984 220.883 54.8344 225.723C46.2674 206.592 61.2597 196.972 73.1437 197.879C85.0278 198.785 93.8113 210.227 72.8267 233.212C79.0278 232.744 87.0845 221.979 89.5896 211.542C90.4942 211.98 91.4144 212.418 92.319 212.847C94.3061 213.793 96.2004 214.689 97.5535 215.386C105.796 219.638 108.239 229.816 107.01 238.012L107.017 238.022Z" fill="#231F20"/>
<path fill-rule="evenodd" clip-rule="evenodd" d="M100.618 376.776C100.618 382.166 98.2181 387.293 94.7467 391.877C90.2381 397.819 83.8524 402.893 78.7439 406.329C77.5781 407.109 76.6096 408.204 75.8639 409.405C74.2696 411.973 71.621 413.463 68.6467 413.463H57.3581C54.3839 413.463 51.7353 411.973 50.141 409.405C49.4039 408.213 48.4267 407.109 47.261 406.329C42.1524 402.893 35.7668 397.819 31.2582 391.877C27.7782 387.293 25.3867 382.166 25.3867 376.776C25.3867 360.992 38.0639 354.366 47.3981 349.493C51.521 347.337 54.8124 345.62 54.8896 344.586L55.0867 341.877H70.9267L71.1238 344.586C71.201 345.62 74.4925 347.346 78.6153 349.502C87.941 354.375 100.618 361.001 100.618 376.785V376.776Z" fill="#BA0068"/>
<path fill-rule="evenodd" clip-rule="evenodd" d="M78.607 349.502C74.4842 347.346 71.1842 345.628 71.1156 344.585L70.9442 342.228C71.5013 338.363 73.1384 334.06 75.7356 330.405C71.0556 330.422 68.2784 333.087 66.5984 336.163C66.3327 333.236 66.4956 330.072 67.2327 327.004C62.767 328.889 61.2241 332.596 60.8556 336.189C58.7556 332.622 55.1041 329.379 48.6841 329.353C53.9641 335.541 55.4127 339.336 54.8813 344.576C54.8042 345.611 51.5127 347.328 47.3898 349.484C38.0556 354.357 25.3784 360.983 25.3784 376.767C25.3784 382.157 27.7784 387.284 31.2499 391.868C35.7584 397.81 42.1441 402.884 47.2527 406.32C48.4184 407.1 49.387 408.195 50.1327 409.396C51.727 411.964 54.3756 413.454 57.3498 413.454H61.9784C62.3213 413.471 62.6556 413.498 62.9984 413.498C63.3413 413.498 63.6756 413.463 64.0184 413.454H68.647C71.6213 413.454 74.2699 411.964 75.8642 409.396C76.6013 408.195 77.5784 407.1 78.7441 406.32C83.8527 402.884 90.2384 397.81 94.747 391.868C98.2184 387.284 100.618 382.157 100.618 376.767C100.618 360.983 87.9413 354.357 78.6156 349.484L78.607 349.502ZM90.2385 388.336C87.0499 392.543 82.7641 396.276 78.787 399.23C86.0298 387.749 89.2527 372.289 79.3099 364.795C84.7099 375.847 80.887 387.38 74.2441 396.565C73.8927 397.056 71.4927 400.483 69.4527 403.41C69.2213 403.743 68.8956 404.234 68.5356 404.786C67.4813 406.381 65.8698 407.258 63.9927 407.258H62.9298C61.0098 407.258 59.3641 406.337 58.327 404.69C57.5727 403.489 56.6299 402.393 55.7899 401.254C47.887 390.369 39.1099 380.334 46.7127 364.787C35.8784 371.754 39.667 387.538 47.1327 399.151C43.1813 396.206 38.9384 392.49 35.7756 388.318C33.007 384.672 31.1041 380.72 31.1041 376.767C31.1041 364.524 41.9899 358.836 49.9956 354.655C53.227 352.964 56.0813 351.474 58.0099 349.712C57.847 350.133 57.6842 350.562 57.5042 351.018C54.2642 359.16 49.1299 378.967 61.0356 396.995C57.4099 381.64 57.1699 366.829 63.0242 352.017C66.7442 361.456 69.3756 362.972 72.9927 376.767C72.9927 362.21 70.4299 355.76 68.5356 351.018C68.3556 350.562 68.1927 350.142 68.0299 349.712C69.967 351.465 72.8127 352.964 76.0442 354.655C84.0499 358.844 94.9356 364.524 94.9356 376.767C94.9356 380.711 93.0327 384.672 90.2641 388.318L90.2385 388.336Z" fill="#231F20"/>
<path d="M8.0941 434.521C11.9333 434.521 13.519 436.497 13.519 440.475C13.519 443.173 12.907 444.898 11.3769 445.844L14.1589 454.719H10.4032L8.14974 446.623H6.73092V454.719H3.2256V434.521H8.0941ZM6.73092 443.479H7.8159C9.29036 443.479 10.0137 442.923 10.0137 440.503C10.0137 438.221 9.29036 437.665 7.8159 437.665H6.73092V443.479ZM20.2953 450.518L19.5998 454.719H16.2336L20.1006 434.521H24.3849L28.2519 454.719H24.7187L24.0232 450.518H20.2953ZM23.4946 447.374L22.1593 439.306L20.7961 447.374H23.4946ZM41.4716 449.822C41.4716 453.022 39.9415 454.997 36.2971 454.997C32.6805 454.997 31.1782 453.022 31.1782 449.822V434.521H34.6835V449.85C34.6835 451.325 35.2399 451.881 36.2971 451.881C37.4099 451.881 37.9663 451.325 37.9663 449.85V434.521H41.4716V449.822ZM44.63 443.424H45.7706V434.521H50.8895C54.5339 434.521 56.064 436.497 56.064 439.696V449.572C56.064 452.744 54.5339 454.719 50.8895 454.719H45.7706V446.206H44.63V443.424ZM50.6391 451.575C51.9189 451.575 52.5587 450.935 52.5587 449.294V439.946C52.5587 438.305 51.9189 437.665 50.6391 437.665H49.276V443.424H50.6948V446.206H49.276V451.575H50.6391ZM63.7293 434.521V451.575H69.2933V454.719H60.224V434.521H63.7293ZM75.3105 450.518L74.615 454.719H71.2488L75.1157 434.521H79.4L83.267 454.719H79.7339L79.0384 450.518H75.3105ZM78.5098 447.374L77.1744 439.306L75.8112 447.374H78.5098ZM96.4867 449.822C96.4867 453.022 94.9566 454.997 91.3122 454.997C87.6956 454.997 86.1933 453.022 86.1933 449.822V434.521H89.6986V449.85C89.6986 451.325 90.255 451.881 91.3122 451.881C92.425 451.881 92.9814 451.325 92.9814 449.85V434.521H96.4867V449.822ZM104.291 434.521V441.894L108.102 434.521H111.997L107.268 442.534L112.22 454.719H108.269L105.154 445.538L104.291 446.818V454.719H100.786V434.521H104.291ZM125.013 449.822C125.013 453.022 123.483 454.997 119.839 454.997C116.222 454.997 114.72 453.022 114.72 449.822V434.521H118.225V449.85C118.225 451.325 118.781 451.881 119.839 451.881C120.951 451.881 121.508 451.325 121.508 449.85V434.521H125.013V449.822ZM134.181 434.521C138.02 434.521 139.606 436.497 139.606 440.475C139.606 443.173 138.994 444.898 137.463 445.844L140.245 454.719H136.49L134.236 446.623H132.817V454.719H129.312V434.521H134.181ZM132.817 443.479H133.902C135.377 443.479 136.1 442.923 136.1 440.503C136.1 438.221 135.377 437.665 133.902 437.665H132.817V443.479Z" fill="#0078AE"/>
<path d="M85.3978 561.509C78.0949 561.509 70.9978 560.045 64.3292 557.162C52.4663 552.035 38.7778 552.044 26.9149 557.162L22.6978 558.976V501.562L24.5492 500.765C37.8949 494.989 53.332 494.989 66.6863 500.765C78.5235 505.883 92.2378 505.883 104.092 500.765L108.309 498.942V556.364L106.458 557.162C99.7806 560.045 92.6921 561.509 85.3892 561.509H85.3978Z" fill="#231F20"/>
<path d="M45.6346 547.11C52.9289 547.11 60.0175 548.573 66.6946 551.448C77.9232 556.303 90.8746 556.557 102.249 552.202V508.1C89.9917 512.211 76.286 511.65 64.3375 506.479C53.1089 501.624 40.1661 501.37 28.7832 505.725V549.826C34.2003 548.012 39.8489 547.092 45.6346 547.092V547.11Z" fill="#E94E3B"/>
<path d="M66.6858 530.834C54.7373 525.672 41.083 525.172 28.7744 529.274V539.966C65.6573 525.041 77.1001 549.94 102.24 542.175V531.526C90.8572 535.865 77.8801 535.672 66.6858 530.834Z" fill="#FCD6BF"/>
<path d="M66.6858 515.944C54.7373 510.782 41.083 510.283 28.7744 514.384V525.077C65.6573 510.151 77.1001 535.05 102.24 527.285V516.637C90.8572 520.975 77.8801 520.791 66.6858 515.944Z" fill="#FCD6BF"/>
<path d="M21.4908 585.801C24.7239 585.801 26.0813 587.627 26.0813 590.466C26.0813 592.193 25.415 593.477 24.329 594.118C25.6371 594.785 26.4515 596.241 26.4515 598.363C26.4515 601.917 25.0694 603.719 21.7623 603.719H16.9744V585.801H21.4908ZM20.0841 592.909H21.0219C22.2559 592.909 22.9716 592.317 22.9716 590.54C22.9716 589.084 22.404 588.417 21.2687 588.417H20.0841V592.909ZM20.0841 601.103H21.2194C22.6508 601.103 23.3418 600.461 23.3418 598.388C23.3418 596.142 22.5768 595.525 21.1206 595.525H20.0841V601.103ZM37.7158 585.801V588.59H33.0266V592.884H36.9014V595.673H33.0266V600.93H37.9626V603.719H29.9169V585.801H37.7158ZM44.2574 585.801V603.719H41.1724V585.801H44.2574ZM51.3197 585.801V592.341L54.7009 585.801H58.1561L53.9605 592.909L58.3535 603.719H54.8489L52.0848 595.574L51.3197 596.71V603.719H48.21V585.801H51.3197ZM69.3384 599.375C69.3384 602.213 67.981 603.966 64.7479 603.966C61.5395 603.966 60.2068 602.213 60.2068 599.375V590.145C60.2068 587.307 61.5395 585.579 64.7479 585.579C67.981 585.579 69.3384 587.307 69.3384 590.145V599.375ZM63.3165 599.4C63.3165 600.708 63.8101 601.201 64.7479 601.201C65.7351 601.201 66.2287 600.708 66.2287 599.4V590.145C66.2287 588.861 65.7351 588.343 64.7479 588.343C63.8101 588.343 63.3165 588.861 63.3165 590.145V599.4ZM73.0346 603.719V585.801H75.8482L80.0438 596.71V585.801H82.882V603.719H80.2165L75.8975 592.884V603.719H73.0346ZM89.9304 585.801V592.341L93.3116 585.801H96.7668L92.5712 592.909L96.9642 603.719H93.4596L90.6955 595.574L89.9304 596.71V603.719H86.8207V585.801H89.9304ZM108.314 599.375C108.314 602.213 106.956 603.966 103.723 603.966C100.515 603.966 99.1819 602.213 99.1819 599.375V585.801H102.292V599.4C102.292 600.708 102.785 601.201 103.723 601.201C104.71 601.201 105.204 600.708 105.204 599.4V585.801H108.314V599.375ZM116.446 585.801C119.852 585.801 121.259 587.553 121.259 591.083C121.259 593.477 120.716 595.007 119.359 595.846L121.827 603.719H118.495L116.496 596.537H115.237V603.719H112.127V585.801H116.446ZM115.237 593.748H116.2C117.508 593.748 118.149 593.254 118.149 591.107C118.149 589.084 117.508 588.59 116.2 588.59H115.237V593.748ZM128.011 585.801V600.93H132.947V603.719H124.901V585.801H128.011Z" fill="#0078AE"/>
<path fill-rule="evenodd" clip-rule="evenodd" d="M5.04596 700.665C4.42881 700.06 4.27458 699.105 4.66886 698.36C5.06315 697.606 5.89453 697.308 6.65739 697.632C55.3602 718.368 66.1603 678.08 84.9146 671.927C92.3374 669.491 100.446 674.197 103.035 682.435C112.112 711.339 44.2174 738.736 5.04596 700.665Z" fill="#F90B0B"/>
<path fill-rule="evenodd" clip-rule="evenodd" d="M107.852 677.371C107.235 675.416 106.267 673.69 105.041 672.252C107.158 665.741 106.489 658.352 102.581 652.147L98.5095 654.829C101.107 658.957 101.432 663.997 100.061 668.598C97.5751 667.572 94.8151 667.388 92.158 668.265C91.8409 668.37 91.5751 668.563 91.2751 668.694C88.7808 668.282 86.218 668.449 83.8266 669.238C77.6123 671.28 72.3837 676.494 66.8551 682.007C56.4923 692.349 44.7409 704.075 22.4294 699.754C17.7666 698.852 12.7351 697.256 7.47224 695.022L6.58947 694.75C4.73804 694.391 2.88661 695.302 1.98661 697.011C0.992328 698.887 1.36084 701.227 2.88655 702.716C12.5466 712.103 24.2723 718.176 37.738 720.788C61.2066 725.337 87.3323 718.124 99.8465 703.637C103.764 699.106 105.907 694.145 106.267 689.158C108.332 685.539 109.164 681.569 107.844 677.371H107.852ZM95.7066 699.886C86.2437 710.841 63.0665 719.938 38.7665 715.232C28.3094 713.207 18.9922 708.913 11.0122 702.454C14.6037 703.716 18.0752 704.671 21.3923 705.319C46.5238 710.184 59.938 696.809 70.7037 686.056C75.9751 680.797 80.5266 676.258 85.5066 674.619C86.6637 674.242 87.8465 674.154 89.0208 674.216C89.6808 675.53 90.8466 676.573 92.3723 676.871L92.7495 676.932C92.4409 680.175 94.6009 683.173 97.7895 683.795C98.4666 683.926 99.1352 683.935 99.778 683.847C99.9323 684.548 100.267 685.162 100.678 685.732C101.501 691.612 98.5437 696.599 95.698 699.894L95.7066 699.886Z" fill="#231F20"/>
<path fill-rule="evenodd" clip-rule="evenodd" d="M86.8334 678.78C77.8248 685.914 75.5363 688.491 69.1763 695.195C77.4906 691.304 84.9134 687.904 90.802 685.555L86.8248 678.78H86.8334Z" fill="white"/>
<path d="M10.0201 750.801V753.59H5.08408V758.131H9.20564V760.92H5.08408V768.719H1.9744V750.801H10.0201ZM20.7877 750.801V753.59H16.0985V757.884H19.9733V760.673H16.0985V765.93H21.0345V768.719H12.9888V750.801H20.7877ZM28.5632 750.801C31.9691 750.801 33.3758 752.553 33.3758 756.083C33.3758 758.477 32.8329 760.007 31.4755 760.846L33.9435 768.719H30.6117L28.6126 761.537H27.3539V768.719H24.2442V750.801H28.5632ZM27.3539 758.748H28.3164C29.6245 758.748 30.2662 758.254 30.2662 756.107C30.2662 754.084 29.6245 753.59 28.3164 753.59H27.3539V758.748ZM39.3133 764.375C39.3133 765.683 39.8563 766.177 40.8435 766.177C41.8554 766.177 42.423 765.609 42.423 764.301C42.423 762.796 41.2137 761.784 40.0044 760.821C38.3261 759.488 36.4011 757.884 36.4011 754.898C36.4011 752.233 38.2274 750.579 40.8435 750.579C43.9038 750.579 45.2859 752.307 45.2859 755.145V755.984H42.1762V755.145C42.1762 753.861 41.7073 753.343 40.8682 753.343C39.9797 753.343 39.5108 753.886 39.5108 754.898C39.5108 756.403 40.8682 757.514 42.0528 758.427C43.7804 759.76 45.5327 761.29 45.5327 764.276C45.5327 767.238 43.6076 768.966 40.8682 768.966C37.6598 768.966 36.2036 767.213 36.2036 764.375V763.166H39.3133V764.375ZM51.7688 750.801V757.341L55.15 750.801H58.6052L54.4096 757.909L58.8026 768.719H55.298L52.5339 760.574L51.7688 761.71V768.719H48.6591V750.801H51.7688ZM70.1519 764.375C70.1519 767.213 68.7945 768.966 65.5615 768.966C62.3531 768.966 61.0203 767.213 61.0203 764.375V750.801H64.13V764.4C64.13 765.708 64.6236 766.201 65.5615 766.201C66.5487 766.201 67.0423 765.708 67.0423 764.4V750.801H70.1519V764.375ZM78.2848 750.801C81.6906 750.801 83.0974 752.553 83.0974 756.083C83.0974 758.477 82.5544 760.007 81.197 760.846L83.665 768.719H80.3332L78.3341 761.537H77.0755V768.719H73.9658V750.801H78.2848ZM77.0755 758.748H78.038C79.346 758.748 79.9877 758.254 79.9877 756.107C79.9877 754.084 79.346 753.59 78.038 753.59H77.0755V758.748ZM101.674 764.375C101.674 767.213 100.316 768.966 97.0834 768.966C93.875 768.966 92.5423 767.213 92.5423 764.375V755.145C92.5423 752.307 93.875 750.579 97.0834 750.579C100.316 750.579 101.674 752.307 101.674 755.145V756.798H98.5642V755.145C98.5642 753.861 98.0706 753.343 97.0834 753.343C96.1456 753.343 95.652 753.861 95.652 755.145V764.4C95.652 765.708 96.1456 766.201 97.0834 766.201C98.0706 766.201 98.5642 765.708 98.5642 764.4V762.524H101.674V764.375ZM108.142 760.673V768.719H105.033V750.801H108.142V757.884H111.227V750.801H114.337V768.719H111.227V760.673H108.142ZM121.374 750.801V768.719H118.289V750.801H121.374ZM128.436 750.801V765.93H133.372V768.719H125.326V750.801H128.436ZM139.426 750.801V768.719H136.341V750.801H139.426Z" fill="#0078AE"/>
<path d="M40.3976 923.201C41.212 923.201 41.6316 922.757 41.6316 921.622V907.801H44.7413V921.869C44.7413 924.509 43.6554 925.966 40.6444 925.966H39.3117V923.201H40.3976ZM50.9408 921.992L50.3238 925.719H47.3375L50.768 907.801H54.5688L57.9993 925.719H54.8649L54.2479 921.992H50.9408ZM53.779 919.203L52.5944 912.046L51.385 919.203H53.779ZM63.8284 907.801V922.93H68.7644V925.719H60.7187V907.801H63.8284ZM74.1024 921.992L73.4854 925.719H70.4991L73.9296 907.801H77.7304L81.1609 925.719H78.0265L77.4095 921.992H74.1024ZM76.9406 919.203L75.756 912.046L74.5466 919.203H76.9406ZM88.1993 907.801C91.5805 907.801 93.0119 909.553 93.0119 913.083C93.0119 916.785 91.5805 918.537 88.1993 918.537H86.99V925.719H83.8803V907.801H88.1993ZM86.99 915.748H87.9525C89.2605 915.748 89.9022 915.254 89.9022 913.107C89.9022 911.084 89.2605 910.59 87.9525 910.59H86.99V915.748ZM103.899 907.801V910.59H99.2095V914.884H103.084V917.673H99.2095V922.93H104.145V925.719H96.0998V907.801H103.899ZM107.355 925.719V907.801H110.169L114.364 918.71V907.801H117.203V925.719H114.537L110.218 914.884V925.719H107.355ZM130.026 921.375C130.026 924.213 128.669 925.966 125.436 925.966C122.227 925.966 120.895 924.213 120.895 921.375V912.145C120.895 909.307 122.227 907.579 125.436 907.579C128.669 907.579 130.026 909.307 130.026 912.145V921.375ZM124.004 921.4C124.004 922.708 124.498 923.201 125.436 923.201C126.423 923.201 126.916 922.708 126.916 921.4V912.145C126.916 910.861 126.423 910.343 125.436 910.343C124.498 910.343 124.004 910.861 124.004 912.145V921.4Z" fill="#0078AE"/>
<path d="M102.23 881.395C83.5529 889.774 64.4901 883.28 56.6301 865.655C48.7701 848.03 57.0758 828.337 74.313 820.292C91.5501 812.246 110.999 816.313 120.23 836.742C128.176 854.332 119.579 873.613 102.23 881.395Z" fill="#465C00"/>
<path d="M101.373 879.52C83.8361 887.39 65.9475 881.29 58.5675 864.743C51.1875 848.196 58.9875 829.713 75.1704 822.158C91.3533 814.604 109.61 818.425 118.267 837.601C125.725 854.112 117.659 872.21 101.373 879.52ZM109.507 841.474C103.379 827.899 90.4532 825.199 79.0018 830.546C67.5504 835.892 62.0303 848.977 67.2589 860.685C72.4875 872.394 85.1475 876.715 97.559 871.141C109.088 865.97 114.796 853.157 109.516 841.474H109.507Z" fill="#728B00"/>
<path d="M98.9043 874.112C84.6758 880.501 70.1557 875.55 64.1643 862.123C58.1729 848.696 64.4987 833.683 77.6387 827.557C90.7701 821.431 105.59 824.525 112.619 840.09C118.67 853.49 112.121 868.179 98.9043 874.112ZM108.213 842.036C102.453 829.284 90.3158 826.751 79.5587 831.773C68.8015 836.786 63.6158 849.082 68.5272 860.081C73.4387 871.08 85.3272 875.129 96.9758 869.897C107.801 865.041 113.167 853.008 108.204 842.036H108.213Z" fill="#A0B800"/>
<path d="M112.293 838.924C109.481 833.534 106.138 834.779 106.498 836.462C106.858 838.144 104.818 839.029 103.096 840.151C102.161 840.765 100.73 840.616 99.2984 840.169C95.6042 837.741 89.5614 837.233 85.2242 838.065C85.1728 838.065 85.1213 838.065 85.0699 838.065L85.1899 837.899C85.1128 837.943 84.9671 838.004 84.7699 838.074C82.9099 838.127 81.11 838.39 79.5671 838.986C77.8614 839.1 76.1471 839.021 75.0499 838.53C73.5071 837.829 72.1699 835.673 72.4442 833.552C72.7099 831.431 69.4614 830.905 66.6071 836.26C63.7528 841.624 66.6071 843.797 67.79 842.561C68.9728 841.326 70.8157 842.588 72.6842 843.438C73.6871 843.894 74.4842 845.208 75.0156 846.681C75.0328 846.979 75.0499 847.268 75.0842 847.583C75.1956 848.495 75.4699 849.415 75.7785 850.326C75.7785 850.344 75.7785 850.37 75.7785 850.397V850.379C76.3014 851.886 76.9442 853.376 77.4071 854.822C78.3071 857.644 79.1642 860.247 80.9299 862.64C81.5642 863.49 82.3185 864.174 83.1671 864.691C83.9471 866.137 84.5643 867.627 84.6071 868.792C84.6671 870.519 83.3557 872.692 81.3671 873.367C79.3871 874.042 80.3385 877.267 86.3042 877.557C92.2699 877.846 92.9385 874.27 91.3357 873.718C89.7328 873.166 90.0413 870.922 89.9727 868.836C89.9384 867.706 90.6756 866.225 91.687 864.919C95.1927 863.131 98.6985 858.67 100.764 853.972C101.321 852.684 101.776 851.396 102.101 850.134C103.061 848.074 104.424 845.787 105.804 844.875C107.219 843.946 109.721 843.981 111.307 845.383C112.893 846.777 115.113 844.297 112.301 838.907L112.293 838.924Z" fill="#E1EF93"/>
<path d="M85.2587 837.829L85.1987 837.908C85.2416 837.873 85.2673 837.847 85.2587 837.829Z" fill="#E1EF93"/>
<path d="M99.2388 846.611C98.6645 841.562 90.8388 840.265 85.8931 841.212C81.4874 841.265 77.3387 842.693 78.0845 848.539C78.3245 850.423 79.3017 852.316 79.876 854.113C80.5702 856.286 81.2302 858.284 82.5845 860.125C84.5216 862.737 88.0445 863.28 90.7959 861.913C95.2959 859.669 99.8216 851.676 99.2388 846.602V846.611Z" fill="#EFF2BE"/>
<path d="M89.8958 859.389C89.7929 860.186 88.7044 860.712 87.4529 860.545C86.2015 860.379 85.2672 859.599 85.37 858.793C85.4729 857.995 86.5701 857.478 87.813 857.636C89.0644 857.802 89.9901 858.582 89.8872 859.389H89.8958Z" fill="#CDD862"/>
<path d="M81.145 848.302C80.4078 848.013 80.1764 846.795 80.6307 845.603C81.085 844.402 82.045 843.666 82.7907 843.955C83.5278 844.244 83.7593 845.454 83.305 846.663C82.8507 847.864 81.8821 848.6 81.145 848.311V848.302Z" fill="#CDD862"/>
<path d="M95.0562 844.454C95.7419 844.042 96.8134 844.612 97.4477 845.725C98.0905 846.838 98.0476 848.065 97.3704 848.477C96.6847 848.889 95.6134 848.319 94.9791 847.206C94.3362 846.093 94.3705 844.866 95.0562 844.454Z" fill="#CDD862"/>
<path d="M72.4017 854.455C73.6017 854.209 75.6503 854.551 75.8303 855.454C76.0103 856.356 74.3046 857.478 73.0446 857.732C69.5646 858.442 69.5475 857.689 69.3675 856.777C69.1875 855.874 68.9131 855.164 72.4017 854.455Z" fill="#FFEB92"/>
<path d="M72.136 855.121C73.576 854.823 74.8275 855.059 74.9475 855.638C75.0589 856.225 73.9874 856.926 72.5474 857.224C71.1074 857.522 69.8474 857.286 69.736 856.707C69.6246 856.129 70.696 855.419 72.136 855.121Z" fill="#FFFAE6"/>
<path d="M71.2956 848.521C72.5213 848.591 74.4242 849.406 74.3727 850.291C74.3299 851.168 72.4013 851.772 71.1241 851.702C67.5756 851.509 67.7471 850.8 67.7899 849.923C67.8328 849.047 67.747 848.328 71.287 848.521H71.2956Z" fill="#FFEB92"/>
<path d="M70.8672 849.064C72.3329 849.143 73.4987 849.669 73.4644 850.23C73.4301 850.791 72.2215 851.185 70.7558 851.106C69.2901 851.019 68.1329 850.502 68.1586 849.941C68.1929 849.371 69.4015 848.986 70.8672 849.064Z" fill="#FFFAE6"/>
<path d="M80.9131 834.796C81.9759 835.068 83.5017 836.111 83.3131 836.873C83.1245 837.636 81.3416 837.829 80.2359 837.548C77.1673 836.76 77.4245 836.172 77.6131 835.41C77.8017 834.656 77.8359 834.008 80.9131 834.796Z" fill="#FFEB92"/>
<path d="M80.4498 835.2C81.7183 835.524 82.6527 836.19 82.5327 836.681C82.4127 837.172 81.2812 837.295 80.0126 836.97C78.744 836.646 77.8098 835.98 77.9298 835.498C78.0498 835.007 79.1726 834.876 80.4412 835.2H80.4498Z" fill="#FFFAE6"/>
<path d="M77.2444 865.471C77.493 864.384 78.4959 862.807 79.2416 862.982C79.9873 863.157 80.2102 864.989 79.953 866.12C79.2245 869.275 78.6416 869.012 77.8959 868.828C77.1501 868.653 76.5244 868.618 77.2444 865.471Z" fill="#FFEB92"/>
<path d="M77.6475 865.936C77.9475 864.63 78.5817 863.666 79.0617 863.78C79.5417 863.894 79.6874 865.05 79.3874 866.348C79.096 867.653 78.4531 868.609 77.9817 868.495C77.5017 868.381 77.356 867.233 77.656 865.927L77.6475 865.936Z" fill="#FFFAE6"/>
<path d="M89.8532 833.517C89.7075 834.656 88.876 836.383 88.1389 836.286C87.3932 836.19 87.016 834.349 87.1617 833.157C87.5732 829.853 88.1645 830.046 88.9102 830.151C89.656 830.248 90.2732 830.204 89.8532 833.517Z" fill="#FFEB92"/>
<path d="M89.4165 833.087C89.2451 834.454 88.7137 835.515 88.2422 835.454C87.7622 835.392 87.5136 834.227 87.6851 832.859C87.8565 831.492 88.3793 830.432 88.8593 830.502C89.3393 830.563 89.5879 831.72 89.4165 833.087Z" fill="#FFFAE6"/>
<path d="M95.0561 834.201C94.9104 835.34 93.959 837.058 93.0676 836.935C92.1676 836.812 91.6618 834.963 91.8161 833.771C92.2275 830.467 92.9475 830.677 93.8389 830.8C94.7303 830.914 95.4761 830.888 95.0561 834.201Z" fill="#FFEB92"/>
<path d="M94.5329 833.754C94.3615 835.121 93.7529 836.173 93.1786 836.094C92.6044 836.015 92.2786 834.849 92.45 833.482C92.6214 832.115 93.2215 831.072 93.8043 831.142C94.3786 831.221 94.7043 832.386 94.5329 833.754Z" fill="#FFFAE6"/>
<path d="M99.5213 838.495C98.527 838.819 96.7357 838.662 96.4699 837.829C96.2042 836.996 97.5328 835.813 98.5699 835.471C101.45 834.525 101.57 835.235 101.827 836.076C102.093 836.918 102.41 837.557 99.5213 838.504V838.495Z" fill="#FFEB92"/>
<path d="M99.6672 837.846C98.4758 838.241 97.3701 838.127 97.1987 837.583C97.0272 837.04 97.8587 836.295 99.0587 835.901C100.25 835.515 101.356 835.629 101.519 836.172C101.69 836.716 100.859 837.47 99.6672 837.855V837.846Z" fill="#FFFAE6"/>
<path d="M95.8702 866.391C95.2188 865.558 94.7217 863.788 95.3902 863.236C96.0588 862.693 97.6103 863.525 98.296 864.402C100.199 866.821 99.5817 867.18 98.9131 867.723C98.2445 868.275 97.7645 868.81 95.8702 866.391Z" fill="#FFEB92"/>
<path d="M96.5217 866.303C95.7331 865.304 95.4503 864.209 95.8789 863.849C96.3074 863.499 97.2932 864.025 98.0818 865.015C98.8618 866.014 99.1446 867.11 98.716 867.469C98.2789 867.828 97.3017 867.303 96.5217 866.303Z" fill="#FFFAE6"/>
<path d="M105.487 851.361C104.442 851.299 102.83 850.484 102.882 849.608C102.933 848.731 104.587 848.118 105.676 848.188C108.702 848.372 108.547 849.082 108.496 849.95C108.444 850.835 108.513 851.545 105.487 851.361Z" fill="#FFEB92"/>
<path d="M105.856 850.817C104.596 850.738 103.61 850.221 103.644 849.66C103.679 849.099 104.716 848.705 105.976 848.775C107.219 848.854 108.213 849.371 108.179 849.941C108.144 850.51 107.107 850.905 105.856 850.826V850.817Z" fill="#FFFAE6"/>
<path d="M17.1757 856.592C13.8842 846.321 17.6043 833.56 27.0757 825.918C41.1757 814.533 62.3128 809.275 74.6899 822.587C87.6671 836.549 93.1786 855.304 80.8443 868.66C74.15 875.908 61.9785 884.375 50.8785 883.682C44.2185 883.27 37.9871 878.704 32.7328 874.383C26.8357 869.519 19.5757 864.094 17.1842 856.592H17.1757Z" fill="#465C00"/>
<path d="M19.5329 856.013C16.4643 846.408 19.9358 834.497 28.7815 827.355C41.9472 816.724 61.7042 811.807 73.2585 824.243C85.3785 837.284 90.53 854.813 79.0014 867.284C72.7443 874.059 61.3786 881.964 51.0071 881.324C44.7843 880.938 38.9557 876.67 34.0614 872.639C28.55 868.099 21.77 863.025 19.5329 856.022V856.013ZM38.8615 866.381C42.5215 869.396 46.8843 872.586 51.53 872.875C59.2871 873.358 67.79 867.442 72.4614 862.376C81.0757 853.051 77.2271 839.949 68.1671 830.194C59.5271 820.895 44.7585 824.576 34.91 832.525C28.2928 837.863 25.7043 846.776 27.9929 853.954C29.6643 859.195 34.7386 862.981 38.8615 866.381Z" fill="#728B00"/>
<path d="M24.8212 854.735C22.2327 846.645 25.1641 836.61 32.6126 830.589C43.7041 821.632 60.3498 817.487 70.0783 827.969C80.2955 838.95 84.6241 853.718 74.9212 864.226C69.6498 869.932 60.0755 876.601 51.3412 876.049C46.1041 875.725 41.1926 872.131 37.0612 868.731C32.4155 864.901 26.707 860.633 24.8212 854.726V854.735ZM39.4011 865.69C42.924 868.599 47.1241 871.667 51.5984 871.939C59.0641 872.412 67.2412 866.706 71.7412 861.842C80.0298 852.868 76.3269 840.256 67.6097 830.87C59.2869 821.922 45.0755 825.454 35.5955 833.105C29.2355 838.24 26.7326 846.821 28.944 853.735C30.5555 858.775 35.4326 862.421 39.4011 865.699V865.69Z" fill="#A0B800"/>
<path d="M29.5183 852.938C29.7926 851.238 32.004 851.185 34.0097 850.782C36.0154 850.379 39.5211 852.955 40.9182 854.84L40.9354 854.726C42.9154 857.714 45.8982 860.23 48.7268 861.422C49.7382 861.851 50.6982 862.167 51.6325 862.412C51.6754 862.43 51.7011 862.438 51.7525 862.456C54.7782 863.481 57.1354 865.146 57.9582 866.645C58.7896 868.144 58.6097 870.694 57.1526 872.237C55.6954 873.77 57.9925 876.18 63.4182 873.621C68.8354 871.062 67.824 867.574 66.1526 867.846C64.4897 868.117 63.744 865.979 62.7411 864.156C61.9526 862.719 62.904 860.51 63.984 858.687C64.2925 858.267 64.5668 857.82 64.8239 857.355L64.8325 857.338C66.7097 853.92 67.1726 849.485 66.2897 845.664C66.2554 845.375 66.1611 844.612 65.9211 842.623C65.5354 839.389 65.9982 836.505 66.9582 835.094C67.9268 833.683 70.2582 832.754 72.2382 833.447C74.2182 834.13 75.3669 830.975 70.7811 827.066C66.1954 823.157 63.5554 825.594 64.5068 827.014C65.4582 828.442 63.8897 830.046 62.7068 831.746C61.8325 833.017 56.6211 835.708 53.0725 836.847C52.1297 836.943 51.1868 837.119 50.2525 837.347C47.3982 838.056 44.6725 839.362 42.5554 840.975C42.5554 840.975 34.8411 845.024 33.1868 845.366C31.5325 845.708 29.2183 844.726 28.2497 842.833C27.2811 840.931 24.324 842.421 25.0011 848.477C25.6783 854.542 29.2354 854.647 29.5097 852.938H29.5183Z" fill="#E1EF93"/>
<path d="M49.7382 859.133C64.361 865.303 67.5153 846.548 60.6753 841.22C56.081 837.635 47.921 839.809 43.901 843.542C38.3124 848.739 44.3982 856.881 49.7382 859.133Z" fill="#EFF2BE"/>
<path d="M56.8953 841.676C57.401 841.045 58.5925 841.202 59.5696 842.017C60.5382 842.832 60.9239 844.007 60.4182 844.629C59.921 845.251 58.721 845.102 57.7439 844.279C56.7668 843.463 56.3896 842.289 56.8868 841.667L56.8953 841.676Z" fill="#CDD862"/>
<path d="M58.5584 855.821C59.0298 856.47 58.6012 857.618 57.5898 858.389C56.5784 859.169 55.3784 859.266 54.8984 858.617C54.4269 857.969 54.8555 856.82 55.8669 856.049C56.8784 855.278 58.0784 855.173 58.5498 855.821H58.5584Z" fill="#CDD862"/>
<path d="M44.7668 851.526C43.9782 851.5 43.3611 850.44 43.3954 849.151C43.4297 847.863 44.0983 846.838 44.8954 846.855C45.684 846.873 46.3011 847.942 46.2582 849.23C46.2239 850.519 45.5554 851.544 44.7668 851.526Z" fill="#CDD862"/>
<path d="M41.9212 835.076C42.8212 836.312 43.6869 838.696 42.9926 839.222C42.3069 839.748 40.3612 838.266 39.4183 836.978C36.8126 833.394 37.4726 833.104 38.1583 832.578C38.8526 832.053 39.3155 831.492 41.9212 835.076Z" fill="#FFEB92"/>
<path d="M41.184 835.015C42.2554 836.496 42.7783 837.96 42.324 838.31C41.8783 838.643 40.6526 837.723 39.5726 836.242C38.4926 834.761 37.9869 833.288 38.424 832.955C38.8698 832.622 40.0954 833.542 41.1754 835.024L41.184 835.015Z" fill="#FFFAE6"/>
<path d="M50.2182 831.387C51.1182 832.622 52.0696 834.945 51.4782 835.392C50.8953 835.839 49.0353 834.296 48.101 833.008C45.4953 829.423 46.0611 829.196 46.6525 828.757C47.2353 828.31 47.6211 827.82 50.2182 831.395V831.387Z" fill="#FFEB92"/>
<path d="M49.5499 831.282C50.6213 832.763 51.1956 834.191 50.8184 834.48C50.4413 834.761 49.2669 833.797 48.1869 832.316C47.1155 830.835 46.5498 829.406 46.927 829.126C47.3041 828.836 48.4785 829.809 49.5585 831.282H49.5499Z" fill="#FFFAE6"/>
<path d="M36.1269 839.362C37.6355 839.336 40.0354 840.125 40.0526 841.15C40.0697 842.176 37.8326 841.851 36.2555 841.887C31.8926 841.965 31.9697 842.325 31.9526 841.299C31.9355 840.274 31.7554 839.441 36.1183 839.362H36.1269Z" fill="#FFEB92"/>
<path d="M35.6553 840.037C37.4553 840.002 38.9296 840.51 38.9382 841.168C38.9468 841.834 37.5667 841.194 35.7581 841.22C33.9581 841.255 32.4239 841.939 32.4068 841.282C32.3982 840.624 33.8468 840.063 35.6468 840.028L35.6553 840.037Z" fill="#FFFAE6"/>
<path d="M70.8499 843.061C69.4613 843.622 66.9841 843.744 66.6241 842.824C66.2641 841.895 68.1156 840.291 69.5556 839.713C73.567 838.1 73.7127 838.915 74.0641 839.836C74.4241 840.765 74.8527 841.457 70.8499 843.061Z" fill="#FFEB92"/>
<path d="M71.0637 842.289C69.4094 842.955 67.8751 843.008 67.6437 842.412C67.4208 841.816 68.578 840.79 70.2323 840.124C71.8866 839.458 73.4208 839.406 73.6437 840.002C73.8751 840.598 72.718 841.623 71.0637 842.289Z" fill="#FFFAE6"/>
<path d="M70.9524 847.916C69.2724 847.881 66.6324 847.144 66.6495 846.312C66.6666 845.479 69.2723 844.866 71.0209 844.901C75.8809 845.006 75.6924 845.672 75.6752 846.505C75.6581 847.337 75.8209 848.012 70.9524 847.907V847.916Z" fill="#FFEB92"/>
<path d="M71.5009 847.39C69.4952 847.346 67.8753 846.873 67.8838 846.347C67.901 845.812 69.538 845.418 71.5437 845.462C73.558 845.506 75.1695 845.979 75.161 846.514C75.1524 847.048 73.5152 847.443 71.5009 847.399V847.39Z" fill="#FFFAE6"/>
<path d="M70.9528 855.102C69.2642 854.813 66.7271 853.428 66.9157 852.271C67.1043 851.115 69.5471 851.956 71.3128 852.245C76.2243 853.078 76.1986 852.657 76.0186 853.805C75.83 854.962 75.8557 855.926 70.9528 855.102Z" fill="#FFEB92"/>
<path d="M71.6215 854.436C69.5901 854.095 68.0472 853.218 68.1672 852.473C68.2872 851.728 69.7187 852.736 71.7415 853.078C73.7729 853.42 75.6244 852.973 75.5044 853.718C75.3844 854.463 73.6444 854.787 71.6215 854.436Z" fill="#FFFAE6"/>
<path d="M66.3754 861.403C65.3382 860.238 64.3182 857.81 65.0811 857.1C65.8525 856.382 68.0725 857.591 69.1525 858.809C72.1611 862.183 71.4325 862.639 70.6611 863.358C69.8982 864.076 69.3839 864.778 66.3754 861.403Z" fill="#FFEB92"/>
<path d="M67.2157 861.316C65.9728 859.923 65.3643 858.424 65.8614 857.96C66.3586 857.504 67.7642 858.258 69.0071 859.651C70.2499 861.045 70.8586 862.543 70.3614 863.008C69.8643 863.463 68.4585 862.71 67.2157 861.316Z" fill="#FFFAE6"/>
<path d="M59.2102 831.895C58.353 833.271 56.3387 835.015 55.5416 834.489C54.7444 833.963 55.4216 831.422 56.3216 829.993C58.8159 826.014 59.373 826.584 60.1702 827.11C60.9673 827.635 61.7045 827.916 59.2102 831.895Z" fill="#FFEB92"/>
<path d="M58.9786 831.106C57.9414 832.754 56.6986 833.814 56.1843 833.472C55.67 833.139 56.09 831.535 57.1271 829.888C58.1643 828.24 59.4157 827.188 59.9214 827.521C60.4357 827.855 60.0157 829.458 58.9786 831.106Z" fill="#FFFAE6"/>
<path d="M38.8784 858.24C40.0613 857.319 42.4185 856.504 43.0099 857.302C43.5928 858.091 42.247 860.159 41.0213 861.114C37.5927 863.779 37.2327 863.034 36.6499 862.245C36.0585 861.447 35.4584 860.904 38.887 858.24H38.8784Z" fill="#FFEB92"/>
<path d="M38.8784 859.055C40.2927 857.959 41.7499 857.477 42.127 857.986C42.5042 858.494 41.6642 859.809 40.2499 860.904C38.8357 862.008 37.3785 862.482 37.0013 861.973C36.6156 861.465 37.4641 860.159 38.8784 859.055Z" fill="#FFFAE6"/>
<path d="M35.1839 853.647C36.8039 853.218 39.5467 853.183 39.7524 853.989C39.9581 854.796 37.6181 856.11 35.921 856.557C31.2153 857.802 31.2239 857.109 31.0096 856.303C30.8039 855.497 30.4696 854.892 35.1839 853.639V853.647Z" fill="#FFEB92"/>
<path d="M34.7896 854.314C36.7353 853.797 38.4238 853.797 38.5524 854.314C38.6809 854.831 37.2067 855.663 35.261 856.189C33.3152 856.706 31.6352 856.706 31.4981 856.189C31.3695 855.672 32.8353 854.839 34.781 854.322L34.7896 854.314Z" fill="#FFFAE6"/>
<path d="M48.7444 866.68C48.633 865.058 49.2244 862.429 50.1673 862.359C51.1101 862.289 52.0529 864.743 52.1644 866.443C52.4815 871.158 51.7101 871.044 50.7672 871.105C49.8244 871.167 49.0701 871.403 48.7444 866.68Z" fill="#FFEB92"/>
<path d="M49.3958 867.17C49.2587 865.225 49.6444 863.603 50.2616 863.568C50.8701 863.524 51.4702 865.067 51.5988 867.013C51.7273 868.958 51.3416 870.58 50.7416 870.615C50.133 870.658 49.533 869.116 49.3958 867.17Z" fill="#FFFAE6"/>
</svg>
