<svg width="194" height="1038" viewBox="0 0 194 1038" fill="none" xmlns="http://www.w3.org/2000/svg">
<path d="M62.631 1007.36C63.4454 1007.36 63.865 1006.92 63.865 1005.78V991.961H66.9747V1006.03C66.9747 1008.67 65.8888 1010.13 62.8778 1010.13H61.5451V1007.36H62.631ZM73.1742 1006.15L72.5572 1009.88H69.5709L73.0014 991.961H76.8021L80.2327 1009.88H77.0983L76.4813 1006.15H73.1742ZM76.0124 1003.36L74.8277 996.206L73.6184 1003.36H76.0124ZM86.0618 991.961V1007.09H90.9978V1009.88H82.9521V991.961H86.0618ZM96.3358 1006.15L95.7188 1009.88H92.7325L96.163 991.961H99.9637L103.394 1009.88H100.26L99.6429 1006.15H96.3358ZM99.174 1003.36L97.9893 996.206L96.78 1003.36H99.174ZM110.433 991.961C113.814 991.961 115.245 993.714 115.245 997.243C115.245 1000.94 113.814 1002.7 110.433 1002.7H109.223V1009.88H106.114V991.961H110.433ZM109.223 999.908H110.186C111.494 999.908 112.136 999.415 112.136 997.267C112.136 995.244 111.494 994.75 110.186 994.75H109.223V999.908ZM126.132 991.961V994.75H121.443V999.044H125.318V1001.83H121.443V1007.09H126.379V1009.88H118.333V991.961H126.132ZM129.589 1009.88V991.961H132.402L136.598 1002.87V991.961H139.436V1009.88H136.771L132.451 999.044V1009.88H129.589ZM152.26 1005.54C152.26 1008.37 150.902 1010.13 147.669 1010.13C144.461 1010.13 143.128 1008.37 143.128 1005.54V996.305C143.128 993.467 144.461 991.739 147.669 991.739C150.902 991.739 152.26 993.467 152.26 996.305V1005.54ZM146.238 1005.56C146.238 1006.87 146.731 1007.36 147.669 1007.36C148.656 1007.36 149.15 1006.87 149.15 1005.56V996.305C149.15 995.022 148.656 994.503 147.669 994.503C146.731 994.503 146.238 995.022 146.238 996.305V1005.56Z" fill="#0078AE"/>
<path d="M134.602 961.789C112.812 971.564 90.5721 963.988 81.4021 943.426C72.2321 922.864 81.9221 899.888 102.032 890.502C122.142 881.116 144.832 885.86 155.602 909.694C164.872 930.215 154.842 952.71 134.602 961.789Z" fill="#465C00"/>
<path d="M133.602 959.601C113.142 968.783 92.2722 961.666 83.6622 942.362C75.0522 923.057 84.1522 901.493 103.032 892.68C121.912 883.866 143.212 888.324 153.312 910.696C162.012 929.959 152.602 951.074 133.602 959.601ZM143.092 915.215C135.942 899.377 120.862 896.228 107.502 902.465C94.1422 908.702 87.7021 923.967 93.8021 937.628C99.9021 951.288 114.672 956.329 129.152 949.826C142.602 943.793 149.262 928.845 143.102 915.215H143.092Z" fill="#728B00"/>
<path d="M130.722 953.293C114.122 960.747 97.1819 954.97 90.1919 939.305C83.2019 923.641 90.582 906.126 105.912 898.978C121.232 891.831 138.522 895.441 146.722 913.6C153.782 929.234 146.142 946.37 130.722 953.293ZM141.582 915.87C134.862 900.993 120.702 898.038 108.152 903.897C95.602 909.745 89.552 924.091 95.282 936.923C101.012 949.755 114.882 954.479 128.472 948.375C141.102 942.71 147.362 928.671 141.572 915.87H141.582Z" fill="#A0B800"/>
<path d="M146.342 912.24C143.062 905.952 139.162 907.404 139.582 909.367C140.002 911.33 137.622 912.363 135.612 913.671C134.522 914.387 132.852 914.213 131.182 913.692C126.872 910.86 119.822 910.267 114.762 911.238C114.702 911.238 114.642 911.238 114.582 911.238L114.722 911.044C114.632 911.095 114.462 911.166 114.232 911.248C112.062 911.309 109.962 911.616 108.162 912.312C106.172 912.444 104.172 912.352 102.892 911.78C101.092 910.962 99.5318 908.447 99.8518 905.972C100.162 903.498 96.3719 902.884 93.0419 909.132C89.7119 915.389 93.0419 917.925 94.4219 916.483C95.8019 915.042 97.9518 916.514 100.132 917.506C101.302 918.037 102.232 919.571 102.852 921.289C102.872 921.637 102.892 921.974 102.932 922.342C103.062 923.405 103.382 924.479 103.742 925.542C103.742 925.563 103.742 925.594 103.742 925.624V925.604C104.352 927.362 105.102 929.101 105.642 930.788C106.692 934.08 107.692 937.117 109.752 939.908C110.492 940.9 111.372 941.698 112.362 942.301C113.272 943.988 113.992 945.726 114.042 947.086C114.112 949.1 112.582 951.636 110.262 952.424C107.952 953.211 109.062 956.974 116.022 957.311C122.982 957.648 123.762 953.477 121.892 952.832C120.022 952.188 120.382 949.571 120.302 947.137C120.262 945.818 121.122 944.09 122.302 942.567C126.392 940.481 130.482 935.276 132.892 929.796C133.542 928.293 134.072 926.79 134.452 925.318C135.572 922.915 137.162 920.246 138.772 919.183C140.422 918.099 143.342 918.14 145.192 919.776C147.042 921.401 149.632 918.508 146.352 912.22L146.342 912.24Z" fill="#E1EF93"/>
<path d="M114.802 910.962L114.732 911.054C114.782 911.013 114.812 910.982 114.802 910.962Z" fill="#E1EF93"/>
<path d="M131.112 921.207C130.442 915.318 121.312 913.804 115.542 914.909C110.402 914.97 105.562 916.637 106.432 923.457C106.712 925.655 107.852 927.863 108.522 929.96C109.332 932.495 110.102 934.827 111.682 936.974C113.942 940.021 118.052 940.655 121.262 939.06C126.512 936.442 131.792 927.117 131.112 921.197V921.207Z" fill="#EFF2BE"/>
<path d="M120.212 936.115C120.092 937.045 118.822 937.659 117.362 937.464C115.902 937.27 114.812 936.36 114.932 935.419C115.052 934.489 116.332 933.886 117.782 934.07C119.242 934.264 120.322 935.174 120.202 936.115H120.212Z" fill="#CDD862"/>
<path d="M110.002 923.18C109.142 922.843 108.872 921.422 109.402 920.031C109.932 918.63 111.052 917.772 111.922 918.109C112.782 918.446 113.052 919.857 112.522 921.268C111.992 922.669 110.862 923.528 110.002 923.191V923.18Z" fill="#CDD862"/>
<path d="M126.232 918.692C127.032 918.211 128.282 918.875 129.022 920.174C129.772 921.473 129.722 922.904 128.932 923.385C128.132 923.865 126.882 923.201 126.142 921.902C125.392 920.603 125.432 919.172 126.232 918.692Z" fill="#CDD862"/>
<path d="M99.8022 930.359C101.202 930.072 103.592 930.471 103.802 931.524C104.012 932.577 102.022 933.886 100.552 934.183C96.4922 935.011 96.4723 934.132 96.2623 933.068C96.0523 932.015 95.7322 931.187 99.8022 930.359Z" fill="#FFEB92"/>
<path d="M99.4924 931.135C101.172 930.788 102.632 931.064 102.772 931.739C102.902 932.424 101.652 933.242 99.9724 933.589C98.2924 933.937 96.8224 933.661 96.6924 932.986C96.5624 932.311 97.8124 931.483 99.4924 931.135Z" fill="#FFFAE6"/>
<path d="M98.5118 923.436C99.9418 923.518 102.162 924.468 102.102 925.501C102.052 926.524 99.8017 927.229 98.3117 927.147C94.1717 926.922 94.3718 926.094 94.4218 925.072C94.4718 924.049 94.3718 923.211 98.5018 923.436H98.5118Z" fill="#FFEB92"/>
<path d="M98.0121 924.07C99.7221 924.162 101.082 924.776 101.042 925.43C101.002 926.084 99.5921 926.544 97.8821 926.452C96.1721 926.35 94.8221 925.747 94.8521 925.093C94.8921 924.428 96.3021 923.978 98.0121 924.07Z" fill="#FFFAE6"/>
<path d="M109.732 907.424C110.972 907.741 112.752 908.958 112.532 909.847C112.312 910.737 110.232 910.962 108.942 910.635C105.362 909.714 105.662 909.029 105.882 908.14C106.102 907.261 106.142 906.504 109.732 907.424Z" fill="#FFEB92"/>
<path d="M109.192 907.895C110.672 908.273 111.762 909.05 111.622 909.623C111.482 910.195 110.162 910.338 108.682 909.96C107.202 909.582 106.112 908.805 106.252 908.242C106.392 907.67 107.702 907.516 109.182 907.895H109.192Z" fill="#FFFAE6"/>
<path d="M105.452 943.211C105.742 941.943 106.912 940.103 107.782 940.307C108.652 940.512 108.912 942.649 108.612 943.968C107.762 947.649 107.082 947.342 106.212 947.127C105.342 946.923 104.612 946.882 105.452 943.211Z" fill="#FFEB92"/>
<path d="M105.922 943.753C106.272 942.23 107.012 941.105 107.572 941.238C108.132 941.371 108.302 942.72 107.952 944.234C107.612 945.757 106.862 946.872 106.312 946.739C105.752 946.606 105.582 945.266 105.932 943.743L105.922 943.753Z" fill="#FFFAE6"/>
<path d="M120.162 905.931C119.992 907.26 119.022 909.274 118.162 909.162C117.292 909.049 116.852 906.902 117.022 905.512C117.502 901.657 118.192 901.882 119.062 902.005C119.932 902.117 120.652 902.066 120.162 905.931Z" fill="#FFEB92"/>
<path d="M119.653 905.43C119.453 907.025 118.833 908.262 118.283 908.191C117.723 908.119 117.433 906.759 117.633 905.164C117.833 903.569 118.443 902.332 119.003 902.414C119.563 902.485 119.853 903.835 119.653 905.43Z" fill="#FFFAE6"/>
<path d="M126.232 906.729C126.062 908.058 124.952 910.062 123.912 909.919C122.862 909.776 122.272 907.618 122.452 906.228C122.932 902.373 123.772 902.618 124.812 902.762C125.852 902.894 126.722 902.864 126.232 906.729Z" fill="#FFEB92"/>
<path d="M125.622 906.208C125.422 907.803 124.712 909.03 124.042 908.938C123.372 908.846 122.992 907.486 123.192 905.891C123.392 904.296 124.092 903.079 124.772 903.161C125.442 903.253 125.822 904.613 125.622 906.208Z" fill="#FFFAE6"/>
<path d="M131.442 911.739C130.282 912.117 128.192 911.933 127.882 910.962C127.572 909.991 129.122 908.61 130.332 908.212C133.692 907.107 133.832 907.936 134.132 908.917C134.442 909.899 134.812 910.645 131.442 911.749V911.739Z" fill="#FFEB92"/>
<path d="M131.612 910.983C130.222 911.443 128.932 911.31 128.732 910.676C128.532 910.042 129.502 909.173 130.902 908.713C132.292 908.263 133.582 908.396 133.772 909.03C133.972 909.664 133.002 910.543 131.612 910.993V910.983Z" fill="#FFFAE6"/>
<path d="M127.182 944.285C126.422 943.313 125.842 941.248 126.622 940.604C127.402 939.97 129.212 940.941 130.012 941.964C132.232 944.786 131.512 945.205 130.732 945.839C129.952 946.483 129.392 947.107 127.182 944.285Z" fill="#FFEB92"/>
<path d="M127.942 944.182C127.022 943.017 126.692 941.738 127.192 941.319C127.692 940.91 128.842 941.524 129.762 942.679C130.672 943.845 131.002 945.123 130.502 945.542C129.992 945.961 128.852 945.348 127.942 944.182Z" fill="#FFFAE6"/>
<path d="M138.402 926.749C137.182 926.677 135.302 925.726 135.362 924.704C135.422 923.681 137.352 922.966 138.622 923.047C142.152 923.262 141.972 924.09 141.912 925.103C141.852 926.135 141.932 926.963 138.402 926.749Z" fill="#FFEB92"/>
<path d="M138.832 926.115C137.362 926.023 136.212 925.42 136.252 924.765C136.292 924.111 137.502 923.651 138.972 923.733C140.422 923.825 141.582 924.428 141.542 925.092C141.502 925.757 140.292 926.217 138.832 926.125V926.115Z" fill="#FFFAE6"/>
<path d="M35.3716 932.852C31.5316 920.869 35.8717 905.982 46.9217 897.066C63.3717 883.783 88.0316 877.649 102.472 893.18C117.612 909.468 124.042 931.349 109.652 946.932C101.842 955.388 87.6416 965.265 74.6916 964.457C66.9216 963.977 59.6516 958.65 53.5216 953.609C46.6416 947.934 38.1716 941.605 35.3816 932.852H35.3716Z" fill="#465C00"/>
<path d="M38.1217 932.177C34.5417 920.971 38.5917 907.075 48.9117 898.742C64.2717 886.339 87.3216 880.603 100.802 895.112C114.942 910.327 120.952 930.776 107.502 945.326C100.202 953.23 86.9417 962.453 74.8417 961.707C67.5817 961.257 60.7816 956.277 55.0716 951.574C48.6416 946.277 40.7317 940.357 38.1217 932.187V932.177ZM60.6717 944.273C64.9417 947.79 70.0316 951.512 75.4516 951.85C84.5016 952.412 94.4217 945.51 99.8717 939.6C109.922 928.721 105.432 913.435 94.8617 902.055C84.7817 891.206 67.5516 895.501 56.0616 904.775C48.3416 911.002 45.3217 921.4 47.9917 929.774C49.9417 935.889 55.8617 940.306 60.6717 944.273Z" fill="#728B00"/>
<path d="M44.2916 930.685C41.2716 921.247 44.6916 909.54 53.3816 902.516C66.3216 892.066 85.7415 887.229 97.0915 899.458C109.012 912.27 114.062 929.499 102.742 941.758C96.5916 948.415 85.4216 956.196 75.2316 955.552C69.1216 955.173 63.3915 950.981 58.5715 947.014C53.1515 942.546 46.4916 937.566 44.2916 930.675V930.685ZM61.3015 943.466C65.4115 946.861 70.3116 950.439 75.5316 950.756C84.2416 951.308 93.7816 944.652 99.0316 938.977C108.702 928.507 104.382 913.794 94.2115 902.843C84.5015 892.403 67.9216 896.524 56.8616 905.45C49.4416 911.442 46.5216 921.452 49.1016 929.519C50.9816 935.399 56.6715 939.652 61.3015 943.476V943.466Z" fill="#A0B800"/>
<path d="M49.7716 928.589C50.0916 926.605 52.6716 926.544 55.0116 926.074C57.3516 925.603 61.4416 928.609 63.0716 930.808L63.0916 930.675C65.4016 934.161 68.8816 937.096 72.1816 938.487C73.3616 938.988 74.4816 939.356 75.5716 939.642C75.6216 939.662 75.6516 939.673 75.7116 939.693C79.2416 940.889 81.9916 942.832 82.9516 944.581C83.9216 946.329 83.7116 949.304 82.0116 951.104C80.3116 952.893 82.9916 955.705 89.3216 952.719C95.6416 949.734 94.4616 945.664 92.5116 945.981C90.5716 946.298 89.7017 943.803 88.5317 941.677C87.6117 940 88.7216 937.423 89.9816 935.296C90.3416 934.806 90.6616 934.284 90.9616 933.742L90.9716 933.722C93.1616 929.734 93.7017 924.56 92.6717 920.102C92.6317 919.765 92.5216 918.875 92.2416 916.554C91.7916 912.781 92.3316 909.417 93.4516 907.771C94.5816 906.125 97.3016 905.041 99.6116 905.849C101.922 906.646 103.262 902.966 97.9117 898.405C92.5617 893.845 89.4816 896.687 90.5916 898.344C91.7016 900.011 89.8716 901.882 88.4916 903.865C87.4716 905.348 81.3916 908.487 77.2516 909.816C76.1516 909.929 75.0516 910.133 73.9616 910.399C70.6316 911.227 67.4516 912.751 64.9816 914.632C64.9816 914.632 55.9816 919.356 54.0516 919.755C52.1216 920.153 49.4217 919.008 48.2917 916.8C47.1617 914.581 43.7116 916.319 44.5016 923.384C45.2916 930.46 49.4416 930.583 49.7616 928.589H49.7716Z" fill="#E1EF93"/>
<path d="M73.3615 935.817C90.4215 943.016 94.1015 921.135 86.1215 914.918C80.7615 910.736 71.2415 913.272 66.5515 917.627C60.0315 923.691 67.1315 933.19 73.3615 935.817Z" fill="#EFF2BE"/>
<path d="M81.7115 915.45C82.3015 914.713 83.6915 914.897 84.8315 915.848C85.9615 916.799 86.4115 918.169 85.8215 918.895C85.2415 919.621 83.8415 919.448 82.7015 918.486C81.5615 917.536 81.1215 916.165 81.7015 915.439L81.7115 915.45Z" fill="#CDD862"/>
<path d="M83.6514 931.953C84.2014 932.709 83.7014 934.049 82.5214 934.949C81.3414 935.859 79.9414 935.971 79.3814 935.215C78.8314 934.458 79.3314 933.118 80.5114 932.219C81.6914 931.319 83.0914 931.196 83.6414 931.953H83.6514Z" fill="#CDD862"/>
<path d="M67.5615 926.942C66.6415 926.912 65.9216 925.674 65.9616 924.171C66.0016 922.668 66.7816 921.472 67.7116 921.492C68.6316 921.513 69.3515 922.76 69.3015 924.263C69.2615 925.766 68.4815 926.963 67.5615 926.942Z" fill="#CDD862"/>
<path d="M64.2417 907.75C65.2917 909.192 66.3017 911.973 65.4917 912.587C64.6917 913.2 62.4216 911.472 61.3216 909.969C58.2816 905.787 59.0516 905.45 59.8516 904.836C60.6616 904.223 61.2017 903.568 64.2417 907.75Z" fill="#FFEB92"/>
<path d="M63.3816 907.679C64.6316 909.407 65.2415 911.115 64.7115 911.524C64.1915 911.912 62.7616 910.839 61.5016 909.111C60.2416 907.383 59.6516 905.665 60.1616 905.276C60.6816 904.888 62.1116 905.961 63.3716 907.689L63.3816 907.679Z" fill="#FFFAE6"/>
<path d="M73.9215 903.446C74.9715 904.887 76.0815 907.597 75.3915 908.118C74.7115 908.64 72.5414 906.84 71.4514 905.337C68.4114 901.155 69.0715 900.889 69.7615 900.378C70.4415 899.857 70.8915 899.284 73.9215 903.456V903.446Z" fill="#FFEB92"/>
<path d="M73.1418 903.323C74.3918 905.051 75.0617 906.718 74.6217 907.055C74.1817 907.382 72.8117 906.258 71.5517 904.53C70.3017 902.802 69.6417 901.135 70.0817 900.808C70.5217 900.471 71.8918 901.605 73.1518 903.323H73.1418Z" fill="#FFFAE6"/>
<path d="M57.4817 912.751C59.2417 912.72 62.0417 913.64 62.0617 914.837C62.0817 916.033 59.4717 915.655 57.6317 915.695C52.5417 915.788 52.6317 916.207 52.6117 915.01C52.5917 913.814 52.3817 912.843 57.4717 912.751H57.4817Z" fill="#FFEB92"/>
<path d="M56.9316 913.538C59.0316 913.497 60.7516 914.09 60.7616 914.857C60.7716 915.634 59.1616 914.888 57.0516 914.918C54.9516 914.959 53.1616 915.757 53.1416 914.99C53.1316 914.223 54.8217 913.569 56.9217 913.528L56.9316 913.538Z" fill="#FFFAE6"/>
<path d="M97.9914 917.065C96.3714 917.72 93.4814 917.863 93.0614 916.789C92.6414 915.705 94.8014 913.834 96.4814 913.16C101.161 911.278 101.331 912.229 101.741 913.303C102.161 914.387 102.661 915.194 97.9914 917.065Z" fill="#FFEB92"/>
<path d="M98.2413 916.166C96.3113 916.943 94.5213 917.004 94.2513 916.309C93.9913 915.613 95.3413 914.417 97.2713 913.64C99.2013 912.863 100.991 912.802 101.251 913.497C101.521 914.192 100.171 915.388 98.2413 916.166Z" fill="#FFFAE6"/>
<path d="M98.1114 922.73C96.1514 922.689 93.0714 921.83 93.0914 920.859C93.1114 919.887 96.1514 919.172 98.1914 919.213C103.861 919.335 103.641 920.112 103.621 921.084C103.601 922.055 103.791 922.842 98.1114 922.72V922.73Z" fill="#FFEB92"/>
<path d="M98.7513 922.116C96.4113 922.065 94.5213 921.513 94.5313 920.899C94.5513 920.276 96.4612 919.816 98.8012 919.867C101.151 919.918 103.031 920.47 103.021 921.094C103.011 921.717 101.101 922.178 98.7513 922.126V922.116Z" fill="#FFFAE6"/>
<path d="M98.1117 931.114C96.1417 930.777 93.1817 929.161 93.4017 927.812C93.6217 926.462 96.4717 927.444 98.5317 927.781C104.262 928.752 104.232 928.262 104.022 929.601C103.802 930.951 103.832 932.075 98.1117 931.114Z" fill="#FFEB92"/>
<path d="M98.8917 930.337C96.5217 929.938 94.7216 928.916 94.8616 928.047C95.0016 927.178 96.6717 928.353 99.0317 928.752C101.402 929.151 103.562 928.63 103.422 929.499C103.282 930.368 101.252 930.746 98.8917 930.337Z" fill="#FFFAE6"/>
<path d="M92.7716 938.466C91.5616 937.106 90.3716 934.273 91.2616 933.445C92.1616 932.607 94.7516 934.018 96.0116 935.439C99.5216 939.376 98.6716 939.907 97.7716 940.746C96.8816 941.584 96.2816 942.402 92.7716 938.466Z" fill="#FFEB92"/>
<path d="M93.7515 938.364C92.3015 936.738 91.5916 934.989 92.1716 934.448C92.7516 933.916 94.3915 934.795 95.8415 936.421C97.2915 938.047 98.0016 939.795 97.4216 940.337C96.8416 940.869 95.2015 939.989 93.7515 938.364Z" fill="#FFFAE6"/>
<path d="M84.4118 904.039C83.4118 905.644 81.0618 907.679 80.1318 907.066C79.2018 906.452 79.9918 903.487 81.0418 901.82C83.9518 897.178 84.6018 897.843 85.5318 898.456C86.4618 899.07 87.3218 899.397 84.4118 904.039Z" fill="#FFEB92"/>
<path d="M84.142 903.118C82.932 905.041 81.482 906.278 80.882 905.879C80.282 905.491 80.772 903.619 81.982 901.697C83.192 899.775 84.652 898.548 85.242 898.937C85.842 899.325 85.352 901.196 84.142 903.118Z" fill="#FFFAE6"/>
<path d="M60.6917 934.775C62.0717 933.701 64.8217 932.75 65.5117 933.681C66.1917 934.601 64.6217 937.014 63.1917 938.128C59.1917 941.237 58.7717 940.368 58.0917 939.447C57.4017 938.517 56.7017 937.883 60.7017 934.775H60.6917Z" fill="#FFEB92"/>
<path d="M60.6917 935.725C62.3417 934.447 64.0417 933.885 64.4817 934.478C64.9217 935.071 63.9418 936.605 62.2918 937.883C60.6418 939.171 58.9417 939.723 58.5017 939.13C58.0517 938.537 59.0417 937.014 60.6917 935.725Z" fill="#FFFAE6"/>
<path d="M56.3815 929.417C58.2715 928.916 61.4714 928.875 61.7114 929.815C61.9514 930.756 59.2215 932.29 57.2415 932.811C51.7515 934.263 51.7615 933.455 51.5115 932.515C51.2715 931.574 50.8815 930.869 56.3815 929.406V929.417Z" fill="#FFEB92"/>
<path d="M55.9215 930.194C58.1915 929.591 60.1614 929.591 60.3114 930.194C60.4614 930.797 58.7414 931.769 56.4714 932.382C54.2014 932.985 52.2414 932.985 52.0814 932.382C51.9314 931.779 53.6415 930.808 55.9115 930.204L55.9215 930.194Z" fill="#FFFAE6"/>
<path d="M72.2017 944.621C72.0717 942.73 72.7617 939.662 73.8617 939.58C74.9617 939.499 76.0617 942.361 76.1917 944.345C76.5617 949.846 75.6617 949.713 74.5617 949.785C73.4617 949.856 72.5817 950.132 72.2017 944.621Z" fill="#FFEB92"/>
<path d="M72.962 945.194C72.802 942.924 73.252 941.032 73.972 940.991C74.682 940.94 75.382 942.74 75.532 945.01C75.682 947.28 75.232 949.171 74.532 949.212C73.822 949.263 73.122 947.464 72.962 945.194Z" fill="#FFFAE6"/>
<path fill-rule="evenodd" clip-rule="evenodd" d="M31.2201 769.603C30.5001 768.898 30.3202 767.783 30.7802 766.914C31.2402 766.035 32.2101 765.687 33.1001 766.066C89.9201 790.258 102.52 743.254 124.4 736.076C133.06 733.234 142.52 738.724 145.54 748.336C156.13 782.057 76.9201 814.02 31.2201 769.603Z" fill="#F90B0B"/>
<path fill-rule="evenodd" clip-rule="evenodd" d="M151.161 742.427C150.441 740.147 149.311 738.133 147.881 736.456C150.351 728.859 149.571 720.239 145.011 713L140.261 716.129C143.291 720.945 143.671 726.824 142.071 732.192C139.171 730.996 135.951 730.781 132.851 731.803C132.481 731.926 132.171 732.151 131.821 732.304C128.911 731.824 125.921 732.018 123.131 732.938C115.881 735.321 109.781 741.405 103.331 747.836C91.2407 759.901 77.5308 773.582 51.5008 768.541C46.0608 767.488 40.1907 765.627 34.0507 763.02L33.0208 762.703C30.8608 762.284 28.7008 763.347 27.6508 765.341C26.4908 767.529 26.9207 770.259 28.7007 771.997C39.9707 782.948 53.6508 790.034 69.3608 793.081C96.7408 798.387 127.221 789.972 141.821 773.071C146.391 767.785 148.891 761.997 149.311 756.179C151.721 751.957 152.691 747.325 151.151 742.427H151.161ZM136.991 768.695C125.951 781.476 98.9107 792.089 70.5607 786.598C58.3607 784.236 47.4907 779.226 38.1807 771.69C42.3707 773.163 46.4208 774.277 50.2908 775.034C79.6108 780.709 95.2607 765.106 107.821 752.56C113.971 746.425 119.281 741.128 125.091 739.216C126.441 738.777 127.821 738.675 129.191 738.746C129.961 740.28 131.321 741.497 133.101 741.844L133.541 741.916C133.181 745.699 135.701 749.196 139.421 749.922C140.211 750.075 140.991 750.085 141.741 749.983C141.921 750.801 142.311 751.517 142.791 752.182C143.751 759.042 140.301 764.86 136.981 768.705L136.991 768.695Z" fill="#231F20"/>
<path fill-rule="evenodd" clip-rule="evenodd" d="M126.639 744.072C116.129 752.395 113.459 755.401 106.039 763.223C115.739 758.683 124.399 754.716 131.269 751.976L126.629 744.072H126.639Z" fill="white"/>
<path d="M35.0201 826.872V829.661H30.0841V834.202H34.2056V836.991H30.0841V844.79H26.9744V826.872H35.0201ZM45.7877 826.872V829.661H41.0985V833.956H44.9733V836.744H41.0985V842.001H46.0345V844.79H37.9888V826.872H45.7877ZM53.5632 826.872C56.9691 826.872 58.3758 828.625 58.3758 832.154C58.3758 834.548 57.8329 836.078 56.4755 836.917L58.9435 844.79H55.6117L53.6126 837.608H52.3539V844.79H49.2442V826.872H53.5632ZM52.3539 834.819H53.3164C54.6245 834.819 55.2662 834.326 55.2662 832.179C55.2662 830.155 54.6245 829.661 53.3164 829.661H52.3539V834.819ZM64.3133 840.446C64.3133 841.754 64.8563 842.248 65.8435 842.248C66.8554 842.248 67.423 841.68 67.423 840.372C67.423 838.867 66.2137 837.855 65.0044 836.892C63.3261 835.56 61.4011 833.956 61.4011 830.969C61.4011 828.304 63.2274 826.65 65.8435 826.65C68.9038 826.65 70.2859 828.378 70.2859 831.216V832.055H67.1762V831.216C67.1762 829.933 66.7073 829.414 65.8682 829.414C64.9797 829.414 64.5108 829.957 64.5108 830.969C64.5108 832.475 65.8682 833.585 67.0528 834.498C68.7804 835.831 70.5327 837.361 70.5327 840.348C70.5327 843.309 68.6076 845.037 65.8682 845.037C62.6598 845.037 61.2036 843.285 61.2036 840.446V839.237H64.3133V840.446ZM76.7688 826.872V833.413L80.15 826.872H83.6052L79.4096 833.98L83.8026 844.79H80.298L77.5339 836.646L76.7688 837.781V844.79H73.6591V826.872H76.7688ZM95.1519 840.446C95.1519 843.285 93.7945 845.037 90.5615 845.037C87.3531 845.037 86.0203 843.285 86.0203 840.446V826.872H89.13V840.471C89.13 841.779 89.6236 842.273 90.5615 842.273C91.5487 842.273 92.0423 841.779 92.0423 840.471V826.872H95.1519V840.446ZM103.285 826.872C106.691 826.872 108.097 828.625 108.097 832.154C108.097 834.548 107.554 836.078 106.197 836.917L108.665 844.79H105.333L103.334 837.608H102.075V844.79H98.9658V826.872H103.285ZM102.075 834.819H103.038C104.346 834.819 104.988 834.326 104.988 832.179C104.988 830.155 104.346 829.661 103.038 829.661H102.075V834.819ZM126.674 840.446C126.674 843.285 125.316 845.037 122.083 845.037C118.875 845.037 117.542 843.285 117.542 840.446V831.216C117.542 828.378 118.875 826.65 122.083 826.65C125.316 826.65 126.674 828.378 126.674 831.216V832.87H123.564V831.216C123.564 829.933 123.071 829.414 122.083 829.414C121.146 829.414 120.652 829.933 120.652 831.216V840.471C120.652 841.779 121.146 842.273 122.083 842.273C123.071 842.273 123.564 841.779 123.564 840.471V838.595H126.674V840.446ZM133.142 836.744V844.79H130.033V826.872H133.142V833.956H136.227V826.872H139.337V844.79H136.227V836.744H133.142ZM146.374 826.872V844.79H143.289V826.872H146.374ZM153.436 826.872V842.001H158.372V844.79H150.326V826.872H153.436ZM164.426 826.872V844.79H161.341V826.872H164.426Z" fill="#0078AE"/>
<path d="M119.13 623.922C110.61 623.922 102.33 622.214 94.5505 618.85C80.7105 612.869 64.7405 612.879 50.9005 618.85L45.9805 620.967V553.984L48.1405 553.054C63.7105 546.315 81.7205 546.315 97.3005 553.054C111.11 559.025 127.11 559.025 140.94 553.054L145.86 550.927V617.92L143.701 618.85C135.911 622.214 127.64 623.922 119.12 623.922H119.13Z" fill="#231F20"/>
<path d="M72.7405 607.123C81.2505 607.123 89.5205 608.83 97.3105 612.184C110.411 617.848 125.521 618.145 138.791 613.063V561.612C124.491 566.407 108.501 565.753 94.5605 559.72C81.4605 554.056 66.3606 553.759 53.0806 558.841V610.292C59.4006 608.176 65.9905 607.102 72.7405 607.102V607.123Z" fill="#E94E3B"/>
<path d="M97.3003 588.135C83.3603 582.112 67.4303 581.529 53.0703 586.315V598.789C96.1003 581.376 109.45 610.425 138.78 601.365V588.942C125.5 594.004 110.36 593.779 97.3003 588.135Z" fill="#FCD6BF"/>
<path d="M97.3003 570.763C83.3603 564.741 67.4303 564.158 53.0703 568.943V581.417C96.1003 564.004 109.45 593.053 138.78 583.994V571.571C125.5 576.632 110.36 576.417 97.3003 570.763Z" fill="#FCD6BF"/>
<path d="M43.4908 651.579C46.7239 651.579 48.0813 653.406 48.0813 656.244C48.0813 657.972 47.415 659.255 46.329 659.897C47.6371 660.563 48.4515 662.019 48.4515 664.142C48.4515 667.695 47.0694 669.497 43.7623 669.497H38.9744V651.579H43.4908ZM42.0841 658.687H43.0219C44.2559 658.687 44.9716 658.095 44.9716 656.318C44.9716 654.862 44.404 654.195 43.2687 654.195H42.0841V658.687ZM42.0841 666.881H43.2194C44.6508 666.881 45.3418 666.239 45.3418 664.166C45.3418 661.92 44.5768 661.303 43.1206 661.303H42.0841V666.881ZM59.7158 651.579V654.368H55.0266V658.663H58.9014V661.451H55.0266V666.708H59.9626V669.497H51.9169V651.579H59.7158ZM66.2574 651.579V669.497H63.1724V651.579H66.2574ZM73.3197 651.579V658.12L76.7009 651.579H80.1561L75.9605 658.687L80.3535 669.497H76.8489L74.0848 661.353L73.3197 662.488V669.497H70.21V651.579H73.3197ZM91.3384 665.153C91.3384 667.992 89.981 669.744 86.7479 669.744C83.5395 669.744 82.2068 667.992 82.2068 665.153V655.923C82.2068 653.085 83.5395 651.357 86.7479 651.357C89.981 651.357 91.3384 653.085 91.3384 655.923V665.153ZM85.3165 665.178C85.3165 666.486 85.8101 666.98 86.7479 666.98C87.7351 666.98 88.2287 666.486 88.2287 665.178V655.923C88.2287 654.64 87.7351 654.121 86.7479 654.121C85.8101 654.121 85.3165 654.64 85.3165 655.923V665.178ZM95.0346 669.497V651.579H97.8482L102.044 662.488V651.579H104.882V669.497H102.217L97.8975 658.663V669.497H95.0346ZM111.93 651.579V658.12L115.312 651.579H118.767L114.571 658.687L118.964 669.497H115.46L112.695 661.353L111.93 662.488V669.497H108.821V651.579H111.93ZM130.314 665.153C130.314 667.992 128.956 669.744 125.723 669.744C122.515 669.744 121.182 667.992 121.182 665.153V651.579H124.292V665.178C124.292 666.486 124.785 666.98 125.723 666.98C126.71 666.98 127.204 666.486 127.204 665.178V651.579H130.314V665.153ZM138.446 651.579C141.852 651.579 143.259 653.332 143.259 656.861C143.259 659.255 142.716 660.785 141.359 661.624L143.827 669.497H140.495L138.496 662.315H137.237V669.497H134.127V651.579H138.446ZM137.237 659.526H138.2C139.508 659.526 140.149 659.033 140.149 656.886C140.149 654.862 139.508 654.368 138.2 654.368H137.237V659.526ZM150.011 651.579V666.708H154.947V669.497H146.901V651.579H150.011Z" fill="#0078AE"/>
<path fill-rule="evenodd" clip-rule="evenodd" d="M142.721 420.067C142.721 426.355 139.921 432.337 135.871 437.684C130.611 444.617 123.161 450.537 117.201 454.545C115.841 455.455 114.711 456.733 113.841 458.134C111.981 461.13 108.891 462.868 105.421 462.868H92.2512C88.7812 462.868 85.6912 461.13 83.8312 458.134C82.9712 456.743 81.8312 455.455 80.4712 454.545C74.5112 450.537 67.0612 444.617 61.8012 437.684C57.7412 432.337 54.9512 426.355 54.9512 420.067C54.9512 401.652 69.7412 393.922 80.6312 388.237C85.4412 385.722 89.2812 383.718 89.3712 382.511L89.6012 379.352H108.081L108.311 382.511C108.401 383.718 112.241 385.732 117.051 388.247C127.931 393.932 142.721 401.662 142.721 420.077V420.067Z" fill="#BA0068"/>
<path fill-rule="evenodd" clip-rule="evenodd" d="M117.041 388.247C112.231 385.732 108.381 383.728 108.301 382.511L108.101 379.761C108.751 375.251 110.661 370.231 113.691 365.967C108.231 365.988 104.991 369.096 103.031 372.685C102.721 369.27 102.911 365.579 103.771 362C98.5614 364.198 96.7614 368.523 96.3314 372.716C93.8814 368.554 89.6214 364.771 82.1314 364.74C88.2914 371.959 89.9815 376.386 89.3615 382.501C89.2715 383.707 85.4314 385.711 80.6214 388.227C69.7314 393.912 54.9414 401.642 54.9414 420.056C54.9414 426.345 57.7414 432.326 61.7914 437.674C67.0514 444.606 74.5014 450.526 80.4614 454.535C81.8214 455.445 82.9514 456.723 83.8214 458.124C85.6814 461.119 88.7714 462.858 92.2414 462.858H97.6414C98.0414 462.878 98.4314 462.909 98.8314 462.909C99.2314 462.909 99.6214 462.868 100.021 462.858H105.421C108.891 462.858 111.981 461.119 113.841 458.124C114.701 456.723 115.841 455.445 117.201 454.535C123.161 450.526 130.611 444.606 135.871 437.674C139.921 432.326 142.721 426.345 142.721 420.056C142.721 401.642 127.931 393.912 117.051 388.227L117.041 388.247ZM130.611 433.553C126.891 438.461 121.891 442.817 117.251 446.263C125.701 432.868 129.461 414.832 117.861 406.089C124.161 418.983 119.701 432.439 111.951 443.154C111.541 443.727 108.741 447.725 106.361 451.14C106.091 451.529 105.711 452.101 105.291 452.745C104.061 454.606 102.181 455.629 99.9914 455.629H98.7514C96.5114 455.629 94.5914 454.555 93.3814 452.633C92.5014 451.232 91.4014 449.954 90.4214 448.625C81.2014 435.925 70.9614 424.218 79.8314 406.079C67.1914 414.208 71.6114 432.623 80.3214 446.171C75.7114 442.735 70.7614 438.4 67.0714 433.533C63.8414 429.279 61.6214 424.668 61.6214 420.056C61.6214 405.772 74.3214 399.137 83.6614 394.259C87.4314 392.286 90.7614 390.548 93.0114 388.492C92.8214 388.983 92.6314 389.484 92.4214 390.016C88.6414 399.515 82.6514 422.623 96.5414 443.655C92.3114 425.742 92.0315 408.462 98.8615 391.182C103.201 402.194 106.271 403.963 110.491 420.056C110.491 403.073 107.501 395.548 105.291 390.016C105.081 389.484 104.891 388.993 104.701 388.492C106.961 390.537 110.281 392.286 114.051 394.259C123.391 399.147 136.091 405.772 136.091 420.056C136.091 424.658 133.871 429.279 130.641 433.533L130.611 433.553Z" fill="#231F20"/>
<path d="M33.0941 486.244C36.9333 486.244 38.519 488.22 38.519 492.198C38.519 494.896 37.907 496.621 36.3769 497.567L39.1589 506.442H35.4032L33.1497 498.346H31.7309V506.442H28.2256V486.244H33.0941ZM31.7309 495.202H32.8159C34.2904 495.202 35.0137 494.646 35.0137 492.226C35.0137 489.944 34.2904 489.388 32.8159 489.388H31.7309V495.202ZM45.2953 502.241L44.5998 506.442H41.2336L45.1006 486.244H49.3849L53.2519 506.442H49.7187L49.0232 502.241H45.2953ZM48.4946 499.097L47.1593 491.029L45.7961 499.097H48.4946ZM66.4716 501.545C66.4716 504.745 64.9415 506.72 61.2971 506.72C57.6805 506.72 56.1782 504.745 56.1782 501.545V486.244H59.6835V501.573C59.6835 503.048 60.2399 503.604 61.2971 503.604C62.4099 503.604 62.9663 503.048 62.9663 501.573V486.244H66.4716V501.545ZM69.63 495.147H70.7706V486.244H75.8895C79.5339 486.244 81.064 488.22 81.064 491.419V501.295C81.064 504.466 79.5339 506.442 75.8895 506.442H70.7706V497.929H69.63V495.147ZM75.6391 503.298C76.9189 503.298 77.5587 502.658 77.5587 501.017V491.669C77.5587 490.028 76.9189 489.388 75.6391 489.388H74.276V495.147H75.6948V497.929H74.276V503.298H75.6391ZM88.7293 486.244V503.298H94.2933V506.442H85.224V486.244H88.7293ZM100.31 502.241L99.615 506.442H96.2488L100.116 486.244H104.4L108.267 506.442H104.734L104.038 502.241H100.31ZM103.51 499.097L102.174 491.029L100.811 499.097H103.51ZM121.487 501.545C121.487 504.745 119.957 506.72 116.312 506.72C112.696 506.72 111.193 504.745 111.193 501.545V486.244H114.699V501.573C114.699 503.048 115.255 503.604 116.312 503.604C117.425 503.604 117.981 503.048 117.981 501.573V486.244H121.487V501.545ZM129.291 486.244V493.617L133.102 486.244H136.997L132.268 494.256L137.22 506.442H133.269L130.154 497.261L129.291 498.541V506.442H125.786V486.244H129.291ZM150.013 501.545C150.013 504.745 148.483 506.72 144.839 506.72C141.222 506.72 139.72 504.745 139.72 501.545V486.244H143.225V501.573C143.225 503.048 143.781 503.604 144.839 503.604C145.951 503.604 146.508 503.048 146.508 501.573V486.244H150.013V501.545ZM159.181 486.244C163.02 486.244 164.606 488.22 164.606 492.198C164.606 494.896 163.994 496.621 162.463 497.567L165.245 506.442H161.49L159.236 498.346H157.817V506.442H154.312V486.244H159.181ZM157.817 495.202H158.902C160.377 495.202 161.1 494.646 161.1 492.226C161.1 489.944 160.377 489.388 158.902 489.388H157.817V495.202Z" fill="#0078AE"/>
<path d="M10.0201 308.779V311.568H5.08408V316.109H9.20564V318.898H5.08408V326.697H1.9744V308.779H10.0201ZM14.3699 322.97L13.7529 326.697H10.7666L14.1972 308.779H17.9979L21.4284 326.697H18.2941L17.6771 322.97H14.3699ZM17.2081 320.182L16.0235 313.024L14.8142 320.182H17.2081ZM24.8674 324.18C25.6819 324.18 26.1014 323.735 26.1014 322.6V308.779H29.2111V322.847C29.2111 325.488 28.1252 326.944 25.1142 326.944H23.7815V324.18H24.8674ZM36.1263 308.779V326.697H33.0413V308.779H36.1263ZM47.9519 308.779V311.568H44.9409V326.697H41.8559V311.568H38.845V308.779H47.9519ZM52.1612 322.97L51.5442 326.697H48.5579L51.9884 308.779H55.7891L59.2197 326.697H56.0853L55.4683 322.97H52.1612ZM54.9994 320.182L53.8147 313.024L52.6054 320.182H54.9994ZM64.2343 322.353C64.2343 323.661 64.7773 324.155 65.7645 324.155C66.7764 324.155 67.344 323.587 67.344 322.279C67.344 320.774 66.1347 319.762 64.9254 318.799C63.2471 317.467 61.3221 315.863 61.3221 312.876C61.3221 310.211 63.1484 308.557 65.7645 308.557C68.8248 308.557 70.2069 310.285 70.2069 313.123V313.962H67.0972V313.123C67.0972 311.84 66.6283 311.321 65.7892 311.321C64.9007 311.321 64.4318 311.864 64.4318 312.876C64.4318 314.382 65.7892 315.492 66.9738 316.405C68.7014 317.738 70.4537 319.268 70.4537 322.255C70.4537 325.216 68.5286 326.944 65.7892 326.944C62.5808 326.944 61.1246 325.192 61.1246 322.353V321.144H64.2343V322.353ZM82.7393 308.779V315.32L86.1205 308.779H89.5757L85.3801 315.887L89.7731 326.697H86.2686L83.5044 318.553L82.7393 319.688V326.697H79.6296V308.779H82.7393ZM92.4482 324.18C93.2626 324.18 93.6822 323.735 93.6822 322.6V308.779H96.7919V322.847C96.7919 325.488 95.706 326.944 92.695 326.944H91.3623V324.18H92.4482ZM105.706 307.323H103.288L104.818 304.263H108.001L105.706 307.323ZM109.63 322.353C109.63 325.192 108.273 326.944 105.04 326.944C101.831 326.944 100.499 325.192 100.499 322.353V308.779H103.608V322.378C103.608 323.686 104.102 324.18 105.04 324.18C106.027 324.18 106.521 323.686 106.521 322.378V308.779H109.63V322.353ZM116.554 308.779V315.32L119.935 308.779H123.39L119.195 315.887L123.588 326.697H120.083L117.319 318.553L116.554 319.688V326.697H113.444V308.779H116.554ZM129.038 308.779V323.908H133.974V326.697H125.929V308.779H129.038ZM140.028 308.779V326.697H136.943V308.779H140.028ZM143.981 326.697V308.779H146.794L150.99 319.688V308.779H153.828V326.697H151.163L146.844 315.863V326.697H143.981ZM166.652 317.368V321.958C166.652 325.093 165.294 326.944 162.061 326.944C158.853 326.944 157.52 325.192 157.52 322.353V313.123C157.52 310.285 158.853 308.557 162.061 308.557C165.294 308.557 166.652 310.285 166.652 313.123V314.283H163.542V313.123C163.542 311.84 163.048 311.321 162.061 311.321C161.123 311.321 160.63 311.84 160.63 313.123V322.378C160.63 323.686 161.123 324.18 162.061 324.18C163.048 324.18 163.665 323.612 163.665 322.131V320.132H162.185V317.368H166.652ZM179.115 322.353C179.115 325.192 177.758 326.944 174.525 326.944C171.316 326.944 169.984 325.192 169.984 322.353V308.779H173.093V322.378C173.093 323.686 173.587 324.18 174.525 324.18C175.512 324.18 176.005 323.686 176.005 322.378V308.779H179.115V322.353ZM187.248 308.779C190.654 308.779 192.061 310.532 192.061 314.061C192.061 316.455 191.518 317.985 190.16 318.824L192.628 326.697H189.296L187.297 319.515H186.039V326.697H182.929V308.779H187.248ZM186.039 316.726H187.001C188.309 316.726 188.951 316.233 188.951 314.086C188.951 312.062 188.309 311.568 187.001 311.568H186.039V316.726Z" fill="#0078AE"/>
<path fill-rule="evenodd" clip-rule="evenodd" d="M114.032 220.254C117.872 221.726 122.102 223.28 124.742 224.364C148.332 234.037 141.722 270.458 116.042 270.458H67.5322C50.5222 270.458 36.7222 256.358 36.7222 238.955C36.7222 221.552 50.5122 207.452 67.5322 207.452C68.8922 207.411 70.3522 207.473 71.9122 207.616C75.9322 205.356 81.1322 203.71 87.6222 203.056C97.0422 202.105 106.282 203.73 110.582 207.79C113.972 210.98 114.822 215.479 114.022 220.244L114.032 220.254Z" fill="#F89A2C"/>
<path fill-rule="evenodd" clip-rule="evenodd" d="M88.8422 221.981C84.0522 218.679 73.8622 220.662 70.9922 227.411C72.3722 212.145 86.3822 212.073 92.1822 217.278L88.8422 221.981Z" fill="white"/>
<path fill-rule="evenodd" clip-rule="evenodd" d="M125.882 221.44C124.102 220.714 121.592 219.753 118.962 218.761C117.402 218.168 115.812 217.564 114.302 216.982C114.302 215.632 114.072 214.354 113.732 213.127L115.912 211.389C117.682 213.485 121.992 214.507 124.692 212.35C128.782 209.088 127.342 200.959 121.002 200.745C122.342 194.405 114.972 191 110.892 194.252C108.192 196.399 108.112 200.929 109.672 203.199L106.902 205.407C102.032 203.137 94.9023 202.329 87.6423 203.055C83.7723 203.444 80.3723 204.201 77.3923 205.213C73.6223 204.538 70.3124 204.201 67.5424 204.303C48.8524 204.303 33.6523 219.845 33.6523 238.955C33.6523 258.065 48.8524 273.596 67.5424 273.596H116.052C131.042 273.596 139.822 262.595 141.882 251.705C143.952 240.744 139.812 227.135 125.892 221.429L125.882 221.44ZM135.822 250.519C134.362 258.269 128.302 267.308 116.042 267.308H67.5323C52.2423 267.308 39.8023 254.589 39.8023 238.965C39.8023 223.341 52.2423 210.612 67.6123 210.612C67.6323 210.612 67.6623 210.612 67.6823 210.612C57.5323 219.364 59.2323 232.922 68.3323 237.891C57.2523 218.25 76.6424 208.372 92.0124 209.303C107.382 210.233 118.742 221.982 91.6024 245.58C99.6224 245.1 110.042 234.047 113.282 223.331C114.452 223.781 115.642 224.231 116.812 224.671C119.382 225.642 121.832 226.562 123.582 227.278C134.242 231.644 137.402 242.094 135.812 250.509L135.822 250.519Z" fill="#231F20"/>
<path d="M145.48 68.0876V61.6357H130.2V68.0876H145.48Z" fill="#231F20"/>
<path d="M92.3298 92.3305C78.0498 92.3305 64.5698 87.0954 54.3498 77.5966C51.1698 74.6314 49.3398 69.9893 49.3398 64.8564C49.3398 59.7236 51.1698 55.0815 54.3498 52.1163C64.5598 42.6175 78.0498 37.3926 92.3298 37.3926C106.61 37.3926 120.09 42.6277 130.31 52.1265C133.49 55.0917 135.32 59.7338 135.32 64.8667C135.32 69.9995 133.49 74.6416 130.31 77.6068C120.1 87.1057 106.61 92.3407 92.3298 92.3407V92.3305Z" fill="#961600"/>
<path d="M92.33 39.7954C106.5 39.7954 119.35 45.1737 128.73 53.9057C134.39 59.1715 134.39 70.5721 128.73 75.8379C119.35 84.5597 106.5 89.9482 92.33 89.9482C78.16 89.9482 65.31 84.5699 55.93 75.8379C50.27 70.5721 50.27 59.1715 55.93 53.9057C65.31 45.184 78.16 39.7954 92.33 39.7954ZM92.33 35C77.47 35 63.42 40.4498 52.78 50.3475C49.11 53.7626 47 59.0488 47 64.8565C47 70.6642 49.11 75.9504 52.78 79.3655C63.43 89.2631 77.47 94.713 92.33 94.713C107.19 94.713 121.24 89.2631 131.88 79.3655C135.55 75.9504 137.66 70.6642 137.66 64.8565C137.66 59.0488 135.55 53.7626 131.88 50.3475C121.23 40.4498 107.19 35 92.33 35Z" fill="#231F20"/>
<path d="M61.5002 59.6825C69.3502 54.6417 75.4402 60.521 81.1202 55.4801C86.8002 50.4393 93.7002 51.1141 96.8102 51.9526C99.9202 52.791 104.25 57.9954 109.8 58.6703C115.48 59.3553 119.62 54.8156 126.44 59.8462C126.72 60.0507 126.98 60.2551 127.24 60.4699C125.99 58.0773 124.28 55.746 121.93 53.793C117.13 49.7951 113.23 50.7972 110.38 51.5231C109.08 51.8503 107.96 52.1468 106.86 51.9934C104.95 51.7276 103.09 50.2348 101.29 48.7931C99.7702 47.5764 98.3402 46.4209 96.7702 45.9404C94.6702 45.3064 87.3402 43.7114 81.0202 50.0405C79.8602 51.1959 78.6402 51.1652 76.1902 50.9812C73.3002 50.7665 69.6902 50.5006 65.5702 53.4863C62.2102 55.9198 59.7202 59.2633 57.9102 62.5455C58.9902 61.5025 60.1702 60.521 61.5002 59.6723V59.6825Z" fill="#7A1200"/>
<path d="M123.66 70.0507C115.81 75.0915 109.72 69.2122 104.04 74.2531C98.3599 79.2939 91.4599 78.6191 88.3499 77.7806C85.2399 76.9422 80.9099 71.7378 75.3599 71.0629C69.6799 70.3779 65.5399 74.9177 58.7199 69.887C58.4399 69.6826 58.1799 69.4781 57.9199 69.2633C59.1699 71.656 60.8799 73.9872 63.2299 75.9402C68.0299 79.9381 71.9299 78.936 74.7799 78.2101C76.0799 77.8829 77.1999 77.5864 78.2999 77.7398C80.2099 78.0056 82.0699 79.4984 83.8699 80.9401C85.3899 82.1569 86.8199 83.3123 88.3899 83.7928C90.4899 84.4268 97.8199 86.0218 104.14 79.6927C105.3 78.5373 106.52 78.568 108.97 78.752C111.86 78.9667 115.47 79.2326 119.59 76.2469C122.95 73.8134 125.44 70.4699 127.25 67.1877C126.17 68.2307 124.99 69.2123 123.66 70.0609V70.0507Z" fill="#7A1200"/>
<path d="M62.3944 116.378C65.6275 116.378 66.9849 118.13 66.9849 120.968V129.73C66.9849 132.543 65.6275 134.296 62.3944 134.296H57.8533V116.378H62.3944ZM60.963 131.507H62.1723C63.3076 131.507 63.8752 130.939 63.8752 129.483V121.191C63.8752 119.734 63.3076 119.167 62.1723 119.167H60.963V131.507ZM74.0565 112.256V114.823H71.5391V112.256H74.0565ZM78.4002 112.256V114.823H75.8828V112.256H78.4002ZM79.5601 129.952C79.5601 132.79 78.2027 134.542 74.9697 134.542C71.7613 134.542 70.4285 132.79 70.4285 129.952V120.722C70.4285 117.883 71.7613 116.156 74.9697 116.156C78.2027 116.156 79.5601 117.883 79.5601 120.722V129.952ZM73.5382 129.977C73.5382 131.285 74.0318 131.778 74.9697 131.778C75.9569 131.778 76.4505 131.285 76.4505 129.977V120.722C76.4505 119.438 75.9569 118.92 74.9697 118.92C74.0318 118.92 73.5382 119.438 73.5382 120.722V129.977ZM82.2445 124.276H83.2564V116.378H87.7975C91.0306 116.378 92.388 118.13 92.388 120.968V129.73C92.388 132.543 91.0306 134.296 87.7975 134.296H83.2564V126.744H82.2445V124.276ZM87.5754 131.507C88.7106 131.507 89.2783 130.939 89.2783 129.483V121.191C89.2783 119.734 88.7106 119.167 87.5754 119.167H86.366V124.276H87.6247V126.744H86.366V131.507H87.5754ZM99.1881 116.378V131.507H104.124V134.296H96.0784V116.378H99.1881ZM115.86 129.952C115.86 132.79 114.503 134.542 111.27 134.542C108.061 134.542 106.728 132.79 106.728 129.952V116.378H109.838V129.977C109.838 131.285 110.332 131.778 111.27 131.778C112.257 131.778 112.75 131.285 112.75 129.977V116.378H115.86V129.952ZM123.993 116.378C127.399 116.378 128.805 118.13 128.805 121.659C128.805 124.053 128.262 125.584 126.905 126.423L129.373 134.296H126.041L124.042 127.114H122.783V134.296H119.674V116.378H123.993ZM122.783 124.325H123.746C125.054 124.325 125.696 123.831 125.696 121.684C125.696 119.66 125.054 119.167 123.746 119.167H122.783V124.325Z" fill="#0078AE"/>
</svg>
