<svg width="50" height="300" viewBox="0 0 50 300" fill="none" xmlns="http://www.w3.org/2000/svg">
<rect width="50" height="49.505" fill="#D9D9D9"/>
<rect y="101.98" width="50" height="49.505" fill="#D9D9D9"/>
<rect y="203.96" width="50" height="49.505" fill="#D9D9D9"/>
<path d="M25 53.4624L30.6129 70.2295H48.7764L34.0818 80.5921L39.6946 97.3592L25 86.9966L10.3054 97.3592L15.9182 80.5921L1.22359 70.2295H19.3871L25 53.4624Z" fill="#FF0000"/>
<path d="M25 3.96045L30.6129 20.7275H48.7764L34.0818 31.0901L39.6946 47.8572L25 37.4946L10.3054 47.8572L15.9182 31.0901L1.22359 20.7275H19.3871L25 3.96045Z" fill="#FF8A00"/>
<path d="M25 251.469L30.6129 268.236H48.7764L34.0818 278.598L39.6946 295.366L25 285.003L10.3054 295.366L15.9182 278.598L1.22359 268.236H19.3871L25 251.469Z" fill="black"/>
<path d="M25 102.964L30.6129 119.731H48.7764L34.0818 130.094L39.6946 146.861L25 136.499L10.3054 146.861L15.9182 130.094L1.22359 119.731H19.3871L25 102.964Z" fill="#1400FF"/>
<path d="M25 152.465L30.6129 169.232H48.7764L34.0818 179.595L39.6946 196.362L25 185.999L10.3054 196.362L15.9182 179.595L1.22359 169.232H19.3871L25 152.465Z" fill="#14FF00"/>
<path d="M25 201.967L30.6129 218.734H48.7764L34.0818 229.096L39.6946 245.864L25 235.501L10.3054 245.864L15.9182 229.096L1.22359 218.734H19.3871L25 201.967Z" fill="#EB00FF"/>
</svg>
