<svg width="184" height="905" viewBox="0 0 184 905" fill="none" xmlns="http://www.w3.org/2000/svg">
<path fill-rule="evenodd" clip-rule="evenodd" d="M41.7403 21.2535C33.3603 12.8735 21.8303 9.82351 11.8703 12.3535C8.39029 13.2335 5.86029 15.7635 4.98029 19.2435C2.46029 29.2035 5.50029 40.7335 13.8803 49.1135C23.7303 58.9635 37.9203 61.4435 48.8103 56.1835C54.0703 45.2935 51.5903 31.1035 41.7403 21.2635V21.2535Z" fill="#B6EF18"/>
<path d="M12.81 50.1736C4.33004 41.6936 0.770049 29.6936 3.51005 18.8636C4.52005 14.8736 7.50005 11.8836 11.5 10.8736C22.13 8.18357 34.46 11.8236 42.81 20.1736C52.92 30.2836 55.88 45.0136 50.17 56.8236L49.94 57.3036L49.47 57.5336C45.56 59.4236 41.2901 60.3836 36.7701 60.3836C28.0401 60.3836 19.3 56.6636 12.82 50.1736H12.81ZM40.67 22.3236C33.06 14.7136 21.87 11.3836 12.24 13.8136C9.30004 14.5536 7.19005 16.6736 6.44005 19.6136C3.96005 29.4136 7.22004 40.3036 14.95 48.0336C20.87 53.9636 28.82 57.3536 36.76 57.3536C40.63 57.3536 44.3 56.5736 47.67 55.0336C52.51 44.4536 49.73 31.3736 40.67 22.3136V22.3236Z" fill="#231F20"/>
<path fill-rule="evenodd" clip-rule="evenodd" d="M55.4901 60.2634C43.1201 46.0434 25.0101 36.3234 15.0601 20.7334C20.2101 37.9034 41.4201 49.0734 51.8701 63.3134L55.4901 60.2634Z" fill="#231F20"/>
<path fill-rule="evenodd" clip-rule="evenodd" d="M34.5098 43.2336C23.0798 45.0236 19.1298 44.2636 14.8198 41.7236C21.8598 48.6936 34.9798 46.2236 35.0198 46.2136L34.5098 43.2336Z" fill="#231F20"/>
<path fill-rule="evenodd" clip-rule="evenodd" d="M38.2803 47.9935C42.9603 37.4135 43.2503 33.4035 41.9203 28.5835C46.8303 37.1935 41.0403 49.2235 41.0303 49.2535L38.2803 47.9935Z" fill="#231F20"/>
<path fill-rule="evenodd" clip-rule="evenodd" d="M27.9199 37.3736C30.6699 31.1636 30.8399 28.8136 30.0599 25.9736C32.9399 31.0236 29.5499 38.0936 29.5399 38.1136L27.9299 37.3736H27.9199Z" fill="#231F20"/>
<path d="M11.4022 138.916L7.97164 156.834H4.17092L0.7404 138.916H3.99816L6.14532 151.898L8.29248 138.916H11.4022ZM21.9205 138.916V141.705H17.2313V145.999H21.106V148.788H17.2313V154.045H22.1673V156.834H14.1216V138.916H21.9205ZM34.2618 147.505V152.095C34.2618 155.23 32.9044 157.081 29.6713 157.081C26.4629 157.081 25.1302 155.329 25.1302 152.49V143.26C25.1302 140.422 26.4629 138.694 29.6713 138.694C32.9044 138.694 34.2618 140.422 34.2618 143.26V144.42H31.1521V143.26C31.1521 141.977 30.6585 141.458 29.6713 141.458C28.7335 141.458 28.2399 141.977 28.2399 143.26V152.515C28.2399 153.823 28.7335 154.317 29.6713 154.317C30.6585 154.317 31.2755 153.749 31.2755 152.268V150.269H29.7947V147.505H34.2618ZM40.0863 153.107L39.4693 156.834H36.483L39.9135 138.916H43.7143L47.1448 156.834H44.0104L43.3934 153.107H40.0863ZM42.9245 150.318L41.7399 143.161L40.5305 150.318H42.9245ZM49.8642 156.834V138.916H52.6777L56.8733 149.825V138.916H59.7115V156.834H57.0461L52.7271 145.999V156.834H49.8642ZM72.8095 138.916V145.457L76.1906 138.916H79.6458L75.4502 146.024L79.8433 156.834H76.3387L73.5745 148.69L72.8095 149.825V156.834H69.6998V138.916H72.8095ZM82.5184 154.317C83.3328 154.317 83.7524 153.872 83.7524 152.737V138.916H86.862V152.984C86.862 155.625 85.7761 157.081 82.7652 157.081H81.4324V154.317H82.5184ZM95.7763 137.46H93.3577L94.8878 134.4H98.0716L95.7763 137.46ZM99.7005 152.49C99.7005 155.329 98.3431 157.081 95.11 157.081C91.9016 157.081 90.5688 155.329 90.5688 152.49V138.916H93.6785V152.515C93.6785 153.823 94.1721 154.317 95.11 154.317C96.0972 154.317 96.5908 153.823 96.5908 152.515V138.916H99.7005V152.49ZM106.624 138.916V145.457L110.005 138.916H113.46L109.265 146.024L113.658 156.834H110.153L107.389 148.69L106.624 149.825V156.834H103.514V138.916H106.624ZM119.109 138.916V154.045H124.045V156.834H115.999V138.916H119.109ZM130.098 138.916V156.834H127.013V138.916H130.098ZM134.051 156.834V138.916H136.864L141.06 149.825V138.916H143.898V156.834H141.233L136.914 145.999V156.834H134.051ZM156.722 147.505V152.095C156.722 155.23 155.364 157.081 152.131 157.081C148.923 157.081 147.59 155.329 147.59 152.49V143.26C147.59 140.422 148.923 138.694 152.131 138.694C155.364 138.694 156.722 140.422 156.722 143.26V144.42H153.612V143.26C153.612 141.977 153.119 141.458 152.131 141.458C151.194 141.458 150.7 141.977 150.7 143.26V152.515C150.7 153.823 151.194 154.317 152.131 154.317C153.119 154.317 153.736 153.749 153.736 152.268V150.269H152.255V147.505H156.722ZM169.185 152.49C169.185 155.329 167.828 157.081 164.595 157.081C161.386 157.081 160.054 155.329 160.054 152.49V138.916H163.163V152.515C163.163 153.823 163.657 154.317 164.595 154.317C165.582 154.317 166.076 153.823 166.076 152.515V138.916H169.185V152.49ZM177.318 138.916C180.724 138.916 182.131 140.669 182.131 144.198C182.131 146.592 181.588 148.122 180.23 148.961L182.698 156.834H179.367L177.367 149.652H176.109V156.834H172.999V138.916H177.318ZM176.109 146.863H177.071C178.379 146.863 179.021 146.37 179.021 144.223C179.021 142.199 178.379 141.705 177.071 141.705H176.109V146.863Z" fill="#0078AE"/>
<path fill-rule="evenodd" clip-rule="evenodd" d="M106.208 52.3146C110.048 53.7546 114.278 55.2746 116.918 56.3346C140.508 65.7946 133.898 101.415 108.218 101.415H59.708C42.698 101.415 28.8979 87.6246 28.8979 70.6046C28.8979 53.5846 42.688 39.7946 59.708 39.7946C61.068 39.7546 62.5279 39.8146 64.0879 39.9546C68.1079 37.7446 73.308 36.1346 79.798 35.4946C89.218 34.5646 98.4579 36.1546 102.758 40.1246C106.148 43.2446 106.998 47.6446 106.198 52.3046L106.208 52.3146Z" fill="#F89A2C"/>
<path fill-rule="evenodd" clip-rule="evenodd" d="M81.018 54.0044C76.228 50.7744 66.038 52.7144 63.168 59.3144C64.548 44.3844 78.558 44.3144 84.358 49.4044L81.018 54.0044Z" fill="white"/>
<path fill-rule="evenodd" clip-rule="evenodd" d="M118.058 53.4745C116.278 52.7645 113.768 51.8245 111.138 50.8545C109.578 50.2745 107.988 49.6845 106.478 49.1145C106.478 47.7945 106.248 46.5445 105.908 45.3445L108.088 43.6445C109.858 45.6945 114.168 46.6945 116.868 44.5845C120.958 41.3945 119.518 33.4445 113.178 33.2345C114.518 27.0345 107.148 23.7045 103.068 26.8845C100.368 28.9845 100.288 33.4145 101.848 35.6345L99.0781 37.7945C94.2081 35.5745 87.0781 34.7845 79.8181 35.4945C75.9481 35.8745 72.5481 36.6145 69.5681 37.6045C65.7981 36.9445 62.4881 36.6145 59.7181 36.7145C41.0281 36.7145 25.8281 51.9145 25.8281 70.6045C25.8281 89.2945 41.0281 104.485 59.7181 104.485H108.228C123.218 104.485 131.998 93.7245 134.058 83.0745C136.128 72.3545 131.988 59.0445 118.068 53.4645L118.058 53.4745ZM127.998 81.9145C126.538 89.4945 120.478 98.3345 108.218 98.3345H59.7081C44.4181 98.3345 31.9781 85.8945 31.9781 70.6145C31.9781 55.3345 44.4181 42.8845 59.7881 42.8845C59.8081 42.8845 59.8381 42.8845 59.8581 42.8845C49.7081 51.4445 51.4081 64.7045 60.5081 69.5645C49.4281 50.3545 68.8181 40.6945 84.1881 41.6045C99.5581 42.5145 110.918 54.0045 83.7781 77.0845C91.7981 76.6145 102.218 65.8045 105.458 55.3245C106.628 55.7645 107.818 56.2045 108.988 56.6345C111.558 57.5845 114.008 58.4845 115.758 59.1845C126.418 63.4545 129.578 73.6745 127.988 81.9045L127.998 81.9145Z" fill="#231F20"/>
<path d="M97.8368 184.523C97.8368 184.523 132.807 195.493 136.917 203.033C141.027 210.573 143.777 222.233 138.977 228.403C134.177 234.573 119.097 244.173 112.237 247.603C105.377 251.033 93.6968 253.103 93.6968 253.103C93.6968 253.103 106.747 245.543 106.747 227.713C106.747 209.883 105.377 196.863 101.947 193.433C98.5168 190.003 97.8368 184.523 97.8368 184.523Z" fill="#C55450"/>
<path d="M80.0158 177.665C80.0158 177.665 104.696 188.635 107.446 199.605C110.186 210.575 109.506 235.945 103.336 243.485C97.1657 251.025 90.3058 259.945 83.4558 260.625C76.5958 261.315 56.7157 257.195 53.2857 252.395C49.8557 247.595 43.0057 233.885 42.3157 224.285C41.6257 214.685 41.6257 204.405 45.0557 197.545C48.4857 190.685 50.5457 185.885 54.6557 183.145C58.7657 180.405 68.3657 176.975 68.3657 176.975L80.0257 177.665H80.0158Z" fill="white"/>
<path d="M131.475 195.605C120.785 189.685 106.995 183.095 96.3051 178.075C89.7051 174.605 82.2452 172.795 74.7352 172.835C74.7352 172.835 74.7351 172.835 74.7251 172.835C69.9751 172.865 65.3452 173.975 60.9852 176.145C46.7852 183.205 37.6951 199.985 37.8151 218.915C37.9851 244.195 54.8051 264.665 75.3151 264.525C76.5051 264.525 77.6851 264.445 78.8651 264.295C84.6351 263.805 90.2851 262.295 95.3751 259.765C95.8551 259.525 96.3252 259.285 96.7952 259.025L131.695 241.665C140.655 237.575 146.245 228.725 146.185 218.635C146.125 208.405 140.385 199.515 131.475 195.585V195.605ZM44.5051 218.885C44.4051 202.755 52.2251 187.995 63.9651 182.155C67.4051 180.445 71.0451 179.565 74.7751 179.535C91.5951 179.425 105.395 196.905 105.535 218.495C105.635 234.625 97.8151 249.385 86.0751 255.225C83.5351 256.485 80.8852 257.295 78.1752 257.645C77.2052 257.725 76.2452 257.845 75.2652 257.845C58.4452 257.955 44.6451 240.475 44.5051 218.885ZM128.815 235.655L103.615 248.185C109.135 240.065 112.295 229.645 112.225 218.455C112.145 207.055 108.665 196.655 103.005 188.655C111.555 192.755 120.765 197.315 128.495 201.595C135.235 204.585 139.445 211.135 139.485 218.695C139.535 226.125 135.395 232.355 128.805 235.645L128.815 235.655Z" fill="#231F20"/>
<path fill-rule="evenodd" clip-rule="evenodd" d="M74.8048 185.395C85.5148 185.325 94.7848 193.235 99.0548 204.665C99.2848 205.285 99.2348 205.915 98.9048 206.485C98.5748 207.055 98.0548 207.415 97.4048 207.525C92.1748 208.405 88.8448 212.845 83.3948 215.105C81.8648 212.775 78.6348 211.295 76.9548 211.305C75.2748 211.315 75.4448 211.445 74.7348 211.695C71.0448 206.485 66.2948 197.325 63.7648 190.565C63.3848 189.545 63.8148 188.415 64.7748 187.915C67.8648 186.305 71.2548 185.405 74.8048 185.385V185.395ZM101.435 215.775C101.505 216.685 101.535 217.605 101.545 218.525C101.665 236.915 89.8848 251.895 75.2348 251.985C72.5948 252.005 70.0448 251.535 67.6448 250.655C66.6148 250.275 66.0448 249.195 66.3048 248.135C68.3548 239.755 73.0148 236.335 75.3648 231.785C75.9248 231.935 74.5248 232.015 77.0948 232.005C79.6648 231.985 85.3848 227.325 85.2648 221.615V221.285C90.5848 219.045 93.8148 214.645 98.9748 213.825C99.5848 213.725 100.155 213.875 100.645 214.265C101.135 214.655 101.405 215.165 101.455 215.785L101.435 215.775ZM57.4948 243.625C58.0248 244.215 58.7848 244.455 59.5648 244.275C60.3448 244.095 60.9248 243.545 61.1448 242.775C63.3448 235.055 67.9948 232.015 70.3248 227.665C69.3648 225.985 68.7848 223.835 68.7748 221.705C68.7648 219.575 69.2248 217.755 70.0248 216.155C66.3948 211.235 61.6448 202.635 59.2048 196.555C58.9048 195.815 58.2748 195.325 57.4848 195.225C56.6948 195.125 55.9648 195.435 55.4848 196.085C51.0848 202.065 48.4248 210.075 48.4748 218.865C48.5348 228.725 52.0148 237.565 57.4748 243.625H57.4948Z" fill="#FFADA7"/>
<path d="M54.2164 302.58C54.2164 303.888 54.7594 304.382 55.7466 304.382C56.7585 304.382 57.3261 303.814 57.3261 302.506C57.3261 301.001 56.1168 299.989 54.9075 299.026C53.2292 297.694 51.3042 296.089 51.3042 293.103C51.3042 290.438 53.1305 288.784 55.7466 288.784C58.8069 288.784 60.189 290.512 60.189 293.35V294.189H57.0793V293.35C57.0793 292.066 56.6104 291.548 55.7713 291.548C54.8828 291.548 54.4139 292.091 54.4139 293.103C54.4139 294.609 55.7713 295.719 56.9559 296.632C58.6835 297.965 60.4358 299.495 60.4358 302.481C60.4358 305.443 58.5107 307.171 55.7713 307.171C52.5629 307.171 51.1067 305.418 51.1067 302.58V301.371H54.2164V302.58ZM66.6719 289.006V295.546L70.0531 289.006H73.5083L69.3127 296.114L73.7057 306.924H70.2012L67.437 298.779L66.6719 299.915V306.924H63.5622V289.006H66.6719ZM79.1318 289.006V306.924H76.0468V289.006H79.1318ZM83.0845 306.924V289.006H85.898L90.0936 299.915V289.006H92.9318V306.924H90.2664L85.9474 296.089V306.924H83.0845ZM99.9803 289.006V295.546L103.361 289.006H106.817L102.621 296.114L107.014 306.924H103.51L100.745 298.779L99.9803 299.915V306.924H96.8706V289.006H99.9803ZM111.724 303.197L111.107 306.924H108.121L111.552 289.006H115.352L118.783 306.924H115.649L115.032 303.197H111.724ZM114.563 300.408L113.378 293.251L112.169 300.408H114.563Z" fill="#0078AE"/>
<path fill-rule="evenodd" clip-rule="evenodd" d="M51.0842 326.514H146.464V342.714C142.584 342.714 139.434 345.864 139.434 349.744C139.434 353.624 142.584 356.774 146.464 356.774V405.534H51.0842C37.6942 405.534 26.7441 394.584 26.7441 381.194V350.864C26.7441 337.474 37.6942 326.524 51.0842 326.524V326.514Z" fill="#F8DE18"/>
<path d="M146.454 346.304H150.044V322.924H51.0843C35.6843 322.924 23.1543 335.454 23.1543 350.864V381.194C23.1543 396.594 35.6843 409.134 51.0843 409.134H150.044V353.184H146.454C144.554 353.184 143.014 351.644 143.014 349.744C143.014 347.844 144.554 346.304 146.454 346.304ZM30.3243 381.184V350.854C30.3243 339.554 39.4143 330.384 50.6543 330.144C44.9943 335.264 41.4043 342.634 41.4043 350.854V381.184C41.4043 389.404 44.9943 396.774 50.6543 401.894C39.4143 401.664 30.3243 392.484 30.3243 381.184ZM142.864 339.744C138.764 341.214 135.834 345.144 135.834 349.734C135.834 354.324 138.764 358.254 142.864 359.724V401.934H69.3343C57.8943 401.934 48.5843 392.624 48.5843 381.184V350.854C48.5843 339.414 57.8943 330.104 69.3343 330.104H142.864V339.744Z" fill="#231F20"/>
<path d="M67.3857 344.484H60.0957V351.774H67.3857V344.484Z" fill="#961600"/>
<path d="M93.6443 339.385H88.9043V344.125H93.6443V339.385Z" fill="#961600"/>
<path d="M89.9932 351.773H79.7832V361.983H89.9932V351.773Z" fill="#961600"/>
<path d="M68.856 371.104H66.666V373.294H68.856V371.104Z" fill="#961600"/>
<path d="M97.6565 376.934H93.6465V380.944H97.6565V376.934Z" fill="#961600"/>
<path d="M118.075 368.184H114.795V371.464H118.075V368.184Z" fill="#961600"/>
<path d="M117.714 343.023H114.064V346.673H117.714V343.023Z" fill="#961600"/>
<path d="M134.846 383.135H128.646V389.335H134.846V383.135Z" fill="#961600"/>
<path d="M108.223 355.795H104.943V359.075H108.223V355.795Z" fill="#961600"/>
<path d="M75.4139 386.055H70.6738V390.795H75.4139V386.055Z" fill="#961600"/>
<path d="M36.9398 436.307C40.7511 436.307 42.3647 438.282 42.3647 442.26C42.3647 446.433 40.7511 448.408 36.9398 448.408H35.5766V456.504H32.0713V436.307H36.9398ZM35.5766 445.265H36.6616C38.1361 445.265 38.8594 444.708 38.8594 442.288C38.8594 440.007 38.1361 439.45 36.6616 439.45H35.5766V445.265ZM49.323 436.307V456.504H45.8455V436.307H49.323ZM58.647 436.307C62.4584 436.307 64.0719 438.282 64.0719 442.26C64.0719 446.433 62.4584 448.408 58.647 448.408H57.2838V456.504H53.7785V436.307H58.647ZM57.2838 445.265H58.3688C59.8433 445.265 60.5666 444.708 60.5666 442.288C60.5666 440.007 59.8433 439.45 58.3688 439.45H57.2838V445.265ZM69.2453 452.303L68.5498 456.504H65.1836L69.0506 436.307H73.3349L77.2019 456.504H73.6687L72.9732 452.303H69.2453ZM72.4446 449.159L71.1093 441.092L69.7461 449.159H72.4446ZM85.1358 436.307C88.9749 436.307 90.5607 438.282 90.5607 442.26C90.5607 444.959 89.9486 446.683 88.4185 447.629L91.2005 456.504H87.4448L85.1914 448.408H83.7726V456.504H80.2673V436.307H85.1358ZM83.7726 445.265H84.8576C86.332 445.265 87.0554 444.708 87.0554 442.288C87.0554 440.007 86.332 439.45 84.8576 439.45H83.7726V445.265ZM104.682 451.608C104.682 454.807 103.151 456.782 99.507 456.782C95.8904 456.782 94.3881 454.807 94.3881 451.608V441.203C94.3881 438.004 95.8904 436.056 99.507 436.056C103.151 436.056 104.682 438.004 104.682 441.203V451.608ZM97.8934 451.635C97.8934 453.11 98.4498 453.666 99.507 453.666C100.62 453.666 101.176 453.11 101.176 451.635V441.203C101.176 439.756 100.62 439.172 99.507 439.172C98.4498 439.172 97.8934 439.756 97.8934 441.203V451.635ZM111.435 451.608C111.435 453.082 112.047 453.638 113.16 453.638C114.301 453.638 114.941 452.999 114.941 451.524C114.941 449.827 113.577 448.686 112.214 447.602C110.322 446.099 108.152 444.291 108.152 440.925C108.152 437.92 110.211 436.056 113.16 436.056C116.61 436.056 118.168 438.004 118.168 441.203V442.149H114.662V441.203C114.662 439.756 114.134 439.172 113.188 439.172C112.186 439.172 111.658 439.784 111.658 440.925C111.658 442.622 113.188 443.874 114.523 444.903C116.471 446.405 118.446 448.13 118.446 451.496C118.446 454.835 116.276 456.782 113.188 456.782C109.571 456.782 107.93 454.807 107.93 451.608V450.244H111.435V451.608ZM130.845 436.307V439.45H127.451V456.504H123.973V439.45H120.579V436.307H130.845ZM144.051 451.608C144.051 454.807 142.521 456.782 138.877 456.782C135.26 456.782 133.758 454.807 133.758 451.608V436.307H137.263V451.635C137.263 453.11 137.819 453.666 138.877 453.666C139.989 453.666 140.546 453.11 140.546 451.635V436.307H144.051V451.608ZM153.219 436.307C157.058 436.307 158.644 438.282 158.644 442.26C158.644 444.959 158.032 446.683 156.501 447.629L159.283 456.504H155.528L153.274 448.408H151.856V456.504H148.35V436.307H153.219ZM151.856 445.265H152.941C154.415 445.265 155.138 444.708 155.138 442.288C155.138 440.007 154.415 439.45 152.941 439.45H151.856V445.265Z" fill="#0078AE"/>
<path fill-rule="evenodd" clip-rule="evenodd" d="M84.6997 481.144C85.9597 481.704 87.0997 482.424 88.1297 483.264C84.8197 488.994 84.4597 497.004 87.7997 504.504C88.7897 506.724 90.0297 508.734 91.4497 510.504C86.0997 520.774 75.2397 525.904 66.5097 522.014C57.3497 517.934 53.9897 505.484 59.0097 494.194C64.0297 482.904 75.5297 477.064 84.6997 481.144Z" fill="#231F20"/>
<path d="M72.6996 526.184C70.1296 526.184 67.6496 525.664 65.3496 524.634C60.1096 522.304 56.3196 517.654 54.6796 511.544C53.0896 505.654 53.6996 499.074 56.3996 493.014C60.6796 483.414 69.5696 476.954 78.5396 476.954C81.1096 476.954 83.5796 477.474 85.8896 478.504C87.3596 479.164 88.7296 480.014 89.9796 481.034L91.8696 482.584L90.6496 484.704C87.6896 489.824 87.6196 496.964 90.4596 503.334C91.3196 505.274 92.4196 507.074 93.7196 508.684L94.8996 510.154L94.0296 511.824C89.4896 520.544 81.1296 526.184 72.7096 526.184H72.6996ZM78.5296 482.724C71.7996 482.724 65.0196 487.804 61.6496 495.364C59.4896 500.214 58.9796 505.434 60.2296 510.054C61.4096 514.454 64.0596 517.774 67.6796 519.374C74.4196 522.394 83.2396 518.474 88.0196 510.724C86.9196 509.154 85.9596 507.454 85.1696 505.674C81.9596 498.454 81.7296 490.644 84.4396 484.224C84.1396 484.054 83.8396 483.904 83.5196 483.764C81.9596 483.074 80.2696 482.724 78.5196 482.724H78.5296Z" fill="#231F20"/>
<path fill-rule="evenodd" clip-rule="evenodd" d="M95.2998 476.694C86.1398 480.774 82.7798 493.224 87.7998 504.514C92.8198 515.804 104.32 521.644 113.49 517.564C122.65 513.484 126.01 501.034 120.99 489.744C115.97 478.454 104.47 472.614 95.2998 476.694Z" fill="#231F20"/>
<path d="M107.32 521.734C98.3497 521.734 89.4597 515.284 85.1897 505.674C82.4897 499.614 81.8796 493.034 83.4696 487.144C85.1196 481.044 88.9097 476.394 94.1397 474.054C96.4497 473.024 98.9197 472.504 101.49 472.504C110.45 472.504 119.35 478.954 123.62 488.554C129.27 501.274 125.26 515.454 114.67 520.184C112.36 521.214 109.89 521.734 107.32 521.734ZM101.49 478.274C99.7297 478.274 98.0397 478.624 96.4797 479.324C92.8597 480.934 90.2096 484.254 89.0296 488.644C87.7796 493.264 88.2897 498.474 90.4497 503.334C93.8097 510.894 100.6 515.974 107.33 515.974C109.08 515.974 110.77 515.624 112.34 514.924C120.03 511.494 122.74 500.724 118.37 490.904C115 483.344 108.22 478.274 101.5 478.274H101.49Z" fill="#231F20"/>
<path fill-rule="evenodd" clip-rule="evenodd" d="M99.9996 487.244C95.1496 489.614 94.4996 500.914 95.9496 504.174C89.6396 498.734 90.9996 484.704 97.8296 482.394L99.9996 487.254V487.244Z" fill="white"/>
<path fill-rule="evenodd" clip-rule="evenodd" d="M78.4595 491.394C73.0695 491.024 66.8695 500.484 66.4895 504.034C63.7495 496.164 71.9395 484.694 79.0095 486.104L78.4595 491.394Z" fill="white"/>
<path d="M17.7696 572.061C17.7696 573.369 18.3126 573.862 19.2998 573.862C20.3117 573.862 20.8793 573.295 20.8793 571.987C20.8793 570.481 19.67 569.469 18.4607 568.507C16.7824 567.174 14.8574 565.57 14.8574 562.583C14.8574 559.918 16.6837 558.264 19.2998 558.264C22.3601 558.264 23.7422 559.992 23.7422 562.83V563.669H20.6325V562.83C20.6325 561.547 20.1636 561.029 19.3245 561.029C18.436 561.029 17.9671 561.572 17.9671 562.583C17.9671 564.089 19.3245 565.2 20.5091 566.113C22.2367 567.445 23.989 568.976 23.989 571.962C23.989 574.923 22.064 576.651 19.3245 576.651C16.1161 576.651 14.66 574.899 14.66 572.061V570.851H17.7696V572.061ZM36.5432 558.487L33.1127 576.404H29.312L25.8815 558.487H29.1392L31.2864 571.468L33.4335 558.487H36.5432ZM41.1499 572.678L40.5329 576.404H37.5466L40.9771 558.487H44.7779L48.2084 576.404H45.074L44.457 572.678H41.1499ZM43.9881 569.889L42.8035 562.732L41.5941 569.889H43.9881ZM55.2468 558.487C58.6526 558.487 60.0594 560.239 60.0594 563.768C60.0594 566.162 59.5164 567.692 58.159 568.531L60.627 576.404H57.2952L55.2962 569.222H54.0375V576.404H50.9278V558.487H55.2468ZM54.0375 566.434H55C56.308 566.434 56.9497 565.94 56.9497 563.793C56.9497 561.769 56.308 561.275 55 561.275H54.0375V566.434ZM71.454 558.487V561.275H68.4431V576.404H65.3581V561.275H62.3471V558.487H71.454ZM75.6633 572.678L75.0463 576.404H72.06L75.4906 558.487H79.2913L82.7218 576.404H79.5874L78.9704 572.678H75.6633ZM78.5015 569.889L77.3169 562.732L76.1076 569.889H78.5015ZM89.7602 558.487C93.1661 558.487 94.5728 560.239 94.5728 563.768C94.5728 566.162 94.0299 567.692 92.6725 568.531L95.1405 576.404H91.8087L89.8096 569.222H88.5509V576.404H85.4412V558.487H89.7602ZM88.5509 566.434H89.5134C90.8215 566.434 91.4632 565.94 91.4632 563.793C91.4632 561.769 90.8215 561.275 89.5134 561.275H88.5509V566.434ZM109.398 557.03H106.979L108.51 553.97H111.693L109.398 557.03ZM113.149 572.061C113.149 574.899 111.792 576.651 108.559 576.651C105.35 576.651 104.018 574.899 104.018 572.061V562.83C104.018 559.992 105.35 558.264 108.559 558.264C111.792 558.264 113.149 559.992 113.149 562.83V572.061ZM107.127 572.085C107.127 573.393 107.621 573.887 108.559 573.887C109.546 573.887 110.04 573.393 110.04 572.085V562.83C110.04 561.547 109.546 561.029 108.559 561.029C107.621 561.029 107.127 561.547 107.127 562.83V572.085ZM119.955 558.487V573.615H124.891V576.404H116.846V558.487H119.955ZM130.254 557.03H127.835L129.365 553.97H132.549L130.254 557.03ZM130.945 558.487V576.404H127.86V558.487H130.945ZM142.943 558.487V561.275H138.007V565.817H142.129V568.605H138.007V576.404H134.898V558.487H142.943ZM154.92 572.061C154.92 574.899 153.563 576.651 150.33 576.651C147.121 576.651 145.789 574.899 145.789 572.061V558.487H148.898V572.085C148.898 573.393 149.392 573.887 150.33 573.887C151.317 573.887 151.811 573.393 151.811 572.085V558.487H154.92V572.061ZM163.053 558.487C166.459 558.487 167.866 560.239 167.866 563.768C167.866 566.162 167.323 567.692 165.965 568.531L168.433 576.404H165.102L163.102 569.222H161.844V576.404H158.734V558.487H163.053ZM161.844 566.434H162.806C164.114 566.434 164.756 565.94 164.756 563.793C164.756 561.769 164.114 561.275 162.806 561.275H161.844V566.434Z" fill="#0078AE"/>
<path d="M92.2609 599.492C91.8009 597.832 91.1908 595.292 90.7008 593.192C90.4508 592.142 89.2208 592.142 88.9708 593.192C88.4808 595.302 87.8708 597.832 87.4108 599.492C86.6408 602.292 85.0908 605.742 85.0908 605.742L85.7008 605.922C85.8308 605.962 85.9608 606.042 86.0608 606.152L89.2609 609.442C89.5909 609.782 90.0808 609.782 90.4208 609.442L93.6208 606.152C93.7208 606.042 93.8508 605.972 93.9808 605.922L94.5908 605.742C94.5908 605.742 93.0409 602.292 92.2709 599.492H92.2609Z" fill="#7EBE50" stroke="#231F20" stroke-width="2.71" stroke-miterlimit="10"/>
<path d="M83.3812 603.392C80.9212 601.802 78.4111 600.792 76.1011 600.362C75.3511 600.222 74.9411 601.332 75.5411 601.882C77.3511 603.542 79.1011 605.782 80.5911 608.472C83.2411 613.282 84.4111 618.412 84.0311 622.282C83.9811 622.782 84.3111 623.212 84.7311 623.232C88.0911 623.432 90.8211 622.282 91.9911 619.762C94.1211 615.182 90.2612 607.852 83.3812 603.392Z" fill="#7EBE50" stroke="#231F20" stroke-width="2.71" stroke-miterlimit="10"/>
<path d="M96.8211 603.322C99.3711 601.872 101.931 601.012 104.261 600.722C105.021 600.622 105.361 601.762 104.731 602.272C102.831 603.822 100.951 605.952 99.3111 608.562C96.3811 613.212 94.9211 618.262 95.0811 622.152C95.1011 622.652 94.7511 623.062 94.3211 623.062C90.9511 623.062 88.2912 621.762 87.2712 619.182C85.4112 614.482 89.6911 607.392 96.8211 603.332V603.322Z" fill="#446B2C" stroke="#231F20" stroke-width="3.02" stroke-miterlimit="10"/>
<path d="M78.571 610.762C75.391 609.572 72.3011 609.062 69.5811 609.142C68.7011 609.172 68.511 610.532 69.321 611.002C71.781 612.422 74.321 614.522 76.671 617.202C80.871 621.992 83.4711 627.492 84.0011 631.972C84.0711 632.542 84.551 632.952 85.031 632.872C88.881 632.262 91.6911 630.272 92.3811 627.142C93.6511 621.422 87.461 614.092 78.551 610.762H78.571Z" fill="#7EBE50" stroke="#231F20" stroke-width="3.14" stroke-miterlimit="10"/>
<path d="M100.161 611.762C103.411 610.392 106.601 609.732 109.431 609.702C110.351 609.702 110.601 611.102 109.781 611.622C107.281 613.202 104.731 615.492 102.401 618.372C98.241 623.522 95.771 629.342 95.401 634.022C95.351 634.622 94.8711 635.062 94.3711 635.002C90.3411 634.532 87.3511 632.582 86.4911 629.352C84.9311 623.472 91.061 615.592 100.161 611.752V611.762Z" fill="#446B2C" stroke="#231F20" stroke-width="3.02" stroke-miterlimit="10"/>
<path d="M73.6011 620.392C70.1711 619.372 66.8811 619.052 64.0211 619.342C63.0911 619.432 62.9911 620.882 63.8811 621.322C66.5711 622.642 69.401 624.672 72.071 627.322C76.841 632.052 79.9711 637.662 80.8611 642.342C80.9711 642.942 81.5111 643.332 82.0111 643.222C86.0211 642.302 88.831 640.012 89.341 636.652C90.261 630.542 83.2211 623.272 73.6011 620.402V620.392Z" fill="#7EBE50" stroke="#231F20" stroke-width="3.32" stroke-miterlimit="10"/>
<path d="M104.981 620.392C108.411 619.372 111.701 619.052 114.561 619.342C115.491 619.432 115.591 620.882 114.701 621.322C112.011 622.642 109.181 624.672 106.511 627.322C101.741 632.052 98.611 637.662 97.721 642.342C97.611 642.942 97.0709 643.332 96.5709 643.222C92.5609 642.302 89.751 640.012 89.241 636.652C88.321 630.542 95.361 623.272 104.981 620.402V620.392Z" fill="#446B2C" stroke="#231F20" stroke-width="3.02" stroke-miterlimit="10"/>
<path d="M113.281 656.812C113.281 643.518 102.507 632.742 89.2159 632.742C75.9252 632.742 65.1509 643.518 65.1509 656.812V676.422C65.1509 689.715 75.9252 700.492 89.2159 700.492C102.507 700.492 113.281 689.715 113.281 676.422V656.812Z" fill="#FFAF00" stroke="#231F20" stroke-width="3.32" stroke-miterlimit="10"/>
<path d="M81.1711 689.892C81.1711 685.722 78.1412 681.992 73.3512 679.342C70.3512 681.002 68.0512 683.082 66.7412 685.422" stroke="#231F20" stroke-width="2.74" stroke-miterlimit="10"/>
<path d="M96.9413 689.892C96.9413 685.722 93.9113 681.992 89.1213 679.342C84.3313 681.992 81.3013 685.722 81.3013 689.892" stroke="#231F20" stroke-width="2.74" stroke-miterlimit="10"/>
<path d="M111.201 685.032C109.861 682.852 107.651 680.912 104.821 679.342C100.031 681.992 97.001 685.722 97.001 689.892" stroke="#231F20" stroke-width="2.74" stroke-miterlimit="10"/>
<path d="M88.9911 699.942C88.9911 695.772 85.961 692.042 81.171 689.392C78.171 691.052 75.871 693.132 74.561 695.472" stroke="#231F20" stroke-width="2.74" stroke-miterlimit="10"/>
<path d="M103.551 695.592C102.251 693.202 99.9211 691.082 96.8811 689.392C92.0911 692.042 89.061 695.772 89.061 699.942" stroke="#231F20" stroke-width="2.74" stroke-miterlimit="10"/>
<path d="M73.2312 679.682C73.2312 675.512 70.2011 671.782 65.4111 669.132" stroke="#231F20" stroke-width="2.74" stroke-miterlimit="10"/>
<path d="M88.9911 679.682C88.9911 675.512 85.961 671.782 81.171 669.132C76.381 671.782 73.3511 675.512 73.3511 679.682" stroke="#231F20" stroke-width="2.74" stroke-miterlimit="10"/>
<path d="M104.701 679.682C104.701 675.512 101.671 671.782 96.8811 669.132C92.0911 671.782 89.061 675.512 89.061 679.682" stroke="#231F20" stroke-width="2.74" stroke-miterlimit="10"/>
<path d="M112.641 669.132C107.851 671.782 104.821 675.512 104.821 679.682" stroke="#231F20" stroke-width="2.74" stroke-miterlimit="10"/>
<path d="M81.1713 669.302C81.1713 665.132 78.1413 661.402 73.3513 658.752C68.5613 661.402 65.5312 665.132 65.5312 669.302" stroke="#231F20" stroke-width="2.74" stroke-miterlimit="10"/>
<path d="M96.9413 669.302C96.9413 665.132 93.9113 661.402 89.1213 658.752C84.3313 661.402 81.3013 665.132 81.3013 669.302" stroke="#231F20" stroke-width="2.74" stroke-miterlimit="10"/>
<path d="M112.641 669.302C112.641 665.132 109.611 661.402 104.821 658.752C100.031 661.402 97.0015 665.132 97.0015 669.302" stroke="#231F20" stroke-width="2.74" stroke-miterlimit="10"/>
<path d="M81.171 649.312C81.171 645.142 78.1411 641.412 73.3511 638.762" stroke="#231F20" stroke-width="2.74" stroke-miterlimit="10"/>
<path d="M96.9408 649.312C96.9408 645.142 93.9108 641.412 89.1208 638.762C84.3308 641.412 81.3008 645.142 81.3008 649.312" stroke="#231F20" stroke-width="2.74" stroke-miterlimit="10"/>
<path d="M104.821 638.762C100.031 641.412 97.001 645.142 97.001 649.312" stroke="#231F20" stroke-width="2.74" stroke-miterlimit="10"/>
<path d="M73.2312 659.362C73.2312 655.192 70.2011 651.462 65.4111 648.812" stroke="#231F20" stroke-width="2.74" stroke-miterlimit="10"/>
<path d="M88.9911 659.362C88.9911 655.192 85.961 651.462 81.171 648.812C76.381 651.462 73.3511 655.192 73.3511 659.362" stroke="#231F20" stroke-width="2.74" stroke-miterlimit="10"/>
<path d="M104.701 659.362C104.701 655.192 101.671 651.462 96.8811 648.812C92.0911 651.462 89.061 655.192 89.061 659.362" stroke="#231F20" stroke-width="2.74" stroke-miterlimit="10"/>
<path d="M112.641 648.812C107.851 651.462 104.821 655.192 104.821 659.362" stroke="#231F20" stroke-width="2.74" stroke-miterlimit="10"/>
<path d="M88.731 638.762V633.162" stroke="#231F20" stroke-width="2.74" stroke-miterlimit="10"/>
<path d="M58.3437 738.525L57.7267 742.252H54.7404L58.1709 724.334H61.9716L65.4022 742.252H62.2678L61.6508 738.525H58.3437ZM61.1819 735.736L59.9972 728.579L58.7879 735.736H61.1819ZM68.1216 742.252V724.334H70.9351L75.1307 735.243V724.334H77.9689V742.252H75.3035L70.9845 731.417V742.252H68.1216ZM84.277 738.525L83.66 742.252H80.6737L84.1042 724.334H87.9049L91.3354 742.252H88.2011L87.5841 738.525H84.277ZM87.1152 735.736L85.9305 728.579L84.7212 735.736H87.1152ZM94.0549 742.252V724.334H96.8684L101.064 735.243V724.334H103.902V742.252H101.237L96.9177 731.417V742.252H94.0549ZM110.21 738.525L109.593 742.252H106.607L110.037 724.334H113.838L117.269 742.252H114.134L113.517 738.525H110.21ZM113.048 735.736L111.864 728.579L110.654 735.736H113.048ZM122.283 737.908C122.283 739.216 122.826 739.71 123.814 739.71C124.825 739.71 125.393 739.142 125.393 737.834C125.393 736.329 124.184 735.317 122.974 734.354C121.296 733.022 119.371 731.417 119.371 728.431C119.371 725.766 121.197 724.112 123.814 724.112C126.874 724.112 128.256 725.84 128.256 728.678V729.517H125.146V728.678C125.146 727.395 124.677 726.876 123.838 726.876C122.95 726.876 122.481 727.419 122.481 728.431C122.481 729.937 123.838 731.047 125.023 731.96C126.75 733.293 128.503 734.823 128.503 737.81C128.503 740.771 126.578 742.499 123.838 742.499C120.63 742.499 119.174 740.746 119.174 737.908V736.699H122.283V737.908Z" fill="#0078AE"/>
<path d="M89.1444 769.942C89.1444 769.942 124.114 780.912 128.224 788.452C132.334 795.992 135.084 807.652 130.284 813.822C125.484 819.992 110.404 829.592 103.544 833.022C96.6844 836.452 85.0044 838.522 85.0044 838.522C85.0044 838.522 98.0544 830.962 98.0544 813.132C98.0544 795.302 96.6844 782.282 93.2544 778.852C89.8244 775.422 89.1444 769.942 89.1444 769.942Z" fill="#C55450"/>
<path d="M71.3145 763.083C71.3145 763.083 95.9946 774.053 98.7446 785.023C101.485 795.993 100.805 821.363 94.6346 828.903C88.4646 836.443 81.6046 845.363 74.7546 846.043C67.8946 846.733 48.0145 842.613 44.5845 837.813C41.1545 833.013 34.3046 819.303 33.6146 809.703C32.9246 800.103 32.9246 789.823 36.3546 782.963C39.7846 776.103 41.8445 771.303 45.9545 768.563C50.0645 765.823 59.6646 762.393 59.6646 762.393L71.3245 763.083H71.3145Z" fill="white"/>
<path d="M122.774 781.023C112.084 775.103 98.2944 768.513 87.6044 763.493C81.0044 760.023 73.5445 758.213 66.0345 758.253C66.0345 758.253 66.0345 758.253 66.0245 758.253C61.2745 758.283 56.6445 759.393 52.2845 761.563C38.0845 768.623 28.9945 785.403 29.1145 804.333C29.2845 829.613 46.1045 850.073 66.6145 849.943C67.8045 849.943 68.9845 849.863 70.1645 849.713C75.9345 849.223 81.5845 847.713 86.6745 845.183C87.1445 844.943 87.6244 844.703 88.0944 844.443L122.994 827.083C131.954 822.993 137.544 814.143 137.484 804.053C137.424 793.823 131.684 784.933 122.774 781.003V781.023ZM35.8045 804.303C35.7045 788.173 43.5245 773.413 55.2645 767.573C58.7045 765.863 62.3444 764.983 66.0744 764.953C82.8944 764.843 96.6944 782.323 96.8344 803.913C96.9344 820.043 89.1145 834.803 77.3745 840.643C74.8345 841.903 72.1844 842.713 69.4744 843.063C68.5044 843.143 67.5444 843.263 66.5644 843.263C49.7444 843.373 35.9445 825.893 35.8045 804.303ZM120.114 821.073L94.9145 833.603C100.435 825.483 103.594 815.063 103.524 803.873C103.454 792.473 99.9645 782.073 94.3045 774.083C102.855 778.183 112.055 782.743 119.795 787.023C126.535 790.013 130.745 796.563 130.785 804.123C130.835 811.553 126.694 817.783 120.104 821.073H120.114Z" fill="#231F20"/>
<path fill-rule="evenodd" clip-rule="evenodd" d="M66.1143 770.813C76.8243 770.743 86.0943 778.653 90.3643 790.083C90.5943 790.703 90.5443 791.333 90.2143 791.903C89.8843 792.473 89.3643 792.833 88.7143 792.943C83.4843 793.823 80.1543 798.263 74.7043 800.523C73.1743 798.193 69.9444 796.713 68.2644 796.723C66.5844 796.733 66.7544 796.863 66.0444 797.113C62.3544 791.903 57.6043 782.743 55.0743 775.983C54.6943 774.963 55.1243 773.833 56.0843 773.333C59.1743 771.723 62.5643 770.823 66.1143 770.803V770.813ZM92.7443 801.193C92.8143 802.103 92.8443 803.023 92.8543 803.943C92.9743 822.333 81.1944 837.313 66.5444 837.403C63.9044 837.423 61.3543 836.953 58.9543 836.073C57.9243 835.693 57.3543 834.613 57.6143 833.553C59.6643 825.173 64.3244 821.753 66.6744 817.203C67.2344 817.353 65.8344 817.433 68.4044 817.423C70.9744 817.403 76.6943 812.743 76.5743 807.033V806.703C81.8943 804.463 85.1244 800.063 90.2844 799.243C90.8944 799.143 91.4643 799.293 91.9543 799.683C92.4443 800.073 92.7144 800.583 92.7644 801.203L92.7443 801.193ZM48.8044 829.043C49.3344 829.633 50.0943 829.873 50.8743 829.693C51.6543 829.513 52.2343 828.963 52.4543 828.193C54.6543 820.473 59.3044 817.433 61.6344 813.083C60.6744 811.403 60.0943 809.253 60.0843 807.123C60.0743 804.993 60.5343 803.173 61.3343 801.573C57.7043 796.653 52.9544 788.053 50.5144 781.973C50.2144 781.233 49.5844 780.743 48.7944 780.643C48.0044 780.543 47.2744 780.853 46.7944 781.503C42.3944 787.483 39.7344 795.493 39.7844 804.283C39.8444 814.143 43.3244 822.983 48.7844 829.043H48.8044Z" fill="#E31937"/>
<path d="M45.8611 888.713V870.795H48.6746L52.8702 881.704V870.795H55.7084V888.713H53.043L48.724 877.878V888.713H45.8611ZM62.0165 884.986L61.3995 888.713H58.4132L61.8437 870.795H65.6445L69.075 888.713H65.9406L65.3236 884.986H62.0165ZM64.8547 882.197L63.6701 875.04L62.4607 882.197H64.8547ZM80.8026 884.369C80.8026 887.207 79.4452 888.96 76.2121 888.96C73.0037 888.96 71.671 887.207 71.671 884.369V870.795H74.7807V884.394C74.7807 885.702 75.2743 886.196 76.2121 886.196C77.1993 886.196 77.6929 885.702 77.6929 884.394V870.795H80.8026V884.369ZM92.4893 870.795V873.584H89.4784V888.713H86.3934V873.584H83.3824V870.795H92.4893ZM96.6986 884.986L96.0816 888.713H93.0954L96.5259 870.795H100.327L103.757 888.713H100.623L100.006 884.986H96.6986ZM99.5368 882.197L98.3522 875.04L97.1429 882.197H99.5368ZM109.586 880.667V888.713H106.477V870.795H109.586V877.878H112.671V870.795H115.781V888.713H112.671V880.667H109.586ZM122.102 884.986L121.485 888.713H118.498L121.929 870.795H125.73L129.16 888.713H126.026L125.409 884.986H122.102ZM124.94 882.197L123.755 875.04L122.546 882.197H124.94ZM134.989 870.795V877.335L138.37 870.795H141.826L137.63 877.903L142.023 888.713H138.519L135.754 880.568L134.989 881.704V888.713H131.88V870.795H134.989ZM147.474 870.795V877.335L150.855 870.795H154.31L150.115 877.903L154.508 888.713H151.003L148.239 880.568L147.474 881.704V888.713H144.364V870.795H147.474Z" fill="#0078AE"/>
</svg>
