<svg width="51" height="300" viewBox="0 0 51 300" fill="none" xmlns="http://www.w3.org/2000/svg">
<rect x="1" y="0.5" width="49" height="49" stroke="black"/>
<path fill-rule="evenodd" clip-rule="evenodd" d="M16.591 5.92006C14.4304 3.74564 11.4576 2.95424 8.8896 3.61072C7.99234 3.83906 7.34002 4.49553 7.11313 5.39851C6.46339 7.9829 7.2472 10.9747 9.40784 13.1491C11.9475 15.7049 15.6061 16.3484 18.4139 14.9836C19.7701 12.1579 19.1307 8.4759 16.591 5.92265V5.92006Z" fill="#B6EF18"/>
<path d="M9.13208 13.4241C6.94566 11.2237 6.02778 8.11002 6.73424 5.29989C6.99465 4.26458 7.76299 3.48874 8.79432 3.22667C11.5351 2.52868 14.7141 3.47317 16.867 5.6398C19.4737 8.26311 20.2369 12.0852 18.7647 15.1496L18.7054 15.2742L18.5842 15.3339C17.5761 15.8243 16.4751 16.0734 15.3097 16.0734C13.0589 16.0734 10.8054 15.1081 9.13466 13.4241H9.13208ZM16.3153 6.19768C14.3532 4.22306 11.468 3.35901 8.98511 3.98953C8.22709 4.18155 7.68306 4.73163 7.48969 5.4945C6.85026 8.03737 7.69079 10.8631 9.68384 12.8688C11.2102 14.4075 13.26 15.2872 15.3072 15.2872C16.305 15.2872 17.2512 15.0848 18.1201 14.6852C19.368 11.9399 18.6512 8.54594 16.3153 6.19509V6.19768Z" fill="#231F20"/>
<path fill-rule="evenodd" clip-rule="evenodd" d="M20.1366 16.0423C16.9472 12.3525 12.2778 9.8304 9.7124 5.78516C11.0402 10.2404 16.5089 13.1387 19.2032 16.8337L20.1366 16.0423Z" fill="#231F20"/>
<path fill-rule="evenodd" clip-rule="evenodd" d="M14.7271 11.6232C11.7801 12.0877 10.7616 11.8905 9.65039 11.2314C11.4655 13.04 14.8483 12.3991 14.8586 12.3965L14.7271 11.6232Z" fill="#231F20"/>
<path fill-rule="evenodd" clip-rule="evenodd" d="M15.6992 12.8582C16.9059 10.113 16.9806 9.07246 16.6377 7.82178C17.9037 10.0559 16.4108 13.1774 16.4083 13.1852L15.6992 12.8582Z" fill="#231F20"/>
<path fill-rule="evenodd" clip-rule="evenodd" d="M13.0278 10.1026C13.7369 8.49121 13.7807 7.88145 13.5796 7.14453C14.3222 8.45489 13.4481 10.2894 13.4455 10.2946L13.0304 10.1026H13.0278Z" fill="#231F20"/>
<path d="M19.4124 29.466L18.1614 36H16.7754L15.5244 29.466H16.7124L17.4954 34.2L18.2784 29.466H19.4124ZM23.2481 29.466V30.483H21.5381V32.049H22.9511V33.066H21.5381V34.983H23.3381V36H20.4041V29.466H23.2481ZM27.7486 32.598V34.272C27.7486 35.415 27.2536 36.09 26.0746 36.09C24.9046 36.09 24.4186 35.451 24.4186 34.416V31.05C24.4186 30.015 24.9046 29.385 26.0746 29.385C27.2536 29.385 27.7486 30.015 27.7486 31.05V31.473H26.6146V31.05C26.6146 30.582 26.4346 30.393 26.0746 30.393C25.7326 30.393 25.5526 30.582 25.5526 31.05V34.425C25.5526 34.902 25.7326 35.082 26.0746 35.082C26.4346 35.082 26.6596 34.875 26.6596 34.335V33.606H26.1196V32.598H27.7486ZM29.8726 34.641L29.6476 36H28.5586L29.8096 29.466H31.1956L32.4466 36H31.3036L31.0786 34.641H29.8726ZM30.9076 33.624L30.4756 31.014L30.0346 33.624H30.9076ZM33.4383 36V29.466H34.4643L35.9943 33.444V29.466H37.0293V36H36.0573L34.4823 32.049V36H33.4383ZM7.18994 40.466V42.851L8.42294 40.466H9.68294L8.15294 43.058L9.75494 47H8.47694L7.46894 44.03L7.18994 44.444V47H6.05594V40.466H7.18994ZM10.7305 46.082C11.0275 46.082 11.1805 45.92 11.1805 45.506V40.466H12.3145V45.596C12.3145 46.559 11.9185 47.09 10.8205 47.09H10.3345V46.082H10.7305ZM15.5652 39.935H14.6832L15.2412 38.819H16.4022L15.5652 39.935ZM16.9962 45.416C16.9962 46.451 16.5012 47.09 15.3222 47.09C14.1522 47.09 13.6662 46.451 13.6662 45.416V40.466H14.8002V45.425C14.8002 45.902 14.9802 46.082 15.3222 46.082C15.6822 46.082 15.8622 45.902 15.8622 45.425V40.466H16.9962V45.416ZM19.521 40.466V42.851L20.754 40.466H22.014L20.484 43.058L22.086 47H20.808L19.8 44.03L19.521 44.444V47H18.387V40.466H19.521ZM24.0737 40.466V45.983H25.8737V47H22.9397V40.466H24.0737ZM28.0813 40.466V47H26.9563V40.466H28.0813ZM29.5227 47V40.466H30.5487L32.0787 44.444V40.466H33.1137V47H32.1417L30.5667 43.049V47H29.5227ZM37.7901 43.598V45.272C37.7901 46.415 37.2951 47.09 36.1161 47.09C34.9461 47.09 34.4601 46.451 34.4601 45.416V42.05C34.4601 41.015 34.9461 40.385 36.1161 40.385C37.2951 40.385 37.7901 41.015 37.7901 42.05V42.473H36.6561V42.05C36.6561 41.582 36.4761 41.393 36.1161 41.393C35.7741 41.393 35.5941 41.582 35.5941 42.05V45.425C35.5941 45.902 35.7741 46.082 36.1161 46.082C36.4761 46.082 36.7011 45.875 36.7011 45.335V44.606H36.1611V43.598H37.7901ZM42.3351 45.416C42.3351 46.451 41.8401 47.09 40.6611 47.09C39.4911 47.09 39.0051 46.451 39.0051 45.416V40.466H40.1391V45.425C40.1391 45.902 40.3191 46.082 40.6611 46.082C41.0211 46.082 41.2011 45.902 41.2011 45.425V40.466H42.3351V45.416ZM45.3009 40.466C46.5429 40.466 47.0559 41.105 47.0559 42.392C47.0559 43.265 46.8579 43.823 46.3629 44.129L47.2629 47H46.0479L45.3189 44.381H44.8599V47H43.7259V40.466H45.3009ZM44.8599 43.364H45.2109C45.6879 43.364 45.9219 43.184 45.9219 42.401C45.9219 41.663 45.6879 41.483 45.2109 41.483H44.8599V43.364Z" fill="#0078AE"/>
<path fill-rule="evenodd" clip-rule="evenodd" d="M30.4888 15.7595C31.3487 16.084 32.296 16.4266 32.8872 16.6655C38.1698 18.7974 36.6896 26.8249 30.9389 26.8249H20.0758C16.2666 26.8249 13.1763 23.7171 13.1763 19.8814C13.1763 16.0457 16.2644 12.9379 20.0758 12.9379C20.3803 12.9289 20.7073 12.9424 21.0566 12.974C21.9568 12.4759 23.1213 12.1131 24.5746 11.9689C26.6841 11.7593 28.7533 12.1176 29.7162 13.0123C30.4754 13.7154 30.6657 14.707 30.4866 15.7572L30.4888 15.7595Z" fill="#F89A2C"/>
<path fill-rule="evenodd" clip-rule="evenodd" d="M26.8332 17.9463C25.7605 17.2184 23.4786 17.6556 22.8359 19.143C23.145 15.7783 26.2823 15.7625 27.5812 16.9096L26.8332 17.9463Z" fill="white"/>
<path fill-rule="evenodd" clip-rule="evenodd" d="M33.1424 16.0208C32.7438 15.8608 32.1817 15.649 31.5928 15.4304C31.2434 15.2997 30.8874 15.1667 30.5492 15.0382C30.5492 14.7407 30.4977 14.459 30.4216 14.1886L30.9098 13.8055C31.3061 14.2675 32.2713 14.4928 32.8759 14.0173C33.7918 13.2984 33.4694 11.5068 32.0496 11.4594C32.3497 10.0622 30.6993 9.31171 29.7856 10.0284C29.181 10.5016 29.1631 11.5 29.5124 12.0003L28.8921 12.4871C27.8015 11.9868 26.2049 11.8087 24.5791 11.9688C23.7125 12.0544 22.9511 12.2212 22.2838 12.4443C21.4395 12.2955 20.6983 12.2212 20.078 12.2437C15.8926 12.2437 12.4888 15.6692 12.4888 19.8813C12.4888 24.0934 15.8926 27.5167 20.078 27.5167H30.9411C34.2979 27.5167 36.2641 25.0917 36.7254 22.6916C37.189 20.2757 36.2619 17.2761 33.1447 16.0186L33.1424 16.0208ZM35.3684 22.4302C35.0414 24.1384 33.6844 26.1307 30.9389 26.1307H20.0757C16.6517 26.1307 13.866 23.3271 13.866 19.8836C13.866 16.44 16.6517 13.6342 20.0936 13.6342C20.0981 13.6342 20.1048 13.6342 20.1093 13.6342C17.8364 15.5633 18.2171 18.5517 20.2549 19.6469C17.7737 15.3177 22.1158 13.1407 25.5577 13.3457C28.9996 13.5508 31.5435 16.1403 25.4659 21.3417C27.2619 21.2357 29.5953 18.7996 30.3208 16.4377C30.5828 16.5369 30.8493 16.6361 31.1113 16.733C31.6868 16.9471 32.2355 17.1499 32.6274 17.3076C35.0145 18.27 35.7222 20.5732 35.3661 22.4279L35.3684 22.4302Z" fill="#231F20"/>
<rect x="0.5" y="50.5" width="49" height="49" stroke="black"/>
<path d="M28.9387 61.0039C28.9387 61.0039 40.5554 63.823 41.9207 65.7606C43.286 67.6982 44.1996 70.6945 42.605 72.2801C41.0105 73.8657 36.0011 76.3326 33.7223 77.2141C31.4435 78.0955 27.5635 78.6275 27.5635 78.6275C27.5635 78.6275 31.8986 76.6847 31.8986 72.1028C31.8986 67.5209 31.4435 64.175 30.304 63.2936C29.1646 62.4121 28.9387 61.0039 28.9387 61.0039Z" fill="#C55450"/>
<path d="M23.019 59.2413C23.019 59.2413 31.2175 62.0603 32.131 64.8794C33.0412 67.6984 32.8153 74.2179 30.7657 76.1556C28.7161 78.0932 26.4373 80.3854 24.1618 80.5602C21.8829 80.7375 15.279 79.6787 14.1396 78.4452C13.0002 77.2118 10.7247 73.6886 10.4955 71.2216C10.2662 68.7546 10.2662 66.1129 11.4057 64.35C12.5451 62.5871 13.2294 61.3536 14.5947 60.6495C15.96 59.9454 19.149 59.064 19.149 59.064L23.0223 59.2413H23.019Z" fill="white"/>
<path d="M40.1133 63.8516C36.5622 62.3302 31.9813 60.6368 28.4302 59.3467C26.2377 58.455 23.7596 57.9899 21.2649 58.0002C21.2649 58.0002 21.2649 58.0002 21.2615 58.0002C19.6836 58.0079 18.1456 58.2931 16.6972 58.8508C11.9801 60.665 8.96053 64.9771 9.00039 69.8417C9.05686 76.3381 14.6443 81.5985 21.4575 81.5625C21.8528 81.5625 22.2448 81.5419 22.6368 81.5034C24.5535 81.3774 26.4304 80.9894 28.1213 80.3393C28.2807 80.2776 28.4368 80.2159 28.593 80.1491L40.1864 75.688C43.1628 74.6369 45.0198 72.3627 44.9998 69.7698C44.9799 67.1409 43.0731 64.8563 40.1133 63.8464V63.8516ZM11.2227 69.834C11.1895 65.689 13.7872 61.896 17.6872 60.3952C18.8299 59.9558 20.0391 59.7296 21.2781 59.7219C26.8656 59.6937 31.4498 64.1856 31.4963 69.7338C31.5295 73.8788 28.9318 77.6718 25.0319 79.1726C24.1881 79.4964 23.3078 79.7045 22.4076 79.7945C22.0854 79.815 21.7665 79.8459 21.4409 79.8459C15.8535 79.8741 11.2692 75.3822 11.2227 69.834ZM39.2297 74.1435L30.8585 77.3635C32.6922 75.2768 33.7419 72.5991 33.7187 69.7235C33.6921 66.794 32.5361 64.1214 30.6559 62.0656C33.4961 63.1192 36.5556 64.291 39.1234 65.3909C41.3624 66.1592 42.7609 67.8424 42.7742 69.7852C42.7908 71.6945 41.4155 73.2955 39.2264 74.141L39.2297 74.1435Z" fill="#231F20"/>
<path fill-rule="evenodd" clip-rule="evenodd" d="M21.2878 61.2277C24.8456 61.2097 27.925 63.2424 29.3434 66.1796C29.4198 66.339 29.4032 66.5008 29.2936 66.6473C29.184 66.7938 29.0112 66.8863 28.7953 66.9146C27.058 67.1407 25.9518 68.2817 24.1413 68.8625C23.6331 68.2637 22.5601 67.8834 22.002 67.886C21.4439 67.8885 21.5004 67.9219 21.2646 67.9862C20.0388 66.6473 18.4609 64.2934 17.6204 62.5562C17.4942 62.2941 17.637 62.0037 17.9559 61.8753C18.9824 61.4615 20.1085 61.2302 21.2878 61.2251V61.2277ZM30.134 69.0347C30.1573 69.2685 30.1673 69.5049 30.1706 69.7413C30.2104 74.4672 26.2972 78.3167 21.4307 78.3398C20.5537 78.345 19.7066 78.2242 18.9093 77.998C18.5672 77.9004 18.3778 77.6229 18.4642 77.3505C19.1452 75.197 20.6932 74.3181 21.4738 73.1489C21.6599 73.1874 21.1948 73.208 22.0485 73.2054C22.9023 73.2003 24.8024 72.0027 24.7625 70.5354V70.4506C26.5298 69.875 27.6028 68.7443 29.3169 68.5335C29.5195 68.5078 29.7088 68.5464 29.8716 68.6466C30.0344 68.7468 30.1241 68.8779 30.1407 69.0372L30.134 69.0347ZM15.5376 76.1915C15.7137 76.3431 15.9661 76.4048 16.2252 76.3585C16.4843 76.3123 16.677 76.1709 16.7501 75.9731C17.4809 73.9892 19.0256 73.208 19.7996 72.0901C19.4807 71.6584 19.288 71.1059 19.2847 70.5585C19.2814 70.0112 19.4342 69.5435 19.6999 69.1323C18.4941 67.868 16.9162 65.658 16.1057 64.0955C16.006 63.9054 15.7967 63.7795 15.5343 63.7538C15.2719 63.7281 15.0294 63.8077 14.8699 63.9748C13.4083 65.5115 12.5246 67.5699 12.5412 69.8287C12.5612 72.3625 13.7172 74.6342 15.531 76.1915H15.5376Z" fill="#FFADA7"/>
<path d="M13.1333 90.2405C13.1333 90.7705 13.3533 90.9705 13.7533 90.9705C14.1633 90.9705 14.3933 90.7405 14.3933 90.2105C14.3933 89.6005 13.9033 89.1905 13.4133 88.8005C12.7333 88.2605 11.9533 87.6105 11.9533 86.4005C11.9533 85.3205 12.6933 84.6505 13.7533 84.6505C14.9933 84.6505 15.5533 85.3505 15.5533 86.5005V86.8405H14.2933V86.5005C14.2933 85.9805 14.1033 85.7705 13.7633 85.7705C13.4033 85.7705 13.2133 85.9905 13.2133 86.4005C13.2133 87.0105 13.7633 87.4605 14.2433 87.8305C14.9433 88.3705 15.6533 88.9905 15.6533 90.2005C15.6533 91.4005 14.8733 92.1005 13.7633 92.1005C12.4633 92.1005 11.8733 91.3905 11.8733 90.2405V89.7505H13.1333V90.2405ZM18.1801 84.7405V87.3905L19.5501 84.7405H20.9501L19.2501 87.6205L21.0301 92.0005H19.6101L18.4901 88.7005L18.1801 89.1605V92.0005H16.9201V84.7405H18.1801ZM23.2287 84.7405V92.0005H21.9787V84.7405H23.2287ZM24.8303 92.0005V84.7405H25.9703L27.6703 89.1605V84.7405H28.8203V92.0005H27.7403L25.9903 87.6105V92.0005H24.8303ZM31.6762 84.7405V87.3905L33.0462 84.7405H34.4462L32.7462 87.6205L34.5262 92.0005H33.1062L31.9862 88.7005L31.6762 89.1605V92.0005H30.4162V84.7405H31.6762ZM36.4348 90.4905L36.1848 92.0005H34.9748L36.3648 84.7405H37.9048L39.2948 92.0005H38.0248L37.7748 90.4905H36.4348ZM37.5848 89.3605L37.1048 86.4605L36.6148 89.3605H37.5848Z" fill="#0078AE"/>
<rect x="0.5" y="100.5" width="49" height="49" stroke="black"/>
<path fill-rule="evenodd" clip-rule="evenodd" d="M16.4375 107.943H41.8359V112.198C40.8027 112.198 39.9639 113.026 39.9639 114.045C39.9639 115.064 40.8027 115.892 41.8359 115.892V128.7H16.4375C12.8719 128.7 9.95605 125.824 9.95605 122.306V114.339C9.95605 110.822 12.8719 107.946 16.4375 107.946V107.943Z" fill="#F8DE18"/>
<path d="M41.8332 113.142H42.7892V107H16.4374C12.3366 107 9 110.291 9 114.339V122.307C9 126.352 12.3366 129.646 16.4374 129.646H42.7892V114.949H41.8332C41.3272 114.949 40.9171 114.544 40.9171 114.045C40.9171 113.546 41.3272 113.142 41.8332 113.142ZM10.9093 122.304V114.337C10.9093 111.368 13.3298 108.96 16.3229 108.897C14.8157 110.242 13.8597 112.177 13.8597 114.337V122.304C13.8597 124.463 14.8157 126.399 16.3229 127.744C13.3298 127.684 10.9093 125.272 10.9093 122.304ZM40.8772 111.418C39.7854 111.804 39.0052 112.837 39.0052 114.043C39.0052 115.248 39.7854 116.281 40.8772 116.667V127.755H21.2971C18.2508 127.755 15.7717 125.309 15.7717 122.304V114.337C15.7717 111.332 18.2508 108.886 21.2971 108.886H40.8772V111.418Z" fill="#231F20"/>
<path d="M20.7781 112.664H18.8369V114.579H20.7781V112.664Z" fill="#961600"/>
<path d="M27.7705 111.324H26.5083V112.569H27.7705V111.324Z" fill="#961600"/>
<path d="M26.7979 114.578H24.0791V117.26H26.7979V114.578Z" fill="#961600"/>
<path d="M21.1696 119.656H20.5864V120.232H21.1696V119.656Z" fill="#961600"/>
<path d="M28.8393 121.188H27.7715V122.241H28.8393V121.188Z" fill="#961600"/>
<path d="M34.2762 118.889H33.4028V119.75H34.2762V118.889Z" fill="#961600"/>
<path d="M34.18 112.28H33.208V113.239H34.18V112.28Z" fill="#961600"/>
<path d="M38.7423 122.816H37.0913V124.445H38.7423V122.816Z" fill="#961600"/>
<path d="M31.6527 115.635H30.7793V116.496H31.6527V115.635Z" fill="#961600"/>
<path d="M22.916 123.583H21.6538V124.829H22.916V123.583Z" fill="#961600"/>
<path d="M3.55 133.74C4.92 133.74 5.5 134.45 5.5 135.88C5.5 137.38 4.92 138.09 3.55 138.09H3.06V141H1.8V133.74H3.55ZM3.06 136.96H3.45C3.98 136.96 4.24 136.76 4.24 135.89C4.24 135.07 3.98 134.87 3.45 134.87H3.06V136.96ZM8.00117 133.74V141H6.75117V133.74H8.00117ZM11.3527 133.74C12.7227 133.74 13.3027 134.45 13.3027 135.88C13.3027 137.38 12.7227 138.09 11.3527 138.09H10.8627V141H9.60273V133.74H11.3527ZM10.8627 136.96H11.2527C11.7827 136.96 12.0427 136.76 12.0427 135.89C12.0427 135.07 11.7827 134.87 11.2527 134.87H10.8627V136.96ZM15.1623 139.49L14.9123 141H13.7023L15.0923 133.74H16.6323L18.0223 141H16.7523L16.5023 139.49H15.1623ZM16.3123 138.36L15.8323 135.46L15.3423 138.36H16.3123ZM20.8742 133.74C22.2542 133.74 22.8242 134.45 22.8242 135.88C22.8242 136.85 22.6042 137.47 22.0542 137.81L23.0542 141H21.7042L20.8942 138.09H20.3842V141H19.1242V133.74H20.8742ZM20.3842 136.96H20.7742C21.3042 136.96 21.5642 136.76 21.5642 135.89C21.5642 135.07 21.3042 134.87 20.7742 134.87H20.3842V136.96ZM27.9 139.24C27.9 140.39 27.35 141.1 26.04 141.1C24.74 141.1 24.2 140.39 24.2 139.24V135.5C24.2 134.35 24.74 133.65 26.04 133.65C27.35 133.65 27.9 134.35 27.9 135.5V139.24ZM25.46 139.25C25.46 139.78 25.66 139.98 26.04 139.98C26.44 139.98 26.64 139.78 26.64 139.25V135.5C26.64 134.98 26.44 134.77 26.04 134.77C25.66 134.77 25.46 134.98 25.46 135.5V139.25ZM30.3277 139.24C30.3277 139.77 30.5477 139.97 30.9477 139.97C31.3577 139.97 31.5877 139.74 31.5877 139.21C31.5877 138.6 31.0977 138.19 30.6077 137.8C29.9277 137.26 29.1477 136.61 29.1477 135.4C29.1477 134.32 29.8877 133.65 30.9477 133.65C32.1877 133.65 32.7477 134.35 32.7477 135.5V135.84H31.4877V135.5C31.4877 134.98 31.2977 134.77 30.9577 134.77C30.5977 134.77 30.4077 134.99 30.4077 135.4C30.4077 136.01 30.9577 136.46 31.4377 136.83C32.1377 137.37 32.8477 137.99 32.8477 139.2C32.8477 140.4 32.0677 141.1 30.9577 141.1C29.6577 141.1 29.0677 140.39 29.0677 139.24V138.75H30.3277V139.24ZM37.3045 133.74V134.87H36.0845V141H34.8345V134.87H33.6145V133.74H37.3045ZM42.0516 139.24C42.0516 140.39 41.5016 141.1 40.1916 141.1C38.8916 141.1 38.3516 140.39 38.3516 139.24V133.74H39.6116V139.25C39.6116 139.78 39.8116 139.98 40.1916 139.98C40.5916 139.98 40.7916 139.78 40.7916 139.25V133.74H42.0516V139.24ZM45.3469 133.74C46.7269 133.74 47.2969 134.45 47.2969 135.88C47.2969 136.85 47.0769 137.47 46.5269 137.81L47.5269 141H46.1769L45.3669 138.09H44.8569V141H43.5969V133.74H45.3469ZM44.8569 136.96H45.2469C45.7769 136.96 46.0369 136.76 46.0369 135.89C46.0369 135.07 45.7769 134.87 45.2469 134.87H44.8569V136.96Z" fill="#0078AE"/>
<rect x="1" y="150.5" width="49" height="49" stroke="black"/>
<path fill-rule="evenodd" clip-rule="evenodd" d="M24.1069 157.809C24.4719 157.991 24.8022 158.225 25.1006 158.498C24.1417 160.361 24.0374 162.965 25.005 165.404C25.2918 166.126 25.651 166.779 26.0624 167.355C24.5125 170.693 21.3663 172.361 18.8371 171.097C16.1834 169.77 15.2099 165.722 16.6643 162.052C18.1186 158.381 21.4503 156.483 24.1069 157.809Z" fill="#231F20"/>
<path d="M20.6305 172.452C19.8859 172.452 19.1674 172.283 18.5011 171.948C16.983 171.191 15.885 169.679 15.4099 167.693C14.9493 165.778 15.126 163.638 15.9082 161.668C17.1482 158.547 19.7237 156.447 22.3223 156.447C23.0669 156.447 23.7825 156.616 24.4517 156.951C24.8776 157.165 25.2745 157.442 25.6366 157.773L26.1842 158.277L25.8307 158.966C24.9732 160.631 24.9529 162.952 25.7757 165.023C26.0248 165.654 26.3435 166.239 26.7201 166.763L27.062 167.241L26.8099 167.784C25.4946 170.619 23.0727 172.452 20.6334 172.452H20.6305ZM22.3194 158.323C20.3697 158.323 18.4055 159.974 17.4292 162.432C16.8034 164.009 16.6556 165.706 17.0178 167.208C17.3596 168.639 18.1274 169.718 19.1761 170.238C21.1287 171.22 23.684 169.946 25.0688 167.426C24.7501 166.916 24.472 166.363 24.2431 165.784C23.3131 163.437 23.2465 160.898 24.0316 158.81C23.9447 158.755 23.8578 158.706 23.7651 158.661C23.3132 158.437 22.8235 158.323 22.3166 158.323H22.3194Z" fill="#231F20"/>
<path fill-rule="evenodd" clip-rule="evenodd" d="M27.1774 156.362C24.5237 157.689 23.5503 161.736 25.0046 165.407C26.459 169.078 29.7906 170.976 32.4472 169.65C35.101 168.323 36.0744 164.276 34.62 160.605C33.1657 156.934 29.8341 155.036 27.1774 156.362Z" fill="#231F20"/>
<path d="M30.6603 171.006C28.0616 171.006 25.4861 168.909 24.249 165.784C23.4668 163.814 23.2901 161.675 23.7507 159.76C24.2287 157.777 25.3267 156.265 26.8419 155.504C27.5111 155.169 28.2267 155 28.9713 155C31.5671 155 34.1455 157.097 35.3825 160.218C37.0194 164.354 35.8576 168.964 32.7896 170.502C32.1204 170.837 31.4048 171.006 30.6603 171.006ZM28.9713 156.876C28.4614 156.876 27.9718 156.99 27.5198 157.217C26.4711 157.741 25.7034 158.82 25.3615 160.247C24.9994 161.749 25.1471 163.443 25.7729 165.023C26.7463 167.481 28.7134 169.133 30.6632 169.133C31.1702 169.133 31.6598 169.019 32.1146 168.792C34.3425 167.676 35.1276 164.175 33.8615 160.982C32.8852 158.524 30.921 156.876 28.9742 156.876H28.9713Z" fill="#231F20"/>
<path fill-rule="evenodd" clip-rule="evenodd" d="M28.539 159.792C27.134 160.563 26.9457 164.237 27.3657 165.296C25.5377 163.528 25.9317 158.966 27.9104 158.215L28.539 159.795V159.792Z" fill="white"/>
<path fill-rule="evenodd" clip-rule="evenodd" d="M22.2991 161.141C20.7376 161.021 18.9414 164.097 18.8313 165.251C18.0375 162.692 20.4102 158.963 22.4584 159.421L22.2991 161.141Z" fill="white"/>
<path d="M10.7112 180.996C10.7112 181.526 10.9312 181.726 11.3312 181.726C11.7412 181.726 11.9712 181.496 11.9712 180.966C11.9712 180.356 11.4812 179.946 10.9912 179.556C10.3112 179.016 9.53121 178.366 9.53121 177.156C9.53121 176.076 10.2712 175.406 11.3312 175.406C12.5712 175.406 13.1312 176.106 13.1312 177.256V177.596H11.8712V177.256C11.8712 176.736 11.6812 176.526 11.3412 176.526C10.9812 176.526 10.7912 176.746 10.7912 177.156C10.7912 177.766 11.3412 178.216 11.8212 178.586C12.5212 179.126 13.2312 179.746 13.2312 180.956C13.2312 182.156 12.4512 182.856 11.3412 182.856C10.0412 182.856 9.45121 182.146 9.45121 180.996V180.506H10.7112V180.996ZM18.318 175.496L16.928 182.756H15.388L13.998 175.496H15.318L16.188 180.756L17.058 175.496H18.318ZM20.1846 181.246L19.9346 182.756H18.7246L20.1146 175.496H21.6546L23.0446 182.756H21.7746L21.5246 181.246H20.1846ZM21.3346 180.116L20.8546 177.216L20.3646 180.116H21.3346ZM25.8964 175.496C27.2764 175.496 27.8464 176.206 27.8464 177.636C27.8464 178.606 27.6264 179.226 27.0764 179.566L28.0764 182.756H26.7264L25.9164 179.846H25.4064V182.756H24.1464V175.496H25.8964ZM25.4064 178.716H25.7964C26.3264 178.716 26.5864 178.516 26.5864 177.646C26.5864 176.826 26.3264 176.626 25.7964 176.626H25.4064V178.716ZM32.4634 175.496V176.626H31.2434V182.756H29.9934V176.626H28.7734V175.496H32.4634ZM34.1689 181.246L33.9189 182.756H32.7089L34.0989 175.496H35.6389L37.0289 182.756H35.7589L35.5089 181.246H34.1689ZM35.3189 180.116L34.8389 177.216L34.3489 180.116H35.3189ZM39.8808 175.496C41.2608 175.496 41.8308 176.206 41.8308 177.636C41.8308 178.606 41.6108 179.226 41.0608 179.566L42.0608 182.756H40.7108L39.9008 179.846H39.3908V182.756H38.1308V175.496H39.8808ZM39.3908 178.716H39.7808C40.3108 178.716 40.5708 178.516 40.5708 177.646C40.5708 176.826 40.3108 176.626 39.7808 176.626H39.3908V178.716ZM15.0009 186.906H14.0209L14.6409 185.666H15.9309L15.0009 186.906ZM16.5209 192.996C16.5209 194.146 15.9709 194.856 14.6609 194.856C13.3609 194.856 12.8209 194.146 12.8209 192.996V189.256C12.8209 188.106 13.3609 187.406 14.6609 187.406C15.9709 187.406 16.5209 188.106 16.5209 189.256V192.996ZM14.0809 193.006C14.0809 193.536 14.2809 193.736 14.6609 193.736C15.0609 193.736 15.2609 193.536 15.2609 193.006V189.256C15.2609 188.736 15.0609 188.526 14.6609 188.526C14.2809 188.526 14.0809 188.736 14.0809 189.256V193.006ZM19.2785 187.496V193.626H21.2785V194.756H18.0185V187.496H19.2785ZM23.4514 186.906H22.4714L23.0914 185.666H24.3814L23.4514 186.906ZM23.7314 187.496V194.756H22.4814V187.496H23.7314ZM28.593 187.496V188.626H26.593V190.466H28.263V191.596H26.593V194.756H25.333V187.496H28.593ZM33.4459 192.996C33.4459 194.146 32.8959 194.856 31.5859 194.856C30.2859 194.856 29.7459 194.146 29.7459 192.996V187.496H31.0059V193.006C31.0059 193.536 31.2059 193.736 31.5859 193.736C31.9859 193.736 32.1859 193.536 32.1859 193.006V187.496H33.4459V192.996ZM36.7412 187.496C38.1212 187.496 38.6912 188.206 38.6912 189.636C38.6912 190.606 38.4712 191.226 37.9212 191.566L38.9212 194.756H37.5712L36.7612 191.846H36.2512V194.756H34.9912V187.496H36.7412ZM36.2512 190.716H36.6412C37.1712 190.716 37.4312 190.516 37.4312 189.646C37.4312 188.826 37.1712 188.626 36.6412 188.626H36.2512V190.716Z" fill="#0078AE"/>
<rect x="1" y="200.5" width="49" height="49" stroke="black"/>
<path d="M25.3123 204.241C25.1091 203.716 24.8395 202.913 24.623 202.249C24.5125 201.917 23.969 201.917 23.8585 202.249C23.642 202.916 23.3724 203.716 23.1692 204.241C22.8289 205.127 22.144 206.218 22.144 206.218L22.4136 206.275C22.471 206.287 22.5285 206.313 22.5727 206.348L23.9867 207.388C24.1325 207.496 24.349 207.496 24.4992 207.388L25.9133 206.348C25.9575 206.313 26.0149 206.291 26.0723 206.275L26.3419 206.218C26.3419 206.218 25.657 205.127 25.3168 204.241H25.3123Z" fill="#7EBE50" stroke="#231F20" stroke-miterlimit="10"/>
<path d="M21.3886 205.475C20.3015 204.972 19.1924 204.653 18.1717 204.517C17.8403 204.472 17.6591 204.823 17.9242 204.997C18.724 205.522 19.4973 206.231 20.1557 207.081C21.3267 208.602 21.8436 210.225 21.6757 211.449C21.6536 211.607 21.7995 211.743 21.9851 211.749C23.4698 211.812 24.6761 211.449 25.1931 210.652C26.1343 209.203 24.4287 206.885 21.3886 205.475Z" fill="#7EBE50" stroke="#231F20" stroke-miterlimit="10"/>
<path d="M27.3271 205.453C28.4539 204.994 29.5851 204.722 30.6147 204.63C30.9505 204.599 31.1007 204.959 30.8223 205.121C29.9828 205.611 29.152 206.284 28.4273 207.11C27.1326 208.58 26.4875 210.177 26.5582 211.407C26.567 211.566 26.4124 211.695 26.2224 211.695C24.7332 211.695 23.5579 211.284 23.1072 210.468C22.2853 208.982 24.1765 206.74 27.3271 205.456V205.453Z" fill="#446B2C" stroke="#231F20" stroke-miterlimit="10"/>
<path d="M19.2631 207.805C17.858 207.429 16.4926 207.268 15.2907 207.293C14.9018 207.303 14.8178 207.733 15.1758 207.881C16.2628 208.33 17.3851 208.994 18.4236 209.842C20.2794 211.357 21.4284 213.096 21.6626 214.513C21.6935 214.693 21.9055 214.823 22.1176 214.798C23.8189 214.605 25.0606 213.975 25.3655 212.985C25.9267 211.177 23.1914 208.858 19.2543 207.805H19.2631Z" fill="#7EBE50" stroke="#231F20" stroke-miterlimit="10"/>
<path d="M28.8034 208.122C30.2395 207.688 31.6491 207.48 32.8996 207.47C33.3061 207.47 33.4166 207.913 33.0542 208.077C31.9495 208.577 30.8227 209.301 29.7932 210.212C27.955 211.841 26.8635 213.681 26.7 215.161C26.6779 215.351 26.4659 215.49 26.2449 215.471C24.4642 215.323 23.1429 214.706 22.7629 213.684C22.0736 211.825 24.7823 209.333 28.8034 208.119V208.122Z" fill="#446B2C" stroke="#231F20" stroke-miterlimit="10"/>
<path d="M17.067 210.851C15.5514 210.529 14.0976 210.427 12.8338 210.519C12.4229 210.548 12.3787 211.006 12.772 211.145C13.9606 211.563 15.2111 212.205 16.3909 213.043C18.4987 214.539 19.8818 216.313 20.275 217.793C20.3236 217.982 20.5623 218.106 20.7832 218.071C22.5551 217.78 23.7968 217.056 24.0222 215.993C24.4287 214.061 21.3179 211.762 17.067 210.854V210.851Z" fill="#7EBE50" stroke="#231F20" stroke-miterlimit="10"/>
<path d="M30.9333 210.851C32.4489 210.529 33.9027 210.427 35.1664 210.519C35.5774 210.548 35.6216 211.006 35.2283 211.145C34.0396 211.563 32.7892 212.205 31.6093 213.043C29.5016 214.539 28.1185 216.313 27.7252 217.793C27.6766 217.982 27.438 218.106 27.217 218.071C25.4451 217.78 24.2035 217.056 23.9781 215.993C23.5716 214.061 26.6824 211.762 30.9333 210.854V210.851Z" fill="#446B2C" stroke="#231F20" stroke-miterlimit="10"/>
<path d="M34.6006 222.368C34.6006 218.164 29.8397 214.756 23.9668 214.756C18.0939 214.756 13.333 218.164 13.333 222.368V228.57C13.333 232.774 18.0939 236.182 23.9668 236.182C29.8397 236.182 34.6006 232.774 34.6006 228.57V222.368Z" fill="#FFAF00" stroke="#231F20" stroke-miterlimit="10"/>
<path d="M20.4119 232.83C20.4119 231.511 19.073 230.331 16.9565 229.493C15.6308 230.018 14.6145 230.676 14.0356 231.416" stroke="#231F20" stroke-miterlimit="10"/>
<path d="M27.3807 232.83C27.3807 231.511 26.0418 230.331 23.9252 229.493C21.8086 230.331 20.4697 231.511 20.4697 232.83" stroke="#231F20" stroke-miterlimit="10"/>
<path d="M33.6814 231.293C33.0893 230.603 32.1127 229.99 30.8622 229.493C28.7456 230.331 27.4067 231.511 27.4067 232.83" stroke="#231F20" stroke-miterlimit="10"/>
<path d="M23.8675 236.008C23.8675 234.689 22.5286 233.509 20.412 232.671C19.0864 233.196 18.0701 233.854 17.4912 234.594" stroke="#231F20" stroke-miterlimit="10"/>
<path d="M30.3012 234.632C29.7268 233.876 28.6973 233.206 27.354 232.671C25.2374 233.509 23.8984 234.689 23.8984 236.008" stroke="#231F20" stroke-miterlimit="10"/>
<path d="M16.9033 229.601C16.9033 228.282 15.5643 227.103 13.4478 226.265" stroke="#231F20" stroke-miterlimit="10"/>
<path d="M23.8675 229.601C23.8675 228.282 22.5286 227.103 20.412 226.265C18.2954 227.103 16.9565 228.282 16.9565 229.601" stroke="#231F20" stroke-miterlimit="10"/>
<path d="M30.8094 229.601C30.8094 228.282 29.4705 227.103 27.354 226.265C25.2374 227.103 23.8984 228.282 23.8984 229.601" stroke="#231F20" stroke-miterlimit="10"/>
<path d="M34.3178 226.265C32.2012 227.103 30.8623 228.282 30.8623 229.601" stroke="#231F20" stroke-miterlimit="10"/>
<path d="M20.412 226.318C20.412 225 19.0731 223.82 16.9565 222.982C14.8399 223.82 13.501 225 13.501 226.318" stroke="#231F20" stroke-miterlimit="10"/>
<path d="M27.3807 226.318C27.3807 225 26.0418 223.82 23.9252 222.982C21.8086 223.82 20.4697 225 20.4697 226.318" stroke="#231F20" stroke-miterlimit="10"/>
<path d="M34.3182 226.318C34.3182 225 32.9793 223.82 30.8627 222.982C28.7461 223.82 27.4072 225 27.4072 226.318" stroke="#231F20" stroke-miterlimit="10"/>
<path d="M20.412 219.997C20.412 218.678 19.0731 217.498 16.9565 216.66" stroke="#231F20" stroke-miterlimit="10"/>
<path d="M27.3802 219.997C27.3802 218.678 26.0413 217.498 23.9248 216.66C21.8082 217.498 20.4692 218.678 20.4692 219.997" stroke="#231F20" stroke-miterlimit="10"/>
<path d="M30.8622 216.66C28.7456 217.498 27.4067 218.678 27.4067 219.997" stroke="#231F20" stroke-miterlimit="10"/>
<path d="M16.9033 223.174C16.9033 221.856 15.5643 220.676 13.4478 219.838" stroke="#231F20" stroke-miterlimit="10"/>
<path d="M23.8675 223.174C23.8675 221.856 22.5286 220.676 20.412 219.838C18.2954 220.676 16.9565 221.856 16.9565 223.174" stroke="#231F20" stroke-miterlimit="10"/>
<path d="M30.8094 223.174C30.8094 221.856 29.4705 220.676 27.354 219.838C25.2374 220.676 23.8984 221.856 23.8984 223.174" stroke="#231F20" stroke-miterlimit="10"/>
<path d="M34.3178 219.838C32.2012 220.676 30.8623 221.856 30.8623 223.174" stroke="#231F20" stroke-miterlimit="10"/>
<path d="M23.7524 216.66V214.889" stroke="#231F20" stroke-miterlimit="10"/>
<path d="M11.9329 245.49L11.6829 247H10.4729L11.8629 239.74H13.4029L14.7929 247H13.5229L13.2729 245.49H11.9329ZM13.0829 244.36L12.6029 241.46L12.1129 244.36H13.0829ZM15.8947 247V239.74H17.0347L18.7347 244.16V239.74H19.8847V247H18.8047L17.0547 242.61V247H15.8947ZM22.4407 245.49L22.1907 247H20.9807L22.3707 239.74H23.9107L25.3007 247H24.0307L23.7807 245.49H22.4407ZM23.5907 244.36L23.1107 241.46L22.6207 244.36H23.5907ZM26.4025 247V239.74H27.5425L29.2425 244.16V239.74H30.3925V247H29.3125L27.5625 242.61V247H26.4025ZM32.9485 245.49L32.6985 247H31.4885L32.8785 239.74H34.4185L35.8085 247H34.5385L34.2885 245.49H32.9485ZM34.0985 244.36L33.6185 241.46L33.1285 244.36H34.0985ZM37.8404 245.24C37.8404 245.77 38.0604 245.97 38.4604 245.97C38.8704 245.97 39.1004 245.74 39.1004 245.21C39.1004 244.6 38.6104 244.19 38.1204 243.8C37.4404 243.26 36.6604 242.61 36.6604 241.4C36.6604 240.32 37.4004 239.65 38.4604 239.65C39.7004 239.65 40.2604 240.35 40.2604 241.5V241.84H39.0004V241.5C39.0004 240.98 38.8104 240.77 38.4704 240.77C38.1104 240.77 37.9204 240.99 37.9204 241.4C37.9204 242.01 38.4704 242.46 38.9504 242.83C39.6504 243.37 40.3604 243.99 40.3604 245.2C40.3604 246.4 39.5804 247.1 38.4704 247.1C37.1704 247.1 36.5804 246.39 36.5804 245.24V244.75H37.8404V245.24Z" fill="#0078AE"/>
<rect x="1" y="250.5" width="49" height="49" stroke="black"/>
<path d="M27.5291 255.416C27.5291 255.416 38.6141 258.621 39.9169 260.823C41.2197 263.026 42.0914 266.433 40.5699 268.235C39.0484 270.038 34.2682 272.843 32.0937 273.845C29.9192 274.847 26.2168 275.452 26.2168 275.452C26.2168 275.452 30.3535 273.243 30.3535 268.034C30.3535 262.825 29.9192 259.021 28.8319 258.019C27.7447 257.017 27.5291 255.416 27.5291 255.416Z" fill="#C55450"/>
<path d="M21.8773 253.411C21.8773 253.411 29.7005 256.616 30.5722 259.821C31.4408 263.026 31.2252 270.438 29.2694 272.641C27.3136 274.844 25.1391 277.45 22.9678 277.649C20.7932 277.85 14.4916 276.647 13.4043 275.244C12.317 273.842 10.1457 269.836 9.92698 267.032C9.70826 264.227 9.70826 261.223 10.7955 259.219C11.8828 257.215 12.5358 255.813 13.8386 255.012C15.1414 254.212 18.1845 253.209 18.1845 253.209L21.8805 253.411H21.8773Z" fill="white"/>
<path d="M38.1892 258.653C34.8007 256.923 30.4294 254.998 27.0408 253.531C24.9487 252.517 22.584 251.989 20.2035 252C20.2035 252 20.2035 252 20.2003 252C18.6946 252.009 17.227 252.333 15.8449 252.967C11.3437 255.03 8.46233 259.932 8.50037 265.463C8.55426 272.849 13.886 278.826 20.3873 278.788C20.7645 278.788 21.1386 278.765 21.5126 278.721C23.3416 278.578 25.1326 278.137 26.7461 277.398C26.895 277.327 27.0472 277.257 27.1962 277.181L38.259 272.11C41.0991 270.915 42.8711 268.329 42.8521 265.381C42.833 262.392 41.0136 259.795 38.1892 258.647V258.653ZM10.621 265.454C10.5893 260.742 13.0681 256.429 16.7895 254.723C17.88 254.224 19.0338 253.966 20.2161 253.958C25.5478 253.926 29.9222 259.032 29.9666 265.34C29.9983 270.053 27.5195 274.365 23.7981 276.071C22.9929 276.439 22.1529 276.676 21.2939 276.778C20.9864 276.802 20.6821 276.837 20.3715 276.837C15.0398 276.869 10.6654 271.762 10.621 265.454ZM37.346 270.354L29.358 274.014C31.1078 271.642 32.1094 268.598 32.0873 265.328C32.0651 261.998 30.9588 258.959 29.1647 256.625C31.8749 257.823 34.7911 259.155 37.2446 260.406C39.3811 261.279 40.7156 263.193 40.7283 265.402C40.7441 267.572 39.4318 269.392 37.3429 270.354H37.346Z" fill="#231F20"/>
<path fill-rule="evenodd" clip-rule="evenodd" d="M20.2288 255.67C23.6237 255.649 26.5621 257.96 27.9156 261.3C27.9886 261.481 27.9727 261.665 27.8681 261.832C27.7635 261.998 27.5987 262.103 27.3926 262.135C25.7348 262.393 24.6792 263.69 22.9516 264.35C22.4667 263.669 21.4428 263.237 20.9103 263.24C20.3777 263.243 20.4316 263.281 20.2066 263.354C19.0369 261.832 17.5312 259.155 16.7292 257.18C16.6088 256.882 16.7451 256.552 17.0494 256.406C18.0289 255.936 19.1035 255.673 20.2288 255.667V255.67ZM28.6701 264.546C28.6923 264.812 28.7018 265.08 28.7049 265.349C28.743 270.722 25.0089 275.099 20.3651 275.125C19.5282 275.131 18.7199 274.993 17.9591 274.736C17.6326 274.625 17.452 274.31 17.5344 274C18.1842 271.552 19.6614 270.553 20.4063 269.223C20.5838 269.267 20.14 269.29 20.9547 269.287C21.7693 269.282 23.5824 267.92 23.5444 266.252V266.156C25.2308 265.501 26.2547 264.216 27.8903 263.976C28.0837 263.947 28.2643 263.991 28.4196 264.105C28.575 264.218 28.6606 264.368 28.6764 264.549L28.6701 264.546ZM14.7418 272.682C14.9098 272.855 15.1507 272.925 15.3979 272.872C15.6451 272.82 15.829 272.659 15.8987 272.434C16.5961 270.179 18.0701 269.29 18.8087 268.019C18.5044 267.529 18.3205 266.901 18.3173 266.278C18.3142 265.656 18.46 265.124 18.7136 264.657C17.5629 263.219 16.0572 260.707 15.2838 258.93C15.1887 258.714 14.989 258.571 14.7386 258.542C14.4882 258.513 14.2568 258.603 14.1046 258.793C12.7099 260.54 11.8667 262.88 11.8825 265.448C11.9016 268.329 13.0047 270.912 14.7354 272.682H14.7418Z" fill="#E31937"/>
<path d="M3.3 293V285.74H4.44L6.14 290.16V285.74H7.29V293H6.21L4.46 288.61V293H3.3ZM9.84594 291.49L9.59594 293H8.38594L9.77594 285.74H11.3159L12.7059 293H11.4359L11.1859 291.49H9.84594ZM10.9959 290.36L10.5159 287.46L10.0259 290.36H10.9959ZM17.4578 291.24C17.4578 292.39 16.9078 293.1 15.5978 293.1C14.2978 293.1 13.7578 292.39 13.7578 291.24V285.74H15.0178V291.25C15.0178 291.78 15.2178 291.98 15.5978 291.98C15.9978 291.98 16.1978 291.78 16.1978 291.25V285.74H17.4578V291.24ZM22.1931 285.74V286.87H20.9731V293H19.7231V286.87H18.5031V285.74H22.1931ZM23.8987 291.49L23.6487 293H22.4387L23.8287 285.74H25.3687L26.7587 293H25.4887L25.2387 291.49H23.8987ZM25.0487 290.36L24.5687 287.46L24.0787 290.36H25.0487ZM29.1205 289.74V293H27.8605V285.74H29.1205V288.61H30.3705V285.74H31.6305V293H30.3705V289.74H29.1205ZM34.1916 291.49L33.9416 293H32.7316L34.1216 285.74H35.6616L37.0516 293H35.7816L35.5316 291.49H34.1916ZM35.3416 290.36L34.8616 287.46L34.3716 290.36H35.3416ZM39.4135 285.74V288.39L40.7835 285.74H42.1835L40.4835 288.62L42.2635 293H40.8435L39.7235 289.7L39.4135 290.16V293H38.1535V285.74H39.4135ZM44.4721 285.74V288.39L45.8421 285.74H47.2421L45.5421 288.62L47.3221 293H45.9021L44.7821 289.7L44.4721 290.16V293H43.2121V285.74H44.4721Z" fill="#0078AE"/>
</svg>
