<svg width="150" height="970" viewBox="0 0 150 970" fill="none" xmlns="http://www.w3.org/2000/svg">
<path fill-rule="evenodd" clip-rule="evenodd" d="M34.0272 19.2326C27.1957 12.3575 17.7962 9.85525 9.67665 11.9309C6.8397 12.6529 4.7772 14.7285 4.05981 17.5836C2.00546 25.7549 4.48372 35.2143 11.3152 42.0894C19.3451 50.1705 30.9131 52.2051 39.7908 47.8897C44.0788 38.9554 42.0571 27.3137 34.0272 19.2408V19.2326Z" fill="#B6EF18"/>
<path d="M10.4427 42.959C3.52969 36.0019 0.627524 26.1569 2.86122 17.2718C3.68459 13.9983 6.11393 11.5453 9.3748 10.7167C18.0406 8.50977 28.0922 11.4961 34.8993 18.3466C43.1411 26.641 45.5541 38.7257 40.8993 48.4148L40.7118 48.8086L40.3286 48.9973C37.1411 50.5479 33.6601 51.3355 29.9754 51.3355C22.8585 51.3355 15.7335 48.2835 10.4509 42.959H10.4427ZM33.1547 20.1105C26.9509 13.8671 17.8286 11.1351 9.97806 13.1287C7.58132 13.7358 5.86122 15.4751 5.24981 17.8871C3.22807 25.9272 5.88567 34.8615 12.1873 41.2034C17.0134 46.0684 23.4944 48.8497 29.9672 48.8497C33.1221 48.8497 36.1139 48.2097 38.8612 46.9463C42.8069 38.2663 40.5406 27.5352 33.1547 20.1023V20.1105Z" fill="#231F20"/>
<path fill-rule="evenodd" clip-rule="evenodd" d="M45.2366 51.2367C35.1523 39.5704 20.3888 31.596 12.2773 18.8057C16.4757 32.8922 33.7665 42.0563 42.2855 53.739L45.2366 51.2367Z" fill="#231F20"/>
<path fill-rule="evenodd" clip-rule="evenodd" d="M28.1332 37.2652C18.8152 38.7337 15.5951 38.1102 12.0815 36.0264C17.8207 41.7447 28.5163 39.7182 28.5489 39.71L28.1332 37.2652Z" fill="#231F20"/>
<path fill-rule="evenodd" clip-rule="evenodd" d="M31.2065 41.1704C35.0218 32.4904 35.2582 29.2005 34.1739 25.2461C38.1767 32.3099 33.4565 42.1795 33.4484 42.2041L31.2065 41.1704Z" fill="#231F20"/>
<path fill-rule="evenodd" clip-rule="evenodd" d="M22.7607 32.4577C25.0026 27.3629 25.1412 25.435 24.5053 23.105C26.8531 27.2481 24.0895 33.0484 24.0814 33.0648L22.7689 32.4577H22.7607Z" fill="#231F20"/>
<path d="M55.5642 116.857L52.1337 134.775H48.333L44.9024 116.857H48.1602L50.3074 129.839L52.4545 116.857H55.5642ZM66.0825 116.857V119.646H61.3933V123.94H65.2681V126.729H61.3933V131.986H66.3293V134.775H58.2836V116.857H66.0825ZM78.4239 125.446V130.036C78.4239 133.171 77.0665 135.022 73.8334 135.022C70.625 135.022 69.2923 133.269 69.2923 130.431V121.201C69.2923 118.363 70.625 116.635 73.8334 116.635C77.0665 116.635 78.4239 118.363 78.4239 121.201V122.361H75.3142V121.201C75.3142 119.918 74.8206 119.399 73.8334 119.399C72.8955 119.399 72.4019 119.918 72.4019 121.201V130.456C72.4019 131.764 72.8955 132.258 73.8334 132.258C74.8206 132.258 75.4376 131.69 75.4376 130.209V128.21H73.9568V125.446H78.4239ZM84.2483 131.048L83.6313 134.775H80.6451L84.0756 116.857H87.8763L91.3068 134.775H88.1725L87.5555 131.048H84.2483ZM87.0865 128.259L85.9019 121.102L84.6926 128.259H87.0865ZM94.0262 134.775V116.857H96.8398L101.035 127.766V116.857H103.874V134.775H101.208L96.8891 123.94V134.775H94.0262ZM22.0475 146.857V153.397L25.4287 146.857H28.8839L24.6883 153.965L29.0813 164.775H25.5768L22.8126 156.631L22.0475 157.766V164.775H18.9378V146.857H22.0475ZM31.7564 162.258C32.5708 162.258 32.9904 161.813 32.9904 160.678V146.857H36.1001V160.925C36.1001 163.566 35.0142 165.022 32.0032 165.022H30.6705V162.258H31.7564ZM45.0144 145.401H42.5957L44.1259 142.341H47.3096L45.0144 145.401ZM48.9385 160.431C48.9385 163.269 47.5811 165.022 44.348 165.022C41.1396 165.022 39.8069 163.269 39.8069 160.431V146.857H42.9166V160.456C42.9166 161.764 43.4102 162.258 44.348 162.258C45.3352 162.258 45.8288 161.764 45.8288 160.456V146.857H48.9385V160.431ZM55.862 146.857V153.397L59.2432 146.857H62.6984L58.5028 153.965L62.8958 164.775H59.3912L56.6271 156.631L55.862 157.766V164.775H52.7523V146.857H55.862ZM68.3466 146.857V161.986H73.2826V164.775H65.2369V146.857H68.3466ZM79.3363 146.857V164.775H76.2513V146.857H79.3363ZM83.289 164.775V146.857H86.1025L90.2981 157.766V146.857H93.1363V164.775H90.4709L86.1519 153.94V164.775H83.289ZM105.96 155.446V160.036C105.96 163.171 104.603 165.022 101.369 165.022C98.161 165.022 96.8283 163.269 96.8283 160.431V151.201C96.8283 148.363 98.161 146.635 101.369 146.635C104.603 146.635 105.96 148.363 105.96 151.201V152.361H102.85V151.201C102.85 149.918 102.357 149.399 101.369 149.399C100.432 149.399 99.938 149.918 99.938 151.201V160.456C99.938 161.764 100.432 162.258 101.369 162.258C102.357 162.258 102.974 161.69 102.974 160.209V158.21H101.493V155.446H105.96ZM118.423 160.431C118.423 163.269 117.066 165.022 113.833 165.022C110.624 165.022 109.292 163.269 109.292 160.431V146.857H112.401V160.456C112.401 161.764 112.895 162.258 113.833 162.258C114.82 162.258 115.314 161.764 115.314 160.456V146.857H118.423V160.431ZM126.556 146.857C129.962 146.857 131.369 148.61 131.369 152.139C131.369 154.533 130.826 156.063 129.468 156.902L131.936 164.775H128.605L126.605 157.593H125.347V164.775H122.237V146.857H126.556ZM125.347 154.804H126.309C127.617 154.804 128.259 154.311 128.259 152.163C128.259 150.14 127.617 149.646 126.309 149.646H125.347V154.804Z" fill="#0078AE"/>
<path fill-rule="evenodd" clip-rule="evenodd" d="M86.5826 44.7154C89.713 45.8968 93.1614 47.1438 95.3135 48.0135C114.545 55.7746 109.156 84.9979 88.2212 84.9979H48.675C34.8081 84.9979 23.5581 73.6843 23.5581 59.7208C23.5581 45.7574 34.8 34.4438 48.675 34.4438C49.7837 34.411 50.9739 34.4602 52.2456 34.5751C55.5228 32.7619 59.7619 31.4411 65.0527 30.916C72.732 30.153 80.2646 31.4575 83.7701 34.7145C86.5336 37.2742 87.2266 40.8841 86.5744 44.7072L86.5826 44.7154Z" fill="#F89A2C"/>
<path fill-rule="evenodd" clip-rule="evenodd" d="M66.0472 46.1022C62.1423 43.4522 53.8353 45.0438 51.4956 50.4586C52.6206 38.2097 64.0418 38.1523 68.7701 42.3282L66.0472 46.1022Z" fill="white"/>
<path fill-rule="evenodd" clip-rule="evenodd" d="M96.2432 45.667C94.7921 45.0845 92.7459 44.3133 90.6019 43.5175C89.3301 43.0417 88.0339 42.5576 86.8029 42.09C86.8029 41.007 86.6155 39.9815 86.3383 38.997L88.1154 37.6023C89.5584 39.2842 93.072 40.1046 95.2731 38.3735C98.6073 35.7564 97.4334 29.2341 92.2649 29.0618C93.3573 23.9752 87.3492 21.2432 84.0231 23.8522C81.822 25.575 81.7568 29.2095 83.0285 31.0308L80.7703 32.8029C76.8002 30.9816 70.9877 30.3334 65.0693 30.9159C61.9144 31.2277 59.1426 31.8348 56.7133 32.647C53.6399 32.1055 50.9415 31.8348 48.6834 31.9168C33.447 31.9168 21.0557 44.3872 21.0557 59.7208C21.0557 75.0543 33.447 87.5165 48.6834 87.5165H88.2296C100.45 87.5165 107.607 78.6888 109.287 69.9514C110.974 61.1565 107.599 50.2367 96.2513 45.6588L96.2432 45.667ZM104.346 68.9997C103.156 75.2184 98.216 82.4709 88.2214 82.4709H48.6752C36.2106 82.4709 26.0693 72.2649 26.0693 59.729C26.0693 47.193 36.2105 36.9788 48.7404 36.9788C48.7567 36.9788 48.7812 36.9788 48.7975 36.9788C40.5231 44.0016 41.9089 54.8803 49.3274 58.8675C40.2948 43.1073 56.1019 35.1821 68.6318 35.9287C81.1616 36.6753 90.4225 46.1018 68.2975 65.037C74.8356 64.6515 83.3301 55.7828 85.9714 47.1848C86.9252 47.5458 87.8953 47.9068 88.8491 48.2595C90.9443 49.0389 92.9415 49.7773 94.3682 50.3516C103.058 53.8548 105.634 62.2394 104.338 68.9915L104.346 68.9997Z" fill="#231F20"/>
<path d="M83.0789 182.517C83.0789 182.517 131.482 194.263 137.171 202.336C142.859 210.409 146.666 222.894 140.022 229.501C133.378 236.107 112.505 246.386 103.01 250.059C93.5152 253.732 77.3486 255.948 77.3486 255.948C77.3486 255.948 95.4115 247.853 95.4115 228.762C95.4115 209.671 93.5152 195.73 88.7677 192.057C84.0201 188.384 83.0789 182.517 83.0789 182.517Z" fill="#C55450"/>
<path d="M58.4124 175.172C58.4124 175.172 92.5726 186.918 96.3789 198.664C100.171 210.41 99.2302 237.575 90.6902 245.649C82.1501 253.722 72.6551 263.273 63.1738 264.001C53.6787 264.74 26.1622 260.328 21.4147 255.189C16.6671 250.049 7.18588 235.369 6.23083 225.09C5.27579 214.811 5.27577 203.804 10.0233 196.459C14.7709 189.113 17.6222 183.974 23.3109 181.04C28.9997 178.106 42.2873 174.434 42.2873 174.434L58.4262 175.172H58.4124Z" fill="white"/>
<path d="M129.639 194.381C114.843 188.043 95.7554 180.986 80.9591 175.611C71.8239 171.896 61.4984 169.958 51.1036 170.001C51.1036 170.001 51.1036 170.001 51.0897 170.001C44.5151 170.033 38.1066 171.221 32.0718 173.545C12.4173 181.104 -0.16447 199.071 0.00162465 219.34C0.236926 246.409 23.5179 268.327 51.9063 268.177C53.5535 268.177 55.1867 268.091 56.82 267.931C64.8064 267.406 72.6267 265.789 79.6719 263.08C80.3363 262.823 80.9868 262.566 81.6374 262.288L129.943 243.7C142.345 239.32 150.082 229.844 149.999 219.041C149.916 208.087 141.971 198.568 129.639 194.36V194.381ZM9.26143 219.308C9.12302 202.037 19.9469 186.233 36.1965 179.98C40.9579 178.149 45.9961 177.207 51.1589 177.175C74.4399 177.057 93.5409 195.773 93.7346 218.891C93.873 236.162 83.0492 251.966 66.7996 258.219C63.2839 259.568 59.6159 260.436 55.865 260.81C54.5224 260.896 53.1936 261.024 51.8372 261.024C28.5562 261.142 9.45521 242.426 9.26143 219.308ZM125.957 237.265L91.0771 250.681C98.7175 241.987 103.091 230.83 102.994 218.848C102.884 206.641 98.0669 195.506 90.2328 186.94C102.067 191.33 114.815 196.212 125.514 200.795C134.843 203.997 140.67 211.01 140.726 219.105C140.795 227.061 135.065 233.731 125.943 237.254L125.957 237.265Z" fill="#231F20"/>
<path fill-rule="evenodd" clip-rule="evenodd" d="M51.1999 183.449C66.0238 183.374 78.8547 191.844 84.7649 204.082C85.0833 204.746 85.0141 205.421 84.5573 206.031C84.1005 206.641 83.3808 207.027 82.4811 207.145C75.2421 208.087 70.633 212.841 63.0895 215.261C60.9718 212.766 56.5011 211.181 54.1758 211.192C51.8504 211.203 52.0857 211.342 51.103 211.61C45.9956 206.031 39.421 196.223 35.9191 188.985C35.3932 187.893 35.9883 186.683 37.3171 186.147C41.594 184.424 46.2862 183.46 51.1999 183.438V183.449ZM88.0591 215.978C88.156 216.953 88.1976 217.938 88.2114 218.923C88.3775 238.614 72.0725 254.653 51.7951 254.75C48.141 254.771 44.6114 254.268 41.2895 253.326C39.8639 252.919 39.0749 251.762 39.4348 250.628C42.2722 241.655 48.7223 237.993 51.975 233.121C52.7501 233.281 50.8123 233.367 54.3695 233.356C57.9267 233.335 65.8439 228.345 65.6778 222.231V221.878C73.0414 219.48 77.5121 214.768 84.6542 213.89C85.4985 213.783 86.2874 213.944 86.9657 214.361C87.6439 214.779 88.0176 215.325 88.0868 215.989L88.0591 215.978ZM27.2406 245.798C27.9742 246.43 29.0262 246.687 30.1058 246.494C31.1854 246.302 31.9882 245.713 32.2927 244.888C35.3378 236.622 41.774 233.367 44.999 228.709C43.6702 226.911 42.8674 224.608 42.8536 222.328C42.8397 220.047 43.4764 218.098 44.5837 216.385C39.5594 211.117 32.9848 201.909 29.6075 195.399C29.1923 194.606 28.3203 194.082 27.2268 193.975C26.1334 193.867 25.123 194.199 24.4586 194.895C18.3684 201.298 14.6866 209.875 14.7558 219.287C14.8389 229.844 19.6556 239.31 27.213 245.798H27.2406Z" fill="#FFADA7"/>
<path d="M21.0631 307.534C21.0631 308.842 21.6061 309.336 22.5933 309.336C23.6051 309.336 24.1728 308.768 24.1728 307.46C24.1728 305.955 22.9635 304.943 21.7541 303.98C20.0759 302.648 18.1509 301.043 18.1509 298.057C18.1509 295.392 19.9772 293.738 22.5933 293.738C25.6536 293.738 27.0357 295.466 27.0357 298.304V299.143H23.926V298.304C23.926 297.021 23.4571 296.502 22.6179 296.502C21.7295 296.502 21.2605 297.045 21.2605 298.057C21.2605 299.563 22.6179 300.673 23.8026 301.586C25.5302 302.919 27.2825 304.449 27.2825 307.436C27.2825 310.397 25.3574 312.125 22.6179 312.125C19.4095 312.125 17.9534 310.372 17.9534 307.534V306.325H21.0631V307.534ZM33.5186 293.96V300.5L36.8998 293.96H40.355L36.1594 301.068L40.5524 311.878H37.0478L34.2837 303.734L33.5186 304.869V311.878H30.4089V293.96H33.5186ZM45.9785 293.96V311.878H42.8935V293.96H45.9785ZM49.9312 311.878V293.96H52.7447L56.9403 304.869V293.96H59.7785V311.878H57.1131L52.7941 301.043V311.878H49.9312ZM66.827 293.96V300.5L70.2081 293.96H73.6633L69.4677 301.068L73.8608 311.878H70.3562L67.592 303.734L66.827 304.869V311.878H63.7173V293.96H66.827ZM78.5712 308.151L77.9542 311.878H74.9679L78.3984 293.96H82.1991L85.6296 311.878H82.4953L81.8783 308.151H78.5712ZM81.4094 305.362L80.2247 298.205L79.0154 305.362H81.4094Z" fill="#0078AE"/>
<path fill-rule="evenodd" clip-rule="evenodd" d="M30.4265 333.858H134.333V351.267C130.106 351.267 126.674 354.652 126.674 358.822C126.674 362.992 130.106 366.377 134.333 366.377V418.777H30.4265C15.8395 418.777 3.91064 407.009 3.91064 392.62V360.026C3.91064 345.636 15.8395 333.869 30.4265 333.869V333.858Z" fill="#F8DE18"/>
<path d="M134.322 355.125H138.233V330H30.4267C13.6501 330 0 343.465 0 360.026V392.62C0 409.17 13.6501 422.646 30.4267 422.646H138.233V362.519H134.322C132.252 362.519 130.575 360.864 130.575 358.822C130.575 356.78 132.252 355.125 134.322 355.125ZM7.81093 392.609V360.015C7.81093 347.871 17.7135 338.017 29.9583 337.759C23.7923 343.261 19.8814 351.181 19.8814 360.015V392.609C19.8814 401.443 23.7923 409.363 29.9583 414.865C17.7135 414.618 7.81093 404.753 7.81093 392.609ZM130.411 348.076C125.945 349.655 122.753 353.879 122.753 358.811C122.753 363.744 125.945 367.967 130.411 369.547V414.908H50.3081C37.8455 414.908 27.7032 404.903 27.7032 392.609V360.015C27.7032 347.721 37.8455 337.716 50.3081 337.716H130.411V348.076Z" fill="#231F20"/>
<path d="M48.1853 353.17H40.2437V361.004H48.1853V353.17Z" fill="#961600"/>
<path d="M76.7912 347.69H71.6274V352.784H76.7912V347.69Z" fill="#961600"/>
<path d="M72.8136 361.003H61.6909V371.976H72.8136V361.003Z" fill="#961600"/>
<path d="M49.7871 381.776H47.4014V384.13H49.7871V381.776Z" fill="#961600"/>
<path d="M81.1619 388.042H76.7935V392.351H81.1619V388.042Z" fill="#961600"/>
<path d="M103.406 378.639H99.8325V382.164H103.406V378.639Z" fill="#961600"/>
<path d="M103.013 351.6H99.0366V355.523H103.013V351.6Z" fill="#961600"/>
<path d="M121.677 394.706H114.922V401.368H121.677V394.706Z" fill="#961600"/>
<path d="M92.6738 365.325H89.1006V368.85H92.6738V365.325Z" fill="#961600"/>
<path d="M56.9314 397.844H51.7676V402.938H56.9314V397.844Z" fill="#961600"/>
<path d="M14.3837 451.339C18.195 451.339 19.8086 453.315 19.8086 457.293C19.8086 461.466 18.195 463.441 14.3837 463.441H13.0205V471.537H9.51515V451.339H14.3837ZM13.0205 460.297H14.1055C15.5799 460.297 16.3032 459.741 16.3032 457.321C16.3032 455.039 15.5799 454.483 14.1055 454.483H13.0205V460.297ZM26.7668 451.339V471.537H23.2893V451.339H26.7668ZM36.0909 451.339C39.9022 451.339 41.5158 453.315 41.5158 457.293C41.5158 461.466 39.9022 463.441 36.0909 463.441H34.7277V471.537H31.2224V451.339H36.0909ZM34.7277 460.297H35.8127C37.2871 460.297 38.0104 459.741 38.0104 457.321C38.0104 455.039 37.2871 454.483 35.8127 454.483H34.7277V460.297ZM46.6892 467.336L45.9937 471.537H42.6275L46.4944 451.339H50.7787L54.6457 471.537H51.1126L50.4171 467.336H46.6892ZM49.8885 464.192L48.5531 456.124L47.1899 464.192H49.8885ZM62.5796 451.339C66.4188 451.339 68.0045 453.315 68.0045 457.293C68.0045 459.991 67.3925 461.716 65.8624 462.662L68.6444 471.537H64.8887L62.6353 463.441H61.2164V471.537H57.7111V451.339H62.5796ZM61.2164 460.297H62.3014C63.7759 460.297 64.4992 459.741 64.4992 457.321C64.4992 455.039 63.7759 454.483 62.3014 454.483H61.2164V460.297ZM82.1254 466.64C82.1254 469.84 80.5953 471.815 76.9508 471.815C73.3342 471.815 71.832 469.84 71.832 466.64V456.236C71.832 453.036 73.3342 451.089 76.9508 451.089C80.5953 451.089 82.1254 453.036 82.1254 456.236V466.64ZM75.3373 466.668C75.3373 468.143 75.8937 468.699 76.9508 468.699C78.0636 468.699 78.62 468.143 78.62 466.668V456.236C78.62 454.789 78.0636 454.205 76.9508 454.205C75.8937 454.205 75.3373 454.789 75.3373 456.236V466.668ZM88.8791 466.64C88.8791 468.115 89.4911 468.671 90.6039 468.671C91.7446 468.671 92.3844 468.031 92.3844 466.557C92.3844 464.86 91.0212 463.719 89.6581 462.634C87.7663 461.132 85.5963 459.324 85.5963 455.957C85.5963 452.953 87.655 451.089 90.6039 451.089C94.0536 451.089 95.6115 453.036 95.6115 456.236V457.182H92.1062V456.236C92.1062 454.789 91.5776 454.205 90.6318 454.205C89.6302 454.205 89.1017 454.817 89.1017 455.957C89.1017 457.654 90.6318 458.906 91.9671 459.936C93.9145 461.438 95.8897 463.163 95.8897 466.529C95.8897 469.867 93.7198 471.815 90.6318 471.815C87.0152 471.815 85.3738 469.84 85.3738 466.64V465.277H88.8791V466.64ZM108.289 451.339V454.483H104.895V471.537H101.417V454.483H98.023V451.339H108.289ZM121.495 466.64C121.495 469.84 119.965 471.815 116.32 471.815C112.704 471.815 111.202 469.84 111.202 466.64V451.339H114.707V466.668C114.707 468.143 115.263 468.699 116.32 468.699C117.433 468.699 117.99 468.143 117.99 466.668V451.339H121.495V466.64ZM130.663 451.339C134.502 451.339 136.087 453.315 136.087 457.293C136.087 459.991 135.475 461.716 133.945 462.662L136.727 471.537H132.972L130.718 463.441H129.299V471.537H125.794V451.339H130.663ZM129.299 460.297H130.384C131.859 460.297 132.582 459.741 132.582 457.321C132.582 455.039 131.859 454.483 130.384 454.483H129.299V460.297Z" fill="#0078AE"/>
<path fill-rule="evenodd" clip-rule="evenodd" d="M68.0251 499.264C69.2289 499.864 70.3181 500.636 71.3022 501.537C68.1398 507.681 67.7958 516.269 70.9869 524.31C71.9327 526.691 73.1175 528.846 74.4742 530.743C69.3627 541.755 58.9869 547.255 50.6461 543.084C41.8945 538.71 38.6844 525.361 43.4805 513.256C48.2767 501.151 59.264 494.889 68.0251 499.264Z" fill="#231F20"/>
<path d="M56.5602 547.555C54.1047 547.555 51.7353 546.998 49.5378 545.894C44.5315 543.395 40.9105 538.41 39.3436 531.859C37.8245 525.543 38.4073 518.488 40.9869 511.991C45.0761 501.698 53.5697 494.771 62.1397 494.771C64.5952 494.771 66.9551 495.329 69.1621 496.433C70.5665 497.141 71.8754 498.052 73.0697 499.146L74.8754 500.808L73.7099 503.081C70.8818 508.571 70.8149 516.226 73.5283 523.056C74.35 525.136 75.4009 527.066 76.6429 528.792L77.7704 530.368L76.9391 532.159C72.6015 541.508 64.6143 547.555 56.5697 547.555H56.5602ZM62.1302 500.958C55.7002 500.958 49.2226 506.405 46.0028 514.511C43.9392 519.711 43.4518 525.308 44.6461 530.261C45.7735 534.979 48.3054 538.538 51.764 540.254C58.2035 543.492 66.6302 539.289 71.1971 530.979C70.1462 529.296 69.2289 527.473 68.4741 525.565C65.4073 517.824 65.1875 509.45 67.7767 502.566C67.4901 502.384 67.2035 502.223 66.8977 502.073C65.4073 501.333 63.7927 500.958 62.1207 500.958H62.1302Z" fill="#231F20"/>
<path fill-rule="evenodd" clip-rule="evenodd" d="M78.1525 494.492C69.4009 498.867 66.1907 512.216 70.9869 524.321C75.7831 536.426 86.7703 542.687 95.5315 538.313C104.283 533.938 107.493 520.59 102.697 508.485C97.9009 496.379 86.9136 490.118 78.1525 494.492Z" fill="#231F20"/>
<path d="M89.6366 542.784C81.0665 542.784 72.5729 535.868 68.4933 525.565C65.9137 519.067 65.3308 512.012 66.8499 505.697C68.4264 499.157 72.0474 494.171 77.0442 491.662C79.2512 490.558 81.6111 490 84.0665 490C92.627 490 101.13 496.916 105.21 507.209C110.608 520.847 106.777 536.051 96.6589 541.122C94.4518 542.226 92.092 542.784 89.6366 542.784ZM84.0665 496.187C82.385 496.187 80.7703 496.562 79.2799 497.312C75.8213 499.039 73.2894 502.598 72.162 507.305C70.9678 512.259 71.4551 517.845 73.5188 523.056C76.7289 531.161 83.2162 536.608 89.6462 536.608C91.3181 536.608 92.9327 536.233 94.4327 535.482C101.78 531.805 104.369 520.257 100.194 509.728C96.9742 501.623 90.4965 496.187 84.0761 496.187H84.0665Z" fill="#231F20"/>
<path fill-rule="evenodd" clip-rule="evenodd" d="M82.6428 505.804C78.009 508.345 77.388 520.461 78.7734 523.956C72.7447 518.124 74.0441 503.081 80.5695 500.604L82.6428 505.815V505.804Z" fill="white"/>
<path fill-rule="evenodd" clip-rule="evenodd" d="M62.0633 510.254C56.9136 509.857 50.99 520 50.627 523.806C48.0091 515.368 55.834 503.07 62.5888 504.582L62.0633 510.254Z" fill="white"/>
<path d="M37.8993 595.325C37.8993 596.633 38.4423 597.126 39.4295 597.126C40.4413 597.126 41.009 596.559 41.009 595.251C41.009 593.745 39.7997 592.733 38.5903 591.771C36.9121 590.438 34.9871 588.834 34.9871 585.848C34.9871 583.182 36.8134 581.529 39.4295 581.529C42.4898 581.529 43.8719 583.256 43.8719 586.094V586.934H40.7622V586.094C40.7622 584.811 40.2933 584.293 39.4541 584.293C38.5657 584.293 38.0967 584.836 38.0967 585.848C38.0967 587.353 39.4541 588.464 40.6388 589.377C42.3664 590.71 44.1187 592.24 44.1187 595.226C44.1187 598.188 42.1936 599.915 39.4541 599.915C36.2457 599.915 34.7896 598.163 34.7896 595.325V594.115H37.8993V595.325ZM56.6729 581.751L53.2424 599.668H49.4416L46.0111 581.751H49.2689L51.416 594.732L53.5632 581.751H56.6729ZM61.2796 595.942L60.6626 599.668H57.6763L61.1068 581.751H64.9075L68.338 599.668H65.2037L64.5867 595.942H61.2796ZM64.1178 593.153L62.9331 585.996L61.7238 593.153H64.1178ZM75.3765 581.751C78.7823 581.751 80.1891 583.503 80.1891 587.032C80.1891 589.426 79.6461 590.956 78.2887 591.796L80.7567 599.668H77.4249L75.4258 592.487H74.1671V599.668H71.0575V581.751H75.3765ZM74.1671 589.698H75.1297C76.4377 589.698 77.0794 589.204 77.0794 587.057C77.0794 585.033 76.4377 584.54 75.1297 584.54H74.1671V589.698ZM91.5837 581.751V584.54H88.5727V599.668H85.4877V584.54H82.4768V581.751H91.5837ZM95.793 595.942L95.176 599.668H92.1897L95.6202 581.751H99.421L102.851 599.668H99.7171L99.1001 595.942H95.793ZM98.6312 593.153L97.4466 585.996L96.2372 593.153H98.6312ZM109.89 581.751C113.296 581.751 114.703 583.503 114.703 587.032C114.703 589.426 114.16 590.956 112.802 591.796L115.27 599.668H111.938L109.939 592.487H108.681V599.668H105.571V581.751H109.89ZM108.681 589.698H109.643C110.951 589.698 111.593 589.204 111.593 587.057C111.593 585.033 110.951 584.54 109.643 584.54H108.681V589.698ZM48.4862 610.295H46.0675L47.5977 607.234H50.7814L48.4862 610.295ZM52.2375 625.325C52.2375 628.163 50.8801 629.915 47.647 629.915C44.4386 629.915 43.1059 628.163 43.1059 625.325V616.094C43.1059 613.256 44.4386 611.529 47.647 611.529C50.8801 611.529 52.2375 613.256 52.2375 616.094V625.325ZM46.2156 625.349C46.2156 626.657 46.7092 627.151 47.647 627.151C48.6342 627.151 49.1278 626.657 49.1278 625.349V616.094C49.1278 614.811 48.6342 614.293 47.647 614.293C46.7092 614.293 46.2156 614.811 46.2156 616.094V625.349ZM59.0434 611.751V626.88H63.9794V629.668H55.9337V611.751H59.0434ZM69.3421 610.295H66.9235L68.4536 607.234H71.6373L69.3421 610.295ZM70.0331 611.751V629.668H66.9481V611.751H70.0331ZM82.0315 611.751V614.54H77.0955V619.081H81.217V621.87H77.0955V629.668H73.9858V611.751H82.0315ZM94.0084 625.325C94.0084 628.163 92.651 629.915 89.4179 629.915C86.2095 629.915 84.8768 628.163 84.8768 625.325V611.751H87.9865V625.349C87.9865 626.657 88.4801 627.151 89.4179 627.151C90.4051 627.151 90.8987 626.657 90.8987 625.349V611.751H94.0084V625.325ZM102.141 611.751C105.547 611.751 106.954 613.503 106.954 617.032C106.954 619.426 106.411 620.956 105.053 621.796L107.521 629.668H104.19L102.191 622.487H100.932V629.668H97.8223V611.751H102.141ZM100.932 619.698H101.894C103.202 619.698 103.844 619.204 103.844 617.057C103.844 615.033 103.202 614.54 101.894 614.54H100.932V619.698Z" fill="#0078AE"/>
<path d="M75.5147 656.822C74.6068 655.224 73.4027 652.779 72.4356 650.758C71.9422 649.747 69.5146 649.747 69.0212 650.758C68.0541 652.789 66.85 655.224 65.9421 656.822C64.4224 659.517 61.3633 662.837 61.3633 662.837L62.5672 663.01C62.8238 663.049 63.0803 663.126 63.2777 663.232L69.5936 666.398C70.2449 666.725 71.2119 666.725 71.8829 666.398L78.1989 663.232C78.3962 663.126 78.6528 663.058 78.9094 663.01L80.1133 662.837C80.1133 662.837 77.0542 659.517 75.5344 656.822H75.5147Z" fill="#7EBE50" stroke="#231F20" stroke-width="2.71" stroke-miterlimit="10"/>
<path d="M57.9893 660.575C53.1341 659.045 48.1801 658.072 43.6208 657.659C42.1406 657.524 41.3313 658.592 42.5155 659.122C46.0878 660.719 49.5419 662.875 52.4827 665.464C57.7129 670.094 60.022 675.031 59.272 678.756C59.1733 679.237 59.8248 679.651 60.6537 679.67C67.2853 679.863 72.6735 678.756 74.9827 676.331C79.1867 671.923 71.5683 664.868 57.9893 660.575Z" fill="#7EBE50" stroke="#231F20" stroke-width="2.71" stroke-miterlimit="10"/>
<path d="M84.5153 660.508C89.5482 659.112 94.6009 658.285 99.1996 658.005C100.7 657.909 101.371 659.006 100.127 659.497C96.3772 660.989 92.6666 663.039 89.4297 665.551C83.6468 670.027 80.7653 674.887 81.0811 678.631C81.1205 679.113 80.4297 679.507 79.5811 679.507C72.9297 679.507 67.6799 678.256 65.6667 675.773C61.9957 671.249 70.4429 664.425 84.5153 660.518V660.508Z" fill="#446B2C" stroke="#231F20" stroke-width="3.02" stroke-miterlimit="10"/>
<path d="M48.4955 667.669C42.2191 666.523 36.1205 666.032 30.7521 666.109C29.0152 666.138 28.6402 667.447 30.2389 667.9C35.0941 669.266 40.1073 671.287 44.7454 673.867C53.0349 678.477 58.1666 683.771 59.2127 688.083C59.3508 688.631 60.298 689.026 61.2454 688.949C68.8441 688.362 74.3903 686.447 75.7522 683.434C78.2587 677.929 66.0415 670.874 48.456 667.669H48.4955Z" fill="#7EBE50" stroke="#231F20" stroke-width="3.14" stroke-miterlimit="10"/>
<path d="M91.1072 668.631C97.5217 667.313 103.818 666.677 109.403 666.648C111.219 666.648 111.712 667.996 110.094 668.496C105.16 670.017 100.127 672.221 95.5282 674.993C87.3177 679.95 82.4427 685.552 81.7124 690.056C81.6138 690.633 80.6666 691.057 79.6797 690.999C71.7258 690.547 65.8245 688.67 64.1271 685.561C61.0481 679.902 73.1467 672.317 91.1072 668.622V668.631Z" fill="#446B2C" stroke="#231F20" stroke-width="3.02" stroke-miterlimit="10"/>
<path d="M38.6865 676.938C31.9167 675.956 25.4234 675.648 19.7787 675.927C17.9431 676.014 17.7457 677.409 19.5023 677.833C24.8115 679.103 30.3969 681.057 35.6667 683.608C45.0811 688.16 51.2589 693.56 53.0154 698.064C53.2325 698.641 54.2984 699.017 55.2852 698.911C63.1997 698.026 68.7457 695.821 69.7522 692.587C71.568 686.707 57.6733 679.71 38.6865 676.947V676.938Z" fill="#7EBE50" stroke="#231F20" stroke-width="3.32" stroke-miterlimit="10"/>
<path d="M100.62 676.938C107.39 675.956 113.883 675.648 119.528 675.927C121.364 676.014 121.561 677.409 119.804 677.833C114.495 679.103 108.91 681.057 103.64 683.608C94.2256 688.16 88.0479 693.56 86.2913 698.064C86.0742 698.641 85.0084 699.017 84.0215 698.911C76.1071 698.026 70.5611 695.821 69.5545 692.587C67.7387 686.707 81.6335 679.71 100.62 676.947V676.938Z" fill="#446B2C" stroke="#231F20" stroke-width="3.02" stroke-miterlimit="10"/>
<path d="M117.002 711.991C117.002 699.196 95.7368 688.824 69.5051 688.824C43.2734 688.824 22.0083 699.196 22.0083 711.991V730.865C22.0083 743.659 43.2734 754.032 69.5051 754.032C95.7368 754.032 117.002 743.659 117.002 730.865V711.991Z" fill="#FFAF00" stroke="#231F20" stroke-width="3.32" stroke-miterlimit="10"/>
<path d="M53.6271 743.829C53.6271 739.816 47.6469 736.226 38.193 733.675C32.2719 735.273 27.7325 737.275 25.147 739.527" stroke="#231F20" stroke-width="2.74" stroke-miterlimit="10"/>
<path d="M84.7527 743.829C84.7527 739.816 78.7726 736.226 69.3186 733.675C59.8647 736.226 53.8843 739.816 53.8843 743.829" stroke="#231F20" stroke-width="2.74" stroke-miterlimit="10"/>
<path d="M112.896 739.152C110.252 737.054 105.89 735.186 100.304 733.675C90.8503 736.226 84.8701 739.816 84.8701 743.829" stroke="#231F20" stroke-width="2.74" stroke-miterlimit="10"/>
<path d="M69.0614 753.502C69.0614 749.489 63.081 745.899 53.6271 743.348C47.706 744.946 43.1666 746.948 40.5811 749.2" stroke="#231F20" stroke-width="2.74" stroke-miterlimit="10"/>
<path d="M97.7979 749.316C95.2321 747.015 90.6336 744.975 84.6336 743.348C75.1796 745.899 69.1992 749.489 69.1992 753.502" stroke="#231F20" stroke-width="2.74" stroke-miterlimit="10"/>
<path d="M37.9563 734.003C37.9563 729.989 31.9759 726.399 22.522 723.849" stroke="#231F20" stroke-width="2.74" stroke-miterlimit="10"/>
<path d="M69.0613 734.003C69.0613 729.989 63.0809 726.399 53.627 723.849C44.173 726.399 38.1929 729.989 38.1929 734.003" stroke="#231F20" stroke-width="2.74" stroke-miterlimit="10"/>
<path d="M100.068 734.003C100.068 729.989 94.0875 726.399 84.6336 723.849C75.1796 726.399 69.1992 729.989 69.1992 734.003" stroke="#231F20" stroke-width="2.74" stroke-miterlimit="10"/>
<path d="M115.74 723.849C106.286 726.399 100.305 729.989 100.305 734.003" stroke="#231F20" stroke-width="2.74" stroke-miterlimit="10"/>
<path d="M53.6277 724.013C53.6277 719.999 47.6476 716.409 38.1936 713.858C28.7397 716.409 22.7593 719.999 22.7593 724.013" stroke="#231F20" stroke-width="2.74" stroke-miterlimit="10"/>
<path d="M84.7527 724.013C84.7527 719.999 78.7726 716.409 69.3186 713.858C59.8647 716.409 53.8843 719.999 53.8843 724.013" stroke="#231F20" stroke-width="2.74" stroke-miterlimit="10"/>
<path d="M115.74 724.013C115.74 719.999 109.759 716.409 100.305 713.858C90.8513 716.409 84.8711 719.999 84.8711 724.013" stroke="#231F20" stroke-width="2.74" stroke-miterlimit="10"/>
<path d="M53.627 704.772C53.627 700.759 47.6468 697.169 38.1929 694.618" stroke="#231F20" stroke-width="2.74" stroke-miterlimit="10"/>
<path d="M84.7518 704.772C84.7518 700.759 78.7716 697.169 69.3176 694.618C59.8637 697.169 53.8833 700.759 53.8833 704.772" stroke="#231F20" stroke-width="2.74" stroke-miterlimit="10"/>
<path d="M100.304 694.618C90.8503 697.169 84.8701 700.759 84.8701 704.772" stroke="#231F20" stroke-width="2.74" stroke-miterlimit="10"/>
<path d="M37.9563 714.445C37.9563 710.431 31.9759 706.841 22.522 704.291" stroke="#231F20" stroke-width="2.74" stroke-miterlimit="10"/>
<path d="M69.0613 714.445C69.0613 710.431 63.0809 706.841 53.627 704.291C44.173 706.841 38.1929 710.431 38.1929 714.445" stroke="#231F20" stroke-width="2.74" stroke-miterlimit="10"/>
<path d="M100.068 714.445C100.068 710.431 94.0875 706.841 84.6336 704.291C75.1796 706.841 69.1992 710.431 69.1992 714.445" stroke="#231F20" stroke-width="2.74" stroke-miterlimit="10"/>
<path d="M115.74 704.291C106.286 706.841 100.305 710.431 100.305 714.445" stroke="#231F20" stroke-width="2.74" stroke-miterlimit="10"/>
<path d="M68.5479 694.618V689.228" stroke="#231F20" stroke-width="2.74" stroke-miterlimit="10"/>
<path d="M41.5163 791.399L40.8993 795.125H37.913L41.3435 777.208H45.1442L48.5748 795.125H45.4404L44.8234 791.399H41.5163ZM44.3545 788.61L43.1698 781.453L41.9605 788.61H44.3545ZM51.2942 795.125V777.208H54.1077L58.3033 788.116V777.208H61.1415V795.125H58.4761L54.1571 784.291V795.125H51.2942ZM67.4496 791.399L66.8326 795.125H63.8463L67.2768 777.208H71.0775L74.508 795.125H71.3737L70.7567 791.399H67.4496ZM70.2878 788.61L69.1031 781.453L67.8938 788.61H70.2878ZM77.2275 795.125V777.208H80.041L84.2366 788.116V777.208H87.0748V795.125H84.4093L80.0903 784.291V795.125H77.2275ZM93.3828 791.399L92.7658 795.125H89.7796L93.2101 777.208H97.0108L100.441 795.125H97.307L96.69 791.399H93.3828ZM96.221 788.61L95.0364 781.453L93.8271 788.61H96.221ZM105.456 790.782C105.456 792.09 105.999 792.583 106.986 792.583C107.998 792.583 108.566 792.016 108.566 790.708C108.566 789.202 107.356 788.19 106.147 787.228C104.469 785.895 102.544 784.291 102.544 781.305C102.544 778.639 104.37 776.986 106.986 776.986C110.046 776.986 111.429 778.713 111.429 781.551V782.391H108.319V781.551C108.319 780.268 107.85 779.75 107.011 779.75C106.122 779.75 105.653 780.293 105.653 781.305C105.653 782.81 107.011 783.921 108.195 784.834C109.923 786.167 111.675 787.697 111.675 790.683C111.675 793.645 109.75 795.372 107.011 795.372C103.802 795.372 102.346 793.62 102.346 790.782V789.572H105.456V790.782Z" fill="#0078AE"/>
<path d="M71.5942 822.85C71.5942 822.85 113.3 834.909 118.202 843.197C123.103 851.485 126.383 864.302 120.659 871.084C114.934 877.866 96.9493 888.418 88.768 892.189C80.5866 895.959 66.6567 898.234 66.6567 898.234C66.6567 898.234 82.2205 889.924 82.2205 870.325C82.2205 850.726 80.5865 836.414 76.4959 832.644C72.4052 828.874 71.5942 822.85 71.5942 822.85Z" fill="#C55450"/>
<path d="M50.33 815.31C50.33 815.31 79.7639 827.368 83.0436 839.427C86.3114 851.485 85.5004 879.372 78.1419 887.66C70.7835 895.948 62.6021 905.753 54.4326 906.501C46.2513 907.259 22.5419 902.73 18.4512 897.454C14.3605 892.178 6.19112 877.108 5.36821 866.555C4.5453 856.003 4.54529 844.703 8.63598 837.162C12.7267 829.622 15.1834 824.345 20.0851 821.333C24.9868 818.322 36.436 814.551 36.436 814.551L50.3419 815.31H50.33Z" fill="white"/>
<path d="M111.702 835.03C98.9532 828.522 82.5069 821.279 69.7578 815.761C61.8865 811.946 52.9896 809.957 44.033 810.001C44.033 810.001 44.033 810.001 44.0211 810.001C38.3561 810.034 32.8343 811.254 27.6345 813.639C10.6993 821.4 -0.141715 839.844 0.00139986 860.653C0.204145 888.441 20.264 910.931 44.7247 910.788C46.1439 910.788 47.5512 910.7 48.9585 910.535C55.84 909.996 62.5783 908.337 68.6487 905.556C69.2093 905.292 69.7816 905.028 70.3422 904.742L111.965 885.66C122.651 881.164 129.317 871.436 129.246 860.345C129.174 849.1 122.329 839.328 111.702 835.008V835.03ZM7.98011 860.62C7.86085 842.889 17.1871 826.665 31.1885 820.245C35.2911 818.366 39.6321 817.398 44.0806 817.365C64.1405 817.245 80.5987 836.459 80.7656 860.191C80.8849 877.921 71.5587 894.146 57.5573 900.565C54.528 901.95 51.3676 902.84 48.1356 903.225C46.9787 903.313 45.8338 903.445 44.665 903.445C24.6051 903.566 8.14708 884.352 7.98011 860.62ZM108.53 879.053L78.4759 892.827C85.0592 883.901 88.8278 872.447 88.7444 860.147C88.6609 847.616 84.4987 836.184 77.7484 827.401C87.9453 831.908 98.9174 836.92 108.148 841.625C116.187 844.912 121.208 852.112 121.255 860.422C121.315 868.589 116.377 875.437 108.518 879.053H108.53Z" fill="#231F20"/>
<path fill-rule="evenodd" clip-rule="evenodd" d="M44.1281 823.807C56.901 823.73 67.9566 832.425 73.0491 844.989C73.3234 845.67 73.2638 846.363 72.8702 846.989C72.4766 847.616 71.8565 848.012 71.0813 848.133C64.8439 849.1 60.8724 853.98 54.3726 856.465C52.5479 853.903 48.6958 852.277 46.6922 852.288C44.6886 852.299 44.8914 852.441 44.0446 852.716C39.6439 846.989 33.9788 836.921 30.9615 829.49C30.5083 828.369 31.0211 827.127 32.166 826.577C35.8512 824.807 39.8943 823.818 44.1281 823.796V823.807ZM75.8876 857.201C75.971 858.201 76.0068 859.213 76.0187 860.224C76.1618 880.439 62.1128 896.905 44.641 897.004C41.4924 897.026 38.4511 896.509 35.5889 895.542C34.3605 895.124 33.6807 893.937 33.9908 892.772C36.4357 883.56 41.9933 879.801 44.796 874.8C45.4639 874.964 43.7942 875.052 46.8592 875.041C49.9242 875.019 56.7459 869.897 56.6028 863.62V863.258C62.9476 860.796 66.7998 855.959 72.9538 855.058C73.6813 854.948 74.361 855.113 74.9453 855.541C75.5297 855.97 75.8518 856.531 75.9114 857.212L75.8876 857.201ZM23.4839 887.814C24.116 888.463 25.0223 888.727 25.9525 888.529C26.8828 888.331 27.5744 887.726 27.8368 886.88C30.4606 878.394 36.0063 875.052 38.7851 870.271C37.6402 868.424 36.9484 866.061 36.9365 863.719C36.9246 861.378 37.4732 859.378 38.4273 857.619C34.0981 852.211 28.4332 842.757 25.5232 836.074C25.1654 835.261 24.4141 834.722 23.4719 834.612C22.5298 834.502 21.6592 834.843 21.0867 835.558C15.8392 842.131 12.6668 850.936 12.7264 860.598C12.798 871.436 16.9483 881.153 23.46 887.814H23.4839Z" fill="#E31937"/>
<path d="M19.5935 951.023V933.106H22.4071L26.6027 944.014V933.106H29.4409V951.023H26.7754L22.4564 940.189V951.023H19.5935ZM35.7489 947.297L35.1319 951.023H32.1456L35.5762 933.106H39.3769L42.8074 951.023H39.673L39.056 947.297H35.7489ZM38.5871 944.508L37.4025 937.351L36.1932 944.508H38.5871ZM54.535 946.68C54.535 949.518 53.1776 951.27 49.9445 951.27C46.7361 951.27 45.4034 949.518 45.4034 946.68V933.106H48.5131V946.704C48.5131 948.012 49.0067 948.506 49.9445 948.506C50.9317 948.506 51.4253 948.012 51.4253 946.704V933.106H54.535V946.68ZM66.2218 933.106V935.895H63.2108V951.023H60.1258V935.895H57.1149V933.106H66.2218ZM70.4311 947.297L69.8141 951.023H66.8278L70.2583 933.106H74.059L77.4895 951.023H74.3552L73.7382 947.297H70.4311ZM73.2693 944.508L72.0846 937.351L70.8753 944.508H73.2693ZM83.3186 942.978V951.023H80.209V933.106H83.3186V940.189H86.4037V933.106H89.5133V951.023H86.4037V942.978H83.3186ZM95.8341 947.297L95.2171 951.023H92.2308L95.6614 933.106H99.4621L102.893 951.023H99.7582L99.1412 947.297H95.8341ZM98.6723 944.508L97.4877 937.351L96.2784 944.508H98.6723ZM108.722 933.106V939.646L112.103 933.106H115.558L111.362 940.214L115.755 951.023H112.251L109.487 942.879L108.722 944.014V951.023H105.612V933.106H108.722ZM121.206 933.106V939.646L124.587 933.106H128.043L123.847 940.214L128.24 951.023H124.736L121.971 942.879L121.206 944.014V951.023H118.097V933.106H121.206Z" fill="#0078AE"/>
</svg>
