<svg width="150" height="970" viewBox="0 0 150 970" fill="none" xmlns="http://www.w3.org/2000/svg">
<path fill-rule="evenodd" clip-rule="evenodd" d="M74.8094 10.0007C112.697 9.92478 148.654 32.8775 149.59 61.75C149.97 73.4703 142.905 80.7128 133.674 83.9872C129.959 85.3099 125.892 85.9712 121.825 86.0038C115.696 86.058 109.566 84.6919 104.549 82.0681L105.865 90.8502C106.86 97.3988 99.9702 103.232 90.9299 103.232H58.6742C49.6338 103.232 42.7438 97.4097 43.7385 90.8502L45.0551 82.0681C40.0522 84.7027 33.9229 86.058 27.7789 86.0038C23.7122 85.9712 19.6456 85.3099 15.9299 83.9872C6.68477 80.7128 -0.366139 73.4703 0.0142003 61.75C0.95042 32.8775 36.9071 9.92478 74.7947 10.0007H74.8094Z" fill="#D8A96C"/>
<path fill-rule="evenodd" clip-rule="evenodd" d="M75.2044 10.0007C113.092 9.92478 149.049 32.8775 149.985 61.75C150.365 73.4703 143.3 80.7128 134.069 83.9872C130.354 85.3099 126.287 85.9712 122.22 86.0038C116.091 86.058 109.962 84.6919 104.944 82.0681L106.261 90.8502C107.255 97.3988 100.365 103.232 91.3249 103.232H59.0692C50.0289 103.232 43.1389 97.4097 44.1336 90.8502L45.4502 82.0681C40.4472 84.7027 34.3179 86.058 28.174 86.0038C24.1073 85.9712 20.0406 85.3099 16.325 83.9872C7.07979 80.7128 0.0288807 73.4703 0.40922 61.75C1.34544 32.8775 37.3021 9.92478 75.1897 10.0007H75.2044ZM91.3395 96.9434C95.377 96.9434 98.3173 94.4498 97.8784 91.5332C97.1617 86.8169 95.6549 80.3876 94.6456 74.5328C93.8264 69.8382 91.7345 61.9994 96.6497 58.3673C102.135 54.3123 113.443 54.887 118.183 58.9636C92.0271 54.6376 99.7801 79.9431 122.147 79.7587C125 79.7371 127.837 79.2708 130.427 78.3601C136.892 76.0616 141.837 70.7381 141.559 61.9126C140.74 36.6289 108.894 16.2024 75.2044 16.2674C41.5297 16.2024 9.68363 36.6289 8.84981 61.9126C8.55724 70.7489 13.5017 76.0616 19.9821 78.3601C22.5713 79.2817 25.4092 79.7371 28.2618 79.7587C50.6286 79.9431 58.3817 54.6376 32.2261 58.9636C36.9803 54.887 48.2734 54.3123 53.7591 58.3673C58.6743 61.9994 56.5824 69.8382 55.7632 74.5328C54.7392 80.3984 53.2471 86.8169 52.5303 91.5332C52.0915 94.4498 55.0318 96.9434 59.0692 96.9434H91.3249H91.3395Z" fill="#231F20"/>
<path d="M75.2044 27.3047C87.858 27.3047 99.5315 28.6383 108.894 30.8826C102.399 25.3423 89.7451 21.5801 75.2044 21.5801C60.6637 21.5801 47.9955 25.3423 41.5151 30.8826C50.892 28.6383 62.5508 27.3047 75.2044 27.3047Z" fill="#E2BE91"/>
<path d="M26.652 147.13C26.652 148.438 27.1949 148.932 28.1821 148.932C29.194 148.932 29.7616 148.364 29.7616 147.056C29.7616 145.551 28.5523 144.539 27.343 143.577C25.6648 142.244 23.7397 140.64 23.7397 137.653C23.7397 134.988 25.566 133.334 28.1821 133.334C31.2424 133.334 32.6245 135.062 32.6245 137.9V138.739H29.5148V137.9C29.5148 136.617 29.0459 136.098 28.2068 136.098C27.3183 136.098 26.8494 136.641 26.8494 137.653C26.8494 139.159 28.2068 140.269 29.3914 141.183C31.119 142.515 32.8713 144.045 32.8713 147.032C32.8713 149.993 30.9463 151.721 28.2068 151.721C24.9984 151.721 23.5423 149.969 23.5423 147.13V145.921H26.652V147.13ZM45.4255 133.556L41.995 151.474H38.1943L34.7638 133.556H38.0215L40.1687 146.538L42.3159 133.556H45.4255ZM55.9438 133.556V136.345H51.2546V140.64H55.1294V143.428H51.2546V148.685H56.1906V151.474H48.145V133.556H55.9438ZM63.7194 133.556C67.1006 133.556 68.532 135.309 68.532 138.838C68.532 142.54 67.1006 144.292 63.7194 144.292H62.5101V151.474H59.4004V133.556H63.7194ZM62.5101 141.503H63.4726C64.7806 141.503 65.4223 141.01 65.4223 138.863C65.4223 136.839 64.7806 136.345 63.4726 136.345H62.5101V141.503ZM75.9389 133.556C79.32 133.556 80.7515 135.309 80.7515 138.838C80.7515 142.54 79.32 144.292 75.9389 144.292H74.7296V151.474H71.6199V133.556H75.9389ZM74.7296 141.503H75.6921C77.0001 141.503 77.6418 141.01 77.6418 138.863C77.6418 136.839 77.0001 136.345 75.6921 136.345H74.7296V141.503ZM86.9244 133.556V151.474H83.8394V133.556H86.9244ZM95.196 133.556C98.6019 133.556 100.009 135.309 100.009 138.838C100.009 141.232 99.4657 142.762 98.1083 143.601L100.576 151.474H97.2445L95.2454 144.292H93.9867V151.474H90.877V133.556H95.196ZM93.9867 141.503H94.9492C96.2573 141.503 96.8989 141.01 96.8989 138.863C96.8989 136.839 96.2573 136.345 94.9492 136.345H93.9867V141.503Z" fill="#0078AE"/>
<path fill-rule="evenodd" clip-rule="evenodd" d="M39.0156 190.672C62.7731 175.269 95.4586 169.665 123.697 174.304C133.561 175.919 140.75 180.58 143.241 186.976C150.397 205.284 141.753 226.476 117.996 241.879C90.0751 259.981 49.8494 264.545 18.9697 254.876C4.05643 234.855 11.0951 208.774 39.0156 190.672Z" fill="#B6EF18"/>
<path d="M53.1103 262.616C40.3037 262.616 28.1825 260.849 17.0979 257.38L15.7604 256.957L15.1083 256.079C-1.07555 234.357 7.31733 207.279 35.9902 188.7C59.6641 173.351 94.6233 166.663 124.767 171.606C136.086 173.459 144.563 178.955 147.422 186.283C155.196 206.195 145.098 228.254 121.056 243.841C102.665 255.765 77.9044 262.616 53.1438 262.616H53.1103ZM22.1804 252.795C31.7269 255.613 42.126 257.055 53.1103 257.055C75.6139 257.055 98.1677 250.811 114.953 239.917C136.872 225.706 146.117 205.686 139.079 187.659C136.972 182.25 130.97 178.37 122.644 177.004C95.3422 172.538 63.6098 178.641 42.0424 192.645C16.3455 209.306 8.47093 233.348 22.1804 252.795Z" fill="#231F20"/>
<path fill-rule="evenodd" clip-rule="evenodd" d="M115.36 228.308C104.075 232.612 93.6252 234.119 66.6075 231.755C87.7402 219.138 107.168 205.881 114.641 189.719C104.359 200.169 90.9837 209.176 76.455 217.686C70.4027 208.255 70.0851 204.147 72.1248 199.377C65.7214 206.651 70.2188 216.157 72.4926 219.973C63.6985 225.002 54.5699 229.891 45.4749 234.812C35.4435 219.073 35.0423 212.212 38.4864 204.169C28.0036 216.081 34.7079 231.571 38.687 238.519C24.9608 246.042 11.5857 253.771 -0.000488281 262.41L10.2482 268.025C22.7539 256.969 40.71 246.92 58.3651 236.623C61.5083 236.98 96.2501 240.579 115.326 228.33L115.36 228.308Z" fill="#231F20"/>
<path d="M33.7233 307.138C33.7233 308.446 34.2662 308.939 35.2534 308.939C36.2653 308.939 36.8329 308.372 36.8329 307.064C36.8329 305.558 35.6236 304.546 34.4143 303.584C32.7361 302.251 30.811 300.647 30.811 297.661C30.811 294.995 32.6373 293.342 35.2534 293.342C38.3137 293.342 39.6958 295.069 39.6958 297.907V298.747H36.5861V297.907C36.5861 296.624 36.1172 296.106 35.2781 296.106C34.3896 296.106 33.9207 296.649 33.9207 297.661C33.9207 299.166 35.2781 300.277 36.4627 301.19C38.1903 302.523 39.9426 304.053 39.9426 307.039C39.9426 310.001 38.0176 311.728 35.2781 311.728C32.0697 311.728 30.6136 309.976 30.6136 307.138V305.928H33.7233V307.138ZM47.3881 293.564C50.7692 293.564 52.2007 295.316 52.2007 298.845C52.2007 302.547 50.7692 304.3 47.3881 304.3H46.1787V311.481H43.0691V293.564H47.3881ZM46.1787 301.511H47.1413C48.4493 301.511 49.091 301.017 49.091 298.87C49.091 296.846 48.4493 296.353 47.1413 296.353H46.1787V301.511ZM57.6825 292.108H55.2639L56.794 289.047H59.9778L57.6825 292.108ZM58.3736 293.564V311.481H55.2886V293.564H58.3736ZM62.3262 311.481V293.564H65.1397L69.3353 304.472V293.564H72.1735V311.481H69.5081L65.1891 300.647V311.481H62.3262ZM78.4816 307.755L77.8646 311.481H74.8783L78.3088 293.564H82.1095L85.5401 311.481H82.4057L81.7887 307.755H78.4816ZM81.3198 304.966L80.1351 297.809L78.9258 304.966H81.3198ZM95.2648 293.564V296.353H92.2538V311.481H89.1688V296.353H86.1578V293.564H95.2648Z" fill="#0078AE"/>
<path d="M7.09361 452.209C10.9328 452.209 12.5185 454.185 12.5185 458.163C12.5185 460.861 11.9065 462.586 10.3764 463.532L13.1584 472.407H9.40267L7.14925 464.311H5.73043L5.73043 472.407H2.22511L2.22511 452.209H7.09361ZM5.73043 461.167H6.81541C8.28987 461.167 9.01319 460.611 9.01319 458.191C9.01319 455.909 8.28987 455.353 6.81541 455.353H5.73043V461.167ZM16.7289 469.569C17.647 469.569 18.1199 469.068 18.1199 467.789V452.209H21.6252V468.067C21.6252 471.044 20.4011 472.685 17.0071 472.685H15.5048V469.569H16.7289ZM31.7293 450.568H29.0029L30.7278 447.118H34.3166L31.7293 450.568ZM35.9579 467.51C35.9579 470.71 34.4278 472.685 30.7834 472.685C27.1668 472.685 25.6645 470.71 25.6645 467.51V457.106C25.6645 453.906 27.1668 451.959 30.7834 451.959C34.4278 451.959 35.9579 453.906 35.9579 457.106V467.51ZM29.1699 467.538C29.1699 469.013 29.7263 469.569 30.7834 469.569C31.8962 469.569 32.4526 469.013 32.4526 467.538V457.106C32.4526 455.659 31.8962 455.075 30.7834 455.075C29.7263 455.075 29.1699 455.659 29.1699 457.106V467.538ZM49.3607 472.407H46.3283L43.2681 459.804V472.407H40.1244V452.209H44.1027L47.7471 467.538L51.4193 452.209H55.5645V472.407H52.4209V459.832L49.3607 472.407ZM62.6821 468.206L61.9866 472.407H58.6204L62.4874 452.209H66.7716L70.6386 472.407H67.1055L66.41 468.206H62.6821ZM65.8814 465.062L64.546 456.994L63.1829 465.062H65.8814ZM83.7192 467.51C83.7192 470.71 82.1891 472.685 78.5447 472.685C74.9281 472.685 73.4258 470.71 73.4258 467.51V457.106C73.4258 453.906 74.9281 451.959 78.5447 451.959C82.1891 451.959 83.7192 453.906 83.7192 457.106V467.51ZM76.9312 467.538C76.9312 469.013 77.4876 469.569 78.5447 469.569C79.6575 469.569 80.2139 469.013 80.2139 467.538V457.106C80.2139 455.659 79.6575 455.075 78.5447 455.075C77.4876 455.075 76.9312 455.659 76.9312 457.106V467.538ZM90.473 467.51C90.473 468.985 91.085 469.541 92.1978 469.541C93.3384 469.541 93.9783 468.901 93.9783 467.427C93.9783 465.73 92.6151 464.589 91.2519 463.504C89.3602 462.002 87.1902 460.194 87.1902 456.828C87.1902 453.823 89.2489 451.959 92.1978 451.959C95.6475 451.959 97.2054 453.906 97.2054 457.106V458.052H93.7001V457.106C93.7001 455.659 93.1715 455.075 92.2256 455.075C91.2241 455.075 90.6955 455.687 90.6955 456.828C90.6955 458.525 92.2256 459.776 93.561 460.806C95.5084 462.308 97.4836 464.033 97.4836 467.399C97.4836 470.738 95.3137 472.685 92.2256 472.685C88.609 472.685 86.9677 470.71 86.9677 467.51V466.147H90.473V467.51ZM109.882 452.209V455.353H106.488V472.407H103.011V455.353H99.6168V452.209H109.882ZM123.089 467.51C123.089 470.71 121.559 472.685 117.914 472.685C114.298 472.685 112.795 470.71 112.795 467.51V452.209H116.301V467.538C116.301 469.013 116.857 469.569 117.914 469.569C119.027 469.569 119.584 469.013 119.584 467.538V452.209H123.089V467.51ZM132.256 452.209C136.096 452.209 137.681 454.185 137.681 458.163C137.681 460.861 137.069 462.586 135.539 463.532L138.321 472.407H134.565L132.312 464.311H130.893V472.407H127.388V452.209H132.256ZM130.893 461.167H131.978C133.453 461.167 134.176 460.611 134.176 458.191C134.176 455.909 133.453 455.353 131.978 455.353H130.893V461.167Z" fill="#0078AE"/>
<path d="M107.547 366.513C104.932 361.334 99.1252 356.239 89.9324 351.061C77.0859 343.827 75.5109 334.278 75.4574 333.921L74.9538 330L70.9252 330.221C69.8431 330.284 60.1788 331.196 53.0002 344.729C51.768 347.067 50.9966 349.205 50.4074 351.26C47.3752 351.648 42.2645 352.486 37.0895 354.132C25.0788 357.969 20.9967 363.64 20.0217 368.62C11.5359 371.534 -0.206946 379.92 1.30377 396.714C3.73591 423.676 49.9681 424.252 65.1609 424.441C65.6967 424.441 66.2431 424.441 66.7788 424.441C80.3645 424.441 93.8323 422.324 103.968 418.56C118.304 413.245 126.479 404.67 127.604 393.779C129.736 373.169 113 367.729 107.547 366.513ZM118.99 392.929C117.34 408.864 91.0895 415.981 66.8109 415.981C66.2966 415.981 65.7823 415.981 65.2681 415.981C40.8181 415.677 11.3645 411.956 9.92882 395.98C8.91096 384.679 16.0467 379.564 20.8895 377.415C22.2074 381.168 24.5966 384.564 28.1109 387.363C35.4395 393.202 47.0431 396.274 61.0681 396.274C65.9002 396.274 71.0109 395.907 76.3467 395.173C76.3467 395.173 50.1502 396.032 33.5859 380.801C30.5538 378.012 28.6038 375.14 28.3788 371.628C27.9395 364.762 40.5609 360.978 49.3145 359.782C49.5716 364.804 51.3074 367.886 51.4359 368.106C51.4359 368.106 53.6217 343.691 68.3002 339.928C70.3038 344.823 74.9538 352.423 85.6038 358.42C98.7824 365.842 100.39 370.884 100.507 372.708C101.622 389.051 91.3574 393.716 91.3574 393.716C105.329 390.833 108.65 382.562 109.122 375.779C113.739 377.593 120.093 382.09 118.968 392.95L118.99 392.929Z" fill="#231F20"/>
<path fill-rule="evenodd" clip-rule="evenodd" d="M73.1764 508.929C77.2359 508.929 80.8967 510.987 83.4771 514.281C85.2394 513.331 87.1904 512.803 89.2464 512.803C97.082 512.803 103.439 520.488 103.439 529.958C103.439 548.77 94.3338 582.34 80.2464 582.34C76.5331 582.34 73.2289 580.165 71.173 576.819C69.117 580.165 65.8233 582.34 62.0995 582.34C47.7918 582.34 38.9072 550.554 38.9072 529.958C38.9072 520.488 45.2639 512.803 53.0996 512.803C56.2779 512.803 59.2044 514.07 61.575 516.192C64.145 511.789 68.3827 508.918 73.1764 508.918V508.929Z" fill="#69A53A"/>
<path fill-rule="evenodd" clip-rule="evenodd" d="M67.3866 507.957C64.8796 508.96 62.5404 510.586 60.7258 512.982C58.2922 511.325 55.5545 510.449 52.7118 510.449C43.6908 510.449 36.3481 519.327 36.3481 530.232C36.3481 549.973 44.8237 585.233 61.7118 585.233C65.0789 585.233 68.3202 583.681 70.7852 580.978C73.2503 583.681 76.4915 585.233 79.8587 585.233C96.2748 585.233 105.222 548.896 105.222 530.232C105.222 519.327 97.8796 510.449 88.8586 510.449C87.0439 510.449 85.2818 510.797 83.5929 511.494C82.3027 510.111 80.8027 509.129 79.2398 508.359C79.0719 503.872 81.023 500.483 84.3377 500.483V490C76.1349 490 68.3412 498.214 67.3971 507.957H67.3866ZM88.8586 515.696C95.488 515.696 100.88 522.22 100.88 530.232C100.88 547.714 92.2048 579.986 79.8587 579.986C76.9426 579.986 74.2677 578.36 72.5265 575.52L72.3901 575.299C70.2817 571.826 66.7572 564.753 65.0684 560.118C64.7328 564.837 65.9286 571.931 68.0789 576.756C66.3796 578.793 64.1453 579.986 61.7013 579.986C49.502 579.986 40.6698 550.269 40.6698 530.232C40.6698 522.22 46.0615 515.696 52.7013 515.696C54.6104 515.696 56.446 516.234 58.1034 517.258C55.3132 523.265 54.002 534.413 59.9495 542.467C58.4915 536.471 57.5265 527.941 62.6454 518.483L62.9391 517.986C65.1943 514.123 68.8762 511.821 72.7783 511.821C76.1139 511.821 79.2083 513.436 81.5055 516.361L81.7153 516.625C86.2467 522.747 85.3866 526.168 85.8691 529.863C88.03 523.444 87.6104 519.021 86.4566 516.002C87.2433 515.812 88.0404 515.706 88.8481 515.706L88.8586 515.696Z" fill="#231F20"/>
<path fill-rule="evenodd" clip-rule="evenodd" d="M73.7955 521.449L72.6207 518.788L71.4458 516.128C67.313 518.799 61.1241 525.439 63.6836 535.13C65.0682 529.134 68.9074 522.694 73.7955 521.449Z" fill="white"/>
<path fill-rule="evenodd" clip-rule="evenodd" d="M51.2224 523.55L50.3727 521.628L49.5231 519.707C46.544 521.639 42.0651 526.432 43.9217 533.431C44.9182 529.103 47.6979 524.447 51.2224 523.55Z" fill="white"/>
<path d="M10.8587 623.001L10.8587 627.592C10.8587 630.726 9.50131 632.577 6.26823 632.577C3.05983 632.577 1.72711 630.825 1.72711 627.986L1.72711 618.756C1.72711 615.918 3.05983 614.19 6.26823 614.19C9.50131 614.19 10.8587 615.918 10.8587 618.756V619.916H7.74903V618.756C7.74903 617.473 7.25543 616.954 6.26823 616.954C5.33039 616.954 4.83679 617.473 4.83679 618.756V628.011C4.83679 629.319 5.33039 629.813 6.26823 629.813C7.25543 629.813 7.87243 629.245 7.87243 627.764V625.765H6.39163V623.001H10.8587ZM18.6329 614.412C22.0388 614.412 23.4455 616.165 23.4455 619.694C23.4455 622.088 22.9026 623.618 21.5452 624.457L24.0132 632.33H20.6814L18.6823 625.148H17.4236V632.33H14.3139L14.3139 614.412H18.6329ZM17.4236 622.359H18.3861C19.6942 622.359 20.3358 621.866 20.3358 619.719C20.3358 617.695 19.6942 617.201 18.3861 617.201H17.4236V622.359ZM28.84 632.33H25.8537L31.6535 614.412H41.2047V617.201H36.5155V621.496H40.3903V624.284H36.5155V629.541H41.4515V632.33H33.702V628.11H30.1234L28.84 632.33ZM33.6526 616.634L30.9872 625.42H33.702V616.634H33.6526ZM44.6578 632.33V614.412H47.4713L51.6669 625.321V614.412H54.5051V632.33H51.8397L47.5207 621.496V632.33H44.6578ZM68.8124 614.412C72.1935 614.412 73.625 616.165 73.625 619.694C73.625 623.396 72.1935 625.148 68.8124 625.148H67.603V632.33H64.4934V614.412H68.8124ZM67.603 622.359H68.5656C69.8736 622.359 70.5153 621.866 70.5153 619.719C70.5153 617.695 69.8736 617.201 68.5656 617.201H67.603V622.359ZM78.2145 628.603L77.5975 632.33H74.6112L78.0417 614.412H81.8424L85.273 632.33H82.1386L81.5216 628.603H78.2145ZM81.0527 625.815L79.868 618.657L78.6587 625.815H81.0527ZM92.3114 614.412C95.6925 614.412 97.124 616.165 97.124 619.694C97.124 623.396 95.6925 625.148 92.3114 625.148H91.1021V632.33H87.9924V614.412H92.3114ZM91.1021 622.359H92.0646C93.3726 622.359 94.0143 621.866 94.0143 619.719C94.0143 617.695 93.3726 617.201 92.0646 617.201H91.1021V622.359ZM104.531 614.412C107.937 614.412 109.343 616.165 109.343 619.694C109.343 622.088 108.801 623.618 107.443 624.457L109.911 632.33H106.579L104.58 625.148H103.322V632.33H100.212V614.412H104.531ZM103.322 622.359H104.284C105.592 622.359 106.234 621.866 106.234 619.719C106.234 617.695 105.592 617.201 104.284 617.201H103.322V622.359ZM116.071 614.412V632.33H112.986V614.412H116.071ZM123.133 614.412V620.953L126.514 614.412H129.969L125.774 621.52L130.167 632.33H126.662L123.898 624.186L123.133 625.321V632.33H120.023V614.412H123.133ZM134.877 628.603L134.26 632.33H131.274L134.704 614.412H138.505L141.936 632.33H138.801L138.184 628.603H134.877ZM137.715 625.815L136.531 618.657L135.321 625.815H137.715Z" fill="#0078AE"/>
<path d="M69.7067 662.755C69.7067 662.755 110.313 674.723 115.085 682.949C119.858 691.175 123.051 703.896 117.477 710.627C111.904 717.359 94.3933 727.832 86.4276 731.574C78.462 735.316 64.8994 737.575 64.8994 737.575C64.8994 737.575 80.0528 729.327 80.0528 709.875C80.0528 690.422 78.4619 676.218 74.4791 672.476C70.4963 668.733 69.7067 662.755 69.7067 662.755Z" fill="#C55450"/>
<path d="M49.0033 655.271C49.0033 655.271 77.661 667.239 80.8542 679.207C84.0358 691.175 83.2462 718.853 76.0818 727.08C68.9174 735.306 60.9517 745.037 52.9977 745.779C45.032 746.532 21.948 742.037 17.9652 736.8C13.9823 731.563 6.02818 716.606 5.22697 706.133C4.42576 695.659 4.42575 684.444 8.40858 676.96C12.3914 669.475 14.7835 664.239 19.556 661.249C24.3284 658.26 35.4756 654.518 35.4756 654.518L49.0149 655.271H49.0033Z" fill="white"/>
<path d="M108.757 674.843C96.3439 668.384 80.3313 661.195 67.9184 655.718C60.2546 651.932 51.5923 649.958 42.8719 650.001C42.8719 650.001 42.8719 650.001 42.8603 650.001C37.3447 650.034 31.9685 651.245 26.9058 653.612C10.4171 661.315 -0.137978 679.621 0.00136295 700.274C0.198762 727.854 19.7297 750.175 43.5454 750.034C44.9272 750.034 46.2974 749.946 47.6676 749.783C54.3675 749.248 60.9282 747.601 66.8386 744.841C67.3843 744.579 67.9417 744.317 68.4875 744.033L109.012 725.094C119.416 720.632 125.907 710.976 125.838 699.968C125.768 688.808 119.103 679.109 108.757 674.821V674.843ZM7.76969 700.241C7.65357 682.643 16.7339 666.541 30.3661 660.169C34.3605 658.304 38.5756 657.344 42.9184 657.311C62.4494 657.191 78.4736 676.261 78.6361 699.816C78.7522 717.413 69.6718 733.516 56.0396 739.888C53.0902 741.262 50.0132 742.146 46.8664 742.528C45.7401 742.615 44.6253 742.746 43.4874 742.746C23.9565 742.866 7.93225 723.795 7.76969 700.241ZM105.668 718.537L76.4066 732.207C82.8163 723.348 86.4856 711.98 86.4043 699.772C86.323 687.335 82.2706 675.988 75.6983 667.261C85.6263 671.734 96.3207 676.709 105.297 681.378C113.123 684.64 118.011 691.786 118.058 700.034C118.116 708.14 113.309 714.937 105.656 718.526L105.668 718.537Z" fill="#231F20"/>
<path fill-rule="evenodd" clip-rule="evenodd" d="M42.9529 663.704C55.389 663.628 66.1531 672.258 71.1113 684.728C71.3784 685.404 71.3204 686.091 70.9372 686.713C70.5541 687.335 69.9503 687.728 69.1955 687.848C63.1226 688.808 59.2558 693.652 52.9274 696.117C51.1508 693.575 47.4002 691.961 45.4494 691.972C43.4986 691.983 43.6961 692.124 42.8716 692.397C38.5869 686.713 33.0714 676.72 30.1336 669.345C29.6924 668.232 30.1917 666.999 31.3064 666.454C34.8944 664.697 38.8307 663.715 42.9529 663.693V663.704ZM73.8749 696.848C73.9562 697.841 73.9912 698.845 74.0028 699.849C74.1421 719.912 60.4634 736.255 43.4522 736.353C40.3867 736.375 37.4258 735.862 34.639 734.902C33.443 734.487 32.781 733.309 33.0829 732.153C35.4633 723.01 40.8744 719.279 43.6032 714.315C44.2534 714.479 42.6278 714.566 45.612 714.555C48.5962 714.533 55.2382 709.449 55.0988 703.22V702.86C61.2763 700.416 65.0268 695.616 71.0185 694.721C71.7268 694.612 72.3887 694.776 72.9577 695.201C73.5267 695.626 73.8401 696.183 73.8982 696.859L73.8749 696.848ZM22.853 727.232C23.4684 727.876 24.3509 728.138 25.2566 727.942C26.1623 727.745 26.8359 727.145 27.0913 726.305C29.6459 717.883 35.0453 714.566 37.7508 709.82C36.6361 707.987 35.9627 705.642 35.9511 703.318C35.9395 700.994 36.4736 699.009 37.4026 697.263C33.1875 691.895 27.6718 682.513 24.8386 675.88C24.4902 675.072 23.7587 674.538 22.8414 674.429C21.9241 674.32 21.0764 674.658 20.5191 675.367C15.4099 681.891 12.3212 690.63 12.3792 700.22C12.4489 710.977 16.4898 720.621 22.8298 727.232H22.853Z" fill="#961600"/>
<path d="M7.66303 773.353C11.0442 773.353 12.4756 775.106 12.4756 778.635C12.4756 782.337 11.0442 784.089 7.66303 784.089H6.45371V791.271H3.34403L3.34403 773.353H7.66303ZM6.45371 781.3H7.41623C8.72427 781.3 9.36595 780.807 9.36595 778.66C9.36595 776.636 8.72427 776.142 7.41623 776.142H6.45371V781.3ZM24.5717 786.927C24.5717 789.766 23.2143 791.518 19.9812 791.518C16.7728 791.518 15.4401 789.766 15.4401 786.927L15.4401 773.353H18.5498V786.952C18.5498 788.26 19.0434 788.754 19.9812 788.754C20.9684 788.754 21.462 788.26 21.462 786.952V773.353H24.5717V786.927ZM31.4952 773.353V788.482H36.4312V791.271H28.3856V773.353H31.4952ZM42.5096 773.353V788.482H47.4456V791.271H39.4V773.353H42.5096ZM58.2133 773.353V776.142H53.5241V780.436H57.3988V783.225H53.5241V788.482H58.4601V791.271H50.4144V773.353H58.2133ZM66.2109 773.353C69.444 773.353 70.8014 775.106 70.8014 777.944V786.705C70.8014 789.519 69.444 791.271 66.2109 791.271H61.6698V773.353H66.2109ZM64.7795 788.482H65.9888C67.1241 788.482 67.6917 787.915 67.6917 786.458V778.166C67.6917 776.71 67.1241 776.142 65.9888 776.142H64.7795V788.482ZM84.8603 773.353C88.2415 773.353 89.6729 775.106 89.6729 778.635C89.6729 782.337 88.2415 784.089 84.8603 784.089H83.651V791.271H80.5413V773.353H84.8603ZM83.651 781.3H84.6135C85.9216 781.3 86.5632 780.807 86.5632 778.66C86.5632 776.636 85.9216 776.142 84.6135 776.142H83.651V781.3ZM101.646 786.927C101.646 789.766 100.288 791.518 97.0551 791.518C93.8467 791.518 92.514 789.766 92.514 786.927V777.697C92.514 774.859 93.8467 773.131 97.0551 773.131C100.288 773.131 101.646 774.859 101.646 777.697V786.927ZM95.6237 786.952C95.6237 788.26 96.1173 788.754 97.0551 788.754C98.0423 788.754 98.5359 788.26 98.5359 786.952V777.697C98.5359 776.414 98.0423 775.895 97.0551 775.895C96.1173 775.895 95.6237 776.414 95.6237 777.697V786.952ZM109.661 773.353C113.067 773.353 114.473 775.106 114.473 778.635C114.473 781.029 113.93 782.559 112.573 783.398L115.041 791.271H111.709L109.71 784.089H108.452V791.271H105.342V773.353H109.661ZM108.452 781.3H109.414C110.722 781.3 111.364 780.807 111.364 778.66C111.364 776.636 110.722 776.142 109.414 776.142H108.452V781.3ZM121.225 773.353V779.894L124.606 773.353H128.062L123.866 780.461L128.259 791.271H124.755L121.99 783.127L121.225 784.262V791.271H118.116V773.353H121.225Z" fill="#0078AE"/>
<path fill-rule="evenodd" clip-rule="evenodd" d="M73.8019 813.859C90.3525 813.859 133.861 822.319 127.679 859.102C121.237 897.443 66.855 890.19 50.2914 890.19C33.7278 890.19 25.5756 873.101 32.0688 852.019C38.562 830.937 57.2383 813.848 73.8019 813.848V813.859Z" fill="#9B0D0D"/>
<path fill-rule="evenodd" clip-rule="evenodd" d="M48.3742 813.859C64.9248 813.859 73.0899 830.948 66.5966 852.03C60.1034 873.112 41.4273 890.201 24.8637 890.201C8.30009 890.201 0.147816 873.112 6.64106 852.03C13.1343 830.948 31.8106 813.859 48.3742 813.859Z" fill="#E31937"/>
<path d="M24.8635 894.047C17.5408 894.047 11.2937 891.351 6.7964 886.242C-0.293022 878.199 -1.95187 865.047 2.36399 851.026C9.44046 828.015 29.6589 810.001 48.374 810.001C55.6967 810.001 61.9436 812.697 66.4409 817.807C73.5304 825.849 75.1894 839.013 70.8735 853.034C63.797 876.033 43.5786 894.047 24.8635 894.047ZM48.374 817.705C33.9618 817.705 16.815 833.88 10.9179 853.034C7.36674 864.562 8.48135 875.503 13.8341 881.56C16.6335 884.741 20.3403 886.354 24.8765 886.354C39.2886 886.354 56.4353 870.179 62.3194 851.037C65.8706 839.498 64.756 828.568 59.4162 822.51C56.6168 819.329 52.9102 817.716 48.374 817.716V817.705Z" fill="#231F20"/>
<path d="M84.8193 894.047H24.8638V886.343H84.8193C106.554 886.343 124.245 870.946 124.245 852.029C124.245 833.113 106.554 817.705 84.8193 817.705H48.3742V810H84.8193C111.453 810 133.11 828.849 133.11 852.029C133.11 875.209 111.453 894.047 84.8193 894.047Z" fill="#231F20"/>
<path fill-rule="evenodd" clip-rule="evenodd" d="M128.043 851.376C133.227 848.375 138.424 845.375 143.621 842.375C145.047 841.551 146.809 841.574 148.209 842.408C149.622 843.254 150.257 844.676 149.894 846.131C148.533 851.444 148.442 856.914 149.894 862.554C150.27 863.998 149.622 865.431 148.222 866.277C146.809 867.123 145.047 867.134 143.621 866.31C138.424 863.31 133.24 860.321 128.056 857.32C126.876 856.644 126.228 855.583 126.228 854.343C126.228 853.102 126.876 852.053 128.056 851.365L128.043 851.376Z" fill="#231F20"/>
<path fill-rule="evenodd" clip-rule="evenodd" d="M33.8462 851.049C34.6886 848.296 36.7882 846.074 38.5249 846.074C40.2616 846.074 40.9874 848.308 40.145 851.049C39.3026 853.801 37.203 856.034 35.4663 856.034C33.7295 856.034 33.0037 853.801 33.8462 851.049Z" fill="white"/>
<path fill-rule="evenodd" clip-rule="evenodd" d="M29.1279 831.941C29.9704 829.188 32.07 826.966 33.8067 826.966C35.5434 826.966 36.2692 829.2 35.4267 831.941C34.5843 834.693 32.4847 836.926 30.748 836.926C29.0113 836.926 28.2855 834.693 29.1279 831.941Z" fill="white"/>
<path fill-rule="evenodd" clip-rule="evenodd" d="M46.2749 831.432C47.1173 828.68 49.2169 826.446 50.9536 826.446C52.6904 826.446 53.4161 828.68 52.5737 831.432C51.7313 834.184 49.6317 836.418 47.895 836.418C46.1582 836.418 45.4325 834.184 46.2749 831.432Z" fill="white"/>
<path fill-rule="evenodd" clip-rule="evenodd" d="M35.5174 871.712C36.3598 868.96 38.4594 866.727 40.1961 866.727C41.9328 866.727 42.6586 868.96 41.8032 871.712C40.9608 874.465 38.8612 876.687 37.1245 876.687C35.3877 876.687 34.662 874.453 35.5044 871.712H35.5174Z" fill="white"/>
<path fill-rule="evenodd" clip-rule="evenodd" d="M18.7334 872.141C19.5758 869.389 21.6754 867.155 23.4121 867.155C25.1488 867.155 25.8746 869.389 25.0322 872.141C24.1898 874.893 22.0902 877.127 20.3535 877.127C18.6167 877.127 17.891 874.893 18.7334 872.141Z" fill="white"/>
<path fill-rule="evenodd" clip-rule="evenodd" d="M17.6958 855.165C18.5382 852.413 20.6378 850.191 22.3745 850.191C24.1113 850.191 24.837 852.424 23.9946 855.165C23.1522 857.918 21.0526 860.151 19.3159 860.151C17.5791 860.151 16.8534 857.918 17.6958 855.165Z" fill="white"/>
<path fill-rule="evenodd" clip-rule="evenodd" d="M50.9136 852.132C51.756 849.38 53.8556 847.158 55.5923 847.158C57.329 847.158 58.0548 849.391 57.2124 852.132C56.3699 854.884 54.2704 857.118 52.5336 857.118C50.7969 857.118 50.0711 854.884 50.9136 852.132Z" fill="white"/>
<path fill-rule="evenodd" clip-rule="evenodd" d="M117.765 851.116C117.817 850.473 117.986 849.853 117.986 849.199C117.986 835.279 105.025 824 89.0318 824C87.645 824 86.31 824.191 84.9751 824.36C100.955 827.034 113.683 837.547 117.765 851.128V851.116Z" fill="white"/>
<path d="M10.2675 932.243C13.6487 932.243 15.0801 933.996 15.0801 937.525C15.0801 941.227 13.6487 942.979 10.2675 942.979H9.0582V950.161H5.94852L5.94852 932.243H10.2675ZM9.0582 940.19H10.0207C11.3288 940.19 11.9704 939.697 11.9704 937.55C11.9704 935.526 11.3288 935.032 10.0207 935.032H9.0582L9.0582 940.19ZM25.9669 932.243V935.032H21.2777L21.2777 939.327H25.1525V942.115H21.2777V947.372H26.2137V950.161H18.168L18.168 932.243H25.9669ZM33.7424 932.243C37.1236 932.243 38.555 933.996 38.555 937.525C38.555 941.227 37.1236 942.979 33.7424 942.979H32.5331V950.161H29.4234L29.4234 932.243H33.7424ZM32.5331 940.19H33.4956C34.8037 940.19 35.4454 939.697 35.4454 937.55C35.4454 935.526 34.8037 935.032 33.4956 935.032H32.5331V940.19ZM45.9619 932.243C49.3431 932.243 50.7745 933.996 50.7745 937.525C50.7745 941.227 49.3431 942.979 45.9619 942.979H44.7526L44.7526 950.161H41.6429L41.6429 932.243H45.9619ZM44.7526 940.19H45.7151C47.0232 940.19 47.6649 939.697 47.6649 937.55C47.6649 935.526 47.0232 935.032 45.7151 935.032H44.7526V940.19ZM61.6613 932.243V935.032H56.9721V939.327H60.8469V942.115H56.9721V947.372H61.9081L61.9081 950.161H53.8624L53.8624 932.243H61.6613ZM69.4369 932.243C72.8427 932.243 74.2495 933.996 74.2495 937.525C74.2495 939.919 73.7065 941.449 72.3491 942.288L74.8171 950.161H71.4853L69.4862 942.979H68.2275V950.161H65.1179V932.243H69.4369ZM68.2275 940.19H69.1901C70.4981 940.19 71.1398 939.697 71.1398 937.55C71.1398 935.526 70.4981 935.032 69.1901 935.032H68.2275V940.19ZM86.7765 945.817C86.7765 948.656 85.4191 950.408 82.186 950.408C78.9776 950.408 77.6449 948.656 77.6449 945.817V936.587C77.6449 933.749 78.9776 932.021 82.186 932.021C85.4191 932.021 86.7765 933.749 86.7765 936.587V945.817ZM80.7546 945.842C80.7546 947.15 81.2482 947.644 82.186 947.644C83.1732 947.644 83.6668 947.15 83.6668 945.842V936.587C83.6668 935.304 83.1732 934.785 82.186 934.785C81.2482 934.785 80.7546 935.304 80.7546 936.587V945.842ZM90.4727 950.161V932.243H93.2862L97.4818 943.152V932.243H100.32V950.161H97.6546L93.3356 939.327V950.161H90.4727ZM107.344 932.243V950.161H104.259V932.243H107.344Z" fill="#0078AE"/>
</svg>
