<svg width="150" height="970" viewBox="0 0 150 970" fill="none" xmlns="http://www.w3.org/2000/svg">
<path fill-rule="evenodd" clip-rule="evenodd" d="M74.8098 10.0002C112.697 9.92429 148.654 32.877 149.59 61.7495C149.971 73.4698 142.905 80.7124 133.675 83.9867C129.959 85.3094 125.892 85.9708 121.826 86.0033C115.696 86.0575 109.567 84.6914 104.549 82.0676L105.866 90.8497C106.861 97.3983 99.9707 103.231 90.9304 103.231H58.6747C49.6343 103.231 42.7443 97.4092 43.739 90.8497L45.0556 82.0676C40.0527 84.7022 33.9234 86.0575 27.7794 86.0033C23.7127 85.9708 19.646 85.3094 15.9304 83.9867C6.68526 80.7124 -0.365651 73.4698 0.0146886 61.7495C0.950908 32.877 36.9076 9.92429 74.7952 10.0002H74.8098Z" fill="#D8A96C"/>
<path fill-rule="evenodd" clip-rule="evenodd" d="M75.2049 10.0002C113.092 9.92429 149.049 32.877 149.985 61.7495C150.366 73.4698 143.3 80.7124 134.07 83.9867C130.354 85.3094 126.287 85.9708 122.221 86.0033C116.091 86.0575 109.962 84.6914 104.944 82.0676L106.261 90.8497C107.256 97.3983 100.366 103.231 91.3254 103.231H59.0697C50.0293 103.231 43.1394 97.4092 44.1341 90.8497L45.4507 82.0676C40.4477 84.7022 34.3184 86.0575 28.1745 86.0033C24.1078 85.9708 20.0411 85.3094 16.3254 83.9867C7.08028 80.7124 0.029369 73.4698 0.409708 61.7495C1.34593 32.877 37.3026 9.92429 75.1902 10.0002H75.2049ZM91.34 96.943C95.3775 96.943 98.3178 94.4493 97.8789 91.5328C97.1621 86.8164 95.6554 80.3871 94.6461 74.5324C93.8269 69.8377 91.735 61.9989 96.6502 58.3668C102.136 54.3118 113.444 54.8865 118.183 58.9631C92.0276 54.6371 99.7806 79.9426 122.147 79.7583C125 79.7366 127.838 79.2703 130.427 78.3596C136.893 76.0611 141.837 70.7376 141.559 61.9121C140.74 36.6284 108.894 16.2019 75.2049 16.2669C41.5302 16.2019 9.68412 36.6284 8.8503 61.9121C8.55773 70.7484 13.5022 76.0611 19.9826 78.3596C22.5718 79.2812 25.4097 79.7366 28.2622 79.7583C50.6291 79.9426 58.3822 54.6371 32.2265 58.9631C36.9808 54.8865 48.2739 54.3118 53.7596 58.3668C58.6747 61.9989 56.5829 69.8377 55.7637 74.5324C54.7397 80.3979 53.2476 86.8164 52.5308 91.5328C52.092 94.4493 55.0323 96.943 59.0697 96.943H91.3254H91.34Z" fill="#231F20"/>
<path d="M75.2049 27.3042C87.8585 27.3042 99.532 28.6378 108.894 30.8821C102.399 25.3418 89.7456 21.5796 75.2049 21.5796C60.6642 21.5796 47.996 25.3418 41.5156 30.8821C50.8924 28.6378 62.5513 27.3042 75.2049 27.3042Z" fill="#E2BE91"/>
<path d="M26.6525 147.13C26.6525 148.438 27.1954 148.932 28.1826 148.932C29.1945 148.932 29.7621 148.364 29.7621 147.056C29.7621 145.55 28.5528 144.539 27.3435 143.576C25.6653 142.243 23.7402 140.639 23.7402 137.653C23.7402 134.987 25.5665 133.334 28.1826 133.334C31.2429 133.334 32.625 135.061 32.625 137.9V138.739H29.5153V137.9C29.5153 136.616 29.0464 136.098 28.2073 136.098C27.3188 136.098 26.8499 136.641 26.8499 137.653C26.8499 139.158 28.2073 140.269 29.3919 141.182C31.1195 142.515 32.8718 144.045 32.8718 147.031C32.8718 149.993 30.9468 151.72 28.2073 151.72C24.9989 151.72 23.5428 149.968 23.5428 147.13V145.921H26.6525V147.13ZM45.426 133.556L41.9955 151.474H38.1948L34.7643 133.556H38.022L40.1692 146.538L42.3163 133.556H45.426ZM55.9443 133.556V136.345H51.2551V140.639H55.1299V143.428H51.2551V148.685H56.1911V151.474H48.1455V133.556H55.9443ZM63.7199 133.556C67.101 133.556 68.5325 135.308 68.5325 138.837C68.5325 142.539 67.101 144.292 63.7199 144.292H62.5106V151.474H59.4009V133.556H63.7199ZM62.5106 141.503H63.4731C64.7811 141.503 65.4228 141.009 65.4228 138.862C65.4228 136.838 64.7811 136.345 63.4731 136.345H62.5106V141.503ZM75.9394 133.556C79.3205 133.556 80.752 135.308 80.752 138.837C80.752 142.539 79.3205 144.292 75.9394 144.292H74.7301V151.474H71.6204V133.556H75.9394ZM74.7301 141.503H75.6926C77.0006 141.503 77.6423 141.009 77.6423 138.862C77.6423 136.838 77.0006 136.345 75.6926 136.345H74.7301V141.503ZM86.9249 133.556V151.474H83.8399V133.556H86.9249ZM95.1965 133.556C98.6024 133.556 100.009 135.308 100.009 138.837C100.009 141.231 99.4662 142.762 98.1088 143.601L100.577 151.474H97.245L95.2459 144.292H93.9872V151.474H90.8775V133.556H95.1965ZM93.9872 141.503H94.9497C96.2578 141.503 96.8994 141.009 96.8994 138.862C96.8994 136.838 96.2578 136.345 94.9497 136.345H93.9872V141.503Z" fill="#0078AE"/>
<path fill-rule="evenodd" clip-rule="evenodd" d="M39.0161 190.672C62.7736 175.268 95.459 169.664 123.697 174.304C133.561 175.919 140.75 180.58 143.242 186.975C150.397 205.284 141.754 226.475 117.996 241.878C90.0756 259.981 49.8499 264.544 18.9702 254.875C4.05692 234.854 11.0956 208.774 39.0161 190.672Z" fill="#B6EF18"/>
<path d="M53.1108 262.615C40.3042 262.615 28.183 260.848 17.0984 257.38L15.7608 256.957L15.1088 256.079C-1.07506 234.356 7.31782 207.279 35.9907 188.699C59.6646 173.35 94.6238 166.662 124.768 171.605C136.087 173.459 144.563 178.954 147.422 186.282C155.196 206.195 145.098 228.253 121.056 243.841C102.666 255.764 77.9049 262.615 53.1443 262.615H53.1108ZM22.1809 252.794C31.7274 255.613 42.1265 257.054 53.1108 257.054C75.6144 257.054 98.1682 250.811 114.954 239.917C136.872 225.706 146.118 205.685 139.079 187.659C136.973 182.25 130.971 178.369 122.645 177.003C95.3427 172.537 63.6103 178.64 42.0429 192.645C16.346 209.306 8.47142 233.348 22.1809 252.794Z" fill="#231F20"/>
<path fill-rule="evenodd" clip-rule="evenodd" d="M115.36 228.308C104.075 232.611 93.6257 234.118 66.608 231.755C87.7407 219.138 107.168 205.881 114.641 189.719C104.359 200.168 90.9841 209.176 76.4554 217.685C70.4032 208.255 70.0856 204.146 72.1253 199.377C65.7219 206.65 70.2193 216.157 72.4931 219.972C63.6989 225.002 54.5704 229.891 45.4754 234.812C35.444 219.073 35.0428 212.211 38.4869 204.168C28.0041 216.081 34.7084 231.571 38.6875 238.519C24.9613 246.042 11.5862 253.77 0 262.41L10.2487 268.025C22.7544 256.968 40.7105 246.92 58.3656 236.622C61.5087 236.98 96.2506 240.579 115.327 228.33L115.36 228.308Z" fill="#231F20"/>
<path d="M33.7237 307.137C33.7237 308.445 34.2667 308.939 35.2539 308.939C36.2658 308.939 36.8334 308.371 36.8334 307.063C36.8334 305.558 35.6241 304.546 34.4148 303.583C32.7365 302.251 30.8115 300.646 30.8115 297.66C30.8115 294.995 32.6378 293.341 35.2539 293.341C38.3142 293.341 39.6963 295.069 39.6963 297.907V298.746H36.5866V297.907C36.5866 296.624 36.1177 296.105 35.2786 296.105C34.3901 296.105 33.9212 296.648 33.9212 297.66C33.9212 299.166 35.2786 300.276 36.4632 301.189C38.1908 302.522 39.9431 304.052 39.9431 307.039C39.9431 310 38.0181 311.728 35.2786 311.728C32.0702 311.728 30.6141 309.975 30.6141 307.137V305.928H33.7237V307.137ZM47.3886 293.563C50.7697 293.563 52.2012 295.316 52.2012 298.845C52.2012 302.547 50.7697 304.299 47.3886 304.299H46.1792V311.481H43.0696V293.563H47.3886ZM46.1792 301.51H47.1418C48.4498 301.51 49.0915 301.017 49.0915 298.869C49.0915 296.846 48.4498 296.352 47.1418 296.352H46.1792V301.51ZM57.683 292.107H55.2644L56.7945 289.047H59.9782L57.683 292.107ZM58.374 293.563V311.481H55.289V293.563H58.374ZM62.3267 311.481V293.563H65.1402L69.3358 304.472V293.563H72.174V311.481H69.5086L65.1896 300.646V311.481H62.3267ZM78.4821 307.754L77.8651 311.481H74.8788L78.3093 293.563H82.11L85.5406 311.481H82.4062L81.7892 307.754H78.4821ZM81.3203 304.965L80.1356 297.808L78.9263 304.965H81.3203ZM95.2652 293.563V296.352H92.2543V311.481H89.1693V296.352H86.1583V293.563H95.2652Z" fill="#0078AE"/>
<path d="M7.0941 452.209C10.9333 452.209 12.519 454.184 12.519 458.162C12.519 460.861 11.907 462.586 10.3769 463.532L13.1589 472.406H9.40316L7.14974 464.311H5.73092L5.73092 472.406H2.2256L2.2256 452.209H7.0941ZM5.73092 461.167H6.8159C8.29036 461.167 9.01368 460.611 9.01368 458.19C9.01368 455.909 8.29036 455.353 6.8159 455.353H5.73092V461.167ZM16.7294 469.569C17.6474 469.569 18.1204 469.068 18.1204 467.788V452.209H21.6257V468.066C21.6257 471.043 20.4016 472.684 17.0076 472.684H15.5053V469.569H16.7294ZM31.7298 450.568H29.0034L30.7283 447.118H34.3171L31.7298 450.568ZM35.9584 467.51C35.9584 470.709 34.4283 472.684 30.7839 472.684C27.1673 472.684 25.665 470.709 25.665 467.51V457.105C25.665 453.906 27.1673 451.959 30.7839 451.959C34.4283 451.959 35.9584 453.906 35.9584 457.105V467.51ZM29.1704 467.538C29.1704 469.012 29.7268 469.569 30.7839 469.569C31.8967 469.569 32.4531 469.012 32.4531 467.538V457.105C32.4531 455.659 31.8967 455.074 30.7839 455.074C29.7268 455.074 29.1704 455.659 29.1704 457.105V467.538ZM49.3612 472.406H46.3288L43.2686 459.804V472.406H40.1249V452.209H44.1032L47.7476 467.538L51.4198 452.209H55.565V472.406H52.4214V459.832L49.3612 472.406ZM62.6826 468.205L61.9871 472.406H58.6209L62.4878 452.209H66.7721L70.6391 472.406H67.106L66.4105 468.205H62.6826ZM65.8819 465.062L64.5465 456.994L63.1833 465.062H65.8819ZM83.7197 467.51C83.7197 470.709 82.1896 472.684 78.5452 472.684C74.9286 472.684 73.4263 470.709 73.4263 467.51V457.105C73.4263 453.906 74.9286 451.959 78.5452 451.959C82.1896 451.959 83.7197 453.906 83.7197 457.105V467.51ZM76.9316 467.538C76.9316 469.012 77.488 469.569 78.5452 469.569C79.658 469.569 80.2144 469.012 80.2144 467.538V457.105C80.2144 455.659 79.658 455.074 78.5452 455.074C77.488 455.074 76.9316 455.659 76.9316 457.105V467.538ZM90.4735 467.51C90.4735 468.984 91.0855 469.541 92.1983 469.541C93.3389 469.541 93.9788 468.901 93.9788 467.426C93.9788 465.729 92.6156 464.589 91.2524 463.504C89.3607 462.002 87.1907 460.193 87.1907 456.827C87.1907 453.822 89.2494 451.959 92.1983 451.959C95.648 451.959 97.2059 453.906 97.2059 457.105V458.051H93.7006V457.105C93.7006 455.659 93.172 455.074 92.2261 455.074C91.2246 455.074 90.696 455.686 90.696 456.827C90.696 458.524 92.2261 459.776 93.5615 460.805C95.5089 462.308 97.4841 464.032 97.4841 467.399C97.4841 470.737 95.3141 472.684 92.2261 472.684C88.6095 472.684 86.9681 470.709 86.9681 467.51V466.147H90.4735V467.51ZM109.883 452.209V455.353H106.489V472.406H103.011V455.353H99.6173V452.209H109.883ZM123.089 467.51C123.089 470.709 121.559 472.684 117.915 472.684C114.298 472.684 112.796 470.709 112.796 467.51V452.209H116.301V467.538C116.301 469.012 116.858 469.569 117.915 469.569C119.028 469.569 119.584 469.012 119.584 467.538V452.209H123.089V467.51ZM132.257 452.209C136.096 452.209 137.682 454.184 137.682 458.162C137.682 460.861 137.07 462.586 135.54 463.532L138.322 472.406H134.566L132.313 464.311H130.894V472.406H127.388V452.209H132.257ZM130.894 461.167H131.979C133.453 461.167 134.177 460.611 134.177 458.19C134.177 455.909 133.453 455.353 131.979 455.353H130.894V461.167Z" fill="#0078AE"/>
<path d="M107.547 366.512C104.933 361.333 99.1257 356.239 89.9329 351.06C77.0864 343.827 75.5114 334.277 75.4578 333.921L74.9543 330L70.9257 330.22C69.8436 330.283 60.1792 331.195 53.0007 344.729C51.7685 347.066 50.9971 349.205 50.4078 351.259C47.3757 351.647 42.265 352.486 37.09 354.132C25.0793 357.968 20.9971 363.64 20.0221 368.619C11.5364 371.533 -0.206458 379.92 1.30426 396.713C3.7364 423.675 49.9686 424.252 65.1614 424.441C65.6971 424.441 66.2436 424.441 66.7793 424.441C80.365 424.441 93.8328 422.323 103.969 418.56C118.304 413.245 126.479 404.67 127.604 393.778C129.736 373.169 113.001 367.728 107.547 366.512ZM118.99 392.929C117.34 408.863 91.09 415.981 66.8114 415.981C66.2971 415.981 65.7828 415.981 65.2685 415.981C40.8186 415.677 11.365 411.956 9.92931 395.98C8.91145 384.679 16.0471 379.563 20.89 377.414C22.2079 381.167 24.5971 384.564 28.1114 387.363C35.44 393.202 47.0436 396.273 61.0686 396.273C65.9007 396.273 71.0114 395.906 76.3472 395.172C76.3472 395.172 50.1507 396.032 33.5864 380.8C30.5543 378.012 28.6043 375.139 28.3793 371.628C27.94 364.761 40.5614 360.977 49.315 359.782C49.5721 364.803 51.3079 367.885 51.4364 368.105C51.4364 368.105 53.6221 343.691 68.3007 339.927C70.3043 344.823 74.9543 352.423 85.6043 358.419C98.7829 365.841 100.39 370.883 100.508 372.707C101.622 389.05 91.3579 393.715 91.3579 393.715C105.329 390.832 108.651 382.561 109.122 375.779C113.74 377.592 120.094 382.09 118.969 392.95L118.99 392.929Z" fill="#231F20"/>
<path fill-rule="evenodd" clip-rule="evenodd" d="M73.1769 508.928C77.2364 508.928 80.8972 510.987 83.4776 514.28C85.2399 513.33 87.1909 512.802 89.2469 512.802C97.0825 512.802 103.439 520.488 103.439 529.957C103.439 548.769 94.3343 582.339 80.2469 582.339C76.5336 582.339 73.2294 580.165 71.1735 576.818C69.1175 580.165 65.8238 582.339 62.1 582.339C47.7923 582.339 38.9077 550.553 38.9077 529.957C38.9077 520.488 45.2644 512.802 53.1001 512.802C56.2784 512.802 59.2049 514.069 61.5755 516.191C64.1455 511.789 68.3832 508.917 73.1769 508.917V508.928Z" fill="#69A53A"/>
<path fill-rule="evenodd" clip-rule="evenodd" d="M67.3871 507.957C64.8801 508.96 62.5409 510.586 60.7262 512.982C58.2927 511.325 55.555 510.448 52.7123 510.448C43.6913 510.448 36.3486 519.327 36.3486 530.232C36.3486 549.973 44.8241 585.232 61.7123 585.232C65.0794 585.232 68.3207 583.68 70.7857 580.978C73.2507 583.68 76.492 585.232 79.8592 585.232C96.2753 585.232 105.223 548.896 105.223 530.232C105.223 519.327 97.8801 510.448 88.8591 510.448C87.0444 510.448 85.2822 510.797 83.5934 511.493C82.3032 510.111 80.8032 509.129 79.2403 508.358C79.0724 503.872 81.0235 500.483 84.3381 500.483V490C76.1353 490 68.3417 498.213 67.3976 507.957H67.3871ZM88.8591 515.695C95.4885 515.695 100.88 522.219 100.88 530.232C100.88 547.714 92.2053 579.985 79.8592 579.985C76.9431 579.985 74.2682 578.36 72.5269 575.52L72.3906 575.298C70.2822 571.825 66.7577 564.752 65.0689 560.118C64.7333 564.837 65.9291 571.931 68.0794 576.755C66.3801 578.793 64.1458 579.985 61.7018 579.985C49.5025 579.985 40.6703 550.268 40.6703 530.232C40.6703 522.219 46.0619 515.695 52.7018 515.695C54.6109 515.695 56.4465 516.233 58.1039 517.257C55.3137 523.264 54.0025 534.412 59.95 542.467C58.492 536.471 57.527 527.941 62.6458 518.482L62.9396 517.986C65.1948 514.122 68.8766 511.821 72.7787 511.821C76.1144 511.821 79.2088 513.436 81.506 516.36L81.7158 516.624C86.2472 522.747 85.3871 526.167 85.8696 529.862C88.0305 523.444 87.6109 519.02 86.457 516.001C87.2438 515.811 88.0409 515.706 88.8486 515.706L88.8591 515.695Z" fill="#231F20"/>
<path fill-rule="evenodd" clip-rule="evenodd" d="M73.796 521.448L72.6212 518.788L71.4463 516.127C67.3135 518.798 61.1246 525.438 63.6841 535.13C65.0687 529.133 68.9079 522.694 73.796 521.448Z" fill="white"/>
<path fill-rule="evenodd" clip-rule="evenodd" d="M51.2228 523.549L50.3732 521.628L49.5236 519.707C46.5445 521.638 42.0655 526.431 43.9222 533.43C44.9187 529.102 47.6984 524.447 51.2228 523.549Z" fill="white"/>
<path d="M10.8592 623.001L10.8592 627.591C10.8592 630.725 9.5018 632.576 6.26872 632.576C3.06032 632.576 1.7276 630.824 1.7276 627.986L1.7276 618.756C1.7276 615.917 3.06032 614.19 6.26872 614.19C9.5018 614.19 10.8592 615.917 10.8592 618.756V619.916H7.74952V618.756C7.74952 617.472 7.25592 616.954 6.26872 616.954C5.33088 616.954 4.83728 617.472 4.83728 618.756V628.011C4.83728 629.319 5.33088 629.812 6.26872 629.812C7.25592 629.812 7.87292 629.245 7.87292 627.764V625.765H6.39212V623.001H10.8592ZM18.6334 614.412C22.0392 614.412 23.446 616.164 23.446 619.693C23.446 622.087 22.903 623.618 21.5456 624.457L24.0136 632.33H20.6818L18.6828 625.148H17.4241V632.33H14.3144L14.3144 614.412H18.6334ZM17.4241 622.359H18.3866C19.6946 622.359 20.3363 621.865 20.3363 619.718C20.3363 617.694 19.6946 617.201 18.3866 617.201H17.4241V622.359ZM28.8405 632.33H25.8542L31.654 614.412H41.2052V617.201H36.516V621.495H40.3907V624.284H36.516V629.541H41.452V632.33H33.7025V628.109H30.1239L28.8405 632.33ZM33.6531 616.633L30.9877 625.419H33.7025V616.633H33.6531ZM44.6583 632.33V614.412H47.4718L51.6674 625.32V614.412H54.5056V632.33H51.8401L47.5211 621.495V632.33H44.6583ZM68.8129 614.412C72.194 614.412 73.6255 616.164 73.6255 619.693C73.6255 623.395 72.194 625.148 68.8129 625.148H67.6035V632.33H64.4939V614.412H68.8129ZM67.6035 622.359H68.5661C69.8741 622.359 70.5158 621.865 70.5158 619.718C70.5158 617.694 69.8741 617.201 68.5661 617.201H67.6035V622.359ZM78.215 628.603L77.598 632.33H74.6117L78.0422 614.412H81.8429L85.2734 632.33H82.1391L81.5221 628.603H78.215ZM81.0532 625.814L79.8685 618.657L78.6592 625.814H81.0532ZM92.3119 614.412C95.693 614.412 97.1245 616.164 97.1245 619.693C97.1245 623.395 95.693 625.148 92.3119 625.148H91.1026V632.33H87.9929V614.412H92.3119ZM91.1026 622.359H92.0651C93.3731 622.359 94.0148 621.865 94.0148 619.718C94.0148 617.694 93.3731 617.201 92.0651 617.201H91.1026V622.359ZM104.531 614.412C107.937 614.412 109.344 616.164 109.344 619.693C109.344 622.087 108.801 623.618 107.444 624.457L109.912 632.33H106.58L104.581 625.148H103.322V632.33H100.212V614.412H104.531ZM103.322 622.359H104.285C105.593 622.359 106.234 621.865 106.234 619.718C106.234 617.694 105.593 617.201 104.285 617.201H103.322V622.359ZM116.071 614.412V632.33H112.986V614.412H116.071ZM123.134 614.412V620.952L126.515 614.412H129.97L125.774 621.52L130.167 632.33H126.663L123.899 624.185L123.134 625.32V632.33H120.024V614.412H123.134ZM134.878 628.603L134.261 632.33H131.274L134.705 614.412H138.506L141.936 632.33H138.802L138.185 628.603H134.878ZM137.716 625.814L136.531 618.657L135.322 625.814H137.716Z" fill="#0078AE"/>
<path d="M69.7072 662.754C69.7072 662.754 110.313 674.723 115.086 682.949C119.858 691.175 123.051 703.895 117.478 710.627C111.904 717.358 94.3937 727.832 86.4281 731.574C78.4625 735.316 64.8999 737.574 64.8999 737.574C64.8999 737.574 80.0533 729.326 80.0533 709.874C80.0533 690.422 78.4624 676.217 74.4796 672.475C70.4968 668.733 69.7072 662.754 69.7072 662.754Z" fill="#C55450"/>
<path d="M49.0038 655.27C49.0038 655.27 77.6615 667.238 80.8547 679.207C84.0363 691.175 83.2467 718.853 76.0823 727.079C68.9178 735.305 60.9522 745.037 52.9981 745.779C45.0325 746.531 21.9485 742.036 17.9656 736.8C13.9828 731.563 6.02867 716.606 5.22746 706.132C4.42625 695.659 4.42624 684.443 8.40906 676.959C12.3919 669.475 14.784 664.238 19.5564 661.249C24.3289 658.26 35.4761 654.518 35.4761 654.518L49.0154 655.27H49.0038Z" fill="white"/>
<path d="M108.757 674.842C96.3444 668.384 80.3318 661.194 67.9189 655.717C60.2551 651.932 51.5928 649.957 42.8724 650.001C42.8724 650.001 42.8724 650.001 42.8608 650.001C37.3452 650.033 31.969 651.244 26.9063 653.612C10.4176 661.314 -0.13749 679.621 0.00185123 700.273C0.199251 727.853 19.7302 750.175 43.5458 750.033C44.9276 750.033 46.2979 749.946 47.6681 749.782C54.368 749.248 60.9287 747.6 66.839 744.84C67.3848 744.578 67.9422 744.316 68.488 744.033L109.013 725.093C119.417 720.631 125.908 710.976 125.838 699.968C125.769 688.807 119.103 679.108 108.757 674.821V674.842ZM7.77017 700.241C7.65406 682.643 16.7344 666.54 30.3666 660.169C34.361 658.303 38.5761 657.343 42.9189 657.31C62.4498 657.19 78.474 676.261 78.6366 699.815C78.7527 717.413 69.6723 733.516 56.0401 739.887C53.0907 741.262 50.0137 742.145 46.8669 742.527C45.7406 742.614 44.6258 742.745 43.4879 742.745C23.9569 742.865 7.93274 723.795 7.77017 700.241ZM105.669 718.536L76.4071 732.206C82.8168 723.348 86.4861 711.98 86.4048 699.771C86.3235 687.334 82.271 675.988 75.6988 667.26C85.6268 671.733 96.3212 676.708 105.297 681.377C113.123 684.639 118.012 691.785 118.058 700.033C118.116 708.139 113.309 714.936 105.657 718.526L105.669 718.536Z" fill="#231F20"/>
<path fill-rule="evenodd" clip-rule="evenodd" d="M42.9533 663.704C55.3895 663.627 66.1536 672.257 71.1118 684.727C71.3789 685.403 71.3209 686.091 70.9377 686.713C70.5545 687.335 69.9507 687.727 69.196 687.847C63.123 688.807 59.2563 693.651 52.9279 696.117C51.1513 693.575 47.4007 691.96 45.4499 691.971C43.4991 691.982 43.6966 692.124 42.8721 692.397C38.5874 686.713 33.0719 676.719 30.1341 669.344C29.6928 668.231 30.1922 666.999 31.3069 666.453C34.8949 664.697 38.8312 663.715 42.9533 663.693V663.704ZM73.8754 696.848C73.9567 697.841 73.9916 698.844 74.0033 699.848C74.1426 719.911 60.4639 736.254 43.4527 736.353C40.3872 736.374 37.4263 735.862 34.6395 734.902C33.4434 734.487 32.7815 733.309 33.0834 732.152C35.4638 723.01 40.8749 719.279 43.6037 714.315C44.2539 714.478 42.6283 714.566 45.6125 714.555C48.5967 714.533 55.2387 709.449 55.0993 703.219V702.859C61.2768 700.415 65.0273 695.615 71.019 694.721C71.7273 694.611 72.3892 694.775 72.9582 695.201C73.5271 695.626 73.8406 696.182 73.8986 696.859L73.8754 696.848ZM22.8535 727.232C23.4689 727.876 24.3514 728.137 25.2571 727.941C26.1628 727.745 26.8364 727.145 27.0918 726.305C29.6464 717.882 35.0458 714.566 37.7513 709.82C36.6366 707.987 35.9632 705.641 35.9516 703.317C35.94 700.994 36.4741 699.008 37.403 697.263C33.188 691.895 27.6723 682.512 24.8391 675.879C24.4907 675.072 23.7592 674.537 22.8419 674.428C21.9246 674.319 21.0769 674.657 20.5195 675.366C15.4104 681.891 12.3217 690.629 12.3797 700.219C12.4494 710.976 16.4903 720.621 22.8303 727.232H22.8535Z" fill="#961600"/>
<path d="M7.66352 773.353C11.0447 773.353 12.4761 775.105 12.4761 778.634C12.4761 782.336 11.0447 784.089 7.66352 784.089H6.4542V791.271H3.34452L3.34452 773.353H7.66352ZM6.4542 781.3H7.41672C8.72476 781.3 9.36644 780.806 9.36644 778.659C9.36644 776.635 8.72476 776.142 7.41672 776.142H6.4542V781.3ZM24.5722 786.927C24.5722 789.765 23.2148 791.517 19.9817 791.517C16.7733 791.517 15.4406 789.765 15.4406 786.927L15.4406 773.353H18.5503V786.952C18.5503 788.26 19.0439 788.753 19.9817 788.753C20.9689 788.753 21.4625 788.26 21.4625 786.952V773.353H24.5722V786.927ZM31.4957 773.353V788.482H36.4317V791.271H28.386V773.353H31.4957ZM42.5101 773.353V788.482H47.4461V791.271H39.4005V773.353H42.5101ZM58.2137 773.353V776.142H53.5245V780.436H57.3993V783.225H53.5245V788.482H58.4605V791.271H50.4149V773.353H58.2137ZM66.2114 773.353C69.4445 773.353 70.8019 775.105 70.8019 777.943V786.705C70.8019 789.518 69.4445 791.271 66.2114 791.271H61.6703V773.353H66.2114ZM64.78 788.482H65.9893C67.1246 788.482 67.6922 787.914 67.6922 786.458V778.165C67.6922 776.709 67.1246 776.142 65.9893 776.142H64.78V788.482ZM84.8608 773.353C88.242 773.353 89.6734 775.105 89.6734 778.634C89.6734 782.336 88.242 784.089 84.8608 784.089H83.6515V791.271H80.5418V773.353H84.8608ZM83.6515 781.3H84.614C85.9221 781.3 86.5637 780.806 86.5637 778.659C86.5637 776.635 85.9221 776.142 84.614 776.142H83.6515V781.3ZM101.646 786.927C101.646 789.765 100.289 791.517 97.0556 791.517C93.8472 791.517 92.5145 789.765 92.5145 786.927V777.697C92.5145 774.858 93.8472 773.131 97.0556 773.131C100.289 773.131 101.646 774.858 101.646 777.697V786.927ZM95.6242 786.952C95.6242 788.26 96.1178 788.753 97.0556 788.753C98.0428 788.753 98.5364 788.26 98.5364 786.952V777.697C98.5364 776.413 98.0428 775.895 97.0556 775.895C96.1178 775.895 95.6242 776.413 95.6242 777.697V786.952ZM109.661 773.353C113.067 773.353 114.474 775.105 114.474 778.634C114.474 781.028 113.931 782.558 112.574 783.398L115.042 791.271H111.71L109.711 784.089H108.452V791.271H105.342V773.353H109.661ZM108.452 781.3H109.415C110.723 781.3 111.364 780.806 111.364 778.659C111.364 776.635 110.723 776.142 109.415 776.142H108.452V781.3ZM121.226 773.353V779.893L124.607 773.353H128.062L123.867 780.461L128.26 791.271H124.755L121.991 783.126L121.226 784.261V791.271H118.116V773.353H121.226Z" fill="#0078AE"/>
<path fill-rule="evenodd" clip-rule="evenodd" d="M73.8024 813.858C90.353 813.858 133.862 822.318 127.679 859.102C121.238 897.442 66.8555 890.189 50.2919 890.189C33.7283 890.189 25.576 873.1 32.0693 852.018C38.5625 830.936 57.2388 813.847 73.8024 813.847V813.858Z" fill="#9B0D0D"/>
<path fill-rule="evenodd" clip-rule="evenodd" d="M48.3747 813.858C64.9253 813.858 73.0904 830.947 66.5971 852.029C60.1039 873.111 41.4278 890.2 24.8642 890.2C8.30057 890.2 0.148304 873.111 6.64155 852.029C13.1348 830.947 31.8111 813.858 48.3747 813.858Z" fill="#E31937"/>
<path d="M24.864 894.047C17.5413 894.047 11.2942 891.351 6.79689 886.241C-0.292534 878.198 -1.95138 865.046 2.36448 851.025C9.44095 828.014 29.6594 810 48.3745 810C55.6972 810 61.9441 812.696 66.4414 817.806C73.5308 825.849 75.1899 839.012 70.874 853.033C63.7975 876.033 43.579 894.047 24.864 894.047ZM48.3745 817.705C33.9623 817.705 16.8155 833.88 10.9184 853.033C7.36723 864.561 8.48184 875.503 13.8345 881.56C16.634 884.741 20.3408 886.354 24.877 886.354C39.2891 886.354 56.4358 870.179 62.3199 851.037C65.8711 839.497 64.7565 828.567 59.4167 822.51C56.6173 819.329 52.9107 817.716 48.3745 817.716V817.705Z" fill="#231F20"/>
<path d="M84.8198 894.046H24.8643V886.342H84.8198C106.555 886.342 124.246 870.945 124.246 852.029C124.246 833.112 106.555 817.704 84.8198 817.704H48.3747V810H84.8198C111.454 810 133.111 828.849 133.111 852.029C133.111 875.209 111.454 894.046 84.8198 894.046Z" fill="#231F20"/>
<path fill-rule="evenodd" clip-rule="evenodd" d="M128.043 851.375C133.227 848.375 138.424 845.375 143.622 842.374C145.047 841.551 146.81 841.573 148.21 842.408C149.622 843.254 150.257 844.675 149.895 846.13C148.534 851.443 148.443 856.914 149.895 862.554C150.27 863.998 149.622 865.43 148.223 866.276C146.81 867.122 145.047 867.133 143.622 866.31C138.424 863.309 133.24 860.32 128.056 857.32C126.877 856.643 126.229 855.583 126.229 854.342C126.229 853.101 126.877 852.052 128.056 851.364L128.043 851.375Z" fill="#231F20"/>
<path fill-rule="evenodd" clip-rule="evenodd" d="M33.8467 851.048C34.6891 848.296 36.7887 846.074 38.5254 846.074C40.2621 846.074 40.9879 848.307 40.1455 851.048C39.303 853.8 37.2035 856.034 35.4667 856.034C33.73 856.034 33.0042 853.8 33.8467 851.048Z" fill="white"/>
<path fill-rule="evenodd" clip-rule="evenodd" d="M29.1284 831.94C29.9708 829.188 32.0704 826.966 33.8072 826.966C35.5439 826.966 36.2697 829.199 35.4272 831.94C34.5848 834.693 32.4852 836.926 30.7485 836.926C29.0118 836.926 28.286 834.693 29.1284 831.94Z" fill="white"/>
<path fill-rule="evenodd" clip-rule="evenodd" d="M46.2754 831.431C47.1178 828.679 49.2174 826.446 50.9541 826.446C52.6908 826.446 53.4166 828.679 52.5742 831.431C51.7318 834.184 49.6322 836.417 47.8955 836.417C46.1587 836.417 45.4329 834.184 46.2754 831.431Z" fill="white"/>
<path fill-rule="evenodd" clip-rule="evenodd" d="M35.5178 871.712C36.3603 868.959 38.4599 866.726 40.1966 866.726C41.9333 866.726 42.6591 868.959 41.8037 871.712C40.9613 874.464 38.8617 876.686 37.1249 876.686C35.3882 876.686 34.6624 874.453 35.5049 871.712H35.5178Z" fill="white"/>
<path fill-rule="evenodd" clip-rule="evenodd" d="M18.7339 872.14C19.5763 869.388 21.6759 867.155 23.4126 867.155C25.1493 867.155 25.8751 869.388 25.0327 872.14C24.1903 874.893 22.0907 877.126 20.3539 877.126C18.6172 877.126 17.8914 874.893 18.7339 872.14Z" fill="white"/>
<path fill-rule="evenodd" clip-rule="evenodd" d="M17.6963 855.165C18.5387 852.413 20.6383 850.19 22.375 850.19C24.1117 850.19 24.8375 852.424 23.9951 855.165C23.1527 857.917 21.0531 860.151 19.3164 860.151C17.5796 860.151 16.8538 857.917 17.6963 855.165Z" fill="white"/>
<path fill-rule="evenodd" clip-rule="evenodd" d="M50.9141 852.132C51.7565 849.379 53.8561 847.157 55.5928 847.157C57.3295 847.157 58.0553 849.391 57.2129 852.132C56.3704 854.884 54.2708 857.117 52.5341 857.117C50.7974 857.117 50.0716 854.884 50.9141 852.132Z" fill="white"/>
<path fill-rule="evenodd" clip-rule="evenodd" d="M117.766 851.116C117.818 850.473 117.986 849.852 117.986 849.198C117.986 835.279 105.026 823.999 89.0322 823.999C87.6455 823.999 86.3105 824.191 84.9756 824.36C100.956 827.033 113.683 837.546 117.766 851.127V851.116Z" fill="white"/>
<path d="M10.268 932.243C13.6492 932.243 15.0806 933.995 15.0806 937.524C15.0806 941.226 13.6492 942.979 10.268 942.979H9.05869V950.161H5.94901L5.94901 932.243H10.268ZM9.05869 940.19H10.0212C11.3292 940.19 11.9709 939.696 11.9709 937.549C11.9709 935.525 11.3292 935.032 10.0212 935.032H9.05869L9.05869 940.19ZM25.9674 932.243V935.032H21.2782L21.2782 939.326H25.1529V942.115H21.2782V947.372H26.2142V950.161H18.1685L18.1685 932.243H25.9674ZM33.7429 932.243C37.1241 932.243 38.5555 933.995 38.5555 937.524C38.5555 941.226 37.1241 942.979 33.7429 942.979H32.5336V950.161H29.4239L29.4239 932.243H33.7429ZM32.5336 940.19H33.4961C34.8042 940.19 35.4458 939.696 35.4458 937.549C35.4458 935.525 34.8042 935.032 33.4961 935.032H32.5336V940.19ZM45.9624 932.243C49.3436 932.243 50.775 933.995 50.775 937.524C50.775 941.226 49.3436 942.979 45.9624 942.979H44.7531L44.7531 950.161H41.6434L41.6434 932.243H45.9624ZM44.7531 940.19H45.7156C47.0237 940.19 47.6653 939.696 47.6653 937.549C47.6653 935.525 47.0237 935.032 45.7156 935.032H44.7531V940.19ZM61.6618 932.243V935.032H56.9726V939.326H60.8474V942.115H56.9726V947.372H61.9086L61.9086 950.161H53.8629L53.8629 932.243H61.6618ZM69.4373 932.243C72.8432 932.243 74.2499 933.995 74.2499 937.524C74.2499 939.918 73.707 941.449 72.3496 942.288L74.8176 950.161H71.4858L69.4867 942.979H68.228V950.161H65.1183V932.243H69.4373ZM68.228 940.19H69.1905C70.4986 940.19 71.1403 939.696 71.1403 937.549C71.1403 935.525 70.4986 935.032 69.1905 935.032H68.228V940.19ZM86.777 945.817C86.777 948.655 85.4196 950.407 82.1865 950.407C78.9781 950.407 77.6454 948.655 77.6454 945.817V936.587C77.6454 933.748 78.9781 932.021 82.1865 932.021C85.4196 932.021 86.777 933.748 86.777 936.587V945.817ZM80.755 945.842C80.755 947.15 81.2486 947.643 82.1865 947.643C83.1737 947.643 83.6673 947.15 83.6673 945.842V936.587C83.6673 935.303 83.1737 934.785 82.1865 934.785C81.2486 934.785 80.755 935.303 80.755 936.587V945.842ZM90.4732 950.161V932.243H93.2867L97.4823 943.152V932.243H100.321V950.161H97.6551L93.3361 939.326V950.161H90.4732ZM107.344 932.243V950.161H104.259V932.243H107.344Z" fill="#0078AE"/>
</svg>
