<svg width="844" height="937" viewBox="0 0 844 937" fill="none" xmlns="http://www.w3.org/2000/svg">
<path d="M733.188 261.915C749.217 253.821 763.588 241.895 774.807 226.313C812.125 174.505 800.399 102.281 748.606 64.982C748.185 64.6784 747.779 64.3934 747.373 64.1085L199.168 -330.846C122.521 -385.031 19.5067 -375.082 -45.5614 -311.48L-45.6733 -311.392C-48.5618 -308.572 -51.3435 -305.655 -54.0703 -302.629L-554.335 219.566C-559.039 224.15 -563.41 229.195 -567.379 234.712C-604.228 285.848 -592.888 357.045 -542.162 394.217L-216.549 628.809C-154.27 673.661 -74.1812 675.756 -11.2109 640.81L733.188 261.915Z" fill="black"/>
</svg>
