<svg width="329" height="478" viewBox="0 0 329 478" fill="none" xmlns="http://www.w3.org/2000/svg">
<g clip-path="url(#clip0_2_692)">
<path d="M273.624 396.786C273.624 396.786 285.334 463.764 320.614 463.764C355.894 463.764 353.356 383.147 353.356 383.147L273.624 396.786Z" fill="#FF57B4"/>
<path d="M274.967 397.746C275.202 397.512 275.351 397.085 275.309 396.786C275.309 396.636 275.33 396.85 275.33 396.85L275.415 397.191L275.586 397.874L275.949 399.24L276.738 401.951C277.271 403.744 277.847 405.537 278.444 407.33C279.639 410.894 280.94 414.416 282.369 417.874C285.206 424.789 288.533 431.449 292.458 437.553C296.425 443.572 301.054 449.121 306.451 452.686C309.117 454.457 311.933 455.695 314.748 456.314C317.478 456.933 320.529 457.275 323.024 456.869C325.562 456.464 327.802 455.354 329.914 453.54C332.004 451.725 333.881 449.25 335.46 446.432C338.702 440.797 340.75 433.925 342.392 426.988C344.013 419.987 344.973 412.73 345.783 405.409C346.53 398.131 346.999 390.596 347.149 383.403L354.422 389.358C341.773 391.087 329.082 392.56 315.921 393.862L274.989 397.81L274.967 397.746ZM272.28 395.847L291.264 391.023C297.748 389.422 304.339 387.736 311.058 386.157C324.475 382.912 338.361 379.839 352.289 377.021L359.158 375.634L359.563 382.976C359.776 387.053 359.84 390.874 359.776 394.801C359.712 398.707 359.605 402.613 359.307 406.54C358.774 414.373 357.686 422.207 355.937 430.04C355.083 433.967 353.974 437.873 352.588 441.758C351.223 445.642 349.516 449.527 347.319 453.284C345.101 457.04 342.371 460.733 338.681 463.87C335.033 467.008 330.212 469.42 325.2 470.145C322.726 470.466 320.209 470.594 317.884 470.359C316.689 470.337 315.537 470.081 314.364 469.868C313.191 469.676 312.06 469.356 310.951 468.929C306.472 467.371 302.547 464.852 299.22 461.992C292.565 456.165 288.213 449.057 284.673 441.929C281.217 434.714 278.636 427.329 276.61 419.837C275.586 416.081 274.711 412.324 273.943 408.546C273.56 406.647 273.197 404.769 272.898 402.848L272.45 399.987L272.237 398.557L272.13 397.832L272.088 397.469L272.045 397.191C271.981 396.743 272.109 396.21 272.322 395.868" fill="black"/>
<path d="M127.299 340.8C127.299 340.8 71.6695 379.924 86.8992 412.709C102.129 445.472 174.097 409.123 174.097 409.123L127.32 340.8H127.299Z" fill="#FF57B4"/>
<path d="M127 342.423C127.299 342.529 127.747 342.487 128.024 342.316C128.152 342.252 127.981 342.359 127.981 342.38L127.704 342.615L127.171 343.063L126.083 343.981L123.95 345.859C122.542 347.118 121.155 348.399 119.79 349.722C117.06 352.348 114.436 355.037 111.898 357.833C106.843 363.382 102.214 369.295 98.3962 375.506C94.6421 381.717 91.6772 388.355 90.7813 394.822C90.3334 398.045 90.44 401.14 91.1013 404.022C91.2506 404.747 91.3999 405.452 91.6558 406.135C91.8692 406.839 91.9971 407.543 92.3171 408.205C92.6157 408.845 92.8077 409.614 93.1703 410.19L94.1728 411.94C95.6446 414.139 97.607 415.782 100.124 416.999C102.641 418.215 105.648 418.941 108.869 419.261C112.09 419.603 115.524 419.539 118.98 419.197C122.435 418.856 125.976 418.322 129.496 417.575C136.577 416.145 143.616 413.968 150.634 411.62C157.587 409.23 164.669 406.455 171.26 403.531L168.914 412.666C165.416 407.138 161.896 401.631 158.505 395.975C155.07 390.34 151.636 384.641 148.223 378.793L127 342.444V342.423ZM127.597 339.178L140.182 354.802C144.448 360.16 148.799 365.56 153.151 371.152C157.523 376.701 161.896 382.379 166.269 388.12C170.663 393.84 174.95 399.731 179.238 405.58L183.397 411.236L176.913 414.715C173.286 416.657 169.81 418.301 166.183 419.923C162.6 421.524 158.953 423.06 155.262 424.448C147.882 427.265 140.246 429.57 132.332 431.214C128.386 432.068 124.334 432.687 120.174 433.007C116.036 433.348 111.77 433.412 107.376 432.9C103.003 432.388 98.4815 431.342 94.1088 429.186C89.7575 427.052 85.6621 423.615 82.9318 419.389C82.2919 418.322 81.716 417.234 81.1187 416.145C80.5215 415.056 80.1802 413.947 79.7323 412.858C79.263 411.769 79.0071 410.596 78.7084 409.464C78.5805 408.888 78.4311 408.312 78.3245 407.735L78.1325 405.964C77.6206 401.268 78.1752 396.615 79.327 392.346C81.6947 383.787 86.1953 376.701 91.1226 370.383C96.1352 364.087 101.745 358.537 107.675 353.436C110.64 350.896 113.69 348.463 116.783 346.136C118.34 344.963 119.918 343.831 121.497 342.721L123.907 341.078L125.123 340.267L125.741 339.861L126.061 339.669L126.296 339.52C126.659 339.264 127.213 339.157 127.619 339.2" fill="black"/>
<path d="M40.4207 252.756C39.6955 254.08 38.9276 255.382 38.1171 256.641C34.8322 261.849 30.8008 267.377 25.319 270.429C20.5197 273.118 14.2273 273.247 10.4092 268.871C7.40164 265.413 6.3138 260.312 6.84706 255.894C7.78558 247.954 12.0303 240.633 16.2323 233.995C19.8158 228.317 29.905 216.813 36.7733 209.257L45.9026 227.464L40.4207 252.735V252.756Z" fill="#FF57B4"/>
<path d="M41.9565 253.333C39.9088 257.921 37.925 262.041 35.0881 266.118C33.659 268.145 32.0379 270.109 30.0542 271.88C28.1345 273.631 25.6815 275.296 22.8233 276.277C19.9864 277.238 16.7442 277.665 13.3527 276.832C11.6676 276.427 10.0039 275.722 8.48941 274.719C6.97497 273.716 5.67383 272.435 4.64998 271.176C2.58095 268.594 1.21582 265.648 0.469264 262.617C0.127981 261.102 0 259.565 0 258.007C0 256.47 0.170641 254.848 0.362613 253.525C1.23715 247.954 3.32751 243.023 5.58851 238.541C6.74033 236.321 7.95615 234.187 9.1933 232.159C9.81188 231.135 10.3878 230.196 11.1983 228.979C11.9449 227.912 12.6701 226.887 13.4167 225.905C19.3038 218.264 25.6389 211.648 32.2512 205.116L38.8422 198.606L42.2551 206.482C43.5989 209.599 44.964 212.715 46.2438 215.874C47.545 219.011 48.8674 222.149 50.0832 225.329L50.8298 227.271L50.4672 228.424C47.8649 236.898 45.092 245.264 41.9351 253.29M38.8636 252.18C39.3755 243.344 40.2714 234.849 41.3165 226.482L41.7005 229.577C39.8874 226.695 38.1597 223.75 36.4106 220.826C34.6402 217.923 32.9764 214.956 31.27 212.01L41.2952 213.376C35.6641 220.441 29.7983 227.506 24.5084 234.358C23.8685 235.211 23.2499 236.044 22.6953 236.855L21.0102 239.459C19.8371 241.316 18.7279 243.13 17.7467 244.944C15.763 248.573 14.3125 252.201 13.7153 255.68C13.566 256.62 13.4807 257.281 13.4807 258.028C13.4807 258.775 13.5447 259.501 13.6087 260.248C13.6726 261.721 13.9499 263.172 14.4832 264.346C15.0591 265.563 15.4857 266.182 16.5309 266.801C17.5121 267.398 19.0052 267.654 20.6049 267.484C23.6978 267.227 27.3879 264.944 30.4382 262.084C33.5737 259.202 36.3893 255.488 38.9062 252.159" fill="black"/>
<path d="M520.733 240.761C513.758 362.059 399.663 454.159 265.902 446.453C132.14 438.748 29.3503 334.162 36.3252 212.864C43.2789 91.566 157.374 -0.533594 291.135 7.17161C424.897 14.8768 527.687 119.463 520.712 240.761" fill="#FF57B4"/>
<path d="M281.409 453.625C276.14 453.625 270.829 453.476 265.497 453.177C199.138 449.356 138.049 422.292 93.5327 376.979C48.8247 331.494 26.1294 273.076 29.6062 212.48C33.083 151.884 62.348 96.4751 111.962 56.4123C161.384 16.5203 225.161 -3.35102 291.519 0.469566C357.878 4.29015 418.967 31.3544 463.483 76.6678C508.191 122.152 530.887 180.571 527.41 241.166C520.52 361.12 411.694 453.646 281.409 453.646V453.625ZM275.436 13.4467C217.973 13.4467 163.41 32.1441 120.387 66.8923C73.7383 104.543 46.265 156.537 43.0015 213.27C39.738 270.024 61.0682 324.814 103.089 367.566C145.28 410.489 203.234 436.123 266.264 439.773C271.341 440.072 276.396 440.221 281.409 440.221C404.676 440.221 507.53 353.223 514.014 240.398C517.278 183.644 495.948 128.854 453.927 86.1019C411.736 43.179 353.782 17.5235 290.751 13.895C285.632 13.5962 280.513 13.4467 275.436 13.4467Z" fill="black"/>
<path d="M297.897 392.602C297.897 392.602 296.063 473.24 257.114 470.999C218.165 468.758 209.078 401.14 209.078 401.14" fill="#FF57B4"/>
<path d="M299.561 392.624C299.945 400.606 299.817 408.525 299.241 416.529C298.665 424.512 297.62 432.559 295.722 440.605C294.719 444.618 293.674 448.695 291.967 452.643C290.133 456.528 287.936 460.327 285.184 463.934C282.39 467.52 278.935 470.892 274.69 473.475C270.467 476.058 265.433 477.637 260.441 477.915C250.672 478.448 241.244 474.798 234.141 469.014C227.102 463.166 222.218 455.845 218.528 448.374C216.715 444.618 215.157 440.776 213.814 436.913C212.534 433.028 211.425 429.122 210.529 425.173C208.758 417.276 207.628 409.379 207.457 401.311C207.457 400.393 208.161 399.625 209.078 399.625C209.846 399.625 210.486 400.116 210.699 400.82V400.884C212.918 408.29 215.456 415.675 218.357 422.74C221.258 429.805 224.564 436.635 228.51 442.825C232.371 449.057 237.085 454.5 242.375 458.385C245.02 460.306 247.857 461.736 250.779 462.675C251.504 462.931 252.229 463.187 252.997 463.294C253.765 463.422 254.49 463.678 255.258 463.721L257.562 463.977H259.738C262.574 463.806 265.241 463.059 267.715 461.629C270.211 460.199 272.514 458.107 274.562 455.525C276.588 452.921 278.359 449.933 279.959 446.774C281.729 443.7 283.371 440.392 284.864 436.977C287.808 430.125 290.133 422.804 291.989 415.313C293.844 407.842 295.338 400.158 296.297 392.474V392.432C296.425 391.535 297.236 390.874 298.153 391.002C298.964 391.108 299.561 391.77 299.604 392.56" fill="black"/>
<path d="M152.873 74.1279C158.995 71.5239 165.415 70.0938 171.943 69.112C175.206 68.6211 178.491 68.365 181.797 68.2156C183.439 68.2156 185.103 68.1729 186.746 68.2156L191.694 68.5357C198.285 69.0266 204.791 70.5848 210.934 72.9966C214.048 74.0638 217.013 75.5152 219.978 76.9026C221.471 77.5643 222.879 78.4394 224.287 79.2718C225.695 80.1042 227.102 80.9153 228.489 81.7904C229.001 82.1319 229.171 82.8149 228.83 83.3485C228.574 83.754 228.126 83.9248 227.7 83.8608H227.636C224.436 83.2845 221.386 82.4947 218.272 81.9185C215.157 81.3848 212.107 80.6591 209.014 80.2963C207.479 80.0615 205.943 79.784 204.407 79.5919C202.85 79.4425 201.335 79.2078 199.8 79.0157C198.285 78.7809 196.749 78.5888 195.235 78.3967C193.721 78.1832 192.206 77.8631 190.67 77.6923L186.106 77.116L181.498 76.6678C178.427 76.3263 175.334 76.0488 172.241 75.9208C166.034 75.5793 159.699 75.6433 153.492 76.2836H153.407C152.788 76.3477 152.255 75.9208 152.191 75.3018C152.127 74.8109 152.425 74.3413 152.852 74.1492" fill="black"/>
<path d="M66.8488 260.141C66.8488 260.141 85.8753 255.339 97.1589 255.552C108.443 255.766 112.986 255.552 112.986 255.552C112.986 255.552 112.879 228.339 111.749 227.4C110.618 226.46 99.5479 213.099 97.1589 212.224C94.77 211.349 82.8891 208.254 76.5753 213.846C70.2616 219.438 66.5502 223.771 63.6492 236.812C60.7483 249.853 62.1988 262.062 62.1988 262.062L66.8488 260.141Z" fill="white"/>
<path d="M253.53 226.012C261.444 221.722 269.891 218.969 278.593 216.941C282.945 216.002 287.381 215.169 291.861 214.742C292.97 214.593 294.1 214.529 295.231 214.422C296.404 214.337 297.364 214.166 298.836 214.23C301.566 214.188 304.403 214.614 307.154 215.468C309.927 216.279 312.508 217.731 314.855 219.438C317.18 221.21 319.142 223.387 320.763 225.713C323.899 230.473 325.52 235.788 326.032 240.932C326.202 242.234 326.266 243.493 326.288 244.774C326.33 245.99 326.309 247.463 326.202 248.722C325.989 251.305 325.562 253.695 325.029 256.043C323.963 260.696 322.448 265.114 320.678 269.405C317.094 277.964 312.359 286.181 305.427 293.161C303.72 294.911 301.801 296.533 299.796 298.048C297.705 299.5 295.529 300.866 293.14 301.954C288.405 304.131 282.902 305.327 277.591 304.942C272.408 304.644 266.542 302.915 262.19 298.966C257.86 295.017 255.578 289.831 254.618 285.007C253.594 280.141 253.68 275.381 254.234 270.813C254.896 266.224 255.855 261.87 257.946 257.516C258.436 256.513 259.631 256.107 260.633 256.577C261.444 256.961 261.87 257.836 261.742 258.669V258.882C261.167 262.724 261.124 267.035 261.444 271.027C261.742 275.061 262.51 279.009 263.79 282.424C265.113 285.84 266.968 288.678 269.357 290.258C271.682 291.837 274.562 292.563 277.953 292.435C284.523 292.371 290.581 288.892 295.807 283.577C300.99 278.262 305.213 271.39 308.392 264.154C309.97 260.525 311.228 256.748 312.124 253.012C312.551 251.155 312.871 249.299 313.02 247.591C313.106 246.695 313.127 246.033 313.063 245.094C313.042 244.219 312.978 243.344 312.828 242.511C312.38 239.096 311.101 236.065 309.33 233.717C307.517 231.391 305.299 229.79 302.632 228.744C301.267 228.296 299.86 227.805 298.281 227.698C297.62 227.592 296.425 227.549 295.444 227.485C294.42 227.442 293.396 227.335 292.351 227.335C288.235 227.207 284.054 227.143 279.894 227.229C271.533 227.335 263.022 227.954 254.49 228.787H254.405C253.573 228.872 252.848 228.275 252.762 227.442C252.699 226.823 253.018 226.247 253.552 225.969" fill="black"/>
<path d="M51.7256 284.708C71.5626 281.528 92.3809 282.894 111.194 290.151C128.322 296.746 149.14 310.407 141.76 331.857C141.547 332.455 141.334 333.053 141.078 333.629C135.66 346.585 122.862 353.393 109.168 353.393C66.3367 353.393 27.2385 339.498 27.2385 308.486C27.2385 292.606 38.7568 286.757 51.7042 284.687" fill="#FF57B4"/>
<path d="M51.3204 282.147C57.6341 281.144 64.0118 280.568 70.4109 280.461C76.8099 280.397 83.2303 280.824 89.5867 281.677C95.9431 282.531 102.257 283.897 108.485 285.669C114.671 287.568 120.814 289.767 126.914 292.606C128.408 293.374 129.965 294.036 131.458 294.932L133.719 296.213L135.916 297.664C137.43 298.582 138.774 299.799 140.225 300.93C140.907 301.549 141.568 302.21 142.251 302.851C142.933 303.491 143.595 304.174 144.171 304.942C146.73 307.803 148.693 311.474 150.036 315.422C150.506 317.45 151.124 319.52 151.146 321.612C151.21 322.658 151.295 323.725 151.252 324.771L150.932 327.845C149.738 335.891 146.069 343.191 140.438 348.826C137.644 351.622 134.444 353.97 131.031 355.763C127.597 357.556 123.971 358.815 120.281 359.605C116.612 360.394 112.879 360.672 109.189 360.544C105.926 360.394 102.705 360.181 99.4626 359.861C92.9995 359.22 86.5365 358.281 80.1588 356.915C67.4673 354.14 54.7119 350.128 43.5135 342.593C37.9463 338.858 32.8911 333.97 29.329 327.994C25.7242 322.039 24.1671 314.974 24.423 308.229C24.4657 304.814 25.0629 301.314 26.4281 298.006C27.7932 294.719 30.0329 291.73 32.7418 289.489C35.4507 287.227 38.5649 285.669 41.7005 284.516C44.8573 283.342 48.0782 282.595 51.2777 282.083M52.1309 287.27C46.2438 288.209 40.3567 289.98 36.1759 293.63C31.9526 297.195 30.0542 302.595 30.1182 308.336C30.3315 314.12 32.0592 319.67 35.3227 324.259C38.5863 328.848 43.0229 332.604 48.0782 335.464C58.21 341.249 70.1336 344.173 82.0571 345.518C88.0509 346.201 94.1087 346.457 100.145 346.457C103.174 346.457 106.203 346.35 109.21 346.243C111.791 346.115 114.33 345.646 116.74 344.963C121.561 343.575 125.827 341.057 129.005 337.706C130.562 335.998 131.906 334.12 132.972 332.049C134.06 329.979 134.657 327.717 135.02 325.582L135.276 324.003C135.297 323.469 135.276 322.978 135.276 322.445C135.404 321.399 135.084 320.417 135.084 319.35L134.7 317.792L134.529 316.98L134.231 316.191L133.676 314.569L132.844 312.946C130.647 308.528 126.659 304.238 122.094 300.588C117.444 296.96 112.026 294.078 106.395 291.901C100.742 289.681 94.8126 288.102 88.7975 287.077C76.7033 285.114 64.2891 285.391 52.1522 287.27" fill="black"/>
<path d="M117.593 322.423C117.593 328.955 112.581 334.248 106.395 334.248C100.209 334.248 95.1965 328.955 95.1965 322.423C95.1965 315.892 100.209 310.599 106.395 310.599C112.581 310.599 117.593 315.892 117.593 322.423Z" fill="black"/>
<path d="M67.574 312.05C67.574 317.92 62.7534 322.658 56.8023 322.658C50.8511 322.658 46.0305 317.898 46.0305 312.05C46.0305 306.202 50.8511 301.442 56.8023 301.442C62.7534 301.442 67.574 306.202 67.574 312.05Z" fill="black"/>
<path d="M139.777 257.708C139.777 257.708 159.614 260.397 171.388 264.41L191.097 273.951C191.097 273.951 194.595 260.291 194.19 250.195C193.806 240.099 194.275 228.296 186.81 222.256C179.365 216.194 168.551 215.34 161.576 218.841C154.601 222.341 143.061 234.592 141.888 242.596C140.715 250.601 139.734 257.708 139.734 257.708" fill="white"/>
<path d="M116.335 240.996C116.015 235.468 115.183 229.875 113.349 224.347C111.514 218.883 108.656 213.163 103.259 208.937C100.572 206.888 97.287 205.372 93.9168 204.753C90.5893 204.113 87.1338 204.135 83.721 204.882C76.874 206.376 71.2855 210.73 67.2968 215.575C63.2654 220.484 60.4711 226.055 58.6154 231.796C54.9679 243.279 54.7973 255.616 58.0821 266.907L58.3594 266.779C81.0121 256.876 116.015 257.409 116.015 257.409C116.548 251.988 116.655 246.502 116.335 240.974M71.7548 235.724C72.9919 231.22 74.7197 226.866 77.2366 223.28C79.7322 219.694 82.9531 216.92 86.5579 215.746C88.3496 215.148 90.3333 214.935 92.317 215.105C107.184 216.493 108.613 245.307 108.741 252.906C95.218 252.842 81.3747 254.122 69.6644 257.196C69.0885 249.704 69.7284 243.365 71.7548 235.745" fill="black"/>
<path d="M194.147 226.204C192.782 223.408 190.884 220.74 188.452 218.542C186.02 216.301 183.013 214.764 179.984 213.739C176.912 212.693 173.82 212.288 170.599 212.224C167.378 212.16 164.05 212.758 160.957 213.91C154.686 216.237 149.652 220.804 146.026 225.735C142.358 230.708 139.734 236.129 137.644 241.636C136.598 244.389 135.724 247.185 134.956 250.003C134.188 252.884 133.548 255.552 133.015 258.775L139.734 259.522C157.694 262.084 178.832 268.764 192.035 276.469C193.806 271.155 195.128 265.797 196.152 260.291C197.133 254.805 197.795 249.192 197.688 243.472C197.603 237.773 196.813 231.839 194.147 226.183M149.119 245.478C150.506 240.633 152.383 235.937 154.9 231.882C157.417 227.826 160.637 224.518 164.541 222.682C168.359 220.783 173.222 220.548 177.68 221.573C179.877 222.042 181.84 222.96 183.589 224.262C195.512 233.269 189.241 260.76 187.215 268.423C174.203 261.038 159.614 257.004 147.007 255.147C147.135 254.378 147.263 253.61 147.391 252.884C147.861 250.387 148.437 247.89 149.14 245.457" fill="black"/>
<path d="M192.014 276.469C196.941 279.266 199.032 280.055 200.418 279.415C201.805 278.753 200.226 277.131 199.096 276.064C197.24 274.335 194.808 272.371 191.609 270.792L191.844 272.585L192.014 276.469Z" fill="black"/>
<path d="M201.165 206.803C196.92 203.451 192.846 200.485 188.815 198.457C184.826 196.344 180.88 195.255 176.87 194.893C174.865 194.636 172.817 194.551 170.705 194.551C168.594 194.636 166.397 194.828 164.136 195.213C159.614 195.96 154.75 197.304 149.524 198.734L149.268 198.798C148.223 199.076 147.157 198.478 146.858 197.432C146.73 196.942 146.794 196.429 147.007 196.002C149.887 190.474 154.473 186.398 159.998 183.516C165.522 180.72 172.241 179.333 178.832 180.293C180.474 180.528 182.096 180.976 183.695 181.446C185.252 182.043 186.831 182.62 188.26 183.452C191.182 184.989 193.806 186.974 196.003 189.236C200.397 193.804 203.255 199.332 203.916 205.479C204.002 206.354 203.362 207.144 202.487 207.251C202.061 207.293 201.634 207.165 201.335 206.909L201.143 206.76L201.165 206.803Z" fill="black"/>
<path d="M68.6831 191.584C70.9228 187.486 74.3356 184.455 78.303 182.129C82.3131 179.909 86.9844 178.372 91.933 178.351C96.8389 178.33 101.809 179.909 105.84 182.684C109.808 185.565 112.858 189.407 113.882 194.231C114.052 195.063 113.519 195.874 112.709 196.045C112.325 196.13 111.962 196.045 111.663 195.896L111.407 195.746C107.888 193.783 104.518 192.289 101.361 191.328C99.7612 190.88 98.1827 190.517 96.6043 190.282C95.0045 190.133 93.4261 189.941 91.8263 189.941C88.6268 189.749 85.2353 190.026 81.6732 190.709C78.111 191.392 74.3569 192.395 70.3042 193.441L70.1549 193.484C69.4723 193.655 68.7684 193.249 68.5978 192.566C68.5125 192.246 68.5765 191.904 68.7258 191.648" fill="black"/>
<path d="M182.672 72.4417C182.672 72.4417 215.221 22.2192 280.876 11.4618L333.625 14.3646C333.625 14.3646 258.138 22.2192 203.106 74.9603L182.672 72.4417Z" fill="black"/>
<path d="M110.149 236.919C110.149 244.069 104.347 249.875 97.2016 249.875C90.056 249.875 84.2542 244.069 84.2542 236.919C84.2542 229.769 90.056 223.963 97.2016 223.963C104.347 223.963 110.149 229.769 110.149 236.919Z" fill="black"/>
<path d="M164.178 240.59C162.92 248.381 168.21 255.723 176.017 256.982C183.802 258.242 191.14 252.948 192.398 245.136C193.657 237.346 188.367 230.003 180.56 228.744C172.774 227.485 165.437 232.778 164.178 240.59Z" fill="black"/>
<path d="M180.197 346.969C180.197 346.969 208.118 338.367 225.758 302.872C225.758 302.872 255.791 327.076 232.35 348.997C211.809 368.206 180.197 346.969 180.197 346.969Z" fill="white"/>
<path d="M152.255 354.012C159.678 352.198 166.866 349.338 173.585 345.966C180.283 342.529 186.703 338.623 192.419 333.885C198.093 329.125 203.49 324.067 207.99 318.218C210.465 315.486 212.299 312.263 214.496 309.297C216.565 306.266 218.25 302.936 220.234 299.841L220.618 299.244C222.495 296.319 226.398 295.466 229.321 297.344C232.179 299.18 233.053 302.957 231.347 305.86C230.302 307.632 229.257 309.403 228.169 311.154C227.038 312.882 226.121 314.718 224.799 316.34C222.303 319.627 219.914 323 217.013 325.945C215.605 327.46 214.24 329.019 212.79 330.449L208.182 334.589C206.689 336.019 204.983 337.193 203.362 338.431C201.698 339.648 200.098 340.95 198.328 341.974C191.502 346.542 184.015 350.042 176.294 352.518C168.551 354.973 160.552 356.403 152.447 356.126C151.849 356.126 151.402 355.613 151.423 355.016C151.423 354.525 151.785 354.119 152.233 354.012H152.34H152.255Z" fill="black"/>
<path d="M233.437 301.378C234.461 302.531 235.037 303.363 235.741 304.345C236.402 305.305 237.021 306.266 237.576 307.269C238.727 309.233 239.666 311.303 240.498 313.416C242.119 317.642 242.972 322.188 242.823 326.649C242.673 331.089 241.671 335.464 239.687 339.2C238.898 341.163 237.554 342.807 236.466 344.514C235.251 346.158 233.8 347.609 232.52 349.125C232.435 349.21 232.307 349.231 232.222 349.146C232.136 349.082 232.115 348.975 232.158 348.89C233.032 347.054 234.035 345.347 234.739 343.554C235.336 341.697 236.146 339.947 236.381 338.047C237.256 334.376 237.085 330.641 236.296 327.226C235.507 323.789 233.971 320.609 231.944 317.813C230.921 316.426 229.811 315.081 228.596 313.864C227.998 313.245 227.38 312.669 226.74 312.114C226.143 311.602 225.375 310.983 224.969 310.769C221.791 309.105 220.575 305.199 222.239 302.018C223.903 298.838 227.806 297.621 230.985 299.286C231.667 299.649 232.264 300.119 232.776 300.674L233.416 301.378H233.437Z" fill="black"/>
</g>
<defs>
<clipPath id="clip0_2_692">
<rect width="576" height="478" fill="white"/>
</clipPath>
</defs>
</svg>
