<svg version="1.2" xmlns="http://www.w3.org/2000/svg" viewBox="0 0 414 414" width="414" height="414">
	<title>icon-svg</title>
	<style>
		.s0 { fill: #fffbfb;stroke: #000000;paint-order:stroke fill markers;stroke-linejoin: round;stroke-width: 6 } 
	</style>
	<g id="Layer">
		<path id="Layer" fill-rule="evenodd" class="s0" d="m171.5 282.2c0.7 1.1 1 2.4 1 3.7c0 4.2-3.3 7.5-7.5 7.5c0 0-11.1 0-11.1 0c-2.9 0-5.5-1.6-6.8-4.2l-19.5-40.6h-82.9l-19.3 40.5c-1.3 2.6-3.9 4.3-6.8 4.3h-11.1c-2.6 0-5-1.3-6.3-3.5c-1.4-2.2-1.6-4.9-0.5-7.2l73.9-154.8c1.2-2.6 3.8-4.3 6.7-4.3h9q0 0 0.1 0c2.8 0 5.5 1.7 6.7 4.2zm-56-58.5l-29.6-61.4l-29.3 61.4zm296.1-83.9l-95.7 128.5h86.4c4.1 0 7.5 3.4 7.5 7.5v10c0 4.2-3.4 7.5-7.5 7.5h-111.4c-2.8 0-5.4-1.6-6.7-4.1l-4-8.1c-1.2-2.5-1-5.5 0.7-7.8l95.7-128.5h-86.9c-4.2 0-7.5-3.3-7.5-7.5v-10c0-4.1 3.3-7.5 7.5-7.5h111.9c2.9 0 5.5 1.6 6.7 4.2l4 8c1.3 2.5 1 5.5-0.7 7.8zm-138.6 93.4l-44.5 56.8c-1.4 1.9-3.6 2.9-5.9 2.9c-2.3 0-4.5-1-5.9-2.9l-44.5-56.8c-2.5-3.3-2-8 1.3-10.5l7.9-6.2c1.5-1.2 3.5-1.8 5.5-1.5c2 0.2 3.8 1.2 5 2.8l18.2 23.3v-113.8c0-4.1 3.4-7.5 7.5-7.5h10c4.2 0 7.5 3.4 7.5 7.5v113.8l18.3-23.3c1.2-1.6 3-2.6 5-2.8c1.9-0.3 3.9 0.3 5.5 1.5l7.9 6.2c3.2 2.5 3.8 7.2 1.2 10.5z" />
	</g>
	<g id="Layer">
	</g>
	<g id="Layer">
	</g>
	<g id="Layer">
	</g>
	<g id="Layer">
	</g>
	<g id="Layer">
	</g>
	<g id="Layer">
	</g>
	<g id="Layer">
	</g>
	<g id="Layer">
	</g>
	<g id="Layer">
	</g>
	<g id="Layer">
	</g>
	<g id="Layer">
	</g>
	<g id="Layer">
	</g>
	<g id="Layer">
	</g>
	<g id="Layer">
	</g>
	<g id="Layer">
	</g>
</svg>