<svg width="305" height="61" viewBox="0 0 305 61" fill="none" xmlns="http://www.w3.org/2000/svg">
<path d="M73.5253 56.651C71.635 56.651 69.8589 56.283 68.1912 55.549C66.5254 54.815 65.0624 53.8055 63.8022 52.5205C62.542 51.2355 61.5595 49.7341 60.8506 48.0161C60.1418 46.2982 59.7874 44.4563 59.7874 42.4885C59.7874 40.5206 60.1418 38.6925 60.8506 37.0002C61.5595 35.3078 62.5499 33.8142 63.8219 32.5155C65.0939 31.2167 66.5825 30.2072 68.2896 29.487C69.9948 28.7667 71.8457 28.4047 73.8403 28.4047C76.018 28.4047 78.0324 28.8317 79.8813 29.6838C81.7322 30.5358 83.2719 31.7362 84.5065 33.2829L81.6731 36.1147C80.8323 34.9339 79.7178 34.0228 78.3277 33.3813C76.9356 32.7398 75.4411 32.4171 73.8403 32.4171C71.8988 32.4171 70.1917 32.8441 68.7228 33.6962C67.2519 34.5483 66.1119 35.7349 65.2987 37.256C64.4855 38.7771 64.0779 40.5206 64.0779 42.4885C64.0779 44.4563 64.4914 46.2392 65.3184 47.7603C66.1453 49.2814 67.2598 50.474 68.6637 51.3398C70.0676 52.2057 71.6606 52.6386 73.4465 52.6386C75.3348 52.6386 76.9553 52.2903 78.308 51.5956C79.6588 50.901 80.7024 49.8639 81.4368 48.4884C82.1713 47.1109 82.5395 45.4265 82.5395 43.433L85.1366 45.3222H73.3284V41.5065H86.8694V42.0969C86.8694 45.3222 86.2924 48.0181 85.1366 50.1807C83.9808 52.3434 82.4075 53.9629 80.4129 55.0393C78.4183 56.1157 76.1224 56.653 73.5253 56.653V56.651Z" fill="#2F5DE8"/>
<path d="M104.266 56.651C102.297 56.651 100.468 56.283 98.7746 55.549C97.0812 54.815 95.5985 53.8055 94.3265 52.5205C93.0526 51.2355 92.0641 49.734 91.3553 48.0161C90.6464 46.2982 90.292 44.4563 90.292 42.4885C90.292 40.5206 90.6464 38.6925 91.3553 37.0002C92.0641 35.3078 93.0486 33.8142 94.3068 32.5155C95.567 31.2167 97.0359 30.2072 98.7155 29.487C100.395 28.7667 102.218 28.4047 104.187 28.4047C106.156 28.4047 107.98 28.7648 109.659 29.487C111.339 30.2092 112.814 31.2167 114.088 32.5155C115.36 33.8142 116.35 35.3157 117.059 37.0199C117.768 38.724 118.122 40.56 118.122 42.5278C118.122 44.4957 117.768 46.3376 117.059 48.0555C116.35 49.7734 115.366 51.269 114.107 52.5402C112.847 53.8114 111.378 54.815 109.699 55.549C108.019 56.283 106.208 56.651 104.266 56.651ZM104.187 52.6386C106.078 52.6386 107.743 52.2057 109.187 51.3398C110.63 50.474 111.764 49.2814 112.591 47.7603C113.418 46.2392 113.832 44.4819 113.832 42.4885C113.832 41.0205 113.595 39.6764 113.123 38.4564C112.65 37.2363 111.981 36.1757 111.114 35.2704C110.248 34.3652 109.232 33.6647 108.064 33.1668C106.897 32.669 105.605 32.4191 104.187 32.4191C102.297 32.4191 100.637 32.8461 99.2077 33.6981C97.7763 34.5502 96.65 35.7368 95.823 37.258C94.996 38.7791 94.5825 40.5226 94.5825 42.4904C94.5825 43.9604 94.8188 45.3222 95.2913 46.5816C95.7639 47.841 96.4255 48.9154 97.2781 49.8069C98.1307 50.6983 99.1487 51.3929 100.328 51.8908C101.51 52.3887 102.795 52.6386 104.185 52.6386H104.187Z" fill="#2F5DE8"/>
<path d="M129.95 56.6515C127.798 56.6515 125.961 56.2579 124.439 55.4708C122.917 54.6836 121.552 53.5305 120.345 52.0093L123.218 49.1776C124.006 50.3327 124.943 51.2163 126.032 51.8322C127.121 52.4482 128.477 52.7571 130.106 52.7571C131.734 52.7571 132.933 52.4226 133.865 51.7535C134.796 51.0845 135.263 50.1734 135.263 49.0202C135.263 48.0756 135.026 47.3023 134.554 46.7001C134.081 46.098 133.457 45.5981 132.683 45.2046C131.909 44.811 131.049 44.4647 130.106 44.1616C129.161 43.8605 128.223 43.5201 127.292 43.1383C126.361 42.7585 125.5 42.2804 124.714 41.7018C123.927 41.1252 123.297 40.3775 122.826 39.4604C122.354 38.5434 122.117 37.3745 122.117 35.9597C122.117 34.3854 122.503 33.0355 123.279 31.9079C124.053 30.7803 125.108 29.9145 126.447 29.3123C127.786 28.7101 129.281 28.4071 130.935 28.4071C132.746 28.4071 134.359 28.7613 135.776 29.4697C137.194 30.1782 138.36 31.0952 139.279 32.2227L136.407 35.0545C135.619 34.1374 134.786 33.4546 133.908 33.0079C133.028 32.5632 132.012 32.3388 130.858 32.3388C129.44 32.3388 128.326 32.6281 127.512 33.2047C126.699 33.7813 126.292 34.6078 126.292 35.6822C126.292 36.548 126.534 37.2486 127.02 37.7878C127.505 38.325 128.135 38.7776 128.91 39.1456C129.684 39.5136 130.545 39.854 131.488 40.1689C132.433 40.4837 133.37 40.8379 134.302 41.2315C135.233 41.6251 136.092 42.1308 136.879 42.7467C137.667 43.3627 138.297 44.1577 138.769 45.1258C139.242 46.096 139.478 47.3023 139.478 48.7447C139.478 51.1829 138.618 53.1113 136.901 54.5282C135.182 55.945 132.866 56.6515 129.954 56.6515H129.95Z" fill="#2F5DE8"/>
<path d="M144.552 56.2574V28.8002H148.764V56.2574H144.552ZM147.425 32.6552V28.8002H162.224V32.6552H147.425ZM147.425 44.3776V40.5619H161.555V44.3776H147.425Z" fill="#2F5DE8"/>
<path d="M166.681 56.2575V28.8003H170.892V56.2575H166.681ZM169.555 32.6553V28.8003H184.906V32.6553H169.555ZM169.555 44.0628V40.4046H183.764V44.0628H169.555ZM169.555 56.2575V52.4419H185.103V56.2575H169.555ZM173.728 26.0473L171.916 24.2368L176.994 17.865L180.104 20.9722L173.728 26.0473Z" fill="#2F5DE8"/>
<path d="M190.216 56.2574V28.8002H194.428V56.2574H190.216ZM193.089 56.2574V52.4418H207.613V56.2574H193.089Z" fill="#2F5DE8"/>
<path d="M211.391 56.2574L222.648 28.8002H225.599L236.817 56.2574H232.29L223.315 33.6391H224.851L215.837 56.2574H211.389H211.391ZM216.863 50.594V46.9358H231.386V50.594H216.863Z" fill="#2F5DE8"/>
<path d="M250.792 56.651C248.901 56.651 247.125 56.283 245.458 55.549C243.792 54.815 242.329 53.8055 241.069 52.5205C239.808 51.2355 238.826 49.7341 238.117 48.0161C237.408 46.2982 237.054 44.4563 237.054 42.4885C237.054 40.5206 237.408 38.6925 238.117 37.0002C238.826 35.3078 239.816 33.8142 241.088 32.5155C242.36 31.2167 243.849 30.2072 245.556 29.487C247.261 28.7667 249.112 28.4047 251.107 28.4047C253.284 28.4047 255.299 28.8317 257.148 29.6838C258.999 30.5358 260.538 31.7362 261.773 33.2829L258.939 36.1147C258.099 34.9339 256.984 34.0228 255.594 33.3813C254.202 32.7398 252.707 32.4171 251.107 32.4171C249.165 32.4171 247.458 32.8441 245.989 33.6962C244.518 34.5483 243.378 35.7349 242.565 37.256C241.752 38.7771 241.344 40.5206 241.344 42.4885C241.344 44.4563 241.758 46.2392 242.585 47.7603C243.412 49.2814 244.526 50.474 245.93 51.3398C247.334 52.2057 248.927 52.6386 250.713 52.6386C252.601 52.6386 254.222 52.2903 255.574 51.5956C256.925 50.901 257.969 49.8639 258.703 48.4884C259.438 47.1109 259.806 45.4265 259.806 43.433L262.403 45.3222H250.595V41.5065H264.136V42.0969C264.136 45.3222 263.559 48.0181 262.403 50.1807C261.247 52.3434 259.674 53.9629 257.679 55.0393C255.685 56.1157 253.389 56.653 250.792 56.653V56.651Z" fill="#2F5DE8"/>
<path d="M268.91 56.2574V28.8002H273.122V56.2574H268.91Z" fill="#2F5DE8"/>
<path d="M277.756 40.6795H292.634V44.141H277.756V40.6795ZM280.629 56.2569V28.7997H284.841V56.2569H280.629ZM283.465 56.2569V52.4413H290.864C292.806 52.4413 294.511 52.0221 295.982 51.1819C297.451 50.3436 298.598 49.1747 299.425 47.6811C300.252 46.1855 300.666 44.4558 300.666 42.488C300.666 40.5201 300.247 38.8435 299.406 37.3736C298.565 35.9056 297.411 34.7524 295.942 33.9121C294.473 33.0738 292.78 32.6527 290.864 32.6527H283.504V28.7977H290.982C292.977 28.7977 294.82 29.146 296.513 29.8407C298.207 30.5353 299.687 31.5055 300.961 32.7511C302.233 33.9968 303.218 35.4451 303.913 37.0981C304.608 38.7491 304.956 40.5595 304.956 42.5273C304.956 44.4952 304.608 46.278 303.913 47.9566C303.218 49.6352 302.239 51.0914 300.981 52.3232C299.721 53.5571 298.246 54.5193 296.553 55.214C294.859 55.9086 293.03 56.2569 291.061 56.2569H283.465Z" fill="#2F5DE8"/>
<path d="M34.0789 6.26432C35.8017 6.26432 37.2112 4.85482 37.2112 3.1321C37.2112 1.40938 35.8017 -0.00012207 34.0789 -0.00012207C32.3561 -0.00012207 30.9466 1.48768 30.9466 3.1321C30.9466 4.77651 32.3561 6.26432 34.0789 6.26432ZM34.0789 45.4171C35.8017 45.4171 37.2112 44.0076 37.2112 42.2849C37.2112 40.5621 35.8017 39.1526 34.0789 39.1526C32.3561 39.1526 30.9466 40.5621 30.9466 42.2849C30.9466 44.0076 32.3561 45.4171 34.0789 45.4171ZM42.9277 18.0101C45.7468 18.0101 48.096 15.7393 48.096 12.842C48.096 9.94468 45.7468 7.75212 42.9277 7.75212C40.1086 7.75212 37.8377 10.023 37.8377 12.842C37.8377 15.661 40.1086 18.0101 42.9277 18.0101ZM20.375 52.6212C23.1941 52.6212 25.5434 50.272 25.5434 47.453C25.5434 44.634 23.1941 42.3632 20.375 42.3632C17.556 42.3632 15.285 44.634 15.285 47.453C15.285 50.272 17.556 52.6212 20.375 52.6212ZM46.1383 21.3773L36.9763 56.3798C36.898 56.6931 36.5848 56.928 36.2715 56.928H13.8755C13.5623 56.928 13.249 56.6931 13.1707 56.3798L5.26163 25.4492C5.18332 24.9793 5.41824 24.7444 5.80978 24.7444H10.0384C11.2913 32.3401 17.0861 37.9781 24.9952 38.0564C33.3741 38.1347 39.3255 31.6353 40.0303 24.7444C40.1869 23.6481 40.1869 22.5519 40.0303 21.4556C39.952 21.0641 39.7954 20.9075 39.4038 20.9075H14.3453C14.8152 15.2695 19.6703 11.6674 24.9952 11.6674C27.2661 11.6674 29.5371 12.2938 31.3381 13.7033C31.6514 13.9383 31.9646 13.9383 32.1995 13.625L33.9223 11.4325C34.1572 11.1193 34.1572 10.806 33.844 10.5711C31.2598 8.69179 28.2058 7.75212 24.9952 7.75212C17.321 7.75212 11.0564 13.3118 10.0384 20.9075H0.563159C0.17162 20.9075 -0.0633039 21.1424 0.0150039 21.6122L10.0384 60.4517C10.1167 60.765 10.4299 60.9999 10.7432 60.9999H39.4821C39.7954 60.9999 40.1086 60.765 40.1869 60.4517L50.4452 21.5339C50.5236 21.0641 50.2886 20.8291 49.8971 20.8291H46.8431C46.5299 20.8291 46.2166 21.0641 46.1383 21.3773ZM14.1887 24.7444H36.1932C35.1752 29.9126 30.6334 34.2194 24.9952 34.2194C19.357 34.2194 14.9718 30.4607 14.1887 24.7444Z" fill="#2F5DE8"/>
</svg>
