<svg width="390" height="667" viewBox="0 0 390 667" fill="none" xmlns="http://www.w3.org/2000/svg">
<path d="M639.831 82.2406C649.737 77.5684 658.793 70.563 666.098 61.3122C690.394 30.5548 686.07 -13.1528 656.434 -36.321C656.193 -36.5096 655.961 -36.6867 655.728 -36.8638L342.054 -282.183C298.159 -315.857 236.068 -311.198 194.705 -273.69L194.634 -273.638C192.798 -271.975 191.022 -270.252 189.276 -268.463L-129.98 39.9389C-132.97 42.6417 -135.777 45.6277 -138.362 48.9026C-162.352 79.2611 -158.22 122.345 -129.219 145.422L57.0912 291.134C92.7272 318.994 140.632 321.3 179.667 301.045L639.831 82.2406Z" fill="black"/>
</svg>
