<svg width="44" height="496" viewBox="0 0 44 496" fill="none" xmlns="http://www.w3.org/2000/svg">
<path d="M18.14 36.8V34.31H23.78V56H21.02V36.8H18.14Z" fill="black"/>
<path d="M14.53 98.81C17.07 96.77 19.06 95.1 20.5 93.8C21.94 92.48 23.15 91.11 24.13 89.69C25.13 88.25 25.63 86.84 25.63 85.46C25.63 84.16 25.31 83.14 24.67 82.4C24.05 81.64 23.04 81.26 21.64 81.26C20.28 81.26 19.22 81.69 18.46 82.55C17.72 83.39 17.32 84.52 17.26 85.94H14.62C14.7 83.7 15.38 81.97 16.66 80.75C17.94 79.53 19.59 78.92 21.61 78.92C23.67 78.92 25.3 79.49 26.5 80.63C27.72 81.77 28.33 83.34 28.33 85.34C28.33 87 27.83 88.62 26.83 90.2C25.85 91.76 24.73 93.14 23.47 94.34C22.21 95.52 20.6 96.9 18.64 98.48H28.96V100.76H14.53V98.81Z" fill="black"/>
<path d="M14.8 129.77C14.94 127.93 15.65 126.49 16.93 125.45C18.21 124.41 19.87 123.89 21.91 123.89C23.27 123.89 24.44 124.14 25.42 124.64C26.42 125.12 27.17 125.78 27.67 126.62C28.19 127.46 28.45 128.41 28.45 129.47C28.45 130.71 28.09 131.78 27.37 132.68C26.67 133.58 25.75 134.16 24.61 134.42V134.57C25.91 134.89 26.94 135.52 27.7 136.46C28.46 137.4 28.84 138.63 28.84 140.15C28.84 141.29 28.58 142.32 28.06 143.24C27.54 144.14 26.76 144.85 25.72 145.37C24.68 145.89 23.43 146.15 21.97 146.15C19.85 146.15 18.11 145.6 16.75 144.5C15.39 143.38 14.63 141.8 14.47 139.76H17.11C17.25 140.96 17.74 141.94 18.58 142.7C19.42 143.46 20.54 143.84 21.94 143.84C23.34 143.84 24.4 143.48 25.12 142.76C25.86 142.02 26.23 141.07 26.23 139.91C26.23 138.41 25.73 137.33 24.73 136.67C23.73 136.01 22.22 135.68 20.2 135.68H19.51V133.4H20.23C22.07 133.38 23.46 133.08 24.4 132.5C25.34 131.9 25.81 130.98 25.81 129.74C25.81 128.68 25.46 127.83 24.76 127.19C24.08 126.55 23.1 126.23 21.82 126.23C20.58 126.23 19.58 126.55 18.82 127.19C18.06 127.83 17.61 128.69 17.47 129.77H14.8Z" fill="black"/>
<path d="M13.7 186.17V184.1L24.23 169.52H27.5V183.8H30.5V186.17H27.5V191H24.8V186.17H13.7ZM24.92 172.37L16.85 183.8H24.92V172.37Z" fill="black"/>
<path d="M28.19 216.68H17.66V223.52C18.12 222.88 18.8 222.36 19.7 221.96C20.6 221.54 21.57 221.33 22.61 221.33C24.27 221.33 25.62 221.68 26.66 222.38C27.7 223.06 28.44 223.95 28.88 225.05C29.34 226.13 29.57 227.28 29.57 228.5C29.57 229.94 29.3 231.23 28.76 232.37C28.22 233.51 27.39 234.41 26.27 235.07C25.17 235.73 23.8 236.06 22.16 236.06C20.06 236.06 18.36 235.52 17.06 234.44C15.76 233.36 14.97 231.92 14.69 230.12H17.36C17.62 231.26 18.17 232.15 19.01 232.79C19.85 233.43 20.91 233.75 22.19 233.75C23.77 233.75 24.96 233.28 25.76 232.34C26.56 231.38 26.96 230.12 26.96 228.56C26.96 227 26.56 225.8 25.76 224.96C24.96 224.1 23.78 223.67 22.22 223.67C21.16 223.67 20.23 223.93 19.43 224.45C18.65 224.95 18.08 225.64 17.72 226.52H15.14V214.28H28.19V216.68Z" fill="black"/>
<path d="M25.95 264.47C25.51 262.25 24.14 261.14 21.84 261.14C20.06 261.14 18.73 261.83 17.85 263.21C16.97 264.57 16.54 266.82 16.56 269.96C17.02 268.92 17.78 268.11 18.84 267.53C19.92 266.93 21.12 266.63 22.44 266.63C24.5 266.63 26.14 267.27 27.36 268.55C28.6 269.83 29.22 271.6 29.22 273.86C29.22 275.22 28.95 276.44 28.41 277.52C27.89 278.6 27.09 279.46 26.01 280.1C24.95 280.74 23.66 281.06 22.14 281.06C20.08 281.06 18.47 280.6 17.31 279.68C16.15 278.76 15.34 277.49 14.88 275.87C14.42 274.25 14.19 272.25 14.19 269.87C14.19 262.53 16.75 258.86 21.87 258.86C23.83 258.86 25.37 259.39 26.49 260.45C27.61 261.51 28.27 262.85 28.47 264.47H25.95ZM21.87 268.94C21.01 268.94 20.2 269.12 19.44 269.48C18.68 269.82 18.06 270.35 17.58 271.07C17.12 271.77 16.89 272.63 16.89 273.65C16.89 275.17 17.33 276.41 18.21 277.37C19.09 278.31 20.35 278.78 21.99 278.78C23.39 278.78 24.5 278.35 25.32 277.49C26.16 276.61 26.58 275.43 26.58 273.95C26.58 272.39 26.18 271.17 25.38 270.29C24.58 269.39 23.41 268.94 21.87 268.94Z" fill="black"/>
<path d="M28.71 306.44L20.37 326H17.61L26.07 306.71H14.49V304.37H28.71V306.44Z" fill="black"/>
<path d="M18.32 359.72C17.2 359.28 16.34 358.64 15.74 357.8C15.14 356.96 14.84 355.94 14.84 354.74C14.84 353.66 15.11 352.69 15.65 351.83C16.19 350.95 16.99 350.26 18.05 349.76C19.13 349.24 20.43 348.98 21.95 348.98C23.47 348.98 24.76 349.24 25.82 349.76C26.9 350.26 27.71 350.95 28.25 351.83C28.81 352.69 29.09 353.66 29.09 354.74C29.09 355.9 28.78 356.92 28.16 357.8C27.54 358.66 26.69 359.3 25.61 359.72C26.85 360.1 27.83 360.77 28.55 361.73C29.29 362.67 29.66 363.81 29.66 365.15C29.66 366.45 29.34 367.59 28.7 368.57C28.06 369.53 27.15 370.28 25.97 370.82C24.81 371.34 23.47 371.6 21.95 371.6C20.43 371.6 19.09 371.34 17.93 370.82C16.79 370.28 15.9 369.53 15.26 368.57C14.62 367.59 14.3 366.45 14.3 365.15C14.3 363.81 14.66 362.66 15.38 361.7C16.1 360.74 17.08 360.08 18.32 359.72ZM26.45 355.07C26.45 353.85 26.05 352.91 25.25 352.25C24.45 351.59 23.35 351.26 21.95 351.26C20.57 351.26 19.48 351.59 18.68 352.25C17.88 352.91 17.48 353.86 17.48 355.1C17.48 356.22 17.89 357.12 18.71 357.8C19.55 358.48 20.63 358.82 21.95 358.82C23.29 358.82 24.37 358.48 25.19 357.8C26.03 357.1 26.45 356.19 26.45 355.07ZM21.95 360.92C20.47 360.92 19.26 361.27 18.32 361.97C17.38 362.65 16.91 363.68 16.91 365.06C16.91 366.34 17.36 367.37 18.26 368.15C19.18 368.93 20.41 369.32 21.95 369.32C23.49 369.32 24.71 368.93 25.61 368.15C26.51 367.37 26.96 366.34 26.96 365.06C26.96 363.72 26.5 362.7 25.58 362C24.66 361.28 23.45 360.92 21.95 360.92Z" fill="black"/>
<path d="M17.87 410.18C18.07 411.32 18.53 412.2 19.25 412.82C19.99 413.44 20.98 413.75 22.22 413.75C23.88 413.75 25.1 413.1 25.88 411.8C26.68 410.5 27.06 408.31 27.02 405.23C26.6 406.13 25.9 406.84 24.92 407.36C23.94 407.86 22.85 408.11 21.65 408.11C20.31 408.11 19.11 407.84 18.05 407.3C17.01 406.74 16.19 405.93 15.59 404.87C14.99 403.81 14.69 402.53 14.69 401.03C14.69 398.89 15.31 397.17 16.55 395.87C17.79 394.55 19.55 393.89 21.83 393.89C24.63 393.89 26.59 394.8 27.71 396.62C28.85 398.44 29.42 401.15 29.42 404.75C29.42 407.27 29.19 409.35 28.73 410.99C28.29 412.63 27.53 413.88 26.45 414.74C25.39 415.6 23.93 416.03 22.07 416.03C20.03 416.03 18.44 415.48 17.3 414.38C16.16 413.28 15.51 411.88 15.35 410.18H17.87ZM22.1 405.8C23.44 405.8 24.54 405.39 25.4 404.57C26.26 403.73 26.69 402.6 26.69 401.18C26.69 399.68 26.27 398.47 25.43 397.55C24.59 396.63 23.41 396.17 21.89 396.17C20.49 396.17 19.37 396.61 18.53 397.49C17.71 398.37 17.3 399.53 17.3 400.97C17.3 402.43 17.71 403.6 18.53 404.48C19.35 405.36 20.54 405.8 22.1 405.8Z" fill="black"/>
<path d="M14.36 449.93C14.36 446.49 14.92 443.81 16.04 441.89C17.16 439.95 19.12 438.98 21.92 438.98C24.7 438.98 26.65 439.95 27.77 441.89C28.89 443.81 29.45 446.49 29.45 449.93C29.45 453.43 28.89 456.15 27.77 458.09C26.65 460.03 24.7 461 21.92 461C19.12 461 17.16 460.03 16.04 458.09C14.92 456.15 14.36 453.43 14.36 449.93ZM26.75 449.93C26.75 448.19 26.63 446.72 26.39 445.52C26.17 444.3 25.7 443.32 24.98 442.58C24.28 441.84 23.26 441.47 21.92 441.47C20.56 441.47 19.52 441.84 18.8 442.58C18.1 443.32 17.63 444.3 17.39 445.52C17.17 446.72 17.06 448.19 17.06 449.93C17.06 451.73 17.17 453.24 17.39 454.46C17.63 455.68 18.1 456.66 18.8 457.4C19.52 458.14 20.56 458.51 21.92 458.51C23.26 458.51 24.28 458.14 24.98 457.4C25.7 456.66 26.17 455.68 26.39 454.46C26.63 453.24 26.75 451.73 26.75 449.93Z" fill="black"/>
</svg>
