<svg width="45" height="228" viewBox="0 0 45 228" fill="none" xmlns="http://www.w3.org/2000/svg">
<path d="M44.2496 201.894V198.942H19.3631C20.1969 197.425 21.0306 195.762 21.7184 194.037L21.2807 193.933L35.5998 193.247C36.8712 194.432 38.0176 195.45 38.8513 196.427L41.4567 194.473C38.8513 191.522 33.3905 187.406 28.9092 184.704L26.4081 186.43C28.3673 187.656 30.4933 189.173 32.4525 190.691L12.6725 191.48C15.8198 189.61 19.0713 187.261 22.0727 184.663L19.113 183C15.5697 186.471 10.6925 189.672 9.23344 190.462C7.89949 191.293 6.73228 191.875 5.79435 191.979C6.08615 192.811 6.58637 194.432 6.73228 195.118C7.8578 194.723 9.29597 194.536 18.0917 194.079C17.4039 195.804 16.5702 197.404 15.528 198.942H0.583601V201.894H13.4229C9.92125 206.217 5.35665 209.543 0 211.85C0.729505 212.494 1.95924 213.762 2.45947 214.406C8.35804 211.517 13.5688 207.381 17.5081 201.894H27.4919C31.1811 206.945 37.1839 211.6 42.7906 214.053C43.3326 213.222 44.2705 212.037 45 211.413C40.0394 209.605 34.6619 205.926 31.2228 201.894H44.2496ZM24.8657 204.492C21.4683 206.945 15.3196 209.189 10.4632 210.478C11.1927 211.122 11.9847 212.099 12.5266 212.723C17.5498 211.309 23.6359 208.753 27.5336 205.864L24.8657 204.492ZM29.1385 210.187C24.8031 213.43 16.6952 216.132 9.67114 217.503C10.4006 218.148 11.0885 219.229 11.547 219.956C18.9254 218.335 27.0333 215.383 31.9106 211.559L29.1593 210.187H29.1385ZM35.3289 215.487C29.868 220.829 18.7587 223.885 6.6906 225.152C7.33673 225.942 7.96201 227.106 8.27465 228C20.8221 226.42 32.1816 222.991 38.2886 216.963L35.3289 215.487Z" fill="white"/>
<path d="M45 149.15V146.11H41.0478C41.1942 143.577 41.3406 140.726 41.487 137.496V135.85H18.046C17.7532 138.932 17.3141 142.521 16.8123 146.11H11.7728V149.15H16.3731C15.8295 153.288 15.1812 157.278 14.5957 160.213H36.6566C36.322 162.007 35.9247 163.063 35.4647 163.549C35.0255 164.14 34.5237 164.245 33.6454 164.245C32.7045 164.245 30.3415 164.203 27.7277 163.992C28.2714 164.794 28.5223 165.976 28.6059 166.842C30.9689 166.99 33.4363 167.053 34.8792 166.948C36.3011 166.8 37.3048 166.441 38.1831 165.301C38.8731 164.456 39.4168 162.957 39.8559 160.213H43.599V157.278H40.1905C40.4414 155.125 40.6924 152.444 40.8806 149.15H44.9791H45ZM38.3295 138.784C38.2249 141.529 38.1413 143.914 37.9949 146.11H19.8862C20.2416 143.619 20.5344 141.128 20.8271 138.784H38.3504H38.3295ZM18.2551 157.278C18.6524 154.893 19.0497 152.106 19.447 149.15H37.8485C37.5976 152.549 37.3466 155.188 37.1166 157.278H18.2551ZM31.868 155.632C30.6343 153.795 28.0204 151.24 25.8039 149.446L23.8383 150.691C26.1176 152.591 28.6687 155.273 29.8606 157.067L31.8889 155.632H31.868ZM25.1138 140.135C27.2886 141.824 29.7142 144.273 30.7807 145.962L32.7045 144.569C31.6171 142.922 29.1496 140.536 26.9749 138.932L25.0929 140.135H25.1138ZM43.829 130.825V127.785H20.9317C21.6636 126.18 22.3118 124.449 22.8137 122.802L19.6561 122C17.8369 127.827 14.8676 133.654 11.3127 137.454C12.1073 137.855 13.4875 138.805 14.1357 139.291C16.0177 136.99 17.8787 134.055 19.5725 130.825H43.8499H43.829ZM2.57203 124.935C5.54136 126.37 9.24257 128.629 11.02 130.213L12.9856 127.679C11.1036 126.138 7.40241 123.985 4.45399 122.697L2.57203 124.935ZM4.34945 166.589C6.41961 161.944 8.9289 155.674 10.7691 150.438L8.25975 148.538C6.29414 154.217 3.47119 160.846 1.44285 164.731L4.34945 166.568V166.589ZM9.86989 141.972C8.13429 140.473 4.64219 138.425 1.77741 137.18L0 139.481C2.82295 140.832 6.27323 143.028 8.05065 144.569L9.86989 141.972Z" fill="white"/>
<path d="M25.7664 76.3389C23.4155 74.7044 19.0784 72.588 15.6331 71.2888L14.0117 73.3633C17.4165 74.7882 21.8549 77.0723 24.064 78.7068L25.7867 76.3389H25.7664ZM10.5056 82.6672V69.0676H33.5083C32.9813 74.3063 32.4544 76.5275 31.6843 77.219C31.4411 77.5752 31.0155 77.659 30.3872 77.659C29.7184 77.659 28.2795 77.6171 26.6176 77.4704C27.0432 78.3086 27.3269 79.5031 27.3877 80.3832C29.1104 80.4879 30.8331 80.4879 31.6437 80.3832C32.7989 80.2784 33.4677 80.0269 34.1771 79.2935C35.3323 78.0991 35.9403 74.9349 36.6699 67.3702C36.7104 66.9302 36.7712 65.9872 36.7712 65.9872H21.1861C21.9563 64.6461 22.7669 63.0745 23.4763 61.5867L19.8891 61C19.504 62.383 18.6933 64.4156 17.9232 65.9872H7.4048V85.6637H38.7371C38.1088 97.0422 37.44 101.443 36.3456 102.532C35.8592 103.035 35.3931 103.077 34.6229 103.077C33.6704 103.077 31.3195 103.077 28.7861 102.868C29.2725 103.664 29.6373 104.9 29.6981 105.843C32.1301 105.99 34.5216 106.053 35.7781 105.948C37.2171 105.843 38.1291 105.508 39.0208 104.46C40.4597 102.784 41.1691 97.8385 41.8987 84.176C42 83.7359 42 82.6463 42 82.6463H10.5259L10.5056 82.6672ZM30.7317 102.784V89.5404H27.7728V98.53H18.592V87.6126H15.6331V98.53H6.91839V89.6871H4V101.359H27.7728V102.784H30.7317Z" fill="white"/>
<path d="M40.5515 9.86013C38.4096 12.7762 34.9703 16.4895 32.0046 19.2588C30.7895 15.9441 29.8215 12.3776 29.0389 8.70631V0H25.7849V40.4895C25.7849 41.3287 25.4966 41.5385 24.714 41.5804C23.9314 41.6224 21.46 41.6224 18.5973 41.5385C19.1327 42.4825 19.7712 44.014 19.9153 45C23.5194 45 25.7849 44.8951 27.1648 44.2658C28.524 43.6783 29.0595 42.6713 29.0595 40.4476V17.8741C31.881 27.3357 36.2059 35.056 42.714 39.2727C43.2494 38.3287 44.3204 37.1539 45 36.5035C39.8513 33.6294 36 28.5315 33.1991 22.0909C36.4531 19.2587 40.3455 15.2098 43.27 11.6014L40.5927 9.86013H40.5515ZM22.119 12.7343L21.5423 12.8392H11.5332V16.049H20.4714C18.6179 25.3637 14.2929 33.2308 9.24714 36.7972C9.96796 37.4476 10.8947 38.6853 11.3272 39.4615C17.4027 34.6573 22.222 25.5525 24.0137 13.2797L22.119 12.7343ZM8.46453 21.9021C5.89016 27.1888 2.38902 33.4406 0 37.0909L2.78032 39.1259C5.39588 34.8672 8.50572 28.8672 10.8947 23.9161L8.46453 21.8811V21.9021ZM10.5034 9.96504C8.71167 8.07692 4.92219 5.30771 1.89473 3.52449L0 5.85317C3.00687 7.78324 6.71397 10.6573 8.50573 12.5874L10.5034 9.96504Z" fill="white"/>
</svg>
