<svg width="25" height="22" viewBox="0 0 25 22" fill="none" xmlns="http://www.w3.org/2000/svg">
<path fill-rule="evenodd" clip-rule="evenodd" d="M21.6714 0C23.2785 0 24.5833 1.20441 24.5833 2.68787V19.3121C24.5833 20.7956 23.2785 22 21.6714 22H16.7154V13.7107H19.8156L20.4055 10.1606H16.7154V7.85671C16.7154 6.88548 17.2308 5.93875 18.8837 5.93875H20.5614V2.91633C20.5614 2.91633 19.0388 2.67648 17.5831 2.67648C14.544 2.67648 12.5576 4.37671 12.5576 7.45478V10.1606H9.17938V13.7107H12.5576V22H3.66185C2.05478 22 0.75 20.7956 0.75 19.3121V2.68787C0.75 1.20441 2.05473 0 3.66185 0H21.6714V0Z" fill="black"/>
</svg>
