<svg width="24" height="22" viewBox="0 0 24 22" fill="none" xmlns="http://www.w3.org/2000/svg">
<path fill-rule="evenodd" clip-rule="evenodd" d="M20.9214 0C22.5285 0 23.8333 1.20441 23.8333 2.68787V19.3121C23.8333 20.7956 22.5285 22 20.9214 22H2.91185C1.30478 22 0 20.7956 0 19.3121V2.68787C0 1.20441 1.30473 0 2.91185 0H20.9214V0ZM7.46935 18.1877V8.48895H3.97629V18.1877H7.46935ZM20.0628 18.1877V12.6259C20.0628 9.64674 18.3396 8.26087 16.0418 8.26087C14.1889 8.26087 13.359 9.2015 12.8943 9.86214V8.48895H9.40208C9.44839 9.39907 9.40208 18.1877 9.40208 18.1877H12.8942V12.7713C12.8942 12.4813 12.9168 12.1915 13.0094 11.9843C13.2614 11.4053 13.8364 10.8055 14.8012 10.8055C16.0644 10.8055 16.5704 11.6952 16.5704 12.9985V18.1877H20.0628ZM5.74642 3.81227C4.55131 3.81227 3.77049 4.53754 3.77049 5.48814C3.77049 6.41876 4.52757 7.16401 5.7002 7.16401H5.72273C6.94069 7.16401 7.69884 6.41876 7.69884 5.48814C7.67626 4.53888 6.94283 3.81434 5.74642 3.81227Z" fill="black"/>
</svg>
