<svg width="25" height="22" viewBox="0 0 25 22" fill="none" xmlns="http://www.w3.org/2000/svg">
<path fill-rule="evenodd" clip-rule="evenodd" d="M21.4214 0C23.0285 0 24.3333 1.20441 24.3333 2.68787V19.3121C24.3333 20.7956 23.0285 22 21.4214 22H3.41174C1.80466 22 0.499878 20.7956 0.499878 19.3121V2.68787C0.499878 1.20441 1.80462 0 3.41174 0H21.4214V0ZM9.6012 18.2421C15.9291 18.2421 19.3891 13.402 19.3891 9.20717C19.3891 9.0689 19.3891 8.93058 19.382 8.79888C20.0526 8.35111 20.6375 7.79135 21.1013 7.15258C20.4877 7.40283 19.8243 7.57406 19.1251 7.65308C19.8386 7.25794 20.3807 6.63893 20.6375 5.8948C19.9741 6.25698 19.2393 6.52042 18.4546 6.66527C17.8267 6.04626 16.935 5.66431 15.9434 5.66431C14.0457 5.66431 12.5048 7.08675 12.5048 8.83841C12.5048 9.08866 12.5333 9.3323 12.5975 9.56278C9.73675 9.43108 7.20418 8.16673 5.50628 6.24383C5.21377 6.71138 5.04256 7.25794 5.04256 7.83746C5.04256 8.9372 5.64896 9.91182 6.57636 10.4781C6.01279 10.465 5.48487 10.3201 5.02114 10.083V10.1225C5.02114 11.6635 6.20541 12.941 7.78204 13.2373C7.4967 13.3098 7.18993 13.3493 6.876 13.3493C6.65485 13.3493 6.44086 13.3296 6.22682 13.29C6.66202 14.5544 7.93184 15.4697 9.43711 15.4961C8.26002 16.3456 6.77615 16.8526 5.16386 16.8526C4.88564 16.8526 4.61453 16.8395 4.34343 16.8065C5.8487 17.7153 7.66074 18.2421 9.6012 18.2421Z" fill="black"/>
</svg>
