<?xml version="1.0" encoding="UTF-8"?>
<svg id="Layer_2" data-name="Layer 2" xmlns="http://www.w3.org/2000/svg" viewBox="0 0 255.23 255.18">
  <defs>
    <style>
      .cls-1 {
        fill: none;
      }

      .cls-2 {
        fill: #006491;
      }

      .cls-3 {
        fill: #fff;
      }

      .cls-4 {
        fill: #e31937;
      }

      .cls-5 {
        fill: #38648e;
      }
    </style>
  </defs>
  <g id="Layer_1-2" data-name="Layer 1">
    <g>
      <g>
        <polygon class="cls-3" points="31.64 255.18 254.89 255.18 254.89 31.93 31.64 255.18"/>
        <g>
          <path class="cls-1" d="m164.78,201.35c-1.97,0-3.93.75-5.43,2.24-1.5,1.5-2.25,3.47-2.25,5.44s.75,3.93,2.25,5.43c1.5,1.49,3.47,2.24,5.43,2.24s3.93-.75,5.43-2.24c1.5-1.49,2.24-3.47,2.24-5.43,0-1.96-.75-3.93-2.24-5.43-1.5-1.5-3.47-2.24-5.43-2.24Z"/>
          <path class="cls-1" d="m187.32,217.01c1.97,0,3.93-.76,5.43-2.25,1.51-1.5,2.26-3.46,2.26-5.42s-.75-3.93-2.26-5.43c-1.5-1.5-3.46-2.25-5.43-2.25s-3.93.75-5.43,2.25c-1.5,1.5-2.25,3.47-2.25,5.43s.75,3.93,2.25,5.42c1.5,1.49,3.47,2.25,5.43,2.25Z"/>
          <path class="cls-1" d="m211.12,147.58c-.64-.64-1.48-.96-2.31-.96s-1.68.32-2.31.96l-22.24,22.24-6.48,6.48,31.14,31.14,2.65-2.64,26.07-26.07c1.28-1.28,1.28-3.35,0-4.63l-26.52-26.52Z"/>
          <path class="cls-3" d="m239.51,172.22l-26.52-26.52c-1.12-1.12-2.61-1.73-4.19-1.73s-3.07.62-4.19,1.73l-22.24,22.24-37,37c-2.31,2.31-2.31,6.07,0,8.38l26.51,26.51c1.12,1.12,2.61,1.73,4.19,1.73s3.07-.62,4.19-1.73l33.17-33.17,26.08-26.07c2.31-2.31,2.31-6.07,0-8.38Z"/>
          <path class="cls-4" d="m237.64,174.1l-26.52-26.51c-1.28-1.28-3.35-1.28-4.63,0l-28.67,28.66,31.14,31.14,28.67-28.67c1.28-1.28,1.28-3.35,0-4.63Zm-23.32,7.67c-1.5,1.5-3.47,2.24-5.43,2.24s-3.93-.74-5.43-2.24c-1.5-1.5-2.25-3.47-2.25-5.43s.76-3.94,2.25-5.43c1.5-1.5,3.46-2.25,5.43-2.25s3.93.75,5.43,2.25c1.5,1.49,2.26,3.47,2.26,5.43s-.76,3.93-2.26,5.43Z"/>
          <path class="cls-2" d="m147.25,206.82c-1.28,1.28-1.28,3.35,0,4.63l26.51,26.51c.64.64,1.48.96,2.31.96s1.67-.32,2.31-.96l28.65-28.65-31.14-31.14-28.65,28.65Zm22.96,7.64c-1.5,1.49-3.47,2.24-5.43,2.24s-3.93-.75-5.43-2.24c-1.5-1.5-2.25-3.46-2.25-5.43s.75-3.93,2.25-5.44c1.5-1.5,3.47-2.24,5.43-2.24s3.93.75,5.43,2.24c1.5,1.5,2.25,3.47,2.24,5.43,0,1.96-.75,3.94-2.24,5.43Zm11.67-10.55c1.5-1.5,3.47-2.25,5.43-2.25s3.93.75,5.43,2.25c1.51,1.5,2.26,3.46,2.26,5.43s-.75,3.93-2.26,5.42c-1.5,1.49-3.46,2.25-5.43,2.25-1.96,0-3.93-.76-5.43-2.25-1.5-1.5-2.25-3.46-2.25-5.42s.75-3.93,2.25-5.43Z"/>
        </g>
        <polygon class="cls-4" points="255.23 31.69 31.97 254.94 63.95 254.94 255.23 63.66 255.23 31.69"/>
        <polygon class="cls-3" points="254.94 0 0 254.94 31.97 254.94 254.94 31.97 254.94 0"/>
      </g>
      <path class="cls-5" d="m189.79,234.06c1.32,0,2.46,1.03,2.46,2.43s-1.13,2.44-2.46,2.44-2.47-1.03-2.47-2.44,1.13-2.43,2.47-2.43Zm0,.4c-1.13,0-2,.87-2,2.03s.87,2.04,2,2.04,1.99-.86,1.99-2.04-.87-2.03-1.99-2.03Zm-.52,3.44h-.43v-2.8h1.07c.67,0,1,.25,1,.8,0,.5-.31.72-.73.77l.8,1.23h-.48l-.75-1.22h-.48v1.22Zm0-1.57h.51c.52,0,.7-.15.7-.46,0-.27-.13-.42-.62-.42h-.58v.88Z"/>
    </g>
  </g>
</svg>