<?xml version="1.0" encoding="UTF-8"?>
<svg id="Layer_2" data-name="Layer 2" xmlns="http://www.w3.org/2000/svg" viewBox="0 0 1094.61 277.18">
  <defs>
    <style>
      .cls-1 {
        fill: none;
      }

      .cls-2 {
        fill: #0078ae;
      }

      .cls-3 {
        fill: #fff;
      }

      .cls-4 {
        fill: #e31937;
      }
    </style>
  </defs>
  <g id="Layer_1-2" data-name="Layer 1">
    <polygon class="cls-2" points="927.59 0 0 0 0 277.06 723.81 277.06 964.23 36.65 927.59 0"/>
    <g>
      <path class="cls-2" d="m942.87,223.11h-10.36c-.34,0-.62.28-.62.62v23.32c0,.34.28.62.62.62h10.39c8.16,0,13.44-4.82,13.44-12.3s-5.29-12.26-13.47-12.26m0,18.08h-3.54v-11.6h3.57c3.69,0,5.89,2.16,5.89,5.78,0,2.89-2.04,5.82-5.93,5.82"/>
      <path class="cls-2" d="m1003.94,229.44c-2.86,0-5.18,1.57-6.22,3.13-.76-2.08-2.48-3.13-5.12-3.13-2.92,0-5.12,1.47-5.89,2.46v-1.4c0-.34-.28-.62-.62-.62h-5.39c-.34,0-.62.28-.62.62v16.54c0,.34.28.62.62.62h5.39c.34,0,.62-.28.62-.62v-10.35h0c.39-.46,1.2-1.4,2.69-1.4,1.31,0,2.03.71,2.03,1.99v9.76c0,.34.28.62.62.62h5.39c.34,0,.62-.28.62-.62v-10.35c.39-.45,1.2-1.4,2.72-1.4,1.29,0,2.03.73,2.03,1.99v9.76c0,.34.28.62.62.62h5.39c.34,0,.62-.28.62-.62v-12.27c0-3.44-1.95-5.34-5.49-5.34"/>
      <path class="cls-2" d="m1018.98,229.88h-5.39c-.34,0-.62.28-.62.62v16.54c0,.34.28.62.62.62h5.39c.34,0,.62-.28.62-.62v-16.54c0-.34-.28-.62-.62-.62"/>
      <path class="cls-2" d="m1016.45,221.16c-2.05,0-3.72,1.67-3.72,3.71s1.67,3.72,3.72,3.72,3.72-1.66,3.72-3.72-1.67-3.71-3.72-3.71"/>
      <path class="cls-2" d="m1035.99,229.44c-3.43,0-5.3,1.54-6.11,2.46v-1.4c0-.34-.28-.62-.62-.62h-5.39c-.34,0-.62.28-.62.62v16.54c0,.34.28.62.62.62h5.39c.34,0,.62-.28.62-.62v-10.35c.43-.49,1.23-1.4,2.83-1.4,1.71,0,2.58.86,2.58,2.54v9.21c0,.34.28.62.62.62h5.39c.34,0,.62-.28.62-.62v-12.01c0-3.5-2.21-5.6-5.93-5.6"/>
      <path class="cls-2" d="m967.87,229.36c-5.18,0-9.39,4.2-9.39,9.38s4.2,9.39,9.39,9.39,9.39-4.2,9.39-9.39-4.2-9.38-9.39-9.38m0,12.46c-1.77,0-3.2-1.43-3.2-3.21s1.43-3.2,3.2-3.2,3.2,1.43,3.2,3.2-1.43,3.21-3.2,3.21"/>
      <path class="cls-2" d="m1054.12,229.39c-5.18,0-9.39,4.2-9.39,9.39s4.2,9.39,9.39,9.39,9.39-4.2,9.39-9.39-4.2-9.39-9.39-9.39m0,12.46c-1.77,0-3.2-1.44-3.2-3.21s1.43-3.2,3.2-3.2,3.2,1.43,3.2,3.2-1.43,3.21-3.2,3.21"/>
      <path class="cls-2" d="m1069.53,224.17s0-.02,0-.04c0,0,0-.02-.01-.03,0,0,0-.02,0-.02h0c-.42-1.84-2.43-3.19-4.41-2.78-2,.42-3.32,2.28-2.93,4.16.32,1.55,1.71,2.57,3.3,2.67-.08.65-.65,1.25-1.13,1.52-.31.18-.12.51-.12.51l.41.61c.12.21.3.31.52.22,4.08-1.68,4.79-5.14,4.38-6.83Z"/>
      <path class="cls-2" d="m1075.15,235.17c-.02-.66.85-.96,1.92-.96,2.15,0,3.37.61,4.73,1.51.15.1.32.13.49.09.16-.04.31-.15.39-.3l1.82-3.16c.17-.29.07-.66-.22-.83-1.5-.89-3.69-2.04-7.49-2.04-5.48,0-8.42,2.58-7.93,6.29.86,6.52,11,4.29,10.85,6.51-.03.52-.93.9-2.49.9-2.01,0-4.29-1.01-5.73-1.89-.14-.09-.31-.11-.47-.07-.16.04-.3.15-.39.29l-2.1,3.5c-.16.29-.08.64.19.82,2.02,1.36,5.28,2.28,8.1,2.28,5.49,0,8.65-2.36,8.65-6.24,0-7.15-10.29-4.93-10.33-6.7"/>
      <g>
        <path class="cls-1" d="m976.58,166.04c-2.22,0-4.44.85-6.14,2.54-1.69,1.7-2.54,3.92-2.54,6.14s.84,4.44,2.54,6.13c1.69,1.69,3.92,2.53,6.14,2.53s4.44-.85,6.14-2.53c1.69-1.69,2.53-3.92,2.53-6.14,0-2.22-.84-4.44-2.53-6.14-1.69-1.69-3.92-2.54-6.14-2.54Z"/>
        <path class="cls-1" d="m1002.04,183.73c2.22,0,4.44-.86,6.13-2.54,1.7-1.69,2.55-3.91,2.55-6.13s-.85-4.44-2.55-6.14c-1.69-1.7-3.91-2.54-6.13-2.54s-4.44.85-6.13,2.54c-1.69,1.69-2.54,3.92-2.54,6.14s.85,4.44,2.54,6.13c1.69,1.69,3.92,2.54,6.13,2.54Z"/>
        <path class="cls-1" d="m1028.93,105.29c-.72-.72-1.67-1.08-2.61-1.08s-1.89.36-2.61,1.08l-25.12,25.12-7.32,7.32,35.18,35.18,2.99-2.98,29.45-29.46c1.44-1.44,1.44-3.78,0-5.23l-29.96-29.96Z"/>
        <path class="cls-3" d="m1061.01,133.12l-29.96-29.96c-1.26-1.26-2.95-1.96-4.73-1.96s-3.47.7-4.73,1.96l-25.12,25.13-41.81,41.81c-2.61,2.61-2.61,6.86,0,9.47l29.95,29.95c1.26,1.26,2.94,1.96,4.73,1.96s3.47-.7,4.73-1.96l37.47-37.48,29.46-29.46c2.61-2.61,2.61-6.86,0-9.47Z"/>
        <path class="cls-4" d="m1058.89,135.25l-29.96-29.95c-1.44-1.45-3.78-1.45-5.23,0l-32.39,32.38,35.18,35.18,32.39-32.39c1.44-1.44,1.44-3.78,0-5.23Zm-26.35,8.66c-1.69,1.69-3.92,2.54-6.14,2.54s-4.44-.84-6.13-2.54c-1.69-1.69-2.55-3.92-2.55-6.14s.85-4.45,2.55-6.13c1.69-1.69,3.91-2.54,6.14-2.54s4.44.85,6.13,2.54c1.69,1.69,2.55,3.92,2.55,6.13s-.86,4.44-2.55,6.14Z"/>
        <path class="cls-2" d="m956.78,172.22c-1.44,1.44-1.44,3.78,0,5.23l29.95,29.95c.72.72,1.67,1.08,2.62,1.08s1.89-.36,2.61-1.08l32.37-32.37-35.18-35.18-32.37,32.37Zm25.94,8.63c-1.7,1.68-3.92,2.53-6.14,2.53s-4.44-.85-6.14-2.53c-1.69-1.69-2.54-3.91-2.54-6.13s.85-4.44,2.54-6.14c1.69-1.69,3.92-2.54,6.14-2.54s4.44.85,6.14,2.54c1.69,1.7,2.54,3.92,2.53,6.14,0,2.22-.84,4.45-2.53,6.14Zm13.19-11.92c1.69-1.7,3.92-2.54,6.13-2.54s4.44.85,6.13,2.54c1.7,1.69,2.55,3.91,2.55,6.14s-.85,4.44-2.55,6.13c-1.69,1.69-3.91,2.54-6.13,2.54-2.22,0-4.44-.86-6.13-2.54-1.69-1.69-2.54-3.91-2.54-6.13s.85-4.44,2.54-6.14Z"/>
      </g>
      <path class="cls-2" d="m1090.22,228.53c.75,0,1.47.19,2.17.57.69.37,1.24.92,1.63,1.62.4.7.59,1.44.59,2.21s-.19,1.5-.58,2.19c-.39.7-.93,1.24-1.62,1.63-.7.39-1.43.58-2.19.58s-1.5-.2-2.19-.58c-.69-.39-1.24-.93-1.62-1.63-.39-.69-.59-1.42-.59-2.19s.2-1.5.6-2.21c.39-.7.94-1.25,1.63-1.62.69-.38,1.42-.57,2.17-.57Zm0,.86c-.6,0-1.19.15-1.74.46-.55.3-.99.73-1.31,1.3-.32.57-.48,1.16-.48,1.78s.16,1.21.47,1.76c.31.56.75.99,1.3,1.31.56.31,1.14.47,1.76.47s1.2-.15,1.76-.47c.55-.31.99-.75,1.3-1.31.31-.56.47-1.15.47-1.76s-.16-1.21-.48-1.78c-.32-.57-.76-1-1.32-1.3-.55-.3-1.14-.46-1.74-.46Zm-1.99,5.89v-4.67h.95c.89,0,1.38,0,1.49.02.31.03.56.09.73.18.18.1.32.25.44.45.12.2.18.42.18.67,0,.34-.11.62-.33.86-.22.24-.53.39-.93.44.14.05.25.11.33.18.08.06.18.18.31.36.04.05.15.23.34.57l.55.94h-1.17l-.39-.76c-.26-.51-.48-.83-.65-.96-.18-.13-.39-.2-.66-.2h-.24v1.92h-.95Zm.95-2.65h.38c.55,0,.89-.02,1.02-.07.13-.04.23-.11.31-.22.08-.11.11-.23.11-.36s-.03-.24-.11-.35c-.07-.1-.18-.17-.32-.22-.14-.04-.47-.07-1.02-.07h-.38v1.27Z"/>
      <path class="cls-2" d="m1005.05,204.72c.75,0,1.47.19,2.17.57.69.37,1.24.92,1.63,1.62.4.7.59,1.44.59,2.21s-.19,1.5-.58,2.19c-.39.7-.93,1.24-1.62,1.63-.7.39-1.43.58-2.19.58s-1.5-.2-2.19-.58c-.69-.39-1.24-.93-1.62-1.63-.39-.69-.59-1.42-.59-2.19s.2-1.5.6-2.21c.39-.7.94-1.25,1.63-1.62.69-.38,1.42-.57,2.17-.57Zm0,.86c-.6,0-1.19.15-1.74.46-.55.3-.99.73-1.31,1.3-.32.57-.48,1.16-.48,1.78s.16,1.21.47,1.76c.31.56.75.99,1.3,1.31.56.31,1.14.47,1.76.47s1.2-.15,1.76-.47c.55-.31.99-.75,1.3-1.31.31-.56.47-1.15.47-1.76s-.16-1.21-.48-1.78c-.32-.57-.76-1-1.32-1.3-.55-.3-1.14-.46-1.74-.46Zm-1.99,5.89v-4.67h.95c.89,0,1.38,0,1.49.02.31.03.56.09.73.18.18.1.32.25.44.45.12.2.18.42.18.67,0,.34-.11.62-.33.86-.22.24-.53.39-.93.44.14.05.25.11.33.18.08.06.18.18.31.36.04.05.15.23.34.57l.55.94h-1.17l-.39-.76c-.26-.51-.48-.83-.65-.96-.18-.13-.39-.2-.66-.2h-.24v1.92h-.95Zm.95-2.65h.38c.55,0,.89-.02,1.02-.07.13-.04.23-.11.31-.22.08-.11.11-.23.11-.36s-.03-.24-.11-.35c-.07-.1-.18-.17-.32-.22-.14-.04-.47-.07-1.02-.07h-.38v1.27Z"/>
    </g>
    <polygon class="cls-4" points="989.44 61.78 774.04 277.18 815.39 277.18 1010.11 82.45 989.44 61.78"/>
  </g>
</svg>