<svg width="50" height="297" viewBox="0 0 50 297" fill="none" xmlns="http://www.w3.org/2000/svg">
<rect width="50" height="48.8599" fill="#D9D9D9"/>
<rect y="100.651" width="50" height="48.8599" fill="#D9D9D9"/>
<rect y="201.303" width="50" height="48.8599" fill="#D9D9D9"/>
<path d="M25 52.7656L30.6129 69.3142H48.7764L34.0818 79.5418L39.6946 96.0905L25 85.8629L10.3054 96.0905L15.9182 79.5418L1.22359 69.3142H19.3871L25 52.7656Z" fill="#FF0000"/>
<path d="M25 3.90869L30.6129 20.4573H48.7764L34.0818 30.6849L39.6946 47.2335L25 37.0059L10.3054 47.2335L15.9182 30.6849L1.22359 20.4573H19.3871L25 3.90869Z" fill="#FF8A00"/>
<path d="M25 248.192L30.6129 264.741H48.7764L34.0818 274.969L39.6946 291.517L25 281.29L10.3054 291.517L15.9182 274.969L1.22359 264.741H19.3871L25 248.192Z" fill="black"/>
<path d="M25 101.623L30.6129 118.171H48.7764L34.0818 128.399L39.6946 144.947L25 134.72L10.3054 144.947L15.9182 128.399L1.22359 118.171H19.3871L25 101.623Z" fill="#1400FF"/>
<path d="M25 150.479L30.6129 167.028H48.7764L34.0818 177.255L39.6946 193.804L25 183.576L10.3054 193.804L15.9182 177.255L1.22359 167.028H19.3871L25 150.479Z" fill="#14FF00"/>
<path d="M25 199.335L30.6129 215.884H48.7764L34.0818 226.112L39.6946 242.66L25 232.433L10.3054 242.66L15.9182 226.112L1.22359 215.884H19.3871L25 199.335Z" fill="#EB00FF"/>
</svg>
