<?xml version="1.0" encoding="UTF-8"?>
<svg id="Layer_2" data-name="Layer 2" xmlns="http://www.w3.org/2000/svg" xmlns:xlink="http://www.w3.org/1999/xlink" viewBox="0 0 374.39 157.06">
  <defs>
    <style>
      .cls-1, .cls-2 {
        fill: none;
      }

      .cls-3 {
        fill: #0078ae;
      }

      .cls-4 {
        fill: #fff;
      }

      .cls-5 {
        fill: #e31937;
      }

      .cls-6 {
        fill: #38648e;
      }

      .cls-2 {
        clip-path: url(#clippath);
      }
    </style>
    <clipPath id="clippath">
      <rect class="cls-1" x="108.67" y="-108.67" width="157.06" height="374.39" transform="translate(265.73 -108.67) rotate(90)"/>
    </clipPath>
  </defs>
  <g id="Layer_1-2" data-name="Layer 1">
    <g>
      <g>
        <g>
          <path class="cls-1" d="m330.11,130.9c-1.04,0-2.08.4-2.87,1.19-.79.79-1.19,1.83-1.19,2.87s.39,2.08,1.19,2.87c.79.79,1.83,1.18,2.87,1.18s2.08-.4,2.87-1.18c.79-.79,1.19-1.83,1.19-2.87,0-1.04-.39-2.08-1.19-2.87-.79-.79-1.83-1.19-2.87-1.19Z"/>
          <path class="cls-1" d="m342.03,139.18c1.04,0,2.08-.4,2.87-1.19.8-.79,1.19-1.83,1.19-2.87s-.4-2.08-1.19-2.87c-.79-.79-1.83-1.19-2.87-1.19s-2.08.4-2.87,1.19c-.79.79-1.19,1.83-1.19,2.87s.4,2.08,1.19,2.87c.79.79,1.83,1.19,2.87,1.19Z"/>
          <path class="cls-1" d="m354.61,102.48c-.34-.34-.78-.51-1.22-.51s-.89.17-1.22.51l-11.75,11.75-3.42,3.42,16.46,16.46,1.4-1.4,13.78-13.78c.68-.68.68-1.77,0-2.45l-14.01-14.01Z"/>
          <path class="cls-4" d="m369.61,115.5l-14.01-14.01c-.59-.59-1.38-.92-2.21-.92s-1.62.33-2.21.92l-11.75,11.75-19.56,19.56c-1.22,1.22-1.22,3.21,0,4.43l14.01,14.01c.59.59,1.38.92,2.21.92s1.62-.33,2.21-.92l17.53-17.53,13.78-13.78c1.22-1.22,1.22-3.21,0-4.43Z"/>
          <path class="cls-5" d="m368.62,116.5l-14.01-14.01c-.68-.68-1.77-.68-2.45,0l-15.15,15.15,16.46,16.46,15.15-15.15c.68-.68.68-1.77,0-2.45Zm-12.32,4.05c-.79.79-1.83,1.19-2.87,1.19s-2.08-.4-2.87-1.19c-.79-.79-1.19-1.83-1.19-2.87s.4-2.08,1.19-2.87c.79-.79,1.83-1.19,2.87-1.19s2.08.39,2.87,1.19c.79.79,1.19,1.83,1.19,2.87s-.4,2.08-1.19,2.87Z"/>
          <path class="cls-3" d="m320.85,133.79c-.68.68-.68,1.77,0,2.45l14.01,14.01c.34.34.78.51,1.22.51s.89-.17,1.22-.51l15.14-15.14-16.46-16.46-15.14,15.14Zm12.13,4.04c-.79.79-1.83,1.18-2.87,1.18s-2.08-.4-2.87-1.18c-.79-.79-1.19-1.83-1.19-2.87s.4-2.08,1.19-2.87c.79-.79,1.83-1.19,2.87-1.19,1.04,0,2.08.4,2.87,1.19.79.79,1.19,1.83,1.19,2.87,0,1.04-.39,2.08-1.19,2.87Zm6.17-5.58c.79-.79,1.83-1.19,2.87-1.19s2.08.4,2.87,1.19c.8.79,1.19,1.83,1.19,2.87s-.4,2.08-1.19,2.87c-.79.79-1.83,1.19-2.87,1.19-1.04,0-2.08-.4-2.87-1.19-.79-.79-1.19-1.83-1.19-2.87s.4-2.08,1.19-2.87Z"/>
        </g>
        <path class="cls-6" d="m342.18,148.65c.56,0,1.05.44,1.05,1.04s-.48,1.04-1.05,1.04-1.05-.44-1.05-1.04.48-1.04,1.05-1.04Zm0,.17c-.48,0-.85.37-.85.87s.37.87.85.87.85-.37.85-.87-.37-.87-.85-.87Zm-.22,1.47h-.18v-1.2h.46c.28,0,.43.11.43.34,0,.22-.13.31-.31.33l.34.53h-.2l-.32-.52h-.21v.52Zm0-.67h.22c.22,0,.3-.06.3-.2,0-.11-.06-.18-.27-.18h-.25v.38Z"/>
        <path class="cls-1" d="m330.11,130.9c-1.04,0-2.08.4-2.87,1.19-.79.79-1.19,1.83-1.19,2.87s.39,2.08,1.19,2.87c.79.79,1.83,1.18,2.87,1.18s2.08-.4,2.87-1.18c.79-.79,1.19-1.83,1.19-2.87,0-1.04-.39-2.08-1.19-2.87-.79-.79-1.84-1.19-2.87-1.19Z"/>
        <path class="cls-1" d="m342.02,139.18c1.04,0,2.08-.4,2.87-1.19.79-.79,1.19-1.83,1.19-2.87s-.4-2.08-1.19-2.87c-.79-.79-1.83-1.19-2.87-1.19s-2.08.4-2.87,1.19c-.79.79-1.19,1.83-1.19,2.87s.4,2.08,1.19,2.87c.79.79,1.83,1.19,2.87,1.19Z"/>
        <path class="cls-1" d="m354.61,102.48c-.34-.34-.78-.51-1.22-.51s-.89.17-1.22.51l-11.75,11.75-3.42,3.42,16.46,16.46,1.4-1.4,13.78-13.78c.68-.68.68-1.77,0-2.45l-14.01-14.01Z"/>
      </g>
      <g class="cls-2">
        <rect class="cls-3" x="-42.41" y="-105.47" width="381.74" height="300.52" transform="translate(11.81 118.1) rotate(-45)"/>
        <rect class="cls-5" x="315.83" y="25.11" width="14.42" height="166.77" transform="translate(171.33 -196.65) rotate(45)"/>
      </g>
    </g>
  </g>
</svg>