<svg width="1422" height="360" viewBox="0 0 1422 360" fill="none" xmlns="http://www.w3.org/2000/svg">
<path d="M1204.6 0H0V359.844H939.979L1252.2 47.6008L1204.6 0Z" fill="#0078AE"/>
<path d="M48.0236 143.296V166.025L77.4247 154.661L48.0236 143.296Z" fill="white"/>
<path d="M1224.44 289.774H1210.99C1210.55 289.774 1210.19 290.138 1210.19 290.579V320.867C1210.19 321.309 1210.55 321.673 1210.99 321.673H1224.48C1235.08 321.673 1241.94 315.412 1241.94 305.697C1241.94 295.982 1235.07 289.774 1224.44 289.774ZM1224.44 313.256H1219.85V298.19H1224.48C1229.28 298.19 1232.13 300.996 1232.13 305.697C1232.13 309.451 1229.48 313.256 1224.43 313.256" fill="#0078AE"/>
<path d="M1303.77 297.996C1300.05 297.996 1297.04 300.035 1295.69 302.061C1294.7 299.359 1292.47 297.996 1289.04 297.996C1285.25 297.996 1282.39 299.905 1281.39 301.191V299.372C1281.39 298.931 1281.03 298.567 1280.58 298.567H1273.59C1273.14 298.567 1272.78 298.931 1272.78 299.372V320.854C1272.78 321.296 1273.14 321.66 1273.59 321.66H1280.58C1281.03 321.66 1281.39 321.296 1281.39 320.854V307.412C1281.9 306.814 1282.95 305.594 1284.88 305.594C1286.58 305.594 1287.52 306.516 1287.52 308.178V320.854C1287.52 321.296 1287.88 321.66 1288.32 321.66H1295.32C1295.77 321.66 1296.13 321.296 1296.13 320.854V307.412C1296.64 306.827 1297.69 305.594 1299.66 305.594C1301.34 305.594 1302.3 306.542 1302.3 308.178V320.854C1302.3 321.296 1302.66 321.66 1303.1 321.66H1310.1C1310.54 321.66 1310.91 321.296 1310.91 320.854V304.918C1310.91 300.45 1308.38 297.983 1303.78 297.983" fill="#0078AE"/>
<path d="M1323.3 298.567H1316.3C1315.86 298.567 1315.49 298.931 1315.49 299.372V320.854C1315.49 321.296 1315.86 321.659 1316.3 321.659H1323.3C1323.74 321.659 1324.1 321.296 1324.1 320.854V299.372C1324.1 298.931 1323.74 298.567 1323.3 298.567Z" fill="#0078AE"/>
<path d="M1320.01 287.241C1317.35 287.241 1315.18 289.41 1315.18 292.06C1315.18 294.71 1317.35 296.891 1320.01 296.891C1322.67 296.891 1324.84 294.736 1324.84 292.06C1324.84 289.384 1322.67 287.241 1320.01 287.241Z" fill="#0078AE"/>
<path d="M1345.37 297.996C1340.92 297.996 1338.49 299.996 1337.44 301.191V299.372C1337.44 298.931 1337.08 298.567 1336.63 298.567H1329.63C1329.19 298.567 1328.83 298.931 1328.83 299.372V320.854C1328.83 321.296 1329.19 321.66 1329.63 321.66H1336.63C1337.08 321.66 1337.44 321.296 1337.44 320.854V307.412C1338 306.776 1339.04 305.594 1341.11 305.594C1343.33 305.594 1344.46 306.711 1344.46 308.893V320.854C1344.46 321.296 1344.83 321.66 1345.27 321.66H1352.27C1352.71 321.66 1353.07 321.296 1353.07 320.854V305.256C1353.07 300.71 1350.2 297.983 1345.37 297.983" fill="#0078AE"/>
<path d="M1256.92 297.892C1250.2 297.892 1244.73 303.347 1244.73 310.074C1244.73 316.802 1250.18 322.27 1256.92 322.27C1263.66 322.27 1269.12 316.815 1269.12 310.074C1269.12 303.334 1263.66 297.892 1256.92 297.892ZM1256.92 314.075C1254.63 314.075 1252.77 312.217 1252.77 309.905C1252.77 307.594 1254.63 305.749 1256.92 305.749C1259.22 305.749 1261.08 307.607 1261.08 309.905C1261.08 312.204 1259.22 314.075 1256.92 314.075Z" fill="#0078AE"/>
<path d="M1368.92 297.93C1362.19 297.93 1356.72 303.385 1356.72 310.126C1356.72 316.867 1362.18 322.322 1368.92 322.322C1375.66 322.322 1381.11 316.867 1381.11 310.126C1381.11 303.385 1375.66 297.93 1368.92 297.93ZM1368.92 314.113C1366.62 314.113 1364.76 312.243 1364.76 309.944C1364.76 307.645 1366.62 305.788 1368.92 305.788C1371.22 305.788 1373.07 307.645 1373.07 309.944C1373.07 312.243 1371.22 314.113 1368.92 314.113Z" fill="#0078AE"/>
<path d="M1388.93 291.151C1388.93 291.151 1388.93 291.125 1388.93 291.099C1388.93 291.099 1388.93 291.073 1388.92 291.06V291.034C1388.37 288.644 1385.76 286.891 1383.19 287.423C1380.59 287.969 1378.88 290.385 1379.38 292.826C1379.8 294.84 1381.61 296.164 1383.67 296.294C1383.57 297.138 1382.83 297.918 1382.2 298.268C1381.8 298.502 1382.05 298.931 1382.05 298.931L1382.58 299.723C1382.74 299.996 1382.97 300.126 1383.25 300.009C1388.55 297.827 1389.48 293.333 1388.94 291.138L1388.93 291.151Z" fill="#0078AE"/>
<path d="M1396.23 305.438C1396.2 304.581 1397.33 304.191 1398.72 304.191C1401.51 304.191 1403.1 304.983 1404.86 306.152C1405.06 306.282 1405.28 306.321 1405.5 306.269C1405.71 306.217 1405.9 306.074 1406.01 305.879L1408.37 301.775C1408.59 301.398 1408.46 300.918 1408.08 300.697C1406.14 299.541 1403.29 298.048 1398.36 298.048C1391.24 298.048 1387.42 301.399 1388.06 306.217C1389.18 314.685 1402.34 311.789 1402.15 314.672C1402.11 315.348 1400.94 315.841 1398.92 315.841C1396.31 315.841 1393.35 314.529 1391.48 313.386C1391.29 313.269 1391.07 313.243 1390.86 313.295C1390.66 313.347 1390.48 313.49 1390.36 313.672L1387.63 318.218C1387.42 318.595 1387.53 319.049 1387.88 319.283C1390.5 321.049 1394.73 322.244 1398.4 322.244C1405.53 322.244 1409.63 319.179 1409.63 314.14C1409.63 304.853 1396.27 307.737 1396.22 305.438" fill="#0078AE"/>
<path d="M1377.87 172.908L1338.96 133.997C1337.32 132.36 1335.13 131.451 1332.82 131.451C1330.5 131.451 1328.31 132.36 1326.67 133.997L1294.05 166.635L1239.76 220.938C1236.37 224.328 1236.37 229.848 1239.76 233.238L1278.65 272.136C1280.29 273.773 1282.47 274.682 1284.79 274.682C1287.12 274.682 1289.3 273.773 1290.93 272.136L1339.59 223.458L1377.85 185.195C1381.24 181.805 1381.24 176.285 1377.85 172.895L1377.87 172.908Z" fill="white"/>
<path d="M1375.11 175.662L1336.21 136.763C1334.34 134.88 1331.3 134.88 1329.41 136.763L1287.35 178.818L1333.04 224.51L1375.1 182.442C1376.97 180.571 1376.97 177.532 1375.1 175.649L1375.11 175.662ZM1340.89 186.909C1338.7 189.104 1335.8 190.208 1332.92 190.208C1330.04 190.208 1327.15 189.117 1324.96 186.909C1322.76 184.715 1321.65 181.818 1321.65 178.935C1321.65 176.052 1322.75 173.155 1324.96 170.973C1327.15 168.778 1330.04 167.674 1332.93 167.674C1335.83 167.674 1338.7 168.778 1340.89 170.973C1343.09 173.168 1344.21 176.065 1344.21 178.935C1344.21 181.805 1343.09 184.702 1340.89 186.909Z" fill="#E31937"/>
<path d="M1242.51 223.678C1240.64 225.549 1240.64 228.588 1242.51 230.471L1281.4 269.37C1282.34 270.305 1283.57 270.773 1284.81 270.773C1286.04 270.773 1287.26 270.305 1288.19 269.37L1330.23 227.328L1284.55 181.636L1242.51 223.678ZM1276.2 234.887C1273.99 237.069 1271.1 238.173 1268.22 238.173C1265.34 238.173 1262.46 237.069 1260.25 234.887C1258.05 232.692 1256.95 229.809 1256.95 226.925C1256.95 224.042 1258.05 221.159 1260.25 218.951C1262.44 216.756 1265.34 215.652 1268.22 215.652C1271.1 215.652 1273.99 216.756 1276.2 218.951C1278.39 221.159 1279.49 224.042 1279.48 226.925C1279.48 229.809 1278.39 232.705 1276.2 234.9V234.887ZM1293.32 219.405C1295.52 217.198 1298.42 216.107 1301.29 216.107C1304.16 216.107 1307.05 217.21 1309.25 219.405C1311.45 221.6 1312.56 224.484 1312.56 227.38C1312.56 230.276 1311.45 233.147 1309.25 235.342C1307.05 237.537 1304.17 238.641 1301.29 238.641C1298.4 238.641 1295.52 237.524 1293.32 235.342C1291.13 233.147 1290.03 230.263 1290.03 227.38C1290.03 224.497 1291.13 221.613 1293.32 219.405Z" fill="#0078AE"/>
<path d="M1415.8 296.813C1416.77 296.813 1417.71 297.06 1418.62 297.554C1419.51 298.034 1420.23 298.749 1420.73 299.658C1421.25 300.567 1421.5 301.528 1421.5 302.528C1421.5 303.528 1421.25 304.476 1420.75 305.373C1420.24 306.282 1419.54 306.983 1418.64 307.49C1417.73 307.996 1416.79 308.243 1415.8 308.243C1414.81 308.243 1413.85 307.983 1412.95 307.49C1412.06 306.983 1411.34 306.282 1410.85 305.373C1410.34 304.476 1410.08 303.528 1410.08 302.528C1410.08 301.528 1410.34 300.58 1410.86 299.658C1411.37 298.749 1412.08 298.034 1412.98 297.554C1413.88 297.06 1414.82 296.813 1415.8 296.813ZM1415.8 297.931C1415.02 297.931 1414.25 298.125 1413.54 298.528C1412.82 298.918 1412.25 299.476 1411.84 300.216C1411.42 300.957 1411.21 301.723 1411.21 302.528C1411.21 303.333 1411.42 304.1 1411.82 304.814C1412.23 305.541 1412.8 306.1 1413.51 306.516C1414.24 306.918 1414.99 307.126 1415.8 307.126C1416.6 307.126 1417.36 306.931 1418.08 306.516C1418.8 306.113 1419.37 305.541 1419.77 304.814C1420.18 304.087 1420.38 303.32 1420.38 302.528C1420.38 301.736 1420.18 300.957 1419.76 300.216C1419.34 299.476 1418.77 298.918 1418.05 298.528C1417.33 298.138 1416.56 297.931 1415.79 297.931H1415.8ZM1413.21 305.58V299.515H1414.45C1415.6 299.515 1416.24 299.515 1416.38 299.541C1416.79 299.58 1417.11 299.658 1417.33 299.775C1417.56 299.905 1417.75 300.099 1417.9 300.359C1418.06 300.619 1418.14 300.905 1418.14 301.229C1418.14 301.671 1417.99 302.035 1417.71 302.346C1417.42 302.658 1417.02 302.853 1416.5 302.918C1416.68 302.983 1416.82 303.061 1416.93 303.152C1417.03 303.23 1417.16 303.385 1417.33 303.619C1417.38 303.684 1417.53 303.918 1417.77 304.359L1418.49 305.58H1416.97L1416.46 304.593C1416.12 303.931 1415.84 303.515 1415.62 303.346C1415.38 303.178 1415.11 303.087 1414.76 303.087H1414.45V305.58H1413.21ZM1414.45 302.139H1414.94C1415.66 302.139 1416.1 302.113 1416.27 302.048C1416.44 301.996 1416.56 301.905 1416.67 301.762C1416.77 301.619 1416.81 301.463 1416.81 301.294C1416.81 301.125 1416.77 300.983 1416.67 300.84C1416.58 300.71 1416.44 300.619 1416.25 300.554C1416.07 300.502 1415.64 300.463 1414.93 300.463H1414.44V302.113L1414.45 302.139Z" fill="#0078AE"/>
<path d="M1305.19 265.902C1306.17 265.902 1307.1 266.149 1308.01 266.643C1308.91 267.123 1309.62 267.838 1310.13 268.747C1310.65 269.656 1310.9 270.617 1310.9 271.617C1310.9 272.617 1310.65 273.565 1310.14 274.461C1309.64 275.371 1308.93 276.072 1308.04 276.578C1307.13 277.085 1306.18 277.332 1305.19 277.332C1304.21 277.332 1303.25 277.072 1302.35 276.578C1301.45 276.072 1300.74 275.371 1300.25 274.461C1299.74 273.565 1299.48 272.617 1299.48 271.617C1299.48 270.617 1299.74 269.669 1300.26 268.747C1300.77 267.838 1301.48 267.123 1302.38 266.643C1303.27 266.149 1304.22 265.902 1305.19 265.902ZM1305.19 267.019C1304.41 267.019 1303.65 267.214 1302.93 267.617C1302.22 268.006 1301.65 268.565 1301.23 269.305C1300.82 270.045 1300.61 270.812 1300.61 271.617C1300.61 272.422 1300.82 273.189 1301.22 273.903C1301.62 274.63 1302.19 275.189 1302.91 275.604C1303.64 276.007 1304.39 276.215 1305.19 276.215C1306 276.215 1306.75 276.02 1307.48 275.604C1308.19 275.202 1308.77 274.63 1309.17 273.903C1309.57 273.176 1309.78 272.409 1309.78 271.617C1309.78 270.825 1309.57 270.045 1309.15 269.305C1308.74 268.565 1308.17 268.006 1307.44 267.617C1306.73 267.227 1305.96 267.019 1305.18 267.019H1305.19ZM1302.61 274.669V268.604H1303.84C1305 268.604 1305.64 268.604 1305.78 268.63C1306.18 268.669 1306.51 268.747 1306.73 268.864C1306.96 268.994 1307.14 269.188 1307.3 269.448C1307.45 269.708 1307.53 269.994 1307.53 270.318C1307.53 270.76 1307.39 271.124 1307.1 271.435C1306.82 271.747 1306.41 271.942 1305.9 272.007C1306.08 272.072 1306.22 272.15 1306.32 272.24C1306.43 272.318 1306.56 272.474 1306.73 272.708C1306.78 272.773 1306.92 273.007 1307.17 273.448L1307.88 274.669H1306.36L1305.86 273.682C1305.52 273.02 1305.23 272.604 1305.01 272.435C1304.78 272.266 1304.51 272.176 1304.16 272.176H1303.84V274.669H1302.61ZM1303.84 271.227H1304.34C1305.05 271.227 1305.49 271.201 1305.66 271.137C1305.83 271.085 1305.96 270.994 1306.06 270.851C1306.17 270.708 1306.21 270.552 1306.21 270.383C1306.21 270.214 1306.17 270.072 1306.06 269.929C1305.97 269.799 1305.83 269.708 1305.65 269.643C1305.47 269.591 1305.04 269.552 1304.32 269.552H1303.83V271.201L1303.84 271.227Z" fill="#0078AE"/>
<path d="M1284.92 80.2395L1005.2 360H1058.89L1311.78 107.099L1284.92 80.2395Z" fill="#E31937"/>
</svg>
