<svg width="1355" height="300" viewBox="0 0 1355 300" fill="none" xmlns="http://www.w3.org/2000/svg">
<path d="M1148.25 0H0V299.87H896.005L1193.62 39.6674L1148.25 0Z" fill="#0078AE"/>
<path d="M45.777 119.414V138.354L73.8027 128.884L45.777 119.414Z" fill="white"/>
<path d="M1167.16 241.479H1154.34C1153.92 241.479 1153.57 241.782 1153.57 242.15V267.389C1153.57 267.757 1153.92 268.061 1154.34 268.061H1167.2C1177.3 268.061 1183.84 262.844 1183.84 254.748C1183.84 246.652 1177.29 241.479 1167.16 241.479ZM1167.16 261.047H1162.78V248.492H1167.2C1171.77 248.492 1174.49 250.83 1174.49 254.748C1174.49 257.876 1171.97 261.047 1167.15 261.047" fill="#0078AE"/>
<path d="M1242.77 248.33C1239.23 248.33 1236.36 250.029 1235.07 251.717C1234.13 249.466 1232 248.33 1228.74 248.33C1225.12 248.33 1222.4 249.921 1221.44 250.992V249.477C1221.44 249.109 1221.1 248.806 1220.68 248.806H1214.01C1213.58 248.806 1213.24 249.109 1213.24 249.477V267.379C1213.24 267.747 1213.58 268.05 1214.01 268.05H1220.68C1221.1 268.05 1221.44 267.747 1221.44 267.379V256.177C1221.93 255.679 1222.93 254.661 1224.77 254.661C1226.4 254.661 1227.29 255.43 1227.29 256.815V267.379C1227.29 267.747 1227.63 268.05 1228.06 268.05H1234.73C1235.15 268.05 1235.49 267.747 1235.49 267.379V256.177C1235.98 255.69 1236.98 254.661 1238.86 254.661C1240.46 254.661 1241.37 255.451 1241.37 256.815V267.379C1241.37 267.747 1241.72 268.05 1242.14 268.05H1248.81C1249.24 268.05 1249.58 267.747 1249.58 267.379V254.099C1249.58 250.375 1247.17 248.319 1242.79 248.319" fill="#0078AE"/>
<path d="M1261.39 248.806H1254.72C1254.3 248.806 1253.95 249.109 1253.95 249.477V267.379C1253.95 267.747 1254.3 268.05 1254.72 268.05H1261.39C1261.81 268.05 1262.16 267.747 1262.16 267.379V249.477C1262.16 249.109 1261.81 248.806 1261.39 248.806Z" fill="#0078AE"/>
<path d="M1258.26 239.368C1255.72 239.368 1253.65 241.176 1253.65 243.384C1253.65 245.592 1255.72 247.41 1258.26 247.41C1260.8 247.41 1262.86 245.613 1262.86 243.384C1262.86 241.154 1260.8 239.368 1258.26 239.368Z" fill="#0078AE"/>
<path d="M1282.44 248.33C1278.19 248.33 1275.87 249.996 1274.87 250.992V249.477C1274.87 249.109 1274.53 248.806 1274.1 248.806H1267.43C1267.01 248.806 1266.66 249.109 1266.66 249.477V267.379C1266.66 267.747 1267.01 268.05 1267.43 268.05H1274.1C1274.53 268.05 1274.87 267.747 1274.87 267.379V256.177C1275.4 255.646 1276.39 254.661 1278.38 254.661C1280.49 254.661 1281.57 255.592 1281.57 257.41V267.379C1281.57 267.747 1281.92 268.05 1282.34 268.05H1289.01C1289.43 268.05 1289.78 267.747 1289.78 267.379V254.38C1289.78 250.592 1287.04 248.319 1282.44 248.319" fill="#0078AE"/>
<path d="M1198.12 248.243C1191.71 248.243 1186.5 252.789 1186.5 258.395C1186.5 264.002 1191.7 268.559 1198.12 268.559C1204.55 268.559 1209.75 264.013 1209.75 258.395C1209.75 252.778 1204.55 248.243 1198.12 248.243ZM1198.12 261.729C1195.93 261.729 1194.16 260.181 1194.16 258.255C1194.16 256.328 1195.93 254.791 1198.12 254.791C1200.31 254.791 1202.08 256.339 1202.08 258.255C1202.08 260.17 1200.31 261.729 1198.12 261.729Z" fill="#0078AE"/>
<path d="M1304.88 248.275C1298.47 248.275 1293.25 252.821 1293.25 258.438C1293.25 264.056 1298.45 268.601 1304.88 268.601C1311.3 268.601 1316.5 264.056 1316.5 258.438C1316.5 252.821 1311.3 248.275 1304.88 248.275ZM1304.88 261.761C1302.69 261.761 1300.92 260.203 1300.92 258.287C1300.92 256.371 1302.69 254.823 1304.88 254.823C1307.07 254.823 1308.84 256.371 1308.84 258.287C1308.84 260.203 1307.07 261.761 1304.88 261.761Z" fill="#0078AE"/>
<path d="M1323.95 242.626C1323.95 242.626 1323.95 242.604 1323.95 242.583C1323.95 242.583 1323.95 242.561 1323.94 242.55V242.529C1323.42 240.537 1320.93 239.076 1318.48 239.52C1316.01 239.974 1314.37 241.987 1314.86 244.022C1315.25 245.7 1316.97 246.804 1318.94 246.912C1318.84 247.616 1318.14 248.265 1317.54 248.557C1317.16 248.752 1317.39 249.109 1317.39 249.109L1317.9 249.769C1318.05 249.997 1318.27 250.105 1318.54 250.008C1323.59 248.189 1324.47 244.444 1323.97 242.615L1323.95 242.626Z" fill="#0078AE"/>
<path d="M1330.91 254.532C1330.89 253.817 1331.96 253.492 1333.29 253.492C1335.95 253.492 1337.46 254.153 1339.14 255.127C1339.33 255.235 1339.54 255.268 1339.75 255.224C1339.95 255.181 1340.13 255.062 1340.23 254.9L1342.49 251.479C1342.7 251.165 1342.57 250.765 1342.21 250.581C1340.36 249.618 1337.65 248.373 1332.94 248.373C1326.16 248.373 1322.52 251.165 1323.12 255.181C1324.19 262.238 1336.74 259.824 1336.56 262.227C1336.52 262.79 1335.4 263.201 1333.47 263.201C1330.99 263.201 1328.16 262.108 1326.38 261.155C1326.21 261.058 1326 261.036 1325.8 261.08C1325.6 261.123 1325.43 261.242 1325.32 261.393L1322.72 265.182C1322.52 265.496 1322.62 265.874 1322.95 266.069C1325.45 267.541 1329.49 268.537 1332.98 268.537C1339.77 268.537 1343.69 265.983 1343.69 261.783C1343.69 254.044 1330.95 256.447 1330.9 254.532" fill="#0078AE"/>
<path d="M1313.41 144.09L1276.32 111.664C1274.76 110.3 1272.67 109.542 1270.47 109.542C1268.26 109.542 1266.17 110.3 1264.61 111.664L1233.51 138.863L1181.76 184.115C1178.53 186.94 1178.53 191.54 1181.76 194.365L1218.83 226.78C1220.39 228.144 1222.47 228.902 1224.69 228.902C1226.9 228.902 1228.98 228.144 1230.54 226.78L1276.93 186.215L1313.39 154.329C1316.63 151.504 1316.63 146.904 1313.39 144.08L1313.41 144.09Z" fill="white"/>
<path d="M1310.78 146.385L1273.7 113.97C1271.91 112.4 1269.02 112.4 1267.22 113.97L1227.13 149.015L1270.68 187.092L1310.77 152.035C1312.55 150.476 1312.55 147.944 1310.77 146.374L1310.78 146.385ZM1278.16 155.758C1276.07 157.587 1273.31 158.507 1270.56 158.507C1267.82 158.507 1265.07 157.598 1262.98 155.758C1260.88 153.929 1259.82 151.516 1259.82 149.113C1259.82 146.71 1260.87 144.296 1262.98 142.478C1265.07 140.649 1267.82 139.729 1270.58 139.729C1273.34 139.729 1276.07 140.649 1278.16 142.478C1280.26 144.307 1281.32 146.721 1281.32 149.113C1281.32 151.505 1280.26 153.918 1278.16 155.758Z" fill="#E31937"/>
<path d="M1184.38 186.399C1182.6 187.957 1182.6 190.49 1184.38 192.059L1221.46 224.475C1222.35 225.254 1223.52 225.644 1224.7 225.644C1225.88 225.644 1227.04 225.254 1227.93 224.475L1268 189.44L1224.45 151.364L1184.38 186.399ZM1216.49 195.739C1214.39 197.558 1211.64 198.478 1208.89 198.478C1206.14 198.478 1203.4 197.558 1201.29 195.739C1199.2 193.91 1198.15 191.507 1198.15 189.105C1198.15 186.702 1199.2 184.299 1201.29 182.459C1203.38 180.63 1206.14 179.71 1208.89 179.71C1211.64 179.71 1214.39 180.63 1216.49 182.459C1218.59 184.299 1219.64 186.702 1219.63 189.105C1219.63 191.507 1218.59 193.921 1216.49 195.75V195.739ZM1232.82 182.838C1234.91 180.998 1237.67 180.089 1240.41 180.089C1243.15 180.089 1245.91 181.009 1248 182.838C1250.1 184.667 1251.15 187.07 1251.15 189.483C1251.15 191.897 1250.1 194.289 1248 196.118C1245.91 197.947 1243.16 198.867 1240.41 198.867C1237.66 198.867 1234.91 197.936 1232.82 196.118C1230.73 194.289 1229.68 191.886 1229.68 189.483C1229.68 187.081 1230.73 184.678 1232.82 182.838Z" fill="#0078AE"/>
<path d="M1349.57 247.345C1350.49 247.345 1351.39 247.55 1352.25 247.962C1353.11 248.362 1353.79 248.957 1354.27 249.715C1354.76 250.473 1355 251.274 1355 252.107C1355 252.94 1354.76 253.73 1354.28 254.477C1353.8 255.235 1353.13 255.819 1352.28 256.242C1351.41 256.664 1350.51 256.869 1349.57 256.869C1348.63 256.869 1347.71 256.653 1346.85 256.242C1346 255.819 1345.32 255.235 1344.85 254.477C1344.37 253.73 1344.12 252.94 1344.12 252.107C1344.12 251.274 1344.37 250.483 1344.86 249.715C1345.34 248.957 1346.03 248.362 1346.88 247.962C1347.73 247.55 1348.64 247.345 1349.57 247.345ZM1349.57 248.276C1348.82 248.276 1348.09 248.438 1347.41 248.773C1346.73 249.098 1346.19 249.563 1345.79 250.18C1345.39 250.797 1345.2 251.436 1345.2 252.107C1345.2 252.778 1345.39 253.417 1345.78 254.012C1346.16 254.618 1346.71 255.083 1347.39 255.43C1348.08 255.765 1348.8 255.938 1349.57 255.938C1350.33 255.938 1351.05 255.776 1351.74 255.43C1352.43 255.094 1352.97 254.618 1353.35 254.012C1353.74 253.406 1353.94 252.767 1353.94 252.107C1353.94 251.447 1353.74 250.797 1353.34 250.18C1352.95 249.563 1352.4 249.098 1351.71 248.773C1351.03 248.449 1350.3 248.276 1349.55 248.276H1349.57ZM1347.1 254.65V249.596H1348.28C1349.38 249.596 1349.99 249.596 1350.12 249.618C1350.51 249.65 1350.82 249.715 1351.03 249.812C1351.25 249.921 1351.42 250.083 1351.57 250.3C1351.72 250.516 1351.79 250.754 1351.79 251.025C1351.79 251.393 1351.66 251.696 1351.39 251.955C1351.11 252.215 1350.73 252.378 1350.23 252.432C1350.41 252.486 1350.54 252.551 1350.64 252.626C1350.74 252.691 1350.87 252.821 1351.03 253.016C1351.08 253.07 1351.21 253.265 1351.45 253.633L1352.13 254.65H1350.68L1350.2 253.828C1349.88 253.276 1349.6 252.93 1349.39 252.789C1349.17 252.648 1348.91 252.572 1348.58 252.572H1348.28V254.65H1347.1ZM1348.28 251.782H1348.75C1349.43 251.782 1349.85 251.761 1350.01 251.707C1350.17 251.663 1350.3 251.587 1350.4 251.468C1350.49 251.349 1350.53 251.219 1350.53 251.079C1350.53 250.938 1350.49 250.819 1350.4 250.7C1350.31 250.592 1350.17 250.516 1350 250.462C1349.83 250.419 1349.42 250.386 1348.74 250.386H1348.27V251.761L1348.28 251.782Z" fill="#0078AE"/>
<path d="M1244.14 221.585C1245.06 221.585 1245.95 221.791 1246.82 222.202C1247.68 222.603 1248.36 223.198 1248.84 223.956C1249.33 224.713 1249.57 225.514 1249.57 226.348C1249.57 227.181 1249.33 227.971 1248.85 228.718C1248.37 229.476 1247.7 230.06 1246.85 230.482C1245.98 230.904 1245.08 231.11 1244.14 231.11C1243.19 231.11 1242.28 230.894 1241.42 230.482C1240.57 230.06 1239.89 229.476 1239.42 228.718C1238.94 227.971 1238.69 227.181 1238.69 226.348C1238.69 225.514 1238.94 224.724 1239.43 223.956C1239.91 223.198 1240.59 222.603 1241.45 222.202C1242.3 221.791 1243.21 221.585 1244.14 221.585ZM1244.14 222.516C1243.39 222.516 1242.66 222.679 1241.98 223.014C1241.3 223.339 1240.76 223.804 1240.36 224.421C1239.96 225.038 1239.77 225.677 1239.77 226.348C1239.77 227.019 1239.96 227.657 1240.35 228.253C1240.73 228.859 1241.28 229.324 1241.96 229.67C1242.65 230.006 1243.37 230.179 1244.14 230.179C1244.9 230.179 1245.62 230.017 1246.31 229.67C1246.99 229.335 1247.54 228.859 1247.92 228.253C1248.31 227.647 1248.51 227.008 1248.51 226.348C1248.51 225.688 1248.31 225.038 1247.91 224.421C1247.51 223.804 1246.97 223.339 1246.28 223.014C1245.6 222.689 1244.87 222.516 1244.12 222.516H1244.14ZM1241.67 228.891V223.837H1242.85C1243.95 223.837 1244.56 223.837 1244.69 223.858C1245.08 223.891 1245.39 223.956 1245.6 224.053C1245.82 224.161 1245.99 224.324 1246.14 224.54C1246.29 224.757 1246.36 224.995 1246.36 225.265C1246.36 225.633 1246.23 225.936 1245.95 226.196C1245.68 226.456 1245.3 226.618 1244.8 226.672C1244.98 226.727 1245.11 226.791 1245.21 226.867C1245.31 226.932 1245.44 227.062 1245.6 227.257C1245.65 227.311 1245.78 227.506 1246.02 227.874L1246.7 228.891H1245.25L1244.77 228.069C1244.44 227.517 1244.17 227.17 1243.96 227.03C1243.74 226.889 1243.48 226.813 1243.14 226.813H1242.85V228.891H1241.67ZM1242.85 226.023H1243.32C1244 226.023 1244.42 226.001 1244.58 225.947C1244.74 225.904 1244.87 225.828 1244.96 225.709C1245.06 225.59 1245.1 225.46 1245.1 225.319C1245.1 225.179 1245.06 225.06 1244.96 224.941C1244.88 224.832 1244.74 224.757 1244.57 224.703C1244.4 224.659 1243.99 224.627 1243.31 224.627H1242.84V226.001L1242.85 226.023Z" fill="#0078AE"/>
<path d="M1224.81 66.8662L958.172 300H1009.36L1250.41 89.2488L1224.81 66.8662Z" fill="#E31937"/>
</svg>
