<svg width="1020" height="360" viewBox="0 0 1020 360" fill="none" xmlns="http://www.w3.org/2000/svg">
<path d="M803.033 0H0.5V359.844H538.41L850.627 47.6008L803.033 0Z" fill="#0078AE"/>
<path d="M822.876 289.774H809.422C808.98 289.774 808.617 290.138 808.617 290.579V320.867C808.617 321.309 808.98 321.673 809.422 321.673H822.915C833.512 321.673 840.368 315.412 840.368 305.697C840.368 295.982 833.499 289.774 822.876 289.774ZM822.876 313.256H818.279V298.19H822.915C827.707 298.19 830.564 300.996 830.564 305.697C830.564 309.451 827.914 313.256 822.863 313.256" fill="#0078AE"/>
<path d="M902.196 297.995C898.482 297.995 895.469 300.035 894.119 302.061C893.132 299.359 890.898 297.995 887.47 297.995C883.678 297.995 880.821 299.905 879.821 301.19V299.372C879.821 298.931 879.457 298.567 879.016 298.567H872.016C871.575 298.567 871.211 298.931 871.211 299.372V320.854C871.211 321.296 871.575 321.659 872.016 321.659H879.016C879.457 321.659 879.821 321.296 879.821 320.854V307.412C880.327 306.814 881.379 305.593 883.314 305.593C885.015 305.593 885.95 306.515 885.95 308.178V320.854C885.95 321.296 886.314 321.659 886.756 321.659H893.755C894.197 321.659 894.56 321.296 894.56 320.854V307.412C895.067 306.827 896.119 305.593 898.093 305.593C899.768 305.593 900.729 306.541 900.729 308.178V320.854C900.729 321.296 901.093 321.659 901.534 321.659H908.534C908.975 321.659 909.339 321.296 909.339 320.854V304.918C909.339 300.45 906.807 297.982 902.209 297.982" fill="#0078AE"/>
<path d="M921.728 298.567H914.728C914.287 298.567 913.923 298.931 913.923 299.372V320.854C913.923 321.296 914.287 321.66 914.728 321.66H921.728C922.17 321.66 922.533 321.296 922.533 320.854V299.372C922.533 298.931 922.17 298.567 921.728 298.567Z" fill="#0078AE"/>
<path d="M918.443 287.241C915.781 287.241 913.612 289.41 913.612 292.06C913.612 294.71 915.781 296.891 918.443 296.891C921.105 296.891 923.274 294.736 923.274 292.06C923.274 289.384 921.105 287.241 918.443 287.241Z" fill="#0078AE"/>
<path d="M943.805 297.995C939.351 297.995 936.923 299.996 935.871 301.19V299.372C935.871 298.931 935.507 298.567 935.066 298.567H928.066C927.624 298.567 927.261 298.931 927.261 299.372V320.854C927.261 321.296 927.624 321.659 928.066 321.659H935.066C935.507 321.659 935.871 321.296 935.871 320.854V307.412C936.429 306.775 937.468 305.593 939.546 305.593C941.767 305.593 942.896 306.71 942.896 308.892V320.854C942.896 321.296 943.26 321.659 943.702 321.659H950.701C951.143 321.659 951.506 321.296 951.506 320.854V305.256C951.506 300.71 948.636 297.982 943.805 297.982" fill="#0078AE"/>
<path d="M855.354 297.892C848.627 297.892 843.16 303.347 843.16 310.075C843.16 316.802 848.614 322.27 855.354 322.27C862.094 322.27 867.549 316.815 867.549 310.075C867.549 303.334 862.094 297.892 855.354 297.892ZM855.354 314.075C853.056 314.075 851.199 312.218 851.199 309.906C851.199 307.594 853.056 305.75 855.354 305.75C857.653 305.75 859.51 307.607 859.51 309.906C859.51 312.205 857.653 314.075 855.354 314.075Z" fill="#0078AE"/>
<path d="M967.349 297.93C960.622 297.93 955.155 303.385 955.155 310.126C955.155 316.867 960.609 322.322 967.349 322.322C974.089 322.322 979.544 316.867 979.544 310.126C979.544 303.385 974.089 297.93 967.349 297.93ZM967.349 314.113C965.051 314.113 963.194 312.243 963.194 309.944C963.194 307.645 965.051 305.788 967.349 305.788C969.648 305.788 971.505 307.645 971.505 309.944C971.505 312.243 969.648 314.113 967.349 314.113Z" fill="#0078AE"/>
<path d="M987.361 291.151C987.361 291.151 987.361 291.125 987.361 291.099C987.361 291.099 987.361 291.073 987.348 291.06V291.034C986.803 288.644 984.192 286.891 981.621 287.423C979.024 287.969 977.31 290.384 977.816 292.826C978.232 294.839 980.037 296.164 982.102 296.294C981.998 297.138 981.258 297.917 980.634 298.268C980.232 298.502 980.479 298.931 980.479 298.931L981.011 299.723C981.167 299.996 981.4 300.125 981.686 300.009C986.985 297.827 987.907 293.333 987.374 291.138L987.361 291.151Z" fill="#0078AE"/>
<path d="M994.659 305.438C994.633 304.581 995.763 304.191 997.153 304.191C999.945 304.191 1001.53 304.983 1003.3 306.152C1003.49 306.282 1003.71 306.321 1003.93 306.269C1004.14 306.217 1004.33 306.074 1004.44 305.879L1006.8 301.775C1007.02 301.398 1006.89 300.918 1006.52 300.697C1004.57 299.541 1001.72 298.048 996.789 298.048C989.673 298.048 985.855 301.399 986.491 306.217C987.608 314.685 1000.78 311.789 1000.58 314.672C1000.54 315.348 999.374 315.841 997.348 315.841C994.737 315.841 991.776 314.529 989.906 313.386C989.725 313.269 989.504 313.243 989.296 313.295C989.088 313.347 988.906 313.49 988.79 313.672L986.062 318.218C985.855 318.595 985.959 319.049 986.309 319.283C988.933 321.049 993.166 322.244 996.828 322.244C1003.96 322.244 1008.06 319.179 1008.06 314.14C1008.06 304.853 994.698 307.737 994.646 305.438" fill="#0078AE"/>
<path d="M976.297 172.908L937.39 133.997C935.754 132.36 933.559 131.451 931.247 131.451C928.936 131.451 926.741 132.36 925.105 133.997L892.483 166.635L838.187 220.938C834.798 224.328 834.798 229.848 838.187 233.238L877.081 272.136C878.717 273.773 880.899 274.682 883.224 274.682C885.548 274.682 887.73 273.773 889.366 272.136L938.026 223.458L976.284 185.195C979.673 181.805 979.673 176.285 976.284 172.895L976.297 172.908Z" fill="white"/>
<path d="M973.543 175.662L934.636 136.763C932.766 134.88 929.727 134.88 927.844 136.763L885.781 178.818L931.467 224.51L973.53 182.442C975.4 180.571 975.4 177.532 973.53 175.649L973.543 175.662ZM939.324 186.909C937.129 189.104 934.233 190.208 931.35 190.208C928.467 190.208 925.584 189.117 923.39 186.909C921.195 184.715 920.078 181.818 920.078 178.935C920.078 176.052 921.182 173.155 923.39 170.973C925.584 168.778 928.467 167.674 931.363 167.674C934.259 167.674 937.129 168.778 939.324 170.973C941.519 173.168 942.636 176.065 942.636 178.935C942.636 181.805 941.519 184.702 939.324 186.909Z" fill="#E31937"/>
<path d="M840.94 223.678C839.07 225.549 839.07 228.588 840.94 230.471L879.834 269.37C880.769 270.305 882.003 270.773 883.237 270.773C884.47 270.773 885.691 270.305 886.626 269.37L928.663 227.328L882.977 181.636L840.94 223.678ZM874.627 234.887C872.419 237.069 869.536 238.173 866.653 238.173C863.77 238.173 860.887 237.069 858.68 234.887C856.485 232.692 855.381 229.809 855.381 226.925C855.381 224.042 856.485 221.159 858.68 218.951C860.874 216.756 863.77 215.652 866.653 215.652C869.536 215.652 872.419 216.756 874.627 218.951C876.822 221.159 877.925 224.042 877.912 226.925C877.912 229.809 876.822 232.705 874.627 234.9V234.887ZM891.756 219.405C893.95 217.198 896.846 216.107 899.716 216.107C902.586 216.107 905.482 217.21 907.677 219.405C909.885 221.6 910.989 224.484 910.989 227.38C910.989 230.276 909.885 233.147 907.677 235.342C905.482 237.537 902.599 238.641 899.716 238.641C896.833 238.641 893.95 237.524 891.756 235.342C889.561 233.147 888.457 230.263 888.457 227.38C888.457 224.497 889.561 221.613 891.756 219.405Z" fill="#0078AE"/>
<path d="M1014.23 296.813C1015.2 296.813 1016.14 297.06 1017.05 297.554C1017.94 298.034 1018.66 298.749 1019.16 299.658C1019.68 300.567 1019.93 301.528 1019.93 302.528C1019.93 303.528 1019.68 304.476 1019.18 305.373C1018.67 306.282 1017.97 306.983 1017.07 307.49C1016.17 307.996 1015.22 308.243 1014.23 308.243C1013.24 308.243 1012.28 307.983 1011.39 307.49C1010.49 306.983 1009.78 306.282 1009.28 305.373C1008.78 304.476 1008.52 303.528 1008.52 302.528C1008.52 301.528 1008.78 300.58 1009.3 299.658C1009.8 298.749 1010.52 298.034 1011.41 297.554C1012.31 297.06 1013.26 296.813 1014.23 296.813ZM1014.23 297.931C1013.45 297.931 1012.68 298.125 1011.97 298.528C1011.26 298.918 1010.68 299.476 1010.27 300.216C1009.85 300.957 1009.65 301.723 1009.65 302.528C1009.65 303.333 1009.85 304.1 1010.26 304.814C1010.66 305.541 1011.23 306.1 1011.94 306.516C1012.67 306.918 1013.42 307.126 1014.23 307.126C1015.04 307.126 1015.79 306.931 1016.52 306.516C1017.23 306.113 1017.8 305.541 1018.2 304.814C1018.61 304.087 1018.81 303.32 1018.81 302.528C1018.81 301.736 1018.61 300.957 1018.19 300.216C1017.78 299.476 1017.2 298.918 1016.48 298.528C1015.76 298.138 1015 297.931 1014.22 297.931H1014.23ZM1011.65 305.58V299.515H1012.88C1014.04 299.515 1014.67 299.515 1014.81 299.541C1015.22 299.58 1015.54 299.658 1015.76 299.775C1016 299.905 1016.18 300.099 1016.33 300.359C1016.49 300.619 1016.57 300.905 1016.57 301.229C1016.57 301.671 1016.42 302.035 1016.14 302.346C1015.85 302.658 1015.45 302.853 1014.93 302.918C1015.11 302.983 1015.26 303.061 1015.36 303.152C1015.46 303.23 1015.59 303.385 1015.76 303.619C1015.81 303.684 1015.96 303.918 1016.2 304.359L1016.92 305.58H1015.4L1014.89 304.593C1014.55 303.931 1014.27 303.515 1014.05 303.346C1013.81 303.178 1013.54 303.087 1013.19 303.087H1012.88V305.58H1011.65ZM1012.88 302.139H1013.37C1014.09 302.139 1014.53 302.113 1014.7 302.048C1014.87 301.996 1015 301.905 1015.1 301.762C1015.2 301.619 1015.24 301.463 1015.24 301.294C1015.24 301.125 1015.2 300.983 1015.1 300.84C1015.01 300.71 1014.87 300.619 1014.68 300.554C1014.5 300.502 1014.07 300.463 1013.36 300.463H1012.87V302.113L1012.88 302.139Z" fill="#0078AE"/>
<path d="M903.625 265.902C904.599 265.902 905.534 266.149 906.443 266.643C907.339 267.123 908.054 267.838 908.56 268.747C909.079 269.656 909.326 270.617 909.326 271.617C909.326 272.617 909.079 273.565 908.573 274.461C908.066 275.371 907.365 276.072 906.469 276.578C905.56 277.085 904.612 277.332 903.625 277.332C902.638 277.332 901.677 277.072 900.781 276.578C899.885 276.072 899.171 275.371 898.677 274.461C898.171 273.565 897.911 272.617 897.911 271.617C897.911 270.617 898.171 269.669 898.69 268.747C899.197 267.838 899.911 267.123 900.807 266.643C901.703 266.149 902.651 265.902 903.625 265.902ZM903.625 267.019C902.846 267.019 902.08 267.214 901.366 267.617C900.651 268.006 900.08 268.565 899.664 269.305C899.249 270.045 899.041 270.812 899.041 271.617C899.041 272.422 899.249 273.189 899.651 273.903C900.054 274.63 900.625 275.189 901.34 275.604C902.067 276.007 902.82 276.215 903.625 276.215C904.43 276.215 905.184 276.02 905.911 275.604C906.625 275.202 907.196 274.63 907.599 273.903C908.001 273.176 908.209 272.409 908.209 271.617C908.209 270.825 908.002 270.045 907.586 269.305C907.17 268.565 906.599 268.006 905.872 267.617C905.158 267.227 904.391 267.019 903.612 267.019H903.625ZM901.041 274.669V268.604H902.275C903.43 268.604 904.067 268.604 904.209 268.63C904.612 268.669 904.937 268.747 905.158 268.864C905.391 268.994 905.573 269.188 905.729 269.448C905.885 269.708 905.963 269.994 905.963 270.318C905.963 270.76 905.82 271.124 905.534 271.435C905.248 271.747 904.846 271.942 904.326 272.007C904.508 272.072 904.651 272.15 904.755 272.24C904.859 272.318 904.989 272.474 905.158 272.708C905.21 272.773 905.352 273.007 905.599 273.448L906.313 274.669H904.794L904.287 273.682C903.95 273.02 903.664 272.604 903.443 272.435C903.21 272.266 902.937 272.176 902.586 272.176H902.275V274.669H901.041ZM902.275 271.227H902.768C903.482 271.227 903.924 271.201 904.093 271.137C904.261 271.085 904.391 270.994 904.495 270.851C904.599 270.708 904.638 270.552 904.638 270.383C904.638 270.214 904.599 270.072 904.495 269.929C904.404 269.799 904.261 269.708 904.08 269.643C903.898 269.591 903.469 269.552 902.755 269.552H902.262V271.201L902.275 271.227Z" fill="#0078AE"/>
<path d="M883.353 80.2395L603.627 360H657.326L910.209 107.099L883.353 80.2395Z" fill="#E31937"/>
</svg>
