<svg width="301" height="251" viewBox="0 0 301 251" fill="none" xmlns="http://www.w3.org/2000/svg">
<path d="M294.78 208.78L280.77 194.77C280.18 194.18 279.39 193.85 278.56 193.85C277.73 193.85 276.94 194.18 276.35 194.77L264.6 206.52L245.04 226.08C243.82 227.3 243.82 229.29 245.04 230.51L259.05 244.52C259.64 245.11 260.43 245.44 261.26 245.44C262.09 245.44 262.88 245.11 263.47 244.52L281 226.99L294.78 213.21C296 211.99 296 210 294.78 208.78Z" fill="white"/>
<path d="M293.79 209.78L279.78 195.77C279.1 195.09 278.01 195.09 277.33 195.77L262.18 210.92L278.64 227.38L293.79 212.23C294.47 211.55 294.47 210.46 293.79 209.78ZM281.47 213.83C280.68 214.62 279.64 215.02 278.6 215.02C277.56 215.02 276.52 214.62 275.73 213.83C274.94 213.04 274.54 212 274.54 210.96C274.54 209.92 274.94 208.88 275.73 208.09C276.52 207.3 277.56 206.9 278.6 206.9C279.64 206.9 280.68 207.29 281.47 208.09C282.26 208.88 282.66 209.92 282.66 210.96C282.66 212 282.26 213.04 281.47 213.83Z" fill="#E31937"/>
<path d="M246.02 227.07C245.34 227.75 245.34 228.84 246.02 229.52L260.03 243.53C260.37 243.87 260.81 244.04 261.25 244.04C261.69 244.04 262.14 243.87 262.47 243.53L277.61 228.39L261.15 211.93L246.01 227.07H246.02ZM258.15 231.11C257.36 231.9 256.32 232.29 255.28 232.29C254.24 232.29 253.2 231.89 252.41 231.11C251.62 230.32 251.22 229.28 251.22 228.24C251.22 227.2 251.62 226.16 252.41 225.37C253.2 224.58 254.24 224.18 255.28 224.18C256.32 224.18 257.36 224.58 258.15 225.37C258.94 226.16 259.34 227.2 259.34 228.24C259.34 229.28 258.95 230.32 258.15 231.11ZM264.32 225.53C265.11 224.74 266.15 224.34 267.19 224.34C268.23 224.34 269.27 224.74 270.06 225.53C270.86 226.32 271.25 227.36 271.25 228.4C271.25 229.44 270.85 230.48 270.06 231.27C269.27 232.06 268.23 232.46 267.19 232.46C266.15 232.46 265.11 232.06 264.32 231.27C263.53 230.48 263.13 229.44 263.13 228.4C263.13 227.36 263.53 226.32 264.32 225.53Z" fill="#0078AE"/>
<path d="M267.35 241.93C267.91 241.93 268.4 242.37 268.4 242.97C268.4 243.57 267.92 244.01 267.35 244.01C266.78 244.01 266.3 243.57 266.3 242.97C266.3 242.37 266.78 241.93 267.35 241.93ZM267.35 242.1C266.87 242.1 266.5 242.47 266.5 242.97C266.5 243.47 266.87 243.84 267.35 243.84C267.83 243.84 268.2 243.47 268.2 242.97C268.2 242.47 267.83 242.1 267.35 242.1ZM267.13 243.57H266.95V242.37H267.41C267.69 242.37 267.84 242.48 267.84 242.71C267.84 242.93 267.71 243.02 267.53 243.04L267.87 243.57H267.67L267.35 243.05H267.14V243.57H267.13ZM267.13 242.9H267.35C267.57 242.9 267.65 242.84 267.65 242.7C267.65 242.59 267.59 242.52 267.38 242.52H267.13V242.9Z" fill="#38648E"/>
<mask id="mask0_68_9" style="mask-type:luminance" maskUnits="userSpaceOnUse" x="0" y="0" width="301" height="251">
<path d="M300.56 250.34V0.26001L0.499573 0.26001V250.34L300.56 250.34Z" fill="white"/>
</mask>
<g mask="url(#mask0_68_9)">
<path d="M134.382 -171.386L-147.294 110.29L83.8098 341.394L365.486 59.7175L134.382 -171.386Z" fill="#0078AE"/>
<path d="M313.268 147.914L303.071 137.717L185.147 255.641L195.344 265.838L313.268 147.914Z" fill="#E31937"/>
</g>
</svg>
