<svg width="312" height="403" viewBox="0 0 312 403" fill="none" xmlns="http://www.w3.org/2000/svg">
<mask id="mask0_89_2731" style="mask-type:luminance" maskUnits="userSpaceOnUse" x="0" y="0" width="312" height="403">
<path d="M311.261 403V0.649902L0.110779 0.649902V403H311.261Z" fill="white"/>
</mask>
<g mask="url(#mask0_89_2731)">
<path d="M428.721 117.101L126.433 -185.187L-254.995 196.241L47.2932 498.529L428.721 117.101Z" fill="#0078AE"/>
<path d="M341.545 244.267L330.974 233.696L115.66 449.01L126.231 459.581L341.545 244.267Z" fill="#E31937"/>
</g>
<path d="M301.1 344.04L282.87 325.81C282.1 325.04 281.08 324.62 279.99 324.62C278.9 324.62 277.88 325.04 277.11 325.81L261.82 341.1L236.37 366.55C234.78 368.14 234.78 370.72 236.37 372.31L254.6 390.54C255.37 391.31 256.39 391.73 257.48 391.73C258.57 391.73 259.59 391.31 260.36 390.54L283.17 367.73L301.1 349.8C302.69 348.21 302.69 345.63 301.1 344.04Z" fill="white"/>
<path d="M299.81 345.33L281.58 327.1C280.7 326.22 279.27 326.22 278.4 327.1L258.69 346.81L280.11 368.23L299.82 348.52C300.7 347.64 300.7 346.22 299.82 345.34L299.81 345.33ZM283.77 350.6C282.74 351.63 281.38 352.14 280.04 352.14C278.7 352.14 277.34 351.63 276.31 350.6C275.28 349.57 274.76 348.21 274.76 346.87C274.76 345.53 275.28 344.16 276.31 343.14C277.34 342.11 278.69 341.59 280.05 341.59C281.41 341.59 282.75 342.1 283.78 343.14C284.81 344.17 285.33 345.52 285.33 346.87C285.33 348.22 284.81 349.57 283.78 350.6H283.77Z" fill="#E31937"/>
<path d="M237.66 367.83C236.78 368.71 236.78 370.13 237.66 371.01L255.89 389.24C256.33 389.68 256.91 389.9 257.48 389.9C258.05 389.9 258.63 389.68 259.07 389.24L278.78 369.54L257.36 348.12L237.66 367.82V367.83ZM253.45 373.08C252.42 374.1 251.06 374.62 249.71 374.62C248.36 374.62 247.01 374.11 245.97 373.08C244.94 372.05 244.43 370.7 244.43 369.35C244.43 368 244.94 366.65 245.97 365.61C247 364.58 248.35 364.07 249.71 364.06C251.06 364.06 252.41 364.58 253.45 365.61C254.48 366.64 254.99 368 254.99 369.35C254.99 370.7 254.48 372.06 253.45 373.08ZM261.48 365.82C262.51 364.79 263.86 364.27 265.21 364.27C266.56 364.27 267.91 364.79 268.94 365.82C269.97 366.85 270.49 368.2 270.49 369.55C270.49 370.9 269.97 372.25 268.94 373.28C267.91 374.31 266.56 374.83 265.21 374.83C263.86 374.83 262.51 374.31 261.48 373.28C260.45 372.25 259.93 370.9 259.93 369.55C259.93 368.2 260.45 366.85 261.48 365.82Z" fill="#0078AE"/>
<path d="M265.41 387.16C266.15 387.16 266.77 387.73 266.77 388.51C266.77 389.29 266.14 389.86 265.41 389.86C264.68 389.86 264.04 389.29 264.04 388.51C264.04 387.73 264.67 387.16 265.41 387.16ZM265.41 387.38C264.78 387.38 264.3 387.86 264.3 388.51C264.3 389.16 264.78 389.65 265.41 389.65C266.04 389.65 266.51 389.17 266.51 388.51C266.51 387.85 266.03 387.38 265.41 387.38ZM265.12 389.29H264.88V387.73H265.47C265.84 387.73 266.02 387.87 266.02 388.17C266.02 388.45 265.85 388.57 265.61 388.6L266.06 389.28H265.8L265.39 388.6H265.12V389.28V389.29ZM265.12 388.42H265.4C265.69 388.42 265.79 388.34 265.79 388.16C265.79 388.01 265.72 387.93 265.44 387.93H265.12V388.42Z" fill="#38648E"/>
</svg>
