<svg width="680" height="300" viewBox="0 0 680 300" fill="none" xmlns="http://www.w3.org/2000/svg">
<path d="M576.243 0H0V299.87H449.656L599.011 39.6674L576.243 0Z" fill="#0078AE"/>
<path d="M22.973 119.414V138.354L37.0375 128.884L22.973 119.414Z" fill="white"/>
<path d="M585.735 241.479H579.299C579.088 241.479 578.914 241.782 578.914 242.15V267.389C578.914 267.757 579.088 268.061 579.299 268.061H585.754C590.823 268.061 594.103 262.844 594.103 254.748C594.103 246.652 590.817 241.479 585.735 241.479ZM585.735 261.047H583.536V248.492H585.754C588.046 248.492 589.413 250.83 589.413 254.748C589.413 257.876 588.146 261.047 585.729 261.047" fill="#0078AE"/>
<path d="M623.68 248.33C621.903 248.33 620.462 250.029 619.816 251.717C619.344 249.466 618.275 248.33 616.635 248.33C614.821 248.33 613.454 249.921 612.976 250.992V249.477C612.976 249.109 612.802 248.806 612.591 248.806H609.242C609.031 248.806 608.857 249.109 608.857 249.477V267.379C608.857 267.747 609.031 268.05 609.242 268.05H612.591C612.802 268.05 612.976 267.747 612.976 267.379V256.177C613.218 255.679 613.721 254.661 614.647 254.661C615.461 254.661 615.908 255.43 615.908 256.815V267.379C615.908 267.747 616.082 268.05 616.293 268.05H619.642C619.853 268.05 620.027 267.747 620.027 267.379V256.177C620.269 255.69 620.772 254.661 621.717 254.661C622.518 254.661 622.978 255.451 622.978 256.815V267.379C622.978 267.747 623.152 268.05 623.363 268.05H626.711C626.923 268.05 627.097 267.747 627.097 267.379V254.099C627.097 250.375 625.885 248.319 623.686 248.319" fill="#0078AE"/>
<path d="M633.023 248.806H629.675C629.463 248.806 629.289 249.109 629.289 249.477V267.379C629.289 267.747 629.463 268.05 629.675 268.05H633.023C633.234 268.05 633.408 267.747 633.408 267.379V249.477C633.408 249.109 633.234 248.806 633.023 248.806Z" fill="#0078AE"/>
<path d="M631.451 239.368C630.178 239.368 629.14 241.176 629.14 243.384C629.14 245.592 630.178 247.41 631.451 247.41C632.725 247.41 633.762 245.613 633.762 243.384C633.762 241.154 632.725 239.368 631.451 239.368Z" fill="#0078AE"/>
<path d="M643.584 248.33C641.453 248.33 640.291 249.996 639.788 250.992V249.477C639.788 249.109 639.614 248.806 639.403 248.806H636.055C635.843 248.806 635.669 249.109 635.669 249.477V267.379C635.669 267.747 635.843 268.05 636.055 268.05H639.403C639.614 268.05 639.788 267.747 639.788 267.379V256.177C640.055 255.646 640.552 254.661 641.546 254.661C642.609 254.661 643.149 255.592 643.149 257.41V267.379C643.149 267.747 643.323 268.05 643.534 268.05H646.883C647.094 268.05 647.268 267.747 647.268 267.379V254.38C647.268 250.592 645.895 248.319 643.584 248.319" fill="#0078AE"/>
<path d="M601.272 248.243C598.054 248.243 595.439 252.789 595.439 258.395C595.439 264.002 598.048 268.559 601.272 268.559C604.496 268.559 607.105 264.013 607.105 258.395C607.105 252.778 604.496 248.243 601.272 248.243ZM601.272 261.729C600.173 261.729 599.284 260.181 599.284 258.255C599.284 256.328 600.173 254.791 601.272 254.791C602.372 254.791 603.26 256.339 603.26 258.255C603.26 260.17 602.372 261.729 601.272 261.729Z" fill="#0078AE"/>
<path d="M654.847 248.275C651.629 248.275 649.013 252.821 649.013 258.438C649.013 264.056 651.622 268.601 654.847 268.601C658.071 268.601 660.68 264.056 660.68 258.438C660.68 252.821 658.071 248.275 654.847 248.275ZM654.847 261.761C653.747 261.761 652.859 260.203 652.859 258.287C652.859 256.371 653.747 254.823 654.847 254.823C655.946 254.823 656.835 256.371 656.835 258.287C656.835 260.203 655.946 261.761 654.847 261.761Z" fill="#0078AE"/>
<path d="M664.42 242.626C664.42 242.626 664.42 242.604 664.42 242.583C664.42 242.583 664.42 242.561 664.413 242.55V242.529C664.153 240.537 662.904 239.076 661.674 239.52C660.431 239.974 659.611 241.987 659.854 244.022C660.052 245.7 660.916 246.804 661.904 246.912C661.854 247.616 661.5 248.265 661.202 248.557C661.009 248.752 661.127 249.109 661.127 249.109L661.382 249.769C661.456 249.997 661.568 250.105 661.705 250.008C664.24 248.189 664.681 244.444 664.426 242.615L664.42 242.626Z" fill="#0078AE"/>
<path d="M667.911 254.532C667.899 253.817 668.439 253.492 669.104 253.492C670.439 253.492 671.197 254.153 672.042 255.127C672.135 255.235 672.241 255.268 672.347 255.224C672.446 255.181 672.539 255.062 672.589 254.9L673.719 251.479C673.825 251.165 673.763 250.765 673.583 250.581C672.651 249.618 671.29 248.373 668.93 248.373C665.526 248.373 663.699 251.165 664.003 255.181C664.538 262.238 670.837 259.824 670.744 262.227C670.725 262.79 670.166 263.201 669.197 263.201C667.948 263.201 666.532 262.108 665.637 261.155C665.55 261.058 665.445 261.036 665.345 261.08C665.246 261.123 665.159 261.242 665.103 261.393L663.798 265.182C663.699 265.496 663.749 265.874 663.917 266.069C665.171 267.541 667.197 268.537 668.948 268.537C672.359 268.537 674.322 265.983 674.322 261.783C674.322 254.044 667.93 256.447 667.905 254.532" fill="#0078AE"/>
<path d="M659.127 144.09L640.515 111.664C639.732 110.3 638.682 109.542 637.577 109.542C636.471 109.542 635.421 110.3 634.638 111.664L619.033 138.863L593.059 184.115C591.438 186.94 591.438 191.54 593.059 194.365L611.665 226.78C612.448 228.144 613.492 228.902 614.604 228.902C615.716 228.902 616.759 228.144 617.542 226.78L640.819 186.215L659.121 154.329C660.742 151.504 660.742 146.904 659.121 144.08L659.127 144.09Z" fill="white"/>
<path d="M657.81 146.385L639.198 113.97C638.303 112.4 636.85 112.4 635.949 113.97L615.827 149.015L637.682 187.092L657.804 152.035C658.698 150.476 658.698 147.944 657.804 146.374L657.81 146.385ZM641.441 155.758C640.391 157.587 639.005 158.507 637.626 158.507C636.247 158.507 634.868 157.598 633.818 155.758C632.768 153.929 632.234 151.516 632.234 149.113C632.234 146.71 632.762 144.296 633.818 142.478C634.868 140.649 636.247 139.729 637.632 139.729C639.018 139.729 640.391 140.649 641.441 142.478C642.49 144.307 643.025 146.721 643.025 149.113C643.025 151.505 642.49 153.918 641.441 155.758Z" fill="#E31937"/>
<path d="M594.377 186.399C593.482 187.957 593.482 190.49 594.377 192.059L612.982 224.475C613.43 225.254 614.02 225.644 614.61 225.644C615.2 225.644 615.784 225.254 616.231 224.475L636.34 189.44L614.486 151.364L594.377 186.399ZM610.491 195.739C609.435 197.558 608.056 198.478 606.677 198.478C605.298 198.478 603.919 197.558 602.863 195.739C601.813 193.91 601.285 191.507 601.285 189.105C601.285 186.702 601.813 184.299 602.863 182.459C603.912 180.63 605.298 179.71 606.677 179.71C608.056 179.71 609.435 180.63 610.491 182.459C611.541 184.299 612.069 186.702 612.063 189.105C612.063 191.507 611.541 193.921 610.491 195.75V195.739ZM618.685 182.838C619.735 180.998 621.12 180.089 622.493 180.089C623.866 180.089 625.251 181.009 626.301 182.838C627.357 184.667 627.886 187.07 627.886 189.483C627.886 191.897 627.357 194.289 626.301 196.118C625.251 197.947 623.872 198.867 622.493 198.867C621.114 198.867 619.735 197.936 618.685 196.118C617.635 194.289 617.107 191.886 617.107 189.483C617.107 187.081 617.635 184.678 618.685 182.838Z" fill="#0078AE"/>
<path d="M677.273 247.345C677.739 247.345 678.186 247.55 678.621 247.962C679.05 248.362 679.391 248.957 679.634 249.715C679.882 250.473 680 251.274 680 252.107C680 252.94 679.882 253.73 679.64 254.477C679.397 255.235 679.062 255.819 678.633 256.242C678.198 256.664 677.745 256.869 677.273 256.869C676.801 256.869 676.341 256.653 675.912 256.242C675.484 255.819 675.142 255.235 674.906 254.477C674.664 253.73 674.539 252.94 674.539 252.107C674.539 251.274 674.664 250.483 674.912 249.715C675.154 248.957 675.496 248.362 675.925 247.962C676.353 247.55 676.807 247.345 677.273 247.345ZM677.273 248.276C676.9 248.276 676.534 248.438 676.192 248.773C675.85 249.098 675.577 249.563 675.378 250.18C675.179 250.797 675.08 251.436 675.08 252.107C675.08 252.778 675.179 253.417 675.372 254.012C675.564 254.618 675.838 255.083 676.18 255.43C676.527 255.765 676.888 255.938 677.273 255.938C677.658 255.938 678.018 255.776 678.366 255.43C678.708 255.094 678.981 254.618 679.174 254.012C679.366 253.406 679.466 252.767 679.466 252.107C679.466 251.447 679.366 250.797 679.168 250.18C678.969 249.563 678.695 249.098 678.348 248.773C678.006 248.449 677.639 248.276 677.267 248.276H677.273ZM676.037 254.65V249.596H676.627C677.18 249.596 677.484 249.596 677.552 249.618C677.745 249.65 677.9 249.715 678.006 249.812C678.118 249.921 678.205 250.083 678.279 250.3C678.354 250.516 678.391 250.754 678.391 251.025C678.391 251.393 678.323 251.696 678.186 251.955C678.049 252.215 677.857 252.378 677.608 252.432C677.695 252.486 677.764 252.551 677.813 252.626C677.863 252.691 677.925 252.821 678.006 253.016C678.031 253.07 678.099 253.265 678.217 253.633L678.559 254.65H677.832L677.59 253.828C677.428 253.276 677.292 252.93 677.186 252.789C677.074 252.648 676.944 252.572 676.776 252.572H676.627V254.65H676.037ZM676.627 251.782H676.863C677.205 251.782 677.416 251.761 677.497 251.707C677.577 251.663 677.639 251.587 677.689 251.468C677.739 251.349 677.757 251.219 677.757 251.079C677.757 250.938 677.739 250.819 677.689 250.7C677.646 250.592 677.577 250.516 677.49 250.462C677.403 250.419 677.198 250.386 676.857 250.386H676.621V251.761L676.627 251.782Z" fill="#0078AE"/>
<path d="M624.363 221.585C624.829 221.585 625.276 221.791 625.711 222.202C626.14 222.603 626.481 223.198 626.724 223.956C626.972 224.713 627.09 225.514 627.09 226.348C627.09 227.181 626.972 227.971 626.73 228.718C626.488 229.476 626.152 230.06 625.724 230.482C625.289 230.904 624.835 231.11 624.363 231.11C623.891 231.11 623.431 230.894 623.003 230.482C622.574 230.06 622.232 229.476 621.996 228.718C621.754 227.971 621.63 227.181 621.63 226.348C621.63 225.514 621.754 224.724 622.002 223.956C622.245 223.198 622.586 222.603 623.015 222.202C623.444 221.791 623.897 221.585 624.363 221.585ZM624.363 222.516C623.99 222.516 623.624 222.679 623.282 223.014C622.94 223.339 622.667 223.804 622.468 224.421C622.27 225.038 622.17 225.677 622.17 226.348C622.17 227.019 622.27 227.657 622.462 228.253C622.655 228.859 622.928 229.324 623.27 229.67C623.618 230.006 623.978 230.179 624.363 230.179C624.748 230.179 625.109 230.017 625.456 229.67C625.798 229.335 626.071 228.859 626.264 228.253C626.457 227.647 626.556 227.008 626.556 226.348C626.556 225.688 626.457 225.038 626.258 224.421C626.059 223.804 625.786 223.339 625.438 223.014C625.096 222.689 624.73 222.516 624.357 222.516H624.363ZM623.127 228.891V223.837H623.717C624.27 223.837 624.574 223.837 624.643 223.858C624.835 223.891 624.991 223.956 625.096 224.053C625.208 224.161 625.295 224.324 625.369 224.54C625.444 224.757 625.481 224.995 625.481 225.265C625.481 225.633 625.413 225.936 625.276 226.196C625.14 226.456 624.947 226.618 624.699 226.672C624.786 226.727 624.854 226.791 624.904 226.867C624.953 226.932 625.015 227.062 625.096 227.257C625.121 227.311 625.189 227.506 625.307 227.874L625.649 228.891H624.922L624.68 228.069C624.518 227.517 624.382 227.17 624.276 227.03C624.164 226.889 624.034 226.813 623.866 226.813H623.717V228.891H623.127ZM623.717 226.023H623.953C624.295 226.023 624.506 226.001 624.587 225.947C624.667 225.904 624.73 225.828 624.779 225.709C624.829 225.59 624.848 225.46 624.848 225.319C624.848 225.179 624.829 225.06 624.779 224.941C624.736 224.832 624.667 224.757 624.58 224.703C624.494 224.659 624.289 224.627 623.947 224.627H623.711V226.001L623.717 226.023Z" fill="#0078AE"/>
<path d="M614.666 66.8662L480.854 300H506.541L627.513 89.2488L614.666 66.8662Z" fill="#E31937"/>
</svg>
