<svg width="3614" height="916" viewBox="0 0 3614 916" fill="none" xmlns="http://www.w3.org/2000/svg">
<path d="M3062.42 0.307373H0.886841V914.862H2389.87L3183.38 121.286L3062.42 0.307373Z" fill="#0078AE"/>
<path d="M122.94 364.499V422.265L197.664 393.382L122.94 364.499Z" fill="white"/>
<path d="M3112.85 736.777H3078.66C3077.53 736.777 3076.61 737.701 3076.61 738.823V815.801C3076.61 816.923 3077.53 817.848 3078.66 817.848H3112.95C3139.88 817.848 3157.31 801.937 3157.31 777.246C3157.31 752.555 3139.85 736.777 3112.85 736.777ZM3112.85 796.458H3101.17V758.167H3112.95C3125.13 758.167 3132.39 765.297 3132.39 777.246C3132.39 786.786 3125.66 796.458 3112.82 796.458" fill="#0078AE"/>
<path d="M3314.45 757.672C3305.01 757.672 3297.35 762.854 3293.92 768.004C3291.41 761.138 3285.73 757.672 3277.02 757.672C3267.38 757.672 3260.12 762.524 3257.58 765.792V761.171C3257.58 760.048 3256.65 759.124 3255.53 759.124H3237.74C3236.62 759.124 3235.69 760.048 3235.69 761.171V815.768C3235.69 816.89 3236.62 817.814 3237.74 817.814H3255.53C3256.65 817.814 3257.58 816.89 3257.58 815.768V781.603C3258.86 780.085 3261.54 776.982 3266.46 776.982C3270.78 776.982 3273.16 779.326 3273.16 783.551V815.768C3273.16 816.89 3274.08 817.814 3275.2 817.814H3292.99C3294.11 817.814 3295.04 816.89 3295.04 815.768V781.603C3296.33 780.118 3299 776.982 3304.02 776.982C3308.27 776.982 3310.72 779.392 3310.72 783.551V815.768C3310.72 816.89 3311.64 817.814 3312.76 817.814H3330.55C3331.67 817.814 3332.6 816.89 3332.6 815.768V775.266C3332.6 763.911 3326.16 757.639 3314.48 757.639" fill="#0078AE"/>
<path d="M3364.08 759.124H3346.3C3345.17 759.124 3344.25 760.049 3344.25 761.171V815.768C3344.25 816.89 3345.17 817.815 3346.3 817.815H3364.08C3365.21 817.815 3366.13 816.89 3366.13 815.768V761.171C3366.13 760.049 3365.21 759.124 3364.08 759.124Z" fill="#0078AE"/>
<path d="M3355.73 730.34C3348.97 730.34 3343.46 735.853 3343.46 742.587C3343.46 749.32 3348.97 754.866 3355.73 754.866C3362.5 754.866 3368.01 749.387 3368.01 742.587C3368.01 735.787 3362.5 730.34 3355.73 730.34Z" fill="#0078AE"/>
<path d="M3420.19 757.672C3408.87 757.672 3402.7 762.755 3400.03 765.792V761.171C3400.03 760.048 3399.1 759.124 3397.98 759.124H3380.19C3379.07 759.124 3378.15 760.048 3378.15 761.171V815.768C3378.15 816.89 3379.07 817.814 3380.19 817.814H3397.98C3399.1 817.814 3400.03 816.89 3400.03 815.768V781.603C3401.45 779.986 3404.09 776.982 3409.37 776.982C3415.01 776.982 3417.88 779.821 3417.88 785.367V815.768C3417.88 816.89 3418.81 817.814 3419.93 817.814H3437.72C3438.84 817.814 3439.77 816.89 3439.77 815.768V776.124C3439.77 764.571 3432.47 757.639 3420.19 757.639" fill="#0078AE"/>
<path d="M3195.4 757.408C3178.3 757.408 3164.4 771.272 3164.4 788.37C3164.4 805.469 3178.27 819.366 3195.4 819.366C3212.52 819.366 3226.39 805.502 3226.39 788.37C3226.39 771.239 3212.52 757.408 3195.4 757.408ZM3195.4 798.537C3189.55 798.537 3184.83 793.817 3184.83 787.941C3184.83 782.066 3189.55 777.378 3195.4 777.378C3201.24 777.378 3205.96 782.099 3205.96 787.941C3205.96 793.784 3201.24 798.537 3195.4 798.537Z" fill="#0078AE"/>
<path d="M3480.03 757.507C3462.94 757.507 3449.04 771.371 3449.04 788.502C3449.04 805.634 3462.9 819.498 3480.03 819.498C3497.16 819.498 3511.02 805.634 3511.02 788.502C3511.02 771.371 3497.16 757.507 3480.03 757.507ZM3480.03 798.636C3474.19 798.636 3469.47 793.883 3469.47 788.04C3469.47 782.198 3474.19 777.477 3480.03 777.477C3485.87 777.477 3490.59 782.198 3490.59 788.04C3490.59 793.883 3485.87 798.636 3480.03 798.636Z" fill="#0078AE"/>
<path d="M3530.89 740.276C3530.89 740.276 3530.89 740.21 3530.89 740.144C3530.89 740.144 3530.89 740.078 3530.86 740.045V739.979C3529.47 733.905 3522.84 729.449 3516.3 730.802C3509.7 732.189 3505.35 738.328 3506.63 744.534C3507.69 749.65 3512.28 753.017 3517.53 753.348C3517.26 755.493 3515.38 757.474 3513.8 758.365C3512.77 758.959 3513.4 760.048 3513.4 760.048L3514.75 762.062C3515.15 762.755 3515.74 763.085 3516.47 762.788C3529.94 757.243 3532.28 745.821 3530.93 740.243L3530.89 740.276Z" fill="#0078AE"/>
<path d="M3549.44 776.586C3549.38 774.407 3552.25 773.417 3555.78 773.417C3562.88 773.417 3566.9 775.431 3571.39 778.401C3571.89 778.732 3572.45 778.831 3573.01 778.699C3573.54 778.567 3574.03 778.204 3574.3 777.708L3580.3 767.277C3580.86 766.32 3580.53 765.099 3579.58 764.538C3574.63 761.6 3567.4 757.804 3554.86 757.804C3536.77 757.804 3527.06 766.32 3528.68 778.567C3531.52 800.089 3564.99 792.727 3564.49 800.056C3564.39 801.772 3561.42 803.026 3556.27 803.026C3549.64 803.026 3542.11 799.692 3537.36 796.788C3536.9 796.491 3536.34 796.425 3535.81 796.557C3535.28 796.689 3534.82 797.052 3534.52 797.514L3527.59 809.067C3527.06 810.024 3527.33 811.18 3528.22 811.774C3534.89 816.263 3545.65 819.3 3554.95 819.3C3573.07 819.3 3583.5 811.51 3583.5 798.702C3583.5 775.101 3549.54 782.429 3549.41 776.586" fill="#0078AE"/>
<path d="M3502.77 439.76L3403.89 340.864C3399.73 336.705 3394.15 334.394 3388.28 334.394C3382.4 334.394 3376.82 336.705 3372.67 340.864L3289.76 423.816L3151.76 561.828C3143.15 570.443 3143.15 584.472 3151.76 593.088L3250.61 691.95C3254.77 696.109 3260.32 698.42 3266.22 698.42C3272.13 698.42 3277.68 696.109 3281.84 691.95L3405.51 568.232L3502.74 470.986C3511.35 462.371 3511.35 448.342 3502.74 439.727L3502.77 439.76Z" fill="white"/>
<path d="M3495.78 446.758L3396.89 347.895C3392.14 343.109 3384.42 343.109 3379.63 347.895L3272.73 454.779L3388.84 570.905L3495.74 463.988C3500.5 459.235 3500.5 451.511 3495.74 446.725L3495.78 446.758ZM3408.81 475.344C3403.23 480.922 3395.87 483.728 3388.54 483.728C3381.21 483.728 3373.89 480.955 3368.31 475.344C3362.73 469.765 3359.89 462.404 3359.89 455.076C3359.89 447.748 3362.7 440.387 3368.31 434.841C3373.89 429.263 3381.21 426.457 3388.57 426.457C3395.93 426.457 3403.23 429.263 3408.81 434.841C3414.38 440.42 3417.22 447.781 3417.22 455.076C3417.22 462.371 3414.38 469.732 3408.81 475.344Z" fill="#E31937"/>
<path d="M3158.76 568.793C3154.01 573.546 3154.01 581.27 3158.76 586.057L3257.61 684.919C3259.99 687.296 3263.12 688.484 3266.26 688.484C3269.39 688.484 3272.5 687.296 3274.87 684.919L3381.71 578.068L3265.6 461.942L3158.76 568.793ZM3244.38 597.28C3238.76 602.825 3231.44 605.631 3224.11 605.631C3216.78 605.631 3209.46 602.825 3203.84 597.28C3198.27 591.701 3195.46 584.373 3195.46 577.045C3195.46 569.717 3198.27 562.389 3203.84 556.777C3209.42 551.199 3216.78 548.393 3224.11 548.393C3231.44 548.393 3238.76 551.199 3244.38 556.777C3249.95 562.389 3252.76 569.717 3252.73 577.045C3252.73 584.373 3249.95 591.734 3244.38 597.313V597.28ZM3287.91 557.933C3293.49 552.321 3300.85 549.548 3308.14 549.548C3315.44 549.548 3322.8 552.354 3328.37 557.933C3333.98 563.511 3336.79 570.839 3336.79 578.2C3336.79 585.561 3333.98 592.856 3328.37 598.435C3322.8 604.014 3315.47 606.819 3308.14 606.819C3300.81 606.819 3293.49 603.981 3287.91 598.435C3282.33 592.856 3279.53 585.528 3279.53 578.2C3279.53 570.872 3282.33 563.544 3287.91 557.933Z" fill="#0078AE"/>
<path d="M3599.18 754.668C3601.66 754.668 3604.03 755.295 3606.34 756.55C3608.62 757.771 3610.44 759.586 3611.72 761.897C3613.04 764.208 3613.67 766.65 3613.67 769.192C3613.67 771.734 3613.04 774.144 3611.76 776.421C3610.47 778.732 3608.69 780.514 3606.41 781.802C3604.1 783.089 3601.69 783.716 3599.18 783.716C3596.67 783.716 3594.23 783.056 3591.95 781.802C3589.68 780.514 3587.86 778.732 3586.61 776.421C3585.32 774.144 3584.66 771.734 3584.66 769.192C3584.66 766.65 3585.32 764.241 3586.64 761.897C3587.93 759.586 3589.74 757.771 3592.02 756.55C3594.3 755.295 3596.71 754.668 3599.18 754.668ZM3599.18 757.507C3597.2 757.507 3595.25 758.002 3593.44 759.025C3591.62 760.015 3590.17 761.435 3589.11 763.316C3588.06 765.198 3587.53 767.146 3587.53 769.192C3587.53 771.239 3588.06 773.186 3589.08 775.002C3590.1 776.85 3591.56 778.27 3593.37 779.326C3595.22 780.349 3597.13 780.877 3599.18 780.877C3601.23 780.877 3603.14 780.382 3604.99 779.326C3606.81 778.303 3608.26 776.85 3609.28 775.002C3610.3 773.153 3610.83 771.206 3610.83 769.192C3610.83 767.179 3610.3 765.198 3609.25 763.316C3608.19 761.435 3606.74 760.015 3604.89 759.025C3603.08 758.035 3601.13 757.507 3599.15 757.507H3599.18ZM3592.61 776.949V761.534H3595.75C3598.69 761.534 3600.3 761.534 3600.67 761.6C3601.69 761.699 3602.51 761.897 3603.08 762.194C3603.67 762.524 3604.13 763.019 3604.53 763.68C3604.92 764.34 3605.12 765.066 3605.12 765.891C3605.12 767.014 3604.76 767.938 3604.03 768.73C3603.31 769.522 3602.28 770.017 3600.96 770.182C3601.43 770.347 3601.79 770.545 3602.05 770.777C3602.32 770.975 3602.65 771.371 3603.08 771.965C3603.21 772.13 3603.57 772.724 3604.2 773.846L3606.01 776.949H3602.15L3600.86 774.441C3600.01 772.757 3599.28 771.701 3598.72 771.272C3598.12 770.843 3597.43 770.611 3596.54 770.611H3595.75V776.949H3592.61ZM3595.75 768.202H3597C3598.82 768.202 3599.94 768.136 3600.37 767.971C3600.8 767.839 3601.13 767.608 3601.39 767.244C3601.66 766.881 3601.76 766.485 3601.76 766.056C3601.76 765.627 3601.66 765.264 3601.39 764.901C3601.16 764.571 3600.8 764.34 3600.34 764.175C3599.87 764.043 3598.78 763.944 3596.97 763.944H3595.72V768.136L3595.75 768.202Z" fill="#0078AE"/>
<path d="M3318.08 676.106C3320.55 676.106 3322.93 676.733 3325.24 677.988C3327.52 679.209 3329.33 681.024 3330.62 683.335C3331.94 685.646 3332.56 688.088 3332.56 690.63C3332.56 693.172 3331.94 695.582 3330.65 697.859C3329.36 700.17 3327.58 701.952 3325.3 703.24C3322.99 704.527 3320.58 705.154 3318.08 705.154C3315.57 705.154 3313.12 704.494 3310.85 703.24C3308.57 701.952 3306.75 700.17 3305.5 697.859C3304.21 695.582 3303.55 693.172 3303.55 690.63C3303.55 688.088 3304.21 685.679 3305.53 683.335C3306.82 681.024 3308.64 679.209 3310.91 677.988C3313.19 676.733 3315.6 676.106 3318.08 676.106ZM3318.08 678.945C3316.1 678.945 3314.15 679.44 3312.33 680.463C3310.52 681.453 3309.07 682.873 3308.01 684.754C3306.95 686.636 3306.42 688.584 3306.42 690.63C3306.42 692.677 3306.95 694.624 3307.98 696.44C3309 698.288 3310.45 699.708 3312.27 700.764C3314.11 701.787 3316.03 702.315 3318.08 702.315C3320.12 702.315 3322.04 701.82 3323.88 700.764C3325.7 699.741 3327.15 698.288 3328.17 696.44C3329.2 694.591 3329.73 692.644 3329.73 690.63C3329.73 688.617 3329.2 686.636 3328.14 684.754C3327.09 682.873 3325.63 681.453 3323.79 680.463C3321.97 679.473 3320.02 678.945 3318.04 678.945H3318.08ZM3311.51 698.387V682.972H3314.64C3317.58 682.972 3319.2 682.972 3319.56 683.038C3320.58 683.137 3321.41 683.335 3321.97 683.632C3322.56 683.962 3323.03 684.457 3323.42 685.117C3323.82 685.778 3324.02 686.504 3324.02 687.329C3324.02 688.451 3323.65 689.376 3322.93 690.168C3322.2 690.96 3321.18 691.455 3319.86 691.62C3320.32 691.785 3320.68 691.983 3320.95 692.214C3321.21 692.413 3321.54 692.809 3321.97 693.403C3322.1 693.568 3322.47 694.162 3323.09 695.284L3324.91 698.387H3321.05L3319.76 695.878C3318.9 694.195 3318.17 693.139 3317.61 692.71C3317.02 692.281 3316.33 692.049 3315.44 692.049H3314.64V698.387H3311.51ZM3314.64 689.64H3315.9C3317.71 689.64 3318.83 689.574 3319.26 689.409C3319.69 689.277 3320.02 689.046 3320.29 688.682C3320.55 688.319 3320.65 687.923 3320.65 687.494C3320.65 687.065 3320.55 686.702 3320.29 686.339C3320.06 686.009 3319.69 685.778 3319.23 685.613C3318.77 685.481 3317.68 685.382 3315.86 685.382H3314.61V689.574L3314.64 689.64Z" fill="#0078AE"/>
<path d="M3266.55 204.239L2555.62 915.258H2692.1L3334.81 272.502L3266.55 204.239Z" fill="#E31937"/>
</svg>
