<svg width="1225" height="915" viewBox="0 0 1225 915" fill="none" xmlns="http://www.w3.org/2000/svg">
<path d="M673.531 0H0.983154V914.555L794.494 120.979L673.531 0Z" fill="#0078AE"/>
<path d="M723.962 736.47H689.769C688.647 736.47 687.723 737.394 687.723 738.516V815.494C687.723 816.616 688.647 817.54 689.769 817.54H724.061C750.994 817.54 768.421 801.63 768.421 776.939C768.421 752.248 750.961 736.47 723.962 736.47ZM723.962 796.151H712.279V757.86H724.061C736.24 757.86 743.502 764.99 743.502 776.939C743.502 786.479 736.768 796.151 723.929 796.151" fill="#0078AE"/>
<path d="M925.558 757.365C916.119 757.365 908.462 762.548 905.029 767.697C902.521 760.831 896.844 757.365 888.13 757.365C878.493 757.365 871.232 762.217 868.691 765.485V760.864C868.691 759.742 867.766 758.817 866.644 758.817H848.854C847.732 758.817 846.808 759.742 846.808 760.864V815.461C846.808 816.584 847.732 817.508 848.854 817.508H866.644C867.766 817.508 868.691 816.584 868.691 815.461V781.297C869.978 779.778 872.651 776.675 877.569 776.675C881.892 776.675 884.269 779.019 884.269 783.244V815.461C884.269 816.584 885.193 817.508 886.315 817.508H904.105C905.227 817.508 906.151 816.584 906.151 815.461V781.297C907.439 779.811 910.112 776.675 915.129 776.675C919.386 776.675 921.829 779.085 921.829 783.244V815.461C921.829 816.584 922.753 817.508 923.875 817.508H941.665C942.787 817.508 943.711 816.584 943.711 815.461V774.959C943.711 763.604 937.275 757.332 925.592 757.332" fill="#0078AE"/>
<path d="M975.198 758.817H957.409C956.286 758.817 955.362 759.742 955.362 760.864V815.461C955.362 816.583 956.286 817.508 957.409 817.508H975.198C976.32 817.508 977.244 816.583 977.244 815.461V760.864C977.244 759.742 976.32 758.817 975.198 758.817Z" fill="#0078AE"/>
<path d="M966.848 730.033C960.082 730.033 954.57 735.546 954.57 742.28C954.57 749.014 960.082 754.559 966.848 754.559C973.614 754.559 979.126 749.08 979.126 742.28C979.126 735.48 973.614 730.033 966.848 730.033Z" fill="#0078AE"/>
<path d="M1031.31 757.365C1019.99 757.365 1013.81 762.448 1011.14 765.485V760.864C1011.14 759.742 1010.22 758.817 1009.09 758.817H991.305C990.182 758.817 989.258 759.742 989.258 760.864V815.461C989.258 816.584 990.182 817.508 991.305 817.508H1009.09C1010.22 817.508 1011.14 816.584 1011.14 815.461V781.297C1012.56 779.679 1015.2 776.675 1020.48 776.675C1026.13 776.675 1029 779.514 1029 785.06V815.461C1029 816.584 1029.92 817.508 1031.04 817.508H1048.83C1049.96 817.508 1050.88 816.584 1050.88 815.461V775.817C1050.88 764.264 1043.58 757.332 1031.31 757.332" fill="#0078AE"/>
<path d="M806.508 757.101C789.412 757.101 775.516 770.964 775.516 788.063C775.516 805.162 789.379 819.059 806.508 819.059C823.638 819.059 837.5 805.195 837.5 788.063C837.5 770.931 823.638 757.101 806.508 757.101ZM806.508 798.23C800.666 798.23 795.947 793.51 795.947 787.634C795.947 781.759 800.666 777.071 806.508 777.071C812.35 777.071 817.07 781.792 817.07 787.634C817.07 793.477 812.35 798.23 806.508 798.23Z" fill="#0078AE"/>
<path d="M1091.15 757.199C1074.05 757.199 1060.15 771.063 1060.15 788.195C1060.15 805.327 1074.02 819.191 1091.15 819.191C1108.28 819.191 1122.14 805.327 1122.14 788.195C1122.14 771.063 1108.28 757.199 1091.15 757.199ZM1091.15 798.329C1085.3 798.329 1080.58 793.575 1080.58 787.733C1080.58 781.89 1085.3 777.17 1091.15 777.17C1096.99 777.17 1101.71 781.89 1101.71 787.733C1101.71 793.575 1096.99 798.329 1091.15 798.329Z" fill="#0078AE"/>
<path d="M1142.01 739.969C1142.01 739.969 1142.01 739.903 1142.01 739.837C1142.01 739.837 1142.01 739.771 1141.97 739.738V739.672C1140.59 733.598 1133.95 729.142 1127.42 730.495C1120.82 731.882 1116.46 738.022 1117.75 744.227C1118.8 749.344 1123.39 752.711 1128.64 753.041C1128.38 755.186 1126.49 757.167 1124.91 758.058C1123.89 758.652 1124.51 759.742 1124.51 759.742L1125.87 761.755C1126.26 762.449 1126.86 762.779 1127.58 762.481C1141.05 756.936 1143.39 745.515 1142.04 739.936L1142.01 739.969Z" fill="#0078AE"/>
<path d="M1160.56 776.279C1160.49 774.101 1163.36 773.11 1166.89 773.11C1173.99 773.11 1178.02 775.124 1182.5 778.095C1183 778.425 1183.56 778.524 1184.12 778.392C1184.65 778.26 1185.14 777.897 1185.41 777.402L1191.42 766.971C1191.98 766.013 1191.65 764.792 1190.69 764.231C1185.74 761.293 1178.51 757.497 1165.97 757.497C1147.88 757.497 1138.18 766.014 1139.8 778.26C1142.63 799.782 1176.1 792.421 1175.61 799.749C1175.51 801.465 1172.54 802.72 1167.39 802.72C1160.75 802.72 1153.23 799.386 1148.48 796.481C1148.01 796.184 1147.45 796.118 1146.92 796.25C1146.4 796.382 1145.93 796.745 1145.64 797.207L1138.71 808.761C1138.18 809.718 1138.44 810.873 1139.33 811.467C1146 815.957 1156.76 818.993 1166.07 818.993C1184.19 818.993 1194.62 811.203 1194.62 798.396C1194.62 774.794 1160.65 782.122 1160.52 776.279" fill="#0078AE"/>
<path d="M1113.89 439.453L1015 340.557C1010.84 336.398 1005.27 334.087 999.391 334.087C993.516 334.087 987.938 336.398 983.78 340.557L900.871 423.509L762.876 561.521C754.261 570.136 754.261 584.165 762.876 592.781L861.726 691.643C865.885 695.802 871.43 698.113 877.338 698.113C883.246 698.113 888.791 695.802 892.949 691.643L1016.62 567.924L1113.85 470.679C1122.47 462.064 1122.47 448.035 1113.85 439.419L1113.89 439.453Z" fill="white"/>
<path d="M1106.89 446.451L1008.01 347.588C1003.25 342.801 995.529 342.801 990.744 347.588L883.84 454.472L999.952 570.598L1106.86 463.681C1111.61 458.928 1111.61 451.204 1106.86 446.418L1106.89 446.451ZM1019.92 475.037C1014.34 480.615 1006.98 483.421 999.655 483.421C992.328 483.421 985.001 480.648 979.423 475.037C973.845 469.458 971.007 462.097 971.007 454.769C971.007 447.441 973.812 440.08 979.423 434.534C985.001 428.956 992.328 426.15 999.688 426.15C1007.05 426.15 1014.34 428.956 1019.92 434.534C1025.5 440.113 1028.34 447.474 1028.34 454.769C1028.34 462.064 1025.5 469.425 1019.92 475.037Z" fill="#E31937"/>
<path d="M769.873 568.486C765.12 573.239 765.12 580.963 769.873 585.75L868.724 684.612C871.1 686.989 874.236 688.177 877.371 688.177C880.507 688.177 883.609 686.989 885.985 684.612L992.823 577.761L876.711 461.635L769.873 568.486ZM855.489 596.973C849.878 602.518 842.55 605.324 835.223 605.324C827.896 605.324 820.569 602.518 814.958 596.973C809.38 591.394 806.575 584.066 806.575 576.738C806.575 569.41 809.38 562.082 814.958 556.47C820.536 550.892 827.896 548.086 835.223 548.086C842.55 548.086 849.878 550.892 855.489 556.47C861.066 562.082 863.872 569.41 863.839 576.738C863.839 584.066 861.066 591.427 855.489 597.006V596.973ZM899.022 557.626C904.6 552.014 911.96 549.241 919.254 549.241C926.549 549.241 933.909 552.047 939.487 557.626C945.098 563.204 947.903 570.532 947.903 577.893C947.903 585.255 945.098 592.55 939.487 598.128C933.909 603.707 926.582 606.512 919.254 606.512C911.927 606.512 904.6 603.674 899.022 598.128C893.444 592.55 890.639 585.222 890.639 577.893C890.639 570.565 893.444 563.237 899.022 557.626Z" fill="#0078AE"/>
<path d="M1210.29 754.36C1212.77 754.36 1215.15 754.988 1217.46 756.242C1219.73 757.463 1221.55 759.279 1222.84 761.589C1224.16 763.9 1224.78 766.343 1224.78 768.885C1224.78 771.426 1224.16 773.836 1222.87 776.114C1221.58 778.424 1219.8 780.207 1217.52 781.494C1215.21 782.781 1212.8 783.409 1210.29 783.409C1207.79 783.409 1205.34 782.748 1203.07 781.494C1200.79 780.207 1198.97 778.424 1197.72 776.114C1196.43 773.836 1195.77 771.426 1195.77 768.885C1195.77 766.343 1196.43 763.933 1197.75 761.589C1199.04 759.279 1200.85 757.463 1203.13 756.242C1205.41 754.988 1207.82 754.36 1210.29 754.36ZM1210.29 757.199C1208.31 757.199 1206.37 757.694 1204.55 758.718C1202.74 759.708 1201.28 761.127 1200.23 763.009C1199.17 764.89 1198.64 766.838 1198.64 768.885C1198.64 770.931 1199.17 772.879 1200.19 774.694C1201.22 776.543 1202.67 777.962 1204.49 779.018C1206.33 780.042 1208.25 780.57 1210.29 780.57C1212.34 780.57 1214.26 780.075 1216.1 779.018C1217.92 777.995 1219.37 776.543 1220.39 774.694C1221.42 772.846 1221.94 770.898 1221.94 768.885C1221.94 766.871 1221.42 764.89 1220.36 763.009C1219.3 761.127 1217.85 759.708 1216 758.718C1214.19 757.727 1212.24 757.199 1210.26 757.199H1210.29ZM1203.73 776.642V761.226H1206.86C1209.8 761.226 1211.42 761.226 1211.78 761.292C1212.8 761.391 1213.63 761.589 1214.19 761.887C1214.78 762.217 1215.25 762.712 1215.64 763.372C1216.04 764.032 1216.24 764.758 1216.24 765.584C1216.24 766.706 1215.87 767.63 1215.15 768.422C1214.42 769.215 1213.4 769.71 1212.08 769.875C1212.54 770.04 1212.9 770.238 1213.17 770.469C1213.43 770.667 1213.76 771.063 1214.19 771.657C1214.32 771.822 1214.68 772.416 1215.31 773.539L1217.13 776.642H1213.26L1211.98 774.133C1211.12 772.45 1210.39 771.393 1209.83 770.964C1209.24 770.535 1208.55 770.304 1207.65 770.304H1206.86V776.642H1203.73ZM1206.86 767.894H1208.12C1209.93 767.894 1211.05 767.828 1211.48 767.663C1211.91 767.531 1212.24 767.3 1212.51 766.937C1212.77 766.574 1212.87 766.178 1212.87 765.749C1212.87 765.319 1212.77 764.956 1212.51 764.593C1212.27 764.263 1211.91 764.032 1211.45 763.867C1210.99 763.735 1209.9 763.636 1208.08 763.636H1206.83V767.828L1206.86 767.894Z" fill="#0078AE"/>
<path d="M929.189 675.799C931.664 675.799 934.041 676.426 936.351 677.68C938.629 678.902 940.444 680.717 941.731 683.028C943.051 685.339 943.678 687.781 943.678 690.323C943.678 692.865 943.051 695.274 941.764 697.552C940.477 699.863 938.694 701.645 936.417 702.933C934.107 704.22 931.697 704.847 929.189 704.847C926.681 704.847 924.238 704.187 921.961 702.933C919.683 701.645 917.868 699.863 916.614 697.552C915.327 695.274 914.667 692.865 914.667 690.323C914.667 687.781 915.327 685.372 916.647 683.028C917.934 680.717 919.749 678.902 922.027 677.68C924.304 676.426 926.714 675.799 929.189 675.799ZM929.189 678.638C927.209 678.638 925.261 679.133 923.446 680.156C921.631 681.146 920.178 682.566 919.122 684.447C918.066 686.329 917.538 688.276 917.538 690.323C917.538 692.37 918.066 694.317 919.089 696.133C920.112 697.981 921.565 699.401 923.38 700.457C925.228 701.48 927.143 702.008 929.189 702.008C931.235 702.008 933.15 701.513 934.998 700.457C936.813 699.434 938.265 697.981 939.288 696.133C940.311 694.284 940.84 692.337 940.84 690.323C940.84 688.309 940.312 686.329 939.256 684.447C938.2 682.566 936.747 681.146 934.899 680.156C933.083 679.166 931.136 678.638 929.156 678.638H929.189ZM922.621 698.08V682.665H925.756C928.694 682.665 930.311 682.665 930.674 682.731C931.697 682.83 932.523 683.028 933.084 683.325C933.678 683.655 934.14 684.15 934.536 684.81C934.932 685.47 935.13 686.197 935.13 687.022C935.13 688.144 934.767 689.069 934.041 689.861C933.314 690.653 932.292 691.148 930.971 691.313C931.433 691.478 931.796 691.676 932.06 691.907C932.324 692.105 932.655 692.501 933.084 693.096C933.216 693.261 933.579 693.855 934.206 694.977L936.021 698.08H932.159L930.872 695.571C930.014 693.888 929.288 692.832 928.727 692.403C928.133 691.973 927.439 691.742 926.548 691.742H925.756V698.08H922.621ZM925.756 689.333H927.01C928.826 689.333 929.948 689.267 930.377 689.102C930.806 688.97 931.136 688.738 931.4 688.375C931.664 688.012 931.763 687.616 931.763 687.187C931.763 686.758 931.664 686.395 931.4 686.032C931.169 685.702 930.806 685.471 930.344 685.306C929.882 685.173 928.793 685.074 926.977 685.074H925.723V689.267L925.756 689.333Z" fill="#0078AE"/>
<path d="M877.668 203.932L166.735 914.951H303.212L945.922 272.195L877.668 203.932Z" fill="#E31937"/>
</svg>
