<svg width="278" height="470" viewBox="0 0 278 470" fill="none" xmlns="http://www.w3.org/2000/svg">
<g style="mix-blend-mode:multiply">
<path d="M277.31 8.26514H0V463.199H277.31V8.26514Z" fill="#949494"/>
<path opacity="0.99" d="M0.39603 8.36422C0.759087 8.13315 276.551 8.13315 276.914 8.36422C277.079 8.46324 277.178 134.625 277.211 134.922C277.211 135.318 277.244 302.675 277.211 303.137C277.211 303.5 277.013 463.001 276.848 463.1C276.518 463.331 0.825194 463.298 0.495142 463.1C0.330116 463.001 0.164937 305.811 0.131932 305.481C0.0989264 304.985 0.0989264 130.135 0.131932 129.739C0.131932 129.475 0.264041 8.46324 0.429067 8.36422H0.39603Z" fill="#959595"/>
<path opacity="0.98" d="M0.792059 8.46333C1.51817 8.0012 275.759 7.96819 276.485 8.46333C276.815 8.66139 277.013 134.361 277.079 134.922C277.145 135.681 277.145 302.147 277.079 303.104C277.013 303.83 276.716 462.737 276.353 462.968C275.659 463.397 1.61715 463.397 0.957044 462.968C0.593987 462.737 0.264032 306.141 0.231026 305.448C0.165016 304.457 0.165016 130.532 0.231026 129.739C0.297037 129.211 0.528049 8.66139 0.825096 8.46333H0.792059Z" fill="#969696"/>
<path opacity="0.97" d="M1.18804 8.56223C2.27722 7.83603 274.966 7.83603 276.056 8.56223C276.518 8.89232 276.881 134.096 276.947 134.955C277.046 136.11 277.046 301.684 276.947 303.104C276.881 304.193 276.386 462.538 275.857 462.869C274.834 463.529 2.44227 463.496 1.41911 462.869C0.891022 462.538 0.395887 306.504 0.329877 305.447C0.230861 303.962 0.230861 130.961 0.329877 129.772C0.395887 128.947 0.759009 8.85931 1.22108 8.56223H1.18804Z" fill="#979797"/>
<path opacity="0.96" d="M1.58409 8.69427C3.06933 7.737 274.207 7.737 275.659 8.69427C276.287 9.12339 276.749 133.865 276.848 134.988C276.98 136.506 276.98 301.189 276.848 303.104C276.749 304.523 276.121 462.308 275.362 462.803C274.009 463.661 3.23444 463.661 1.88123 462.803C1.15511 462.341 0.527972 306.867 0.395952 305.481C0.263931 303.5 0.263931 131.423 0.395952 129.838C0.494967 128.749 0.956992 9.09038 1.58409 8.69427Z" fill="#989898"/>
<path opacity="0.95" d="M1.98028 8.79332C3.82857 7.60499 273.415 7.57198 275.231 8.79332C276.023 9.32147 276.584 133.601 276.716 135.021C276.881 136.935 276.881 300.727 276.716 303.104C276.584 304.887 275.792 462.109 274.868 462.704C273.184 463.793 4.02675 463.76 2.34349 462.704C1.45235 462.143 0.627224 307.23 0.495203 305.448C0.297172 302.972 0.297172 131.819 0.495203 129.838C0.627224 128.485 1.22116 9.28846 1.98028 8.79332Z" fill="#999999"/>
<path opacity="0.94" d="M2.37631 8.89239C4.58765 7.47299 272.623 7.43998 274.834 8.89239C275.792 9.51957 276.452 133.337 276.617 135.054C276.815 137.331 276.815 300.265 276.617 303.104C276.452 305.25 275.495 461.911 274.405 462.605C272.359 463.892 4.88475 463.892 2.83843 462.605C1.74926 461.911 0.792161 307.56 0.627135 305.448C0.396098 302.477 0.396098 132.248 0.627135 129.871C0.792161 128.254 1.4852 9.48656 2.40934 8.89239H2.37631Z" fill="#9A9A9A"/>
<path opacity="0.94" d="M2.77255 8.99132C5.34696 7.30785 271.864 7.27484 274.405 8.99132C275.528 9.75053 276.32 133.073 276.485 135.054C276.716 137.727 276.716 299.737 276.485 303.071C276.287 305.58 275.197 461.647 273.91 462.473C271.534 463.991 5.67692 463.958 3.30055 462.473C2.04635 461.68 0.924078 307.89 0.726046 305.414C0.462005 301.948 0.462005 132.644 0.726046 129.871C0.891072 127.99 1.71622 9.65157 2.80539 8.95838L2.77255 8.99132Z" fill="#9B9B9B"/>
<path opacity="0.93" d="M3.2014 9.0904C6.13887 7.17586 271.105 7.14285 274.009 9.0904C275.296 9.94864 276.188 132.809 276.386 135.087C276.65 138.124 276.65 299.275 276.386 303.071C276.188 305.943 274.9 461.449 273.448 462.374C270.742 464.09 6.5021 464.09 3.79567 462.374C2.34344 461.449 1.05619 308.253 0.858161 305.414C0.561114 301.453 0.561114 133.073 0.858161 129.904C1.05619 127.726 2.01325 9.88262 3.23444 9.0904H3.2014Z" fill="#9C9C9C"/>
<path opacity="0.92" d="M3.59763 9.18923C6.89815 7.04363 270.313 7.01062 273.613 9.18923C275.032 10.1465 276.056 132.545 276.287 135.087C276.584 138.52 276.584 298.746 276.287 303.038C276.056 306.273 274.636 461.185 272.986 462.241C269.917 464.189 7.3601 464.156 4.29061 462.241C2.67336 461.218 1.22113 308.55 0.990093 305.381C0.660041 300.925 0.660041 133.469 0.990093 129.904C1.22113 127.461 2.27729 10.0475 3.66351 9.15629L3.59763 9.18923Z" fill="#9D9D9D"/>
<path opacity="0.91" d="M3.99362 9.3215C7.6902 6.94484 269.554 6.87882 273.184 9.3215C274.768 10.3778 275.89 132.347 276.154 135.153C276.484 138.949 276.484 298.318 276.154 303.071C275.89 306.636 274.306 461.02 272.458 462.176C269.058 464.354 8.11917 464.321 4.71964 462.176C2.90435 461.053 1.28714 308.946 1.05611 305.414C0.693049 300.463 0.693049 133.932 1.05611 129.97C1.32015 127.264 2.50821 10.2788 4.02645 9.3215H3.99362Z" fill="#9E9E9E"/>
<path opacity="0.9" d="M4.38966 9.42044C8.4493 6.7797 268.761 6.74669 272.788 9.42044C274.537 10.5758 275.791 132.083 276.022 135.186C276.386 139.378 276.386 297.822 276.022 303.071C275.725 306.999 273.976 460.789 271.963 462.076C268.233 464.453 8.91135 464.42 5.18176 462.076C3.20144 460.822 1.41923 309.276 1.12218 305.414C0.726119 299.968 0.726119 134.36 1.12218 130.003C1.38622 127.032 2.70637 10.5097 4.35663 9.42044H4.38966Z" fill="#9F9F9F"/>
<path opacity="0.89" d="M4.78589 9.51952C9.20859 6.64772 267.969 6.61471 272.359 9.51952C274.273 10.8069 275.627 131.819 275.891 135.186C276.287 139.741 276.32 297.327 275.891 303.038C275.594 307.329 273.679 460.558 271.468 461.978C267.408 464.585 9.73671 464.552 5.64406 461.978C3.49872 460.624 1.55133 309.64 1.22128 305.414C0.792208 299.506 0.792208 134.79 1.22128 130.036C1.51832 126.801 2.93757 10.7079 4.75286 9.51952H4.78589Z" fill="#A0A0A0"/>
<path opacity="0.88" d="M5.18189 9.61858C9.96765 6.51571 267.21 6.44969 271.93 9.61858C274.009 11.005 275.461 131.555 275.759 135.219C276.188 140.17 276.221 296.832 275.759 303.038C275.428 307.692 273.349 460.327 270.973 461.878C266.55 464.684 10.5286 464.651 6.10594 461.878C3.76257 460.393 1.65039 310.003 1.32034 305.414C0.825264 299.011 0.858269 135.219 1.32034 130.069C1.65039 126.537 3.20155 10.906 5.14886 9.65162L5.18189 9.61858Z" fill="#A1A1A1"/>
<path opacity="0.87" d="M5.57792 9.71765C10.7267 6.38372 266.418 6.3177 271.534 9.71765C273.778 11.2031 275.33 131.291 275.66 135.219C276.122 140.533 276.155 296.337 275.66 303.005C275.297 308.022 273.085 460.096 270.511 461.747C265.758 464.783 11.3538 464.75 6.60107 461.747C4.09268 460.162 1.81532 310.3 1.45227 305.382C0.924183 298.483 0.957189 135.615 1.45227 130.069C1.81532 126.273 3.46558 11.104 5.57792 9.71765Z" fill="#A2A2A2"/>
<path opacity="0.86" d="M5.97391 9.81648C11.4858 6.25148 265.626 6.15245 271.105 9.81648C273.481 11.4009 275.197 131.026 275.527 135.252C276.022 140.962 276.055 295.842 275.527 303.005C275.131 308.385 272.755 459.898 270.016 461.647C264.933 464.882 12.1789 464.849 7.06314 461.647C4.35671 459.931 1.94719 310.663 1.55113 305.382C0.990038 297.987 0.990038 136.044 1.55113 130.102C1.91418 126.042 3.69655 11.3019 5.97391 9.81648Z" fill="#A3A3A3"/>
<path opacity="0.85" d="M6.36999 9.94862C12.2779 6.11954 264.867 6.05352 270.709 9.94862C273.25 11.6321 275.065 130.796 275.429 135.285C275.957 141.358 275.99 295.38 275.429 303.005C274.999 308.715 272.491 459.667 269.553 461.548C264.108 465.014 13.004 464.981 7.55812 461.548C4.68667 459.733 2.07936 310.993 1.6833 305.382C1.08921 297.492 1.08921 136.473 1.6833 130.135C2.07936 125.811 3.99364 11.5331 6.40302 9.94862H6.36999Z" fill="#A4A4A4"/>
<path opacity="0.84" d="M6.79901 10.0477C13.07 5.98756 264.108 5.92154 270.313 10.0477C273.019 11.8632 274.933 130.532 275.329 135.318C275.89 141.788 275.923 294.918 275.329 303.005C274.9 309.079 272.194 459.469 269.058 461.449C263.283 465.113 13.7961 465.08 8.02018 461.449C4.9507 459.535 2.21139 311.356 1.74932 305.382C1.12222 296.997 1.12222 136.902 1.74932 130.168C2.17838 125.58 4.19156 11.7312 6.76597 10.0477H6.79901Z" fill="#A5A5A5"/>
<path opacity="0.83" d="M7.19504 10.1468C13.8291 5.85555 263.316 5.75653 269.917 10.1468C272.788 12.0613 274.801 130.267 275.23 135.351C275.825 142.184 275.858 294.422 275.23 303.005C274.768 309.442 271.897 459.238 268.596 461.35C262.49 465.245 14.6213 465.212 8.51533 461.35C5.28082 459.304 2.37633 311.719 1.88125 305.382C1.22114 296.502 1.22114 137.364 1.88125 130.201C2.34332 125.316 4.45561 11.9293 7.19504 10.1798V10.1468Z" fill="#A6A6A6"/>
<path opacity="0.82" d="M7.59127 10.2456C14.5884 5.72332 262.557 5.62429 269.488 10.2456C272.524 12.2592 274.636 130.003 275.098 135.351C275.726 142.58 275.759 293.927 275.098 302.972C274.603 309.772 271.6 459.006 268.101 461.218C261.632 465.344 15.4465 465.278 8.97743 461.218C5.54489 459.073 2.47542 312.016 1.98034 305.348C1.28723 295.974 1.28723 137.76 1.98034 130.201C2.44242 125.052 4.71981 12.1271 7.59127 10.2456Z" fill="#A7A7A7"/>
<path opacity="0.81" d="M7.9873 10.3448C15.3475 5.55844 261.764 5.49242 269.059 10.3448C272.26 12.4574 274.504 129.739 274.966 135.384C275.627 142.976 275.66 293.432 274.966 302.972C274.438 310.135 271.27 458.776 267.606 461.119C260.807 465.444 16.2386 465.411 9.43953 461.119C5.84197 458.842 2.60752 312.38 2.07944 305.349C1.35332 295.479 1.35332 138.19 2.07944 130.234C2.57452 124.821 4.95082 12.3253 7.9873 10.3448Z" fill="#A8A8A8"/>
<path opacity="0.81" d="M8.38333 10.4438C16.1065 5.42643 260.972 5.3274 268.663 10.4438C271.996 12.6885 274.372 129.475 274.868 135.384C275.561 143.372 275.594 292.937 274.868 302.939C274.306 310.465 271.006 458.545 267.144 461.02C260.015 465.576 17.0638 465.509 9.93468 461.02C6.13908 458.644 2.77246 312.71 2.21137 305.316C1.45225 294.951 1.45225 138.586 2.21137 130.234C2.73945 124.557 5.21486 12.4904 8.41636 10.4438H8.38333Z" fill="#A9A9A9"/>
<path opacity="0.8" d="M8.77928 10.5427C16.8986 5.2942 260.213 5.19517 268.233 10.5427C271.732 12.8863 274.207 129.211 274.735 135.417C275.461 143.768 275.494 292.442 274.735 302.939C274.174 310.828 270.676 458.346 266.649 460.921C259.19 465.674 17.8889 465.641 10.3967 460.921C6.43608 458.412 2.87148 313.073 2.31039 305.315C1.48526 294.455 1.51827 139.015 2.31039 130.267C2.87148 124.326 5.47879 12.7213 8.81232 10.5427H8.77928Z" fill="#AAAAAA"/>
<path opacity="0.79" d="M9.17551 10.6749C17.6579 5.1954 259.421 5.06336 267.837 10.6749C271.501 13.1176 274.075 128.98 274.636 135.483C275.396 144.23 275.429 292.013 274.636 302.972C274.042 311.191 270.379 458.148 266.187 460.855C258.365 465.84 18.7139 465.774 10.8916 460.855C6.76599 458.247 3.03641 313.469 2.44232 305.349C1.58419 293.993 1.61719 139.477 2.44232 130.334C3.00341 124.095 5.74283 12.9526 9.24139 10.6749H9.17551Z" fill="#ABABAB"/>
<path opacity="0.78" d="M9.57156 10.7739C18.417 5.03027 258.629 4.93124 267.408 10.7739C271.237 13.3156 273.943 128.716 274.504 135.483C275.296 144.593 275.329 291.485 274.504 302.939C273.877 311.521 270.082 457.917 265.659 460.723C257.507 465.906 19.473 465.873 11.3207 460.723C6.99705 457.983 3.13547 313.766 2.47536 305.316C1.58422 293.465 1.58422 139.873 2.47536 130.333C3.06946 123.831 5.94099 13.1175 9.57156 10.7739Z" fill="#ACACAC"/>
<path opacity="0.77" d="M9.96759 10.873C19.176 4.89828 257.87 4.79925 266.979 10.873C270.973 13.5137 273.778 128.452 274.372 135.516C275.197 145.023 275.23 291.022 274.372 302.939C273.712 311.884 269.752 457.686 265.164 460.624C256.682 466.038 20.2982 465.972 11.7828 460.624C7.29413 457.785 3.23456 314.129 2.57446 305.316C1.65031 292.97 1.65031 140.302 2.57446 130.367C3.20156 123.6 6.17199 13.3486 9.96759 10.873Z" fill="#ADADAD"/>
<path opacity="0.76" d="M10.3966 10.9718C19.9682 4.76603 257.111 4.63399 266.616 10.9718C270.775 13.7445 273.679 128.188 274.306 135.516C275.164 145.386 275.197 290.527 274.306 302.906C273.613 312.214 269.521 457.455 264.735 460.492C255.889 466.136 21.1562 466.07 12.3108 460.492C7.62406 457.554 3.43252 314.426 2.73941 305.282C1.78226 292.442 1.78226 140.698 2.73941 130.366C3.39951 123.335 6.46885 13.5135 10.4295 10.9718H10.3966Z" fill="#AEAEAE"/>
<path opacity="0.75" d="M10.7929 11.0708C20.7274 4.63404 256.319 4.502 266.187 11.0708C270.478 13.9427 273.514 127.924 274.174 135.549C275.066 145.815 275.099 290.032 274.174 302.906C273.481 312.578 269.191 457.224 264.24 460.393C255.064 466.235 21.9486 466.169 12.7731 460.393C7.92134 457.323 3.56462 314.789 2.8385 305.282C1.84835 291.947 1.84835 141.127 2.8385 130.399C3.49861 123.104 6.73326 13.7116 10.8259 11.0708H10.7929Z" fill="#AFAFAF"/>
<path opacity="0.74" d="M11.1889 11.1698C21.5195 4.46892 255.559 4.36989 265.791 11.1698C270.247 14.1406 273.415 127.66 274.075 135.549C274.999 146.178 275.032 289.537 274.075 302.873C273.349 312.908 268.893 456.993 263.778 460.261C254.272 466.335 22.8067 466.269 13.2682 460.261C8.21843 457.092 3.69673 315.119 2.97062 305.249C1.94746 291.418 1.94746 141.523 2.97062 130.399C3.66373 122.807 6.99708 13.9096 11.2548 11.1369L11.1889 11.1698Z" fill="#B0B0B0"/>
<path opacity="0.73" d="M11.5849 11.3021C22.2786 4.37011 254.767 4.23807 265.362 11.3021C269.983 14.3719 273.25 127.429 273.943 135.615C274.867 146.64 274.933 289.075 273.943 302.906C273.184 313.271 268.597 456.828 263.283 460.195C253.447 466.467 23.5987 466.401 13.7301 460.195C8.51532 456.894 3.82865 315.482 3.06953 305.283C2.01336 290.956 2.01336 141.986 3.06953 130.466C3.79564 122.609 7.22831 14.1409 11.651 11.3021H11.5849Z" fill="#B1B1B1"/>
<path opacity="0.72" d="M11.9808 11.4009C23.0376 4.23788 253.975 4.10584 264.933 11.4009C269.719 14.6028 273.085 127.164 273.811 135.648C274.768 147.036 274.834 288.613 273.811 302.906C273.019 313.634 268.266 456.597 262.754 460.129C252.556 466.631 24.3577 466.565 14.1591 460.129C8.74623 456.729 3.89457 315.878 3.13545 305.315C2.01328 290.494 2.04628 142.448 3.13545 130.531C3.89457 122.411 7.45914 14.4048 12.0139 11.4339L11.9808 11.4009Z" fill="#B2B2B2"/>
<path opacity="0.71" d="M12.3769 11.5002C23.7967 4.10612 253.216 3.94108 264.537 11.5002C269.488 14.8011 272.953 126.901 273.712 135.648C274.702 147.432 274.768 288.085 273.712 302.873C272.92 313.964 268.002 456.366 262.292 459.997C251.764 466.698 25.2159 466.632 14.6542 459.997C9.07636 456.465 4.05949 316.209 3.23436 305.283C2.07918 289.966 2.11219 142.844 3.23436 130.532C3.99348 122.147 7.69013 14.5701 12.3769 11.5002Z" fill="#B3B3B3"/>
<path opacity="0.7" d="M12.7731 11.599C24.5559 3.97389 252.424 3.80884 264.108 11.599C269.224 14.999 272.821 126.669 273.58 135.681C274.603 147.828 274.669 287.622 273.58 302.873C272.755 314.327 267.672 456.135 261.797 459.898C250.939 466.83 26.0082 466.764 15.1165 459.898C9.34061 456.267 4.19178 316.539 3.33364 305.282C2.14545 289.471 2.17846 143.273 3.33364 130.564C4.12577 121.916 7.92132 14.7679 12.7731 11.6321V11.599Z" fill="#B4B4B4"/>
<path opacity="0.69" d="M13.1689 11.6982C25.3149 3.809 251.632 3.67697 263.712 11.6982C268.959 15.1972 272.689 126.405 273.448 135.681C274.504 148.225 274.57 287.094 273.448 302.807C272.59 314.624 267.342 455.871 261.302 459.733C250.08 466.863 26.8 466.797 15.5783 459.733C9.63733 456.003 4.29051 316.836 3.43237 305.217C2.21118 288.91 2.21118 143.636 3.43237 130.532C4.2575 121.586 8.18516 14.9331 13.1689 11.6652V11.6982Z" fill="#B5B5B5"/>
<path opacity="0.69" d="M13.5652 11.797C26.0741 3.67675 250.873 3.51171 263.283 11.797C268.696 15.395 272.524 126.141 273.316 135.714C274.405 148.62 274.471 286.632 273.316 302.807C272.425 314.987 267.045 455.64 260.807 459.634C249.256 466.995 27.6254 466.929 16.0406 459.634C9.93459 455.772 4.42279 317.166 3.53165 305.216C2.27745 288.415 2.27745 144.065 3.53165 130.564C4.38979 121.355 8.41635 15.131 13.5652 11.797Z" fill="#B6B6B6"/>
<path opacity="0.68" d="M13.9942 11.9293C26.8993 3.57797 250.114 3.41292 262.887 11.9293C268.465 15.6594 272.392 125.91 273.217 135.78C274.339 149.083 274.438 286.203 273.217 302.84C272.293 315.35 266.748 455.475 260.345 459.568C248.463 467.16 28.4506 467.061 16.5357 459.568C10.2317 455.607 4.58773 317.562 3.66358 305.25C2.37638 287.953 2.37638 144.527 3.66358 130.631C4.55472 121.157 8.68039 15.3623 13.9942 11.9293Z" fill="#B7B7B7"/>
<path opacity="0.67" d="M14.3903 12.0281C27.6584 3.44573 249.322 3.28069 262.491 12.0281C268.233 15.8572 272.26 125.646 273.118 135.78C274.273 149.446 274.372 285.675 273.118 302.807C272.194 315.68 266.484 455.21 259.883 459.436C247.671 467.226 29.2757 467.16 16.9978 459.436C10.5288 455.343 4.68682 317.892 3.76268 305.216C2.44247 287.457 2.44247 144.923 3.76268 130.63C4.65382 120.893 8.9444 15.5601 14.3903 11.9951V12.0281Z" fill="#B8B8B8"/>
<path opacity="0.66" d="M14.7863 12.1271C28.4175 3.28059 248.562 3.11554 262.062 12.1271C267.969 16.0552 272.128 125.382 272.986 135.813C274.174 149.875 274.273 285.213 272.986 302.807C272.029 316.043 266.154 455.012 259.355 459.336C246.78 467.358 30.0679 467.259 17.4269 459.336C10.7598 455.144 4.78589 318.222 3.79573 305.183C2.44252 286.929 2.44252 145.319 3.79573 130.63C4.71988 120.628 9.10956 15.725 14.7204 12.094L14.7863 12.1271Z" fill="#B9B9B9"/>
<path opacity="0.65" d="M15.1823 12.2261C29.1765 3.1486 247.77 2.98356 261.665 12.2261C267.738 16.2533 271.996 125.118 272.887 135.813C274.108 150.238 274.207 284.685 272.887 302.774C271.897 316.373 265.89 454.781 258.893 459.205C245.988 467.424 30.8928 467.358 17.9218 459.205C11.0897 454.88 4.95076 318.552 3.9276 305.15C2.54138 286.401 2.54138 145.716 3.9276 130.63C4.88475 120.331 9.37354 15.8902 15.1495 12.1602L15.1823 12.2261Z" fill="#BABABA"/>
<path opacity="0.64" d="M15.5785 12.3252C29.9358 3.01661 246.978 2.85157 261.236 12.3252C267.441 16.4844 271.831 124.854 272.755 135.846C274.009 150.667 274.108 284.222 272.755 302.774C271.732 316.737 265.56 454.55 258.398 459.139C245.163 467.589 31.6851 467.49 18.384 459.139C11.3539 454.715 5.04982 318.915 4.02666 305.183C2.57443 285.939 2.60744 146.178 4.02666 130.696C5.01682 120.134 9.63772 16.1543 15.5456 12.2922L15.5785 12.3252Z" fill="#BBBBBB"/>
<path opacity="0.63" d="M15.9747 12.4243C30.695 2.88461 246.219 2.68655 260.807 12.4243C267.177 16.6825 271.666 124.59 272.623 135.879C273.91 151.063 274.009 283.727 272.623 302.774C271.567 317.1 265.23 454.352 257.903 459.04C244.305 467.688 32.5103 467.622 18.8461 459.04C11.651 454.484 5.18192 319.278 4.12575 305.184C2.64052 285.444 2.67352 146.607 4.12575 130.729C5.11591 119.902 9.86872 16.3524 15.9417 12.4243H15.9747Z" fill="#BCBCBC"/>
<path opacity="0.62" d="M16.3707 12.5564C31.4871 2.75269 245.427 2.58764 260.411 12.5564C266.946 16.9137 271.567 124.359 272.524 135.912C273.844 151.492 273.943 283.265 272.524 302.774C271.468 317.463 264.966 454.121 257.441 458.941C243.512 467.82 33.3352 467.721 19.341 458.941C11.9479 454.286 5.3468 319.642 4.25762 305.184C2.73938 284.949 2.77239 147.036 4.25762 130.763C5.28078 119.671 10.1657 16.5505 16.3707 12.5234V12.5564Z" fill="#BDBDBD"/>
<path opacity="0.61" d="M16.7667 12.6555C32.2462 2.62068 244.635 2.42262 259.982 12.6555C266.682 17.1117 271.402 124.095 272.392 135.945C273.745 151.889 273.844 282.77 272.392 302.774C271.303 317.793 264.636 453.923 256.945 458.842C242.687 467.919 34.1274 467.853 19.8031 458.842C12.2449 454.088 5.44589 319.972 4.35672 305.184C2.80547 284.454 2.83848 147.465 4.35672 130.796C5.41288 119.44 10.3967 16.7817 16.7667 12.6555Z" fill="#BEBEBE"/>
<path opacity="0.6" d="M17.1628 12.7546C33.0053 2.48869 243.876 2.29064 259.586 12.7546C266.451 17.3098 271.27 123.831 272.293 135.945C273.679 152.285 273.778 282.275 272.293 302.741C271.171 318.123 264.372 453.659 256.451 458.71C241.829 468.018 34.9196 467.919 20.2653 458.71C12.5091 453.824 5.57788 320.302 4.4557 305.151C2.87145 283.926 2.87145 147.862 4.4557 130.796C5.54488 119.143 10.6278 16.9467 17.1628 12.7215V12.7546Z" fill="#BFBFBF"/>
<path opacity="0.59" d="M17.5918 12.8534C33.7974 2.35646 243.116 2.1584 259.19 12.8534C266.22 17.5407 271.138 123.566 272.194 135.978C273.613 152.681 273.712 281.813 272.194 302.741C271.039 318.486 264.075 453.461 255.988 458.61C241.037 468.15 35.7776 468.051 20.7602 458.61C12.839 453.626 5.74293 320.632 4.55474 305.15C2.93748 283.43 2.93748 148.29 4.55474 130.828C5.64391 118.912 10.8917 17.1776 17.5588 12.8204L17.5918 12.8534Z" fill="#C0C0C0"/>
<path opacity="0.58" d="M17.9879 12.9525C34.5565 2.22446 242.324 1.99339 258.761 12.9525C265.923 17.7388 271.006 123.302 272.062 135.978C273.514 153.077 273.613 281.285 272.062 302.708C270.874 318.816 263.745 453.23 255.493 458.478C240.212 468.216 36.5698 468.117 21.2223 458.478C13.1361 453.362 5.84184 320.962 4.65365 305.117C3.00339 282.902 3.00339 148.687 4.65365 130.829C5.77583 118.648 11.1228 17.3427 17.9548 12.9194L17.9879 12.9525Z" fill="#C1C1C1"/>
<path opacity="0.57" d="M18.3839 13.0514C35.3156 2.05933 241.565 1.86127 258.365 13.0514C265.692 17.9368 270.874 123.038 271.963 136.011C273.448 153.473 273.547 280.823 271.963 302.708C270.775 319.179 263.481 452.999 255.031 458.379C239.42 468.348 37.3949 468.249 21.7175 458.379C13.4331 453.164 6.00696 321.325 4.78576 305.117C3.1025 282.407 3.1025 149.116 4.78576 130.861C5.94095 118.417 11.3868 17.5406 18.3839 13.0184V13.0514Z" fill="#C2C2C2"/>
<path opacity="0.56" d="M18.7801 13.1837C36.1078 1.96054 240.773 1.76249 257.936 13.1837C265.428 18.1681 270.709 122.807 271.831 136.077C273.349 153.935 273.448 280.361 271.831 302.741C270.61 319.576 263.151 452.834 254.536 458.347C238.562 468.513 38.22 468.414 22.1795 458.347C13.7302 452.999 6.10601 321.721 4.88481 305.184C3.13554 281.978 3.16854 149.611 4.88481 130.961C6.073 118.252 11.651 17.838 18.7801 13.1837Z" fill="#C3C3C3"/>
<path opacity="0.56" d="M19.1761 13.2825C36.8669 1.82829 239.981 1.59723 257.54 13.2825C265.197 18.3659 270.577 122.543 271.732 136.077C273.283 154.298 273.382 279.865 271.732 302.708C270.478 319.873 262.886 452.57 254.074 458.214C237.77 468.612 39.0452 468.513 22.6746 458.214C14.0273 452.768 6.27113 322.051 5.01693 305.15C3.23465 281.45 3.26765 150.007 5.01693 130.96C6.20512 117.955 11.915 18.0028 19.2091 13.2825H19.1761Z" fill="#C4C4C4"/>
<path opacity="0.55" d="M19.5721 13.3816C37.6259 1.6963 239.222 1.46524 257.111 13.3816C264.933 18.597 270.445 122.279 271.6 136.11C273.184 154.727 273.283 279.37 271.6 302.708C270.313 320.236 262.556 452.372 253.579 458.115C236.944 468.711 39.8373 468.612 23.1367 458.115C14.3243 452.537 6.40298 322.381 5.11578 305.15C3.30049 280.955 3.3335 150.469 5.11578 130.994C6.33697 117.724 12.1459 18.2009 19.6051 13.3816H19.5721Z" fill="#C5C5C5"/>
<path opacity="0.54" d="M19.9681 13.4808C38.385 1.5314 238.43 1.30034 256.682 13.4808C264.669 18.7952 270.28 122.015 271.468 136.11C273.085 155.09 273.184 278.875 271.468 302.675C270.181 320.566 262.226 452.108 253.051 457.983C236.053 468.811 40.6295 468.711 23.5658 457.983C14.5554 452.306 6.46906 322.712 5.18185 305.118C3.33356 280.427 3.36657 150.865 5.18185 130.994C6.43605 117.46 12.3769 18.3991 19.9681 13.4808Z" fill="#C6C6C6"/>
<path opacity="0.53" d="M20.3641 13.5796C39.1441 1.39917 237.638 1.16811 256.285 13.5796C264.405 18.9931 270.147 121.751 271.369 136.143C273.019 155.519 273.118 278.38 271.369 302.675C270.048 320.929 261.962 451.909 252.589 457.884C235.261 468.909 41.4544 468.81 24.0607 457.884C14.8852 452.108 6.63392 323.074 5.2807 305.117C3.39941 279.931 3.43241 151.294 5.2807 131.026C6.56791 117.229 12.6079 18.597 20.3641 13.5796Z" fill="#C7C7C7"/>
<path opacity="0.52" d="M20.7602 13.6787C39.9032 1.26718 236.878 1.03612 255.856 13.6787C264.141 19.1912 269.983 121.487 271.237 136.176C272.92 155.916 273.019 277.918 271.237 302.675C269.884 321.292 261.632 451.712 252.094 457.785C234.436 469.041 42.2467 468.942 24.5229 457.785C15.1494 451.877 6.7661 323.405 5.37988 305.117C3.46558 279.436 3.46558 151.723 5.37988 131.06C6.66708 116.998 12.8391 18.7951 20.7274 13.6787H20.7602Z" fill="#C8C8C8"/>
<path opacity="0.51" d="M21.1893 13.7777C40.7284 1.13518 236.119 0.871106 255.493 13.7777C263.943 19.4223 269.883 121.223 271.171 136.176C272.887 156.312 272.986 277.39 271.171 302.642C269.784 321.622 261.401 451.447 251.665 457.653C233.677 469.14 43.1379 469.008 25.051 457.653C15.5125 451.645 6.93105 323.735 5.54483 305.051C3.59752 278.875 3.59752 152.086 5.54483 131.027C6.86504 116.668 13.169 18.9601 21.1893 13.7447V13.7777Z" fill="#C9C9C9"/>
<path opacity="0.5" d="M21.5853 13.9099C41.4874 1.00325 235.327 0.772188 255.064 13.9099C263.679 19.6535 269.751 121.025 271.039 136.242C272.788 156.741 272.887 276.961 271.039 302.675C269.619 322.018 261.071 451.283 251.169 457.587C232.819 469.273 43.9298 469.174 25.5129 457.587C15.7764 451.448 7.06315 324.098 5.64393 305.085C3.66361 278.413 3.66361 152.549 5.64393 131.093C6.99714 116.47 13.4 19.1913 21.5853 13.8768V13.9099Z" fill="#C9C9C9"/>
<path opacity="0.49" d="M21.9813 14.0087C42.2465 0.87102 234.568 0.639955 254.635 14.0087C263.415 19.8513 269.586 120.761 270.874 136.242C272.656 157.137 272.755 276.465 270.874 302.642C269.454 322.315 260.708 451.018 250.641 457.455C231.961 469.371 44.6889 469.239 25.942 457.455C16.0404 451.216 7.16199 324.428 5.70976 305.051C3.69644 277.885 3.69644 152.945 5.70976 131.093C7.09597 116.205 13.6312 19.3561 21.9485 13.9426L21.9813 14.0087Z" fill="#CACACA"/>
<path opacity="0.48" d="M22.3777 14.1078C43.0059 0.739016 233.776 0.474942 254.239 14.1078C263.184 20.0494 269.454 120.497 270.775 136.275C272.59 157.533 272.689 275.97 270.775 302.642C269.322 322.678 260.444 450.82 250.146 457.389C231.135 469.504 45.5142 469.404 26.4042 457.389C16.3376 451.018 7.26121 324.824 5.80898 305.084C3.72966 277.423 3.76266 153.407 5.80898 131.159C7.1952 116.007 13.8623 19.6203 22.3446 14.1078H22.3777Z" fill="#CBCBCB"/>
<path opacity="0.47" d="M22.7737 14.2068C43.765 0.607027 232.984 0.342953 253.81 14.2068C262.887 20.2475 269.29 120.233 270.643 136.308C272.491 157.962 272.59 275.508 270.643 302.642C269.157 323.041 260.114 450.589 249.651 457.29C230.277 469.636 46.3064 469.503 26.8663 457.29C16.6017 450.82 7.3933 325.154 5.87506 305.084C3.76273 276.928 3.79573 153.836 5.87506 131.192C7.29428 115.776 14.0603 19.8184 22.7076 14.2068H22.7737Z" fill="#CCCCCC"/>
<path opacity="0.46" d="M23.1697 14.3059C44.524 0.475028 232.225 0.177944 253.414 14.3059C262.656 20.4786 269.19 119.969 270.544 136.308C272.425 158.325 272.557 274.98 270.544 302.609C269.025 323.372 259.85 450.358 249.189 457.158C229.485 469.702 47.1313 469.603 27.3612 457.158C16.9316 450.589 7.55817 325.484 6.00693 305.051C3.86159 276.399 3.8946 154.232 6.00693 131.192C7.45916 115.479 14.3573 20.0165 23.1366 14.3059H23.1697Z" fill="#CDCDCD"/>
<path opacity="0.45" d="M23.5657 14.4048C45.3162 0.309894 231.433 0.0458198 252.985 14.4048C262.391 20.6766 269.025 119.704 270.412 136.341C272.326 158.754 272.458 274.518 270.412 302.609C268.86 323.735 259.52 450.127 248.694 457.059C228.66 469.834 47.9565 469.702 27.8233 457.059C17.1956 450.358 7.65709 325.814 6.10584 305.051C3.9275 275.904 3.9605 154.661 6.10584 131.225C7.59107 115.248 14.5883 20.2145 23.5327 14.4048H23.5657Z" fill="#CECECE"/>
<path opacity="0.44" d="M23.9618 14.5369C46.0752 0.210864 230.64 -0.0532098 252.556 14.5369C262.127 20.9077 268.86 119.473 270.28 136.374C272.227 159.15 272.359 274.023 270.28 302.609C268.728 324.098 259.223 449.929 248.199 456.96C227.835 469.966 48.7487 469.834 28.2854 456.96C17.4927 450.16 7.78918 326.177 6.20493 305.051C3.99359 275.442 4.02659 155.09 6.20493 131.258C7.69017 115.017 14.8193 20.4125 23.9287 14.5038L23.9618 14.5369Z" fill="#CFCFCF"/>
<path opacity="0.44" d="M24.3578 14.6359C46.8344 0.0788622 229.881 -0.218222 252.16 14.6359C261.896 21.1058 268.728 119.209 270.181 136.407C272.161 159.58 272.293 273.561 270.181 302.609C268.596 324.428 258.926 449.731 247.737 456.861C227.01 470.065 49.5737 469.933 28.7804 456.861C17.7897 449.929 7.95415 326.54 6.33689 305.051C4.09254 274.947 4.09254 155.519 6.33689 131.324C7.85513 114.819 15.1163 20.6766 24.3578 14.6689V14.6359Z" fill="#D0D0D0"/>
<path opacity="0.43" d="M24.7869 14.735C47.6265 -0.0531275 229.122 -0.350211 251.764 14.735C261.665 21.3369 268.629 118.945 270.082 136.407C272.095 159.943 272.227 273.032 270.082 302.576C268.464 324.758 258.629 449.467 247.275 456.729C226.218 470.164 50.4319 470.032 29.2756 456.729C18.1198 449.698 8.08632 326.837 6.46907 305.018C4.19171 274.419 4.19171 155.916 6.46907 131.324C8.02031 114.555 15.3804 20.8417 24.7869 14.735Z" fill="#D1D1D1"/>
<path opacity="0.42" d="M25.1829 14.834C48.3856 -0.218256 228.33 -0.48233 251.368 14.834C261.401 21.5348 268.497 118.681 269.983 136.44C272.029 160.372 272.161 272.57 269.983 302.576C268.332 325.121 258.365 449.269 246.78 456.63C225.393 470.263 51.224 470.131 29.7376 456.63C18.3838 449.467 8.21818 327.201 6.56792 305.018C4.25755 273.924 4.25755 156.345 6.56792 131.357C8.15217 114.291 15.6114 21.0397 25.1829 14.834Z" fill="#D2D2D2"/>
<path opacity="0.41" d="M25.5791 14.933C49.1449 -0.350261 227.571 -0.647343 250.939 14.933C261.137 21.7329 268.332 118.417 269.851 136.473C271.93 160.768 272.062 272.108 269.851 302.576C268.167 325.484 258.035 449.038 246.285 456.531C224.535 470.395 52.0164 470.263 30.1999 456.531C18.6811 449.269 8.31744 327.531 6.63418 305.018C4.29081 273.428 4.29081 156.774 6.63418 131.39C8.21843 114.06 15.8426 21.2707 25.5461 14.966L25.5791 14.933Z" fill="#D3D3D3"/>
<path opacity="0.4" d="M25.9751 15.0321C49.9368 -0.482249 226.779 -0.779333 250.51 15.0321C260.873 21.931 268.167 118.153 269.718 136.473C271.831 161.164 271.963 271.58 269.718 302.543C268.035 325.814 257.738 448.807 245.79 456.432C223.709 470.494 52.8412 470.362 30.6617 456.432C18.9449 449.038 8.44924 327.894 6.73297 305.018C4.32359 272.933 4.3566 157.203 6.73297 131.423C8.35023 113.829 16.0735 21.4689 25.942 15.0651L25.9751 15.0321Z" fill="#D4D4D4"/>
<path opacity="0.39" d="M26.3711 15.1641C50.6959 -0.581291 225.987 -0.911383 250.113 15.1641C260.642 22.1621 268.035 117.922 269.619 136.539C271.765 161.593 271.897 271.151 269.619 302.576C267.903 326.21 257.441 448.609 245.328 456.366C222.917 470.659 53.6664 470.527 31.1569 456.366C19.275 448.873 8.61436 328.29 6.86509 305.051C4.4227 272.471 4.45571 157.665 6.86509 131.489C8.51535 113.631 16.3375 21.6999 26.3711 15.1971V15.1641Z" fill="#D5D5D5"/>
<path opacity="0.38" d="M26.7671 15.2631C51.455 -0.746423 225.195 -1.04351 249.684 15.2631C260.378 22.3931 267.903 117.658 269.488 136.539C271.666 161.989 271.798 270.623 269.488 302.543C267.738 326.507 257.11 448.377 244.833 456.234C222.092 470.725 54.4586 470.593 31.619 456.234C19.5721 448.642 8.71327 328.587 6.964 305.018C4.48861 271.943 4.52161 158.061 6.964 131.489C8.64726 113.367 16.6015 21.8979 26.7671 15.296V15.2631Z" fill="#D6D6D6"/>
<path opacity="0.37" d="M27.1631 15.3621C52.2141 -0.878412 224.435 -1.1755 249.288 15.3621C260.147 22.5912 267.771 117.394 269.388 136.572C271.6 162.385 271.732 270.161 269.388 302.543C267.606 326.87 256.846 448.18 244.37 456.135C221.267 470.857 55.2836 470.725 32.1139 456.135C19.869 448.411 8.87839 328.95 7.09611 305.018C4.58772 271.448 4.62072 158.49 7.09611 131.522C8.77938 113.103 16.8655 22.096 27.1962 15.3951L27.1631 15.3621Z" fill="#D7D7D7"/>
<path opacity="0.36" d="M27.5594 15.4612C52.9734 -1.01041 223.643 -1.34051 248.859 15.4612C259.85 22.7893 267.606 117.13 269.257 136.605C271.501 162.814 271.633 269.665 269.257 302.543C267.474 327.234 256.517 447.948 243.876 456.036C220.442 470.989 56.1089 470.824 32.5762 456.036C20.1663 448.212 9.01049 329.28 7.19521 304.985C4.65381 270.92 4.68681 158.886 7.19521 131.522C8.91148 112.839 17.1298 22.261 27.5924 15.4941L27.5594 15.4612Z" fill="#D8D8D8"/>
<path opacity="0.35" d="M27.9554 15.5603C53.7325 -1.1424 222.851 -1.4725 248.43 15.5603C259.586 22.9874 267.441 116.866 269.124 136.605C271.402 163.178 271.534 269.17 269.124 302.51C267.309 327.564 256.219 447.718 243.347 455.904C219.584 471.055 56.8681 470.923 33.0053 455.904C20.3973 447.949 9.07657 329.61 7.26128 304.952C4.68688 270.392 4.71988 159.283 7.26128 131.522C9.01056 112.575 17.3277 22.4592 27.9554 15.5603Z" fill="#D9D9D9"/>
<path opacity="0.34" d="M28.3843 15.6591C54.5244 -1.27464 222.125 -1.60473 248.067 15.6591C259.388 23.2182 267.375 116.601 269.058 136.638C271.369 163.607 271.501 268.675 269.058 302.509C267.21 327.927 255.955 447.486 242.918 455.804C218.791 471.187 57.7259 471.022 33.5331 455.804C20.7601 447.75 9.27436 329.973 7.39306 304.952C4.78565 269.896 4.78565 159.711 7.39306 131.555C9.17534 112.343 17.5916 22.6571 28.3843 15.6591Z" fill="#DADADA"/>
<path opacity="0.33" d="M28.7805 15.7912C55.3167 -1.40658 221.333 -1.73667 247.638 15.7912C259.124 23.4494 267.21 116.371 268.926 136.671C271.27 164.003 271.402 268.213 268.926 302.51C267.045 328.29 255.625 447.288 242.423 455.706C217.967 471.286 58.5513 471.154 33.9954 455.706C21.0244 447.519 9.40664 330.304 7.49234 304.952C4.85192 269.401 4.85192 160.141 7.49234 131.588C9.30762 112.112 17.8558 22.8882 28.7805 15.7912Z" fill="#DBDBDB"/>
<path opacity="0.32" d="M29.1766 15.8903C56.0759 -1.53857 220.541 -1.86866 247.242 15.8903C258.893 23.6475 267.078 116.106 268.827 136.704C271.204 164.432 271.336 267.751 268.827 302.51C266.913 328.653 255.361 447.057 241.961 455.607C217.174 471.418 59.3764 471.253 34.4904 455.607C21.3544 447.321 9.53845 330.667 7.62415 304.952C4.91772 268.906 4.95073 160.57 7.62415 131.621C9.43944 111.848 18.1199 23.0863 29.1766 15.8903Z" fill="#DCDCDC"/>
<path opacity="0.31" d="M29.5727 15.9894C56.835 -1.67056 219.782 -2.00065 246.813 15.9894C258.629 23.8456 266.913 115.842 268.695 136.704C271.105 164.795 271.237 267.223 268.695 302.477C266.781 328.95 255.031 446.826 241.466 455.508C216.316 471.517 60.1685 471.385 34.9525 455.508C21.6184 447.123 9.67055 330.997 7.72325 304.953C4.98381 268.411 5.01682 160.999 7.72325 131.654C9.57154 111.617 18.3509 23.2844 29.5727 15.9894Z" fill="#DDDDDD"/>
<path opacity="0.31" d="M29.9687 16.0885C57.5941 -1.80256 218.99 -2.16566 246.384 16.0885C258.332 24.0437 266.781 115.578 268.563 136.737C271.006 165.224 271.138 266.761 268.563 302.477C266.616 329.313 254.734 446.595 240.971 455.409C215.491 471.649 60.9935 471.484 35.4145 455.409C21.9153 446.892 9.80247 331.36 7.82216 304.953C5.04972 267.916 5.08273 161.428 7.82216 131.687C9.70345 111.386 18.6149 23.5155 29.9687 16.1214V16.0885Z" fill="#DEDEDE"/>
<path opacity="0.3" d="M30.3649 16.1874C58.3533 -1.96769 218.198 -2.29778 245.988 16.1874C258.101 24.2747 266.649 115.347 268.465 136.77C270.94 165.62 271.072 266.266 268.465 302.477C266.484 329.676 254.437 446.397 240.476 455.31C214.666 471.748 61.7858 471.616 35.8767 455.31C22.1796 446.694 9.90175 331.723 7.92144 304.952C5.11599 267.421 5.149 161.857 7.92144 131.72C9.83574 111.155 18.8461 23.7134 30.3649 16.2203V16.1874Z" fill="#DFDFDF"/>
<path opacity="0.29" d="M30.7609 16.2865C59.1124 -2.09969 217.438 -2.46279 245.559 16.2865C257.837 24.4728 266.484 115.083 268.299 136.77C270.808 166.016 270.94 265.77 268.299 302.444C266.286 330.006 254.074 446.166 239.948 455.178C213.808 471.847 62.5449 471.682 36.3058 455.178C22.4436 446.43 10.0006 332.02 7.98727 304.919C5.14882 266.893 5.18182 162.253 7.98727 131.72C9.90157 110.891 19.0441 23.8785 30.7279 16.3194L30.7609 16.2865Z" fill="#E0E0E0"/>
<path opacity="0.28" d="M31.157 16.3853C59.9045 -2.23192 216.646 -2.59503 245.163 16.3853C257.606 24.6706 266.352 114.819 268.2 136.803C270.742 166.412 270.874 265.275 268.2 302.444C266.154 330.369 253.81 445.935 239.486 455.078C212.983 471.979 63.4031 471.814 36.8009 455.078C22.7737 446.232 10.1657 332.383 8.08636 304.919C5.21491 266.397 5.24791 162.682 8.08636 131.753C10.0337 110.627 19.3081 24.1094 31.1239 16.4182L31.157 16.3853Z" fill="#E1E1E1"/>
<path opacity="0.27" d="M31.553 16.5173C60.6636 -2.33096 215.854 -2.69406 244.734 16.5173C257.342 24.9017 266.22 114.588 268.068 136.836C270.643 166.842 270.775 264.813 268.068 302.411C266.022 330.7 253.48 445.704 238.991 454.946C212.157 472.045 64.1951 471.88 37.2629 454.946C23.0376 445.968 10.2646 332.68 8.18527 304.886C5.28081 265.869 5.31382 163.111 8.18527 131.753C10.1656 110.363 19.5391 24.2746 31.52 16.4844L31.553 16.5173Z" fill="#E2E2E2"/>
<path opacity="0.26" d="M31.9822 16.6165C61.4558 -2.49585 215.128 -2.85896 244.338 16.6165C257.111 25.0999 266.088 114.324 267.969 136.869C270.577 167.238 270.709 264.318 267.969 302.411C265.89 331.03 253.216 445.473 238.529 454.847C211.366 472.177 65.0204 472.012 37.7581 454.847C23.3678 445.77 10.4298 333.043 8.31748 304.886C5.38001 265.374 5.38001 163.541 8.31748 131.786C10.3308 110.132 19.8032 24.4727 31.9491 16.6165H31.9822Z" fill="#E3E3E3"/>
<path opacity="0.25" d="M32.3781 16.7156C62.2148 -2.62784 214.336 -2.99094 243.941 16.7156C256.846 25.331 265.956 114.06 267.87 136.902C270.511 167.667 270.676 263.856 267.87 302.411C265.758 331.393 252.919 445.275 238.067 454.748C210.54 472.276 65.8785 472.111 38.2531 454.748C23.6648 445.539 10.5947 333.406 8.44935 304.886C5.47888 264.879 5.47888 163.97 8.44935 131.819C10.4627 109.901 20.1002 24.7038 32.3781 16.7156Z" fill="#E4E4E4"/>
<path opacity="0.24" d="M32.7741 16.8147C62.9739 -2.75983 213.544 -3.12293 243.512 16.8147C256.583 25.5291 265.791 113.796 267.738 136.902C270.412 168.03 270.577 263.328 267.738 302.378C265.593 331.723 252.622 445.011 237.571 454.649C209.715 472.408 66.6704 472.243 38.715 454.649C23.9617 445.341 10.6937 333.737 8.54839 304.886C5.51191 264.384 5.54491 164.399 8.54839 131.852C10.5947 109.67 20.3311 24.9019 32.7741 16.8147Z" fill="#E5E5E5"/>
<path opacity="0.23" d="M33.1703 16.9137C63.7332 -2.89184 212.785 -3.28795 243.116 16.9137C256.352 25.7272 265.659 113.532 267.639 136.935C270.346 168.459 270.511 262.866 267.639 302.378C265.461 332.086 252.325 444.813 237.077 454.55C208.89 472.508 67.4628 472.342 39.1773 454.55C24.2259 445.143 10.8258 334.1 8.64748 304.886C5.578 263.922 5.611 164.828 8.64748 131.885C10.7268 109.406 20.5623 25.0999 33.1703 16.9467V16.9137Z" fill="#E6E6E6"/>
<path opacity="0.22" d="M33.5663 17.0127C64.5252 -3.05696 211.993 -3.42007 242.687 17.0127C256.088 25.9252 265.527 113.268 267.507 136.935C270.247 168.822 270.412 262.37 267.507 302.345C265.329 332.416 251.995 444.582 236.581 454.418C208.065 472.606 68.2879 472.441 39.6394 454.418C24.523 444.879 10.9248 334.397 8.71349 304.853C5.611 263.394 5.64401 165.224 8.71349 131.885C10.8258 109.141 20.7933 25.298 33.5333 17.0127H33.5663Z" fill="#E7E7E7"/>
<path opacity="0.21" d="M33.9624 17.1444C65.2843 -3.15625 211.2 -3.55237 242.258 17.1444C255.824 26.189 265.362 113.036 267.375 137.001C270.148 169.284 270.313 261.908 267.375 302.377C265.164 332.812 251.698 444.383 236.086 454.352C207.207 472.738 69.0801 472.573 40.1015 454.352C24.7871 444.713 11.0568 334.793 8.81241 304.853C5.67691 262.898 5.70992 165.653 8.81241 131.918C10.9247 108.91 21.0245 25.4958 33.9295 17.1444H33.9624Z" fill="#E8E8E8"/>
<path opacity="0.2" d="M34.3584 17.2435C66.0434 -3.28824 210.441 -3.68435 241.862 17.2435C255.592 26.3871 265.23 112.772 267.276 137.034C270.082 169.68 270.247 261.446 267.276 302.377C265.032 333.142 251.401 444.185 235.624 454.253C206.415 472.87 69.905 472.705 40.5964 454.253C25.117 444.482 11.2219 335.156 8.94452 304.853C5.77602 262.403 5.80902 166.082 8.94452 131.951C11.0899 108.679 21.3213 25.6939 34.3584 17.2435Z" fill="#E9E9E9"/>
<path opacity="0.19" d="M34.7546 17.3426C66.8027 -3.42023 209.649 -3.81634 241.433 17.3426C255.295 26.5852 265.065 112.508 267.144 137.034C269.95 170.076 270.148 260.918 267.144 302.345C264.867 333.472 251.104 443.921 235.129 454.121C205.589 472.97 70.7302 472.771 41.0585 454.121C25.381 444.251 11.3208 335.453 9.04343 304.82C5.84193 261.875 5.87493 166.478 9.04343 131.951C11.2218 108.415 21.5525 25.8921 34.7546 17.3097V17.3426Z" fill="#EAEAEA"/>
<path opacity="0.19" d="M35.1506 17.4417C67.5617 -3.55223 208.857 -3.98135 241.037 17.4417C255.064 26.7833 264.966 112.244 267.045 137.067C269.884 170.473 270.082 260.456 267.045 302.345C264.735 333.835 250.807 443.723 234.667 454.022C204.764 473.069 71.5554 472.903 41.5536 454.022C25.7111 444.02 11.4859 335.816 9.17555 304.82C5.94104 261.38 5.97404 166.908 9.17555 131.984C11.3869 108.151 21.8164 26.0901 35.1835 17.4417H35.1506Z" fill="#EBEBEB"/>
<path opacity="0.18" d="M35.5797 17.5408C68.3538 -3.71712 208.131 -4.11323 240.641 17.5408C254.833 26.9815 264.834 111.98 266.946 137.067C269.818 170.869 270.016 259.928 266.946 302.312C264.636 334.166 250.509 443.459 234.172 453.89C203.939 473.168 72.3473 472.97 42.0155 453.89C26.008 443.789 11.6178 336.113 9.2744 304.787C6.00688 260.852 6.03989 167.304 9.2744 131.984C11.4857 107.887 22.0805 26.2883 35.5797 17.5078V17.5408Z" fill="#ECECEC"/>
<path opacity="0.17" d="M35.9757 17.6397C69.1459 -3.84935 207.339 -4.24546 240.212 17.6397C254.569 27.2124 264.669 111.716 266.814 137.1C269.719 171.265 269.917 259.465 266.814 302.311C264.471 334.528 250.212 443.261 233.677 453.791C203.114 473.266 73.1394 473.101 42.4776 453.791C26.272 443.591 11.7168 336.476 9.37346 304.787C6.03994 260.357 6.07294 167.733 9.37346 132.017C11.6178 107.656 22.3115 26.4861 35.9757 17.6066V17.6397Z" fill="#EDEDED"/>
<path opacity="0.16" d="M36.3719 17.7719C69.9052 -3.94815 206.547 -4.37727 239.816 17.7719C254.338 27.4437 264.537 111.485 266.715 137.133C269.653 171.694 269.851 258.971 266.715 302.312C264.339 334.892 249.915 443.063 233.215 453.725C202.322 473.432 73.9978 473.234 42.9729 453.725C26.6023 443.393 11.8819 336.872 9.47256 304.82C6.10603 259.895 6.13903 168.195 9.47256 132.083C11.7499 107.458 22.5427 26.7174 36.3719 17.7719Z" fill="#EEEEEE"/>
<path opacity="0.15" d="M36.7679 17.8708C70.6643 -4.08039 205.788 -4.50951 239.387 17.8708C254.074 27.6415 264.405 111.221 266.583 137.166C269.554 172.09 269.752 258.508 266.583 302.312C264.174 335.255 249.618 442.832 232.72 453.626C201.464 473.531 74.7898 473.366 43.4348 453.626C26.8662 443.195 12.014 337.202 9.57165 304.82C6.17212 259.4 6.20512 168.624 9.57165 132.116C11.882 107.227 22.8067 26.9483 36.7679 17.8708Z" fill="#EFEFEF"/>
<path opacity="0.14" d="M37.1639 17.9697C71.4233 -4.24553 204.995 -4.67465 238.991 17.9697C253.81 27.8395 264.273 110.957 266.484 137.199C269.488 172.519 269.686 258.046 266.484 302.311C264.075 335.585 249.321 442.634 232.258 453.527C200.672 473.662 75.615 473.464 43.93 453.527C27.1963 442.964 12.146 337.565 9.70358 304.82C6.27104 258.904 6.30405 169.053 9.70358 132.149C12.0139 106.963 23.0707 27.1463 37.1639 18.0027V17.9697Z" fill="#F0F0F0"/>
<path opacity="0.13" d="M37.5599 18.0688C72.1824 -4.37752 204.203 -4.80664 238.562 18.0688C253.546 28.0706 264.108 110.693 266.352 137.199C269.389 172.882 269.587 257.518 266.352 302.279C263.91 335.915 248.991 442.37 231.762 453.395C199.846 473.762 76.4401 473.564 44.392 453.395C27.4604 442.733 12.2778 337.862 9.80244 304.787C6.33689 258.376 6.36989 169.449 9.80244 132.149C12.1458 106.699 23.3017 27.3114 37.5599 18.0688Z" fill="#F1F1F1"/>
<path opacity="0.12" d="M37.956 18.1679C72.9415 -4.50951 203.444 -4.93863 238.133 18.1679C253.282 28.2687 263.943 110.429 266.22 137.232C269.289 173.311 269.487 257.056 266.22 302.279C263.744 336.278 248.694 442.172 231.267 453.296C198.988 473.861 77.2322 473.663 44.8541 453.296C27.7574 442.502 12.4099 338.226 9.90153 304.787C6.40298 257.881 6.43598 169.878 9.90153 132.182C12.2779 106.468 23.5657 27.5425 37.956 18.1679Z" fill="#F2F2F2"/>
<path opacity="0.11" d="M38.352 18.2669C73.7336 -4.64151 202.652 -5.10364 237.737 18.2669C253.051 28.4668 263.844 110.165 266.121 137.232C269.223 173.675 269.421 256.528 266.121 302.246C263.613 336.608 248.397 441.908 230.772 453.164C198.163 473.96 78.0242 473.762 45.316 453.164C28.0213 442.271 12.509 338.556 10.0006 304.754C6.46907 257.353 6.50207 170.275 10.0006 132.182C12.41 106.204 23.7967 27.7076 38.352 18.2669Z" fill="#F3F3F3"/>
<path opacity="0.1" d="M38.748 18.3988C74.4927 -4.77368 201.86 -5.2028 237.307 18.3988C252.787 28.6977 263.679 109.934 265.989 137.298C269.125 174.137 269.323 256.099 265.989 302.279C263.448 337.004 248.1 441.743 230.277 453.098C197.338 474.092 78.8494 473.894 45.7782 453.098C28.3184 442.073 12.6409 338.919 10.0995 304.787C6.53497 256.891 6.56798 170.737 10.0995 132.248C12.5089 106.005 24.0277 27.9385 38.748 18.3988Z" fill="#F4F4F4"/>
<path opacity="0.09" d="M39.1771 18.4979C75.2848 -4.90567 201.134 -5.33479 236.944 18.4979C252.589 28.8958 263.58 109.702 265.89 137.331C269.058 174.533 269.256 255.604 265.89 302.279C263.348 337.367 247.803 441.512 229.815 452.999C196.513 474.224 79.6746 474.026 46.2733 452.999C28.6155 441.875 12.806 339.282 10.1986 304.787C6.60106 256.396 6.63407 171.166 10.1986 132.281C12.641 105.741 24.2917 28.1696 39.1441 18.4979H39.1771Z" fill="#F5F5F5"/>
<path opacity="0.08" d="M39.5733 18.597C76.0441 -5.03767 200.342 -5.4998 236.515 18.597C252.292 29.1269 263.415 109.438 265.758 137.331C268.96 174.929 269.158 255.108 265.758 302.246C263.184 337.665 247.473 441.281 229.32 452.867C195.688 474.29 80.4667 474.092 46.7354 452.867C28.9126 441.644 12.9051 339.579 10.2977 304.754C6.63412 255.868 6.66713 171.562 10.2977 132.281C12.7731 105.477 24.5229 28.3347 39.5403 18.597H39.5733Z" fill="#F6F6F6"/>
<path opacity="0.07" d="M39.9693 18.696C76.8031 -5.16966 199.55 -5.63179 236.086 18.696C252.028 29.325 263.25 109.174 265.626 137.364C268.86 175.325 269.058 254.613 265.626 302.246C263.019 338.028 247.176 441.083 228.825 452.801C194.863 474.455 81.2919 474.257 47.1975 452.801C29.2096 441.446 13.0372 339.975 10.3968 304.787C6.70021 255.405 6.73322 172.024 10.3968 132.347C12.9052 105.279 24.7869 28.5658 39.9363 18.7291L39.9693 18.696Z" fill="#F7F7F7"/>
<path opacity="0.06" d="M40.3653 18.7951C77.5622 -5.30166 198.79 -5.7968 235.69 18.7951C251.797 29.5231 263.151 108.91 265.527 137.364C268.794 175.721 268.992 254.118 265.527 302.213C262.887 338.358 246.879 440.819 228.363 452.669C194.071 474.521 82.117 474.323 47.6926 452.669C29.5067 441.215 13.1691 340.305 10.5287 304.721C6.79908 254.844 6.83208 172.387 10.5287 132.314C13.0371 104.982 25.0509 28.7309 40.3653 18.7951Z" fill="#F8F8F8"/>
<path opacity="0.06" d="M40.7613 18.894C78.3213 -5.4668 197.998 -5.92893 235.261 18.894C251.533 29.7211 262.985 108.646 265.395 137.397C268.695 176.117 268.893 253.656 265.395 302.213C262.721 338.721 246.582 440.62 227.868 452.57C193.212 474.653 82.9092 474.455 48.1547 452.57C29.8038 440.983 13.301 340.635 10.6276 304.721C6.86498 254.349 6.89799 172.816 10.6276 132.347C13.169 104.751 25.2819 28.9289 40.7613 18.894Z" fill="#F9F9F9"/>
<path opacity="0.05" d="M41.1574 18.9931C79.1134 -5.59878 197.206 -6.06092 234.865 18.9931C251.302 29.9192 262.853 108.382 265.296 137.43C268.629 176.546 268.827 253.161 265.296 302.213C262.622 339.084 246.285 440.389 227.373 452.471C192.387 474.785 83.7341 474.554 48.6166 452.471C30.0677 440.786 13.4331 340.999 10.7267 304.721C6.93107 253.854 6.96408 173.245 10.7267 132.38C13.3011 104.487 25.5459 29.16 41.1574 18.9931Z" fill="#FAFAFA"/>
<path opacity="0.04" d="M41.5536 19.1251C79.8727 -5.69783 196.447 -6.19297 234.436 19.1251C251.038 30.1832 262.689 108.151 265.164 137.463C268.53 176.942 268.761 252.699 265.164 302.213C262.457 339.447 245.988 440.191 226.878 452.372C191.562 474.884 84.5263 474.686 49.0787 452.372C30.3648 440.554 13.5322 341.362 10.7927 304.721C6.96414 253.359 6.99715 173.675 10.7927 132.413C13.4002 104.256 25.7441 29.358 41.5206 19.1251H41.5536Z" fill="#FBFBFB"/>
<path opacity="0.03" d="M41.9496 19.2242C80.6317 -5.82982 195.655 -6.32496 234.04 19.2242C250.773 30.3813 262.589 107.887 265.065 137.496C268.464 177.372 268.695 252.204 265.065 302.213C262.325 339.777 245.691 439.96 226.416 452.273C190.737 475.016 85.3515 474.785 49.5738 452.273C30.6618 440.356 13.6971 341.692 10.9246 304.721C7.06304 252.864 7.09604 174.104 10.9246 132.446C13.5651 104.025 26.0081 29.5561 41.9496 19.2242Z" fill="#FCFCFC"/>
<path opacity="0.02" d="M42.3789 19.3232C81.424 -5.99495 194.896 -6.45708 233.644 19.3232C250.543 30.5793 262.458 107.623 264.966 137.496C268.399 177.735 268.63 251.708 264.966 302.18C262.194 340.107 245.394 439.729 225.954 452.141C189.945 475.082 86.2096 474.884 50.0689 452.141C30.9919 440.092 13.8622 342.022 11.0568 304.688C7.16215 252.336 7.19515 174.5 11.0568 132.446C13.6972 103.761 26.3053 29.7541 42.3789 19.2902V19.3232Z" fill="#FDFDFD"/>
</g>
</svg>
