<svg width="50" height="300" viewBox="0 0 50 300" fill="none" xmlns="http://www.w3.org/2000/svg">
<path fill-rule="evenodd" clip-rule="evenodd" d="M25.2339 11C33.4556 10.9836 41.2582 15.9644 41.4614 22.2297C41.5439 24.7731 40.0107 26.3447 38.0076 27.0552C37.2013 27.3423 36.3189 27.4858 35.4364 27.4929C34.1063 27.5046 32.7762 27.2082 31.6874 26.6388L31.9731 28.5445C32.189 29.9656 30.6938 31.2314 28.7321 31.2314H21.7325C19.7707 31.2314 18.2756 29.968 18.4915 28.5445L18.7771 26.6388C17.6915 27.2105 16.3614 27.5046 15.0282 27.4929C14.1457 27.4858 13.2632 27.3423 12.4569 27.0552C10.4507 26.3447 8.92065 24.7731 9.00319 22.2297C9.20635 15.9644 17.009 10.9836 25.2307 11H25.2339Z" fill="#D8A96C"/>
<path fill-rule="evenodd" clip-rule="evenodd" d="M25.3198 11C33.5415 10.9836 41.3442 15.9644 41.5473 22.2297C41.6299 24.7731 40.0966 26.3447 38.0936 27.0552C37.2873 27.3423 36.4048 27.4858 35.5223 27.4929C34.1922 27.5046 32.8622 27.2082 31.7734 26.6388L32.0591 28.5445C32.2749 29.9656 30.7798 31.2314 28.818 31.2314H21.8185C19.8567 31.2314 18.3615 29.968 18.5774 28.5445L18.8631 26.6388C17.7775 27.2105 16.4474 27.5046 15.1141 27.4929C14.2317 27.4858 13.3492 27.3423 12.5429 27.0552C10.5367 26.3447 9.00659 24.7731 9.08912 22.2297C9.29229 15.9644 17.095 10.9836 25.3166 11H25.3198ZM28.8212 29.8668C29.6973 29.8668 30.3354 29.3257 30.2401 28.6928C30.0846 27.6693 29.7576 26.2741 29.5386 25.0036C29.3608 23.9849 28.9069 22.2839 29.9735 21.4957C31.1639 20.6158 33.6177 20.7404 34.6462 21.6251C28.9704 20.6863 30.6528 26.1777 35.5065 26.1377C36.1255 26.133 36.7413 26.0318 37.3032 25.8342C38.7062 25.3354 39.7792 24.1802 39.7189 22.265C39.5411 16.7784 32.6305 12.3458 25.3198 12.3599C18.0124 12.3458 11.1017 16.7784 10.9207 22.265C10.8573 24.1825 11.9302 25.3354 13.3365 25.8342C13.8983 26.0341 14.5142 26.133 15.1332 26.1377C19.9868 26.1777 21.6693 20.6863 15.9934 21.6251C17.0251 20.7404 19.4758 20.6158 20.6661 21.4957C21.7327 22.2839 21.2788 23.9849 21.101 25.0036C20.8788 26.2765 20.555 27.6693 20.3995 28.6928C20.3043 29.3257 20.9423 29.8668 21.8185 29.8668H28.818H28.8212Z" fill="#231F20"/>
<path d="M25.3194 14.7549C28.0653 14.7549 30.5984 15.0443 32.6301 15.5314C31.2206 14.3291 28.4748 13.5127 25.3194 13.5127C22.1641 13.5127 19.415 14.3291 18.0088 15.5314C20.0436 15.0443 22.5736 14.7549 25.3194 14.7549Z" fill="#E2BE91"/>
<path fill-rule="evenodd" clip-rule="evenodd" d="M15.1038 62.8233C20.6473 59.2293 28.2738 57.9217 34.8627 59.0042C37.1644 59.381 38.8418 60.4686 39.4231 61.9609C41.0927 66.2328 39.0759 71.1775 33.5325 74.7715C27.0177 78.9954 17.6317 80.0602 10.4265 77.8041C6.94672 73.1326 8.58907 67.0472 15.1038 62.8233Z" fill="#B6EF18"/>
<path d="M18.3926 79.6101C15.4044 79.6101 12.5761 79.1979 9.9897 78.3885L9.67761 78.2899L9.52547 78.085C5.74924 73.0164 7.70757 66.6983 14.3979 62.3632C19.9218 58.7818 28.0789 57.2212 35.1126 58.3745C37.7536 58.807 39.7314 60.0894 40.3985 61.7992C42.2125 66.4454 39.8563 71.5924 34.2465 75.2295C29.9553 78.0117 24.1779 79.6101 18.4004 79.6101H18.3926ZM11.1756 77.3186C13.4031 77.9762 15.8296 78.3126 18.3926 78.3126C23.6434 78.3126 28.906 76.8558 32.8226 74.3139C37.9369 70.998 40.0942 66.3265 38.4519 62.1204C37.9603 60.8583 36.5599 59.9528 34.6171 59.6341C28.2467 58.5921 20.8425 60.016 15.8101 63.2838C9.81415 67.1713 7.97675 72.7812 11.1756 77.3186Z" fill="#231F20"/>
<path fill-rule="evenodd" clip-rule="evenodd" d="M32.9174 71.6052C30.2841 72.6093 27.846 72.9609 21.5418 72.4095C26.4728 69.4655 31.0058 66.3722 32.7496 62.6011C30.3504 65.0393 27.2296 67.1411 23.8396 69.1265C22.4274 66.9261 22.3533 65.9675 22.8292 64.8546C21.3351 66.5518 22.3845 68.7699 22.915 69.6602C20.8631 70.8338 18.7331 71.9745 16.6109 73.1228C14.2703 69.4503 14.1766 67.8493 14.9803 65.9726C12.5343 68.7522 14.0986 72.3665 15.0271 73.9878C11.8243 75.7431 8.70344 77.5464 6 79.5622L8.39135 80.8724C11.3094 78.2926 15.4991 75.9479 19.6186 73.5452C20.352 73.6286 28.4584 74.4683 32.9096 71.6103L32.9174 71.6052Z" fill="#231F20"/>
<path d="M36.0152 119.129C35.2776 117.693 33.639 116.279 31.0451 114.843C27.4203 112.836 26.9759 110.187 26.9608 110.088L26.8187 109L25.682 109.061C25.3767 109.079 22.6497 109.332 20.6242 113.086C20.2765 113.735 20.0589 114.328 19.8926 114.898C19.037 115.005 17.595 115.238 16.1348 115.695C12.7458 116.759 11.594 118.332 11.3189 119.714C8.9245 120.522 5.61108 122.849 6.03735 127.508C6.72362 134.988 19.7687 135.148 24.0555 135.2C24.2067 135.2 24.3609 135.2 24.512 135.2C28.3454 135.2 32.1456 134.613 35.0055 133.568C39.0505 132.094 41.3572 129.715 41.6746 126.694C42.2763 120.976 37.554 119.467 36.0152 119.129ZM39.244 126.458C38.7784 130.878 31.3716 132.853 24.5211 132.853C24.376 132.853 24.2309 132.853 24.0858 132.853C17.1869 132.769 8.87614 131.736 8.47103 127.304C8.18383 124.169 10.1973 122.75 11.5637 122.154C11.9356 123.195 12.6098 124.137 13.6014 124.914C15.6692 126.534 18.9433 127.386 22.9007 127.386C24.2641 127.386 25.7062 127.284 27.2117 127.08C27.2117 127.08 19.82 127.319 15.1462 123.093C14.2906 122.32 13.7404 121.523 13.6769 120.548C13.553 118.644 17.1143 117.594 19.5842 117.262C19.6568 118.655 20.1466 119.51 20.1828 119.571C20.1828 119.571 20.7996 112.798 24.9413 111.754C25.5067 113.112 26.8187 115.221 29.8238 116.884C33.5423 118.943 33.9958 120.342 34.029 120.848C34.3434 125.382 31.4472 126.676 31.4472 126.676C35.3895 125.876 36.3266 123.582 36.4596 121.7C37.7626 122.203 39.5554 123.451 39.238 126.464L39.244 126.458Z" fill="#231F20"/>
<path fill-rule="evenodd" clip-rule="evenodd" d="M25.9723 163.578C27.6226 163.578 29.1109 164.402 30.1599 165.721C30.8763 165.34 31.6695 165.129 32.5053 165.129C35.6908 165.129 38.2751 168.206 38.2751 171.997C38.2751 179.528 34.5736 192.967 28.8465 192.967C27.3369 192.967 25.9936 192.097 25.1578 190.757C24.322 192.097 22.9829 192.967 21.4691 192.967C15.6525 192.967 12.0405 180.242 12.0405 171.997C12.0405 168.206 14.6248 165.129 17.8103 165.129C19.1024 165.129 20.2921 165.636 21.2559 166.486C22.3006 164.723 24.0235 163.574 25.9723 163.574V163.578Z" fill="#69A53A"/>
<path fill-rule="evenodd" clip-rule="evenodd" d="M23.6183 163.189C22.5992 163.59 21.6482 164.241 20.9104 165.201C19.9211 164.537 18.8081 164.186 17.6525 164.186C13.9851 164.186 11 167.741 11 172.106C11 180.009 14.4456 194.125 21.3113 194.125C22.6802 194.125 23.9979 193.504 25 192.422C26.0021 193.504 27.3198 194.125 28.6887 194.125C35.3625 194.125 39 179.578 39 172.106C39 167.741 36.0149 164.186 32.3475 164.186C31.6098 164.186 30.8934 164.326 30.2068 164.605C29.6823 164.051 29.0725 163.658 28.4371 163.349C28.3689 161.553 29.162 160.197 30.5096 160.197V156C27.1748 156 24.0064 159.288 23.6226 163.189H23.6183ZM32.3475 166.287C35.0426 166.287 37.2345 168.899 37.2345 172.106C37.2345 179.105 33.7079 192.025 28.6887 192.025C27.5032 192.025 26.4158 191.374 25.7079 190.237L25.6524 190.148C24.7953 188.758 23.3625 185.926 22.6759 184.071C22.5394 185.96 23.0256 188.8 23.8998 190.731C23.2089 191.547 22.3006 192.025 21.307 192.025C16.3475 192.025 12.7569 180.128 12.7569 172.106C12.7569 168.899 14.9488 166.287 17.6482 166.287C18.4243 166.287 19.1706 166.502 19.8443 166.912C18.71 169.317 18.177 173.78 20.5949 177.004C20.0021 174.604 19.6098 171.189 21.6908 167.402L21.8102 167.204C22.7271 165.657 24.2239 164.736 25.8102 164.736C27.1663 164.736 28.4243 165.382 29.3582 166.553L29.4435 166.659C31.2857 169.11 30.936 170.479 31.1322 171.958C32.0107 169.389 31.8401 167.618 31.371 166.409C31.6908 166.333 32.0149 166.291 32.3433 166.291L32.3475 166.287Z" fill="#231F20"/>
<path fill-rule="evenodd" clip-rule="evenodd" d="M26.2239 168.59L25.7463 167.525L25.2687 166.46C23.5885 167.529 21.0725 170.188 22.113 174.067C22.6759 171.667 24.2367 169.089 26.2239 168.59Z" fill="white"/>
<path fill-rule="evenodd" clip-rule="evenodd" d="M17.047 169.431L16.7015 168.662L16.3561 167.893C15.145 168.666 13.3242 170.585 14.079 173.387C14.4841 171.654 15.6141 169.79 17.047 169.431Z" fill="white"/>
<path d="M26.2829 214.529C26.2829 214.529 37.5155 217.839 38.8356 220.115C40.1557 222.39 41.039 225.909 39.4973 227.771C37.9555 229.633 33.1117 232.531 30.9083 233.566C28.7048 234.601 24.9531 235.225 24.9531 235.225C24.9531 235.225 29.1449 232.944 29.1449 227.563C29.1449 222.182 28.7048 218.253 27.6031 217.218C26.5013 216.183 26.2829 214.529 26.2829 214.529Z" fill="#C55450"/>
<path d="M20.5555 212.458C20.5555 212.458 28.4828 215.768 29.3661 219.079C30.2462 222.39 30.0278 230.046 28.046 232.321C26.0641 234.597 23.8607 237.289 21.6604 237.494C19.457 237.702 13.0715 236.459 11.9697 235.01C10.868 233.562 8.66771 229.424 8.44608 226.527C8.22445 223.63 8.22445 220.528 9.32618 218.457C10.4279 216.387 11.0896 214.938 12.4098 214.112C13.7299 213.285 16.8135 212.25 16.8135 212.25L20.5587 212.458H20.5555Z" fill="white"/>
<path d="M37.0844 217.872C33.6507 216.085 29.2213 214.097 25.7876 212.582C23.6677 211.534 21.2715 210.988 18.8593 211C18.8593 211 18.8592 211 18.856 211C17.3303 211.009 15.8431 211.344 14.4427 211.999C9.88159 214.13 6.96183 219.194 7.00038 224.907C7.05498 232.536 12.4576 238.71 19.0455 238.671C19.4278 238.671 19.8068 238.647 20.1858 238.602C22.0392 238.454 23.854 237.998 25.4889 237.235C25.6399 237.162 25.7941 237.09 25.945 237.011L37.155 231.772C40.033 230.538 41.8286 227.867 41.8093 224.822C41.79 221.735 39.9463 219.052 37.0844 217.866V217.872ZM9.14925 224.898C9.11713 220.03 11.6289 215.575 15.3999 213.813C16.5048 213.297 17.6708 213.031 18.8721 213.022C24.2748 212.989 28.7074 218.264 28.7524 224.78C28.7845 229.648 26.2726 234.102 22.5017 235.865C21.6858 236.245 20.8347 236.489 19.9642 236.595C19.6526 236.619 19.3443 236.655 19.0295 236.655C13.6268 236.688 9.19422 231.413 9.14925 224.898ZM36.23 229.959L28.1356 233.74C29.9087 231.289 30.9237 228.145 30.9012 224.768C30.8787 221.327 29.7577 218.189 27.9397 215.774C30.686 217.012 33.6443 218.388 36.1272 219.68C38.2921 220.582 39.6444 222.559 39.6572 224.84C39.6733 227.083 38.3435 228.963 36.2267 229.956L36.23 229.959Z" fill="#231F20"/>
<path fill-rule="evenodd" clip-rule="evenodd" d="M18.8813 214.791C22.3214 214.769 25.299 217.157 26.6705 220.606C26.7444 220.793 26.7284 220.983 26.6224 221.155C26.5164 221.327 26.3494 221.436 26.1406 221.469C24.4607 221.735 23.3911 223.075 21.6405 223.757C21.1491 223.054 20.1116 222.607 19.5719 222.61C19.0323 222.613 19.0869 222.652 18.8589 222.728C17.6736 221.155 16.1479 218.391 15.3353 216.351C15.2132 216.043 15.3513 215.702 15.6597 215.551C16.6522 215.065 17.7411 214.794 18.8813 214.788V214.791ZM27.435 223.959C27.4575 224.234 27.4672 224.511 27.4704 224.789C27.5089 230.339 23.7251 234.86 19.0195 234.887C18.1715 234.893 17.3524 234.751 16.5815 234.485C16.2507 234.371 16.0676 234.045 16.1511 233.725C16.8096 231.196 18.3064 230.164 19.0612 228.791C19.2411 228.836 18.7914 228.86 19.6169 228.857C20.4424 228.851 22.2797 227.445 22.2412 225.721V225.622C23.95 224.946 24.9874 223.618 26.6449 223.37C26.8408 223.34 27.0239 223.386 27.1813 223.503C27.3387 223.621 27.4254 223.775 27.4414 223.962L27.435 223.959ZM13.3213 232.364C13.4916 232.542 13.7357 232.614 13.9862 232.56C14.2367 232.506 14.4231 232.34 14.4937 232.107C15.2004 229.777 16.6939 228.86 17.4424 227.547C17.134 227.04 16.9477 226.391 16.9445 225.749C16.9413 225.106 17.0891 224.557 17.346 224.074C16.18 222.589 14.6543 219.993 13.8706 218.159C13.7742 217.935 13.5719 217.787 13.3181 217.757C13.0644 217.727 12.8299 217.821 12.6757 218.017C11.2624 219.821 10.408 222.239 10.4241 224.891C10.4433 227.867 11.5611 230.535 13.3149 232.364H13.3213Z" fill="#961600"/>
<path fill-rule="evenodd" clip-rule="evenodd" d="M26.3649 265.926C30.2591 265.926 40.4964 267.956 39.0418 276.785C37.5262 285.986 24.7303 284.245 20.833 284.245C16.9356 284.245 15.0175 280.144 16.5453 275.084C18.0731 270.025 22.4675 265.923 26.3649 265.923V265.926Z" fill="#9B0D0D"/>
<path fill-rule="evenodd" clip-rule="evenodd" d="M20.3819 265.926C24.2762 265.926 26.1974 270.027 24.6696 275.087C23.1418 280.147 18.7474 284.248 14.8501 284.248C10.9527 284.248 9.03455 280.147 10.5624 275.087C12.0902 270.027 16.4846 265.926 20.3819 265.926Z" fill="#E31937"/>
<path d="M14.8504 285.171C13.1274 285.171 11.6575 284.524 10.5993 283.298C8.93117 281.368 8.54085 278.211 9.55635 274.846C11.2214 269.323 15.9787 265 20.3822 265C22.1052 265 23.5751 265.647 24.6333 266.873C26.3014 268.804 26.6918 271.963 25.6763 275.328C24.0112 280.848 19.2539 285.171 14.8504 285.171ZM20.3822 266.849C16.9911 266.849 12.9566 270.731 11.569 275.328C10.7335 278.095 10.9957 280.721 12.2552 282.174C12.9139 282.938 13.7861 283.325 14.8534 283.325C18.2445 283.325 22.279 279.443 23.6635 274.849C24.4991 272.079 24.2368 269.456 22.9804 268.002C22.3217 267.239 21.4496 266.852 20.3822 266.852V266.849Z" fill="#231F20"/>
<path d="M28.9573 285.171H14.8501V283.322H28.9573C34.0714 283.322 38.234 279.627 38.234 275.087C38.234 270.547 34.0714 266.849 28.9573 266.849H20.382V265H28.9573C35.2241 265 40.3199 269.524 40.3199 275.087C40.3199 280.65 35.2241 285.171 28.9573 285.171Z" fill="#231F20"/>
<path fill-rule="evenodd" clip-rule="evenodd" d="M39.1276 274.93C40.3474 274.21 41.5703 273.49 42.7932 272.77C43.1286 272.572 43.5434 272.578 43.8727 272.778C44.2051 272.981 44.3545 273.322 44.2692 273.671C43.949 274.946 43.9276 276.259 44.2692 277.613C44.3576 277.959 44.2051 278.303 43.8758 278.506C43.5434 278.709 43.1286 278.712 42.7932 278.514C41.5703 277.794 40.3505 277.077 39.1307 276.357C38.8532 276.194 38.7007 275.94 38.7007 275.642C38.7007 275.344 38.8532 275.092 39.1307 274.927L39.1276 274.93Z" fill="#231F20"/>
<path fill-rule="evenodd" clip-rule="evenodd" d="M16.964 274.852C17.1622 274.191 17.6562 273.658 18.0648 273.658C18.4735 273.658 18.6442 274.194 18.446 274.852C18.2478 275.512 17.7538 276.048 17.3451 276.048C16.9365 276.048 16.7657 275.512 16.964 274.852Z" fill="white"/>
<path fill-rule="evenodd" clip-rule="evenodd" d="M15.8536 270.266C16.0518 269.605 16.5458 269.072 16.9545 269.072C17.3631 269.072 17.5339 269.608 17.3357 270.266C17.1375 270.926 16.6434 271.462 16.2348 271.462C15.8262 271.462 15.6554 270.926 15.8536 270.266Z" fill="white"/>
<path fill-rule="evenodd" clip-rule="evenodd" d="M19.8883 270.143C20.0865 269.483 20.5805 268.947 20.9892 268.947C21.3978 268.947 21.5686 269.483 21.3703 270.143C21.1721 270.804 20.6781 271.34 20.2695 271.34C19.8608 271.34 19.69 270.804 19.8883 270.143Z" fill="white"/>
<path fill-rule="evenodd" clip-rule="evenodd" d="M17.3571 279.811C17.5554 279.15 18.0494 278.614 18.458 278.614C18.8667 278.614 19.0374 279.15 18.8362 279.811C18.6379 280.471 18.1439 281.005 17.7353 281.005C17.3266 281.005 17.1559 280.469 17.3541 279.811H17.3571Z" fill="white"/>
<path fill-rule="evenodd" clip-rule="evenodd" d="M13.4083 279.914C13.6065 279.253 14.1005 278.717 14.5092 278.717C14.9178 278.717 15.0886 279.253 14.8904 279.914C14.6921 280.574 14.1981 281.11 13.7895 281.11C13.3808 281.11 13.2101 280.574 13.4083 279.914Z" fill="white"/>
<path fill-rule="evenodd" clip-rule="evenodd" d="M13.1641 275.839C13.3624 275.179 13.8564 274.646 14.265 274.646C14.6737 274.646 14.8444 275.182 14.6462 275.839C14.448 276.5 13.954 277.036 13.5453 277.036C13.1367 277.036 12.9659 276.5 13.1641 275.839Z" fill="white"/>
<path fill-rule="evenodd" clip-rule="evenodd" d="M20.9796 275.112C21.1778 274.451 21.6718 273.918 22.0805 273.918C22.4891 273.918 22.6599 274.454 22.4617 275.112C22.2634 275.772 21.7694 276.308 21.3608 276.308C20.9521 276.308 20.7814 275.772 20.9796 275.112Z" fill="white"/>
<path fill-rule="evenodd" clip-rule="evenodd" d="M36.7095 274.868C36.7217 274.714 36.7613 274.565 36.7613 274.408C36.7613 271.067 33.7118 268.36 29.9487 268.36C29.6223 268.36 29.3082 268.406 28.9941 268.446C32.7542 269.088 35.7489 271.611 36.7095 274.871V274.868Z" fill="white"/>
</svg>
