<svg width="50" height="300" viewBox="0 0 50 300" fill="none" xmlns="http://www.w3.org/2000/svg">
<path fill-rule="evenodd" clip-rule="evenodd" d="M16.9723 12.7537C14.1947 9.95848 10.3731 8.94111 7.07189 9.78503C5.91844 10.0786 5.07987 10.9225 4.7882 12.0833C3.95295 15.4056 4.96055 19.2515 7.7381 22.0468C11.0029 25.3324 15.7061 26.1596 19.3156 24.4051C21.0591 20.7726 20.2371 16.0393 16.9723 12.7571V12.7537Z" fill="#B6EF18"/>
<path d="M7.3836 22.4004C4.5729 19.5718 3.39295 15.5691 4.30112 11.9566C4.63588 10.6256 5.6236 9.62829 6.9494 9.29139C10.4727 8.39411 14.5595 9.60827 17.3271 12.3935C20.678 15.7659 21.6591 20.6792 19.7666 24.6186L19.6903 24.7787L19.5345 24.8555C18.2386 25.4859 16.8233 25.8061 15.3251 25.8061C12.4316 25.8061 9.53471 24.5653 7.38691 22.4004H7.3836ZM16.6178 13.1107C14.0955 10.5723 10.3865 9.46151 7.19467 10.2721C6.22021 10.5189 5.52085 11.2261 5.27226 12.2067C4.45027 15.4757 5.53079 19.1082 8.0929 21.6866C10.0551 23.6646 12.6901 24.7954 15.3218 24.7954C16.6045 24.7954 17.8209 24.5352 18.9379 24.0216C20.5421 20.4925 19.6207 16.1294 16.6178 13.1074V13.1107Z" fill="#231F20"/>
<path fill-rule="evenodd" clip-rule="evenodd" d="M21.5299 25.7658C17.4299 21.0226 11.4273 17.7803 8.12939 12.5801C9.83636 18.3074 16.8664 22.0333 20.3301 26.7832L21.5299 25.7658Z" fill="#231F20"/>
<path fill-rule="evenodd" clip-rule="evenodd" d="M14.576 20.0852C10.7876 20.6823 9.47835 20.4288 8.0498 19.5815C10.3832 21.9065 14.7318 21.0826 14.7451 21.0792L14.576 20.0852Z" fill="#231F20"/>
<path fill-rule="evenodd" clip-rule="evenodd" d="M15.8257 21.6727C17.3769 18.1436 17.473 16.806 17.0322 15.1982C18.6596 18.0702 16.7405 22.083 16.7372 22.093L15.8257 21.6727Z" fill="#231F20"/>
<path fill-rule="evenodd" clip-rule="evenodd" d="M12.3916 18.1303C13.3031 16.0588 13.3594 15.275 13.1009 14.3276C14.0555 16.0121 12.9319 18.3704 12.9286 18.3771L12.3949 18.1303H12.3916Z" fill="#231F20"/>
<path fill-rule="evenodd" clip-rule="evenodd" d="M34.8382 25.4024C35.9436 25.8196 37.1613 26.2599 37.9213 26.567C44.7123 29.3077 42.8094 39.6272 35.4168 39.6272H21.452C16.5552 39.6272 12.5825 35.6321 12.5825 30.7012C12.5825 25.7703 16.5523 21.7752 21.452 21.7752C21.8435 21.7636 22.2638 21.781 22.7129 21.8215C23.8701 21.1813 25.3671 20.7148 27.2354 20.5294C29.9472 20.26 32.6071 20.7206 33.845 21.8708C34.8209 22.7747 35.0656 24.0494 34.8353 25.3995L34.8382 25.4024Z" fill="#F89A2C"/>
<path fill-rule="evenodd" clip-rule="evenodd" d="M30.1386 28.2138C28.7597 27.278 25.8262 27.84 25 29.7521C25.3973 25.4268 29.4304 25.4065 31.1001 26.8811L30.1386 28.2138Z" fill="white"/>
<path fill-rule="evenodd" clip-rule="evenodd" d="M38.2495 25.7383C37.7371 25.5326 37.0145 25.2603 36.2574 24.9793C35.8083 24.8112 35.3506 24.6403 34.9159 24.4752C34.9159 24.0928 34.8497 23.7306 34.7518 23.383L35.3794 22.8905C35.8889 23.4844 37.1297 23.7741 37.9069 23.1628C39.0843 22.2386 38.6698 19.9354 36.8447 19.8746C37.2304 18.0783 35.1088 17.1136 33.9342 18.0349C33.157 18.6433 33.1339 19.9267 33.583 20.5699L32.7856 21.1956C31.3837 20.5525 29.3311 20.3236 27.2411 20.5293C26.1271 20.6394 25.1483 20.8538 24.2904 21.1406C23.2051 20.9494 22.2522 20.8538 21.4548 20.8828C16.0744 20.8828 11.6987 25.2864 11.6987 30.7011C11.6987 36.1158 16.0744 40.5165 21.4548 40.5165H35.4197C39.7349 40.5165 42.2625 37.3992 42.8555 34.3138C43.4514 31.2081 42.2596 27.352 38.2524 25.7354L38.2495 25.7383ZM41.111 33.9777C40.6907 36.1737 38.9461 38.7348 35.4168 38.7348H21.452C17.0503 38.7348 13.4692 35.1308 13.4692 30.704C13.4692 26.2772 17.0503 22.6703 21.475 22.6703C21.4807 22.6703 21.4894 22.6703 21.4951 22.6703C18.5732 25.1502 19.0626 28.9918 21.6823 30.3998C18.4926 24.8344 24.0745 22.0358 28.4991 22.2994C32.9238 22.5631 36.1941 25.8919 28.3811 32.5784C30.6899 32.4422 33.6895 29.3105 34.6223 26.2743C34.9591 26.4018 35.3016 26.5292 35.6385 26.6538C36.3783 26.929 37.0836 27.1898 37.5874 27.3926C40.6561 28.6296 41.5658 31.5905 41.1081 33.9748L41.111 33.9777Z" fill="#231F20"/>
<path d="M28.5475 66.0039C28.5475 66.0039 39.9364 68.823 41.275 70.7606C42.6135 72.6982 43.5091 75.6945 41.9459 77.2801C40.3826 78.8657 35.4714 81.3326 33.2373 82.2141C31.0031 83.0955 27.1992 83.6275 27.1992 83.6275C27.1992 83.6275 31.4493 81.6847 31.4493 77.1028C31.4493 72.5209 31.0031 69.175 29.8861 68.2936C28.769 67.4121 28.5475 66.0039 28.5475 66.0039Z" fill="#C55450"/>
<path d="M22.7438 64.2413C22.7438 64.2413 30.7815 67.0603 31.6771 69.8794C32.5694 72.6984 32.348 79.2179 30.3385 81.1556C28.3291 83.0932 26.095 85.3854 23.8641 85.5602C21.63 85.7375 15.1555 84.6787 14.0384 83.4452C12.9214 82.2118 10.6905 78.6886 10.4658 76.2216C10.241 73.7546 10.241 71.1129 11.3581 69.35C12.4752 67.5871 13.1461 66.3536 14.4846 65.6495C15.8231 64.9454 18.9496 64.064 18.9496 64.064L22.747 64.2413H22.7438Z" fill="white"/>
<path d="M39.5033 68.8516C36.0218 67.3302 31.5307 65.6368 28.0492 64.3467C25.8997 63.455 23.4702 62.9899 21.0244 63.0002C21.0244 63.0002 21.0244 63.0002 21.0211 63.0002C19.4741 63.0079 17.9663 63.2931 16.5463 63.8508C11.9217 65.665 8.9613 69.9771 9.00038 74.8417C9.05575 81.3381 14.5336 86.5985 21.2133 86.5625C21.6008 86.5625 21.9851 86.5419 22.3694 86.5034C24.2486 86.3774 26.0886 85.9894 27.7463 85.3393C27.9027 85.2776 28.0557 85.2159 28.2088 85.1491L39.5749 80.688C42.493 79.6369 44.3135 77.3627 44.294 74.7698C44.2744 72.1409 42.405 69.8563 39.5033 68.8464V68.8516ZM11.1792 74.834C11.1466 70.689 13.6934 66.896 17.5168 65.3952C18.6372 64.9558 19.8226 64.7296 21.0374 64.7219C26.5153 64.6937 31.0096 69.1856 31.0552 74.7338C31.0878 78.8788 28.541 82.6718 24.7175 84.1726C23.8903 84.4964 23.0273 84.7045 22.1447 84.7945C21.8288 84.815 21.5161 84.8459 21.197 84.8459C15.7191 84.8741 11.2248 80.3822 11.1792 74.834ZM38.637 79.1435L30.4299 82.3635C32.2276 80.2768 33.2568 77.5991 33.234 74.7235C33.2079 71.794 32.0746 69.1214 30.2312 67.0656C33.0158 68.1192 36.0153 69.291 38.5327 70.3909C40.7278 71.1592 42.0989 72.8424 42.1119 74.7852C42.1282 76.6945 40.7799 78.2955 38.6337 79.141L38.637 79.1435Z" fill="#231F20"/>
<path fill-rule="evenodd" clip-rule="evenodd" d="M21.0465 66.2277C24.5345 66.2097 27.5535 68.2424 28.9441 71.1796C29.019 71.339 29.0028 71.5008 28.8953 71.6473C28.7878 71.7938 28.6185 71.8863 28.4068 71.9146C26.7035 72.1407 25.619 73.2817 23.844 73.8625C23.3458 73.2637 22.2938 72.8834 21.7467 72.886C21.1996 72.8885 21.2549 72.9219 21.0237 72.9862C19.8219 71.6473 18.275 69.2934 17.451 67.5562C17.3273 67.2941 17.4673 67.0037 17.7799 66.8753C18.7863 66.4615 19.8903 66.2302 21.0465 66.2251V66.2277ZM29.7193 74.0347C29.742 74.2685 29.7518 74.5049 29.7551 74.7413C29.7942 79.4672 25.9577 83.3167 21.1865 83.3398C20.3267 83.345 19.4963 83.2242 18.7146 82.998C18.3792 82.9004 18.1936 82.6229 18.2782 82.3505C18.9459 80.197 20.4635 79.3181 21.2289 78.1489C21.4112 78.1874 20.9553 78.208 21.7923 78.2054C22.6293 78.2003 24.4921 77.0027 24.4531 75.5354V75.4506C26.1857 74.875 27.2376 73.7443 28.9181 73.5335C29.1168 73.5078 29.3024 73.5464 29.462 73.6466C29.6215 73.7468 29.7095 73.8779 29.7258 74.0372L29.7193 74.0347ZM15.409 81.1915C15.5816 81.3431 15.8291 81.4048 16.0832 81.3585C16.3372 81.3123 16.5261 81.1709 16.5977 80.9731C17.3142 78.9892 18.8286 78.208 19.5875 77.0901C19.2748 76.6584 19.0859 76.1059 19.0826 75.5585C19.0794 75.0112 19.2292 74.5435 19.4897 74.1323C18.3075 72.868 16.7606 70.658 15.9659 69.0955C15.8682 68.9054 15.6631 68.7795 15.4058 68.7538C15.1485 68.7281 14.9107 68.8077 14.7544 68.9748C13.3214 70.5115 12.4551 72.5699 12.4714 74.8287C12.491 77.3625 13.6243 79.6342 15.4025 81.1915H15.409Z" fill="#FFADA7"/>
<path fill-rule="evenodd" clip-rule="evenodd" d="M15.4375 114.943H40.8359V119.198C39.8027 119.198 38.9639 120.026 38.9639 121.045C38.9639 122.064 39.8027 122.892 40.8359 122.892V135.7H15.4375C11.8719 135.7 8.95605 132.824 8.95605 129.306V121.339C8.95605 117.822 11.8719 114.946 15.4375 114.946V114.943Z" fill="#F8DE18"/>
<path d="M40.8332 120.142H41.7892V114H15.4374C11.3366 114 8 117.291 8 121.339V129.307C8 133.352 11.3366 136.646 15.4374 136.646H41.7892V121.949H40.8332C40.3272 121.949 39.9171 121.544 39.9171 121.045C39.9171 120.546 40.3272 120.142 40.8332 120.142ZM9.90927 129.304V121.337C9.90927 118.368 12.3298 115.96 15.3229 115.897C13.8157 117.242 12.8597 119.177 12.8597 121.337V129.304C12.8597 131.463 13.8157 133.399 15.3229 134.744C12.3298 134.684 9.90927 132.272 9.90927 129.304ZM39.8772 118.418C38.7854 118.804 38.0052 119.837 38.0052 121.043C38.0052 122.248 38.7854 123.281 39.8772 123.667V134.755H20.2971C17.2508 134.755 14.7717 132.309 14.7717 129.304V121.337C14.7717 118.332 17.2508 115.886 20.2971 115.886H39.8772V118.418Z" fill="#231F20"/>
<path d="M19.7781 119.664H17.8369V121.579H19.7781V119.664Z" fill="#961600"/>
<path d="M26.7705 118.324H25.5083V119.569H26.7705V118.324Z" fill="#961600"/>
<path d="M25.7979 121.578H23.0791V124.26H25.7979V121.578Z" fill="#961600"/>
<path d="M20.1696 126.656H19.5864V127.232H20.1696V126.656Z" fill="#961600"/>
<path d="M27.8393 128.188H26.7715V129.241H27.8393V128.188Z" fill="#961600"/>
<path d="M33.2762 125.889H32.4028V126.75H33.2762V125.889Z" fill="#961600"/>
<path d="M33.18 119.28H32.208V120.239H33.18V119.28Z" fill="#961600"/>
<path d="M37.7423 129.816H36.0913V131.445H37.7423V129.816Z" fill="#961600"/>
<path d="M30.6527 122.635H29.7793V123.496H30.6527V122.635Z" fill="#961600"/>
<path d="M21.916 130.583H20.6538V131.829H21.916V130.583Z" fill="#961600"/>
<path fill-rule="evenodd" clip-rule="evenodd" d="M20.6575 165.418C21.2147 165.705 21.7187 166.073 22.1742 166.503C20.7106 169.433 20.5514 173.529 22.0283 177.365C22.466 178.5 23.0143 179.528 23.6422 180.433C21.2766 185.686 16.4745 188.309 12.6142 186.32C8.56385 184.233 7.07812 177.866 9.29787 172.092C11.5176 166.319 16.6027 163.332 20.6575 165.418Z" fill="#231F20"/>
<path d="M15.3515 188.452C14.2151 188.452 13.1185 188.186 12.1015 187.66C9.78445 186.468 8.10859 184.09 7.38342 180.965C6.68035 177.953 6.95009 174.588 8.14398 171.489C10.0365 166.58 13.9675 163.276 17.9339 163.276C19.0703 163.276 20.1625 163.542 21.1839 164.069C21.8339 164.406 22.4397 164.841 22.9924 165.362L23.8281 166.155L23.2887 167.239C21.9798 169.858 21.9489 173.509 23.2047 176.767C23.5849 177.759 24.0713 178.679 24.6462 179.503L25.168 180.255L24.7832 181.109C22.7757 185.568 19.0791 188.452 15.356 188.452H15.3515ZM17.9294 166.227C14.9535 166.227 11.9556 168.825 10.4654 172.691C9.51032 175.171 9.28479 177.841 9.83752 180.203C10.3593 182.454 11.5311 184.152 13.1318 184.97C16.1121 186.514 20.0121 184.509 22.1257 180.546C21.6393 179.743 21.2148 178.874 20.8655 177.963C19.4461 174.271 19.3444 170.277 20.5427 166.994C20.4101 166.907 20.2774 166.83 20.1359 166.759C19.4461 166.406 18.6988 166.227 17.925 166.227H17.9294Z" fill="#231F20"/>
<path fill-rule="evenodd" clip-rule="evenodd" d="M25.3442 163.143C21.2938 165.229 19.8081 171.596 22.0279 177.37C24.2476 183.144 29.3327 186.13 33.3875 184.044C37.4379 181.957 38.9236 175.59 36.7038 169.816C34.4841 164.043 29.399 161.056 25.3442 163.143Z" fill="#231F20"/>
<path d="M30.6599 186.177C26.6936 186.177 22.7626 182.878 20.8745 177.963C19.6806 174.864 19.4108 171.499 20.1139 168.487C20.8435 165.367 22.5194 162.989 24.832 161.793C25.8534 161.266 26.9456 161 28.082 161C32.0439 161 35.9794 164.299 37.8675 169.208C40.3658 175.713 38.5926 182.965 33.9099 185.384C32.8885 185.911 31.7963 186.177 30.6599 186.177ZM28.082 163.951C27.3038 163.951 26.5565 164.13 25.8667 164.488C24.266 165.311 23.0942 167.009 22.5724 169.254C22.0197 171.617 22.2452 174.281 23.2003 176.767C24.6861 180.633 27.6885 183.231 30.6643 183.231C31.4382 183.231 32.1854 183.052 32.8797 182.694C36.28 180.94 37.4783 175.432 35.546 170.41C34.0559 166.544 31.0579 163.951 28.0864 163.951H28.082Z" fill="#231F20"/>
<path fill-rule="evenodd" clip-rule="evenodd" d="M27.4224 168.538C25.2778 169.75 24.9904 175.529 25.6315 177.197C22.8414 174.414 23.4427 167.239 26.4628 166.058L27.4224 168.544V168.538Z" fill="white"/>
<path fill-rule="evenodd" clip-rule="evenodd" d="M17.8987 170.661C15.5153 170.471 12.7738 175.309 12.6058 177.125C11.3942 173.1 15.0157 167.234 18.1419 167.955L17.8987 170.661Z" fill="white"/>
<path d="M27.8123 210.241C27.6091 209.716 27.3395 208.913 27.123 208.249C27.0125 207.917 26.469 207.917 26.3585 208.249C26.142 208.916 25.8724 209.716 25.6692 210.241C25.3289 211.127 24.644 212.218 24.644 212.218L24.9136 212.275C24.971 212.287 25.0285 212.313 25.0727 212.348L26.4867 213.388C26.6325 213.496 26.849 213.496 26.9992 213.388L28.4133 212.348C28.4575 212.313 28.5149 212.291 28.5723 212.275L28.8419 212.218C28.8419 212.218 28.157 211.127 27.8168 210.241H27.8123Z" fill="#7EBE50" stroke="#231F20" stroke-miterlimit="10"/>
<path d="M23.8886 211.475C22.8015 210.972 21.6924 210.653 20.6717 210.517C20.3403 210.472 20.1591 210.823 20.4242 210.997C21.224 211.522 21.9973 212.231 22.6557 213.081C23.8267 214.602 24.3436 216.225 24.1757 217.449C24.1536 217.607 24.2995 217.743 24.4851 217.749C25.9698 217.812 27.1761 217.449 27.6931 216.652C28.6343 215.203 26.9287 212.885 23.8886 211.475Z" fill="#7EBE50" stroke="#231F20" stroke-miterlimit="10"/>
<path d="M29.8271 211.453C30.9539 210.994 32.0851 210.722 33.1147 210.63C33.4505 210.599 33.6007 210.959 33.3223 211.121C32.4828 211.611 31.652 212.284 30.9273 213.11C29.6326 214.58 28.9875 216.177 29.0582 217.407C29.067 217.566 28.9124 217.695 28.7224 217.695C27.2332 217.695 26.0579 217.284 25.6072 216.468C24.7853 214.982 26.6765 212.74 29.8271 211.456V211.453Z" fill="#446B2C" stroke="#231F20" stroke-miterlimit="10"/>
<path d="M21.7631 213.805C20.358 213.429 18.9926 213.268 17.7907 213.293C17.4018 213.303 17.3178 213.733 17.6758 213.881C18.7628 214.33 19.8851 214.994 20.9236 215.842C22.7794 217.357 23.9284 219.096 24.1626 220.513C24.1935 220.693 24.4055 220.823 24.6176 220.798C26.3189 220.605 27.5606 219.975 27.8655 218.985C28.4267 217.177 25.6914 214.858 21.7543 213.805H21.7631Z" fill="#7EBE50" stroke="#231F20" stroke-miterlimit="10"/>
<path d="M31.3034 214.122C32.7395 213.688 34.1491 213.48 35.3996 213.47C35.8061 213.47 35.9166 213.913 35.5542 214.077C34.4495 214.577 33.3227 215.301 32.2932 216.212C30.455 217.841 29.3635 219.681 29.2 221.161C29.1779 221.351 28.9659 221.49 28.7449 221.471C26.9642 221.323 25.6429 220.706 25.2629 219.684C24.5736 217.825 27.2823 215.333 31.3034 214.119V214.122Z" fill="#446B2C" stroke="#231F20" stroke-miterlimit="10"/>
<path d="M19.567 216.851C18.0514 216.529 16.5976 216.427 15.3338 216.519C14.9229 216.548 14.8787 217.006 15.272 217.145C16.4606 217.563 17.7111 218.205 18.8909 219.043C20.9987 220.539 22.3818 222.313 22.775 223.793C22.8236 223.982 23.0623 224.106 23.2832 224.071C25.0551 223.78 26.2968 223.056 26.5222 221.993C26.9287 220.061 23.8179 217.762 19.567 216.854V216.851Z" fill="#7EBE50" stroke="#231F20" stroke-miterlimit="10"/>
<path d="M33.4333 216.851C34.9489 216.529 36.4027 216.427 37.6664 216.519C38.0774 216.548 38.1216 217.006 37.7283 217.145C36.5396 217.563 35.2892 218.205 34.1093 219.043C32.0016 220.539 30.6185 222.313 30.2252 223.793C30.1766 223.982 29.938 224.106 29.717 224.071C27.9451 223.78 26.7035 223.056 26.4781 221.993C26.0716 220.061 29.1824 217.762 33.4333 216.854V216.851Z" fill="#446B2C" stroke="#231F20" stroke-miterlimit="10"/>
<path d="M37.1006 228.368C37.1006 224.164 32.3397 220.756 26.4668 220.756C20.5939 220.756 15.833 224.164 15.833 228.368V234.57C15.833 238.774 20.5939 242.182 26.4668 242.182C32.3397 242.182 37.1006 238.774 37.1006 234.57V228.368Z" fill="#FFAF00" stroke="#231F20" stroke-miterlimit="10"/>
<path d="M22.9119 238.83C22.9119 237.511 21.573 236.331 19.4565 235.493C18.1308 236.018 17.1145 236.676 16.5356 237.416" stroke="#231F20" stroke-miterlimit="10"/>
<path d="M29.8807 238.83C29.8807 237.511 28.5418 236.331 26.4252 235.493C24.3086 236.331 22.9697 237.511 22.9697 238.83" stroke="#231F20" stroke-miterlimit="10"/>
<path d="M36.1814 237.293C35.5893 236.603 34.6127 235.99 33.3622 235.493C31.2456 236.331 29.9067 237.511 29.9067 238.83" stroke="#231F20" stroke-miterlimit="10"/>
<path d="M26.3675 242.008C26.3675 240.689 25.0286 239.509 22.912 238.671C21.5864 239.196 20.5701 239.854 19.9912 240.594" stroke="#231F20" stroke-miterlimit="10"/>
<path d="M32.8012 240.632C32.2268 239.876 31.1973 239.206 29.854 238.671C27.7374 239.509 26.3984 240.689 26.3984 242.008" stroke="#231F20" stroke-miterlimit="10"/>
<path d="M19.4033 235.601C19.4033 234.282 18.0643 233.103 15.9478 232.265" stroke="#231F20" stroke-miterlimit="10"/>
<path d="M26.3675 235.601C26.3675 234.282 25.0286 233.103 22.912 232.265C20.7954 233.103 19.4565 234.282 19.4565 235.601" stroke="#231F20" stroke-miterlimit="10"/>
<path d="M33.3094 235.601C33.3094 234.282 31.9705 233.103 29.854 232.265C27.7374 233.103 26.3984 234.282 26.3984 235.601" stroke="#231F20" stroke-miterlimit="10"/>
<path d="M36.8178 232.265C34.7012 233.103 33.3623 234.282 33.3623 235.601" stroke="#231F20" stroke-miterlimit="10"/>
<path d="M22.912 232.318C22.912 231 21.5731 229.82 19.4565 228.982C17.3399 229.82 16.001 231 16.001 232.318" stroke="#231F20" stroke-miterlimit="10"/>
<path d="M29.8807 232.318C29.8807 231 28.5418 229.82 26.4252 228.982C24.3086 229.82 22.9697 231 22.9697 232.318" stroke="#231F20" stroke-miterlimit="10"/>
<path d="M36.8182 232.318C36.8182 231 35.4793 229.82 33.3627 228.982C31.2461 229.82 29.9072 231 29.9072 232.318" stroke="#231F20" stroke-miterlimit="10"/>
<path d="M22.912 225.997C22.912 224.678 21.5731 223.498 19.4565 222.66" stroke="#231F20" stroke-miterlimit="10"/>
<path d="M29.8802 225.997C29.8802 224.678 28.5413 223.498 26.4248 222.66C24.3082 223.498 22.9692 224.678 22.9692 225.997" stroke="#231F20" stroke-miterlimit="10"/>
<path d="M33.3622 222.66C31.2456 223.498 29.9067 224.678 29.9067 225.997" stroke="#231F20" stroke-miterlimit="10"/>
<path d="M19.4033 229.174C19.4033 227.856 18.0643 226.676 15.9478 225.838" stroke="#231F20" stroke-miterlimit="10"/>
<path d="M26.3675 229.174C26.3675 227.856 25.0286 226.676 22.912 225.838C20.7954 226.676 19.4565 227.856 19.4565 229.174" stroke="#231F20" stroke-miterlimit="10"/>
<path d="M33.3094 229.174C33.3094 227.856 31.9705 226.676 29.854 225.838C27.7374 226.676 26.3984 227.856 26.3984 229.174" stroke="#231F20" stroke-miterlimit="10"/>
<path d="M36.8178 225.838C34.7012 226.676 33.3623 227.856 33.3623 229.174" stroke="#231F20" stroke-miterlimit="10"/>
<path d="M26.2524 222.66V220.889" stroke="#231F20" stroke-miterlimit="10"/>
<path d="M27.0291 265.416C27.0291 265.416 38.1141 268.621 39.4169 270.823C40.7197 273.026 41.5914 276.433 40.0699 278.235C38.5484 280.038 33.7682 282.843 31.5937 283.845C29.4192 284.847 25.7168 285.452 25.7168 285.452C25.7168 285.452 29.8535 283.243 29.8535 278.034C29.8535 272.825 29.4192 269.021 28.3319 268.019C27.2447 267.017 27.0291 265.416 27.0291 265.416Z" fill="#C55450"/>
<path d="M21.3773 263.411C21.3773 263.411 29.2005 266.616 30.0722 269.821C30.9408 273.026 30.7252 280.438 28.7694 282.641C26.8136 284.844 24.6391 287.45 22.4678 287.649C20.2932 287.85 13.9916 286.647 12.9043 285.244C11.817 283.842 9.6457 279.836 9.42698 277.032C9.20826 274.227 9.20826 271.223 10.2955 269.219C11.3828 267.215 12.0358 265.813 13.3386 265.012C14.6414 264.212 17.6845 263.209 17.6845 263.209L21.3805 263.411H21.3773Z" fill="white"/>
<path d="M37.6892 268.653C34.3007 266.923 29.9294 264.998 26.5408 263.531C24.4487 262.517 22.084 261.989 19.7035 262C19.7035 262 19.7035 262 19.7003 262C18.1946 262.009 16.727 262.333 15.3449 262.967C10.8437 265.03 7.96233 269.932 8.00037 275.463C8.05426 282.849 13.386 288.826 19.8873 288.788C20.2645 288.788 20.6386 288.765 21.0126 288.721C22.8416 288.578 24.6326 288.137 26.2461 287.398C26.395 287.327 26.5472 287.257 26.6962 287.181L37.759 282.11C40.5991 280.915 42.3711 278.329 42.3521 275.381C42.333 272.392 40.5136 269.795 37.6892 268.647V268.653ZM10.121 275.454C10.0893 270.742 12.5681 266.429 16.2895 264.723C17.38 264.224 18.5338 263.966 19.7161 263.958C25.0478 263.926 29.4222 269.032 29.4666 275.34C29.4983 280.053 27.0195 284.365 23.2981 286.071C22.4929 286.439 21.6529 286.676 20.7939 286.778C20.4864 286.802 20.1821 286.837 19.8715 286.837C14.5398 286.869 10.1654 281.762 10.121 275.454ZM36.846 280.354L28.858 284.014C30.6078 281.642 31.6094 278.598 31.5873 275.328C31.5651 271.998 30.4588 268.959 28.6647 266.625C31.3749 267.823 34.2911 269.155 36.7446 270.406C38.8811 271.279 40.2156 273.193 40.2283 275.402C40.2441 277.572 38.9318 279.392 36.8429 280.354H36.846Z" fill="#231F20"/>
<path fill-rule="evenodd" clip-rule="evenodd" d="M19.7288 265.67C23.1237 265.649 26.0621 267.96 27.4156 271.3C27.4886 271.481 27.4727 271.665 27.3681 271.832C27.2635 271.998 27.0987 272.103 26.8926 272.135C25.2348 272.393 24.1792 273.69 22.4516 274.35C21.9667 273.669 20.9428 273.237 20.4103 273.24C19.8777 273.243 19.9316 273.281 19.7066 273.354C18.5369 271.832 17.0312 269.155 16.2292 267.18C16.1088 266.882 16.2451 266.552 16.5494 266.406C17.5289 265.936 18.6035 265.673 19.7288 265.667V265.67ZM28.1701 274.546C28.1923 274.812 28.2018 275.08 28.2049 275.349C28.243 280.722 24.5089 285.099 19.8651 285.125C19.0282 285.131 18.2199 284.993 17.4591 284.736C17.1326 284.625 16.952 284.31 17.0344 284C17.6842 281.552 19.1614 280.553 19.9063 279.223C20.0838 279.267 19.64 279.29 20.4547 279.287C21.2693 279.282 23.0824 277.92 23.0444 276.252V276.156C24.7308 275.501 25.7547 274.216 27.3903 273.976C27.5837 273.947 27.7643 273.991 27.9196 274.105C28.075 274.218 28.1606 274.368 28.1764 274.549L28.1701 274.546ZM14.2418 282.682C14.4098 282.855 14.6507 282.925 14.8979 282.872C15.1451 282.82 15.329 282.659 15.3987 282.434C16.0961 280.179 17.5701 279.29 18.3087 278.019C18.0044 277.529 17.8205 276.901 17.8173 276.278C17.8142 275.656 17.96 275.124 18.2136 274.657C17.0629 273.219 15.5572 270.707 14.7838 268.93C14.6887 268.714 14.489 268.571 14.2386 268.542C13.9882 268.513 13.7568 268.603 13.6046 268.793C12.2099 270.54 11.3667 272.88 11.3825 275.448C11.4016 278.329 12.5047 280.912 14.2354 282.682H14.2418Z" fill="#E31937"/>
</svg>
