<svg width="50" height="300" viewBox="0 0 50 300" fill="none" xmlns="http://www.w3.org/2000/svg">
<path fill-rule="evenodd" clip-rule="evenodd" d="M25.2339 11C33.4556 10.9836 41.2582 15.9644 41.4614 22.2297C41.5439 24.7731 40.0107 26.3447 38.0076 27.0552C37.2014 27.3423 36.3189 27.4858 35.4364 27.4929C34.1063 27.5046 32.7762 27.2082 31.6874 26.6388L31.9731 28.5445C32.189 29.9656 30.6938 31.2314 28.7321 31.2314H21.7325C19.7707 31.2314 18.2756 29.968 18.4915 28.5445L18.7771 26.6388C17.6915 27.2105 16.3614 27.5046 15.0282 27.4929C14.1457 27.4858 13.2632 27.3423 12.4569 27.0552C10.4507 26.3447 8.92065 24.7731 9.00319 22.2297C9.20635 15.9644 17.009 10.9836 25.2307 11H25.2339Z" fill="#D8A96C"/>
<path fill-rule="evenodd" clip-rule="evenodd" d="M25.3198 11C33.5415 10.9836 41.3442 15.9644 41.5473 22.2297C41.6299 24.7731 40.0966 26.3447 38.0936 27.0552C37.2873 27.3423 36.4048 27.4858 35.5223 27.4929C34.1922 27.5046 32.8622 27.2082 31.7734 26.6388L32.0591 28.5445C32.2749 29.9656 30.7798 31.2314 28.818 31.2314H21.8185C19.8567 31.2314 18.3615 29.968 18.5774 28.5445L18.8631 26.6388C17.7775 27.2105 16.4474 27.5046 15.1141 27.4929C14.2317 27.4858 13.3492 27.3423 12.5429 27.0552C10.5367 26.3447 9.00659 24.7731 9.08912 22.2297C9.29229 15.9644 17.095 10.9836 25.3166 11H25.3198ZM28.8212 29.8668C29.6973 29.8668 30.3354 29.3257 30.2401 28.6928C30.0846 27.6693 29.7576 26.2741 29.5386 25.0036C29.3608 23.9849 28.9069 22.2839 29.9735 21.4957C31.1639 20.6158 33.6177 20.7404 34.6462 21.6251C28.9704 20.6863 30.6528 26.1777 35.5065 26.1377C36.1255 26.133 36.7413 26.0318 37.3032 25.8342C38.7062 25.3354 39.7792 24.1802 39.7189 22.265C39.5411 16.7784 32.6305 12.3458 25.3198 12.3599C18.0124 12.3458 11.1017 16.7784 10.9207 22.265C10.8573 24.1825 11.9302 25.3354 13.3365 25.8342C13.8983 26.0341 14.5142 26.133 15.1332 26.1377C19.9868 26.1777 21.6693 20.6863 15.9934 21.6251C17.0251 20.7404 19.4758 20.6158 20.6661 21.4957C21.7327 22.2839 21.2788 23.9849 21.101 25.0036C20.8788 26.2765 20.555 27.6693 20.3995 28.6928C20.3043 29.3257 20.9423 29.8668 21.8185 29.8668H28.818H28.8212Z" fill="#231F20"/>
<path d="M25.3194 14.7549C28.0653 14.7549 30.5984 15.0443 32.6301 15.5314C31.2206 14.3291 28.4748 13.5127 25.3194 13.5127C22.1641 13.5127 19.415 14.3291 18.0088 15.5314C20.0436 15.0443 22.5736 14.7549 25.3194 14.7549Z" fill="#E2BE91"/>
<path fill-rule="evenodd" clip-rule="evenodd" d="M15.1038 62.8233C20.6473 59.2293 28.2738 57.9217 34.8627 59.0042C37.1644 59.381 38.8418 60.4686 39.4231 61.9609C41.0927 66.2328 39.0759 71.1775 33.5325 74.7715C27.0177 78.9954 17.6317 80.0602 10.4265 77.8041C6.94672 73.1326 8.58907 67.0472 15.1038 62.8233Z" fill="#B6EF18"/>
<path d="M18.3926 79.6101C15.4044 79.6101 12.5761 79.1979 9.9897 78.3885L9.67761 78.2899L9.52547 78.085C5.74924 73.0164 7.70757 66.6983 14.3979 62.3632C19.9218 58.7818 28.0789 57.2212 35.1126 58.3745C37.7536 58.807 39.7314 60.0894 40.3985 61.7992C42.2125 66.4454 39.8563 71.5924 34.2465 75.2295C29.9553 78.0117 24.1779 79.6101 18.4004 79.6101H18.3926ZM11.1756 77.3186C13.4031 77.9762 15.8296 78.3126 18.3926 78.3126C23.6434 78.3126 28.906 76.8558 32.8226 74.3139C37.9369 70.998 40.0942 66.3265 38.4519 62.1204C37.9603 60.8583 36.5599 59.9528 34.6171 59.6341C28.2467 58.5921 20.8425 60.016 15.8101 63.2838C9.81415 67.1713 7.97675 72.7812 11.1756 77.3186Z" fill="#231F20"/>
<path fill-rule="evenodd" clip-rule="evenodd" d="M32.9174 71.6052C30.2841 72.6093 27.846 72.9609 21.5418 72.4095C26.4728 69.4655 31.0058 66.3722 32.7496 62.6011C30.3504 65.0393 27.2296 67.1411 23.8396 69.1265C22.4274 66.9261 22.3533 65.9675 22.8292 64.8546C21.3351 66.5518 22.3845 68.7699 22.915 69.6602C20.8631 70.8338 18.7331 71.9745 16.6109 73.1228C14.2703 69.4503 14.1766 67.8493 14.9803 65.9726C12.5343 68.7522 14.0986 72.3665 15.0271 73.9878C11.8243 75.7431 8.70344 77.5464 6 79.5622L8.39135 80.8724C11.3094 78.2926 15.4991 75.9479 19.6186 73.5452C20.352 73.6286 28.4584 74.4683 32.9096 71.6103L32.9174 71.6052Z" fill="#231F20"/>
<path d="M38.7433 116.062C37.8649 114.352 35.9136 112.668 32.8247 110.958C28.5082 108.568 27.979 105.413 27.961 105.295L27.7918 104L26.4381 104.073C26.0745 104.094 22.8272 104.395 20.4151 108.866C20.0011 109.638 19.7419 110.345 19.5439 111.023C18.525 111.152 16.8078 111.429 15.0689 111.972C11.0332 113.24 9.66153 115.113 9.33391 116.758C6.48261 117.721 2.53686 120.492 3.04448 126.04C3.86171 134.947 19.3963 135.138 24.5012 135.2C24.6813 135.2 24.8649 135.2 25.0449 135.2C29.6098 135.2 34.1352 134.5 37.5409 133.257C42.3579 131.501 45.1048 128.668 45.4828 125.07C46.1992 118.261 40.5758 116.464 38.7433 116.062ZM42.5883 124.79C42.0339 130.054 33.2135 132.405 25.0557 132.405C24.8829 132.405 24.71 132.405 24.5372 132.405C16.3218 132.305 6.42502 131.075 5.9426 125.797C5.60059 122.064 7.99827 120.374 9.62552 119.664C10.0683 120.904 10.8712 122.026 12.052 122.951C14.5145 124.88 18.4134 125.894 23.126 125.894C24.7497 125.894 26.4669 125.773 28.2598 125.531C28.2598 125.531 19.4575 125.815 13.8917 120.783C12.8728 119.861 12.2176 118.913 12.142 117.752C11.9944 115.484 16.2353 114.234 19.1766 113.839C19.263 115.498 19.8463 116.516 19.8895 116.589C19.8895 116.589 20.6239 108.523 25.5561 107.28C26.2293 108.897 27.7918 111.408 31.3703 113.389C35.7985 115.841 36.3385 117.506 36.3781 118.109C36.7525 123.508 33.3036 125.049 33.3036 125.049C37.9981 124.097 39.1141 121.364 39.2726 119.124C40.8242 119.723 42.9591 121.209 42.5811 124.797L42.5883 124.79Z" fill="#231F20"/>
<path fill-rule="evenodd" clip-rule="evenodd" d="M24.6944 166.413C25.8732 166.413 26.9363 167.001 27.6856 167.943C28.1973 167.672 28.7639 167.521 29.3609 167.521C31.6362 167.521 33.4821 169.718 33.4821 172.426C33.4821 177.805 30.8382 187.405 26.7474 187.405C25.6692 187.405 24.7097 186.783 24.1126 185.826C23.5156 186.783 22.5592 187.405 21.4778 187.405C17.3231 187.405 14.7432 178.316 14.7432 172.426C14.7432 169.718 16.589 167.521 18.8644 167.521C19.7873 167.521 20.6372 167.883 21.3255 168.49C22.0718 167.231 23.3024 166.41 24.6944 166.41V166.413Z" fill="#69A53A"/>
<path fill-rule="evenodd" clip-rule="evenodd" d="M23.0131 166.135C22.2851 166.422 21.6058 166.887 21.0789 167.572C20.3722 167.098 19.5772 166.847 18.7518 166.847C16.1322 166.847 14 169.386 14 172.504C14 178.15 16.4612 188.232 21.3652 188.232C22.343 188.232 23.2842 187.788 24 187.016C24.7158 187.788 25.657 188.232 26.6348 188.232C31.4018 188.232 34 177.842 34 172.504C34 169.386 31.8678 166.847 29.2482 166.847C28.7213 166.847 28.2096 166.947 27.7192 167.146C27.3445 166.751 26.9089 166.47 26.4551 166.25C26.4063 164.967 26.9729 163.998 27.9354 163.998V161C25.5535 161 23.2903 163.349 23.0162 166.135H23.0131ZM29.2482 168.348C31.1733 168.348 32.739 170.213 32.739 172.504C32.739 177.504 30.2199 186.732 26.6348 186.732C25.788 186.732 25.0113 186.267 24.5056 185.455L24.466 185.392C23.8538 184.398 22.8303 182.376 22.3399 181.051C22.2425 182.4 22.5897 184.429 23.2141 185.808C22.7207 186.391 22.0719 186.732 21.3622 186.732C17.8197 186.732 15.2549 178.234 15.2549 172.504C15.2549 170.213 16.8206 168.348 18.7487 168.348C19.3031 168.348 19.8361 168.502 20.3174 168.794C19.5072 170.512 19.1264 173.7 20.8535 176.003C20.4301 174.289 20.1499 171.849 21.6363 169.145L21.7216 169.003C22.3765 167.898 23.4456 167.24 24.5787 167.24C25.5474 167.24 26.4459 167.702 27.113 168.538L27.1739 168.613C28.4898 170.364 28.24 171.342 28.3801 172.399C29.0076 170.563 28.8858 169.299 28.5507 168.435C28.7792 168.381 29.0106 168.351 29.2452 168.351L29.2482 168.348Z" fill="#231F20"/>
<path fill-rule="evenodd" clip-rule="evenodd" d="M24.8741 169.993L24.5329 169.232L24.1918 168.471C22.9916 169.235 21.1945 171.134 21.9377 173.905C22.3398 172.19 23.4546 170.349 24.8741 169.993Z" fill="white"/>
<path fill-rule="evenodd" clip-rule="evenodd" d="M18.3191 170.593L18.0724 170.044L17.8257 169.495C16.9606 170.047 15.66 171.418 16.1991 173.419C16.4885 172.181 17.2957 170.85 18.3191 170.593Z" fill="white"/>
<path d="M26.405 217.636C26.405 217.636 34.7961 220.109 35.7823 221.809C36.7685 223.509 37.4283 226.138 36.2765 227.529C35.1248 228.92 31.5063 231.084 29.8603 231.857C28.2142 232.631 25.4116 233.097 25.4116 233.097C25.4116 233.097 28.543 231.393 28.543 227.373C28.543 223.354 28.2142 220.418 27.3912 219.645C26.5682 218.872 26.405 217.636 26.405 217.636Z" fill="#C55450"/>
<path d="M22.1264 216.089C22.1264 216.089 28.0484 218.562 28.7082 221.035C29.3657 223.509 29.2025 229.228 27.722 230.928C26.2416 232.628 24.5955 234.639 22.9518 234.792C21.3058 234.948 16.5356 234.019 15.7126 232.937C14.8896 231.855 13.2459 228.764 13.0803 226.599C12.9147 224.435 12.9147 222.118 13.7378 220.571C14.5608 219.024 15.0551 217.942 16.0413 217.325C17.0275 216.707 19.331 215.934 19.331 215.934L22.1288 216.089H22.1264Z" fill="white"/>
<path d="M34.474 220.134C31.9089 218.799 28.6 217.313 26.0349 216.181C24.4513 215.399 22.6613 214.991 20.8592 215C20.8592 215 20.8592 215 20.8568 215C19.7171 215.007 18.6061 215.257 17.5599 215.746C14.1526 217.338 11.9715 221.121 12.0003 225.389C12.0411 231.088 16.077 235.701 20.9984 235.671C21.2839 235.671 21.5671 235.653 21.8502 235.619C23.2347 235.509 24.5905 235.169 25.8118 234.598C25.9246 234.544 26.0398 234.49 26.1525 234.431L34.5268 230.518C36.6767 229.596 38.018 227.6 38.0036 225.326C37.9892 223.019 36.6119 221.015 34.474 220.129V220.134ZM13.6056 225.382C13.5816 221.745 15.458 218.418 18.275 217.101C19.1004 216.716 19.9714 216.517 20.8688 216.511C24.9048 216.486 28.2161 220.427 28.2497 225.294C28.2737 228.93 26.3973 232.258 23.5803 233.575C22.9708 233.859 22.3349 234.041 21.6847 234.12C21.4519 234.138 21.2216 234.165 20.9864 234.165C16.9505 234.19 13.6392 230.249 13.6056 225.382ZM33.8357 229.163L27.789 231.987C29.1135 230.157 29.8717 227.808 29.8549 225.285C29.8381 222.715 29.0007 220.37 27.6426 218.567C29.6942 219.491 31.9041 220.519 33.7589 221.484C35.3762 222.158 36.3864 223.635 36.396 225.339C36.408 227.014 35.4146 228.419 33.8333 229.16L33.8357 229.163Z" fill="#231F20"/>
<path fill-rule="evenodd" clip-rule="evenodd" d="M20.8756 217.832C23.4455 217.816 25.6698 219.599 26.6944 222.176C26.7496 222.316 26.7376 222.458 26.6585 222.586C26.5793 222.715 26.4545 222.796 26.2985 222.821C25.0436 223.019 24.2446 224.02 22.9368 224.53C22.5697 224.005 21.7947 223.671 21.3915 223.673C20.9884 223.675 21.0292 223.705 20.8589 223.761C19.9734 222.586 18.8337 220.521 18.2266 218.997C18.1354 218.767 18.2386 218.513 18.469 218.4C19.2104 218.037 20.0238 217.834 20.8756 217.83V217.832ZM27.2655 224.681C27.2823 224.886 27.2895 225.093 27.2919 225.301C27.3207 229.447 24.4941 232.824 20.9788 232.844C20.3454 232.849 19.7335 232.743 19.1576 232.544C18.9105 232.459 18.7737 232.215 18.8361 231.976C19.328 230.087 20.4462 229.316 21.01 228.29C21.1444 228.324 20.8085 228.342 21.4251 228.34C22.0418 228.335 23.4143 227.285 23.3855 225.997V225.923C24.6621 225.418 25.4371 224.426 26.6752 224.241C26.8216 224.219 26.9584 224.253 27.076 224.34C27.1935 224.428 27.2583 224.543 27.2703 224.683L27.2655 224.681ZM16.7221 230.96C16.8493 231.093 17.0317 231.147 17.2188 231.106C17.406 231.066 17.5452 230.942 17.598 230.768C18.1258 229.027 19.2416 228.342 19.8007 227.361C19.5703 226.983 19.4312 226.498 19.4288 226.018C19.4264 225.538 19.5367 225.127 19.7287 224.767C18.8577 223.657 17.7179 221.719 17.1324 220.348C17.0605 220.181 16.9093 220.071 16.7197 220.048C16.5302 220.025 16.355 220.095 16.2398 220.242C15.1841 221.59 14.5458 223.396 14.5578 225.378C14.5722 227.6 15.4072 229.593 16.7173 230.96H16.7221Z" fill="#961600"/>
<path fill-rule="evenodd" clip-rule="evenodd" d="M26.3649 265.926C30.2591 265.926 40.4964 267.956 39.0418 276.785C37.5262 285.986 24.7303 284.245 20.833 284.245C16.9356 284.245 15.0175 280.144 16.5453 275.084C18.0731 270.025 22.4675 265.923 26.3649 265.923V265.926Z" fill="#9B0D0D"/>
<path fill-rule="evenodd" clip-rule="evenodd" d="M20.3819 265.926C24.2762 265.926 26.1974 270.027 24.6696 275.087C23.1418 280.147 18.7474 284.248 14.8501 284.248C10.9527 284.248 9.03455 280.147 10.5624 275.087C12.0902 270.027 16.4846 265.926 20.3819 265.926Z" fill="#E31937"/>
<path d="M14.8504 285.171C13.1274 285.171 11.6575 284.524 10.5993 283.298C8.93117 281.368 8.54085 278.211 9.55635 274.846C11.2214 269.323 15.9787 265 20.3822 265C22.1052 265 23.5751 265.647 24.6333 266.873C26.3014 268.804 26.6918 271.963 25.6763 275.328C24.0112 280.848 19.2539 285.171 14.8504 285.171ZM20.3822 266.849C16.9911 266.849 12.9566 270.731 11.569 275.328C10.7335 278.095 10.9957 280.721 12.2552 282.174C12.9139 282.938 13.7861 283.325 14.8534 283.325C18.2445 283.325 22.279 279.443 23.6635 274.849C24.4991 272.079 24.2368 269.456 22.9804 268.002C22.3217 267.239 21.4496 266.852 20.3822 266.852V266.849Z" fill="#231F20"/>
<path d="M28.9573 285.171H14.8501V283.322H28.9573C34.0714 283.322 38.234 279.627 38.234 275.087C38.234 270.547 34.0714 266.849 28.9573 266.849H20.382V265H28.9573C35.2241 265 40.3199 269.524 40.3199 275.087C40.3199 280.65 35.2241 285.171 28.9573 285.171Z" fill="#231F20"/>
<path fill-rule="evenodd" clip-rule="evenodd" d="M39.1276 274.93C40.3474 274.21 41.5703 273.49 42.7932 272.77C43.1286 272.572 43.5434 272.578 43.8727 272.778C44.2051 272.981 44.3545 273.322 44.2692 273.671C43.949 274.946 43.9276 276.259 44.2692 277.613C44.3576 277.959 44.2051 278.303 43.8758 278.506C43.5434 278.709 43.1286 278.712 42.7932 278.514C41.5703 277.794 40.3505 277.077 39.1307 276.357C38.8532 276.194 38.7007 275.94 38.7007 275.642C38.7007 275.344 38.8532 275.092 39.1307 274.927L39.1276 274.93Z" fill="#231F20"/>
<path fill-rule="evenodd" clip-rule="evenodd" d="M16.964 274.852C17.1622 274.191 17.6562 273.658 18.0648 273.658C18.4735 273.658 18.6442 274.194 18.446 274.852C18.2478 275.512 17.7538 276.048 17.3451 276.048C16.9365 276.048 16.7657 275.512 16.964 274.852Z" fill="white"/>
<path fill-rule="evenodd" clip-rule="evenodd" d="M15.8536 270.266C16.0518 269.605 16.5458 269.072 16.9545 269.072C17.3631 269.072 17.5339 269.608 17.3357 270.266C17.1375 270.926 16.6434 271.462 16.2348 271.462C15.8262 271.462 15.6554 270.926 15.8536 270.266Z" fill="white"/>
<path fill-rule="evenodd" clip-rule="evenodd" d="M19.8883 270.143C20.0865 269.483 20.5805 268.947 20.9892 268.947C21.3978 268.947 21.5686 269.483 21.3703 270.143C21.1721 270.804 20.6781 271.34 20.2695 271.34C19.8608 271.34 19.69 270.804 19.8883 270.143Z" fill="white"/>
<path fill-rule="evenodd" clip-rule="evenodd" d="M17.3571 279.811C17.5554 279.15 18.0494 278.614 18.458 278.614C18.8667 278.614 19.0374 279.15 18.8362 279.811C18.6379 280.471 18.1439 281.005 17.7353 281.005C17.3266 281.005 17.1559 280.469 17.3541 279.811H17.3571Z" fill="white"/>
<path fill-rule="evenodd" clip-rule="evenodd" d="M13.4083 279.914C13.6065 279.253 14.1005 278.717 14.5092 278.717C14.9178 278.717 15.0886 279.253 14.8904 279.914C14.6921 280.574 14.1981 281.11 13.7895 281.11C13.3808 281.11 13.2101 280.574 13.4083 279.914Z" fill="white"/>
<path fill-rule="evenodd" clip-rule="evenodd" d="M13.1641 275.839C13.3624 275.179 13.8564 274.646 14.265 274.646C14.6737 274.646 14.8444 275.182 14.6462 275.839C14.448 276.5 13.954 277.036 13.5453 277.036C13.1367 277.036 12.9659 276.5 13.1641 275.839Z" fill="white"/>
<path fill-rule="evenodd" clip-rule="evenodd" d="M20.9796 275.112C21.1778 274.451 21.6718 273.918 22.0805 273.918C22.4891 273.918 22.6599 274.454 22.4617 275.112C22.2634 275.772 21.7694 276.308 21.3608 276.308C20.9521 276.308 20.7814 275.772 20.9796 275.112Z" fill="white"/>
<path fill-rule="evenodd" clip-rule="evenodd" d="M36.7095 274.868C36.7217 274.714 36.7613 274.565 36.7613 274.408C36.7613 271.067 33.7118 268.36 29.9487 268.36C29.6223 268.36 29.3082 268.406 28.9941 268.446C32.7542 269.088 35.7489 271.611 36.7095 274.871V274.868Z" fill="white"/>
</svg>
