<svg width="50" height="300" viewBox="0 0 50 300" fill="none" xmlns="http://www.w3.org/2000/svg">
<path d="M46.6113 26.1461V23.3877H40.3102V26.1461H46.6113Z" fill="#231F20"/>
<path d="M24.6935 36.5105C18.8047 36.5105 13.2459 34.2723 9.03135 30.2112C7.71999 28.9434 6.96533 26.9588 6.96533 24.7643C6.96533 22.5698 7.71999 20.5852 9.03135 19.3174C13.2417 15.2563 18.8047 13.0225 24.6935 13.0225C30.5823 13.0225 36.1412 15.2607 40.3557 19.3218C41.667 20.5895 42.4217 22.5742 42.4217 24.7687C42.4217 26.9632 41.667 28.9478 40.3557 30.2156C36.1453 34.2767 30.5823 36.5149 24.6935 36.5149V36.5105Z" fill="#961600"/>
<path d="M24.6931 14.0502C30.5366 14.0502 35.8356 16.3497 39.7038 20.0829C42.0378 22.3342 42.0378 27.2084 39.7038 29.4598C35.8356 33.1886 30.5366 35.4924 24.6931 35.4924C18.8497 35.4924 13.5507 33.193 9.68255 29.4598C7.34848 27.2084 7.34848 22.3342 9.68255 20.0829C13.5507 16.354 18.8497 14.0502 24.6931 14.0502ZM24.6931 12C18.5652 12 12.7713 14.33 8.38355 18.5616C6.87012 20.0217 6 22.2818 6 24.7648C6 27.2478 6.87012 29.5078 8.38355 30.9679C12.7754 35.1995 18.5652 37.5295 24.6931 37.5295C30.8211 37.5295 36.615 35.1995 41.0027 30.9679C42.5162 29.5078 43.3863 27.2478 43.3863 24.7648C43.3863 22.2818 42.5162 20.0217 41.0027 18.5616C36.6109 14.33 30.8211 12 24.6931 12Z" fill="#231F20"/>
<path d="M11.9795 22.5526C15.2166 20.3975 17.728 22.9111 20.0703 20.756C22.4127 18.6008 25.2581 18.8893 26.5406 19.2478C27.8231 19.6063 29.6087 21.8313 31.8974 22.1199C34.2397 22.4128 35.9469 20.4718 38.7594 22.6226C38.8748 22.71 38.9821 22.7975 39.0893 22.8893C38.5738 21.8663 37.8686 20.8696 36.8995 20.0347C34.9201 18.3254 33.3118 18.7538 32.1366 19.0642C31.6005 19.2041 31.1386 19.3308 30.685 19.2653C29.8973 19.1516 29.1303 18.5134 28.388 17.897C27.7612 17.3768 27.1715 16.8828 26.5241 16.6773C25.6581 16.4063 22.6353 15.7244 20.0291 18.4303C19.5507 18.9243 19.0476 18.9112 18.0373 18.8325C16.8455 18.7407 15.3569 18.627 13.6578 19.9035C12.2723 20.9439 11.2454 22.3734 10.499 23.7767C10.9444 23.3308 11.431 22.9111 11.9795 22.5483V22.5526Z" fill="#7A1200"/>
<path d="M37.6132 26.9852C34.376 29.1404 31.8647 26.6268 29.5223 28.7819C27.18 30.9371 24.3346 30.6486 23.0521 30.2901C21.7696 29.9316 19.984 27.7065 17.6953 27.418C15.353 27.1251 13.6457 29.0661 10.8333 26.9153C10.7179 26.8279 10.6106 26.7404 10.5034 26.6486C11.0189 27.6716 11.7241 28.6683 12.6932 29.5032C14.6726 31.2125 16.2809 30.7841 17.4561 30.4737C17.9922 30.3338 18.4541 30.207 18.9077 30.2726C19.6953 30.3863 20.4624 31.0245 21.2047 31.6409C21.8315 32.1611 22.4212 32.6551 23.0686 32.8605C23.9346 33.1316 26.9573 33.8135 29.5636 31.1076C30.0419 30.6136 30.545 30.6267 31.5554 30.7054C32.7471 30.7972 34.2358 30.9108 35.9348 29.6344C37.3204 28.594 38.3473 27.1645 39.0937 25.7612C38.6483 26.2071 38.1617 26.6268 37.6132 26.9896V26.9852Z" fill="#7A1200"/>
<path fill-rule="evenodd" clip-rule="evenodd" d="M33.8747 70.511C35.1108 70.9708 36.4724 71.4562 37.3222 71.7946C44.9156 74.8154 42.7879 86.1894 34.5218 86.1894H18.9068C13.4314 86.1894 8.98926 81.786 8.98926 76.3513C8.98926 70.9165 13.4282 66.5132 18.9068 66.5132C19.3445 66.5004 19.8145 66.5195 20.3166 66.5642C21.6107 65.8585 23.2845 65.3445 25.3736 65.1401C28.4058 64.8431 31.3801 65.3508 32.7642 66.6185C33.8554 67.6148 34.129 69.0198 33.8715 70.5078L33.8747 70.511Z" fill="#F89A2C"/>
<path fill-rule="evenodd" clip-rule="evenodd" d="M25.7653 71.0508C24.2234 70.0194 20.9434 70.6389 20.0195 72.7464C20.4637 67.979 24.9735 67.9566 26.8404 69.5819L25.7653 71.0508Z" fill="white"/>
<path fill-rule="evenodd" clip-rule="evenodd" d="M37.6881 70.8816C37.1152 70.6549 36.3072 70.3547 35.4606 70.045C34.9585 69.8598 34.4467 69.6714 33.9606 69.4894C33.9606 69.0679 33.8866 68.6687 33.7771 68.2855L34.4789 67.7427C35.0486 68.3973 36.436 68.7166 37.3051 68.0428C38.6216 67.0242 38.1581 64.4857 36.1173 64.4186C36.5486 62.4389 34.1763 61.3755 32.8629 62.391C31.9938 63.0615 31.9681 64.4761 32.4702 65.185L31.5786 65.8747C30.011 65.1658 27.7159 64.9136 25.379 65.1403C24.1332 65.2616 23.0388 65.4979 22.0796 65.814C20.866 65.6033 19.8006 65.4979 18.9089 65.5298C12.8928 65.5298 8 70.3834 8 76.3515C8 82.3195 12.8928 87.1699 18.9089 87.1699H34.5239C39.3491 87.1699 42.1753 83.7341 42.8384 80.3333C43.5047 76.9103 42.1721 72.6602 37.6913 70.8784L37.6881 70.8816ZM40.8877 79.9629C40.4178 82.3834 38.4671 85.2061 34.5207 85.2061H18.9057C13.984 85.2061 9.97963 81.2338 9.97963 76.3547C9.97963 71.4755 13.984 67.5 18.9315 67.5C18.9379 67.5 18.9476 67.5 18.954 67.5C15.6868 70.2334 16.234 74.4675 19.1632 76.0194C15.5967 69.8853 21.8381 66.8007 26.7856 67.0913C31.7331 67.3819 35.3898 71.0508 26.6537 78.4206C29.2352 78.2706 32.5893 74.8187 33.6323 71.4723C34.0089 71.6128 34.3919 71.7533 34.7686 71.8906C35.5958 72.194 36.3844 72.4814 36.9478 72.7049C40.3791 74.0684 41.3963 77.3318 40.8845 79.9597L40.8877 79.9629Z" fill="#231F20"/>
<path fill-rule="evenodd" clip-rule="evenodd" d="M37.1427 127.61C37.1427 129.517 36.3407 131.331 35.1806 132.953C33.674 135.056 31.5401 136.851 29.833 138.067C29.4435 138.343 29.1198 138.73 28.8706 139.155C28.3379 140.064 27.4528 140.591 26.4589 140.591H22.6867C21.6928 140.591 20.8077 140.064 20.275 139.155C20.0286 138.733 19.7021 138.343 19.3126 138.067C17.6055 136.851 15.4716 135.056 13.965 132.953C12.8021 131.331 12.0029 129.517 12.0029 127.61C12.0029 122.025 16.2392 119.681 19.3584 117.957C20.7361 117.194 21.836 116.586 21.8618 116.22L21.9276 115.262H27.2208L27.2867 116.22C27.3125 116.586 28.4124 117.197 29.7901 117.96C32.9064 119.684 37.1427 122.028 37.1427 127.613V127.61Z" fill="#BA0068"/>
<path fill-rule="evenodd" clip-rule="evenodd" d="M29.7872 117.96C28.4094 117.197 27.3067 116.59 27.2838 116.22L27.2265 115.386C27.4127 114.019 27.9597 112.496 28.8276 111.203C27.2637 111.209 26.3357 112.152 25.7743 113.24C25.6855 112.205 25.7399 111.085 25.9863 110C24.494 110.667 23.9784 111.978 23.8552 113.25C23.1535 111.988 21.9333 110.84 19.788 110.831C21.5524 113.02 22.0364 114.363 21.8588 116.217C21.8331 116.583 20.7332 117.191 19.3555 117.954C16.2363 119.678 12 122.022 12 127.607C12 129.514 12.802 131.328 13.962 132.95C15.4686 135.053 17.6025 136.848 19.3096 138.064C19.6992 138.34 20.0228 138.727 20.272 139.152C20.8048 140.061 21.6898 140.588 22.6837 140.588H24.2305C24.345 140.594 24.4567 140.603 24.5713 140.603C24.6859 140.603 24.7976 140.591 24.9122 140.588H26.4589C27.4528 140.588 28.3378 140.061 28.8706 139.152C29.1169 138.727 29.4434 138.34 29.833 138.064C31.5401 136.848 33.674 135.053 35.1806 132.95C36.3406 131.328 37.1426 129.514 37.1426 127.607C37.1426 122.022 32.9063 119.678 29.79 117.954L29.7872 117.96ZM33.674 131.7C32.6085 133.189 31.1763 134.51 29.8473 135.555C32.2676 131.493 33.3446 126.023 30.022 123.371C31.8265 127.282 30.549 131.362 28.3292 134.612C28.2118 134.786 27.4098 135.998 26.7281 137.034C26.6508 137.152 26.5419 137.326 26.4216 137.521C26.0693 138.085 25.5308 138.395 24.9036 138.395H24.5484C23.9068 138.395 23.3568 138.07 23.0103 137.487C22.7582 137.062 22.4432 136.674 22.1625 136.271C19.5216 132.42 16.5886 128.869 19.1292 123.368C15.5087 125.833 16.7747 131.418 19.2695 135.527C17.9491 134.485 16.5313 133.17 15.4744 131.694C14.5492 130.404 13.9133 129.006 13.9133 127.607C13.9133 123.275 17.551 121.263 20.2262 119.783C21.306 119.185 22.2598 118.658 22.9043 118.035C22.8499 118.183 22.7955 118.335 22.7353 118.497C21.6526 121.377 19.9369 128.385 23.9154 134.764C22.7038 129.331 22.6236 124.091 24.5799 118.85C25.823 122.19 26.7023 122.726 27.911 127.607C27.911 122.456 27.0546 120.174 26.4216 118.497C26.3615 118.335 26.3071 118.186 26.2526 118.035C26.9 118.655 27.8509 119.185 28.9307 119.783C31.606 121.266 35.2436 123.275 35.2436 127.607C35.2436 129.003 34.6077 130.404 33.6826 131.694L33.674 131.7Z" fill="#231F20"/>
<path d="M31.636 186.804C29.2325 186.804 26.8966 186.291 24.7019 185.281C20.7975 183.484 16.2923 183.487 12.388 185.281L11 185.916V165.797L11.6094 165.518C16.0017 163.494 21.0824 163.494 25.4776 165.518C29.3735 167.311 33.8872 167.311 37.7887 165.518L39.1767 164.879V185.001L38.5673 185.281C36.3697 186.291 34.0367 186.804 31.6332 186.804H31.636Z" fill="#231F20"/>
<path d="M18.5486 181.758C20.9493 181.758 23.2824 182.271 25.48 183.278C29.1755 184.98 33.4381 185.069 37.1817 183.543V168.089C33.1476 169.529 28.6367 169.332 24.7042 167.52C21.0086 165.819 16.7488 165.73 13.0024 167.256V182.71C14.7853 182.075 16.6444 181.752 18.5486 181.752V181.758Z" fill="#E94E3B"/>
<path d="M25.4775 176.055C21.545 174.246 17.051 174.071 13 175.508V179.255C25.139 174.025 28.9051 182.75 37.1792 180.029V176.298C33.4329 177.818 29.1618 177.75 25.4775 176.055Z" fill="#FCD6BF"/>
<path d="M25.4775 170.837C21.545 169.028 17.051 168.853 13 170.291V174.037C25.139 168.807 28.9051 177.532 37.1792 174.811V171.08C33.4329 172.6 29.1618 172.536 25.4775 170.837Z" fill="#FCD6BF"/>
<path fill-rule="evenodd" clip-rule="evenodd" d="M6.20774 230.169C6.00148 229.955 5.94993 229.617 6.08171 229.353C6.21349 229.087 6.49135 228.981 6.74632 229.096C23.0239 236.434 26.6335 222.177 32.9015 219.999C35.3824 219.137 38.0925 220.803 38.9576 223.718C41.9914 233.947 19.2997 243.642 6.20774 230.169Z" fill="#F90B0B"/>
<path fill-rule="evenodd" clip-rule="evenodd" d="M40.5679 221.926C40.3616 221.234 40.0379 220.623 39.6283 220.115C40.3359 217.81 40.1124 215.196 38.8061 213L37.4453 213.949C38.3133 215.41 38.4222 217.193 37.9638 218.821C37.133 218.459 36.2106 218.393 35.3225 218.704C35.2165 218.741 35.1277 218.809 35.0274 218.856C34.1938 218.71 33.3373 218.769 32.538 219.048C30.461 219.77 28.7135 221.616 26.8658 223.567C23.4023 227.226 19.4747 231.376 12.0178 229.847C10.4593 229.528 8.7777 228.963 7.01874 228.172L6.72369 228.076C6.10491 227.949 5.48612 228.272 5.18532 228.876C4.85301 229.54 4.97617 230.368 5.4861 230.895C8.71468 234.217 12.6337 236.366 17.1342 237.291C24.9779 238.9 33.7097 236.348 37.8922 231.221C39.2014 229.618 39.9176 227.862 40.0379 226.097C40.7283 224.817 41.0062 223.412 40.565 221.926H40.5679ZM36.5085 229.894C33.3458 233.771 25.5995 236.99 17.478 235.324C13.983 234.608 10.869 233.088 8.20188 230.802C9.40221 231.249 10.5625 231.587 11.6711 231.817C20.0706 233.538 24.5539 228.805 28.152 225C29.9139 223.139 31.4351 221.532 33.0995 220.952C33.4862 220.819 33.8815 220.788 34.274 220.809C34.4946 221.275 34.8842 221.644 35.3941 221.749L35.5202 221.771C35.4171 222.918 36.139 223.979 37.2047 224.199C37.431 224.246 37.6544 224.249 37.8693 224.218C37.9209 224.466 38.0326 224.683 38.1701 224.885C38.4451 226.966 37.4568 228.731 36.5057 229.897L36.5085 229.894Z" fill="#231F20"/>
<path fill-rule="evenodd" clip-rule="evenodd" d="M33.543 222.425C30.5321 224.95 29.7672 225.862 27.6416 228.234C30.4204 226.857 32.9013 225.654 34.8694 224.823L33.5401 222.425H33.543Z" fill="white"/>
<path d="M38.3057 288.087C30.8753 291.616 23.2914 288.881 20.1644 281.456C17.0375 274.032 20.3418 265.737 27.1993 262.348C34.0569 258.959 41.7942 260.672 45.4668 269.277C48.6279 276.687 45.2076 284.808 38.3057 288.087Z" fill="#465C00"/>
<path d="M37.9644 287.297C30.9875 290.612 23.8708 288.042 20.9347 281.072C17.9987 274.102 21.1018 266.316 27.5399 263.134C33.9781 259.952 41.2414 261.561 44.6855 269.639C47.6522 276.594 44.4434 284.218 37.9644 287.297ZM41.2005 271.271C38.7623 265.552 33.62 264.415 29.0642 266.667C24.5084 268.919 22.3123 274.431 24.3925 279.363C26.4726 284.295 31.5092 286.115 36.4469 283.767C41.0334 281.589 43.3045 276.192 41.2039 271.271H41.2005Z" fill="#728B00"/>
<path d="M36.9826 285.019C31.322 287.71 25.5454 285.624 23.1618 279.969C20.7782 274.313 23.2948 267.989 28.5224 265.408C33.7465 262.828 39.6424 264.131 42.4387 270.687C44.8461 276.332 42.2409 282.52 36.9826 285.019ZM40.6859 271.507C38.3944 266.135 33.5658 265.069 29.2862 267.184C25.0066 269.296 22.9436 274.475 24.8975 279.108C26.8515 283.742 31.5811 285.447 36.2154 283.243C40.5222 281.198 42.6569 276.129 40.6825 271.507H40.6859Z" fill="#A0B800"/>
<path d="M42.3092 270.196C41.1907 267.926 39.8608 268.45 40.0041 269.159C40.1473 269.868 39.3357 270.241 38.6503 270.713C38.2786 270.972 37.7091 270.909 37.1396 270.721C35.6699 269.698 33.2659 269.484 31.5404 269.835C31.5199 269.835 31.4995 269.835 31.479 269.835L31.5267 269.764C31.4961 269.783 31.4381 269.809 31.3597 269.838C30.6197 269.86 29.9036 269.971 29.2898 270.222C28.6112 270.27 27.9292 270.237 27.4927 270.03C26.8789 269.735 26.3469 268.827 26.456 267.933C26.5618 267.04 25.2694 266.818 24.1338 269.074C22.9983 271.333 24.1338 272.249 24.6044 271.728C25.075 271.208 25.8081 271.74 26.5515 272.098C26.9505 272.29 27.2676 272.843 27.479 273.464C27.4859 273.589 27.4927 273.711 27.5063 273.844C27.5506 274.228 27.6598 274.615 27.7825 274.999C27.7825 275.007 27.7825 275.018 27.7825 275.029V275.022C27.9906 275.657 28.2463 276.284 28.4305 276.893C28.7885 278.082 29.1295 279.178 29.832 280.186C30.0843 280.544 30.3844 280.832 30.722 281.05C31.0323 281.659 31.2778 282.287 31.2949 282.778C31.3188 283.505 30.797 284.421 30.0059 284.705C29.2182 284.989 29.5967 286.348 31.9701 286.47C34.3434 286.592 34.6094 285.085 33.9717 284.853C33.3341 284.62 33.4568 283.675 33.4295 282.796C33.4159 282.32 33.7091 281.696 34.1115 281.146C35.5062 280.393 36.901 278.514 37.7228 276.535C37.9444 275.992 38.1251 275.45 38.2547 274.918C38.6366 274.051 39.1789 273.087 39.7279 272.703C40.2905 272.312 41.2862 272.327 41.9171 272.917C42.5479 273.504 43.4311 272.459 42.3126 270.189L42.3092 270.196Z" fill="#E1EF93"/>
<path d="M31.5536 269.735L31.5298 269.768C31.5468 269.753 31.557 269.742 31.5536 269.735Z" fill="#E1EF93"/>
<path d="M37.1153 273.434C36.8868 271.307 33.7735 270.761 31.8059 271.16C30.0531 271.182 28.4026 271.784 28.6993 274.246C28.7948 275.04 29.1836 275.837 29.412 276.594C29.6883 277.51 29.9508 278.351 30.4896 279.127C31.2602 280.227 32.6618 280.456 33.7564 279.88C35.5467 278.935 37.3471 275.568 37.1153 273.43V273.434Z" fill="#EFF2BE"/>
<path d="M33.3983 278.816C33.3574 279.152 32.9243 279.374 32.4265 279.304C31.9286 279.233 31.5569 278.905 31.5978 278.565C31.6387 278.229 32.0752 278.011 32.5697 278.078C33.0676 278.148 33.4358 278.477 33.3949 278.816H33.3983Z" fill="#CDD862"/>
<path d="M29.9168 274.147C29.6236 274.025 29.5315 273.512 29.7122 273.01C29.893 272.504 30.2749 272.194 30.5716 272.316C30.8648 272.437 30.9569 272.947 30.7761 273.456C30.5954 273.962 30.2101 274.272 29.9168 274.15V274.147Z" fill="#CDD862"/>
<path d="M35.4517 272.526C35.7245 272.352 36.1508 272.592 36.4031 273.061C36.6588 273.53 36.6418 274.047 36.3724 274.22C36.0996 274.394 35.6734 274.154 35.421 273.685C35.1653 273.216 35.1789 272.699 35.4517 272.526Z" fill="#CDD862"/>
<path d="M26.4388 276.739C26.9162 276.635 27.7312 276.779 27.8028 277.159C27.8744 277.54 27.1958 278.012 26.6945 278.119C25.3101 278.418 25.3033 278.101 25.2317 277.717C25.16 277.337 25.0509 277.038 26.4388 276.739Z" fill="#FFEB92"/>
<path d="M26.333 277.019C26.9059 276.893 27.4037 276.993 27.4515 277.237C27.4958 277.484 27.0695 277.779 26.4967 277.905C25.9238 278.03 25.4225 277.931 25.3782 277.687C25.3338 277.443 25.7601 277.144 26.333 277.019Z" fill="#FFFAE6"/>
<path d="M25.9988 274.239C26.4864 274.268 27.2435 274.612 27.223 274.985C27.2059 275.354 26.4387 275.609 25.9306 275.579C24.5188 275.498 24.5871 275.199 24.6041 274.83C24.6212 274.46 24.5871 274.158 25.9954 274.239H25.9988Z" fill="#FFEB92"/>
<path d="M25.8287 274.468C26.4118 274.501 26.8756 274.722 26.862 274.959C26.8483 275.195 26.3675 275.361 25.7844 275.328C25.2013 275.291 24.7409 275.073 24.7511 274.837C24.7648 274.597 25.2456 274.434 25.8287 274.468Z" fill="#FFFAE6"/>
<path d="M29.8249 268.458C30.2477 268.572 30.8547 269.011 30.7797 269.332C30.7047 269.654 29.9953 269.735 29.5555 269.617C28.3347 269.284 28.437 269.037 28.512 268.716C28.587 268.398 28.6007 268.125 29.8249 268.458Z" fill="#FFEB92"/>
<path d="M29.6404 268.628C30.1451 268.764 30.5168 269.045 30.4691 269.251C30.4214 269.458 29.9712 269.51 29.4665 269.373C28.9618 269.237 28.5902 268.956 28.6379 268.753C28.6857 268.546 29.1323 268.491 29.637 268.628H29.6404Z" fill="#FFFAE6"/>
<path d="M28.3653 281.379C28.4642 280.921 28.8632 280.257 29.1599 280.33C29.4566 280.404 29.5452 281.176 29.4429 281.652C29.1531 282.981 28.9212 282.87 28.6245 282.793C28.3278 282.719 28.0789 282.704 28.3653 281.379Z" fill="#FFEB92"/>
<path d="M28.5255 281.575C28.6448 281.025 28.8971 280.618 29.0881 280.666C29.2791 280.714 29.337 281.202 29.2177 281.748C29.1017 282.298 28.846 282.701 28.6584 282.653C28.4675 282.605 28.4095 282.121 28.5289 281.571L28.5255 281.575Z" fill="#FFFAE6"/>
<path d="M33.3814 267.919C33.3234 268.398 32.9926 269.126 32.6994 269.085C32.4027 269.045 32.2527 268.269 32.3106 267.767C32.4743 266.375 32.7096 266.457 33.0062 266.501C33.3029 266.541 33.5485 266.523 33.3814 267.919Z" fill="#FFEB92"/>
<path d="M33.2075 267.737C33.1393 268.313 32.9278 268.76 32.7403 268.734C32.5493 268.708 32.4504 268.217 32.5186 267.641C32.5868 267.066 32.7948 266.619 32.9858 266.648C33.1768 266.674 33.2757 267.162 33.2075 267.737Z" fill="#FFFAE6"/>
<path d="M35.4513 268.207C35.3933 268.687 35.0148 269.41 34.6602 269.359C34.3021 269.307 34.1009 268.528 34.1623 268.026C34.326 266.634 34.6124 266.723 34.9671 266.774C35.3217 266.822 35.6184 266.811 35.4513 268.207Z" fill="#FFEB92"/>
<path d="M35.2438 268.018C35.1756 268.594 34.9335 269.037 34.705 269.004C34.4766 268.971 34.347 268.48 34.4152 267.904C34.4834 267.328 34.7221 266.888 34.954 266.918C35.1824 266.951 35.312 267.442 35.2438 268.018Z" fill="#FFFAE6"/>
<path d="M37.2276 270.015C36.8321 270.152 36.1194 270.086 36.0137 269.735C35.908 269.384 36.4365 268.886 36.8491 268.742C37.9949 268.343 38.0426 268.642 38.1449 268.996C38.2507 269.351 38.3768 269.62 37.2276 270.019V270.015Z" fill="#FFEB92"/>
<path d="M37.2864 269.743C36.8124 269.909 36.3725 269.861 36.3043 269.632C36.2361 269.403 36.5669 269.089 37.0443 268.923C37.5183 268.761 37.9582 268.809 38.023 269.037C38.0912 269.266 37.7604 269.584 37.2864 269.746V269.743Z" fill="#FFFAE6"/>
<path d="M35.7757 281.767C35.5166 281.416 35.3188 280.67 35.5848 280.438C35.8508 280.209 36.468 280.559 36.7408 280.929C37.4978 281.948 37.2523 282.099 36.9863 282.328C36.7203 282.56 36.5294 282.786 35.7757 281.767Z" fill="#FFEB92"/>
<path d="M36.0349 281.729C35.7212 281.309 35.6086 280.847 35.7791 280.696C35.9496 280.548 36.3418 280.77 36.6555 281.187C36.9658 281.608 37.0784 282.069 36.9079 282.22C36.734 282.372 36.3452 282.15 36.0349 281.729Z" fill="#FFFAE6"/>
<path d="M39.6016 275.435C39.1856 275.409 38.5445 275.066 38.5649 274.697C38.5854 274.327 39.2435 274.069 39.6766 274.098C40.8803 274.176 40.819 274.475 40.7985 274.841C40.7781 275.213 40.8053 275.512 39.6016 275.435Z" fill="#FFEB92"/>
<path d="M39.7483 275.206C39.247 275.173 38.8549 274.955 38.8685 274.719C38.8821 274.482 39.2948 274.316 39.796 274.346C40.2905 274.379 40.6861 274.597 40.6724 274.837C40.6588 275.077 40.2461 275.243 39.7483 275.21V275.206Z" fill="#FFFAE6"/>
<path d="M4.46772 277.639C3.15827 273.312 4.63824 267.937 8.40632 264.717C14.0158 259.922 22.4249 257.707 27.349 263.315C32.5117 269.196 34.7044 277.096 29.7974 282.722C27.1342 285.775 22.2919 289.342 17.8759 289.05C15.2263 288.877 12.7473 286.953 10.6569 285.133C8.31083 283.084 5.42253 280.799 4.47114 277.639H4.46772Z" fill="#465C00"/>
<path d="M5.40599 277.395C4.1852 273.348 5.56628 268.331 9.08542 265.322C14.3232 260.844 22.1833 258.773 26.78 264.012C31.6018 269.505 33.6512 276.889 29.0647 282.142C26.5754 284.996 22.0537 288.326 17.9276 288.056C15.4519 287.894 13.1331 286.096 11.186 284.398C8.99332 282.486 6.29601 280.348 5.40599 277.398V277.395ZM13.0956 281.762C14.5517 283.032 16.2874 284.376 18.1356 284.498C21.2217 284.701 24.6044 282.209 26.4629 280.075C29.89 276.147 28.3589 270.627 24.7545 266.519C21.3172 262.602 15.4417 264.152 11.5236 267.501C8.89102 269.749 7.86121 273.503 8.77168 276.527C9.43664 278.735 11.4554 280.329 13.0956 281.762Z" fill="#728B00"/>
<path d="M7.5096 276.856C6.47978 273.449 7.64599 269.221 10.6093 266.685C15.0219 262.912 21.6441 261.166 25.5145 265.581C29.5792 270.207 31.3013 276.428 27.4412 280.854C25.344 283.258 21.535 286.067 18.0602 285.834C15.9767 285.698 14.0227 284.184 12.3791 282.752C10.5309 281.138 8.25981 279.341 7.5096 276.852V276.856ZM13.31 281.471C14.7115 282.696 16.3825 283.989 18.1625 284.103C21.1326 284.302 24.3858 281.899 26.1761 279.85C29.4736 276.07 28.0004 270.757 24.5324 266.803C21.2213 263.034 15.5675 264.522 11.796 267.745C9.26575 269.908 8.27002 273.522 9.1498 276.435C9.79089 278.558 11.7312 280.094 13.31 281.474V281.471Z" fill="#A0B800"/>
<path d="M9.37828 276.1C9.4874 275.383 10.3672 275.361 11.1651 275.191C11.9631 275.022 13.3577 276.107 13.9136 276.901L13.9204 276.853C14.7081 278.112 15.8948 279.171 17.0201 279.673C17.4225 279.854 17.8044 279.987 18.1761 280.09C18.1932 280.098 18.2034 280.101 18.2239 280.109C19.4276 280.541 20.3653 281.242 20.6927 281.874C21.0235 282.505 20.9519 283.579 20.3722 284.229C19.7925 284.875 20.7063 285.89 22.8649 284.812C25.02 283.734 24.6177 282.265 23.9527 282.379C23.2912 282.494 22.9945 281.593 22.5955 280.825C22.2818 280.22 22.6603 279.289 23.09 278.521C23.2127 278.344 23.3218 278.156 23.4241 277.96L23.4276 277.953C24.1743 276.513 24.3585 274.645 24.0073 273.035C23.9936 272.914 23.9561 272.592 23.8606 271.754C23.7072 270.392 23.8913 269.177 24.2732 268.583C24.6586 267.989 25.5861 267.597 26.3738 267.889C27.1615 268.177 27.6185 266.848 25.7941 265.201C23.9698 263.555 22.9195 264.581 23.298 265.179C23.6765 265.781 23.0525 266.457 22.5819 267.173C22.2341 267.708 20.1608 268.842 18.749 269.321C18.3739 269.362 17.9988 269.436 17.6271 269.532C16.4916 269.831 15.4072 270.381 14.5649 271.06C14.5649 271.06 11.4959 272.766 10.8377 272.91C10.1796 273.054 9.25893 272.64 8.8736 271.843C8.48827 271.042 7.31179 271.669 7.58119 274.22C7.85058 276.775 9.26574 276.819 9.37486 276.1H9.37828Z" fill="#E1EF93"/>
<path d="M17.4228 278.709C23.2403 281.308 24.4951 273.408 21.7739 271.163C19.9462 269.653 16.6998 270.569 15.1005 272.142C12.8772 274.331 15.2983 277.761 17.4228 278.709Z" fill="#EFF2BE"/>
<path d="M20.2697 271.355C20.4708 271.089 20.9448 271.156 21.3336 271.499C21.7189 271.842 21.8724 272.337 21.6712 272.599C21.4734 272.861 20.996 272.799 20.6072 272.452C20.2185 272.108 20.0685 271.614 20.2662 271.351L20.2697 271.355Z" fill="#CDD862"/>
<path d="M20.9311 277.314C21.1187 277.587 20.9482 278.07 20.5458 278.395C20.1434 278.724 19.666 278.765 19.475 278.491C19.2875 278.218 19.458 277.735 19.8604 277.41C20.2628 277.085 20.7402 277.04 20.9277 277.314H20.9311Z" fill="#CDD862"/>
<path d="M15.4446 275.504C15.1309 275.493 14.8853 275.047 14.899 274.504C14.9126 273.961 15.1786 273.529 15.4957 273.537C15.8095 273.544 16.055 273.994 16.0379 274.537C16.0243 275.08 15.7583 275.512 15.4446 275.504Z" fill="#CDD862"/>
<path d="M14.3124 268.575C14.6705 269.096 15.0149 270.1 14.7387 270.322C14.4659 270.543 13.6918 269.919 13.3167 269.376C12.28 267.867 12.5426 267.745 12.8154 267.523C13.0916 267.302 13.2758 267.065 14.3124 268.575Z" fill="#FFEB92"/>
<path d="M14.0193 268.55C14.4456 269.173 14.6536 269.79 14.4729 269.938C14.2955 270.078 13.8079 269.69 13.3783 269.066C12.9486 268.443 12.7474 267.822 12.9213 267.682C13.0986 267.542 13.5863 267.929 14.0159 268.553L14.0193 268.55Z" fill="#FFFAE6"/>
<path d="M17.6131 267.021C17.9711 267.541 18.3496 268.52 18.1143 268.708C17.8824 268.896 17.1425 268.246 16.7708 267.704C15.7341 266.194 15.9592 266.098 16.1945 265.913C16.4264 265.725 16.5798 265.518 17.6131 267.024V267.021Z" fill="#FFEB92"/>
<path d="M17.3473 266.977C17.7736 267.601 18.002 268.203 17.852 268.324C17.702 268.443 17.2348 268.037 16.8051 267.413C16.3788 266.789 16.1538 266.187 16.3038 266.069C16.4539 265.947 16.9211 266.357 17.3507 266.977H17.3473Z" fill="#FFFAE6"/>
<path d="M12.0075 270.381C12.6077 270.37 13.5625 270.702 13.5693 271.134C13.5761 271.566 12.6861 271.429 12.0587 271.444C10.323 271.477 10.3537 271.628 10.3469 271.197C10.34 270.765 10.2684 270.414 12.0041 270.381H12.0075Z" fill="#FFEB92"/>
<path d="M11.8197 270.665C12.5358 270.651 13.1224 270.865 13.1258 271.142C13.1292 271.422 12.5802 271.153 11.8606 271.164C11.1445 271.178 10.5342 271.466 10.5274 271.19C10.5239 270.913 11.1003 270.676 11.8164 270.662L11.8197 270.665Z" fill="#FFFAE6"/>
<path d="M25.8213 271.939C25.2689 272.175 24.2834 272.227 24.1402 271.839C23.9969 271.448 24.7335 270.772 25.3064 270.528C26.9023 269.849 26.9603 270.192 27.1001 270.58C27.2433 270.971 27.4138 271.263 25.8213 271.939Z" fill="#FFEB92"/>
<path d="M25.9067 271.614C25.2485 271.894 24.6382 271.916 24.5461 271.665C24.4574 271.414 24.9178 270.982 25.5759 270.702C26.2341 270.421 26.8444 270.399 26.9331 270.65C27.0252 270.901 26.5648 271.333 25.9067 271.614Z" fill="#FFFAE6"/>
<path d="M25.8623 273.984C25.1939 273.969 24.1436 273.659 24.1504 273.308C24.1572 272.958 25.1939 272.699 25.8895 272.714C27.823 272.758 27.748 273.039 27.7412 273.39C27.7344 273.74 27.7992 274.025 25.8623 273.98V273.984Z" fill="#FFEB92"/>
<path d="M26.0801 273.762C25.2822 273.744 24.6377 273.545 24.6411 273.323C24.6479 273.098 25.2992 272.932 26.0972 272.95C26.8985 272.969 27.5396 273.168 27.5362 273.393C27.5328 273.618 26.8815 273.784 26.0801 273.766V273.762Z" fill="#FFFAE6"/>
<path d="M25.8625 277.011C25.1907 276.889 24.1814 276.306 24.2564 275.819C24.3314 275.331 25.3033 275.686 26.0057 275.808C27.9597 276.158 27.9494 275.981 27.8778 276.465C27.8028 276.952 27.813 277.358 25.8625 277.011Z" fill="#FFEB92"/>
<path d="M26.1288 276.73C25.3206 276.586 24.7068 276.217 24.7546 275.903C24.8023 275.59 25.3718 276.014 26.1766 276.158C26.9847 276.302 27.7213 276.114 27.6736 276.428C27.6258 276.742 26.9336 276.878 26.1288 276.73Z" fill="#FFFAE6"/>
<path d="M24.0415 279.665C23.6289 279.174 23.2231 278.152 23.5266 277.852C23.8335 277.55 24.7167 278.059 25.1463 278.572C26.3433 279.994 26.0534 280.186 25.7465 280.488C25.443 280.791 25.2384 281.086 24.0415 279.665Z" fill="#FFEB92"/>
<path d="M24.3753 279.629C23.8809 279.042 23.6388 278.41 23.8366 278.215C24.0344 278.023 24.5936 278.34 25.088 278.927C25.5825 279.514 25.8246 280.145 25.6268 280.341C25.4291 280.533 24.8698 280.216 24.3753 279.629Z" fill="#FFFAE6"/>
<path d="M21.1905 267.235C20.8495 267.815 20.0481 268.549 19.731 268.328C19.4139 268.106 19.6833 267.036 20.0413 266.434C21.0336 264.758 21.2553 264.998 21.5724 265.219C21.8896 265.441 22.1828 265.559 21.1905 267.235Z" fill="#FFEB92"/>
<path d="M21.0989 266.903C20.6863 267.597 20.1918 268.043 19.9872 267.899C19.7826 267.759 19.9497 267.083 20.3623 266.389C20.7749 265.695 21.2728 265.252 21.474 265.393C21.6786 265.533 21.5115 266.208 21.0989 266.903Z" fill="#FFFAE6"/>
<path d="M13.1024 278.333C13.573 277.945 14.5108 277.602 14.7461 277.938C14.9779 278.27 14.4425 279.141 13.9549 279.544C12.5909 280.666 12.4477 280.352 12.2158 280.02C11.9805 279.684 11.7418 279.455 13.1058 278.333H13.1024Z" fill="#FFEB92"/>
<path d="M13.1017 278.676C13.6644 278.215 14.2441 278.012 14.3941 278.226C14.5442 278.44 14.21 278.994 13.6473 279.455C13.0847 279.92 12.505 280.12 12.3549 279.906C12.2015 279.692 12.539 279.142 13.1017 278.676Z" fill="#FFFAE6"/>
<path d="M11.6324 276.398C12.2769 276.217 13.368 276.203 13.4499 276.542C13.5317 276.882 12.6008 277.436 11.9256 277.624C10.0535 278.148 10.0569 277.856 9.97168 277.517C9.88984 277.177 9.75685 276.922 11.6324 276.395V276.398Z" fill="#FFEB92"/>
<path d="M11.4752 276.679C12.2493 276.461 12.921 276.461 12.9722 276.679C13.0233 276.897 12.4368 277.248 11.6627 277.469C10.8887 277.687 10.2203 277.687 10.1657 277.469C10.1146 277.251 10.6977 276.9 11.4718 276.683L11.4752 276.679Z" fill="#FFFAE6"/>
<path d="M17.0273 281.888C16.983 281.205 17.2183 280.097 17.5934 280.068C17.9685 280.038 18.3436 281.072 18.3879 281.788C18.5141 283.774 18.2072 283.726 17.8321 283.752C17.457 283.778 17.1569 283.877 17.0273 281.888Z" fill="#FFEB92"/>
<path d="M17.2859 282.094C17.2314 281.275 17.3848 280.592 17.6303 280.577C17.8724 280.559 18.1112 281.208 18.1623 282.028C18.2135 282.847 18.06 283.53 17.8213 283.545C17.5792 283.564 17.3405 282.914 17.2859 282.094Z" fill="#FFFAE6"/>
</svg>
